<?xml version="1.0" encoding="utf-8" standalone="no"?>
<!DOCTYPE svg PUBLIC "-//W3C//DTD SVG 1.1//EN"
  "http://www.w3.org/Graphics/SVG/1.1/DTD/svg11.dtd">
<svg xmlns:xlink="http://www.w3.org/1999/xlink" width="460.8pt" height="345.6pt" viewBox="0 0 460.8 345.6" xmlns="http://www.w3.org/2000/svg" version="1.1">
 <metadata>
  <rdf:RDF xmlns:dc="http://purl.org/dc/elements/1.1/" xmlns:cc="http://creativecommons.org/ns#" xmlns:rdf="http://www.w3.org/1999/02/22-rdf-syntax-ns#">
   <cc:Work>
    <dc:type rdf:resource="http://purl.org/dc/dcmitype/StillImage"/>
    <dc:date>2025-11-06T08:49:36.103432</dc:date>
    <dc:format>image/svg+xml</dc:format>
    <dc:creator>
     <cc:Agent>
      <dc:title>Matplotlib v3.10.5, https://matplotlib.org/</dc:title>
     </cc:Agent>
    </dc:creator>
   </cc:Work>
  </rdf:RDF>
 </metadata>
 <defs>
  <style type="text/css">*{stroke-linejoin: round; stroke-linecap: butt}</style>
 </defs>
 <g id="figure_1">
  <g id="patch_1">
   <path d="M 0 345.6 
L 460.8 345.6 
L 460.8 0 
L 0 0 
z
" style="fill: #ffffff"/>
  </g>
  <g id="axes_1">
   <g id="patch_2">
    <path d="M 47.826911 311.934854 
Q 192.316329 244.20544 335.793413 176.950557 
" clip-path="url(#p294f7f5267)" style="fill: none; stroke: #4c4c4c; stroke-linecap: round"/>
    <path d="M 334.452201 176.916602 
L 335.793413 176.950557 
L 334.961522 178.003153 
" clip-path="url(#p294f7f5267)" style="fill: none; stroke: #4c4c4c; stroke-linecap: round"/>
   </g>
   <g id="patch_3">
    <path d="M 45.741555 309.135792 
Q 103.458852 244.203832 160.433369 180.107502 
" clip-path="url(#p294f7f5267)" style="fill: none; stroke: #4c4c4c; stroke-linecap: round"/>
    <path d="M 159.187686 180.605775 
L 160.433369 180.107502 
L 160.084578 181.403011 
" clip-path="url(#p294f7f5267)" style="fill: none; stroke: #4c4c4c; stroke-linecap: round"/>
   </g>
   <g id="patch_4">
    <path d="M 47.444163 311.200021 
Q 166.929404 240.542883 285.452284 170.454834 
" clip-path="url(#p294f7f5267)" style="fill: none; stroke: #4c4c4c; stroke-linecap: round"/>
    <path d="M 284.113965 170.549187 
L 285.452284 170.454834 
L 284.724775 171.582101 
" clip-path="url(#p294f7f5267)" style="fill: none; stroke: #4c4c4c; stroke-linecap: round"/>
   </g>
   <g id="patch_5">
    <path d="M 47.901291 304.766656 
Q 192.319409 240.542252 335.715957 176.772153 
" clip-path="url(#p294f7f5267)" style="fill: none; stroke: #4c4c4c; stroke-linecap: round"/>
    <path d="M 334.375686 176.711532 
L 335.715957 176.772153 
L 334.863297 177.807997 
" clip-path="url(#p294f7f5267)" style="fill: none; stroke: #4c4c4c; stroke-linecap: round"/>
   </g>
   <g id="patch_6">
    <path d="M 47.971023 297.603989 
Q 192.318989 236.880686 335.636396 176.590911 
" clip-path="url(#p294f7f5267)" style="fill: none; stroke: #4c4c4c; stroke-linecap: round"/>
    <path d="M 334.297628 176.503167 
L 335.636396 176.590911 
L 334.762939 177.609279 
" clip-path="url(#p294f7f5267)" style="fill: none; stroke: #4c4c4c; stroke-linecap: round"/>
   </g>
   <g id="patch_7">
    <path d="M 48.036105 290.446519 
Q 192.316198 233.220039 335.557021 176.405771 
" clip-path="url(#p294f7f5267)" style="fill: none; stroke: #4c4c4c; stroke-linecap: round"/>
    <path d="M 334.220344 176.290471 
L 335.557021 176.405771 
L 334.662775 177.405932 
" clip-path="url(#p294f7f5267)" style="fill: none; stroke: #4c4c4c; stroke-linecap: round"/>
   </g>
   <g id="patch_8">
    <path d="M 48.098864 283.293043 
Q 192.316754 229.558012 335.486972 176.213339 
" clip-path="url(#p294f7f5267)" style="fill: none; stroke: #4c4c4c; stroke-linecap: round"/>
    <path d="M 334.153002 176.070076 
L 335.486972 176.213339 
L 334.571979 177.194557 
" clip-path="url(#p294f7f5267)" style="fill: none; stroke: #4c4c4c; stroke-linecap: round"/>
   </g>
   <g id="patch_9">
    <path d="M 47.489876 281.986864 
Q 141.541788 227.726146 234.625276 174.024134 
" clip-path="url(#p294f7f5267)" style="fill: none; stroke: #4c4c4c; stroke-linecap: round"/>
    <path d="M 233.28602 174.104089 
L 234.625276 174.024134 
L 233.885686 175.143512 
" clip-path="url(#p294f7f5267)" style="fill: none; stroke: #4c4c4c; stroke-linecap: round"/>
   </g>
   <g id="patch_10">
    <path d="M 48.079106 275.914924 
Q 179.620385 225.897043 310.116629 176.27653 
" clip-path="url(#p294f7f5267)" style="fill: none; stroke: #4c4c4c; stroke-linecap: round"/>
    <path d="M 308.78173 176.142207 
L 310.116629 176.27653 
L 309.208231 177.263856 
" clip-path="url(#p294f7f5267)" style="fill: none; stroke: #4c4c4c; stroke-linecap: round"/>
   </g>
   <g id="patch_11">
    <path d="M 48.219731 268.996652 
Q 192.315518 222.234798 335.347866 175.818051 
" clip-path="url(#p294f7f5267)" style="fill: none; stroke: #4c4c4c; stroke-linecap: round"/>
    <path d="M 334.02126 175.617757 
L 335.347866 175.818051 
L 334.391667 176.759159 
" clip-path="url(#p294f7f5267)" style="fill: none; stroke: #4c4c4c; stroke-linecap: round"/>
   </g>
   <g id="patch_12">
    <path d="M 48.284814 261.851418 
Q 192.317308 218.572424 335.279062 175.615166 
" clip-path="url(#p294f7f5267)" style="fill: none; stroke: #4c4c4c; stroke-linecap: round"/>
    <path d="M 333.957161 175.38587 
L 335.279062 175.615166 
L 334.302485 176.53511 
" clip-path="url(#p294f7f5267)" style="fill: none; stroke: #4c4c4c; stroke-linecap: round"/>
   </g>
   <g id="patch_13">
    <path d="M 48.331302 254.714454 
Q 192.314074 214.911524 335.219231 175.406492 
" clip-path="url(#p294f7f5267)" style="fill: none; stroke: #4c4c4c; stroke-linecap: round"/>
    <path d="M 333.902743 175.147921 
L 335.219231 175.406492 
L 334.222481 176.30454 
" clip-path="url(#p294f7f5267)" style="fill: none; stroke: #4c4c4c; stroke-linecap: round"/>
   </g>
   <g id="patch_14">
    <path d="M 48.273192 254.511406 
Q 166.929243 218.572313 284.515265 182.957316 
" clip-path="url(#p294f7f5267)" style="fill: none; stroke: #4c4c4c; stroke-linecap: round"/>
    <path d="M 283.192861 182.730934 
L 284.515265 182.957316 
L 283.540717 183.87941 
" clip-path="url(#p294f7f5267)" style="fill: none; stroke: #4c4c4c; stroke-linecap: round"/>
   </g>
   <g id="patch_15">
    <path d="M 44.06374 249.376928 
Q 65.376411 209.41567 86.162948 170.440912 
" clip-path="url(#p294f7f5267)" style="fill: none; stroke: #4c4c4c; stroke-linecap: round"/>
    <path d="M 85.06883 171.217383 
L 86.162948 170.440912 
L 86.127654 171.782089 
" clip-path="url(#p294f7f5267)" style="fill: none; stroke: #4c4c4c; stroke-linecap: round"/>
   </g>
   <g id="patch_16">
    <path d="M 47.012603 244.630946 
Q 90.764351 213.079205 133.609273 182.181425 
" clip-path="url(#p294f7f5267)" style="fill: none; stroke: #4c4c4c; stroke-linecap: round"/>
    <path d="M 132.285012 182.396676 
L 133.609273 182.181425 
L 132.986917 183.369984 
" clip-path="url(#p294f7f5267)" style="fill: none; stroke: #4c4c4c; stroke-linecap: round"/>
   </g>
   <g id="patch_17">
    <path d="M 48.433574 240.445106 
Q 192.321453 207.586095 335.119358 174.975997 
" clip-path="url(#p294f7f5267)" style="fill: none; stroke: #4c4c4c; stroke-linecap: round"/>
    <path d="M 333.815895 174.658216 
L 335.119358 174.975997 
L 334.083056 175.828099 
" clip-path="url(#p294f7f5267)" style="fill: none; stroke: #4c4c4c; stroke-linecap: round"/>
   </g>
   <g id="patch_18">
    <path d="M 45.661364 228.502877 
Q 52.682254 220.401849 58.97091 213.145707 
" clip-path="url(#p294f7f5267)" style="fill: none; stroke: #4c4c4c; stroke-linecap: round"/>
    <path d="M 57.73158 213.659576 
L 58.97091 213.145707 
L 58.638407 214.445492 
" clip-path="url(#p294f7f5267)" style="fill: none; stroke: #4c4c4c; stroke-linecap: round"/>
   </g>
   <g id="patch_19">
    <path d="M 46.381147 229.209466 
Q 78.069553 200.263325 108.93248 172.071229 
" clip-path="url(#p294f7f5267)" style="fill: none; stroke: #4c4c4c; stroke-linecap: round"/>
    <path d="M 107.641819 172.437555 
L 108.93248 172.071229 
L 108.451144 173.323553 
" clip-path="url(#p294f7f5267)" style="fill: none; stroke: #4c4c4c; stroke-linecap: round"/>
   </g>
   <g id="patch_20">
    <path d="M 48.507955 226.190621 
Q 192.314515 200.263958 335.020781 174.535665 
" clip-path="url(#p294f7f5267)" style="fill: none; stroke: #4c4c4c; stroke-linecap: round"/>
    <path d="M 333.733364 174.158098 
L 335.020781 174.535665 
L 333.946277 175.339058 
" clip-path="url(#p294f7f5267)" style="fill: none; stroke: #4c4c4c; stroke-linecap: round"/>
   </g>
   <g id="patch_21">
    <path d="M 48.382438 225.607794 
Q 141.538725 202.094789 233.610975 178.855399 
" clip-path="url(#p294f7f5267)" style="fill: none; stroke: #4c4c4c; stroke-linecap: round"/>
    <path d="M 232.300628 178.567318 
L 233.610975 178.855399 
L 232.594302 179.730828 
" clip-path="url(#p294f7f5267)" style="fill: none; stroke: #4c4c4c; stroke-linecap: round"/>
   </g>
   <g id="patch_22">
    <path d="M 48.545145 219.066061 
Q 192.320091 196.601225 334.990407 174.308989 
" clip-path="url(#p294f7f5267)" style="fill: none; stroke: #4c4c4c; stroke-linecap: round"/>
    <path d="M 333.712166 173.901434 
L 334.990407 174.308989 
L 333.897419 175.087048 
" clip-path="url(#p294f7f5267)" style="fill: none; stroke: #4c4c4c; stroke-linecap: round"/>
   </g>
   <g id="patch_23">
    <path d="M 48.573037 211.944518 
Q 192.316369 192.93999 334.951313 174.082005 
" clip-path="url(#p294f7f5267)" style="fill: none; stroke: #4c4c4c; stroke-linecap: round"/>
    <path d="M 333.683023 173.644466 
L 334.951313 174.082005 
L 333.840308 174.834114 
" clip-path="url(#p294f7f5267)" style="fill: none; stroke: #4c4c4c; stroke-linecap: round"/>
   </g>
   <g id="patch_24">
    <path d="M 46.082851 199.601444 
Q 65.375711 180.123076 83.881793 161.439051 
" clip-path="url(#p294f7f5267)" style="fill: none; stroke: #4c4c4c; stroke-linecap: round"/>
    <path d="M 82.611045 161.8694 
L 83.881793 161.439051 
L 83.463624 162.713859 
" clip-path="url(#p294f7f5267)" style="fill: none; stroke: #4c4c4c; stroke-linecap: round"/>
   </g>
   <g id="patch_25">
    <path d="M 43.431508 197.806755 
Q 52.68164 176.460298 61.487232 156.139699 
" clip-path="url(#p294f7f5267)" style="fill: none; stroke: #4c4c4c; stroke-linecap: round"/>
    <path d="M 60.45957 157.002201 
L 61.487232 156.139699 
L 61.560637 157.47933 
" clip-path="url(#p294f7f5267)" style="fill: none; stroke: #4c4c4c; stroke-linecap: round"/>
   </g>
   <g id="patch_26">
    <path d="M 48.619525 197.706236 
Q 192.317702 185.616245 334.901782 173.619989 
" clip-path="url(#p294f7f5267)" style="fill: none; stroke: #4c4c4c; stroke-linecap: round"/>
    <path d="M 333.655704 173.122707 
L 334.901782 173.619989 
L 333.75631 174.318482 
" clip-path="url(#p294f7f5267)" style="fill: none; stroke: #4c4c4c; stroke-linecap: round"/>
   </g>
   <g id="patch_27">
    <path d="M 48.308058 196.03218 
Q 65.375542 191.108867 81.368794 186.495429 
" clip-path="url(#p294f7f5267)" style="fill: none; stroke: #4c4c4c; stroke-linecap: round"/>
    <path d="M 80.049509 186.251528 
L 81.368794 186.495429 
L 80.382102 187.404516 
" clip-path="url(#p294f7f5267)" style="fill: none; stroke: #4c4c4c; stroke-linecap: round"/>
   </g>
   <g id="patch_28">
    <path d="M 48.582335 190.075844 
Q 116.148936 181.954858 182.605492 173.967291 
" clip-path="url(#p294f7f5267)" style="fill: none; stroke: #4c4c4c; stroke-linecap: round"/>
    <path d="M 181.342467 173.514779 
L 182.605492 173.967291 
L 181.485667 174.706204 
" clip-path="url(#p294f7f5267)" style="fill: none; stroke: #4c4c4c; stroke-linecap: round"/>
   </g>
   <g id="patch_29">
    <path d="M 48.624174 190.486075 
Q 141.540176 183.785401 233.341041 177.165147 
" clip-path="url(#p294f7f5267)" style="fill: none; stroke: #4c4c4c; stroke-linecap: round"/>
    <path d="M 232.100993 176.653015 
L 233.341041 177.165147 
L 232.187307 177.849907 
" clip-path="url(#p294f7f5267)" style="fill: none; stroke: #4c4c4c; stroke-linecap: round"/>
   </g>
   <g id="patch_30">
    <path d="M 48.63812 183.473431 
Q 192.313721 178.29282 334.872014 173.152497 
" clip-path="url(#p294f7f5267)" style="fill: none; stroke: #4c4c4c; stroke-linecap: round"/>
    <path d="M 333.651173 172.596128 
L 334.872014 173.152497 
L 333.694414 173.795349 
" clip-path="url(#p294f7f5267)" style="fill: none; stroke: #4c4c4c; stroke-linecap: round"/>
   </g>
   <g id="patch_31">
    <path d="M 48.647998 176.378512 
Q 230.401953 174.630878 411.037924 172.893993 
" clip-path="url(#p294f7f5267)" style="fill: none; stroke: #4c4c4c; stroke-linecap: round"/>
    <path d="M 409.832211 172.305559 
L 411.037924 172.893993 
L 409.843749 173.505503 
" clip-path="url(#p294f7f5267)" style="fill: none; stroke: #4c4c4c; stroke-linecap: round"/>
   </g>
   <g id="patch_32">
    <path d="M 48.647417 176.357699 
Q 192.318505 174.630883 334.87164 172.917504 
" clip-path="url(#p294f7f5267)" style="fill: none; stroke: #4c4c4c; stroke-linecap: round"/>
    <path d="M 333.664516 172.331969 
L 334.87164 172.917504 
L 333.678938 173.531882 
" clip-path="url(#p294f7f5267)" style="fill: none; stroke: #4c4c4c; stroke-linecap: round"/>
   </g>
   <g id="patch_33">
    <path d="M 46.535331 174.805225 
Q 52.681518 180.124041 57.982283 184.711242 
" clip-path="url(#p294f7f5267)" style="fill: none; stroke: #4c4c4c; stroke-linecap: round"/>
    <path d="M 57.467507 183.472289 
L 57.982283 184.711242 
L 56.682255 184.379691 
" clip-path="url(#p294f7f5267)" style="fill: none; stroke: #4c4c4c; stroke-linecap: round"/>
   </g>
   <g id="patch_34">
    <path d="M 45.661364 175.685807 
Q 52.682254 183.786835 58.97091 191.042977 
" clip-path="url(#p294f7f5267)" style="fill: none; stroke: #4c4c4c; stroke-linecap: round"/>
    <path d="M 58.638407 189.743192 
L 58.97091 191.042977 
L 57.73158 190.529108 
" clip-path="url(#p294f7f5267)" style="fill: none; stroke: #4c4c4c; stroke-linecap: round"/>
   </g>
   <g id="patch_35">
    <path d="M 46.535331 156.147604 
Q 52.681518 150.828788 57.982283 146.241587 
" clip-path="url(#p294f7f5267)" style="fill: none; stroke: #4c4c4c; stroke-linecap: round"/>
    <path d="M 56.682255 146.573138 
L 57.982283 146.241587 
L 57.467507 147.48054 
" clip-path="url(#p294f7f5267)" style="fill: none; stroke: #4c4c4c; stroke-linecap: round"/>
   </g>
   <g id="patch_36">
    <path d="M 48.555992 155.726981 
Q 90.761956 161.814379 131.861336 167.742175 
" clip-path="url(#p294f7f5267)" style="fill: none; stroke: #4c4c4c; stroke-linecap: round"/>
    <path d="M 130.759278 166.977015 
L 131.861336 167.742175 
L 130.587974 168.164725 
" clip-path="url(#p294f7f5267)" style="fill: none; stroke: #4c4c4c; stroke-linecap: round"/>
   </g>
   <g id="patch_37">
    <path d="M 48.636377 154.906882 
Q 230.398846 163.645463 411.044571 172.330353 
" clip-path="url(#p294f7f5267)" style="fill: none; stroke: #4c4c4c; stroke-linecap: round"/>
    <path d="M 409.874769 171.67342 
L 411.044571 172.330353 
L 409.817143 172.872035 
" clip-path="url(#p294f7f5267)" style="fill: none; stroke: #4c4c4c; stroke-linecap: round"/>
   </g>
   <g id="patch_38">
    <path d="M 48.619525 147.893764 
Q 192.317702 159.983755 334.901782 171.980011 
" clip-path="url(#p294f7f5267)" style="fill: none; stroke: #4c4c4c; stroke-linecap: round"/>
    <path d="M 333.75631 171.281518 
L 334.901782 171.980011 
L 333.655704 172.477293 
" clip-path="url(#p294f7f5267)" style="fill: none; stroke: #4c4c4c; stroke-linecap: round"/>
   </g>
   <g id="patch_39">
    <path d="M 48.52655 148.604432 
Q 116.150091 159.983393 182.671099 171.176832 
" clip-path="url(#p294f7f5267)" style="fill: none; stroke: #4c4c4c; stroke-linecap: round"/>
    <path d="M 181.587297 170.386026 
L 182.671099 171.176832 
L 181.388173 171.56939 
" clip-path="url(#p294f7f5267)" style="fill: none; stroke: #4c4c4c; stroke-linecap: round"/>
   </g>
   <g id="patch_40">
    <path d="M 48.60093 140.775685 
Q 192.317168 156.321912 334.921857 171.7479 
" clip-path="url(#p294f7f5267)" style="fill: none; stroke: #4c4c4c; stroke-linecap: round"/>
    <path d="M 333.793345 171.022325 
L 334.921857 171.7479 
L 333.66429 172.215366 
" clip-path="url(#p294f7f5267)" style="fill: none; stroke: #4c4c4c; stroke-linecap: round"/>
   </g>
   <g id="patch_41">
    <path d="M 48.573037 133.655482 
Q 192.316369 152.66001 334.951313 171.517995 
" clip-path="url(#p294f7f5267)" style="fill: none; stroke: #4c4c4c; stroke-linecap: round"/>
    <path d="M 333.840308 170.765886 
L 334.951313 171.517995 
L 333.683023 171.955534 
" clip-path="url(#p294f7f5267)" style="fill: none; stroke: #4c4c4c; stroke-linecap: round"/>
   </g>
   <g id="patch_42">
    <path d="M 48.2422 135.139789 
Q 103.458258 152.660269 157.608644 169.842603 
" clip-path="url(#p294f7f5267)" style="fill: none; stroke: #4c4c4c; stroke-linecap: round"/>
    <path d="M 156.646313 168.907767 
L 157.608644 169.842603 
L 156.283376 170.051566 
" clip-path="url(#p294f7f5267)" style="fill: none; stroke: #4c4c4c; stroke-linecap: round"/>
   </g>
   <g id="patch_43">
    <path d="M 43.431508 133.146074 
Q 52.68164 154.492531 61.487232 174.81313 
" clip-path="url(#p294f7f5267)" style="fill: none; stroke: #4c4c4c; stroke-linecap: round"/>
    <path d="M 61.560637 173.473499 
L 61.487232 174.81313 
L 60.45957 173.950628 
" clip-path="url(#p294f7f5267)" style="fill: none; stroke: #4c4c4c; stroke-linecap: round"/>
   </g>
   <g id="patch_44">
    <path d="M 48.560834 119.109752 
Q 230.399958 145.336548 411.132498 171.403742 
" clip-path="url(#p294f7f5267)" style="fill: none; stroke: #4c4c4c; stroke-linecap: round"/>
    <path d="M 410.03044 170.638582 
L 411.132498 171.403742 
L 409.859136 171.826292 
" clip-path="url(#p294f7f5267)" style="fill: none; stroke: #4c4c4c; stroke-linecap: round"/>
   </g>
   <g id="patch_45">
    <path d="M 48.507955 119.409379 
Q 192.314515 145.336042 335.020781 171.064335 
" clip-path="url(#p294f7f5267)" style="fill: none; stroke: #4c4c4c; stroke-linecap: round"/>
    <path d="M 333.946277 170.260942 
L 335.020781 171.064335 
L 333.733364 171.441902 
" clip-path="url(#p294f7f5267)" style="fill: none; stroke: #4c4c4c; stroke-linecap: round"/>
   </g>
   <g id="patch_46">
    <path d="M 48.221281 113.221778 
Q 141.537929 143.504825 233.791139 173.442766 
" clip-path="url(#p294f7f5267)" style="fill: none; stroke: #4c4c4c; stroke-linecap: round"/>
    <path d="M 232.83494 172.501658 
L 233.791139 173.442766 
L 232.464533 173.64306 
" clip-path="url(#p294f7f5267)" style="fill: none; stroke: #4c4c4c; stroke-linecap: round"/>
   </g>
   <g id="patch_47">
    <path d="M 42.82407 111.410438 
Q 52.681246 139.844598 62.172217 167.222399 
" clip-path="url(#p294f7f5267)" style="fill: none; stroke: #4c4c4c; stroke-linecap: round"/>
    <path d="M 62.346067 165.89207 
L 62.172217 167.222399 
L 61.212263 166.285121 
" clip-path="url(#p294f7f5267)" style="fill: none; stroke: #4c4c4c; stroke-linecap: round"/>
   </g>
   <g id="patch_48">
    <path d="M 48.342924 98.192258 
Q 166.931567 130.690107 284.441931 162.892467 
" clip-path="url(#p294f7f5267)" style="fill: none; stroke: #4c4c4c; stroke-linecap: round"/>
    <path d="M 283.443177 161.996648 
L 284.441931 162.892467 
L 283.126024 163.153979 
" clip-path="url(#p294f7f5267)" style="fill: none; stroke: #4c4c4c; stroke-linecap: round"/>
   </g>
   <g id="patch_49">
    <path d="M 42.589308 96.836798 
Q 52.681219 128.859209 62.437074 159.815286 
" clip-path="url(#p294f7f5267)" style="fill: none; stroke: #4c4c4c; stroke-linecap: round"/>
    <path d="M 62.648635 158.490431 
L 62.437074 159.815286 
L 61.504126 158.851124 
" clip-path="url(#p294f7f5267)" style="fill: none; stroke: #4c4c4c; stroke-linecap: round"/>
   </g>
   <g id="patch_50">
    <path d="M 48.331302 90.885546 
Q 192.314074 130.688476 335.219231 170.193508 
" clip-path="url(#p294f7f5267)" style="fill: none; stroke: #4c4c4c; stroke-linecap: round"/>
    <path d="M 334.222481 169.29546 
L 335.219231 170.193508 
L 333.902743 170.452079 
" clip-path="url(#p294f7f5267)" style="fill: none; stroke: #4c4c4c; stroke-linecap: round"/>
   </g>
   <g id="patch_51">
    <path d="M 48.155811 91.458875 
Q 154.236175 128.859003 259.262119 165.887381 
" clip-path="url(#p294f7f5267)" style="fill: none; stroke: #4c4c4c; stroke-linecap: round"/>
    <path d="M 258.329899 164.922515 
L 259.262119 165.887381 
L 257.930895 166.054238 
" clip-path="url(#p294f7f5267)" style="fill: none; stroke: #4c4c4c; stroke-linecap: round"/>
   </g>
   <g id="patch_52">
    <path d="M 46.078977 94.729546 
Q 78.069284 127.027452 109.272813 158.531015 
" clip-path="url(#p294f7f5267)" style="fill: none; stroke: #4c4c4c; stroke-linecap: round"/>
    <path d="M 108.854644 157.256207 
L 109.272813 158.531015 
L 108.002065 158.100666 
" clip-path="url(#p294f7f5267)" style="fill: none; stroke: #4c4c4c; stroke-linecap: round"/>
   </g>
   <g id="patch_53">
    <path d="M 42.589308 89.513212 
Q 52.681219 121.535623 62.437074 152.491701 
" clip-path="url(#p294f7f5267)" style="fill: none; stroke: #4c4c4c; stroke-linecap: round"/>
    <path d="M 62.648635 151.166845 
L 62.437074 152.491701 
L 61.504126 151.527539 
" clip-path="url(#p294f7f5267)" style="fill: none; stroke: #4c4c4c; stroke-linecap: round"/>
   </g>
   <g id="patch_54">
    <path d="M 46.305992 87.179445 
Q 90.76552 128.860253 134.409401 169.776391 
" clip-path="url(#p294f7f5267)" style="fill: none; stroke: #4c4c4c; stroke-linecap: round"/>
    <path d="M 133.944321 168.51794 
L 134.409401 169.776391 
L 133.123592 169.393384 
" clip-path="url(#p294f7f5267)" style="fill: none; stroke: #4c4c4c; stroke-linecap: round"/>
   </g>
   <g id="patch_55">
    <path d="M 42.589308 82.189627 
Q 52.681219 114.212037 62.437074 145.168115 
" clip-path="url(#p294f7f5267)" style="fill: none; stroke: #4c4c4c; stroke-linecap: round"/>
    <path d="M 62.648635 143.84326 
L 62.437074 145.168115 
L 61.504126 144.203953 
" clip-path="url(#p294f7f5267)" style="fill: none; stroke: #4c4c4c; stroke-linecap: round"/>
   </g>
   <g id="patch_56">
    <path d="M 48.163946 69.458225 
Q 192.318518 119.70441 335.41735 169.582609 
" clip-path="url(#p294f7f5267)" style="fill: none; stroke: #4c4c4c; stroke-linecap: round"/>
    <path d="M 334.481694 168.621076 
L 335.41735 169.582609 
L 334.08673 169.754214 
" clip-path="url(#p294f7f5267)" style="fill: none; stroke: #4c4c4c; stroke-linecap: round"/>
   </g>
   <g id="patch_57">
    <path d="M 45.661364 65.832025 
Q 90.764174 117.873729 135.134749 169.070547 
" clip-path="url(#p294f7f5267)" style="fill: none; stroke: #4c4c4c; stroke-linecap: round"/>
    <path d="M 134.802246 167.770762 
L 135.134749 169.070547 
L 133.895419 168.556678 
" clip-path="url(#p294f7f5267)" style="fill: none; stroke: #4c4c4c; stroke-linecap: round"/>
   </g>
   <g id="patch_58">
    <path d="M 46.442743 65.057548 
Q 103.459314 116.04352 159.64247 166.284227 
" clip-path="url(#p294f7f5267)" style="fill: none; stroke: #4c4c4c; stroke-linecap: round"/>
    <path d="M 159.147907 165.037067 
L 159.64247 166.284227 
L 158.348004 165.931582 
" clip-path="url(#p294f7f5267)" style="fill: none; stroke: #4c4c4c; stroke-linecap: round"/>
   </g>
   <g id="patch_59">
    <path d="M 48.098864 62.306957 
Q 192.316754 116.041988 335.486972 169.386661 
" clip-path="url(#p294f7f5267)" style="fill: none; stroke: #4c4c4c; stroke-linecap: round"/>
    <path d="M 334.571979 168.405443 
L 335.486972 169.386661 
L 334.153002 169.529924 
" clip-path="url(#p294f7f5267)" style="fill: none; stroke: #4c4c4c; stroke-linecap: round"/>
   </g>
   <g id="patch_60">
    <path d="M 48.241232 54.580041 
Q 230.398498 112.379943 411.490092 169.841699 
" clip-path="url(#p294f7f5267)" style="fill: none; stroke: #4c4c4c; stroke-linecap: round"/>
    <path d="M 410.527761 168.906863 
L 411.490092 169.841699 
L 410.164825 170.050662 
" clip-path="url(#p294f7f5267)" style="fill: none; stroke: #4c4c4c; stroke-linecap: round"/>
   </g>
   <g id="patch_61">
    <path d="M 42.390961 60.283014 
Q 52.681194 95.903054 62.661129 130.448983 
" clip-path="url(#p294f7f5267)" style="fill: none; stroke: #4c4c4c; stroke-linecap: round"/>
    <path d="M 62.90451 129.129602 
L 62.661129 130.448983 
L 61.751653 129.46265 
" clip-path="url(#p294f7f5267)" style="fill: none; stroke: #4c4c4c; stroke-linecap: round"/>
   </g>
   <g id="patch_62">
    <path d="M 48.036105 55.153481 
Q 192.316198 112.379961 335.557021 169.194229 
" clip-path="url(#p294f7f5267)" style="fill: none; stroke: #4c4c4c; stroke-linecap: round"/>
    <path d="M 334.662775 168.194068 
L 335.557021 169.194229 
L 334.220344 169.309529 
" clip-path="url(#p294f7f5267)" style="fill: none; stroke: #4c4c4c; stroke-linecap: round"/>
   </g>
   <g id="patch_63">
    <path d="M 47.971023 47.996011 
Q 192.318989 108.719314 335.636396 169.009089 
" clip-path="url(#p294f7f5267)" style="fill: none; stroke: #4c4c4c; stroke-linecap: round"/>
    <path d="M 334.762939 167.990721 
L 335.636396 169.009089 
L 334.297628 169.096833 
" clip-path="url(#p294f7f5267)" style="fill: none; stroke: #4c4c4c; stroke-linecap: round"/>
   </g>
   <g id="patch_64">
    <path d="M 42.068647 53.044805 
Q 52.680998 95.902377 63.024619 137.674692 
" clip-path="url(#p294f7f5267)" style="fill: none; stroke: #4c4c4c; stroke-linecap: round"/>
    <path d="M 63.318597 136.365656 
L 63.024619 137.674692 
L 62.153777 136.654088 
" clip-path="url(#p294f7f5267)" style="fill: none; stroke: #4c4c4c; stroke-linecap: round"/>
   </g>
   <g id="patch_65">
    <path d="M 47.901291 40.833344 
Q 192.319409 105.057748 335.715957 168.827847 
" clip-path="url(#p294f7f5267)" style="fill: none; stroke: #4c4c4c; stroke-linecap: round"/>
    <path d="M 334.863297 167.792003 
L 335.715957 168.827847 
L 334.375686 168.888468 
" clip-path="url(#p294f7f5267)" style="fill: none; stroke: #4c4c4c; stroke-linecap: round"/>
   </g>
   <g id="patch_66">
    <path d="M 47.826911 33.665146 
Q 192.316329 101.39456 335.793413 168.649443 
" clip-path="url(#p294f7f5267)" style="fill: none; stroke: #4c4c4c; stroke-linecap: round"/>
    <path d="M 334.961522 167.596847 
L 335.793413 168.649443 
L 334.452201 168.683398 
" clip-path="url(#p294f7f5267)" style="fill: none; stroke: #4c4c4c; stroke-linecap: round"/>
   </g>
   <g id="patch_67">
    <path d="M 47.012603 35.056784 
Q 141.542335 103.227264 235.16524 170.743782 
" clip-path="url(#p294f7f5267)" style="fill: none; stroke: #4c4c4c; stroke-linecap: round"/>
    <path d="M 234.542884 169.555222 
L 235.16524 170.743782 
L 233.840979 170.528531 
" clip-path="url(#p294f7f5267)" style="fill: none; stroke: #4c4c4c; stroke-linecap: round"/>
   </g>
   <g id="patch_68">
    <path d="M 73.9789 140.859161 
Q 205.011937 156.321976 334.934644 171.653764 
" clip-path="url(#p294f7f5267)" style="fill: none; stroke: #4c4c4c; stroke-linecap: round"/>
    <path d="M 333.813229 170.917266 
L 334.934644 171.653764 
L 333.672597 172.108997 
" clip-path="url(#p294f7f5267)" style="fill: none; stroke: #4c4c4c; stroke-linecap: round"/>
   </g>
   <g id="patch_69">
    <path d="M 71.92376 200.089117 
Q 78.069948 194.770301 83.370713 190.1831 
" clip-path="url(#p294f7f5267)" style="fill: none; stroke: #4c4c4c; stroke-linecap: round"/>
    <path d="M 82.070685 190.514651 
L 83.370713 190.1831 
L 82.855937 191.422054 
" clip-path="url(#p294f7f5267)" style="fill: none; stroke: #4c4c4c; stroke-linecap: round"/>
   </g>
   <g id="patch_70">
    <path d="M 73.459401 202.646829 
Q 103.45888 191.108568 132.414847 179.971658 
" clip-path="url(#p294f7f5267)" style="fill: none; stroke: #4c4c4c; stroke-linecap: round"/>
    <path d="M 131.079445 179.842425 
L 132.414847 179.971658 
L 131.51022 180.96244 
" clip-path="url(#p294f7f5267)" style="fill: none; stroke: #4c4c4c; stroke-linecap: round"/>
   </g>
   <g id="patch_71">
    <path d="M 71.049793 168.362222 
Q 78.070684 176.46325 84.35934 183.719391 
" clip-path="url(#p294f7f5267)" style="fill: none; stroke: #4c4c4c; stroke-linecap: round"/>
    <path d="M 84.026837 182.419606 
L 84.35934 183.719391 
L 83.12001 183.205523 
" clip-path="url(#p294f7f5267)" style="fill: none; stroke: #4c4c4c; stroke-linecap: round"/>
   </g>
   <g id="patch_72">
    <path d="M 71.92376 167.481639 
Q 78.069948 172.800456 83.370713 177.387656 
" clip-path="url(#p294f7f5267)" style="fill: none; stroke: #4c4c4c; stroke-linecap: round"/>
    <path d="M 82.855937 176.148703 
L 83.370713 177.387656 
L 82.070685 177.056105 
" clip-path="url(#p294f7f5267)" style="fill: none; stroke: #4c4c4c; stroke-linecap: round"/>
   </g>
   <g id="patch_73">
    <path d="M 74.032361 176.323056 
Q 179.622771 174.630902 284.09529 172.956663 
" clip-path="url(#p294f7f5267)" style="fill: none; stroke: #4c4c4c; stroke-linecap: round"/>
    <path d="M 282.88583 172.375969 
L 284.09529 172.956663 
L 282.905058 173.575814 
" clip-path="url(#p294f7f5267)" style="fill: none; stroke: #4c4c4c; stroke-linecap: round"/>
   </g>
   <g id="patch_74">
    <path d="M 74.025387 169.554081 
Q 179.622501 174.630866 284.102871 179.65396 
" clip-path="url(#p294f7f5267)" style="fill: none; stroke: #4c4c4c; stroke-linecap: round"/>
    <path d="M 282.933068 178.997027 
L 284.102871 179.65396 
L 282.875443 180.195642 
" clip-path="url(#p294f7f5267)" style="fill: none; stroke: #4c4c4c; stroke-linecap: round"/>
   </g>
   <g id="patch_75">
    <path d="M 71.049793 153.715051 
Q 78.070684 161.816079 84.35934 169.07222 
" clip-path="url(#p294f7f5267)" style="fill: none; stroke: #4c4c4c; stroke-linecap: round"/>
    <path d="M 84.026837 167.772435 
L 84.35934 169.07222 
L 83.12001 168.558352 
" clip-path="url(#p294f7f5267)" style="fill: none; stroke: #4c4c4c; stroke-linecap: round"/>
   </g>
   <g id="patch_76">
    <path d="M 74.030036 183.444935 
Q 205.013542 178.292612 334.879877 173.184233 
" clip-path="url(#p294f7f5267)" style="fill: none; stroke: #4c4c4c; stroke-linecap: round"/>
    <path d="M 333.657222 172.631863 
L 334.879877 173.184233 
L 333.704388 173.830936 
" clip-path="url(#p294f7f5267)" style="fill: none; stroke: #4c4c4c; stroke-linecap: round"/>
   </g>
   <g id="patch_77">
    <path d="M 72.878306 158.819747 
Q 78.071208 161.815653 82.295686 164.252851 
" clip-path="url(#p294f7f5267)" style="fill: none; stroke: #4c4c4c; stroke-linecap: round"/>
    <path d="M 81.556097 163.133473 
L 82.295686 164.252851 
L 80.95643 164.172896 
" clip-path="url(#p294f7f5267)" style="fill: none; stroke: #4c4c4c; stroke-linecap: round"/>
   </g>
   <g id="patch_78">
    <path d="M 70.31064 191.314135 
Q 78.069147 180.123982 85.19062 169.852626 
" clip-path="url(#p294f7f5267)" style="fill: none; stroke: #4c4c4c; stroke-linecap: round"/>
    <path d="M 84.013806 170.496915 
L 85.19062 169.852626 
L 84.999963 171.18065 
" clip-path="url(#p294f7f5267)" style="fill: none; stroke: #4c4c4c; stroke-linecap: round"/>
   </g>
   <g id="patch_79">
    <path d="M 70.31064 183.99055 
Q 78.069147 172.800396 85.19062 162.52904 
" clip-path="url(#p294f7f5267)" style="fill: none; stroke: #4c4c4c; stroke-linecap: round"/>
    <path d="M 84.013806 163.173329 
L 85.19062 162.52904 
L 84.999963 163.857065 
" clip-path="url(#p294f7f5267)" style="fill: none; stroke: #4c4c4c; stroke-linecap: round"/>
   </g>
   <g id="patch_80">
    <path d="M 99.421952 169.263087 
Q 217.70375 170.969074 334.86763 172.658938 
" clip-path="url(#p294f7f5267)" style="fill: none; stroke: #4c4c4c; stroke-linecap: round"/>
    <path d="M 333.676408 172.041694 
L 334.86763 172.658938 
L 333.659102 173.24157 
" clip-path="url(#p294f7f5267)" style="fill: none; stroke: #4c4c4c; stroke-linecap: round"/>
   </g>
   <g id="patch_81">
    <path d="M 99.423308 169.234283 
Q 255.790467 170.969126 411.039661 172.691566 
" clip-path="url(#p294f7f5267)" style="fill: none; stroke: #4c4c4c; stroke-linecap: round"/>
    <path d="M 409.846391 172.07829 
L 411.039661 172.691566 
L 409.833078 173.278216 
" clip-path="url(#p294f7f5267)" style="fill: none; stroke: #4c4c4c; stroke-linecap: round"/>
   </g>
   <g id="patch_82">
    <path d="M 99.42079 169.276944 
Q 205.0112 170.969098 309.48372 172.643337 
" clip-path="url(#p294f7f5267)" style="fill: none; stroke: #4c4c4c; stroke-linecap: round"/>
    <path d="M 308.293488 172.024186 
L 309.48372 172.643337 
L 308.27426 173.224031 
" clip-path="url(#p294f7f5267)" style="fill: none; stroke: #4c4c4c; stroke-linecap: round"/>
   </g>
   <g id="patch_83">
    <path d="M 99.331302 163.050343 
Q 128.845438 167.307189 157.25299 171.404432 
" clip-path="url(#p294f7f5267)" style="fill: none; stroke: #4c4c4c; stroke-linecap: round"/>
    <path d="M 156.150932 170.639273 
L 157.25299 171.404432 
L 155.979628 171.826983 
" clip-path="url(#p294f7f5267)" style="fill: none; stroke: #4c4c4c; stroke-linecap: round"/>
   </g>
   <g id="patch_84">
    <path d="M 99.390961 162.561217 
Q 154.235413 167.307372 207.965995 171.957134 
" clip-path="url(#p294f7f5267)" style="fill: none; stroke: #4c4c4c; stroke-linecap: round"/>
    <path d="M 206.822193 171.255908 
L 207.965995 171.957134 
L 206.718734 172.45144 
" clip-path="url(#p294f7f5267)" style="fill: none; stroke: #4c4c4c; stroke-linecap: round"/>
   </g>
   <g id="patch_85">
    <path d="M 99.332851 163.050566 
Q 103.457583 163.645479 106.475731 164.080789 
" clip-path="url(#p294f7f5267)" style="fill: none; stroke: #4c4c4c; stroke-linecap: round"/>
    <path d="M 105.373674 163.31563 
L 106.475731 164.080789 
L 105.202369 164.50334 
" clip-path="url(#p294f7f5267)" style="fill: none; stroke: #4c4c4c; stroke-linecap: round"/>
   </g>
   <g id="patch_86">
    <path d="M 99.398709 155.113758 
Q 217.702944 163.645313 334.892042 172.09645 
" clip-path="url(#p294f7f5267)" style="fill: none; stroke: #4c4c4c; stroke-linecap: round"/>
    <path d="M 333.738307 171.41169 
L 334.892042 172.09645 
L 333.651993 172.608582 
" clip-path="url(#p294f7f5267)" style="fill: none; stroke: #4c4c4c; stroke-linecap: round"/>
   </g>
   <g id="patch_87">
    <path d="M 98.713017 187.669328 
Q 103.45809 185.616171 107.177065 184.006999 
" clip-path="url(#p294f7f5267)" style="fill: none; stroke: #4c4c4c; stroke-linecap: round"/>
    <path d="M 105.837474 183.932872 
L 107.177065 184.006999 
L 106.314008 185.034196 
" clip-path="url(#p294f7f5267)" style="fill: none; stroke: #4c4c4c; stroke-linecap: round"/>
   </g>
   <g id="patch_88">
    <path d="M 97.789463 178.718676 
Q 103.45941 174.629772 108.22253 171.19483 
" clip-path="url(#p294f7f5267)" style="fill: none; stroke: #4c4c4c; stroke-linecap: round"/>
    <path d="M 106.898269 171.410081 
L 108.22253 171.19483 
L 107.600174 172.383389 
" clip-path="url(#p294f7f5267)" style="fill: none; stroke: #4c4c4c; stroke-linecap: round"/>
   </g>
   <g id="patch_89">
    <path d="M 99.418272 183.497317 
Q 255.787881 178.292707 411.040075 173.12529 
" clip-path="url(#p294f7f5267)" style="fill: none; stroke: #4c4c4c; stroke-linecap: round"/>
    <path d="M 409.82078 172.56554 
L 411.040075 173.12529 
L 409.860699 173.764876 
" clip-path="url(#p294f7f5267)" style="fill: none; stroke: #4c4c4c; stroke-linecap: round"/>
   </g>
   <g id="patch_90">
    <path d="M 98.713017 180.345743 
Q 103.45809 178.292586 107.177065 176.683414 
" clip-path="url(#p294f7f5267)" style="fill: none; stroke: #4c4c4c; stroke-linecap: round"/>
    <path d="M 105.837474 176.609286 
L 107.177065 176.683414 
L 106.314008 177.71061 
" clip-path="url(#p294f7f5267)" style="fill: none; stroke: #4c4c4c; stroke-linecap: round"/>
   </g>
   <g id="patch_91">
    <path d="M 99.419628 176.149678 
Q 141.540843 174.630884 182.544751 173.152378 
" clip-path="url(#p294f7f5267)" style="fill: none; stroke: #4c4c4c; stroke-linecap: round"/>
    <path d="M 181.32391 172.596008 
L 182.544751 173.152378 
L 181.367151 173.795229 
" clip-path="url(#p294f7f5267)" style="fill: none; stroke: #4c4c4c; stroke-linecap: round"/>
   </g>
   <g id="patch_92">
    <path d="M 124.721281 174.035944 
Q 128.846013 174.630858 131.864161 175.066168 
" clip-path="url(#p294f7f5267)" style="fill: none; stroke: #4c4c4c; stroke-linecap: round"/>
    <path d="M 130.762103 174.301008 
L 131.864161 175.066168 
L 130.590799 175.488718 
" clip-path="url(#p294f7f5267)" style="fill: none; stroke: #4c4c4c; stroke-linecap: round"/>
   </g>
   <g id="patch_93">
    <path d="M 124.81077 180.123586 
Q 205.01097 180.123586 284.093137 180.123586 
" clip-path="url(#p294f7f5267)" style="fill: none; stroke: #4c4c4c; stroke-linecap: round"/>
    <path d="M 282.893137 179.523586 
L 284.093137 180.123586 
L 282.893137 180.723586 
" clip-path="url(#p294f7f5267)" style="fill: none; stroke: #4c4c4c; stroke-linecap: round"/>
   </g>
   <g id="patch_94">
    <path d="M 124.80922 165.753887 
Q 230.39963 169.138195 334.87258 172.486687 
" clip-path="url(#p294f7f5267)" style="fill: none; stroke: #4c4c4c; stroke-linecap: round"/>
    <path d="M 333.692417 171.848554 
L 334.87258 172.486687 
L 333.653975 173.047938 
" clip-path="url(#p294f7f5267)" style="fill: none; stroke: #4c4c4c; stroke-linecap: round"/>
   </g>
   <g id="patch_95">
    <path d="M 124.721281 166.712359 
Q 128.846013 167.307272 131.864161 167.742582 
" clip-path="url(#p294f7f5267)" style="fill: none; stroke: #4c4c4c; stroke-linecap: round"/>
    <path d="M 130.762103 166.977423 
L 131.864161 167.742582 
L 130.590799 168.165133 
" clip-path="url(#p294f7f5267)" style="fill: none; stroke: #4c4c4c; stroke-linecap: round"/>
   </g>
   <g id="patch_96">
    <path d="M 150.202686 176.461793 
Q 192.318256 176.461793 233.315792 176.461793 
" clip-path="url(#p294f7f5267)" style="fill: none; stroke: #4c4c4c; stroke-linecap: round"/>
    <path d="M 232.115792 175.861793 
L 233.315792 176.461793 
L 232.115792 177.061793 
" clip-path="url(#p294f7f5267)" style="fill: none; stroke: #4c4c4c; stroke-linecap: round"/>
   </g>
   <g id="patch_97">
    <path d="M 150.109711 175.225848 
Q 154.234443 174.630935 157.252591 174.195625 
" clip-path="url(#p294f7f5267)" style="fill: none; stroke: #4c4c4c; stroke-linecap: round"/>
    <path d="M 155.979229 173.773075 
L 157.252591 174.195625 
L 156.150533 174.960784 
" clip-path="url(#p294f7f5267)" style="fill: none; stroke: #4c4c4c; stroke-linecap: round"/>
   </g>
   <g id="patch_98">
    <path d="M 150.196488 169.294265 
Q 243.091738 170.969059 334.869135 172.6237 
" clip-path="url(#p294f7f5267)" style="fill: none; stroke: #4c4c4c; stroke-linecap: round"/>
    <path d="M 333.680146 172.002166 
L 334.869135 172.6237 
L 333.658515 173.201971 
" clip-path="url(#p294f7f5267)" style="fill: none; stroke: #4c4c4c; stroke-linecap: round"/>
   </g>
   <g id="patch_99">
    <path d="M 175.587629 172.8 
Q 255.78783 172.8 334.869996 172.8 
" clip-path="url(#p294f7f5267)" style="fill: none; stroke: #4c4c4c; stroke-linecap: round"/>
    <path d="M 333.669996 172.2 
L 334.869996 172.8 
L 333.669996 173.4 
" clip-path="url(#p294f7f5267)" style="fill: none; stroke: #4c4c4c; stroke-linecap: round"/>
   </g>
   <g id="patch_100">
    <path d="M 175.571746 172.301376 
Q 230.398185 169.138312 284.108446 166.039643 
" clip-path="url(#p294f7f5267)" style="fill: none; stroke: #4c4c4c; stroke-linecap: round"/>
    <path d="M 282.87588 165.509755 
L 284.108446 166.039643 
L 282.944996 166.707763 
" clip-path="url(#p294f7f5267)" style="fill: none; stroke: #4c4c4c; stroke-linecap: round"/>
   </g>
   <g id="patch_101">
    <path d="M 175.591116 172.8 
Q 179.623626 172.8 182.538102 172.8 
" clip-path="url(#p294f7f5267)" style="fill: none; stroke: #4c4c4c; stroke-linecap: round"/>
    <path d="M 181.338102 172.2 
L 182.538102 172.8 
L 181.338102 173.4 
" clip-path="url(#p294f7f5267)" style="fill: none; stroke: #4c4c4c; stroke-linecap: round"/>
   </g>
   <g id="patch_102">
    <path d="M 200.979545 172.8 
Q 205.012056 172.8 207.926532 172.8 
" clip-path="url(#p294f7f5267)" style="fill: none; stroke: #4c4c4c; stroke-linecap: round"/>
    <path d="M 206.726532 172.2 
L 207.926532 172.8 
L 206.726532 173.4 
" clip-path="url(#p294f7f5267)" style="fill: none; stroke: #4c4c4c; stroke-linecap: round"/>
   </g>
   <g id="patch_103">
    <path d="M 226.275 174.035944 
Q 230.399732 174.630858 233.41788 175.066168 
" clip-path="url(#p294f7f5267)" style="fill: none; stroke: #4c4c4c; stroke-linecap: round"/>
    <path d="M 232.315822 174.301008 
L 233.41788 175.066168 
L 232.144518 175.488718 
" clip-path="url(#p294f7f5267)" style="fill: none; stroke: #4c4c4c; stroke-linecap: round"/>
   </g>
   <g id="patch_104">
    <path d="M 226.275 171.564056 
Q 230.399732 170.969142 233.41788 170.533832 
" clip-path="url(#p294f7f5267)" style="fill: none; stroke: #4c4c4c; stroke-linecap: round"/>
    <path d="M 232.144518 170.111282 
L 233.41788 170.533832 
L 232.315822 171.298992 
" clip-path="url(#p294f7f5267)" style="fill: none; stroke: #4c4c4c; stroke-linecap: round"/>
   </g>
   <g id="patch_105">
    <path d="M 251.756405 176.461793 
Q 255.788915 176.461793 258.703391 176.461793 
" clip-path="url(#p294f7f5267)" style="fill: none; stroke: #4c4c4c; stroke-linecap: round"/>
    <path d="M 257.503391 175.861793 
L 258.703391 176.461793 
L 257.503391 177.061793 
" clip-path="url(#p294f7f5267)" style="fill: none; stroke: #4c4c4c; stroke-linecap: round"/>
   </g>
   <g id="patch_106">
    <path d="M 251.756405 169.138207 
Q 255.788915 169.138207 258.703391 169.138207 
" clip-path="url(#p294f7f5267)" style="fill: none; stroke: #4c4c4c; stroke-linecap: round"/>
    <path d="M 257.503391 168.538207 
L 258.703391 169.138207 
L 257.503391 169.738207 
" clip-path="url(#p294f7f5267)" style="fill: none; stroke: #4c4c4c; stroke-linecap: round"/>
   </g>
   <g id="patch_107">
    <path d="M 277.05186 177.697737 
Q 281.176591 178.29265 284.19474 178.72796 
" clip-path="url(#p294f7f5267)" style="fill: none; stroke: #4c4c4c; stroke-linecap: round"/>
    <path d="M 283.092682 177.962801 
L 284.19474 178.72796 
L 282.921378 179.150511 
" clip-path="url(#p294f7f5267)" style="fill: none; stroke: #4c4c4c; stroke-linecap: round"/>
   </g>
   <g id="patch_108">
    <path d="M 277.05186 175.225848 
Q 281.176591 174.630935 284.19474 174.195625 
" clip-path="url(#p294f7f5267)" style="fill: none; stroke: #4c4c4c; stroke-linecap: round"/>
    <path d="M 282.921378 173.773075 
L 284.19474 174.195625 
L 283.092682 174.960784 
" clip-path="url(#p294f7f5267)" style="fill: none; stroke: #4c4c4c; stroke-linecap: round"/>
   </g>
   <g id="patch_109">
    <path d="M 277.138636 176.149678 
Q 319.259852 174.630884 360.263759 173.152378 
" clip-path="url(#p294f7f5267)" style="fill: none; stroke: #4c4c4c; stroke-linecap: round"/>
    <path d="M 359.042918 172.596008 
L 360.263759 173.152378 
L 359.086159 173.795229 
" clip-path="url(#p294f7f5267)" style="fill: none; stroke: #4c4c4c; stroke-linecap: round"/>
   </g>
   <g id="patch_110">
    <path d="M 277.05186 167.902263 
Q 281.176591 167.30735 284.19474 166.87204 
" clip-path="url(#p294f7f5267)" style="fill: none; stroke: #4c4c4c; stroke-linecap: round"/>
    <path d="M 282.921378 166.449489 
L 284.19474 166.87204 
L 283.092682 167.637199 
" clip-path="url(#p294f7f5267)" style="fill: none; stroke: #4c4c4c; stroke-linecap: round"/>
   </g>
   <g id="patch_111">
    <path d="M 302.192355 167.876784 
Q 306.565396 169.138238 309.864202 170.089817 
" clip-path="url(#p294f7f5267)" style="fill: none; stroke: #4c4c4c; stroke-linecap: round"/>
    <path d="M 308.87751 169.18073 
L 309.864202 170.089817 
L 308.544918 170.333718 
" clip-path="url(#p294f7f5267)" style="fill: none; stroke: #4c4c4c; stroke-linecap: round"/>
   </g>
   <g id="patch_112">
    <path d="M 302.440289 178.887641 
Q 319.258686 176.461911 334.970499 174.195784 
" clip-path="url(#p294f7f5267)" style="fill: none; stroke: #4c4c4c; stroke-linecap: round"/>
    <path d="M 333.697137 173.773233 
L 334.970499 174.195784 
L 333.868441 174.960943 
" clip-path="url(#p294f7f5267)" style="fill: none; stroke: #4c4c4c; stroke-linecap: round"/>
   </g>
   <g id="patch_113">
    <path d="M 302.533264 172.8 
Q 319.260633 172.8 334.869968 172.8 
" clip-path="url(#p294f7f5267)" style="fill: none; stroke: #4c4c4c; stroke-linecap: round"/>
    <path d="M 333.669968 172.2 
L 334.869968 172.8 
L 333.669968 173.4 
" clip-path="url(#p294f7f5267)" style="fill: none; stroke: #4c4c4c; stroke-linecap: round"/>
   </g>
   <g id="patch_114">
    <path d="M 327.921694 172.8 
Q 331.954204 172.8 334.868681 172.8 
" clip-path="url(#p294f7f5267)" style="fill: none; stroke: #4c4c4c; stroke-linecap: round"/>
    <path d="M 333.668681 172.2 
L 334.868681 172.8 
L 333.668681 173.4 
" clip-path="url(#p294f7f5267)" style="fill: none; stroke: #4c4c4c; stroke-linecap: round"/>
   </g>
   <g id="patch_115">
    <path d="M 353.310124 172.8 
Q 357.342634 172.8 360.25711 172.8 
" clip-path="url(#p294f7f5267)" style="fill: none; stroke: #4c4c4c; stroke-linecap: round"/>
    <path d="M 359.05711 172.2 
L 360.25711 172.8 
L 359.05711 173.4 
" clip-path="url(#p294f7f5267)" style="fill: none; stroke: #4c4c4c; stroke-linecap: round"/>
   </g>
   <g id="patch_116">
    <path d="M 378.698554 172.8 
Q 382.731064 172.8 385.64554 172.8 
" clip-path="url(#p294f7f5267)" style="fill: none; stroke: #4c4c4c; stroke-linecap: round"/>
    <path d="M 384.44554 172.2 
L 385.64554 172.8 
L 384.44554 173.4 
" clip-path="url(#p294f7f5267)" style="fill: none; stroke: #4c4c4c; stroke-linecap: round"/>
   </g>
   <g id="patch_117">
    <path d="M 404.086983 172.8 
Q 408.119494 172.8 411.03397 172.8 
" clip-path="url(#p294f7f5267)" style="fill: none; stroke: #4c4c4c; stroke-linecap: round"/>
    <path d="M 409.83397 172.2 
L 411.03397 172.8 
L 409.83397 173.4 
" clip-path="url(#p294f7f5267)" style="fill: none; stroke: #4c4c4c; stroke-linecap: round"/>
   </g>
   <g id="PathCollection_1">
    <path d="M 39.986777 324.270171 
C 42.283503 324.270171 44.486471 323.357672 46.110501 321.733642 
C 47.734532 320.109611 48.647031 317.906644 48.647031 315.609917 
C 48.647031 313.313191 47.734532 311.110224 46.110501 309.486193 
C 44.486471 307.862162 42.283503 306.949663 39.986777 306.949663 
C 37.690051 306.949663 35.487083 307.862162 33.863053 309.486193 
C 32.239022 311.110224 31.326523 313.313191 31.326523 315.609917 
C 31.326523 317.906644 32.239022 320.109611 33.863053 321.733642 
C 35.487083 323.357672 37.690051 324.270171 39.986777 324.270171 
z
" clip-path="url(#p294f7f5267)" style="fill: #ffff00; stroke: #000000"/>
    <path d="M 39.986777 316.946586 
C 42.283503 316.946586 44.486471 316.034087 46.110501 314.410056 
C 47.734532 312.786026 48.647031 310.583058 48.647031 308.286332 
C 48.647031 305.989606 47.734532 303.786638 46.110501 302.162607 
C 44.486471 300.538577 42.283503 299.626078 39.986777 299.626078 
C 37.690051 299.626078 35.487083 300.538577 33.863053 302.162607 
C 32.239022 303.786638 31.326523 305.989606 31.326523 308.286332 
C 31.326523 310.583058 32.239022 312.786026 33.863053 314.410056 
C 35.487083 316.034087 37.690051 316.946586 39.986777 316.946586 
z
" clip-path="url(#p294f7f5267)" style="fill: #ffff00; stroke: #000000"/>
    <path d="M 39.986777 309.623 
C 42.283503 309.623 44.486471 308.710501 46.110501 307.086471 
C 47.734532 305.46244 48.647031 303.259473 48.647031 300.962746 
C 48.647031 298.66602 47.734532 296.463053 46.110501 294.839022 
C 44.486471 293.214991 42.283503 292.302492 39.986777 292.302492 
C 37.690051 292.302492 35.487083 293.214991 33.863053 294.839022 
C 32.239022 296.463053 31.326523 298.66602 31.326523 300.962746 
C 31.326523 303.259473 32.239022 305.46244 33.863053 307.086471 
C 35.487083 308.710501 37.690051 309.623 39.986777 309.623 
z
" clip-path="url(#p294f7f5267)" style="fill: #ffff00; stroke: #000000"/>
    <path d="M 39.986777 302.299415 
C 42.283503 302.299415 44.486471 301.386916 46.110501 299.762885 
C 47.734532 298.138855 48.647031 295.935887 48.647031 293.639161 
C 48.647031 291.342435 47.734532 289.139467 46.110501 287.515436 
C 44.486471 285.891406 42.283503 284.978907 39.986777 284.978907 
C 37.690051 284.978907 35.487083 285.891406 33.863053 287.515436 
C 32.239022 289.139467 31.326523 291.342435 31.326523 293.639161 
C 31.326523 295.935887 32.239022 298.138855 33.863053 299.762885 
C 35.487083 301.386916 37.690051 302.299415 39.986777 302.299415 
z
" clip-path="url(#p294f7f5267)" style="fill: #ffff00; stroke: #000000"/>
    <path d="M 39.986777 294.975829 
C 42.283503 294.975829 44.486471 294.06333 46.110501 292.4393 
C 47.734532 290.815269 48.647031 288.612302 48.647031 286.315575 
C 48.647031 284.018849 47.734532 281.815882 46.110501 280.191851 
C 44.486471 278.56782 42.283503 277.655321 39.986777 277.655321 
C 37.690051 277.655321 35.487083 278.56782 33.863053 280.191851 
C 32.239022 281.815882 31.326523 284.018849 31.326523 286.315575 
C 31.326523 288.612302 32.239022 290.815269 33.863053 292.4393 
C 35.487083 294.06333 37.690051 294.975829 39.986777 294.975829 
z
" clip-path="url(#p294f7f5267)" style="fill: #ffff00; stroke: #000000"/>
    <path d="M 39.986777 287.652244 
C 42.283503 287.652244 44.486471 286.739745 46.110501 285.115714 
C 47.734532 283.491684 48.647031 281.288716 48.647031 278.99199 
C 48.647031 276.695264 47.734532 274.492296 46.110501 272.868265 
C 44.486471 271.244235 42.283503 270.331736 39.986777 270.331736 
C 37.690051 270.331736 35.487083 271.244235 33.863053 272.868265 
C 32.239022 274.492296 31.326523 276.695264 31.326523 278.99199 
C 31.326523 281.288716 32.239022 283.491684 33.863053 285.115714 
C 35.487083 286.739745 37.690051 287.652244 39.986777 287.652244 
z
" clip-path="url(#p294f7f5267)" style="fill: #ffff00; stroke: #000000"/>
    <path d="M 39.986777 280.328658 
C 42.283503 280.328658 44.486471 279.416159 46.110501 277.792129 
C 47.734532 276.168098 48.647031 273.965131 48.647031 271.668404 
C 48.647031 269.371678 47.734532 267.168711 46.110501 265.54468 
C 44.486471 263.920649 42.283503 263.00815 39.986777 263.00815 
C 37.690051 263.00815 35.487083 263.920649 33.863053 265.54468 
C 32.239022 267.168711 31.326523 269.371678 31.326523 271.668404 
C 31.326523 273.965131 32.239022 276.168098 33.863053 277.792129 
C 35.487083 279.416159 37.690051 280.328658 39.986777 280.328658 
z
" clip-path="url(#p294f7f5267)" style="fill: #ffff00; stroke: #000000"/>
    <path d="M 39.986777 273.005073 
C 42.283503 273.005073 44.486471 272.092574 46.110501 270.468543 
C 47.734532 268.844512 48.647031 266.641545 48.647031 264.344819 
C 48.647031 262.048093 47.734532 259.845125 46.110501 258.221094 
C 44.486471 256.597064 42.283503 255.684565 39.986777 255.684565 
C 37.690051 255.684565 35.487083 256.597064 33.863053 258.221094 
C 32.239022 259.845125 31.326523 262.048093 31.326523 264.344819 
C 31.326523 266.641545 32.239022 268.844512 33.863053 270.468543 
C 35.487083 272.092574 37.690051 273.005073 39.986777 273.005073 
z
" clip-path="url(#p294f7f5267)" style="fill: #ffff00; stroke: #000000"/>
    <path d="M 39.986777 265.681487 
C 42.283503 265.681487 44.486471 264.768988 46.110501 263.144958 
C 47.734532 261.520927 48.647031 259.31796 48.647031 257.021233 
C 48.647031 254.724507 47.734532 252.52154 46.110501 250.897509 
C 44.486471 249.273478 42.283503 248.360979 39.986777 248.360979 
C 37.690051 248.360979 35.487083 249.273478 33.863053 250.897509 
C 32.239022 252.52154 31.326523 254.724507 31.326523 257.021233 
C 31.326523 259.31796 32.239022 261.520927 33.863053 263.144958 
C 35.487083 264.768988 37.690051 265.681487 39.986777 265.681487 
z
" clip-path="url(#p294f7f5267)" style="fill: #ffff00; stroke: #000000"/>
    <path d="M 39.986777 258.357902 
C 42.283503 258.357902 44.486471 257.445403 46.110501 255.821372 
C 47.734532 254.197341 48.647031 251.994374 48.647031 249.697648 
C 48.647031 247.400922 47.734532 245.197954 46.110501 243.573923 
C 44.486471 241.949893 42.283503 241.037394 39.986777 241.037394 
C 37.690051 241.037394 35.487083 241.949893 33.863053 243.573923 
C 32.239022 245.197954 31.326523 247.400922 31.326523 249.697648 
C 31.326523 251.994374 32.239022 254.197341 33.863053 255.821372 
C 35.487083 257.445403 37.690051 258.357902 39.986777 258.357902 
z
" clip-path="url(#p294f7f5267)" style="fill: #ffff00; stroke: #000000"/>
    <path d="M 39.986777 251.034316 
C 42.283503 251.034316 44.486471 250.121817 46.110501 248.497787 
C 47.734532 246.873756 48.647031 244.670789 48.647031 242.374062 
C 48.647031 240.077336 47.734532 237.874369 46.110501 236.250338 
C 44.486471 234.626307 42.283503 233.713808 39.986777 233.713808 
C 37.690051 233.713808 35.487083 234.626307 33.863053 236.250338 
C 32.239022 237.874369 31.326523 240.077336 31.326523 242.374062 
C 31.326523 244.670789 32.239022 246.873756 33.863053 248.497787 
C 35.487083 250.121817 37.690051 251.034316 39.986777 251.034316 
z
" clip-path="url(#p294f7f5267)" style="fill: #ffff00; stroke: #000000"/>
    <path d="M 39.986777 243.710731 
C 42.283503 243.710731 44.486471 242.798232 46.110501 241.174201 
C 47.734532 239.55017 48.647031 237.347203 48.647031 235.050477 
C 48.647031 232.753751 47.734532 230.550783 46.110501 228.926752 
C 44.486471 227.302722 42.283503 226.390223 39.986777 226.390223 
C 37.690051 226.390223 35.487083 227.302722 33.863053 228.926752 
C 32.239022 230.550783 31.326523 232.753751 31.326523 235.050477 
C 31.326523 237.347203 32.239022 239.55017 33.863053 241.174201 
C 35.487083 242.798232 37.690051 243.710731 39.986777 243.710731 
z
" clip-path="url(#p294f7f5267)" style="fill: #ffff00; stroke: #000000"/>
    <path d="M 39.986777 236.387145 
C 42.283503 236.387145 44.486471 235.474646 46.110501 233.850616 
C 47.734532 232.226585 48.647031 230.023618 48.647031 227.726891 
C 48.647031 225.430165 47.734532 223.227198 46.110501 221.603167 
C 44.486471 219.979136 42.283503 219.066637 39.986777 219.066637 
C 37.690051 219.066637 35.487083 219.979136 33.863053 221.603167 
C 32.239022 223.227198 31.326523 225.430165 31.326523 227.726891 
C 31.326523 230.023618 32.239022 232.226585 33.863053 233.850616 
C 35.487083 235.474646 37.690051 236.387145 39.986777 236.387145 
z
" clip-path="url(#p294f7f5267)" style="fill: #ffff00; stroke: #000000"/>
    <path d="M 39.986777 229.06356 
C 42.283503 229.06356 44.486471 228.151061 46.110501 226.52703 
C 47.734532 224.902999 48.647031 222.700032 48.647031 220.403306 
C 48.647031 218.10658 47.734532 215.903612 46.110501 214.279581 
C 44.486471 212.655551 42.283503 211.743052 39.986777 211.743052 
C 37.690051 211.743052 35.487083 212.655551 33.863053 214.279581 
C 32.239022 215.903612 31.326523 218.10658 31.326523 220.403306 
C 31.326523 222.700032 32.239022 224.902999 33.863053 226.52703 
C 35.487083 228.151061 37.690051 229.06356 39.986777 229.06356 
z
" clip-path="url(#p294f7f5267)" style="fill: #ffff00; stroke: #000000"/>
    <path d="M 39.986777 221.739974 
C 42.283503 221.739974 44.486471 220.827475 46.110501 219.203445 
C 47.734532 217.579414 48.647031 215.376446 48.647031 213.07972 
C 48.647031 210.782994 47.734532 208.580027 46.110501 206.955996 
C 44.486471 205.331965 42.283503 204.419466 39.986777 204.419466 
C 37.690051 204.419466 35.487083 205.331965 33.863053 206.955996 
C 32.239022 208.580027 31.326523 210.782994 31.326523 213.07972 
C 31.326523 215.376446 32.239022 217.579414 33.863053 219.203445 
C 35.487083 220.827475 37.690051 221.739974 39.986777 221.739974 
z
" clip-path="url(#p294f7f5267)" style="fill: #ffff00; stroke: #000000"/>
    <path d="M 39.986777 214.416389 
C 42.283503 214.416389 44.486471 213.50389 46.110501 211.879859 
C 47.734532 210.255828 48.647031 208.052861 48.647031 205.756135 
C 48.647031 203.459409 47.734532 201.256441 46.110501 199.63241 
C 44.486471 198.00838 42.283503 197.095881 39.986777 197.095881 
C 37.690051 197.095881 35.487083 198.00838 33.863053 199.63241 
C 32.239022 201.256441 31.326523 203.459409 31.326523 205.756135 
C 31.326523 208.052861 32.239022 210.255828 33.863053 211.879859 
C 35.487083 213.50389 37.690051 214.416389 39.986777 214.416389 
z
" clip-path="url(#p294f7f5267)" style="fill: #ffff00; stroke: #000000"/>
    <path d="M 39.986777 207.092803 
C 42.283503 207.092803 44.486471 206.180304 46.110501 204.556274 
C 47.734532 202.932243 48.647031 200.729275 48.647031 198.432549 
C 48.647031 196.135823 47.734532 193.932856 46.110501 192.308825 
C 44.486471 190.684794 42.283503 189.772295 39.986777 189.772295 
C 37.690051 189.772295 35.487083 190.684794 33.863053 192.308825 
C 32.239022 193.932856 31.326523 196.135823 31.326523 198.432549 
C 31.326523 200.729275 32.239022 202.932243 33.863053 204.556274 
C 35.487083 206.180304 37.690051 207.092803 39.986777 207.092803 
z
" clip-path="url(#p294f7f5267)" style="fill: #ffff00; stroke: #000000"/>
    <path d="M 39.986777 199.769218 
C 42.283503 199.769218 44.486471 198.856719 46.110501 197.232688 
C 47.734532 195.608657 48.647031 193.40569 48.647031 191.108964 
C 48.647031 188.812238 47.734532 186.60927 46.110501 184.985239 
C 44.486471 183.361209 42.283503 182.44871 39.986777 182.44871 
C 37.690051 182.44871 35.487083 183.361209 33.863053 184.985239 
C 32.239022 186.60927 31.326523 188.812238 31.326523 191.108964 
C 31.326523 193.40569 32.239022 195.608657 33.863053 197.232688 
C 35.487083 198.856719 37.690051 199.769218 39.986777 199.769218 
z
" clip-path="url(#p294f7f5267)" style="fill: #ffff00; stroke: #000000"/>
    <path d="M 39.986777 192.445632 
C 42.283503 192.445632 44.486471 191.533133 46.110501 189.909103 
C 47.734532 188.285072 48.647031 186.082104 48.647031 183.785378 
C 48.647031 181.488652 47.734532 179.285685 46.110501 177.661654 
C 44.486471 176.037623 42.283503 175.125124 39.986777 175.125124 
C 37.690051 175.125124 35.487083 176.037623 33.863053 177.661654 
C 32.239022 179.285685 31.326523 181.488652 31.326523 183.785378 
C 31.326523 186.082104 32.239022 188.285072 33.863053 189.909103 
C 35.487083 191.533133 37.690051 192.445632 39.986777 192.445632 
z
" clip-path="url(#p294f7f5267)" style="fill: #ffff00; stroke: #000000"/>
    <path d="M 39.986777 185.122047 
C 42.283503 185.122047 44.486471 184.209548 46.110501 182.585517 
C 47.734532 180.961486 48.647031 178.758519 48.647031 176.461793 
C 48.647031 174.165067 47.734532 171.962099 46.110501 170.338068 
C 44.486471 168.714038 42.283503 167.801539 39.986777 167.801539 
C 37.690051 167.801539 35.487083 168.714038 33.863053 170.338068 
C 32.239022 171.962099 31.326523 174.165067 31.326523 176.461793 
C 31.326523 178.758519 32.239022 180.961486 33.863053 182.585517 
C 35.487083 184.209548 37.690051 185.122047 39.986777 185.122047 
z
" clip-path="url(#p294f7f5267)" style="fill: #ffff00; stroke: #000000"/>
    <path d="M 39.986777 177.798461 
C 42.283503 177.798461 44.486471 176.885962 46.110501 175.261932 
C 47.734532 173.637901 48.647031 171.434933 48.647031 169.138207 
C 48.647031 166.841481 47.734532 164.638514 46.110501 163.014483 
C 44.486471 161.390452 42.283503 160.477953 39.986777 160.477953 
C 37.690051 160.477953 35.487083 161.390452 33.863053 163.014483 
C 32.239022 164.638514 31.326523 166.841481 31.326523 169.138207 
C 31.326523 171.434933 32.239022 173.637901 33.863053 175.261932 
C 35.487083 176.885962 37.690051 177.798461 39.986777 177.798461 
z
" clip-path="url(#p294f7f5267)" style="fill: #ffff00; stroke: #000000"/>
    <path d="M 39.986777 170.474876 
C 42.283503 170.474876 44.486471 169.562377 46.110501 167.938346 
C 47.734532 166.314315 48.647031 164.111348 48.647031 161.814622 
C 48.647031 159.517896 47.734532 157.314928 46.110501 155.690897 
C 44.486471 154.066867 42.283503 153.154368 39.986777 153.154368 
C 37.690051 153.154368 35.487083 154.066867 33.863053 155.690897 
C 32.239022 157.314928 31.326523 159.517896 31.326523 161.814622 
C 31.326523 164.111348 32.239022 166.314315 33.863053 167.938346 
C 35.487083 169.562377 37.690051 170.474876 39.986777 170.474876 
z
" clip-path="url(#p294f7f5267)" style="fill: #ffff00; stroke: #000000"/>
    <path d="M 39.986777 163.15129 
C 42.283503 163.15129 44.486471 162.238791 46.110501 160.614761 
C 47.734532 158.99073 48.647031 156.787762 48.647031 154.491036 
C 48.647031 152.19431 47.734532 149.991343 46.110501 148.367312 
C 44.486471 146.743281 42.283503 145.830782 39.986777 145.830782 
C 37.690051 145.830782 35.487083 146.743281 33.863053 148.367312 
C 32.239022 149.991343 31.326523 152.19431 31.326523 154.491036 
C 31.326523 156.787762 32.239022 158.99073 33.863053 160.614761 
C 35.487083 162.238791 37.690051 163.15129 39.986777 163.15129 
z
" clip-path="url(#p294f7f5267)" style="fill: #ffff00; stroke: #000000"/>
    <path d="M 39.986777 155.827705 
C 42.283503 155.827705 44.486471 154.915206 46.110501 153.291175 
C 47.734532 151.667144 48.647031 149.464177 48.647031 147.167451 
C 48.647031 144.870725 47.734532 142.667757 46.110501 141.043726 
C 44.486471 139.419696 42.283503 138.507197 39.986777 138.507197 
C 37.690051 138.507197 35.487083 139.419696 33.863053 141.043726 
C 32.239022 142.667757 31.326523 144.870725 31.326523 147.167451 
C 31.326523 149.464177 32.239022 151.667144 33.863053 153.291175 
C 35.487083 154.915206 37.690051 155.827705 39.986777 155.827705 
z
" clip-path="url(#p294f7f5267)" style="fill: #ffff00; stroke: #000000"/>
    <path d="M 39.986777 148.504119 
C 42.283503 148.504119 44.486471 147.59162 46.110501 145.96759 
C 47.734532 144.343559 48.647031 142.140591 48.647031 139.843865 
C 48.647031 137.547139 47.734532 135.344172 46.110501 133.720141 
C 44.486471 132.09611 42.283503 131.183611 39.986777 131.183611 
C 37.690051 131.183611 35.487083 132.09611 33.863053 133.720141 
C 32.239022 135.344172 31.326523 137.547139 31.326523 139.843865 
C 31.326523 142.140591 32.239022 144.343559 33.863053 145.96759 
C 35.487083 147.59162 37.690051 148.504119 39.986777 148.504119 
z
" clip-path="url(#p294f7f5267)" style="fill: #ffff00; stroke: #000000"/>
    <path d="M 39.986777 141.180534 
C 42.283503 141.180534 44.486471 140.268035 46.110501 138.644004 
C 47.734532 137.019973 48.647031 134.817006 48.647031 132.52028 
C 48.647031 130.223554 47.734532 128.020586 46.110501 126.396555 
C 44.486471 124.772525 42.283503 123.860026 39.986777 123.860026 
C 37.690051 123.860026 35.487083 124.772525 33.863053 126.396555 
C 32.239022 128.020586 31.326523 130.223554 31.326523 132.52028 
C 31.326523 134.817006 32.239022 137.019973 33.863053 138.644004 
C 35.487083 140.268035 37.690051 141.180534 39.986777 141.180534 
z
" clip-path="url(#p294f7f5267)" style="fill: #ffff00; stroke: #000000"/>
    <path d="M 39.986777 133.856948 
C 42.283503 133.856948 44.486471 132.944449 46.110501 131.320419 
C 47.734532 129.696388 48.647031 127.49342 48.647031 125.196694 
C 48.647031 122.899968 47.734532 120.697001 46.110501 119.07297 
C 44.486471 117.448939 42.283503 116.53644 39.986777 116.53644 
C 37.690051 116.53644 35.487083 117.448939 33.863053 119.07297 
C 32.239022 120.697001 31.326523 122.899968 31.326523 125.196694 
C 31.326523 127.49342 32.239022 129.696388 33.863053 131.320419 
C 35.487083 132.944449 37.690051 133.856948 39.986777 133.856948 
z
" clip-path="url(#p294f7f5267)" style="fill: #ffff00; stroke: #000000"/>
    <path d="M 39.986777 126.533363 
C 42.283503 126.533363 44.486471 125.620864 46.110501 123.996833 
C 47.734532 122.372802 48.647031 120.169835 48.647031 117.873109 
C 48.647031 115.576382 47.734532 113.373415 46.110501 111.749384 
C 44.486471 110.125354 42.283503 109.212855 39.986777 109.212855 
C 37.690051 109.212855 35.487083 110.125354 33.863053 111.749384 
C 32.239022 113.373415 31.326523 115.576382 31.326523 117.873109 
C 31.326523 120.169835 32.239022 122.372802 33.863053 123.996833 
C 35.487083 125.620864 37.690051 126.533363 39.986777 126.533363 
z
" clip-path="url(#p294f7f5267)" style="fill: #ffff00; stroke: #000000"/>
    <path d="M 39.986777 119.209777 
C 42.283503 119.209777 44.486471 118.297278 46.110501 116.673248 
C 47.734532 115.049217 48.647031 112.846249 48.647031 110.549523 
C 48.647031 108.252797 47.734532 106.04983 46.110501 104.425799 
C 44.486471 102.801768 42.283503 101.889269 39.986777 101.889269 
C 37.690051 101.889269 35.487083 102.801768 33.863053 104.425799 
C 32.239022 106.04983 31.326523 108.252797 31.326523 110.549523 
C 31.326523 112.846249 32.239022 115.049217 33.863053 116.673248 
C 35.487083 118.297278 37.690051 119.209777 39.986777 119.209777 
z
" clip-path="url(#p294f7f5267)" style="fill: #ffff00; stroke: #000000"/>
    <path d="M 39.986777 111.886192 
C 42.283503 111.886192 44.486471 110.973693 46.110501 109.349662 
C 47.734532 107.725631 48.647031 105.522664 48.647031 103.225938 
C 48.647031 100.929211 47.734532 98.726244 46.110501 97.102213 
C 44.486471 95.478183 42.283503 94.565684 39.986777 94.565684 
C 37.690051 94.565684 35.487083 95.478183 33.863053 97.102213 
C 32.239022 98.726244 31.326523 100.929211 31.326523 103.225938 
C 31.326523 105.522664 32.239022 107.725631 33.863053 109.349662 
C 35.487083 110.973693 37.690051 111.886192 39.986777 111.886192 
z
" clip-path="url(#p294f7f5267)" style="fill: #ffff00; stroke: #000000"/>
    <path d="M 39.986777 104.562606 
C 42.283503 104.562606 44.486471 103.650107 46.110501 102.026077 
C 47.734532 100.402046 48.647031 98.199078 48.647031 95.902352 
C 48.647031 93.605626 47.734532 91.402659 46.110501 89.778628 
C 44.486471 88.154597 42.283503 87.242098 39.986777 87.242098 
C 37.690051 87.242098 35.487083 88.154597 33.863053 89.778628 
C 32.239022 91.402659 31.326523 93.605626 31.326523 95.902352 
C 31.326523 98.199078 32.239022 100.402046 33.863053 102.026077 
C 35.487083 103.650107 37.690051 104.562606 39.986777 104.562606 
z
" clip-path="url(#p294f7f5267)" style="fill: #ffff00; stroke: #000000"/>
    <path d="M 39.986777 97.239021 
C 42.283503 97.239021 44.486471 96.326522 46.110501 94.702491 
C 47.734532 93.07846 48.647031 90.875493 48.647031 88.578767 
C 48.647031 86.28204 47.734532 84.079073 46.110501 82.455042 
C 44.486471 80.831012 42.283503 79.918513 39.986777 79.918513 
C 37.690051 79.918513 35.487083 80.831012 33.863053 82.455042 
C 32.239022 84.079073 31.326523 86.28204 31.326523 88.578767 
C 31.326523 90.875493 32.239022 93.07846 33.863053 94.702491 
C 35.487083 96.326522 37.690051 97.239021 39.986777 97.239021 
z
" clip-path="url(#p294f7f5267)" style="fill: #ffff00; stroke: #000000"/>
    <path d="M 39.986777 89.915435 
C 42.283503 89.915435 44.486471 89.002936 46.110501 87.378906 
C 47.734532 85.754875 48.647031 83.551907 48.647031 81.255181 
C 48.647031 78.958455 47.734532 76.755488 46.110501 75.131457 
C 44.486471 73.507426 42.283503 72.594927 39.986777 72.594927 
C 37.690051 72.594927 35.487083 73.507426 33.863053 75.131457 
C 32.239022 76.755488 31.326523 78.958455 31.326523 81.255181 
C 31.326523 83.551907 32.239022 85.754875 33.863053 87.378906 
C 35.487083 89.002936 37.690051 89.915435 39.986777 89.915435 
z
" clip-path="url(#p294f7f5267)" style="fill: #ffff00; stroke: #000000"/>
    <path d="M 39.986777 82.59185 
C 42.283503 82.59185 44.486471 81.679351 46.110501 80.05532 
C 47.734532 78.431289 48.647031 76.228322 48.647031 73.931596 
C 48.647031 71.634869 47.734532 69.431902 46.110501 67.807871 
C 44.486471 66.183841 42.283503 65.271342 39.986777 65.271342 
C 37.690051 65.271342 35.487083 66.183841 33.863053 67.807871 
C 32.239022 69.431902 31.326523 71.634869 31.326523 73.931596 
C 31.326523 76.228322 32.239022 78.431289 33.863053 80.05532 
C 35.487083 81.679351 37.690051 82.59185 39.986777 82.59185 
z
" clip-path="url(#p294f7f5267)" style="fill: #ffff00; stroke: #000000"/>
    <path d="M 39.986777 75.268264 
C 42.283503 75.268264 44.486471 74.355765 46.110501 72.731735 
C 47.734532 71.107704 48.647031 68.904736 48.647031 66.60801 
C 48.647031 64.311284 47.734532 62.108316 46.110501 60.484286 
C 44.486471 58.860255 42.283503 57.947756 39.986777 57.947756 
C 37.690051 57.947756 35.487083 58.860255 33.863053 60.484286 
C 32.239022 62.108316 31.326523 64.311284 31.326523 66.60801 
C 31.326523 68.904736 32.239022 71.107704 33.863053 72.731735 
C 35.487083 74.355765 37.690051 75.268264 39.986777 75.268264 
z
" clip-path="url(#p294f7f5267)" style="fill: #ffff00; stroke: #000000"/>
    <path d="M 39.986777 67.944679 
C 42.283503 67.944679 44.486471 67.03218 46.110501 65.408149 
C 47.734532 63.784118 48.647031 61.581151 48.647031 59.284425 
C 48.647031 56.987698 47.734532 54.784731 46.110501 53.1607 
C 44.486471 51.53667 42.283503 50.624171 39.986777 50.624171 
C 37.690051 50.624171 35.487083 51.53667 33.863053 53.1607 
C 32.239022 54.784731 31.326523 56.987698 31.326523 59.284425 
C 31.326523 61.581151 32.239022 63.784118 33.863053 65.408149 
C 35.487083 67.03218 37.690051 67.944679 39.986777 67.944679 
z
" clip-path="url(#p294f7f5267)" style="fill: #ffff00; stroke: #000000"/>
    <path d="M 39.986777 60.621093 
C 42.283503 60.621093 44.486471 59.708594 46.110501 58.084564 
C 47.734532 56.460533 48.647031 54.257565 48.647031 51.960839 
C 48.647031 49.664113 47.734532 47.461145 46.110501 45.837115 
C 44.486471 44.213084 42.283503 43.300585 39.986777 43.300585 
C 37.690051 43.300585 35.487083 44.213084 33.863053 45.837115 
C 32.239022 47.461145 31.326523 49.664113 31.326523 51.960839 
C 31.326523 54.257565 32.239022 56.460533 33.863053 58.084564 
C 35.487083 59.708594 37.690051 60.621093 39.986777 60.621093 
z
" clip-path="url(#p294f7f5267)" style="fill: #ffff00; stroke: #000000"/>
    <path d="M 39.986777 53.297508 
C 42.283503 53.297508 44.486471 52.385009 46.110501 50.760978 
C 47.734532 49.136947 48.647031 46.93398 48.647031 44.637254 
C 48.647031 42.340527 47.734532 40.13756 46.110501 38.513529 
C 44.486471 36.889499 42.283503 35.977 39.986777 35.977 
C 37.690051 35.977 35.487083 36.889499 33.863053 38.513529 
C 32.239022 40.13756 31.326523 42.340527 31.326523 44.637254 
C 31.326523 46.93398 32.239022 49.136947 33.863053 50.760978 
C 35.487083 52.385009 37.690051 53.297508 39.986777 53.297508 
z
" clip-path="url(#p294f7f5267)" style="fill: #ffff00; stroke: #000000"/>
    <path d="M 39.986777 45.973922 
C 42.283503 45.973922 44.486471 45.061423 46.110501 43.437393 
C 47.734532 41.813362 48.647031 39.610394 48.647031 37.313668 
C 48.647031 35.016942 47.734532 32.813974 46.110501 31.189944 
C 44.486471 29.565913 42.283503 28.653414 39.986777 28.653414 
C 37.690051 28.653414 35.487083 29.565913 33.863053 31.189944 
C 32.239022 32.813974 31.326523 35.016942 31.326523 37.313668 
C 31.326523 39.610394 32.239022 41.813362 33.863053 43.437393 
C 35.487083 45.061423 37.690051 45.973922 39.986777 45.973922 
z
" clip-path="url(#p294f7f5267)" style="fill: #ffff00; stroke: #000000"/>
    <path d="M 39.986777 38.650337 
C 42.283503 38.650337 44.486471 37.737838 46.110501 36.113807 
C 47.734532 34.489776 48.647031 32.286809 48.647031 29.990083 
C 48.647031 27.693356 47.734532 25.490389 46.110501 23.866358 
C 44.486471 22.242328 42.283503 21.329829 39.986777 21.329829 
C 37.690051 21.329829 35.487083 22.242328 33.863053 23.866358 
C 32.239022 25.490389 31.326523 27.693356 31.326523 29.990083 
C 31.326523 32.286809 32.239022 34.489776 33.863053 36.113807 
C 35.487083 37.737838 37.690051 38.650337 39.986777 38.650337 
z
" clip-path="url(#p294f7f5267)" style="fill: #ffff00; stroke: #000000"/>
    <path d="M 65.375207 148.504119 
C 67.671933 148.504119 69.8749 147.59162 71.498931 145.96759 
C 73.122962 144.343559 74.035461 142.140591 74.035461 139.843865 
C 74.035461 137.547139 73.122962 135.344172 71.498931 133.720141 
C 69.8749 132.09611 67.671933 131.183611 65.375207 131.183611 
C 63.07848 131.183611 60.875513 132.09611 59.251482 133.720141 
C 57.627452 135.344172 56.714953 137.547139 56.714953 139.843865 
C 56.714953 142.140591 57.627452 144.343559 59.251482 145.96759 
C 60.875513 147.59162 63.07848 148.504119 65.375207 148.504119 
z
" clip-path="url(#p294f7f5267)" style="fill: #ffffff; stroke: #000000"/>
    <path d="M 65.375207 214.416389 
C 67.671933 214.416389 69.8749 213.50389 71.498931 211.879859 
C 73.122962 210.255828 74.035461 208.052861 74.035461 205.756135 
C 74.035461 203.459409 73.122962 201.256441 71.498931 199.63241 
C 69.8749 198.00838 67.671933 197.095881 65.375207 197.095881 
C 63.07848 197.095881 60.875513 198.00838 59.251482 199.63241 
C 57.627452 201.256441 56.714953 203.459409 56.714953 205.756135 
C 56.714953 208.052861 57.627452 210.255828 59.251482 211.879859 
C 60.875513 213.50389 63.07848 214.416389 65.375207 214.416389 
z
" clip-path="url(#p294f7f5267)" style="fill: #ffffff; stroke: #000000"/>
    <path d="M 65.375207 170.474876 
C 67.671933 170.474876 69.8749 169.562377 71.498931 167.938346 
C 73.122962 166.314315 74.035461 164.111348 74.035461 161.814622 
C 74.035461 159.517896 73.122962 157.314928 71.498931 155.690897 
C 69.8749 154.066867 67.671933 153.154368 65.375207 153.154368 
C 63.07848 153.154368 60.875513 154.066867 59.251482 155.690897 
C 57.627452 157.314928 56.714953 159.517896 56.714953 161.814622 
C 56.714953 164.111348 57.627452 166.314315 59.251482 167.938346 
C 60.875513 169.562377 63.07848 170.474876 65.375207 170.474876 
z
" clip-path="url(#p294f7f5267)" style="fill: #ffffff; stroke: #000000"/>
    <path d="M 65.375207 185.122047 
C 67.671933 185.122047 69.8749 184.209548 71.498931 182.585517 
C 73.122962 180.961486 74.035461 178.758519 74.035461 176.461793 
C 74.035461 174.165067 73.122962 171.962099 71.498931 170.338068 
C 69.8749 168.714038 67.671933 167.801539 65.375207 167.801539 
C 63.07848 167.801539 60.875513 168.714038 59.251482 170.338068 
C 57.627452 171.962099 56.714953 174.165067 56.714953 176.461793 
C 56.714953 178.758519 57.627452 180.961486 59.251482 182.585517 
C 60.875513 184.209548 63.07848 185.122047 65.375207 185.122047 
z
" clip-path="url(#p294f7f5267)" style="fill: #ffffff; stroke: #000000"/>
    <path d="M 65.375207 177.798461 
C 67.671933 177.798461 69.8749 176.885962 71.498931 175.261932 
C 73.122962 173.637901 74.035461 171.434933 74.035461 169.138207 
C 74.035461 166.841481 73.122962 164.638514 71.498931 163.014483 
C 69.8749 161.390452 67.671933 160.477953 65.375207 160.477953 
C 63.07848 160.477953 60.875513 161.390452 59.251482 163.014483 
C 57.627452 164.638514 56.714953 166.841481 56.714953 169.138207 
C 56.714953 171.434933 57.627452 173.637901 59.251482 175.261932 
C 60.875513 176.885962 63.07848 177.798461 65.375207 177.798461 
z
" clip-path="url(#p294f7f5267)" style="fill: #ffffff; stroke: #000000"/>
    <path d="M 65.375207 155.827705 
C 67.671933 155.827705 69.8749 154.915206 71.498931 153.291175 
C 73.122962 151.667144 74.035461 149.464177 74.035461 147.167451 
C 74.035461 144.870725 73.122962 142.667757 71.498931 141.043726 
C 69.8749 139.419696 67.671933 138.507197 65.375207 138.507197 
C 63.07848 138.507197 60.875513 139.419696 59.251482 141.043726 
C 57.627452 142.667757 56.714953 144.870725 56.714953 147.167451 
C 56.714953 149.464177 57.627452 151.667144 59.251482 153.291175 
C 60.875513 154.915206 63.07848 155.827705 65.375207 155.827705 
z
" clip-path="url(#p294f7f5267)" style="fill: #ffffff; stroke: #000000"/>
    <path d="M 65.375207 192.445632 
C 67.671933 192.445632 69.8749 191.533133 71.498931 189.909103 
C 73.122962 188.285072 74.035461 186.082104 74.035461 183.785378 
C 74.035461 181.488652 73.122962 179.285685 71.498931 177.661654 
C 69.8749 176.037623 67.671933 175.125124 65.375207 175.125124 
C 63.07848 175.125124 60.875513 176.037623 59.251482 177.661654 
C 57.627452 179.285685 56.714953 181.488652 56.714953 183.785378 
C 56.714953 186.082104 57.627452 188.285072 59.251482 189.909103 
C 60.875513 191.533133 63.07848 192.445632 65.375207 192.445632 
z
" clip-path="url(#p294f7f5267)" style="fill: #ffffff; stroke: #000000"/>
    <path d="M 65.375207 163.15129 
C 67.671933 163.15129 69.8749 162.238791 71.498931 160.614761 
C 73.122962 158.99073 74.035461 156.787762 74.035461 154.491036 
C 74.035461 152.19431 73.122962 149.991343 71.498931 148.367312 
C 69.8749 146.743281 67.671933 145.830782 65.375207 145.830782 
C 63.07848 145.830782 60.875513 146.743281 59.251482 148.367312 
C 57.627452 149.991343 56.714953 152.19431 56.714953 154.491036 
C 56.714953 156.787762 57.627452 158.99073 59.251482 160.614761 
C 60.875513 162.238791 63.07848 163.15129 65.375207 163.15129 
z
" clip-path="url(#p294f7f5267)" style="fill: #ffffff; stroke: #000000"/>
    <path d="M 65.375207 207.092803 
C 67.671933 207.092803 69.8749 206.180304 71.498931 204.556274 
C 73.122962 202.932243 74.035461 200.729275 74.035461 198.432549 
C 74.035461 196.135823 73.122962 193.932856 71.498931 192.308825 
C 69.8749 190.684794 67.671933 189.772295 65.375207 189.772295 
C 63.07848 189.772295 60.875513 190.684794 59.251482 192.308825 
C 57.627452 193.932856 56.714953 196.135823 56.714953 198.432549 
C 56.714953 200.729275 57.627452 202.932243 59.251482 204.556274 
C 60.875513 206.180304 63.07848 207.092803 65.375207 207.092803 
z
" clip-path="url(#p294f7f5267)" style="fill: #ffffff; stroke: #000000"/>
    <path d="M 65.375207 199.769218 
C 67.671933 199.769218 69.8749 198.856719 71.498931 197.232688 
C 73.122962 195.608657 74.035461 193.40569 74.035461 191.108964 
C 74.035461 188.812238 73.122962 186.60927 71.498931 184.985239 
C 69.8749 183.361209 67.671933 182.44871 65.375207 182.44871 
C 63.07848 182.44871 60.875513 183.361209 59.251482 184.985239 
C 57.627452 186.60927 56.714953 188.812238 56.714953 191.108964 
C 56.714953 193.40569 57.627452 195.608657 59.251482 197.232688 
C 60.875513 198.856719 63.07848 199.769218 65.375207 199.769218 
z
" clip-path="url(#p294f7f5267)" style="fill: #ffffff; stroke: #000000"/>
    <path d="M 90.763636 177.798461 
C 93.060363 177.798461 95.26333 176.885962 96.887361 175.261932 
C 98.511391 173.637901 99.42389 171.434933 99.42389 169.138207 
C 99.42389 166.841481 98.511391 164.638514 96.887361 163.014483 
C 95.26333 161.390452 93.060363 160.477953 90.763636 160.477953 
C 88.46691 160.477953 86.263943 161.390452 84.639912 163.014483 
C 83.015881 164.638514 82.103382 166.841481 82.103382 169.138207 
C 82.103382 171.434933 83.015881 173.637901 84.639912 175.261932 
C 86.263943 176.885962 88.46691 177.798461 90.763636 177.798461 
z
" clip-path="url(#p294f7f5267)" style="fill: #ffffff; stroke: #000000"/>
    <path d="M 90.763636 170.474876 
C 93.060363 170.474876 95.26333 169.562377 96.887361 167.938346 
C 98.511391 166.314315 99.42389 164.111348 99.42389 161.814622 
C 99.42389 159.517896 98.511391 157.314928 96.887361 155.690897 
C 95.26333 154.066867 93.060363 153.154368 90.763636 153.154368 
C 88.46691 153.154368 86.263943 154.066867 84.639912 155.690897 
C 83.015881 157.314928 82.103382 159.517896 82.103382 161.814622 
C 82.103382 164.111348 83.015881 166.314315 84.639912 167.938346 
C 86.263943 169.562377 88.46691 170.474876 90.763636 170.474876 
z
" clip-path="url(#p294f7f5267)" style="fill: #ffffff; stroke: #000000"/>
    <path d="M 90.763636 163.15129 
C 93.060363 163.15129 95.26333 162.238791 96.887361 160.614761 
C 98.511391 158.99073 99.42389 156.787762 99.42389 154.491036 
C 99.42389 152.19431 98.511391 149.991343 96.887361 148.367312 
C 95.26333 146.743281 93.060363 145.830782 90.763636 145.830782 
C 88.46691 145.830782 86.263943 146.743281 84.639912 148.367312 
C 83.015881 149.991343 82.103382 152.19431 82.103382 154.491036 
C 82.103382 156.787762 83.015881 158.99073 84.639912 160.614761 
C 86.263943 162.238791 88.46691 163.15129 90.763636 163.15129 
z
" clip-path="url(#p294f7f5267)" style="fill: #ffffff; stroke: #000000"/>
    <path d="M 90.763636 199.769218 
C 93.060363 199.769218 95.26333 198.856719 96.887361 197.232688 
C 98.511391 195.608657 99.42389 193.40569 99.42389 191.108964 
C 99.42389 188.812238 98.511391 186.60927 96.887361 184.985239 
C 95.26333 183.361209 93.060363 182.44871 90.763636 182.44871 
C 88.46691 182.44871 86.263943 183.361209 84.639912 184.985239 
C 83.015881 186.60927 82.103382 188.812238 82.103382 191.108964 
C 82.103382 193.40569 83.015881 195.608657 84.639912 197.232688 
C 86.263943 198.856719 88.46691 199.769218 90.763636 199.769218 
z
" clip-path="url(#p294f7f5267)" style="fill: #ffffff; stroke: #000000"/>
    <path d="M 90.763636 192.445632 
C 93.060363 192.445632 95.26333 191.533133 96.887361 189.909103 
C 98.511391 188.285072 99.42389 186.082104 99.42389 183.785378 
C 99.42389 181.488652 98.511391 179.285685 96.887361 177.661654 
C 95.26333 176.037623 93.060363 175.125124 90.763636 175.125124 
C 88.46691 175.125124 86.263943 176.037623 84.639912 177.661654 
C 83.015881 179.285685 82.103382 181.488652 82.103382 183.785378 
C 82.103382 186.082104 83.015881 188.285072 84.639912 189.909103 
C 86.263943 191.533133 88.46691 192.445632 90.763636 192.445632 
z
" clip-path="url(#p294f7f5267)" style="fill: #ffffff; stroke: #000000"/>
    <path d="M 90.763636 185.122047 
C 93.060363 185.122047 95.26333 184.209548 96.887361 182.585517 
C 98.511391 180.961486 99.42389 178.758519 99.42389 176.461793 
C 99.42389 174.165067 98.511391 171.962099 96.887361 170.338068 
C 95.26333 168.714038 93.060363 167.801539 90.763636 167.801539 
C 88.46691 167.801539 86.263943 168.714038 84.639912 170.338068 
C 83.015881 171.962099 82.103382 174.165067 82.103382 176.461793 
C 82.103382 178.758519 83.015881 180.961486 84.639912 182.585517 
C 86.263943 184.209548 88.46691 185.122047 90.763636 185.122047 
z
" clip-path="url(#p294f7f5267)" style="fill: #ffffff; stroke: #000000"/>
    <path d="M 116.152066 181.460254 
C 118.448792 181.460254 120.65176 180.547755 122.27579 178.923724 
C 123.899821 177.299694 124.81232 175.096726 124.81232 172.8 
C 124.81232 170.503274 123.899821 168.300306 122.27579 166.676276 
C 120.65176 165.052245 118.448792 164.139746 116.152066 164.139746 
C 113.85534 164.139746 111.652372 165.052245 110.028342 166.676276 
C 108.404311 168.300306 107.491812 170.503274 107.491812 172.8 
C 107.491812 175.096726 108.404311 177.299694 110.028342 178.923724 
C 111.652372 180.547755 113.85534 181.460254 116.152066 181.460254 
z
" clip-path="url(#p294f7f5267)" style="fill: #ffffff; stroke: #000000"/>
    <path d="M 116.152066 188.78384 
C 118.448792 188.78384 120.65176 187.871341 122.27579 186.24731 
C 123.899821 184.623279 124.81232 182.420312 124.81232 180.123586 
C 124.81232 177.826859 123.899821 175.623892 122.27579 173.999861 
C 120.65176 172.37583 118.448792 171.463331 116.152066 171.463331 
C 113.85534 171.463331 111.652372 172.37583 110.028342 173.999861 
C 108.404311 175.623892 107.491812 177.826859 107.491812 180.123586 
C 107.491812 182.420312 108.404311 184.623279 110.028342 186.24731 
C 111.652372 187.871341 113.85534 188.78384 116.152066 188.78384 
z
" clip-path="url(#p294f7f5267)" style="fill: #ffffff; stroke: #000000"/>
    <path d="M 116.152066 174.136669 
C 118.448792 174.136669 120.65176 173.22417 122.27579 171.600139 
C 123.899821 169.976108 124.81232 167.773141 124.81232 165.476414 
C 124.81232 163.179688 123.899821 160.976721 122.27579 159.35269 
C 120.65176 157.728659 118.448792 156.81616 116.152066 156.81616 
C 113.85534 156.81616 111.652372 157.728659 110.028342 159.35269 
C 108.404311 160.976721 107.491812 163.179688 107.491812 165.476414 
C 107.491812 167.773141 108.404311 169.976108 110.028342 171.600139 
C 111.652372 173.22417 113.85534 174.136669 116.152066 174.136669 
z
" clip-path="url(#p294f7f5267)" style="fill: #ffffff; stroke: #000000"/>
    <path d="M 141.540496 185.122047 
C 143.837222 185.122047 146.04019 184.209548 147.66422 182.585517 
C 149.288251 180.961486 150.20075 178.758519 150.20075 176.461793 
C 150.20075 174.165067 149.288251 171.962099 147.66422 170.338068 
C 146.04019 168.714038 143.837222 167.801539 141.540496 167.801539 
C 139.24377 167.801539 137.040802 168.714038 135.416772 170.338068 
C 133.792741 171.962099 132.880242 174.165067 132.880242 176.461793 
C 132.880242 178.758519 133.792741 180.961486 135.416772 182.585517 
C 137.040802 184.209548 139.24377 185.122047 141.540496 185.122047 
z
" clip-path="url(#p294f7f5267)" style="fill: #ffffff; stroke: #000000"/>
    <path d="M 141.540496 177.798461 
C 143.837222 177.798461 146.04019 176.885962 147.66422 175.261932 
C 149.288251 173.637901 150.20075 171.434933 150.20075 169.138207 
C 150.20075 166.841481 149.288251 164.638514 147.66422 163.014483 
C 146.04019 161.390452 143.837222 160.477953 141.540496 160.477953 
C 139.24377 160.477953 137.040802 161.390452 135.416772 163.014483 
C 133.792741 164.638514 132.880242 166.841481 132.880242 169.138207 
C 132.880242 171.434933 133.792741 173.637901 135.416772 175.261932 
C 137.040802 176.885962 139.24377 177.798461 141.540496 177.798461 
z
" clip-path="url(#p294f7f5267)" style="fill: #ffffff; stroke: #000000"/>
    <path d="M 166.928926 181.460254 
C 169.225652 181.460254 171.428619 180.547755 173.05265 178.923724 
C 174.676681 177.299694 175.58918 175.096726 175.58918 172.8 
C 175.58918 170.503274 174.676681 168.300306 173.05265 166.676276 
C 171.428619 165.052245 169.225652 164.139746 166.928926 164.139746 
C 164.632199 164.139746 162.429232 165.052245 160.805201 166.676276 
C 159.181171 168.300306 158.268672 170.503274 158.268672 172.8 
C 158.268672 175.096726 159.181171 177.299694 160.805201 178.923724 
C 162.429232 180.547755 164.632199 181.460254 166.928926 181.460254 
z
" clip-path="url(#p294f7f5267)" style="fill: #ffffff; stroke: #000000"/>
    <path d="M 192.317355 181.460254 
C 194.614082 181.460254 196.817049 180.547755 198.44108 178.923724 
C 200.06511 177.299694 200.977609 175.096726 200.977609 172.8 
C 200.977609 170.503274 200.06511 168.300306 198.44108 166.676276 
C 196.817049 165.052245 194.614082 164.139746 192.317355 164.139746 
C 190.020629 164.139746 187.817662 165.052245 186.193631 166.676276 
C 184.5696 168.300306 183.657101 170.503274 183.657101 172.8 
C 183.657101 175.096726 184.5696 177.299694 186.193631 178.923724 
C 187.817662 180.547755 190.020629 181.460254 192.317355 181.460254 
z
" clip-path="url(#p294f7f5267)" style="fill: #ffffff; stroke: #000000"/>
    <path d="M 217.705785 181.460254 
C 220.002511 181.460254 222.205479 180.547755 223.829509 178.923724 
C 225.45354 177.299694 226.366039 175.096726 226.366039 172.8 
C 226.366039 170.503274 225.45354 168.300306 223.829509 166.676276 
C 222.205479 165.052245 220.002511 164.139746 217.705785 164.139746 
C 215.409059 164.139746 213.206091 165.052245 211.582061 166.676276 
C 209.95803 168.300306 209.045531 170.503274 209.045531 172.8 
C 209.045531 175.096726 209.95803 177.299694 211.582061 178.923724 
C 213.206091 180.547755 215.409059 181.460254 217.705785 181.460254 
z
" clip-path="url(#p294f7f5267)" style="fill: #ffffff; stroke: #000000"/>
    <path d="M 243.094215 185.122047 
C 245.390941 185.122047 247.593909 184.209548 249.217939 182.585517 
C 250.84197 180.961486 251.754469 178.758519 251.754469 176.461793 
C 251.754469 174.165067 250.84197 171.962099 249.217939 170.338068 
C 247.593909 168.714038 245.390941 167.801539 243.094215 167.801539 
C 240.797489 167.801539 238.594521 168.714038 236.970491 170.338068 
C 235.34646 171.962099 234.433961 174.165067 234.433961 176.461793 
C 234.433961 178.758519 235.34646 180.961486 236.970491 182.585517 
C 238.594521 184.209548 240.797489 185.122047 243.094215 185.122047 
z
" clip-path="url(#p294f7f5267)" style="fill: #ffffff; stroke: #000000"/>
    <path d="M 243.094215 177.798461 
C 245.390941 177.798461 247.593909 176.885962 249.217939 175.261932 
C 250.84197 173.637901 251.754469 171.434933 251.754469 169.138207 
C 251.754469 166.841481 250.84197 164.638514 249.217939 163.014483 
C 247.593909 161.390452 245.390941 160.477953 243.094215 160.477953 
C 240.797489 160.477953 238.594521 161.390452 236.970491 163.014483 
C 235.34646 164.638514 234.433961 166.841481 234.433961 169.138207 
C 234.433961 171.434933 235.34646 173.637901 236.970491 175.261932 
C 238.594521 176.885962 240.797489 177.798461 243.094215 177.798461 
z
" clip-path="url(#p294f7f5267)" style="fill: #ffffff; stroke: #000000"/>
    <path d="M 268.482645 185.122047 
C 270.779371 185.122047 272.982338 184.209548 274.606369 182.585517 
C 276.2304 180.961486 277.142899 178.758519 277.142899 176.461793 
C 277.142899 174.165067 276.2304 171.962099 274.606369 170.338068 
C 272.982338 168.714038 270.779371 167.801539 268.482645 167.801539 
C 266.185918 167.801539 263.982951 168.714038 262.35892 170.338068 
C 260.73489 171.962099 259.822391 174.165067 259.822391 176.461793 
C 259.822391 178.758519 260.73489 180.961486 262.35892 182.585517 
C 263.982951 184.209548 266.185918 185.122047 268.482645 185.122047 
z
" clip-path="url(#p294f7f5267)" style="fill: #ffffff; stroke: #000000"/>
    <path d="M 268.482645 177.798461 
C 270.779371 177.798461 272.982338 176.885962 274.606369 175.261932 
C 276.2304 173.637901 277.142899 171.434933 277.142899 169.138207 
C 277.142899 166.841481 276.2304 164.638514 274.606369 163.014483 
C 272.982338 161.390452 270.779371 160.477953 268.482645 160.477953 
C 266.185918 160.477953 263.982951 161.390452 262.35892 163.014483 
C 260.73489 164.638514 259.822391 166.841481 259.822391 169.138207 
C 259.822391 171.434933 260.73489 173.637901 262.35892 175.261932 
C 263.982951 176.885962 266.185918 177.798461 268.482645 177.798461 
z
" clip-path="url(#p294f7f5267)" style="fill: #ffffff; stroke: #000000"/>
    <path d="M 293.871074 174.136669 
C 296.167801 174.136669 298.370768 173.22417 299.994799 171.600139 
C 301.618829 169.976108 302.531328 167.773141 302.531328 165.476414 
C 302.531328 163.179688 301.618829 160.976721 299.994799 159.35269 
C 298.370768 157.728659 296.167801 156.81616 293.871074 156.81616 
C 291.574348 156.81616 289.371381 157.728659 287.74735 159.35269 
C 286.123319 160.976721 285.21082 163.179688 285.21082 165.476414 
C 285.21082 167.773141 286.123319 169.976108 287.74735 171.600139 
C 289.371381 173.22417 291.574348 174.136669 293.871074 174.136669 
z
" clip-path="url(#p294f7f5267)" style="fill: #ffffff; stroke: #000000"/>
    <path d="M 293.871074 188.78384 
C 296.167801 188.78384 298.370768 187.871341 299.994799 186.24731 
C 301.618829 184.623279 302.531328 182.420312 302.531328 180.123586 
C 302.531328 177.826859 301.618829 175.623892 299.994799 173.999861 
C 298.370768 172.37583 296.167801 171.463331 293.871074 171.463331 
C 291.574348 171.463331 289.371381 172.37583 287.74735 173.999861 
C 286.123319 175.623892 285.21082 177.826859 285.21082 180.123586 
C 285.21082 182.420312 286.123319 184.623279 287.74735 186.24731 
C 289.371381 187.871341 291.574348 188.78384 293.871074 188.78384 
z
" clip-path="url(#p294f7f5267)" style="fill: #ffffff; stroke: #000000"/>
    <path d="M 293.871074 181.460254 
C 296.167801 181.460254 298.370768 180.547755 299.994799 178.923724 
C 301.618829 177.299694 302.531328 175.096726 302.531328 172.8 
C 302.531328 170.503274 301.618829 168.300306 299.994799 166.676276 
C 298.370768 165.052245 296.167801 164.139746 293.871074 164.139746 
C 291.574348 164.139746 289.371381 165.052245 287.74735 166.676276 
C 286.123319 168.300306 285.21082 170.503274 285.21082 172.8 
C 285.21082 175.096726 286.123319 177.299694 287.74735 178.923724 
C 289.371381 180.547755 291.574348 181.460254 293.871074 181.460254 
z
" clip-path="url(#p294f7f5267)" style="fill: #ffffff; stroke: #000000"/>
    <path d="M 319.259504 181.460254 
C 321.55623 181.460254 323.759198 180.547755 325.383228 178.923724 
C 327.007259 177.299694 327.919758 175.096726 327.919758 172.8 
C 327.919758 170.503274 327.007259 168.300306 325.383228 166.676276 
C 323.759198 165.052245 321.55623 164.139746 319.259504 164.139746 
C 316.962778 164.139746 314.75981 165.052245 313.13578 166.676276 
C 311.511749 168.300306 310.59925 170.503274 310.59925 172.8 
C 310.59925 175.096726 311.511749 177.299694 313.13578 178.923724 
C 314.75981 180.547755 316.962778 181.460254 319.259504 181.460254 
z
" clip-path="url(#p294f7f5267)" style="fill: #ffffff; stroke: #000000"/>
    <path d="M 344.647934 181.460254 
C 346.94466 181.460254 349.147628 180.547755 350.771658 178.923724 
C 352.395689 177.299694 353.308188 175.096726 353.308188 172.8 
C 353.308188 170.503274 352.395689 168.300306 350.771658 166.676276 
C 349.147628 165.052245 346.94466 164.139746 344.647934 164.139746 
C 342.351208 164.139746 340.14824 165.052245 338.52421 166.676276 
C 336.900179 168.300306 335.98768 170.503274 335.98768 172.8 
C 335.98768 175.096726 336.900179 177.299694 338.52421 178.923724 
C 340.14824 180.547755 342.351208 181.460254 344.647934 181.460254 
z
" clip-path="url(#p294f7f5267)" style="fill: #ffffff; stroke: #000000"/>
    <path d="M 370.036364 181.460254 
C 372.33309 181.460254 374.536057 180.547755 376.160088 178.923724 
C 377.784119 177.299694 378.696618 175.096726 378.696618 172.8 
C 378.696618 170.503274 377.784119 168.300306 376.160088 166.676276 
C 374.536057 165.052245 372.33309 164.139746 370.036364 164.139746 
C 367.739637 164.139746 365.53667 165.052245 363.912639 166.676276 
C 362.288609 168.300306 361.37611 170.503274 361.37611 172.8 
C 361.37611 175.096726 362.288609 177.299694 363.912639 178.923724 
C 365.53667 180.547755 367.739637 181.460254 370.036364 181.460254 
z
" clip-path="url(#p294f7f5267)" style="fill: #ffffff; stroke: #000000"/>
    <path d="M 395.424793 181.460254 
C 397.72152 181.460254 399.924487 180.547755 401.548518 178.923724 
C 403.172548 177.299694 404.085047 175.096726 404.085047 172.8 
C 404.085047 170.503274 403.172548 168.300306 401.548518 166.676276 
C 399.924487 165.052245 397.72152 164.139746 395.424793 164.139746 
C 393.128067 164.139746 390.9251 165.052245 389.301069 166.676276 
C 387.677038 168.300306 386.764539 170.503274 386.764539 172.8 
C 386.764539 175.096726 387.677038 177.299694 389.301069 178.923724 
C 390.9251 180.547755 393.128067 181.460254 395.424793 181.460254 
z
" clip-path="url(#p294f7f5267)" style="fill: #ffffff; stroke: #000000"/>
    <path d="M 420.813223 181.460254 
C 423.109949 181.460254 425.312917 180.547755 426.936947 178.923724 
C 428.560978 177.299694 429.473477 175.096726 429.473477 172.8 
C 429.473477 170.503274 428.560978 168.300306 426.936947 166.676276 
C 425.312917 165.052245 423.109949 164.139746 420.813223 164.139746 
C 418.516497 164.139746 416.313529 165.052245 414.689499 166.676276 
C 413.065468 168.300306 412.152969 170.503274 412.152969 172.8 
C 412.152969 175.096726 413.065468 177.299694 414.689499 178.923724 
C 416.313529 180.547755 418.516497 181.460254 420.813223 181.460254 
z
" clip-path="url(#p294f7f5267)" style="fill: #0000ff; stroke: #000000"/>
   </g>
  </g>
 </g>
 <defs>
  <clipPath id="p294f7f5267">
   <rect x="0" y="0" width="460.8" height="345.6"/>
  </clipPath>
 </defs>
</svg>
