<?xml version="1.0" encoding="utf-8" standalone="no"?>
<!DOCTYPE svg PUBLIC "-//W3C//DTD SVG 1.1//EN"
  "http://www.w3.org/Graphics/SVG/1.1/DTD/svg11.dtd">
<svg xmlns:xlink="http://www.w3.org/1999/xlink" width="460.8pt" height="345.6pt" viewBox="0 0 460.8 345.6" xmlns="http://www.w3.org/2000/svg" version="1.1">
 <metadata>
  <rdf:RDF xmlns:dc="http://purl.org/dc/elements/1.1/" xmlns:cc="http://creativecommons.org/ns#" xmlns:rdf="http://www.w3.org/1999/02/22-rdf-syntax-ns#">
   <cc:Work>
    <dc:type rdf:resource="http://purl.org/dc/dcmitype/StillImage"/>
    <dc:date>2025-11-06T06:53:46.957303</dc:date>
    <dc:format>image/svg+xml</dc:format>
    <dc:creator>
     <cc:Agent>
      <dc:title>Matplotlib v3.10.5, https://matplotlib.org/</dc:title>
     </cc:Agent>
    </dc:creator>
   </cc:Work>
  </rdf:RDF>
 </metadata>
 <defs>
  <style type="text/css">*{stroke-linejoin: round; stroke-linecap: butt}</style>
 </defs>
 <g id="figure_1">
  <g id="patch_1">
   <path d="M 0 345.6 
L 460.8 345.6 
L 460.8 0 
L 0 0 
z
" style="fill: #ffffff"/>
  </g>
  <g id="axes_1">
   <g id="patch_2">
    <path d="M 47.589316 311.463078 
Q 170.897634 244.203995 293.224436 177.480285 
" clip-path="url(#p52e049a0be)" style="fill: none; stroke: #4c4c4c; stroke-linecap: round"/>
    <path d="M 291.88365 177.52817 
L 293.224436 177.480285 
L 292.458272 178.581645 
" clip-path="url(#p52e049a0be)" style="fill: none; stroke: #4c4c4c; stroke-linecap: round"/>
   </g>
   <g id="patch_3">
    <path d="M 47.892938 286.116108 
Q 170.895133 231.222567 292.876353 176.784667 
" clip-path="url(#p52e049a0be)" style="fill: none; stroke: #4c4c4c; stroke-linecap: round"/>
    <path d="M 291.536005 176.7258 
L 292.876353 176.784667 
L 292.025051 177.821626 
" clip-path="url(#p52e049a0be)" style="fill: none; stroke: #4c4c4c; stroke-linecap: round"/>
   </g>
   <g id="patch_4">
    <path d="M 48.37906 261.542821 
Q 218.499394 218.239463 387.536244 175.211901 
" clip-path="url(#p52e049a0be)" style="fill: none; stroke: #4c4c4c; stroke-linecap: round"/>
    <path d="M 386.22532 174.926458 
L 387.536244 175.211901 
L 386.521335 176.089375 
" clip-path="url(#p52e049a0be)" style="fill: none; stroke: #4c4c4c; stroke-linecap: round"/>
   </g>
   <g id="patch_5">
    <path d="M 48.1646 260.840455 
Q 170.895866 218.23952 292.570917 176.005205 
" clip-path="url(#p52e049a0be)" style="fill: none; stroke: #4c4c4c; stroke-linecap: round"/>
    <path d="M 291.240519 175.831878 
L 292.570917 176.005205 
L 291.634017 176.965527 
" clip-path="url(#p52e049a0be)" style="fill: none; stroke: #4c4c4c; stroke-linecap: round"/>
   </g>
   <g id="patch_6">
    <path d="M 45.336483 256.870321 
Q 75.688073 218.241025 105.348918 180.490859 
" clip-path="url(#p52e049a0be)" style="fill: none; stroke: #4c4c4c; stroke-linecap: round"/>
    <path d="M 104.135741 181.063748 
L 105.348918 180.490859 
L 105.079323 181.805134 
" clip-path="url(#p52e049a0be)" style="fill: none; stroke: #4c4c4c; stroke-linecap: round"/>
   </g>
   <g id="patch_7">
    <path d="M 48.396312 235.62859 
Q 170.899456 205.25591 292.317422 175.152282 
" clip-path="url(#p52e049a0be)" style="fill: none; stroke: #4c4c4c; stroke-linecap: round"/>
    <path d="M 291.008298 174.858692 
L 292.317422 175.152282 
L 291.297076 176.023427 
" clip-path="url(#p52e049a0be)" style="fill: none; stroke: #4c4c4c; stroke-linecap: round"/>
   </g>
   <g id="patch_8">
    <path d="M 45.841309 231.326836 
Q 51.889042 224.72931 57.181292 218.955946 
" clip-path="url(#p52e049a0be)" style="fill: none; stroke: #4c4c4c; stroke-linecap: round"/>
    <path d="M 55.92813 219.435097 
L 57.181292 218.955946 
L 56.812714 220.245966 
" clip-path="url(#p52e049a0be)" style="fill: none; stroke: #4c4c4c; stroke-linecap: round"/>
   </g>
   <g id="patch_9">
    <path d="M 48.647998 211.748159 
Q 51.887888 211.748159 54.009744 211.748159 
" clip-path="url(#p52e049a0be)" style="fill: none; stroke: #4c4c4c; stroke-linecap: round"/>
    <path d="M 52.809744 211.148159 
L 54.009744 211.748159 
L 52.809744 212.348159 
" clip-path="url(#p52e049a0be)" style="fill: none; stroke: #4c4c4c; stroke-linecap: round"/>
   </g>
   <g id="patch_10">
    <path d="M 48.58662 210.705754 
Q 147.09428 198.765432 244.49203 186.959644 
" clip-path="url(#p52e049a0be)" style="fill: none; stroke: #4c4c4c; stroke-linecap: round"/>
    <path d="M 243.22855 186.508401 
L 244.49203 186.959644 
L 243.372948 187.699682 
" clip-path="url(#p52e049a0be)" style="fill: none; stroke: #4c4c4c; stroke-linecap: round"/>
   </g>
   <g id="patch_11">
    <path d="M 48.636013 185.353832 
Q 170.8958 179.291363 292.038924 173.284266 
" clip-path="url(#p52e049a0be)" style="fill: none; stroke: #4c4c4c; stroke-linecap: round"/>
    <path d="M 290.810681 172.744434 
L 292.038924 173.284266 
L 290.870112 173.942961 
" clip-path="url(#p52e049a0be)" style="fill: none; stroke: #4c4c4c; stroke-linecap: round"/>
   </g>
   <g id="patch_12">
    <path d="M 43.593924 177.91258 
Q 51.887304 159.817934 59.714849 142.739653 
" clip-path="url(#p52e049a0be)" style="fill: none; stroke: #4c4c4c; stroke-linecap: round"/>
    <path d="M 58.669425 143.580538 
L 59.714849 142.739653 
L 59.760302 144.080523 
" clip-path="url(#p52e049a0be)" style="fill: none; stroke: #4c4c4c; stroke-linecap: round"/>
   </g>
   <g id="patch_13">
    <path d="M 46.689708 165.301497 
Q 63.788531 179.291443 80.022043 192.573407 
" clip-path="url(#p52e049a0be)" style="fill: none; stroke: #4c4c4c; stroke-linecap: round"/>
    <path d="M 79.473237 191.349148 
L 80.022043 192.573407 
L 78.713352 192.277896 
" clip-path="url(#p52e049a0be)" style="fill: none; stroke: #4c4c4c; stroke-linecap: round"/>
   </g>
   <g id="patch_14">
    <path d="M 48.645456 133.851841 
Q 147.093563 133.851841 244.423636 133.851841 
" clip-path="url(#p52e049a0be)" style="fill: none; stroke: #4c4c4c; stroke-linecap: round"/>
    <path d="M 243.223636 133.251841 
L 244.423636 133.851841 
L 243.223636 134.451841 
" clip-path="url(#p52e049a0be)" style="fill: none; stroke: #4c4c4c; stroke-linecap: round"/>
   </g>
   <g id="patch_15">
    <path d="M 48.574998 134.932876 
Q 194.697358 153.3259 339.710436 171.579294 
" clip-path="url(#p52e049a0be)" style="fill: none; stroke: #4c4c4c; stroke-linecap: round"/>
    <path d="M 338.594765 170.834126 
L 339.710436 171.579294 
L 338.444898 172.02473 
" clip-path="url(#p52e049a0be)" style="fill: none; stroke: #4c4c4c; stroke-linecap: round"/>
   </g>
   <g id="patch_16">
    <path d="M 48.47367 135.587796 
Q 135.193756 153.325996 220.818488 170.840145 
" clip-path="url(#p52e049a0be)" style="fill: none; stroke: #4c4c4c; stroke-linecap: round"/>
    <path d="M 219.763068 170.011841 
L 220.818488 170.840145 
L 219.522593 171.187499 
" clip-path="url(#p52e049a0be)" style="fill: none; stroke: #4c4c4c; stroke-linecap: round"/>
   </g>
   <g id="patch_17">
    <path d="M 48.220167 136.546405 
Q 99.491747 153.326195 149.700751 169.758232 
" clip-path="url(#p52e049a0be)" style="fill: none; stroke: #4c4c4c; stroke-linecap: round"/>
    <path d="M 148.746897 168.814747 
L 149.700751 169.758232 
L 148.373651 169.955224 
" clip-path="url(#p52e049a0be)" style="fill: none; stroke: #4c4c4c; stroke-linecap: round"/>
   </g>
   <g id="patch_18">
    <path d="M 48.122471 110.844835 
Q 147.091482 146.833567 245.009773 182.440218 
" clip-path="url(#p52e049a0be)" style="fill: none; stroke: #4c4c4c; stroke-linecap: round"/>
    <path d="M 244.087067 181.46625 
L 245.009773 182.440218 
L 243.676975 182.594002 
" clip-path="url(#p52e049a0be)" style="fill: none; stroke: #4c4c4c; stroke-linecap: round"/>
   </g>
   <g id="patch_19">
    <path d="M 42.518899 116.173345 
Q 51.888579 146.837753 60.931549 176.432928 
" clip-path="url(#p52e049a0be)" style="fill: none; stroke: #4c4c4c; stroke-linecap: round"/>
    <path d="M 61.154698 175.109975 
L 60.931549 176.432928 
L 60.007076 175.460637 
" clip-path="url(#p52e049a0be)" style="fill: none; stroke: #4c4c4c; stroke-linecap: round"/>
   </g>
   <g id="patch_20">
    <path d="M 45.841309 114.273164 
Q 51.889042 120.87069 57.181292 126.644054 
" clip-path="url(#p52e049a0be)" style="fill: none; stroke: #4c4c4c; stroke-linecap: round"/>
    <path d="M 56.812714 125.354034 
L 57.181292 126.644054 
L 55.92813 126.164903 
" clip-path="url(#p52e049a0be)" style="fill: none; stroke: #4c4c4c; stroke-linecap: round"/>
   </g>
   <g id="patch_21">
    <path d="M 48.409749 83.930989 
Q 230.399388 127.360335 411.301529 170.530164 
" clip-path="url(#p52e049a0be)" style="fill: none; stroke: #4c4c4c; stroke-linecap: round"/>
    <path d="M 410.273575 169.668009 
L 411.301529 170.530164 
L 409.995033 170.835234 
" clip-path="url(#p52e049a0be)" style="fill: none; stroke: #4c4c4c; stroke-linecap: round"/>
   </g>
   <g id="patch_22">
    <path d="M 47.390291 86.40794 
Q 147.092769 146.833684 245.839106 206.679949 
" clip-path="url(#p52e049a0be)" style="fill: none; stroke: #4c4c4c; stroke-linecap: round"/>
    <path d="M 245.12385 205.544868 
L 245.839106 206.679949 
L 244.501888 206.571106 
" clip-path="url(#p52e049a0be)" style="fill: none; stroke: #4c4c4c; stroke-linecap: round"/>
   </g>
   <g id="patch_23">
    <path d="M 45.336483 88.729679 
Q 75.688073 127.358975 105.348918 165.109141 
" clip-path="url(#p52e049a0be)" style="fill: none; stroke: #4c4c4c; stroke-linecap: round"/>
    <path d="M 105.079323 163.794866 
L 105.348918 165.109141 
L 104.135741 164.536252 
" clip-path="url(#p52e049a0be)" style="fill: none; stroke: #4c4c4c; stroke-linecap: round"/>
   </g>
   <g id="patch_24">
    <path d="M 47.7996 85.649809 
Q 135.192069 127.359851 221.575533 168.588323 
" clip-path="url(#p52e049a0be)" style="fill: none; stroke: #4c4c4c; stroke-linecap: round"/>
    <path d="M 220.750994 167.529959 
L 221.575533 168.588323 
L 220.234118 168.612936 
" clip-path="url(#p52e049a0be)" style="fill: none; stroke: #4c4c4c; stroke-linecap: round"/>
   </g>
   <g id="patch_25">
    <path d="M 47.892938 59.483892 
Q 170.895133 114.377433 292.876353 168.815333 
" clip-path="url(#p52e049a0be)" style="fill: none; stroke: #4c4c4c; stroke-linecap: round"/>
    <path d="M 292.025051 167.778374 
L 292.876353 168.815333 
L 291.536005 168.8742 
" clip-path="url(#p52e049a0be)" style="fill: none; stroke: #4c4c4c; stroke-linecap: round"/>
   </g>
   <g id="patch_26">
    <path d="M 47.78253 59.735281 
Q 147.09433 107.886457 245.400108 155.549865 
" clip-path="url(#p52e049a0be)" style="fill: none; stroke: #4c4c4c; stroke-linecap: round"/>
    <path d="M 244.582095 154.486448 
L 245.400108 155.549865 
L 244.058567 155.566225 
" clip-path="url(#p52e049a0be)" style="fill: none; stroke: #4c4c4c; stroke-linecap: round"/>
   </g>
   <g id="patch_27">
    <path d="M 45.457787 62.669943 
Q 87.591182 114.37911 129.018346 165.221538 
" clip-path="url(#p52e049a0be)" style="fill: none; stroke: #4c4c4c; stroke-linecap: round"/>
    <path d="M 128.725479 163.912253 
L 129.018346 165.221538 
L 127.795197 164.67026 
" clip-path="url(#p52e049a0be)" style="fill: none; stroke: #4c4c4c; stroke-linecap: round"/>
   </g>
   <g id="patch_28">
    <path d="M 41.547743 38.504446 
Q 51.887206 94.901512 62.025055 150.198873 
" clip-path="url(#p52e049a0be)" style="fill: none; stroke: #4c4c4c; stroke-linecap: round"/>
    <path d="M 62.398825 148.910348 
L 62.025055 150.198873 
L 61.218498 149.126741 
" clip-path="url(#p52e049a0be)" style="fill: none; stroke: #4c4c4c; stroke-linecap: round"/>
   </g>
   <g id="patch_29">
    <path d="M 47.589316 34.136922 
Q 170.897634 101.396005 293.224436 168.119715 
" clip-path="url(#p52e049a0be)" style="fill: none; stroke: #4c4c4c; stroke-linecap: round"/>
    <path d="M 292.458272 167.018355 
L 293.224436 168.119715 
L 291.88365 168.07183 
" clip-path="url(#p52e049a0be)" style="fill: none; stroke: #4c4c4c; stroke-linecap: round"/>
   </g>
   <g id="patch_30">
    <path d="M 72.389 134.857102 
Q 230.398303 153.325722 387.297132 171.664546 
" clip-path="url(#p52e049a0be)" style="fill: none; stroke: #4c4c4c; stroke-linecap: round"/>
    <path d="M 386.174901 170.929292 
L 387.297132 171.664546 
L 386.03559 172.121178 
" clip-path="url(#p52e049a0be)" style="fill: none; stroke: #4c4c4c; stroke-linecap: round"/>
   </g>
   <g id="patch_31">
    <path d="M 72.357766 135.126618 
Q 194.698645 153.326088 315.933659 171.361048 
" clip-path="url(#p52e049a0be)" style="fill: none; stroke: #4c4c4c; stroke-linecap: round"/>
    <path d="M 314.835005 170.59101 
L 315.933659 171.361048 
L 314.658435 171.777948 
" clip-path="url(#p52e049a0be)" style="fill: none; stroke: #4c4c4c; stroke-linecap: round"/>
   </g>
   <g id="patch_32">
    <path d="M 71.392058 137.999275 
Q 75.688727 140.342912 79.003878 142.151176 
" clip-path="url(#p52e049a0be)" style="fill: none; stroke: #4c4c4c; stroke-linecap: round"/>
    <path d="M 78.237714 141.049816 
L 79.003878 142.151176 
L 77.663092 142.103291 
" clip-path="url(#p52e049a0be)" style="fill: none; stroke: #4c4c4c; stroke-linecap: round"/>
   </g>
   <g id="patch_33">
    <path d="M 72.449651 133.851841 
Q 158.99512 133.851841 244.422555 133.851841 
" clip-path="url(#p52e049a0be)" style="fill: none; stroke: #4c4c4c; stroke-linecap: round"/>
    <path d="M 243.222555 133.251841 
L 244.422555 133.851841 
L 243.222555 134.451841 
" clip-path="url(#p52e049a0be)" style="fill: none; stroke: #4c4c4c; stroke-linecap: round"/>
   </g>
   <g id="patch_34">
    <path d="M 68.304991 167.208017 
Q 75.688742 179.290519 82.489495 190.419023 
" clip-path="url(#p52e049a0be)" style="fill: none; stroke: #4c4c4c; stroke-linecap: round"/>
    <path d="M 82.375724 189.082214 
L 82.489495 190.419023 
L 81.351785 189.707954 
" clip-path="url(#p52e049a0be)" style="fill: none; stroke: #4c4c4c; stroke-linecap: round"/>
   </g>
   <g id="patch_35">
    <path d="M 72.439482 160.21051 
Q 206.598349 166.30864 339.640335 172.356003 
" clip-path="url(#p52e049a0be)" style="fill: none; stroke: #4c4c4c; stroke-linecap: round"/>
    <path d="M 338.468818 171.702133 
L 339.640335 172.356003 
L 338.414329 172.900895 
" clip-path="url(#p52e049a0be)" style="fill: none; stroke: #4c4c4c; stroke-linecap: round"/>
   </g>
   <g id="patch_36">
    <path d="M 68.304991 178.391983 
Q 75.688742 166.309481 82.489495 155.180977 
" clip-path="url(#p52e049a0be)" style="fill: none; stroke: #4c4c4c; stroke-linecap: round"/>
    <path d="M 81.351785 155.892046 
L 82.489495 155.180977 
L 82.375724 156.517786 
" clip-path="url(#p52e049a0be)" style="fill: none; stroke: #4c4c4c; stroke-linecap: round"/>
   </g>
   <g id="patch_37">
    <path d="M 71.392058 181.635286 
Q 75.688727 179.291649 79.003878 177.483384 
" clip-path="url(#p52e049a0be)" style="fill: none; stroke: #4c4c4c; stroke-linecap: round"/>
    <path d="M 77.663092 177.53127 
L 79.003878 177.483384 
L 78.237714 178.584744 
" clip-path="url(#p52e049a0be)" style="fill: none; stroke: #4c4c4c; stroke-linecap: round"/>
   </g>
   <g id="patch_38">
    <path d="M 72.334159 210.349767 
Q 182.796043 192.274186 292.154568 174.379155 
" clip-path="url(#p52e049a0be)" style="fill: none; stroke: #4c4c4c; stroke-linecap: round"/>
    <path d="M 290.873426 173.980816 
L 292.154568 174.379155 
L 291.067212 175.165066 
" clip-path="url(#p52e049a0be)" style="fill: none; stroke: #4c4c4c; stroke-linecap: round"/>
   </g>
   <g id="patch_39">
    <path d="M 96.189926 197.723034 
Q 194.697586 185.782712 292.095335 173.976924 
" clip-path="url(#p52e049a0be)" style="fill: none; stroke: #4c4c4c; stroke-linecap: round"/>
    <path d="M 290.831856 173.525681 
L 292.095335 173.976924 
L 290.976254 174.716962 
" clip-path="url(#p52e049a0be)" style="fill: none; stroke: #4c4c4c; stroke-linecap: round"/>
   </g>
   <g id="patch_40">
    <path d="M 95.726866 195.806609 
Q 123.292776 185.782642 149.807965 176.140755 
" clip-path="url(#p52e049a0be)" style="fill: none; stroke: #4c4c4c; stroke-linecap: round"/>
    <path d="M 148.475167 175.986971 
L 149.807965 176.140755 
L 148.885259 177.114723 
" clip-path="url(#p52e049a0be)" style="fill: none; stroke: #4c4c4c; stroke-linecap: round"/>
   </g>
   <g id="patch_41">
    <path d="M 96.226245 172.127052 
Q 170.896719 166.308574 244.452539 160.576951 
" clip-path="url(#p52e049a0be)" style="fill: none; stroke: #4c4c4c; stroke-linecap: round"/>
    <path d="M 243.209553 160.071989 
L 244.452539 160.576951 
L 243.302777 161.268362 
" clip-path="url(#p52e049a0be)" style="fill: none; stroke: #4c4c4c; stroke-linecap: round"/>
   </g>
   <g id="patch_42">
    <path d="M 96.251304 172.8 
Q 99.491194 172.8 101.61305 172.8 
" clip-path="url(#p52e049a0be)" style="fill: none; stroke: #4c4c4c; stroke-linecap: round"/>
    <path d="M 100.41305 172.2 
L 101.61305 172.8 
L 100.41305 173.4 
" clip-path="url(#p52e049a0be)" style="fill: none; stroke: #4c4c4c; stroke-linecap: round"/>
   </g>
   <g id="patch_43">
    <path d="M 96.226245 147.507508 
Q 170.896719 153.325987 244.452539 159.057609 
" clip-path="url(#p52e049a0be)" style="fill: none; stroke: #4c4c4c; stroke-linecap: round"/>
    <path d="M 243.302777 158.366198 
L 244.452539 159.057609 
L 243.209553 159.562572 
" clip-path="url(#p52e049a0be)" style="fill: none; stroke: #4c4c4c; stroke-linecap: round"/>
   </g>
   <g id="patch_44">
    <path d="M 120.052957 172.8 
Q 123.292847 172.8 125.414702 172.8 
" clip-path="url(#p52e049a0be)" style="fill: none; stroke: #4c4c4c; stroke-linecap: round"/>
    <path d="M 124.214702 172.2 
L 125.414702 172.8 
L 124.214702 173.4 
" clip-path="url(#p52e049a0be)" style="fill: none; stroke: #4c4c4c; stroke-linecap: round"/>
   </g>
   <g id="patch_45">
    <path d="M 119.746429 170.521447 
Q 182.794883 153.326414 244.764698 136.425556 
" clip-path="url(#p52e049a0be)" style="fill: none; stroke: #4c4c4c; stroke-linecap: round"/>
    <path d="M 243.449111 136.162438 
L 244.764698 136.425556 
L 243.764852 137.320155 
" clip-path="url(#p52e049a0be)" style="fill: none; stroke: #4c4c4c; stroke-linecap: round"/>
   </g>
   <g id="patch_46">
    <path d="M 143.85461 172.8 
Q 147.0945 172.8 149.216355 172.8 
" clip-path="url(#p52e049a0be)" style="fill: none; stroke: #4c4c4c; stroke-linecap: round"/>
    <path d="M 148.016355 172.2 
L 149.216355 172.8 
L 148.016355 173.4 
" clip-path="url(#p52e049a0be)" style="fill: none; stroke: #4c4c4c; stroke-linecap: round"/>
   </g>
   <g id="patch_47">
    <path d="M 167.656263 172.8 
Q 170.896153 172.8 173.018008 172.8 
" clip-path="url(#p52e049a0be)" style="fill: none; stroke: #4c4c4c; stroke-linecap: round"/>
    <path d="M 171.818008 172.2 
L 173.018008 172.8 
L 171.818008 173.4 
" clip-path="url(#p52e049a0be)" style="fill: none; stroke: #4c4c4c; stroke-linecap: round"/>
   </g>
   <g id="patch_48">
    <path d="M 167.011247 176.079357 
Q 206.597895 192.273895 245.149749 208.045108 
" clip-path="url(#p52e049a0be)" style="fill: none; stroke: #4c4c4c; stroke-linecap: round"/>
    <path d="M 244.266272 207.03542 
L 245.149749 208.045108 
L 243.811913 208.146076 
" clip-path="url(#p52e049a0be)" style="fill: none; stroke: #4c4c4c; stroke-linecap: round"/>
   </g>
   <g id="patch_49">
    <path d="M 191.457916 172.8 
Q 194.697805 172.8 196.819661 172.8 
" clip-path="url(#p52e049a0be)" style="fill: none; stroke: #4c4c4c; stroke-linecap: round"/>
    <path d="M 195.619661 172.2 
L 196.819661 172.8 
L 195.619661 173.4 
" clip-path="url(#p52e049a0be)" style="fill: none; stroke: #4c4c4c; stroke-linecap: round"/>
   </g>
   <g id="patch_50">
    <path d="M 214.951588 175.078157 
Q 230.401031 179.291641 244.771835 183.210951 
" clip-path="url(#p52e049a0be)" style="fill: none; stroke: #4c4c4c; stroke-linecap: round"/>
    <path d="M 243.771988 182.316352 
L 244.771835 183.210951 
L 243.456248 183.474069 
" clip-path="url(#p52e049a0be)" style="fill: none; stroke: #4c4c4c; stroke-linecap: round"/>
   </g>
   <g id="patch_51">
    <path d="M 215.259569 172.8 
Q 218.499458 172.8 220.621314 172.8 
" clip-path="url(#p52e049a0be)" style="fill: none; stroke: #4c4c4c; stroke-linecap: round"/>
    <path d="M 219.421314 172.2 
L 220.621314 172.8 
L 219.421314 173.4 
" clip-path="url(#p52e049a0be)" style="fill: none; stroke: #4c4c4c; stroke-linecap: round"/>
   </g>
   <g id="patch_52">
    <path d="M 215.259569 172.8 
Q 301.805037 172.8 387.232472 172.8 
" clip-path="url(#p52e049a0be)" style="fill: none; stroke: #4c4c4c; stroke-linecap: round"/>
    <path d="M 386.032472 172.2 
L 387.232472 172.8 
L 386.032472 173.4 
" clip-path="url(#p52e049a0be)" style="fill: none; stroke: #4c4c4c; stroke-linecap: round"/>
   </g>
   <g id="patch_53">
    <path d="M 238.003629 168.652566 
Q 242.300297 166.308929 245.615448 164.500665 
" clip-path="url(#p52e049a0be)" style="fill: none; stroke: #4c4c4c; stroke-linecap: round"/>
    <path d="M 244.274662 164.54855 
L 245.615448 164.500665 
L 244.849285 165.602025 
" clip-path="url(#p52e049a0be)" style="fill: none; stroke: #4c4c4c; stroke-linecap: round"/>
   </g>
   <g id="patch_54">
    <path d="M 234.916561 180.190737 
Q 242.300312 192.273239 249.101065 203.401742 
" clip-path="url(#p52e049a0be)" style="fill: none; stroke: #4c4c4c; stroke-linecap: round"/>
    <path d="M 248.987294 202.064934 
L 249.101065 203.401742 
L 247.963356 202.690674 
" clip-path="url(#p52e049a0be)" style="fill: none; stroke: #4c4c4c; stroke-linecap: round"/>
   </g>
   <g id="patch_55">
    <path d="M 234.916561 165.409263 
Q 242.300312 153.326761 249.101065 142.198258 
" clip-path="url(#p52e049a0be)" style="fill: none; stroke: #4c4c4c; stroke-linecap: round"/>
    <path d="M 247.963356 142.909326 
L 249.101065 142.198258 
L 248.987294 143.535066 
" clip-path="url(#p52e049a0be)" style="fill: none; stroke: #4c4c4c; stroke-linecap: round"/>
   </g>
   <g id="patch_56">
    <path d="M 238.003629 176.947434 
Q 242.300297 179.291071 245.615448 181.099335 
" clip-path="url(#p52e049a0be)" style="fill: none; stroke: #4c4c4c; stroke-linecap: round"/>
    <path d="M 244.849285 179.997975 
L 245.615448 181.099335 
L 244.274662 181.05145 
" clip-path="url(#p52e049a0be)" style="fill: none; stroke: #4c4c4c; stroke-linecap: round"/>
   </g>
   <g id="patch_57">
    <path d="M 260.904584 206.263943 
Q 278.003407 192.273997 294.23692 178.992032 
" clip-path="url(#p52e049a0be)" style="fill: none; stroke: #4c4c4c; stroke-linecap: round"/>
    <path d="M 292.928228 179.287543 
L 294.23692 178.992032 
L 293.688113 180.216292 
" clip-path="url(#p52e049a0be)" style="fill: none; stroke: #4c4c4c; stroke-linecap: round"/>
   </g>
   <g id="patch_58">
    <path d="M 262.556347 209.469606 
Q 325.604801 192.274574 387.574616 175.373715 
" clip-path="url(#p52e049a0be)" style="fill: none; stroke: #4c4c4c; stroke-linecap: round"/>
    <path d="M 386.259029 175.110597 
L 387.574616 175.373715 
L 386.57477 176.268314 
" clip-path="url(#p52e049a0be)" style="fill: none; stroke: #4c4c4c; stroke-linecap: round"/>
   </g>
   <g id="patch_59">
    <path d="M 262.554894 183.504563 
Q 278.004337 179.291079 292.37514 175.371769 
" clip-path="url(#p52e049a0be)" style="fill: none; stroke: #4c4c4c; stroke-linecap: round"/>
    <path d="M 291.059553 175.108651 
L 292.37514 175.371769 
L 291.375294 176.266368 
" clip-path="url(#p52e049a0be)" style="fill: none; stroke: #4c4c4c; stroke-linecap: round"/>
   </g>
   <g id="patch_60">
    <path d="M 262.781521 184.612738 
Q 301.80559 179.291274 339.721876 174.120871 
" clip-path="url(#p52e049a0be)" style="fill: none; stroke: #4c4c4c; stroke-linecap: round"/>
    <path d="M 338.451812 173.688509 
L 339.721876 174.120871 
L 338.613948 174.877505 
" clip-path="url(#p52e049a0be)" style="fill: none; stroke: #4c4c4c; stroke-linecap: round"/>
   </g>
   <g id="patch_61">
    <path d="M 258.718214 141.242577 
Q 266.101965 153.325079 272.902718 164.453583 
" clip-path="url(#p52e049a0be)" style="fill: none; stroke: #4c4c4c; stroke-linecap: round"/>
    <path d="M 272.788947 163.116775 
L 272.902718 164.453583 
L 271.765009 163.742515 
" clip-path="url(#p52e049a0be)" style="fill: none; stroke: #4c4c4c; stroke-linecap: round"/>
   </g>
   <g id="patch_62">
    <path d="M 262.435043 136.546405 
Q 313.706623 153.326195 363.915627 169.758232 
" clip-path="url(#p52e049a0be)" style="fill: none; stroke: #4c4c4c; stroke-linecap: round"/>
    <path d="M 362.961774 168.814747 
L 363.915627 169.758232 
L 362.588527 169.955224 
" clip-path="url(#p52e049a0be)" style="fill: none; stroke: #4c4c4c; stroke-linecap: round"/>
   </g>
   <g id="patch_63">
    <path d="M 286.664527 172.8 
Q 289.904417 172.8 292.026273 172.8 
" clip-path="url(#p52e049a0be)" style="fill: none; stroke: #4c4c4c; stroke-linecap: round"/>
    <path d="M 290.826273 172.2 
L 292.026273 172.8 
L 290.826273 173.4 
" clip-path="url(#p52e049a0be)" style="fill: none; stroke: #4c4c4c; stroke-linecap: round"/>
   </g>
   <g id="patch_64">
    <path d="M 310.46618 172.8 
Q 313.70607 172.8 315.827926 172.8 
" clip-path="url(#p52e049a0be)" style="fill: none; stroke: #4c4c4c; stroke-linecap: round"/>
    <path d="M 314.627926 172.2 
L 315.827926 172.8 
L 314.627926 173.4 
" clip-path="url(#p52e049a0be)" style="fill: none; stroke: #4c4c4c; stroke-linecap: round"/>
   </g>
   <g id="patch_65">
    <path d="M 310.466907 172.8 
Q 361.311141 172.8 411.037341 172.8 
" clip-path="url(#p52e049a0be)" style="fill: none; stroke: #4c4c4c; stroke-linecap: round"/>
    <path d="M 409.837341 172.2 
L 411.037341 172.8 
L 409.837341 173.4 
" clip-path="url(#p52e049a0be)" style="fill: none; stroke: #4c4c4c; stroke-linecap: round"/>
   </g>
   <g id="patch_66">
    <path d="M 334.267833 172.8 
Q 337.507723 172.8 339.629578 172.8 
" clip-path="url(#p52e049a0be)" style="fill: none; stroke: #4c4c4c; stroke-linecap: round"/>
    <path d="M 338.429578 172.2 
L 339.629578 172.8 
L 338.429578 173.4 
" clip-path="url(#p52e049a0be)" style="fill: none; stroke: #4c4c4c; stroke-linecap: round"/>
   </g>
   <g id="patch_67">
    <path d="M 358.069486 172.8 
Q 361.309376 172.8 363.431231 172.8 
" clip-path="url(#p52e049a0be)" style="fill: none; stroke: #4c4c4c; stroke-linecap: round"/>
    <path d="M 362.231231 172.2 
L 363.431231 172.8 
L 362.231231 173.4 
" clip-path="url(#p52e049a0be)" style="fill: none; stroke: #4c4c4c; stroke-linecap: round"/>
   </g>
   <g id="patch_68">
    <path d="M 381.871139 172.8 
Q 385.111029 172.8 387.232884 172.8 
" clip-path="url(#p52e049a0be)" style="fill: none; stroke: #4c4c4c; stroke-linecap: round"/>
    <path d="M 386.032884 172.2 
L 387.232884 172.8 
L 386.032884 173.4 
" clip-path="url(#p52e049a0be)" style="fill: none; stroke: #4c4c4c; stroke-linecap: round"/>
   </g>
   <g id="patch_69">
    <path d="M 405.672792 172.8 
Q 408.912681 172.8 411.034537 172.8 
" clip-path="url(#p52e049a0be)" style="fill: none; stroke: #4c4c4c; stroke-linecap: round"/>
    <path d="M 409.834537 172.2 
L 411.034537 172.8 
L 409.834537 173.4 
" clip-path="url(#p52e049a0be)" style="fill: none; stroke: #4c4c4c; stroke-linecap: round"/>
   </g>
   <g id="PathCollection_1">
    <path d="M 39.986777 324.270171 
C 42.283503 324.270171 44.486471 323.357672 46.110501 321.733642 
C 47.734532 320.109611 48.647031 317.906644 48.647031 315.609917 
C 48.647031 313.313191 47.734532 311.110224 46.110501 309.486193 
C 44.486471 307.862162 42.283503 306.949663 39.986777 306.949663 
C 37.690051 306.949663 35.487083 307.862162 33.863053 309.486193 
C 32.239022 311.110224 31.326523 313.313191 31.326523 315.609917 
C 31.326523 317.906644 32.239022 320.109611 33.863053 321.733642 
C 35.487083 323.357672 37.690051 324.270171 39.986777 324.270171 
z
" clip-path="url(#p52e049a0be)" style="fill: #ffff00; stroke: #000000"/>
    <path d="M 39.986777 298.304732 
C 42.283503 298.304732 44.486471 297.392233 46.110501 295.768202 
C 47.734532 294.144172 48.647031 291.941204 48.647031 289.644478 
C 48.647031 287.347752 47.734532 285.144784 46.110501 283.520753 
C 44.486471 281.896723 42.283503 280.984224 39.986777 280.984224 
C 37.690051 280.984224 35.487083 281.896723 33.863053 283.520753 
C 32.239022 285.144784 31.326523 287.347752 31.326523 289.644478 
C 31.326523 291.941204 32.239022 294.144172 33.863053 295.768202 
C 35.487083 297.392233 37.690051 298.304732 39.986777 298.304732 
z
" clip-path="url(#p52e049a0be)" style="fill: #ffff00; stroke: #000000"/>
    <path d="M 39.986777 272.339292 
C 42.283503 272.339292 44.486471 271.426793 46.110501 269.802763 
C 47.734532 268.178732 48.647031 265.975765 48.647031 263.679038 
C 48.647031 261.382312 47.734532 259.179345 46.110501 257.555314 
C 44.486471 255.931283 42.283503 255.018784 39.986777 255.018784 
C 37.690051 255.018784 35.487083 255.931283 33.863053 257.555314 
C 32.239022 259.179345 31.326523 261.382312 31.326523 263.679038 
C 31.326523 265.975765 32.239022 268.178732 33.863053 269.802763 
C 35.487083 271.426793 37.690051 272.339292 39.986777 272.339292 
z
" clip-path="url(#p52e049a0be)" style="fill: #ffff00; stroke: #000000"/>
    <path d="M 39.986777 246.373853 
C 42.283503 246.373853 44.486471 245.461354 46.110501 243.837323 
C 47.734532 242.213292 48.647031 240.010325 48.647031 237.713599 
C 48.647031 235.416873 47.734532 233.213905 46.110501 231.589874 
C 44.486471 229.965844 42.283503 229.053345 39.986777 229.053345 
C 37.690051 229.053345 35.487083 229.965844 33.863053 231.589874 
C 32.239022 233.213905 31.326523 235.416873 31.326523 237.713599 
C 31.326523 240.010325 32.239022 242.213292 33.863053 243.837323 
C 35.487083 245.461354 37.690051 246.373853 39.986777 246.373853 
z
" clip-path="url(#p52e049a0be)" style="fill: #ffff00; stroke: #000000"/>
    <path d="M 39.986777 220.408413 
C 42.283503 220.408413 44.486471 219.495914 46.110501 217.871884 
C 47.734532 216.247853 48.647031 214.044885 48.647031 211.748159 
C 48.647031 209.451433 47.734532 207.248466 46.110501 205.624435 
C 44.486471 204.000404 42.283503 203.087905 39.986777 203.087905 
C 37.690051 203.087905 35.487083 204.000404 33.863053 205.624435 
C 32.239022 207.248466 31.326523 209.451433 31.326523 211.748159 
C 31.326523 214.044885 32.239022 216.247853 33.863053 217.871884 
C 35.487083 219.495914 37.690051 220.408413 39.986777 220.408413 
z
" clip-path="url(#p52e049a0be)" style="fill: #ffff00; stroke: #000000"/>
    <path d="M 39.986777 194.442974 
C 42.283503 194.442974 44.486471 193.530475 46.110501 191.906444 
C 47.734532 190.282413 48.647031 188.079446 48.647031 185.78272 
C 48.647031 183.485994 47.734532 181.283026 46.110501 179.658995 
C 44.486471 178.034965 42.283503 177.122466 39.986777 177.122466 
C 37.690051 177.122466 35.487083 178.034965 33.863053 179.658995 
C 32.239022 181.283026 31.326523 183.485994 31.326523 185.78272 
C 31.326523 188.079446 32.239022 190.282413 33.863053 191.906444 
C 35.487083 193.530475 37.690051 194.442974 39.986777 194.442974 
z
" clip-path="url(#p52e049a0be)" style="fill: #ffff00; stroke: #000000"/>
    <path d="M 39.986777 168.477534 
C 42.283503 168.477534 44.486471 167.565035 46.110501 165.941005 
C 47.734532 164.316974 48.647031 162.114006 48.647031 159.81728 
C 48.647031 157.520554 47.734532 155.317587 46.110501 153.693556 
C 44.486471 152.069525 42.283503 151.157026 39.986777 151.157026 
C 37.690051 151.157026 35.487083 152.069525 33.863053 153.693556 
C 32.239022 155.317587 31.326523 157.520554 31.326523 159.81728 
C 31.326523 162.114006 32.239022 164.316974 33.863053 165.941005 
C 35.487083 167.565035 37.690051 168.477534 39.986777 168.477534 
z
" clip-path="url(#p52e049a0be)" style="fill: #ffff00; stroke: #000000"/>
    <path d="M 39.986777 142.512095 
C 42.283503 142.512095 44.486471 141.599596 46.110501 139.975565 
C 47.734532 138.351534 48.647031 136.148567 48.647031 133.851841 
C 48.647031 131.555115 47.734532 129.352147 46.110501 127.728116 
C 44.486471 126.104086 42.283503 125.191587 39.986777 125.191587 
C 37.690051 125.191587 35.487083 126.104086 33.863053 127.728116 
C 32.239022 129.352147 31.326523 131.555115 31.326523 133.851841 
C 31.326523 136.148567 32.239022 138.351534 33.863053 139.975565 
C 35.487083 141.599596 37.690051 142.512095 39.986777 142.512095 
z
" clip-path="url(#p52e049a0be)" style="fill: #ffff00; stroke: #000000"/>
    <path d="M 39.986777 116.546655 
C 42.283503 116.546655 44.486471 115.634156 46.110501 114.010126 
C 47.734532 112.386095 48.647031 110.183127 48.647031 107.886401 
C 48.647031 105.589675 47.734532 103.386708 46.110501 101.762677 
C 44.486471 100.138646 42.283503 99.226147 39.986777 99.226147 
C 37.690051 99.226147 35.487083 100.138646 33.863053 101.762677 
C 32.239022 103.386708 31.326523 105.589675 31.326523 107.886401 
C 31.326523 110.183127 32.239022 112.386095 33.863053 114.010126 
C 35.487083 115.634156 37.690051 116.546655 39.986777 116.546655 
z
" clip-path="url(#p52e049a0be)" style="fill: #ffff00; stroke: #000000"/>
    <path d="M 39.986777 90.581216 
C 42.283503 90.581216 44.486471 89.668717 46.110501 88.044686 
C 47.734532 86.420655 48.647031 84.217688 48.647031 81.920962 
C 48.647031 79.624235 47.734532 77.421268 46.110501 75.797237 
C 44.486471 74.173207 42.283503 73.260708 39.986777 73.260708 
C 37.690051 73.260708 35.487083 74.173207 33.863053 75.797237 
C 32.239022 77.421268 31.326523 79.624235 31.326523 81.920962 
C 31.326523 84.217688 32.239022 86.420655 33.863053 88.044686 
C 35.487083 89.668717 37.690051 90.581216 39.986777 90.581216 
z
" clip-path="url(#p52e049a0be)" style="fill: #ffff00; stroke: #000000"/>
    <path d="M 39.986777 64.615776 
C 42.283503 64.615776 44.486471 63.703277 46.110501 62.079247 
C 47.734532 60.455216 48.647031 58.252248 48.647031 55.955522 
C 48.647031 53.658796 47.734532 51.455828 46.110501 49.831798 
C 44.486471 48.207767 42.283503 47.295268 39.986777 47.295268 
C 37.690051 47.295268 35.487083 48.207767 33.863053 49.831798 
C 32.239022 51.455828 31.326523 53.658796 31.326523 55.955522 
C 31.326523 58.252248 32.239022 60.455216 33.863053 62.079247 
C 35.487083 63.703277 37.690051 64.615776 39.986777 64.615776 
z
" clip-path="url(#p52e049a0be)" style="fill: #ffff00; stroke: #000000"/>
    <path d="M 39.986777 38.650337 
C 42.283503 38.650337 44.486471 37.737838 46.110501 36.113807 
C 47.734532 34.489776 48.647031 32.286809 48.647031 29.990083 
C 48.647031 27.693356 47.734532 25.490389 46.110501 23.866358 
C 44.486471 22.242328 42.283503 21.329829 39.986777 21.329829 
C 37.690051 21.329829 35.487083 22.242328 33.863053 23.866358 
C 32.239022 25.490389 31.326523 27.693356 31.326523 29.990083 
C 31.326523 32.286809 32.239022 34.489776 33.863053 36.113807 
C 35.487083 37.737838 37.690051 38.650337 39.986777 38.650337 
z
" clip-path="url(#p52e049a0be)" style="fill: #ffff00; stroke: #000000"/>
    <path d="M 63.78843 142.512095 
C 66.085156 142.512095 68.288123 141.599596 69.912154 139.975565 
C 71.536185 138.351534 72.448684 136.148567 72.448684 133.851841 
C 72.448684 131.555115 71.536185 129.352147 69.912154 127.728116 
C 68.288123 126.104086 66.085156 125.191587 63.78843 125.191587 
C 61.491704 125.191587 59.288736 126.104086 57.664705 127.728116 
C 56.040675 129.352147 55.128176 131.555115 55.128176 133.851841 
C 55.128176 136.148567 56.040675 138.351534 57.664705 139.975565 
C 59.288736 141.599596 61.491704 142.512095 63.78843 142.512095 
z
" clip-path="url(#p52e049a0be)" style="fill: #ffffff; stroke: #000000"/>
    <path d="M 63.78843 168.477534 
C 66.085156 168.477534 68.288123 167.565035 69.912154 165.941005 
C 71.536185 164.316974 72.448684 162.114006 72.448684 159.81728 
C 72.448684 157.520554 71.536185 155.317587 69.912154 153.693556 
C 68.288123 152.069525 66.085156 151.157026 63.78843 151.157026 
C 61.491704 151.157026 59.288736 152.069525 57.664705 153.693556 
C 56.040675 155.317587 55.128176 157.520554 55.128176 159.81728 
C 55.128176 162.114006 56.040675 164.316974 57.664705 165.941005 
C 59.288736 167.565035 61.491704 168.477534 63.78843 168.477534 
z
" clip-path="url(#p52e049a0be)" style="fill: #ffffff; stroke: #000000"/>
    <path d="M 63.78843 194.442974 
C 66.085156 194.442974 68.288123 193.530475 69.912154 191.906444 
C 71.536185 190.282413 72.448684 188.079446 72.448684 185.78272 
C 72.448684 183.485994 71.536185 181.283026 69.912154 179.658995 
C 68.288123 178.034965 66.085156 177.122466 63.78843 177.122466 
C 61.491704 177.122466 59.288736 178.034965 57.664705 179.658995 
C 56.040675 181.283026 55.128176 183.485994 55.128176 185.78272 
C 55.128176 188.079446 56.040675 190.282413 57.664705 191.906444 
C 59.288736 193.530475 61.491704 194.442974 63.78843 194.442974 
z
" clip-path="url(#p52e049a0be)" style="fill: #ffffff; stroke: #000000"/>
    <path d="M 63.78843 220.408413 
C 66.085156 220.408413 68.288123 219.495914 69.912154 217.871884 
C 71.536185 216.247853 72.448684 214.044885 72.448684 211.748159 
C 72.448684 209.451433 71.536185 207.248466 69.912154 205.624435 
C 68.288123 204.000404 66.085156 203.087905 63.78843 203.087905 
C 61.491704 203.087905 59.288736 204.000404 57.664705 205.624435 
C 56.040675 207.248466 55.128176 209.451433 55.128176 211.748159 
C 55.128176 214.044885 56.040675 216.247853 57.664705 217.871884 
C 59.288736 219.495914 61.491704 220.408413 63.78843 220.408413 
z
" clip-path="url(#p52e049a0be)" style="fill: #ffffff; stroke: #000000"/>
    <path d="M 87.590083 207.425694 
C 89.886809 207.425694 92.089776 206.513195 93.713807 204.889164 
C 95.337838 203.265133 96.250337 201.062166 96.250337 198.76544 
C 96.250337 196.468713 95.337838 194.265746 93.713807 192.641715 
C 92.089776 191.017684 89.886809 190.105185 87.590083 190.105185 
C 85.293356 190.105185 83.090389 191.017684 81.466358 192.641715 
C 79.842328 194.265746 78.929829 196.468713 78.929829 198.76544 
C 78.929829 201.062166 79.842328 203.265133 81.466358 204.889164 
C 83.090389 206.513195 85.293356 207.425694 87.590083 207.425694 
z
" clip-path="url(#p52e049a0be)" style="fill: #ffffff; stroke: #000000"/>
    <path d="M 87.590083 181.460254 
C 89.886809 181.460254 92.089776 180.547755 93.713807 178.923724 
C 95.337838 177.299694 96.250337 175.096726 96.250337 172.8 
C 96.250337 170.503274 95.337838 168.300306 93.713807 166.676276 
C 92.089776 165.052245 89.886809 164.139746 87.590083 164.139746 
C 85.293356 164.139746 83.090389 165.052245 81.466358 166.676276 
C 79.842328 168.300306 78.929829 170.503274 78.929829 172.8 
C 78.929829 175.096726 79.842328 177.299694 81.466358 178.923724 
C 83.090389 180.547755 85.293356 181.460254 87.590083 181.460254 
z
" clip-path="url(#p52e049a0be)" style="fill: #ffffff; stroke: #000000"/>
    <path d="M 87.590083 155.494815 
C 89.886809 155.494815 92.089776 154.582316 93.713807 152.958285 
C 95.337838 151.334254 96.250337 149.131287 96.250337 146.83456 
C 96.250337 144.537834 95.337838 142.334867 93.713807 140.710836 
C 92.089776 139.086805 89.886809 138.174306 87.590083 138.174306 
C 85.293356 138.174306 83.090389 139.086805 81.466358 140.710836 
C 79.842328 142.334867 78.929829 144.537834 78.929829 146.83456 
C 78.929829 149.131287 79.842328 151.334254 81.466358 152.958285 
C 83.090389 154.582316 85.293356 155.494815 87.590083 155.494815 
z
" clip-path="url(#p52e049a0be)" style="fill: #ffffff; stroke: #000000"/>
    <path d="M 111.391736 181.460254 
C 113.688462 181.460254 115.891429 180.547755 117.51546 178.923724 
C 119.139491 177.299694 120.05199 175.096726 120.05199 172.8 
C 120.05199 170.503274 119.139491 168.300306 117.51546 166.676276 
C 115.891429 165.052245 113.688462 164.139746 111.391736 164.139746 
C 109.095009 164.139746 106.892042 165.052245 105.268011 166.676276 
C 103.64398 168.300306 102.731481 170.503274 102.731481 172.8 
C 102.731481 175.096726 103.64398 177.299694 105.268011 178.923724 
C 106.892042 180.547755 109.095009 181.460254 111.391736 181.460254 
z
" clip-path="url(#p52e049a0be)" style="fill: #ffffff; stroke: #000000"/>
    <path d="M 135.193388 181.460254 
C 137.490115 181.460254 139.693082 180.547755 141.317113 178.923724 
C 142.941143 177.299694 143.853642 175.096726 143.853642 172.8 
C 143.853642 170.503274 142.941143 168.300306 141.317113 166.676276 
C 139.693082 165.052245 137.490115 164.139746 135.193388 164.139746 
C 132.896662 164.139746 130.693695 165.052245 129.069664 166.676276 
C 127.445633 168.300306 126.533134 170.503274 126.533134 172.8 
C 126.533134 175.096726 127.445633 177.299694 129.069664 178.923724 
C 130.693695 180.547755 132.896662 181.460254 135.193388 181.460254 
z
" clip-path="url(#p52e049a0be)" style="fill: #ffffff; stroke: #000000"/>
    <path d="M 158.995041 181.460254 
C 161.291768 181.460254 163.494735 180.547755 165.118766 178.923724 
C 166.742796 177.299694 167.655295 175.096726 167.655295 172.8 
C 167.655295 170.503274 166.742796 168.300306 165.118766 166.676276 
C 163.494735 165.052245 161.291768 164.139746 158.995041 164.139746 
C 156.698315 164.139746 154.495348 165.052245 152.871317 166.676276 
C 151.247286 168.300306 150.334787 170.503274 150.334787 172.8 
C 150.334787 175.096726 151.247286 177.299694 152.871317 178.923724 
C 154.495348 180.547755 156.698315 181.460254 158.995041 181.460254 
z
" clip-path="url(#p52e049a0be)" style="fill: #ffffff; stroke: #000000"/>
    <path d="M 182.796694 181.460254 
C 185.09342 181.460254 187.296388 180.547755 188.920419 178.923724 
C 190.544449 177.299694 191.456948 175.096726 191.456948 172.8 
C 191.456948 170.503274 190.544449 168.300306 188.920419 166.676276 
C 187.296388 165.052245 185.09342 164.139746 182.796694 164.139746 
C 180.499968 164.139746 178.297001 165.052245 176.67297 166.676276 
C 175.048939 168.300306 174.13644 170.503274 174.13644 172.8 
C 174.13644 175.096726 175.048939 177.299694 176.67297 178.923724 
C 178.297001 180.547755 180.499968 181.460254 182.796694 181.460254 
z
" clip-path="url(#p52e049a0be)" style="fill: #ffffff; stroke: #000000"/>
    <path d="M 206.598347 181.460254 
C 208.895073 181.460254 211.098041 180.547755 212.722071 178.923724 
C 214.346102 177.299694 215.258601 175.096726 215.258601 172.8 
C 215.258601 170.503274 214.346102 168.300306 212.722071 166.676276 
C 211.098041 165.052245 208.895073 164.139746 206.598347 164.139746 
C 204.301621 164.139746 202.098653 165.052245 200.474623 166.676276 
C 198.850592 168.300306 197.938093 170.503274 197.938093 172.8 
C 197.938093 175.096726 198.850592 177.299694 200.474623 178.923724 
C 202.098653 180.547755 204.301621 181.460254 206.598347 181.460254 
z
" clip-path="url(#p52e049a0be)" style="fill: #ffffff; stroke: #000000"/>
    <path d="M 230.4 181.460254 
C 232.696726 181.460254 234.899694 180.547755 236.523724 178.923724 
C 238.147755 177.299694 239.060254 175.096726 239.060254 172.8 
C 239.060254 170.503274 238.147755 168.300306 236.523724 166.676276 
C 234.899694 165.052245 232.696726 164.139746 230.4 164.139746 
C 228.103274 164.139746 225.900306 165.052245 224.276276 166.676276 
C 222.652245 168.300306 221.739746 170.503274 221.739746 172.8 
C 221.739746 175.096726 222.652245 177.299694 224.276276 178.923724 
C 225.900306 180.547755 228.103274 181.460254 230.4 181.460254 
z
" clip-path="url(#p52e049a0be)" style="fill: #ffffff; stroke: #000000"/>
    <path d="M 254.201653 220.408413 
C 256.498379 220.408413 258.701347 219.495914 260.325377 217.871884 
C 261.949408 216.247853 262.861907 214.044885 262.861907 211.748159 
C 262.861907 209.451433 261.949408 207.248466 260.325377 205.624435 
C 258.701347 204.000404 256.498379 203.087905 254.201653 203.087905 
C 251.904927 203.087905 249.701959 204.000404 248.077929 205.624435 
C 246.453898 207.248466 245.541399 209.451433 245.541399 211.748159 
C 245.541399 214.044885 246.453898 216.247853 248.077929 217.871884 
C 249.701959 219.495914 251.904927 220.408413 254.201653 220.408413 
z
" clip-path="url(#p52e049a0be)" style="fill: #ffffff; stroke: #000000"/>
    <path d="M 254.201653 194.442974 
C 256.498379 194.442974 258.701347 193.530475 260.325377 191.906444 
C 261.949408 190.282413 262.861907 188.079446 262.861907 185.78272 
C 262.861907 183.485994 261.949408 181.283026 260.325377 179.658995 
C 258.701347 178.034965 256.498379 177.122466 254.201653 177.122466 
C 251.904927 177.122466 249.701959 178.034965 248.077929 179.658995 
C 246.453898 181.283026 245.541399 183.485994 245.541399 185.78272 
C 245.541399 188.079446 246.453898 190.282413 248.077929 191.906444 
C 249.701959 193.530475 251.904927 194.442974 254.201653 194.442974 
z
" clip-path="url(#p52e049a0be)" style="fill: #ffffff; stroke: #000000"/>
    <path d="M 254.201653 168.477534 
C 256.498379 168.477534 258.701347 167.565035 260.325377 165.941005 
C 261.949408 164.316974 262.861907 162.114006 262.861907 159.81728 
C 262.861907 157.520554 261.949408 155.317587 260.325377 153.693556 
C 258.701347 152.069525 256.498379 151.157026 254.201653 151.157026 
C 251.904927 151.157026 249.701959 152.069525 248.077929 153.693556 
C 246.453898 155.317587 245.541399 157.520554 245.541399 159.81728 
C 245.541399 162.114006 246.453898 164.316974 248.077929 165.941005 
C 249.701959 167.565035 251.904927 168.477534 254.201653 168.477534 
z
" clip-path="url(#p52e049a0be)" style="fill: #ffffff; stroke: #000000"/>
    <path d="M 254.201653 142.512095 
C 256.498379 142.512095 258.701347 141.599596 260.325377 139.975565 
C 261.949408 138.351534 262.861907 136.148567 262.861907 133.851841 
C 262.861907 131.555115 261.949408 129.352147 260.325377 127.728116 
C 258.701347 126.104086 256.498379 125.191587 254.201653 125.191587 
C 251.904927 125.191587 249.701959 126.104086 248.077929 127.728116 
C 246.453898 129.352147 245.541399 131.555115 245.541399 133.851841 
C 245.541399 136.148567 246.453898 138.351534 248.077929 139.975565 
C 249.701959 141.599596 251.904927 142.512095 254.201653 142.512095 
z
" clip-path="url(#p52e049a0be)" style="fill: #ffffff; stroke: #000000"/>
    <path d="M 278.003306 181.460254 
C 280.300032 181.460254 282.502999 180.547755 284.12703 178.923724 
C 285.751061 177.299694 286.66356 175.096726 286.66356 172.8 
C 286.66356 170.503274 285.751061 168.300306 284.12703 166.676276 
C 282.502999 165.052245 280.300032 164.139746 278.003306 164.139746 
C 275.70658 164.139746 273.503612 165.052245 271.879581 166.676276 
C 270.255551 168.300306 269.343052 170.503274 269.343052 172.8 
C 269.343052 175.096726 270.255551 177.299694 271.879581 178.923724 
C 273.503612 180.547755 275.70658 181.460254 278.003306 181.460254 
z
" clip-path="url(#p52e049a0be)" style="fill: #ffffff; stroke: #000000"/>
    <path d="M 301.804959 181.460254 
C 304.101685 181.460254 306.304652 180.547755 307.928683 178.923724 
C 309.552714 177.299694 310.465213 175.096726 310.465213 172.8 
C 310.465213 170.503274 309.552714 168.300306 307.928683 166.676276 
C 306.304652 165.052245 304.101685 164.139746 301.804959 164.139746 
C 299.508232 164.139746 297.305265 165.052245 295.681234 166.676276 
C 294.057204 168.300306 293.144705 170.503274 293.144705 172.8 
C 293.144705 175.096726 294.057204 177.299694 295.681234 178.923724 
C 297.305265 180.547755 299.508232 181.460254 301.804959 181.460254 
z
" clip-path="url(#p52e049a0be)" style="fill: #ffffff; stroke: #000000"/>
    <path d="M 325.606612 181.460254 
C 327.903338 181.460254 330.106305 180.547755 331.730336 178.923724 
C 333.354367 177.299694 334.266866 175.096726 334.266866 172.8 
C 334.266866 170.503274 333.354367 168.300306 331.730336 166.676276 
C 330.106305 165.052245 327.903338 164.139746 325.606612 164.139746 
C 323.309885 164.139746 321.106918 165.052245 319.482887 166.676276 
C 317.858857 168.300306 316.946358 170.503274 316.946358 172.8 
C 316.946358 175.096726 317.858857 177.299694 319.482887 178.923724 
C 321.106918 180.547755 323.309885 181.460254 325.606612 181.460254 
z
" clip-path="url(#p52e049a0be)" style="fill: #ffffff; stroke: #000000"/>
    <path d="M 349.408264 181.460254 
C 351.704991 181.460254 353.907958 180.547755 355.531989 178.923724 
C 357.15602 177.299694 358.068519 175.096726 358.068519 172.8 
C 358.068519 170.503274 357.15602 168.300306 355.531989 166.676276 
C 353.907958 165.052245 351.704991 164.139746 349.408264 164.139746 
C 347.111538 164.139746 344.908571 165.052245 343.28454 166.676276 
C 341.660509 168.300306 340.74801 170.503274 340.74801 172.8 
C 340.74801 175.096726 341.660509 177.299694 343.28454 178.923724 
C 344.908571 180.547755 347.111538 181.460254 349.408264 181.460254 
z
" clip-path="url(#p52e049a0be)" style="fill: #ffffff; stroke: #000000"/>
    <path d="M 373.209917 181.460254 
C 375.506644 181.460254 377.709611 180.547755 379.333642 178.923724 
C 380.957672 177.299694 381.870171 175.096726 381.870171 172.8 
C 381.870171 170.503274 380.957672 168.300306 379.333642 166.676276 
C 377.709611 165.052245 375.506644 164.139746 373.209917 164.139746 
C 370.913191 164.139746 368.710224 165.052245 367.086193 166.676276 
C 365.462162 168.300306 364.549663 170.503274 364.549663 172.8 
C 364.549663 175.096726 365.462162 177.299694 367.086193 178.923724 
C 368.710224 180.547755 370.913191 181.460254 373.209917 181.460254 
z
" clip-path="url(#p52e049a0be)" style="fill: #ffffff; stroke: #000000"/>
    <path d="M 397.01157 181.460254 
C 399.308296 181.460254 401.511264 180.547755 403.135295 178.923724 
C 404.759325 177.299694 405.671824 175.096726 405.671824 172.8 
C 405.671824 170.503274 404.759325 168.300306 403.135295 166.676276 
C 401.511264 165.052245 399.308296 164.139746 397.01157 164.139746 
C 394.714844 164.139746 392.511877 165.052245 390.887846 166.676276 
C 389.263815 168.300306 388.351316 170.503274 388.351316 172.8 
C 388.351316 175.096726 389.263815 177.299694 390.887846 178.923724 
C 392.511877 180.547755 394.714844 181.460254 397.01157 181.460254 
z
" clip-path="url(#p52e049a0be)" style="fill: #ffffff; stroke: #000000"/>
    <path d="M 420.813223 181.460254 
C 423.109949 181.460254 425.312917 180.547755 426.936947 178.923724 
C 428.560978 177.299694 429.473477 175.096726 429.473477 172.8 
C 429.473477 170.503274 428.560978 168.300306 426.936947 166.676276 
C 425.312917 165.052245 423.109949 164.139746 420.813223 164.139746 
C 418.516497 164.139746 416.313529 165.052245 414.689499 166.676276 
C 413.065468 168.300306 412.152969 170.503274 412.152969 172.8 
C 412.152969 175.096726 413.065468 177.299694 414.689499 178.923724 
C 416.313529 180.547755 418.516497 181.460254 420.813223 181.460254 
z
" clip-path="url(#p52e049a0be)" style="fill: #0000ff; stroke: #000000"/>
   </g>
  </g>
 </g>
 <defs>
  <clipPath id="p52e049a0be">
   <rect x="0" y="0" width="460.8" height="345.6"/>
  </clipPath>
 </defs>
</svg>
