<?xml version="1.0" encoding="utf-8" standalone="no"?>
<!DOCTYPE svg PUBLIC "-//W3C//DTD SVG 1.1//EN"
  "http://www.w3.org/Graphics/SVG/1.1/DTD/svg11.dtd">
<svg xmlns:xlink="http://www.w3.org/1999/xlink" width="460.8pt" height="345.6pt" viewBox="0 0 460.8 345.6" xmlns="http://www.w3.org/2000/svg" version="1.1">
 <metadata>
  <rdf:RDF xmlns:dc="http://purl.org/dc/elements/1.1/" xmlns:cc="http://creativecommons.org/ns#" xmlns:rdf="http://www.w3.org/1999/02/22-rdf-syntax-ns#">
   <cc:Work>
    <dc:type rdf:resource="http://purl.org/dc/dcmitype/StillImage"/>
    <dc:date>2025-11-05T07:31:14.174022</dc:date>
    <dc:format>image/svg+xml</dc:format>
    <dc:creator>
     <cc:Agent>
      <dc:title>Matplotlib v3.10.5, https://matplotlib.org/</dc:title>
     </cc:Agent>
    </dc:creator>
   </cc:Work>
  </rdf:RDF>
 </metadata>
 <defs>
  <style type="text/css">*{stroke-linejoin: round; stroke-linecap: butt}</style>
 </defs>
 <g id="figure_1">
  <g id="patch_1">
   <path d="M 0 345.6 
L 460.8 345.6 
L 460.8 0 
L 0 0 
z
" style="fill: #ffffff"/>
  </g>
  <g id="axes_1">
   <g id="patch_2">
    <path d="M 47.801052 311.880377 
Q 189.598045 244.204539 330.386033 177.010272 
" clip-path="url(#p07b0c1b625)" style="fill: none; stroke: #4c4c4c; stroke-linecap: round"/>
    <path d="M 329.044618 176.985659 
L 330.386033 177.010272 
L 329.561493 178.068637 
" clip-path="url(#p07b0c1b625)" style="fill: none; stroke: #4c4c4c; stroke-linecap: round"/>
   </g>
   <g id="patch_3">
    <path d="M 43.710766 307.78954 
Q 67.189298 258.484623 90.18715 210.189135 
" clip-path="url(#p07b0c1b625)" style="fill: none; stroke: #4c4c4c; stroke-linecap: round"/>
    <path d="M 89.129513 211.014607 
L 90.18715 210.189135 
L 90.212946 211.530527 
" clip-path="url(#p07b0c1b625)" style="fill: none; stroke: #4c4c4c; stroke-linecap: round"/>
   </g>
   <g id="patch_4">
    <path d="M 47.653081 311.585108 
Q 175.995342 244.205421 303.347698 177.345434 
" clip-path="url(#p07b0c1b625)" style="fill: none; stroke: #4c4c4c; stroke-linecap: round"/>
    <path d="M 302.00632 177.371996 
L 303.347698 177.345434 
L 302.564121 178.434473 
" clip-path="url(#p07b0c1b625)" style="fill: none; stroke: #4c4c4c; stroke-linecap: round"/>
   </g>
   <g id="patch_5">
    <path d="M 47.835296 311.947275 
Q 162.394529 258.4863 275.94062 205.498124 
" clip-path="url(#p07b0c1b625)" style="fill: none; stroke: #4c4c4c; stroke-linecap: round"/>
    <path d="M 274.599469 205.461877 
L 275.94062 205.498124 
L 275.106931 206.549297 
" clip-path="url(#p07b0c1b625)" style="fill: none; stroke: #4c4c4c; stroke-linecap: round"/>
   </g>
   <g id="patch_6">
    <path d="M 48.310133 256.102444 
Q 189.597524 215.642873 329.810082 175.491095 
" clip-path="url(#p07b0c1b625)" style="fill: none; stroke: #4c4c4c; stroke-linecap: round"/>
    <path d="M 328.491273 175.244637 
L 329.810082 175.491095 
L 328.82163 176.398268 
" clip-path="url(#p07b0c1b625)" style="fill: none; stroke: #4c4c4c; stroke-linecap: round"/>
   </g>
   <g id="patch_7">
    <path d="M 45.960434 252.213611 
Q 53.588034 244.20463 60.444576 237.005261 
" clip-path="url(#p07b0c1b625)" style="fill: none; stroke: #4c4c4c; stroke-linecap: round"/>
    <path d="M 59.182507 237.460433 
L 60.444576 237.005261 
L 60.051473 238.28802 
" clip-path="url(#p07b0c1b625)" style="fill: none; stroke: #4c4c4c; stroke-linecap: round"/>
   </g>
   <g id="patch_8">
    <path d="M 48.418051 199.394686 
Q 162.392575 172.800631 275.278311 146.460625 
" clip-path="url(#p07b0c1b625)" style="fill: none; stroke: #4c4c4c; stroke-linecap: round"/>
    <path d="M 273.973364 146.148996 
L 275.278311 146.460625 
L 274.246039 147.317606 
" clip-path="url(#p07b0c1b625)" style="fill: none; stroke: #4c4c4c; stroke-linecap: round"/>
   </g>
   <g id="patch_9">
    <path d="M 48.650074 201.361983 
Q 67.188872 201.361983 84.609636 201.361983 
" clip-path="url(#p07b0c1b625)" style="fill: none; stroke: #4c4c4c; stroke-linecap: round"/>
    <path d="M 83.409636 200.761983 
L 84.609636 201.361983 
L 83.409636 201.961983 
" clip-path="url(#p07b0c1b625)" style="fill: none; stroke: #4c4c4c; stroke-linecap: round"/>
   </g>
   <g id="patch_10">
    <path d="M 45.960434 137.965677 
Q 53.588034 129.956696 60.444576 122.757327 
" clip-path="url(#p07b0c1b625)" style="fill: none; stroke: #4c4c4c; stroke-linecap: round"/>
    <path d="M 59.182507 123.212499 
L 60.444576 122.757327 
L 60.051473 124.040086 
" clip-path="url(#p07b0c1b625)" style="fill: none; stroke: #4c4c4c; stroke-linecap: round"/>
   </g>
   <g id="patch_11">
    <path d="M 45.960434 150.510356 
Q 53.588034 158.519337 60.444576 165.718706 
" clip-path="url(#p07b0c1b625)" style="fill: none; stroke: #4c4c4c; stroke-linecap: round"/>
    <path d="M 60.051473 164.435947 
L 60.444576 165.718706 
L 59.182507 165.263534 
" clip-path="url(#p07b0c1b625)" style="fill: none; stroke: #4c4c4c; stroke-linecap: round"/>
   </g>
   <g id="patch_12">
    <path d="M 48.310133 89.497556 
Q 189.597524 129.957127 329.810082 170.108905 
" clip-path="url(#p07b0c1b625)" style="fill: none; stroke: #4c4c4c; stroke-linecap: round"/>
    <path d="M 328.82163 169.201732 
L 329.810082 170.108905 
L 328.491273 170.355363 
" clip-path="url(#p07b0c1b625)" style="fill: none; stroke: #4c4c4c; stroke-linecap: round"/>
   </g>
   <g id="patch_13">
    <path d="M 43.710766 94.934427 
Q 67.189298 144.239344 90.18715 192.534832 
" clip-path="url(#p07b0c1b625)" style="fill: none; stroke: #4c4c4c; stroke-linecap: round"/>
    <path d="M 90.212946 191.19344 
L 90.18715 192.534832 
L 89.129513 191.70936 
" clip-path="url(#p07b0c1b625)" style="fill: none; stroke: #4c4c4c; stroke-linecap: round"/>
   </g>
   <g id="patch_14">
    <path d="M 45.960434 93.386389 
Q 53.588034 101.39537 60.444576 108.594739 
" clip-path="url(#p07b0c1b625)" style="fill: none; stroke: #4c4c4c; stroke-linecap: round"/>
    <path d="M 60.051473 107.31198 
L 60.444576 108.594739 
L 59.182507 108.139567 
" clip-path="url(#p07b0c1b625)" style="fill: none; stroke: #4c4c4c; stroke-linecap: round"/>
   </g>
   <g id="patch_15">
    <path d="M 47.801052 33.719623 
Q 189.598045 101.395461 330.386033 168.589728 
" clip-path="url(#p07b0c1b625)" style="fill: none; stroke: #4c4c4c; stroke-linecap: round"/>
    <path d="M 329.561493 167.531363 
L 330.386033 168.589728 
L 329.044618 168.614341 
" clip-path="url(#p07b0c1b625)" style="fill: none; stroke: #4c4c4c; stroke-linecap: round"/>
   </g>
   <g id="patch_16">
    <path d="M 42.607515 38.245409 
Q 67.188577 115.675754 91.431345 192.040473 
" clip-path="url(#p07b0c1b625)" style="fill: none; stroke: #4c4c4c; stroke-linecap: round"/>
    <path d="M 91.640125 190.715177 
L 91.431345 192.040473 
L 90.496376 191.078272 
" clip-path="url(#p07b0c1b625)" style="fill: none; stroke: #4c4c4c; stroke-linecap: round"/>
   </g>
   <g id="patch_17">
    <path d="M 47.080702 34.95583 
Q 162.39649 115.676882 276.796348 195.756782 
" clip-path="url(#p07b0c1b625)" style="fill: none; stroke: #4c4c4c; stroke-linecap: round"/>
    <path d="M 276.157347 194.577088 
L 276.796348 195.756782 
L 275.469192 195.560167 
" clip-path="url(#p07b0c1b625)" style="fill: none; stroke: #4c4c4c; stroke-linecap: round"/>
   </g>
   <g id="patch_18">
    <path d="M 73.162323 223.651627 
Q 80.789923 215.642647 87.646465 208.443277 
" clip-path="url(#p07b0c1b625)" style="fill: none; stroke: #4c4c4c; stroke-linecap: round"/>
    <path d="M 86.384396 208.89845 
L 87.646465 208.443277 
L 87.253362 209.726036 
" clip-path="url(#p07b0c1b625)" style="fill: none; stroke: #4c4c4c; stroke-linecap: round"/>
   </g>
   <g id="patch_19">
    <path d="M 75.61994 227.95667 
Q 189.594464 201.362614 302.4802 175.022609 
" clip-path="url(#p07b0c1b625)" style="fill: none; stroke: #4c4c4c; stroke-linecap: round"/>
    <path d="M 301.175253 174.71098 
L 302.4802 175.022609 
L 301.447928 175.879589 
" clip-path="url(#p07b0c1b625)" style="fill: none; stroke: #4c4c4c; stroke-linecap: round"/>
   </g>
   <g id="patch_20">
    <path d="M 69.809405 221.66864 
Q 80.789455 187.081481 91.431212 153.559947 
" clip-path="url(#p07b0c1b625)" style="fill: none; stroke: #4c4c4c; stroke-linecap: round"/>
    <path d="M 90.496242 154.522148 
L 91.431212 153.559947 
L 91.639992 154.885243 
" clip-path="url(#p07b0c1b625)" style="fill: none; stroke: #4c4c4c; stroke-linecap: round"/>
   </g>
   <g id="patch_21">
    <path d="M 73.162323 179.07234 
Q 80.789923 187.08132 87.646465 194.280689 
" clip-path="url(#p07b0c1b625)" style="fill: none; stroke: #4c4c4c; stroke-linecap: round"/>
    <path d="M 87.253362 192.997931 
L 87.646465 194.280689 
L 86.384396 193.825517 
" clip-path="url(#p07b0c1b625)" style="fill: none; stroke: #4c4c4c; stroke-linecap: round"/>
   </g>
   <g id="patch_22">
    <path d="M 73.162323 121.948373 
Q 80.789923 129.957353 87.646465 137.156723 
" clip-path="url(#p07b0c1b625)" style="fill: none; stroke: #4c4c4c; stroke-linecap: round"/>
    <path d="M 87.253362 135.873964 
L 87.646465 137.156723 
L 86.384396 136.70155 
" clip-path="url(#p07b0c1b625)" style="fill: none; stroke: #4c4c4c; stroke-linecap: round"/>
   </g>
   <g id="patch_23">
    <path d="M 100.364212 195.089644 
Q 107.991812 187.080663 114.848354 179.881294 
" clip-path="url(#p07b0c1b625)" style="fill: none; stroke: #4c4c4c; stroke-linecap: round"/>
    <path d="M 113.586285 180.336466 
L 114.848354 179.881294 
L 114.455251 181.164053 
" clip-path="url(#p07b0c1b625)" style="fill: none; stroke: #4c4c4c; stroke-linecap: round"/>
   </g>
   <g id="patch_24">
    <path d="M 102.993667 145.241713 
Q 216.798834 158.518982 329.4935 171.666693 
" clip-path="url(#p07b0c1b625)" style="fill: none; stroke: #4c4c4c; stroke-linecap: round"/>
    <path d="M 328.371112 170.931679 
L 329.4935 171.666693 
L 328.232055 172.123594 
" clip-path="url(#p07b0c1b625)" style="fill: none; stroke: #4c4c4c; stroke-linecap: round"/>
   </g>
   <g id="patch_25">
    <path d="M 102.685687 146.726556 
Q 189.597222 172.800017 275.437875 198.552212 
" clip-path="url(#p07b0c1b625)" style="fill: none; stroke: #4c4c4c; stroke-linecap: round"/>
    <path d="M 274.460892 197.632699 
L 275.437875 198.552212 
L 274.116074 198.782091 
" clip-path="url(#p07b0c1b625)" style="fill: none; stroke: #4c4c4c; stroke-linecap: round"/>
   </g>
   <g id="patch_26">
    <path d="M 130.255741 172.8 
Q 135.195895 172.8 139.018016 172.8 
" clip-path="url(#p07b0c1b625)" style="fill: none; stroke: #4c4c4c; stroke-linecap: round"/>
    <path d="M 137.818016 172.2 
L 139.018016 172.8 
L 137.818016 173.4 
" clip-path="url(#p07b0c1b625)" style="fill: none; stroke: #4c4c4c; stroke-linecap: round"/>
   </g>
   <g id="patch_27">
    <path d="M 157.45763 172.8 
Q 162.397784 172.8 166.219905 172.8 
" clip-path="url(#p07b0c1b625)" style="fill: none; stroke: #4c4c4c; stroke-linecap: round"/>
    <path d="M 165.019905 172.2 
L 166.219905 172.8 
L 165.019905 173.4 
" clip-path="url(#p07b0c1b625)" style="fill: none; stroke: #4c4c4c; stroke-linecap: round"/>
   </g>
   <g id="patch_28">
    <path d="M 157.45597 172.8 
Q 230.398729 172.8 302.223455 172.8 
" clip-path="url(#p07b0c1b625)" style="fill: none; stroke: #4c4c4c; stroke-linecap: round"/>
    <path d="M 301.023455 172.2 
L 302.223455 172.8 
L 301.023455 173.4 
" clip-path="url(#p07b0c1b625)" style="fill: none; stroke: #4c4c4c; stroke-linecap: round"/>
   </g>
   <g id="patch_29">
    <path d="M 184.659519 172.8 
Q 189.599673 172.8 193.421794 172.8 
" clip-path="url(#p07b0c1b625)" style="fill: none; stroke: #4c4c4c; stroke-linecap: round"/>
    <path d="M 192.221794 172.2 
L 193.421794 172.8 
L 192.221794 173.4 
" clip-path="url(#p07b0c1b625)" style="fill: none; stroke: #4c4c4c; stroke-linecap: round"/>
   </g>
   <g id="patch_30">
    <path d="M 211.861408 172.8 
Q 216.801563 172.8 220.623683 172.8 
" clip-path="url(#p07b0c1b625)" style="fill: none; stroke: #4c4c4c; stroke-linecap: round"/>
    <path d="M 219.423683 172.2 
L 220.623683 172.8 
L 219.423683 173.4 
" clip-path="url(#p07b0c1b625)" style="fill: none; stroke: #4c4c4c; stroke-linecap: round"/>
   </g>
   <g id="patch_31">
    <path d="M 239.063297 172.8 
Q 244.003452 172.8 247.825572 172.8 
" clip-path="url(#p07b0c1b625)" style="fill: none; stroke: #4c4c4c; stroke-linecap: round"/>
    <path d="M 246.625572 172.2 
L 247.825572 172.8 
L 246.625572 173.4 
" clip-path="url(#p07b0c1b625)" style="fill: none; stroke: #4c4c4c; stroke-linecap: round"/>
   </g>
   <g id="patch_32">
    <path d="M 239.061637 172.8 
Q 271.203936 172.8 302.228201 172.8 
" clip-path="url(#p07b0c1b625)" style="fill: none; stroke: #4c4c4c; stroke-linecap: round"/>
    <path d="M 301.028201 172.2 
L 302.228201 172.8 
L 301.028201 173.4 
" clip-path="url(#p07b0c1b625)" style="fill: none; stroke: #4c4c4c; stroke-linecap: round"/>
   </g>
   <g id="patch_33">
    <path d="M 266.263526 172.8 
Q 339.206285 172.8 411.031011 172.8 
" clip-path="url(#p07b0c1b625)" style="fill: none; stroke: #4c4c4c; stroke-linecap: round"/>
    <path d="M 409.831011 172.2 
L 411.031011 172.8 
L 409.831011 173.4 
" clip-path="url(#p07b0c1b625)" style="fill: none; stroke: #4c4c4c; stroke-linecap: round"/>
   </g>
   <g id="patch_34">
    <path d="M 263.575546 179.07234 
Q 271.203146 187.08132 278.059689 194.280689 
" clip-path="url(#p07b0c1b625)" style="fill: none; stroke: #4c4c4c; stroke-linecap: round"/>
    <path d="M 277.666585 192.997931 
L 278.059689 194.280689 
L 276.79762 193.825517 
" clip-path="url(#p07b0c1b625)" style="fill: none; stroke: #4c4c4c; stroke-linecap: round"/>
   </g>
   <g id="patch_35">
    <path d="M 263.575546 166.52766 
Q 271.203146 158.51868 278.059689 151.319311 
" clip-path="url(#p07b0c1b625)" style="fill: none; stroke: #4c4c4c; stroke-linecap: round"/>
    <path d="M 276.79762 151.774483 
L 278.059689 151.319311 
L 277.666585 152.602069 
" clip-path="url(#p07b0c1b625)" style="fill: none; stroke: #4c4c4c; stroke-linecap: round"/>
   </g>
   <g id="patch_36">
    <path d="M 290.777435 195.089644 
Q 298.405035 187.080663 305.261578 179.881294 
" clip-path="url(#p07b0c1b625)" style="fill: none; stroke: #4c4c4c; stroke-linecap: round"/>
    <path d="M 303.999509 180.336466 
L 305.261578 179.881294 
L 304.868474 181.164053 
" clip-path="url(#p07b0c1b625)" style="fill: none; stroke: #4c4c4c; stroke-linecap: round"/>
   </g>
   <g id="patch_37">
    <path d="M 290.777435 150.510356 
Q 298.405035 158.519337 305.261578 165.718706 
" clip-path="url(#p07b0c1b625)" style="fill: none; stroke: #4c4c4c; stroke-linecap: round"/>
    <path d="M 304.868474 164.435947 
L 305.261578 165.718706 
L 303.999509 165.263534 
" clip-path="url(#p07b0c1b625)" style="fill: none; stroke: #4c4c4c; stroke-linecap: round"/>
   </g>
   <g id="patch_38">
    <path d="M 320.668964 172.8 
Q 325.609119 172.8 329.431239 172.8 
" clip-path="url(#p07b0c1b625)" style="fill: none; stroke: #4c4c4c; stroke-linecap: round"/>
    <path d="M 328.231239 172.2 
L 329.431239 172.8 
L 328.231239 173.4 
" clip-path="url(#p07b0c1b625)" style="fill: none; stroke: #4c4c4c; stroke-linecap: round"/>
   </g>
   <g id="patch_39">
    <path d="M 347.870853 172.8 
Q 352.811008 172.8 356.633128 172.8 
" clip-path="url(#p07b0c1b625)" style="fill: none; stroke: #4c4c4c; stroke-linecap: round"/>
    <path d="M 355.433128 172.2 
L 356.633128 172.8 
L 355.433128 173.4 
" clip-path="url(#p07b0c1b625)" style="fill: none; stroke: #4c4c4c; stroke-linecap: round"/>
   </g>
   <g id="patch_40">
    <path d="M 375.072742 172.8 
Q 380.012897 172.8 383.835017 172.8 
" clip-path="url(#p07b0c1b625)" style="fill: none; stroke: #4c4c4c; stroke-linecap: round"/>
    <path d="M 382.635017 172.2 
L 383.835017 172.8 
L 382.635017 173.4 
" clip-path="url(#p07b0c1b625)" style="fill: none; stroke: #4c4c4c; stroke-linecap: round"/>
   </g>
   <g id="patch_41">
    <path d="M 402.274631 172.8 
Q 407.214786 172.8 411.036906 172.8 
" clip-path="url(#p07b0c1b625)" style="fill: none; stroke: #4c4c4c; stroke-linecap: round"/>
    <path d="M 409.836906 172.2 
L 411.036906 172.8 
L 409.836906 173.4 
" clip-path="url(#p07b0c1b625)" style="fill: none; stroke: #4c4c4c; stroke-linecap: round"/>
   </g>
   <g id="PathCollection_1">
    <path d="M 39.986777 324.270171 
C 42.283503 324.270171 44.486471 323.357672 46.110501 321.733642 
C 47.734532 320.109611 48.647031 317.906644 48.647031 315.609917 
C 48.647031 313.313191 47.734532 311.110224 46.110501 309.486193 
C 44.486471 307.862162 42.283503 306.949663 39.986777 306.949663 
C 37.690051 306.949663 35.487083 307.862162 33.863053 309.486193 
C 32.239022 311.110224 31.326523 313.313191 31.326523 315.609917 
C 31.326523 317.906644 32.239022 320.109611 33.863053 321.733642 
C 35.487083 323.357672 37.690051 324.270171 39.986777 324.270171 
z
" clip-path="url(#p07b0c1b625)" style="fill: #ffff00; stroke: #000000"/>
    <path d="M 39.986777 267.146204 
C 42.283503 267.146204 44.486471 266.233705 46.110501 264.609675 
C 47.734532 262.985644 48.647031 260.782677 48.647031 258.48595 
C 48.647031 256.189224 47.734532 253.986257 46.110501 252.362226 
C 44.486471 250.738195 42.283503 249.825696 39.986777 249.825696 
C 37.690051 249.825696 35.487083 250.738195 33.863053 252.362226 
C 32.239022 253.986257 31.326523 256.189224 31.326523 258.48595 
C 31.326523 260.782677 32.239022 262.985644 33.863053 264.609675 
C 35.487083 266.233705 37.690051 267.146204 39.986777 267.146204 
z
" clip-path="url(#p07b0c1b625)" style="fill: #ffff00; stroke: #000000"/>
    <path d="M 39.986777 210.022238 
C 42.283503 210.022238 44.486471 209.109739 46.110501 207.485708 
C 47.734532 205.861677 48.647031 203.65871 48.647031 201.361983 
C 48.647031 199.065257 47.734532 196.86229 46.110501 195.238259 
C 44.486471 193.614228 42.283503 192.701729 39.986777 192.701729 
C 37.690051 192.701729 35.487083 193.614228 33.863053 195.238259 
C 32.239022 196.86229 31.326523 199.065257 31.326523 201.361983 
C 31.326523 203.65871 32.239022 205.861677 33.863053 207.485708 
C 35.487083 209.109739 37.690051 210.022238 39.986777 210.022238 
z
" clip-path="url(#p07b0c1b625)" style="fill: #ffff00; stroke: #000000"/>
    <path d="M 39.986777 152.898271 
C 42.283503 152.898271 44.486471 151.985772 46.110501 150.361741 
C 47.734532 148.73771 48.647031 146.534743 48.647031 144.238017 
C 48.647031 141.94129 47.734532 139.738323 46.110501 138.114292 
C 44.486471 136.490261 42.283503 135.577762 39.986777 135.577762 
C 37.690051 135.577762 35.487083 136.490261 33.863053 138.114292 
C 32.239022 139.738323 31.326523 141.94129 31.326523 144.238017 
C 31.326523 146.534743 32.239022 148.73771 33.863053 150.361741 
C 35.487083 151.985772 37.690051 152.898271 39.986777 152.898271 
z
" clip-path="url(#p07b0c1b625)" style="fill: #ffff00; stroke: #000000"/>
    <path d="M 39.986777 95.774304 
C 42.283503 95.774304 44.486471 94.861805 46.110501 93.237774 
C 47.734532 91.613743 48.647031 89.410776 48.647031 87.11405 
C 48.647031 84.817323 47.734532 82.614356 46.110501 80.990325 
C 44.486471 79.366295 42.283503 78.453796 39.986777 78.453796 
C 37.690051 78.453796 35.487083 79.366295 33.863053 80.990325 
C 32.239022 82.614356 31.326523 84.817323 31.326523 87.11405 
C 31.326523 89.410776 32.239022 91.613743 33.863053 93.237774 
C 35.487083 94.861805 37.690051 95.774304 39.986777 95.774304 
z
" clip-path="url(#p07b0c1b625)" style="fill: #ffff00; stroke: #000000"/>
    <path d="M 39.986777 38.650337 
C 42.283503 38.650337 44.486471 37.737838 46.110501 36.113807 
C 47.734532 34.489776 48.647031 32.286809 48.647031 29.990083 
C 48.647031 27.693356 47.734532 25.490389 46.110501 23.866358 
C 44.486471 22.242328 42.283503 21.329829 39.986777 21.329829 
C 37.690051 21.329829 35.487083 22.242328 33.863053 23.866358 
C 32.239022 25.490389 31.326523 27.693356 31.326523 29.990083 
C 31.326523 32.286809 32.239022 34.489776 33.863053 36.113807 
C 35.487083 37.737838 37.690051 38.650337 39.986777 38.650337 
z
" clip-path="url(#p07b0c1b625)" style="fill: #ffff00; stroke: #000000"/>
    <path d="M 67.188666 238.584221 
C 69.485392 238.584221 71.68836 237.671722 73.31239 236.047691 
C 74.936421 234.423661 75.84892 232.220693 75.84892 229.923967 
C 75.84892 227.627241 74.936421 225.424273 73.31239 223.800243 
C 71.68836 222.176212 69.485392 221.263713 67.188666 221.263713 
C 64.89194 221.263713 62.688972 222.176212 61.064942 223.800243 
C 59.440911 225.424273 58.528412 227.627241 58.528412 229.923967 
C 58.528412 232.220693 59.440911 234.423661 61.064942 236.047691 
C 62.688972 237.671722 64.89194 238.584221 67.188666 238.584221 
z
" clip-path="url(#p07b0c1b625)" style="fill: #ffffff; stroke: #000000"/>
    <path d="M 67.188666 181.460254 
C 69.485392 181.460254 71.68836 180.547755 73.31239 178.923724 
C 74.936421 177.299694 75.84892 175.096726 75.84892 172.8 
C 75.84892 170.503274 74.936421 168.300306 73.31239 166.676276 
C 71.68836 165.052245 69.485392 164.139746 67.188666 164.139746 
C 64.89194 164.139746 62.688972 165.052245 61.064942 166.676276 
C 59.440911 168.300306 58.528412 170.503274 58.528412 172.8 
C 58.528412 175.096726 59.440911 177.299694 61.064942 178.923724 
C 62.688972 180.547755 64.89194 181.460254 67.188666 181.460254 
z
" clip-path="url(#p07b0c1b625)" style="fill: #ffffff; stroke: #000000"/>
    <path d="M 67.188666 124.336287 
C 69.485392 124.336287 71.68836 123.423788 73.31239 121.799757 
C 74.936421 120.175727 75.84892 117.972759 75.84892 115.676033 
C 75.84892 113.379307 74.936421 111.176339 73.31239 109.552309 
C 71.68836 107.928278 69.485392 107.015779 67.188666 107.015779 
C 64.89194 107.015779 62.688972 107.928278 61.064942 109.552309 
C 59.440911 111.176339 58.528412 113.379307 58.528412 115.676033 
C 58.528412 117.972759 59.440911 120.175727 61.064942 121.799757 
C 62.688972 123.423788 64.89194 124.336287 67.188666 124.336287 
z
" clip-path="url(#p07b0c1b625)" style="fill: #ffffff; stroke: #000000"/>
    <path d="M 94.390555 210.022238 
C 96.687281 210.022238 98.890249 209.109739 100.514279 207.485708 
C 102.13831 205.861677 103.050809 203.65871 103.050809 201.361983 
C 103.050809 199.065257 102.13831 196.86229 100.514279 195.238259 
C 98.890249 193.614228 96.687281 192.701729 94.390555 192.701729 
C 92.093829 192.701729 89.890861 193.614228 88.266831 195.238259 
C 86.6428 196.86229 85.730301 199.065257 85.730301 201.361983 
C 85.730301 203.65871 86.6428 205.861677 88.266831 207.485708 
C 89.890861 209.109739 92.093829 210.022238 94.390555 210.022238 
z
" clip-path="url(#p07b0c1b625)" style="fill: #ffffff; stroke: #000000"/>
    <path d="M 94.390555 152.898271 
C 96.687281 152.898271 98.890249 151.985772 100.514279 150.361741 
C 102.13831 148.73771 103.050809 146.534743 103.050809 144.238017 
C 103.050809 141.94129 102.13831 139.738323 100.514279 138.114292 
C 98.890249 136.490261 96.687281 135.577762 94.390555 135.577762 
C 92.093829 135.577762 89.890861 136.490261 88.266831 138.114292 
C 86.6428 139.738323 85.730301 141.94129 85.730301 144.238017 
C 85.730301 146.534743 86.6428 148.73771 88.266831 150.361741 
C 89.890861 151.985772 92.093829 152.898271 94.390555 152.898271 
z
" clip-path="url(#p07b0c1b625)" style="fill: #ffffff; stroke: #000000"/>
    <path d="M 121.592444 181.460254 
C 123.88917 181.460254 126.092138 180.547755 127.716168 178.923724 
C 129.340199 177.299694 130.252698 175.096726 130.252698 172.8 
C 130.252698 170.503274 129.340199 168.300306 127.716168 166.676276 
C 126.092138 165.052245 123.88917 164.139746 121.592444 164.139746 
C 119.295718 164.139746 117.09275 165.052245 115.46872 166.676276 
C 113.844689 168.300306 112.93219 170.503274 112.93219 172.8 
C 112.93219 175.096726 113.844689 177.299694 115.46872 178.923724 
C 117.09275 180.547755 119.295718 181.460254 121.592444 181.460254 
z
" clip-path="url(#p07b0c1b625)" style="fill: #ffffff; stroke: #000000"/>
    <path d="M 148.794333 181.460254 
C 151.091059 181.460254 153.294027 180.547755 154.918057 178.923724 
C 156.542088 177.299694 157.454587 175.096726 157.454587 172.8 
C 157.454587 170.503274 156.542088 168.300306 154.918057 166.676276 
C 153.294027 165.052245 151.091059 164.139746 148.794333 164.139746 
C 146.497607 164.139746 144.294639 165.052245 142.670609 166.676276 
C 141.046578 168.300306 140.134079 170.503274 140.134079 172.8 
C 140.134079 175.096726 141.046578 177.299694 142.670609 178.923724 
C 144.294639 180.547755 146.497607 181.460254 148.794333 181.460254 
z
" clip-path="url(#p07b0c1b625)" style="fill: #ffffff; stroke: #000000"/>
    <path d="M 175.996222 181.460254 
C 178.292948 181.460254 180.495916 180.547755 182.119946 178.923724 
C 183.743977 177.299694 184.656476 175.096726 184.656476 172.8 
C 184.656476 170.503274 183.743977 168.300306 182.119946 166.676276 
C 180.495916 165.052245 178.292948 164.139746 175.996222 164.139746 
C 173.699496 164.139746 171.496528 165.052245 169.872498 166.676276 
C 168.248467 168.300306 167.335968 170.503274 167.335968 172.8 
C 167.335968 175.096726 168.248467 177.299694 169.872498 178.923724 
C 171.496528 180.547755 173.699496 181.460254 175.996222 181.460254 
z
" clip-path="url(#p07b0c1b625)" style="fill: #ffffff; stroke: #000000"/>
    <path d="M 203.198111 181.460254 
C 205.494837 181.460254 207.697805 180.547755 209.321835 178.923724 
C 210.945866 177.299694 211.858365 175.096726 211.858365 172.8 
C 211.858365 170.503274 210.945866 168.300306 209.321835 166.676276 
C 207.697805 165.052245 205.494837 164.139746 203.198111 164.139746 
C 200.901385 164.139746 198.698417 165.052245 197.074387 166.676276 
C 195.450356 168.300306 194.537857 170.503274 194.537857 172.8 
C 194.537857 175.096726 195.450356 177.299694 197.074387 178.923724 
C 198.698417 180.547755 200.901385 181.460254 203.198111 181.460254 
z
" clip-path="url(#p07b0c1b625)" style="fill: #ffffff; stroke: #000000"/>
    <path d="M 230.4 181.460254 
C 232.696726 181.460254 234.899694 180.547755 236.523724 178.923724 
C 238.147755 177.299694 239.060254 175.096726 239.060254 172.8 
C 239.060254 170.503274 238.147755 168.300306 236.523724 166.676276 
C 234.899694 165.052245 232.696726 164.139746 230.4 164.139746 
C 228.103274 164.139746 225.900306 165.052245 224.276276 166.676276 
C 222.652245 168.300306 221.739746 170.503274 221.739746 172.8 
C 221.739746 175.096726 222.652245 177.299694 224.276276 178.923724 
C 225.900306 180.547755 228.103274 181.460254 230.4 181.460254 
z
" clip-path="url(#p07b0c1b625)" style="fill: #ffffff; stroke: #000000"/>
    <path d="M 257.601889 181.460254 
C 259.898615 181.460254 262.101583 180.547755 263.725613 178.923724 
C 265.349644 177.299694 266.262143 175.096726 266.262143 172.8 
C 266.262143 170.503274 265.349644 168.300306 263.725613 166.676276 
C 262.101583 165.052245 259.898615 164.139746 257.601889 164.139746 
C 255.305163 164.139746 253.102195 165.052245 251.478165 166.676276 
C 249.854134 168.300306 248.941635 170.503274 248.941635 172.8 
C 248.941635 175.096726 249.854134 177.299694 251.478165 178.923724 
C 253.102195 180.547755 255.305163 181.460254 257.601889 181.460254 
z
" clip-path="url(#p07b0c1b625)" style="fill: #ffffff; stroke: #000000"/>
    <path d="M 284.803778 210.022238 
C 287.100504 210.022238 289.303472 209.109739 290.927502 207.485708 
C 292.551533 205.861677 293.464032 203.65871 293.464032 201.361983 
C 293.464032 199.065257 292.551533 196.86229 290.927502 195.238259 
C 289.303472 193.614228 287.100504 192.701729 284.803778 192.701729 
C 282.507052 192.701729 280.304084 193.614228 278.680054 195.238259 
C 277.056023 196.86229 276.143524 199.065257 276.143524 201.361983 
C 276.143524 203.65871 277.056023 205.861677 278.680054 207.485708 
C 280.304084 209.109739 282.507052 210.022238 284.803778 210.022238 
z
" clip-path="url(#p07b0c1b625)" style="fill: #ffffff; stroke: #000000"/>
    <path d="M 284.803778 152.898271 
C 287.100504 152.898271 289.303472 151.985772 290.927502 150.361741 
C 292.551533 148.73771 293.464032 146.534743 293.464032 144.238017 
C 293.464032 141.94129 292.551533 139.738323 290.927502 138.114292 
C 289.303472 136.490261 287.100504 135.577762 284.803778 135.577762 
C 282.507052 135.577762 280.304084 136.490261 278.680054 138.114292 
C 277.056023 139.738323 276.143524 141.94129 276.143524 144.238017 
C 276.143524 146.534743 277.056023 148.73771 278.680054 150.361741 
C 280.304084 151.985772 282.507052 152.898271 284.803778 152.898271 
z
" clip-path="url(#p07b0c1b625)" style="fill: #ffffff; stroke: #000000"/>
    <path d="M 312.005667 181.460254 
C 314.302393 181.460254 316.505361 180.547755 318.129391 178.923724 
C 319.753422 177.299694 320.665921 175.096726 320.665921 172.8 
C 320.665921 170.503274 319.753422 168.300306 318.129391 166.676276 
C 316.505361 165.052245 314.302393 164.139746 312.005667 164.139746 
C 309.708941 164.139746 307.505973 165.052245 305.881943 166.676276 
C 304.257912 168.300306 303.345413 170.503274 303.345413 172.8 
C 303.345413 175.096726 304.257912 177.299694 305.881943 178.923724 
C 307.505973 180.547755 309.708941 181.460254 312.005667 181.460254 
z
" clip-path="url(#p07b0c1b625)" style="fill: #ffffff; stroke: #000000"/>
    <path d="M 339.207556 181.460254 
C 341.504282 181.460254 343.70725 180.547755 345.33128 178.923724 
C 346.955311 177.299694 347.86781 175.096726 347.86781 172.8 
C 347.86781 170.503274 346.955311 168.300306 345.33128 166.676276 
C 343.70725 165.052245 341.504282 164.139746 339.207556 164.139746 
C 336.91083 164.139746 334.707862 165.052245 333.083832 166.676276 
C 331.459801 168.300306 330.547302 170.503274 330.547302 172.8 
C 330.547302 175.096726 331.459801 177.299694 333.083832 178.923724 
C 334.707862 180.547755 336.91083 181.460254 339.207556 181.460254 
z
" clip-path="url(#p07b0c1b625)" style="fill: #ffffff; stroke: #000000"/>
    <path d="M 366.409445 181.460254 
C 368.706171 181.460254 370.909139 180.547755 372.533169 178.923724 
C 374.1572 177.299694 375.069699 175.096726 375.069699 172.8 
C 375.069699 170.503274 374.1572 168.300306 372.533169 166.676276 
C 370.909139 165.052245 368.706171 164.139746 366.409445 164.139746 
C 364.112719 164.139746 361.909751 165.052245 360.285721 166.676276 
C 358.66169 168.300306 357.749191 170.503274 357.749191 172.8 
C 357.749191 175.096726 358.66169 177.299694 360.285721 178.923724 
C 361.909751 180.547755 364.112719 181.460254 366.409445 181.460254 
z
" clip-path="url(#p07b0c1b625)" style="fill: #ffffff; stroke: #000000"/>
    <path d="M 393.611334 181.460254 
C 395.90806 181.460254 398.111028 180.547755 399.735058 178.923724 
C 401.359089 177.299694 402.271588 175.096726 402.271588 172.8 
C 402.271588 170.503274 401.359089 168.300306 399.735058 166.676276 
C 398.111028 165.052245 395.90806 164.139746 393.611334 164.139746 
C 391.314608 164.139746 389.11164 165.052245 387.48761 166.676276 
C 385.863579 168.300306 384.95108 170.503274 384.95108 172.8 
C 384.95108 175.096726 385.863579 177.299694 387.48761 178.923724 
C 389.11164 180.547755 391.314608 181.460254 393.611334 181.460254 
z
" clip-path="url(#p07b0c1b625)" style="fill: #ffffff; stroke: #000000"/>
    <path d="M 420.813223 181.460254 
C 423.109949 181.460254 425.312917 180.547755 426.936947 178.923724 
C 428.560978 177.299694 429.473477 175.096726 429.473477 172.8 
C 429.473477 170.503274 428.560978 168.300306 426.936947 166.676276 
C 425.312917 165.052245 423.109949 164.139746 420.813223 164.139746 
C 418.516497 164.139746 416.313529 165.052245 414.689499 166.676276 
C 413.065468 168.300306 412.152969 170.503274 412.152969 172.8 
C 412.152969 175.096726 413.065468 177.299694 414.689499 178.923724 
C 416.313529 180.547755 418.516497 181.460254 420.813223 181.460254 
z
" clip-path="url(#p07b0c1b625)" style="fill: #0000ff; stroke: #000000"/>
   </g>
  </g>
 </g>
 <defs>
  <clipPath id="p07b0c1b625">
   <rect x="0" y="0" width="460.8" height="345.6"/>
  </clipPath>
 </defs>
</svg>
