<?xml version="1.0" encoding="utf-8" standalone="no"?>
<!DOCTYPE svg PUBLIC "-//W3C//DTD SVG 1.1//EN"
  "http://www.w3.org/Graphics/SVG/1.1/DTD/svg11.dtd">
<svg xmlns:xlink="http://www.w3.org/1999/xlink" width="460.8pt" height="345.6pt" viewBox="0 0 460.8 345.6" xmlns="http://www.w3.org/2000/svg" version="1.1">
 <metadata>
  <rdf:RDF xmlns:dc="http://purl.org/dc/elements/1.1/" xmlns:cc="http://creativecommons.org/ns#" xmlns:rdf="http://www.w3.org/1999/02/22-rdf-syntax-ns#">
   <cc:Work>
    <dc:type rdf:resource="http://purl.org/dc/dcmitype/StillImage"/>
    <dc:date>2025-11-06T14:31:06.559186</dc:date>
    <dc:format>image/svg+xml</dc:format>
    <dc:creator>
     <cc:Agent>
      <dc:title>Matplotlib v3.10.5, https://matplotlib.org/</dc:title>
     </cc:Agent>
    </dc:creator>
   </cc:Work>
  </rdf:RDF>
 </metadata>
 <defs>
  <style type="text/css">*{stroke-linejoin: round; stroke-linecap: butt}</style>
 </defs>
 <g id="figure_1">
  <g id="patch_1">
   <path d="M 0 345.6 
L 460.8 345.6 
L 460.8 0 
L 0 0 
z
" style="fill: #ffffff"/>
  </g>
  <g id="axes_1">
   <g id="patch_2">
    <path d="M 45.550347 308.971567 
Q 67.187716 283.154252 88.106931 258.193824 
" clip-path="url(#pe6f519879f)" style="fill: none; stroke: #4c4c4c; stroke-linecap: round"/>
    <path d="M 86.876274 258.728131 
L 88.106931 258.193824 
L 87.795982 259.498934 
" clip-path="url(#pe6f519879f)" style="fill: none; stroke: #4c4c4c; stroke-linecap: round"/>
   </g>
   <g id="patch_3">
    <path d="M 47.421473 311.174445 
Q 148.79305 250.697084 249.20448 190.792538 
" clip-path="url(#pe6f519879f)" style="fill: none; stroke: #4c4c4c; stroke-linecap: round"/>
    <path d="M 247.866537 190.892078 
L 249.20448 190.792538 
L 248.481347 191.922616 
" clip-path="url(#pe6f519879f)" style="fill: none; stroke: #4c4c4c; stroke-linecap: round"/>
   </g>
   <g id="patch_4">
    <path d="M 47.029649 310.567861 
Q 148.795843 237.712518 249.652953 165.507996 
" clip-path="url(#pe6f519879f)" style="fill: none; stroke: #4c4c4c; stroke-linecap: round"/>
    <path d="M 248.327956 165.718665 
L 249.652953 165.507996 
L 249.02649 166.694395 
" clip-path="url(#pe6f519879f)" style="fill: none; stroke: #4c4c4c; stroke-linecap: round"/>
   </g>
   <g id="patch_5">
    <path d="M 45.887382 309.273472 
Q 94.390385 257.187861 142.131459 205.920458 
" clip-path="url(#pe6f519879f)" style="fill: none; stroke: #4c4c4c; stroke-linecap: round"/>
    <path d="M 140.874575 206.389756 
L 142.131459 205.920458 
L 141.752767 207.207544 
" clip-path="url(#pe6f519879f)" style="fill: none; stroke: #4c4c4c; stroke-linecap: round"/>
   </g>
   <g id="patch_6">
    <path d="M 45.234895 308.721762 
Q 94.390706 244.20476 142.86894 180.577079 
" clip-path="url(#pe6f519879f)" style="fill: none; stroke: #4c4c4c; stroke-linecap: round"/>
    <path d="M 141.664429 181.167971 
L 142.86894 180.577079 
L 142.618947 181.895223 
" clip-path="url(#pe6f519879f)" style="fill: none; stroke: #4c4c4c; stroke-linecap: round"/>
   </g>
   <g id="patch_7">
    <path d="M 48.142861 286.724971 
Q 203.200451 231.221401 357.205412 176.094626 
" clip-path="url(#pe6f519879f)" style="fill: none; stroke: #4c4c4c; stroke-linecap: round"/>
    <path d="M 355.873404 175.934143 
L 357.205412 176.094626 
L 356.277821 177.063942 
" clip-path="url(#pe6f519879f)" style="fill: none; stroke: #4c4c4c; stroke-linecap: round"/>
   </g>
   <g id="patch_8">
    <path d="M 45.550347 283.006127 
Q 67.187716 257.188812 88.106931 232.228385 
" clip-path="url(#pe6f519879f)" style="fill: none; stroke: #4c4c4c; stroke-linecap: round"/>
    <path d="M 86.876274 232.762691 
L 88.106931 232.228385 
L 87.795982 233.533494 
" clip-path="url(#pe6f519879f)" style="fill: none; stroke: #4c4c4c; stroke-linecap: round"/>
   </g>
   <g id="patch_9">
    <path d="M 45.234895 282.756322 
Q 94.390706 218.239321 142.86894 154.611639 
" clip-path="url(#pe6f519879f)" style="fill: none; stroke: #4c4c4c; stroke-linecap: round"/>
    <path d="M 141.664429 155.202531 
L 142.86894 154.611639 
L 142.618947 155.929783 
" clip-path="url(#pe6f519879f)" style="fill: none; stroke: #4c4c4c; stroke-linecap: round"/>
   </g>
   <g id="patch_10">
    <path d="M 44.434644 282.214517 
Q 67.189068 244.204288 89.369227 207.153339 
" clip-path="url(#pe6f519879f)" style="fill: none; stroke: #4c4c4c; stroke-linecap: round"/>
    <path d="M 88.238058 207.874766 
L 89.369227 207.153339 
L 89.267667 208.491131 
" clip-path="url(#pe6f519879f)" style="fill: none; stroke: #4c4c4c; stroke-linecap: round"/>
   </g>
   <g id="patch_11">
    <path d="M 47.800015 259.949993 
Q 148.793738 211.748443 248.778456 164.028464 
" clip-path="url(#pe6f519879f)" style="fill: none; stroke: #4c4c4c; stroke-linecap: round"/>
    <path d="M 247.437041 164.003851 
L 248.778456 164.028464 
L 247.953917 165.086828 
" clip-path="url(#pe6f519879f)" style="fill: none; stroke: #4c4c4c; stroke-linecap: round"/>
   </g>
   <g id="patch_12">
    <path d="M 48.13871 260.761017 
Q 148.793605 224.73114 248.39587 189.078056 
" clip-path="url(#pe6f519879f)" style="fill: none; stroke: #4c4c4c; stroke-linecap: round"/>
    <path d="M 247.063862 188.917573 
L 248.39587 189.078056 
L 247.468279 190.047373 
" clip-path="url(#pe6f519879f)" style="fill: none; stroke: #4c4c4c; stroke-linecap: round"/>
   </g>
   <g id="patch_13">
    <path d="M 48.332132 261.355616 
Q 203.20044 218.238871 356.991679 175.421992 
" clip-path="url(#pe6f519879f)" style="fill: none; stroke: #4c4c4c; stroke-linecap: round"/>
    <path d="M 355.674721 175.165825 
L 356.991679 175.421992 
L 355.996571 176.321858 
" clip-path="url(#pe6f519879f)" style="fill: none; stroke: #4c4c4c; stroke-linecap: round"/>
   </g>
   <g id="patch_14">
    <path d="M 45.234895 256.790883 
Q 94.390706 192.273881 142.86894 128.6462 
" clip-path="url(#pe6f519879f)" style="fill: none; stroke: #4c4c4c; stroke-linecap: round"/>
    <path d="M 141.664429 129.237092 
L 142.86894 128.6462 
L 142.618947 129.964344 
" clip-path="url(#pe6f519879f)" style="fill: none; stroke: #4c4c4c; stroke-linecap: round"/>
   </g>
   <g id="patch_15">
    <path d="M 48.481556 236.024296 
Q 203.19828 205.256766 356.818442 174.707302 
" clip-path="url(#pe6f519879f)" style="fill: none; stroke: #4c4c4c; stroke-linecap: round"/>
    <path d="M 355.524462 174.352878 
L 356.818442 174.707302 
L 355.758515 175.529832 
" clip-path="url(#pe6f519879f)" style="fill: none; stroke: #4c4c4c; stroke-linecap: round"/>
   </g>
   <g id="patch_16">
    <path d="M 48.410995 235.703274 
Q 148.794598 211.748096 248.090704 188.052434 
" clip-path="url(#pe6f519879f)" style="fill: none; stroke: #4c4c4c; stroke-linecap: round"/>
    <path d="M 246.784208 187.747364 
L 248.090704 188.052434 
L 247.06275 188.914589 
" clip-path="url(#pe6f519879f)" style="fill: none; stroke: #4c4c4c; stroke-linecap: round"/>
   </g>
   <g id="patch_17">
    <path d="M 48.525968 236.258055 
Q 230.402005 205.256458 411.175905 174.442725 
" clip-path="url(#pe6f519879f)" style="fill: none; stroke: #4c4c4c; stroke-linecap: round"/>
    <path d="M 409.892148 174.052893 
L 411.175905 174.442725 
L 410.093786 175.235831 
" clip-path="url(#pe6f519879f)" style="fill: none; stroke: #4c4c4c; stroke-linecap: round"/>
   </g>
   <g id="patch_18">
    <path d="M 47.029649 206.706103 
Q 67.187808 192.274694 86.436884 178.494105 
" clip-path="url(#pe6f519879f)" style="fill: none; stroke: #4c4c4c; stroke-linecap: round"/>
    <path d="M 85.111886 178.704774 
L 86.436884 178.494105 
L 85.810421 179.680505 
" clip-path="url(#pe6f519879f)" style="fill: none; stroke: #4c4c4c; stroke-linecap: round"/>
   </g>
   <g id="patch_19">
    <path d="M 48.583663 210.722394 
Q 148.791917 198.765728 247.890012 186.941523 
" clip-path="url(#pe6f519879f)" style="fill: none; stroke: #4c4c4c; stroke-linecap: round"/>
    <path d="M 246.627377 186.487923 
L 247.890012 186.941523 
L 246.769551 187.679471 
" clip-path="url(#pe6f519879f)" style="fill: none; stroke: #4c4c4c; stroke-linecap: round"/>
   </g>
   <g id="patch_20">
    <path d="M 48.601511 210.867107 
Q 230.400886 192.273989 411.088029 173.794622 
" clip-path="url(#pe6f519879f)" style="fill: none; stroke: #4c4c4c; stroke-linecap: round"/>
    <path d="M 409.833211 173.319826 
L 411.088029 173.794622 
L 409.955301 174.513599 
" clip-path="url(#pe6f519879f)" style="fill: none; stroke: #4c4c4c; stroke-linecap: round"/>
   </g>
   <g id="patch_21">
    <path d="M 48.638452 185.438619 
Q 203.196394 179.291428 356.637185 173.188669 
" clip-path="url(#pe6f519879f)" style="fill: none; stroke: #4c4c4c; stroke-linecap: round"/>
    <path d="M 355.414289 172.636833 
L 356.637185 173.188669 
L 355.461978 173.835885 
" clip-path="url(#pe6f519879f)" style="fill: none; stroke: #4c4c4c; stroke-linecap: round"/>
   </g>
   <g id="patch_22">
    <path d="M 48.650074 185.78272 
Q 148.794606 185.78272 247.821104 185.78272 
" clip-path="url(#pe6f519879f)" style="fill: none; stroke: #4c4c4c; stroke-linecap: round"/>
    <path d="M 246.621104 185.18272 
L 247.821104 185.78272 
L 246.621104 186.38272 
" clip-path="url(#pe6f519879f)" style="fill: none; stroke: #4c4c4c; stroke-linecap: round"/>
   </g>
   <g id="patch_23">
    <path d="M 48.638452 160.161381 
Q 203.196394 166.308572 356.637185 172.411331 
" clip-path="url(#pe6f519879f)" style="fill: none; stroke: #4c4c4c; stroke-linecap: round"/>
    <path d="M 355.461978 171.764115 
L 356.637185 172.411331 
L 355.414289 172.963167 
" clip-path="url(#pe6f519879f)" style="fill: none; stroke: #4c4c4c; stroke-linecap: round"/>
   </g>
   <g id="patch_24">
    <path d="M 45.550347 153.17893 
Q 67.187716 127.361615 88.106931 102.401187 
" clip-path="url(#pe6f519879f)" style="fill: none; stroke: #4c4c4c; stroke-linecap: round"/>
    <path d="M 86.876274 102.935494 
L 88.106931 102.401187 
L 87.795982 103.706296 
" clip-path="url(#pe6f519879f)" style="fill: none; stroke: #4c4c4c; stroke-linecap: round"/>
   </g>
   <g id="patch_25">
    <path d="M 48.650074 159.81728 
Q 148.794606 159.81728 247.821104 159.81728 
" clip-path="url(#pe6f519879f)" style="fill: none; stroke: #4c4c4c; stroke-linecap: round"/>
    <path d="M 246.621104 159.21728 
L 247.821104 159.81728 
L 246.621104 160.41728 
" clip-path="url(#pe6f519879f)" style="fill: none; stroke: #4c4c4c; stroke-linecap: round"/>
   </g>
   <g id="patch_26">
    <path d="M 47.421473 164.252752 
Q 94.387784 192.272426 140.393947 219.719285 
" clip-path="url(#pe6f519879f)" style="fill: none; stroke: #4c4c4c; stroke-linecap: round"/>
    <path d="M 139.670814 218.589207 
L 140.393947 219.719285 
L 139.056004 219.619745 
" clip-path="url(#pe6f519879f)" style="fill: none; stroke: #4c4c4c; stroke-linecap: round"/>
   </g>
   <g id="patch_27">
    <path d="M 48.237496 136.47707 
Q 121.591731 159.817054 193.880563 182.818045 
" clip-path="url(#pe6f519879f)" style="fill: none; stroke: #4c4c4c; stroke-linecap: round"/>
    <path d="M 192.918974 181.882446 
L 193.880563 182.818045 
L 192.55513 183.025956 
" clip-path="url(#pe6f519879f)" style="fill: none; stroke: #4c4c4c; stroke-linecap: round"/>
   </g>
   <g id="patch_28">
    <path d="M 47.029649 128.809785 
Q 67.187808 114.378375 86.436884 100.597787 
" clip-path="url(#pe6f519879f)" style="fill: none; stroke: #4c4c4c; stroke-linecap: round"/>
    <path d="M 85.111886 100.808456 
L 86.436884 100.597787 
L 85.810421 101.784186 
" clip-path="url(#pe6f519879f)" style="fill: none; stroke: #4c4c4c; stroke-linecap: round"/>
   </g>
   <g id="patch_29">
    <path d="M 48.481556 109.575704 
Q 203.19828 140.343234 356.818442 170.892698 
" clip-path="url(#pe6f519879f)" style="fill: none; stroke: #4c4c4c; stroke-linecap: round"/>
    <path d="M 355.758515 170.070168 
L 356.818442 170.892698 
L 355.524462 171.247122 
" clip-path="url(#pe6f519879f)" style="fill: none; stroke: #4c4c4c; stroke-linecap: round"/>
   </g>
   <g id="patch_30">
    <path d="M 48.13871 110.804423 
Q 148.793605 146.8343 248.39587 182.487384 
" clip-path="url(#pe6f519879f)" style="fill: none; stroke: #4c4c4c; stroke-linecap: round"/>
    <path d="M 247.468279 181.518067 
L 248.39587 182.487384 
L 247.063862 182.647866 
" clip-path="url(#pe6f519879f)" style="fill: none; stroke: #4c4c4c; stroke-linecap: round"/>
   </g>
   <g id="patch_31">
    <path d="M 48.410995 109.896726 
Q 148.794598 133.851904 248.090704 157.547566 
" clip-path="url(#pe6f519879f)" style="fill: none; stroke: #4c4c4c; stroke-linecap: round"/>
    <path d="M 247.06275 156.685411 
L 248.090704 157.547566 
L 246.784208 157.852636 
" clip-path="url(#pe6f519879f)" style="fill: none; stroke: #4c4c4c; stroke-linecap: round"/>
   </g>
   <g id="patch_32">
    <path d="M 48.237496 110.51163 
Q 121.591731 133.851614 193.880563 156.852606 
" clip-path="url(#pe6f519879f)" style="fill: none; stroke: #4c4c4c; stroke-linecap: round"/>
    <path d="M 192.918974 155.917006 
L 193.880563 156.852606 
L 192.55513 157.060517 
" clip-path="url(#pe6f519879f)" style="fill: none; stroke: #4c4c4c; stroke-linecap: round"/>
   </g>
   <g id="patch_33">
    <path d="M 48.332132 84.244384 
Q 203.20044 127.361129 356.991679 170.178008 
" clip-path="url(#pe6f519879f)" style="fill: none; stroke: #4c4c4c; stroke-linecap: round"/>
    <path d="M 355.996571 169.278142 
L 356.991679 170.178008 
L 355.674721 170.434175 
" clip-path="url(#pe6f519879f)" style="fill: none; stroke: #4c4c4c; stroke-linecap: round"/>
   </g>
   <g id="patch_34">
    <path d="M 47.800015 85.650007 
Q 148.793738 133.851557 248.778456 181.571536 
" clip-path="url(#pe6f519879f)" style="fill: none; stroke: #4c4c4c; stroke-linecap: round"/>
    <path d="M 247.953917 180.513172 
L 248.778456 181.571536 
L 247.437041 181.596149 
" clip-path="url(#pe6f519879f)" style="fill: none; stroke: #4c4c4c; stroke-linecap: round"/>
   </g>
   <g id="patch_35">
    <path d="M 48.142861 58.875029 
Q 203.200451 114.378599 357.205412 169.505374 
" clip-path="url(#pe6f519879f)" style="fill: none; stroke: #4c4c4c; stroke-linecap: round"/>
    <path d="M 356.277821 168.536058 
L 357.205412 169.505374 
L 355.873404 169.665857 
" clip-path="url(#pe6f519879f)" style="fill: none; stroke: #4c4c4c; stroke-linecap: round"/>
   </g>
   <g id="patch_36">
    <path d="M 47.421473 60.390994 
Q 148.79305 120.868356 249.20448 180.772902 
" clip-path="url(#pe6f519879f)" style="fill: none; stroke: #4c4c4c; stroke-linecap: round"/>
    <path d="M 248.481347 179.642823 
L 249.20448 180.772902 
L 247.866537 180.673361 
" clip-path="url(#pe6f519879f)" style="fill: none; stroke: #4c4c4c; stroke-linecap: round"/>
   </g>
   <g id="patch_37">
    <path d="M 44.434644 63.385483 
Q 67.189068 101.395712 89.369227 138.446661 
" clip-path="url(#pe6f519879f)" style="fill: none; stroke: #4c4c4c; stroke-linecap: round"/>
    <path d="M 89.267667 137.108869 
L 89.369227 138.446661 
L 88.238058 137.725234 
" clip-path="url(#pe6f519879f)" style="fill: none; stroke: #4c4c4c; stroke-linecap: round"/>
   </g>
   <g id="patch_38">
    <path d="M 45.550347 62.593873 
Q 67.187716 88.411188 88.106931 113.371615 
" clip-path="url(#pe6f519879f)" style="fill: none; stroke: #4c4c4c; stroke-linecap: round"/>
    <path d="M 87.795982 112.066506 
L 88.106931 113.371615 
L 86.876274 112.837309 
" clip-path="url(#pe6f519879f)" style="fill: none; stroke: #4c4c4c; stroke-linecap: round"/>
   </g>
   <g id="patch_39">
    <path d="M 47.918724 33.46031 
Q 203.197287 101.394681 357.451555 168.880923 
" clip-path="url(#pe6f519879f)" style="fill: none; stroke: #4c4c4c; stroke-linecap: round"/>
    <path d="M 356.592657 167.850246 
L 357.451555 168.880923 
L 356.111675 168.949635 
" clip-path="url(#pe6f519879f)" style="fill: none; stroke: #4c4c4c; stroke-linecap: round"/>
   </g>
   <g id="patch_40">
    <path d="M 47.029649 35.032139 
Q 148.795843 107.887482 249.652953 180.092004 
" clip-path="url(#pe6f519879f)" style="fill: none; stroke: #4c4c4c; stroke-linecap: round"/>
    <path d="M 249.02649 178.905605 
L 249.652953 180.092004 
L 248.327956 179.881335 
" clip-path="url(#pe6f519879f)" style="fill: none; stroke: #4c4c4c; stroke-linecap: round"/>
   </g>
   <g id="patch_41">
    <path d="M 46.250151 35.968758 
Q 121.592883 107.886821 196.126879 179.032908 
" clip-path="url(#pe6f519879f)" style="fill: none; stroke: #4c4c4c; stroke-linecap: round"/>
    <path d="M 195.673138 177.770323 
L 196.126879 179.032908 
L 194.844567 178.63835 
" clip-path="url(#pe6f519879f)" style="fill: none; stroke: #4c4c4c; stroke-linecap: round"/>
   </g>
   <g id="patch_42">
    <path d="M 46.763175 35.380399 
Q 121.592286 94.903556 195.546422 153.730709 
" clip-path="url(#pe6f519879f)" style="fill: none; stroke: #4c4c4c; stroke-linecap: round"/>
    <path d="M 194.980814 152.51412 
L 195.546422 153.730709 
L 194.233786 153.453241 
" clip-path="url(#pe6f519879f)" style="fill: none; stroke: #4c4c4c; stroke-linecap: round"/>
   </g>
   <g id="patch_43">
    <path d="M 103.053852 224.730879 
Q 121.59265 224.730879 139.013414 224.730879 
" clip-path="url(#pe6f519879f)" style="fill: none; stroke: #4c4c4c; stroke-linecap: round"/>
    <path d="M 137.813414 224.130879 
L 139.013414 224.730879 
L 137.813414 225.330879 
" clip-path="url(#pe6f519879f)" style="fill: none; stroke: #4c4c4c; stroke-linecap: round"/>
   </g>
   <g id="patch_44">
    <path d="M 102.203793 176.529045 
Q 121.590451 185.781769 139.968105 194.552921 
" clip-path="url(#pe6f519879f)" style="fill: none; stroke: #4c4c4c; stroke-linecap: round"/>
    <path d="M 139.143565 193.494557 
L 139.968105 194.552921 
L 138.62669 194.577535 
" clip-path="url(#pe6f519879f)" style="fill: none; stroke: #4c4c4c; stroke-linecap: round"/>
   </g>
   <g id="patch_45">
    <path d="M 103.053852 172.8 
Q 121.59265 172.8 139.013414 172.8 
" clip-path="url(#pe6f519879f)" style="fill: none; stroke: #4c4c4c; stroke-linecap: round"/>
    <path d="M 137.813414 172.2 
L 139.013414 172.8 
L 137.813414 173.4 
" clip-path="url(#pe6f519879f)" style="fill: none; stroke: #4c4c4c; stroke-linecap: round"/>
   </g>
   <g id="patch_46">
    <path d="M 102.712666 248.313169 
Q 230.398545 211.748576 357.009591 175.491776 
" clip-path="url(#pe6f519879f)" style="fill: none; stroke: #4c4c4c; stroke-linecap: round"/>
    <path d="M 355.690782 175.245319 
L 357.009591 175.491776 
L 356.02114 176.39895 
" clip-path="url(#pe6f519879f)" style="fill: none; stroke: #4c4c4c; stroke-linecap: round"/>
   </g>
   <g id="patch_47">
    <path d="M 101.958903 99.117875 
Q 175.99833 140.344375 249.060944 181.026966 
" clip-path="url(#pe6f519879f)" style="fill: none; stroke: #4c4c4c; stroke-linecap: round"/>
    <path d="M 248.304409 179.91897 
L 249.060944 181.026966 
L 247.720627 180.967397 
" clip-path="url(#pe6f519879f)" style="fill: none; stroke: #4c4c4c; stroke-linecap: round"/>
   </g>
   <g id="patch_48">
    <path d="M 100.65642 100.884734 
Q 121.591887 120.86859 141.718619 140.08047 
" clip-path="url(#pe6f519879f)" style="fill: none; stroke: #4c4c4c; stroke-linecap: round"/>
    <path d="M 141.264878 138.817885 
L 141.718619 140.08047 
L 140.436307 139.685912 
" clip-path="url(#pe6f519879f)" style="fill: none; stroke: #4c4c4c; stroke-linecap: round"/>
   </g>
   <g id="patch_49">
    <path d="M 103.022307 198.078823 
Q 257.599637 185.782899 411.062454 173.575629 
" clip-path="url(#pe6f519879f)" style="fill: none; stroke: #4c4c4c; stroke-linecap: round"/>
    <path d="M 409.818656 173.072673 
L 411.062454 173.575629 
L 409.91381 174.268894 
" clip-path="url(#pe6f519879f)" style="fill: none; stroke: #4c4c4c; stroke-linecap: round"/>
   </g>
   <g id="patch_50">
    <path d="M 102.203793 143.105515 
Q 121.590451 133.852792 139.968105 125.081639 
" clip-path="url(#pe6f519879f)" style="fill: none; stroke: #4c4c4c; stroke-linecap: round"/>
    <path d="M 138.62669 125.057026 
L 139.968105 125.081639 
L 139.143565 126.140003 
" clip-path="url(#pe6f519879f)" style="fill: none; stroke: #4c4c4c; stroke-linecap: round"/>
   </g>
   <g id="patch_51">
    <path d="M 102.542488 123.787143 
Q 148.79253 140.342555 193.989944 156.521175 
" clip-path="url(#pe6f519879f)" style="fill: none; stroke: #4c4c4c; stroke-linecap: round"/>
    <path d="M 193.062353 155.551858 
L 193.989944 156.521175 
L 192.657936 156.681658 
" clip-path="url(#pe6f519879f)" style="fill: none; stroke: #4c4c4c; stroke-linecap: round"/>
   </g>
   <g id="patch_52">
    <path d="M 156.946266 221.812857 
Q 203.196308 205.257445 248.393722 189.078825 
" clip-path="url(#pe6f519879f)" style="fill: none; stroke: #4c4c4c; stroke-linecap: round"/>
    <path d="M 247.061714 188.918342 
L 248.393722 189.078825 
L 247.466131 190.048142 
" clip-path="url(#pe6f519879f)" style="fill: none; stroke: #4c4c4c; stroke-linecap: round"/>
   </g>
   <g id="patch_53">
    <path d="M 157.391219 197.739675 
Q 257.599473 185.783008 356.697568 173.958803 
" clip-path="url(#pe6f519879f)" style="fill: none; stroke: #4c4c4c; stroke-linecap: round"/>
    <path d="M 355.434934 173.505203 
L 356.697568 173.958803 
L 355.577107 174.696751 
" clip-path="url(#pe6f519879f)" style="fill: none; stroke: #4c4c4c; stroke-linecap: round"/>
   </g>
   <g id="patch_54">
    <path d="M 154.357903 127.507471 
Q 175.995272 153.324787 196.914487 178.285214 
" clip-path="url(#pe6f519879f)" style="fill: none; stroke: #4c4c4c; stroke-linecap: round"/>
    <path d="M 196.603538 176.980105 
L 196.914487 178.285214 
L 195.68383 177.750908 
" clip-path="url(#pe6f519879f)" style="fill: none; stroke: #4c4c4c; stroke-linecap: round"/>
   </g>
   <g id="patch_55">
    <path d="M 157.4568 172.8 
Q 284.805078 172.8 411.035321 172.8 
" clip-path="url(#pe6f519879f)" style="fill: none; stroke: #4c4c4c; stroke-linecap: round"/>
    <path d="M 409.835321 172.2 
L 411.035321 172.8 
L 409.835321 173.4 
" clip-path="url(#pe6f519879f)" style="fill: none; stroke: #4c4c4c; stroke-linecap: round"/>
   </g>
   <g id="patch_56">
    <path d="M 157.218551 148.844885 
Q 175.997373 153.326195 193.688698 157.547989 
" clip-path="url(#pe6f519879f)" style="fill: none; stroke: #4c4c4c; stroke-linecap: round"/>
    <path d="M 192.660744 156.685834 
L 193.688698 157.547989 
L 192.382202 157.853059 
" clip-path="url(#pe6f519879f)" style="fill: none; stroke: #4c4c4c; stroke-linecap: round"/>
   </g>
   <g id="patch_57">
    <path d="M 211.861408 185.78272 
Q 230.400206 185.78272 247.82097 185.78272 
" clip-path="url(#pe6f519879f)" style="fill: none; stroke: #4c4c4c; stroke-linecap: round"/>
    <path d="M 246.62097 185.18272 
L 247.82097 185.78272 
L 246.62097 186.38272 
" clip-path="url(#pe6f519879f)" style="fill: none; stroke: #4c4c4c; stroke-linecap: round"/>
   </g>
   <g id="patch_58">
    <path d="M 211.841485 185.267064 
Q 312.005131 179.291392 411.052728 173.382302 
" clip-path="url(#pe6f519879f)" style="fill: none; stroke: #4c4c4c; stroke-linecap: round"/>
    <path d="M 409.819126 172.854831 
L 411.052728 173.382302 
L 409.89059 174.052701 
" clip-path="url(#pe6f519879f)" style="fill: none; stroke: #4c4c4c; stroke-linecap: round"/>
   </g>
   <g id="patch_59">
    <path d="M 211.794997 160.843045 
Q 257.60205 166.308659 302.298944 171.641811 
" clip-path="url(#pe6f519879f)" style="fill: none; stroke: #4c4c4c; stroke-linecap: round"/>
    <path d="M 301.178483 170.903864 
L 302.298944 171.641811 
L 301.036309 172.095412 
" clip-path="url(#pe6f519879f)" style="fill: none; stroke: #4c4c4c; stroke-linecap: round"/>
   </g>
   <g id="patch_60">
    <path d="M 211.011349 163.546326 
Q 230.398007 172.799049 248.775661 181.570202 
" clip-path="url(#pe6f519879f)" style="fill: none; stroke: #4c4c4c; stroke-linecap: round"/>
    <path d="M 247.951121 180.511838 
L 248.775661 181.570202 
L 247.434246 181.594815 
" clip-path="url(#pe6f519879f)" style="fill: none; stroke: #4c4c4c; stroke-linecap: round"/>
   </g>
   <g id="patch_61">
    <path d="M 211.861408 159.81728 
Q 230.400206 159.81728 247.82097 159.81728 
" clip-path="url(#pe6f519879f)" style="fill: none; stroke: #4c4c4c; stroke-linecap: round"/>
    <path d="M 246.62097 159.21728 
L 247.82097 159.81728 
L 246.62097 160.41728 
" clip-path="url(#pe6f519879f)" style="fill: none; stroke: #4c4c4c; stroke-linecap: round"/>
   </g>
   <g id="patch_62">
    <path d="M 266.233641 185.096103 
Q 339.204657 179.29159 411.06116 173.575732 
" clip-path="url(#pe6f519879f)" style="fill: none; stroke: #4c4c4c; stroke-linecap: round"/>
    <path d="M 409.817362 173.072776 
L 411.06116 173.575732 
L 409.912516 174.268997 
" clip-path="url(#pe6f519879f)" style="fill: none; stroke: #4c4c4c; stroke-linecap: round"/>
   </g>
   <g id="patch_63">
    <path d="M 266.198775 160.843045 
Q 312.005828 166.308659 356.702722 171.641811 
" clip-path="url(#pe6f519879f)" style="fill: none; stroke: #4c4c4c; stroke-linecap: round"/>
    <path d="M 355.582261 170.903864 
L 356.702722 171.641811 
L 355.440088 172.095412 
" clip-path="url(#pe6f519879f)" style="fill: none; stroke: #4c4c4c; stroke-linecap: round"/>
   </g>
   <g id="patch_64">
    <path d="M 266.026107 161.827605 
Q 284.804929 166.308915 302.496254 170.530708 
" clip-path="url(#pe6f519879f)" style="fill: none; stroke: #4c4c4c; stroke-linecap: round"/>
    <path d="M 301.4683 169.668553 
L 302.496254 170.530708 
L 301.189758 170.835778 
" clip-path="url(#pe6f519879f)" style="fill: none; stroke: #4c4c4c; stroke-linecap: round"/>
   </g>
   <g id="patch_65">
    <path d="M 320.668964 172.8 
Q 339.207762 172.8 356.628526 172.8 
" clip-path="url(#pe6f519879f)" style="fill: none; stroke: #4c4c4c; stroke-linecap: round"/>
    <path d="M 355.428526 172.2 
L 356.628526 172.8 
L 355.428526 173.4 
" clip-path="url(#pe6f519879f)" style="fill: none; stroke: #4c4c4c; stroke-linecap: round"/>
   </g>
   <g id="patch_66">
    <path d="M 375.072742 172.8 
Q 393.61154 172.8 411.032304 172.8 
" clip-path="url(#pe6f519879f)" style="fill: none; stroke: #4c4c4c; stroke-linecap: round"/>
    <path d="M 409.832304 172.2 
L 411.032304 172.8 
L 409.832304 173.4 
" clip-path="url(#pe6f519879f)" style="fill: none; stroke: #4c4c4c; stroke-linecap: round"/>
   </g>
   <g id="PathCollection_1">
    <path d="M 39.986777 324.270171 
C 42.283503 324.270171 44.486471 323.357672 46.110501 321.733642 
C 47.734532 320.109611 48.647031 317.906644 48.647031 315.609917 
C 48.647031 313.313191 47.734532 311.110224 46.110501 309.486193 
C 44.486471 307.862162 42.283503 306.949663 39.986777 306.949663 
C 37.690051 306.949663 35.487083 307.862162 33.863053 309.486193 
C 32.239022 311.110224 31.326523 313.313191 31.326523 315.609917 
C 31.326523 317.906644 32.239022 320.109611 33.863053 321.733642 
C 35.487083 323.357672 37.690051 324.270171 39.986777 324.270171 
z
" clip-path="url(#pe6f519879f)" style="fill: #ffff00; stroke: #000000"/>
    <path d="M 39.986777 298.304732 
C 42.283503 298.304732 44.486471 297.392233 46.110501 295.768202 
C 47.734532 294.144172 48.647031 291.941204 48.647031 289.644478 
C 48.647031 287.347752 47.734532 285.144784 46.110501 283.520753 
C 44.486471 281.896723 42.283503 280.984224 39.986777 280.984224 
C 37.690051 280.984224 35.487083 281.896723 33.863053 283.520753 
C 32.239022 285.144784 31.326523 287.347752 31.326523 289.644478 
C 31.326523 291.941204 32.239022 294.144172 33.863053 295.768202 
C 35.487083 297.392233 37.690051 298.304732 39.986777 298.304732 
z
" clip-path="url(#pe6f519879f)" style="fill: #ffff00; stroke: #000000"/>
    <path d="M 39.986777 272.339292 
C 42.283503 272.339292 44.486471 271.426793 46.110501 269.802763 
C 47.734532 268.178732 48.647031 265.975765 48.647031 263.679038 
C 48.647031 261.382312 47.734532 259.179345 46.110501 257.555314 
C 44.486471 255.931283 42.283503 255.018784 39.986777 255.018784 
C 37.690051 255.018784 35.487083 255.931283 33.863053 257.555314 
C 32.239022 259.179345 31.326523 261.382312 31.326523 263.679038 
C 31.326523 265.975765 32.239022 268.178732 33.863053 269.802763 
C 35.487083 271.426793 37.690051 272.339292 39.986777 272.339292 
z
" clip-path="url(#pe6f519879f)" style="fill: #ffff00; stroke: #000000"/>
    <path d="M 39.986777 246.373853 
C 42.283503 246.373853 44.486471 245.461354 46.110501 243.837323 
C 47.734532 242.213292 48.647031 240.010325 48.647031 237.713599 
C 48.647031 235.416873 47.734532 233.213905 46.110501 231.589874 
C 44.486471 229.965844 42.283503 229.053345 39.986777 229.053345 
C 37.690051 229.053345 35.487083 229.965844 33.863053 231.589874 
C 32.239022 233.213905 31.326523 235.416873 31.326523 237.713599 
C 31.326523 240.010325 32.239022 242.213292 33.863053 243.837323 
C 35.487083 245.461354 37.690051 246.373853 39.986777 246.373853 
z
" clip-path="url(#pe6f519879f)" style="fill: #ffff00; stroke: #000000"/>
    <path d="M 39.986777 220.408413 
C 42.283503 220.408413 44.486471 219.495914 46.110501 217.871884 
C 47.734532 216.247853 48.647031 214.044885 48.647031 211.748159 
C 48.647031 209.451433 47.734532 207.248466 46.110501 205.624435 
C 44.486471 204.000404 42.283503 203.087905 39.986777 203.087905 
C 37.690051 203.087905 35.487083 204.000404 33.863053 205.624435 
C 32.239022 207.248466 31.326523 209.451433 31.326523 211.748159 
C 31.326523 214.044885 32.239022 216.247853 33.863053 217.871884 
C 35.487083 219.495914 37.690051 220.408413 39.986777 220.408413 
z
" clip-path="url(#pe6f519879f)" style="fill: #ffff00; stroke: #000000"/>
    <path d="M 39.986777 194.442974 
C 42.283503 194.442974 44.486471 193.530475 46.110501 191.906444 
C 47.734532 190.282413 48.647031 188.079446 48.647031 185.78272 
C 48.647031 183.485994 47.734532 181.283026 46.110501 179.658995 
C 44.486471 178.034965 42.283503 177.122466 39.986777 177.122466 
C 37.690051 177.122466 35.487083 178.034965 33.863053 179.658995 
C 32.239022 181.283026 31.326523 183.485994 31.326523 185.78272 
C 31.326523 188.079446 32.239022 190.282413 33.863053 191.906444 
C 35.487083 193.530475 37.690051 194.442974 39.986777 194.442974 
z
" clip-path="url(#pe6f519879f)" style="fill: #ffff00; stroke: #000000"/>
    <path d="M 39.986777 168.477534 
C 42.283503 168.477534 44.486471 167.565035 46.110501 165.941005 
C 47.734532 164.316974 48.647031 162.114006 48.647031 159.81728 
C 48.647031 157.520554 47.734532 155.317587 46.110501 153.693556 
C 44.486471 152.069525 42.283503 151.157026 39.986777 151.157026 
C 37.690051 151.157026 35.487083 152.069525 33.863053 153.693556 
C 32.239022 155.317587 31.326523 157.520554 31.326523 159.81728 
C 31.326523 162.114006 32.239022 164.316974 33.863053 165.941005 
C 35.487083 167.565035 37.690051 168.477534 39.986777 168.477534 
z
" clip-path="url(#pe6f519879f)" style="fill: #ffff00; stroke: #000000"/>
    <path d="M 39.986777 142.512095 
C 42.283503 142.512095 44.486471 141.599596 46.110501 139.975565 
C 47.734532 138.351534 48.647031 136.148567 48.647031 133.851841 
C 48.647031 131.555115 47.734532 129.352147 46.110501 127.728116 
C 44.486471 126.104086 42.283503 125.191587 39.986777 125.191587 
C 37.690051 125.191587 35.487083 126.104086 33.863053 127.728116 
C 32.239022 129.352147 31.326523 131.555115 31.326523 133.851841 
C 31.326523 136.148567 32.239022 138.351534 33.863053 139.975565 
C 35.487083 141.599596 37.690051 142.512095 39.986777 142.512095 
z
" clip-path="url(#pe6f519879f)" style="fill: #ffff00; stroke: #000000"/>
    <path d="M 39.986777 116.546655 
C 42.283503 116.546655 44.486471 115.634156 46.110501 114.010126 
C 47.734532 112.386095 48.647031 110.183127 48.647031 107.886401 
C 48.647031 105.589675 47.734532 103.386708 46.110501 101.762677 
C 44.486471 100.138646 42.283503 99.226147 39.986777 99.226147 
C 37.690051 99.226147 35.487083 100.138646 33.863053 101.762677 
C 32.239022 103.386708 31.326523 105.589675 31.326523 107.886401 
C 31.326523 110.183127 32.239022 112.386095 33.863053 114.010126 
C 35.487083 115.634156 37.690051 116.546655 39.986777 116.546655 
z
" clip-path="url(#pe6f519879f)" style="fill: #ffff00; stroke: #000000"/>
    <path d="M 39.986777 90.581216 
C 42.283503 90.581216 44.486471 89.668717 46.110501 88.044686 
C 47.734532 86.420655 48.647031 84.217688 48.647031 81.920962 
C 48.647031 79.624235 47.734532 77.421268 46.110501 75.797237 
C 44.486471 74.173207 42.283503 73.260708 39.986777 73.260708 
C 37.690051 73.260708 35.487083 74.173207 33.863053 75.797237 
C 32.239022 77.421268 31.326523 79.624235 31.326523 81.920962 
C 31.326523 84.217688 32.239022 86.420655 33.863053 88.044686 
C 35.487083 89.668717 37.690051 90.581216 39.986777 90.581216 
z
" clip-path="url(#pe6f519879f)" style="fill: #ffff00; stroke: #000000"/>
    <path d="M 39.986777 64.615776 
C 42.283503 64.615776 44.486471 63.703277 46.110501 62.079247 
C 47.734532 60.455216 48.647031 58.252248 48.647031 55.955522 
C 48.647031 53.658796 47.734532 51.455828 46.110501 49.831798 
C 44.486471 48.207767 42.283503 47.295268 39.986777 47.295268 
C 37.690051 47.295268 35.487083 48.207767 33.863053 49.831798 
C 32.239022 51.455828 31.326523 53.658796 31.326523 55.955522 
C 31.326523 58.252248 32.239022 60.455216 33.863053 62.079247 
C 35.487083 63.703277 37.690051 64.615776 39.986777 64.615776 
z
" clip-path="url(#pe6f519879f)" style="fill: #ffff00; stroke: #000000"/>
    <path d="M 39.986777 38.650337 
C 42.283503 38.650337 44.486471 37.737838 46.110501 36.113807 
C 47.734532 34.489776 48.647031 32.286809 48.647031 29.990083 
C 48.647031 27.693356 47.734532 25.490389 46.110501 23.866358 
C 44.486471 22.242328 42.283503 21.329829 39.986777 21.329829 
C 37.690051 21.329829 35.487083 22.242328 33.863053 23.866358 
C 32.239022 25.490389 31.326523 27.693356 31.326523 29.990083 
C 31.326523 32.286809 32.239022 34.489776 33.863053 36.113807 
C 35.487083 37.737838 37.690051 38.650337 39.986777 38.650337 
z
" clip-path="url(#pe6f519879f)" style="fill: #ffff00; stroke: #000000"/>
    <path d="M 94.390555 233.391133 
C 96.687281 233.391133 98.890249 232.478634 100.514279 230.854603 
C 102.13831 229.230573 103.050809 227.027605 103.050809 224.730879 
C 103.050809 222.434153 102.13831 220.231185 100.514279 218.607155 
C 98.890249 216.983124 96.687281 216.070625 94.390555 216.070625 
C 92.093829 216.070625 89.890861 216.983124 88.266831 218.607155 
C 86.6428 220.231185 85.730301 222.434153 85.730301 224.730879 
C 85.730301 227.027605 86.6428 229.230573 88.266831 230.854603 
C 89.890861 232.478634 92.093829 233.391133 94.390555 233.391133 
z
" clip-path="url(#pe6f519879f)" style="fill: #ffffff; stroke: #000000"/>
    <path d="M 94.390555 181.460254 
C 96.687281 181.460254 98.890249 180.547755 100.514279 178.923724 
C 102.13831 177.299694 103.050809 175.096726 103.050809 172.8 
C 103.050809 170.503274 102.13831 168.300306 100.514279 166.676276 
C 98.890249 165.052245 96.687281 164.139746 94.390555 164.139746 
C 92.093829 164.139746 89.890861 165.052245 88.266831 166.676276 
C 86.6428 168.300306 85.730301 170.503274 85.730301 172.8 
C 85.730301 175.096726 86.6428 177.299694 88.266831 178.923724 
C 89.890861 180.547755 92.093829 181.460254 94.390555 181.460254 
z
" clip-path="url(#pe6f519879f)" style="fill: #ffffff; stroke: #000000"/>
    <path d="M 94.390555 259.356573 
C 96.687281 259.356573 98.890249 258.444074 100.514279 256.820043 
C 102.13831 255.196012 103.050809 252.993045 103.050809 250.696319 
C 103.050809 248.399592 102.13831 246.196625 100.514279 244.572594 
C 98.890249 242.948564 96.687281 242.036065 94.390555 242.036065 
C 92.093829 242.036065 89.890861 242.948564 88.266831 244.572594 
C 86.6428 246.196625 85.730301 248.399592 85.730301 250.696319 
C 85.730301 252.993045 86.6428 255.196012 88.266831 256.820043 
C 89.890861 258.444074 92.093829 259.356573 94.390555 259.356573 
z
" clip-path="url(#pe6f519879f)" style="fill: #ffffff; stroke: #000000"/>
    <path d="M 94.390555 103.563935 
C 96.687281 103.563935 98.890249 102.651436 100.514279 101.027406 
C 102.13831 99.403375 103.050809 97.200408 103.050809 94.903681 
C 103.050809 92.606955 102.13831 90.403988 100.514279 88.779957 
C 98.890249 87.155926 96.687281 86.243427 94.390555 86.243427 
C 92.093829 86.243427 89.890861 87.155926 88.266831 88.779957 
C 86.6428 90.403988 85.730301 92.606955 85.730301 94.903681 
C 85.730301 97.200408 86.6428 99.403375 88.266831 101.027406 
C 89.890861 102.651436 92.093829 103.563935 94.390555 103.563935 
z
" clip-path="url(#pe6f519879f)" style="fill: #ffffff; stroke: #000000"/>
    <path d="M 94.390555 207.425694 
C 96.687281 207.425694 98.890249 206.513195 100.514279 204.889164 
C 102.13831 203.265133 103.050809 201.062166 103.050809 198.76544 
C 103.050809 196.468713 102.13831 194.265746 100.514279 192.641715 
C 98.890249 191.017684 96.687281 190.105185 94.390555 190.105185 
C 92.093829 190.105185 89.890861 191.017684 88.266831 192.641715 
C 86.6428 194.265746 85.730301 196.468713 85.730301 198.76544 
C 85.730301 201.062166 86.6428 203.265133 88.266831 204.889164 
C 89.890861 206.513195 92.093829 207.425694 94.390555 207.425694 
z
" clip-path="url(#pe6f519879f)" style="fill: #ffffff; stroke: #000000"/>
    <path d="M 94.390555 155.494815 
C 96.687281 155.494815 98.890249 154.582316 100.514279 152.958285 
C 102.13831 151.334254 103.050809 149.131287 103.050809 146.83456 
C 103.050809 144.537834 102.13831 142.334867 100.514279 140.710836 
C 98.890249 139.086805 96.687281 138.174306 94.390555 138.174306 
C 92.093829 138.174306 89.890861 139.086805 88.266831 140.710836 
C 86.6428 142.334867 85.730301 144.537834 85.730301 146.83456 
C 85.730301 149.131287 86.6428 151.334254 88.266831 152.958285 
C 89.890861 154.582316 92.093829 155.494815 94.390555 155.494815 
z
" clip-path="url(#pe6f519879f)" style="fill: #ffffff; stroke: #000000"/>
    <path d="M 94.390555 129.529375 
C 96.687281 129.529375 98.890249 128.616876 100.514279 126.992845 
C 102.13831 125.368815 103.050809 123.165847 103.050809 120.869121 
C 103.050809 118.572395 102.13831 116.369427 100.514279 114.745397 
C 98.890249 113.121366 96.687281 112.208867 94.390555 112.208867 
C 92.093829 112.208867 89.890861 113.121366 88.266831 114.745397 
C 86.6428 116.369427 85.730301 118.572395 85.730301 120.869121 
C 85.730301 123.165847 86.6428 125.368815 88.266831 126.992845 
C 89.890861 128.616876 92.093829 129.529375 94.390555 129.529375 
z
" clip-path="url(#pe6f519879f)" style="fill: #ffffff; stroke: #000000"/>
    <path d="M 148.794333 233.391133 
C 151.091059 233.391133 153.294027 232.478634 154.918057 230.854603 
C 156.542088 229.230573 157.454587 227.027605 157.454587 224.730879 
C 157.454587 222.434153 156.542088 220.231185 154.918057 218.607155 
C 153.294027 216.983124 151.091059 216.070625 148.794333 216.070625 
C 146.497607 216.070625 144.294639 216.983124 142.670609 218.607155 
C 141.046578 220.231185 140.134079 222.434153 140.134079 224.730879 
C 140.134079 227.027605 141.046578 229.230573 142.670609 230.854603 
C 144.294639 232.478634 146.497607 233.391133 148.794333 233.391133 
z
" clip-path="url(#pe6f519879f)" style="fill: #ffffff; stroke: #000000"/>
    <path d="M 148.794333 207.425694 
C 151.091059 207.425694 153.294027 206.513195 154.918057 204.889164 
C 156.542088 203.265133 157.454587 201.062166 157.454587 198.76544 
C 157.454587 196.468713 156.542088 194.265746 154.918057 192.641715 
C 153.294027 191.017684 151.091059 190.105185 148.794333 190.105185 
C 146.497607 190.105185 144.294639 191.017684 142.670609 192.641715 
C 141.046578 194.265746 140.134079 196.468713 140.134079 198.76544 
C 140.134079 201.062166 141.046578 203.265133 142.670609 204.889164 
C 144.294639 206.513195 146.497607 207.425694 148.794333 207.425694 
z
" clip-path="url(#pe6f519879f)" style="fill: #ffffff; stroke: #000000"/>
    <path d="M 148.794333 129.529375 
C 151.091059 129.529375 153.294027 128.616876 154.918057 126.992845 
C 156.542088 125.368815 157.454587 123.165847 157.454587 120.869121 
C 157.454587 118.572395 156.542088 116.369427 154.918057 114.745397 
C 153.294027 113.121366 151.091059 112.208867 148.794333 112.208867 
C 146.497607 112.208867 144.294639 113.121366 142.670609 114.745397 
C 141.046578 116.369427 140.134079 118.572395 140.134079 120.869121 
C 140.134079 123.165847 141.046578 125.368815 142.670609 126.992845 
C 144.294639 128.616876 146.497607 129.529375 148.794333 129.529375 
z
" clip-path="url(#pe6f519879f)" style="fill: #ffffff; stroke: #000000"/>
    <path d="M 148.794333 181.460254 
C 151.091059 181.460254 153.294027 180.547755 154.918057 178.923724 
C 156.542088 177.299694 157.454587 175.096726 157.454587 172.8 
C 157.454587 170.503274 156.542088 168.300306 154.918057 166.676276 
C 153.294027 165.052245 151.091059 164.139746 148.794333 164.139746 
C 146.497607 164.139746 144.294639 165.052245 142.670609 166.676276 
C 141.046578 168.300306 140.134079 170.503274 140.134079 172.8 
C 140.134079 175.096726 141.046578 177.299694 142.670609 178.923724 
C 144.294639 180.547755 146.497607 181.460254 148.794333 181.460254 
z
" clip-path="url(#pe6f519879f)" style="fill: #ffffff; stroke: #000000"/>
    <path d="M 148.794333 155.494815 
C 151.091059 155.494815 153.294027 154.582316 154.918057 152.958285 
C 156.542088 151.334254 157.454587 149.131287 157.454587 146.83456 
C 157.454587 144.537834 156.542088 142.334867 154.918057 140.710836 
C 153.294027 139.086805 151.091059 138.174306 148.794333 138.174306 
C 146.497607 138.174306 144.294639 139.086805 142.670609 140.710836 
C 141.046578 142.334867 140.134079 144.537834 140.134079 146.83456 
C 140.134079 149.131287 141.046578 151.334254 142.670609 152.958285 
C 144.294639 154.582316 146.497607 155.494815 148.794333 155.494815 
z
" clip-path="url(#pe6f519879f)" style="fill: #ffffff; stroke: #000000"/>
    <path d="M 203.198111 194.442974 
C 205.494837 194.442974 207.697805 193.530475 209.321835 191.906444 
C 210.945866 190.282413 211.858365 188.079446 211.858365 185.78272 
C 211.858365 183.485994 210.945866 181.283026 209.321835 179.658995 
C 207.697805 178.034965 205.494837 177.122466 203.198111 177.122466 
C 200.901385 177.122466 198.698417 178.034965 197.074387 179.658995 
C 195.450356 181.283026 194.537857 183.485994 194.537857 185.78272 
C 194.537857 188.079446 195.450356 190.282413 197.074387 191.906444 
C 198.698417 193.530475 200.901385 194.442974 203.198111 194.442974 
z
" clip-path="url(#pe6f519879f)" style="fill: #ffffff; stroke: #000000"/>
    <path d="M 203.198111 168.477534 
C 205.494837 168.477534 207.697805 167.565035 209.321835 165.941005 
C 210.945866 164.316974 211.858365 162.114006 211.858365 159.81728 
C 211.858365 157.520554 210.945866 155.317587 209.321835 153.693556 
C 207.697805 152.069525 205.494837 151.157026 203.198111 151.157026 
C 200.901385 151.157026 198.698417 152.069525 197.074387 153.693556 
C 195.450356 155.317587 194.537857 157.520554 194.537857 159.81728 
C 194.537857 162.114006 195.450356 164.316974 197.074387 165.941005 
C 198.698417 167.565035 200.901385 168.477534 203.198111 168.477534 
z
" clip-path="url(#pe6f519879f)" style="fill: #ffffff; stroke: #000000"/>
    <path d="M 257.601889 194.442974 
C 259.898615 194.442974 262.101583 193.530475 263.725613 191.906444 
C 265.349644 190.282413 266.262143 188.079446 266.262143 185.78272 
C 266.262143 183.485994 265.349644 181.283026 263.725613 179.658995 
C 262.101583 178.034965 259.898615 177.122466 257.601889 177.122466 
C 255.305163 177.122466 253.102195 178.034965 251.478165 179.658995 
C 249.854134 181.283026 248.941635 183.485994 248.941635 185.78272 
C 248.941635 188.079446 249.854134 190.282413 251.478165 191.906444 
C 253.102195 193.530475 255.305163 194.442974 257.601889 194.442974 
z
" clip-path="url(#pe6f519879f)" style="fill: #ffffff; stroke: #000000"/>
    <path d="M 257.601889 168.477534 
C 259.898615 168.477534 262.101583 167.565035 263.725613 165.941005 
C 265.349644 164.316974 266.262143 162.114006 266.262143 159.81728 
C 266.262143 157.520554 265.349644 155.317587 263.725613 153.693556 
C 262.101583 152.069525 259.898615 151.157026 257.601889 151.157026 
C 255.305163 151.157026 253.102195 152.069525 251.478165 153.693556 
C 249.854134 155.317587 248.941635 157.520554 248.941635 159.81728 
C 248.941635 162.114006 249.854134 164.316974 251.478165 165.941005 
C 253.102195 167.565035 255.305163 168.477534 257.601889 168.477534 
z
" clip-path="url(#pe6f519879f)" style="fill: #ffffff; stroke: #000000"/>
    <path d="M 312.005667 181.460254 
C 314.302393 181.460254 316.505361 180.547755 318.129391 178.923724 
C 319.753422 177.299694 320.665921 175.096726 320.665921 172.8 
C 320.665921 170.503274 319.753422 168.300306 318.129391 166.676276 
C 316.505361 165.052245 314.302393 164.139746 312.005667 164.139746 
C 309.708941 164.139746 307.505973 165.052245 305.881943 166.676276 
C 304.257912 168.300306 303.345413 170.503274 303.345413 172.8 
C 303.345413 175.096726 304.257912 177.299694 305.881943 178.923724 
C 307.505973 180.547755 309.708941 181.460254 312.005667 181.460254 
z
" clip-path="url(#pe6f519879f)" style="fill: #ffffff; stroke: #000000"/>
    <path d="M 366.409445 181.460254 
C 368.706171 181.460254 370.909139 180.547755 372.533169 178.923724 
C 374.1572 177.299694 375.069699 175.096726 375.069699 172.8 
C 375.069699 170.503274 374.1572 168.300306 372.533169 166.676276 
C 370.909139 165.052245 368.706171 164.139746 366.409445 164.139746 
C 364.112719 164.139746 361.909751 165.052245 360.285721 166.676276 
C 358.66169 168.300306 357.749191 170.503274 357.749191 172.8 
C 357.749191 175.096726 358.66169 177.299694 360.285721 178.923724 
C 361.909751 180.547755 364.112719 181.460254 366.409445 181.460254 
z
" clip-path="url(#pe6f519879f)" style="fill: #ffffff; stroke: #000000"/>
    <path d="M 420.813223 181.460254 
C 423.109949 181.460254 425.312917 180.547755 426.936947 178.923724 
C 428.560978 177.299694 429.473477 175.096726 429.473477 172.8 
C 429.473477 170.503274 428.560978 168.300306 426.936947 166.676276 
C 425.312917 165.052245 423.109949 164.139746 420.813223 164.139746 
C 418.516497 164.139746 416.313529 165.052245 414.689499 166.676276 
C 413.065468 168.300306 412.152969 170.503274 412.152969 172.8 
C 412.152969 175.096726 413.065468 177.299694 414.689499 178.923724 
C 416.313529 180.547755 418.516497 181.460254 420.813223 181.460254 
z
" clip-path="url(#pe6f519879f)" style="fill: #0000ff; stroke: #000000"/>
   </g>
  </g>
 </g>
 <defs>
  <clipPath id="pe6f519879f">
   <rect x="0" y="0" width="460.8" height="345.6"/>
  </clipPath>
 </defs>
</svg>
