<?xml version="1.0" encoding="utf-8" standalone="no"?>
<!DOCTYPE svg PUBLIC "-//W3C//DTD SVG 1.1//EN"
  "http://www.w3.org/Graphics/SVG/1.1/DTD/svg11.dtd">
<svg xmlns:xlink="http://www.w3.org/1999/xlink" width="460.8pt" height="345.6pt" viewBox="0 0 460.8 345.6" xmlns="http://www.w3.org/2000/svg" version="1.1">
 <metadata>
  <rdf:RDF xmlns:dc="http://purl.org/dc/elements/1.1/" xmlns:cc="http://creativecommons.org/ns#" xmlns:rdf="http://www.w3.org/1999/02/22-rdf-syntax-ns#">
   <cc:Work>
    <dc:type rdf:resource="http://purl.org/dc/dcmitype/StillImage"/>
    <dc:date>2025-11-06T13:54:02.713798</dc:date>
    <dc:format>image/svg+xml</dc:format>
    <dc:creator>
     <cc:Agent>
      <dc:title>Matplotlib v3.10.5, https://matplotlib.org/</dc:title>
     </cc:Agent>
    </dc:creator>
   </cc:Work>
  </rdf:RDF>
 </metadata>
 <defs>
  <style type="text/css">*{stroke-linejoin: round; stroke-linecap: butt}</style>
 </defs>
 <g id="figure_1">
  <g id="patch_1">
   <path d="M 0 345.6 
L 460.8 345.6 
L 460.8 0 
L 0 0 
z
" style="fill: #ffffff"/>
  </g>
  <g id="axes_1">
   <g id="patch_2">
    <path d="M 47.65368 311.577325 
Q 156.353072 254.404269 264.062956 197.751667 
" clip-path="url(#p6dbbd64b79)" style="fill: none; stroke: #4c4c4c; stroke-linecap: round"/>
    <path d="M 262.721599 197.779253 
L 264.062956 197.751667 
L 263.28021 198.841305 
" clip-path="url(#p6dbbd64b79)" style="fill: none; stroke: #4c4c4c; stroke-linecap: round"/>
   </g>
   <g id="patch_3">
    <path d="M 48.035105 312.414258 
Q 219.820326 244.20542 390.566429 176.409173 
" clip-path="url(#p6dbbd64b79)" style="fill: none; stroke: #4c4c4c; stroke-linecap: round"/>
    <path d="M 389.229709 176.294363 
L 390.566429 176.409173 
L 389.672549 177.409663 
" clip-path="url(#p6dbbd64b79)" style="fill: none; stroke: #4c4c4c; stroke-linecap: round"/>
   </g>
   <g id="patch_4">
    <path d="M 48.095958 312.568974 
Q 230.401029 244.204573 411.659252 176.232739 
" clip-path="url(#p6dbbd64b79)" style="fill: none; stroke: #4c4c4c; stroke-linecap: round"/>
    <path d="M 410.324982 176.09229 
L 411.659252 176.232739 
L 410.746331 177.215885 
" clip-path="url(#p6dbbd64b79)" style="fill: none; stroke: #4c4c4c; stroke-linecap: round"/>
   </g>
   <g id="patch_5">
    <path d="M 44.91188 308.486107 
Q 61.142891 285.009109 76.738096 262.451759 
" clip-path="url(#p6dbbd64b79)" style="fill: none; stroke: #4c4c4c; stroke-linecap: round"/>
    <path d="M 75.562143 263.097619 
L 76.738096 262.451759 
L 76.549213 263.780037 
" clip-path="url(#p6dbbd64b79)" style="fill: none; stroke: #4c4c4c; stroke-linecap: round"/>
   </g>
   <g id="patch_6">
    <path d="M 48.35164 272.566495 
Q 230.400934 223.803292 411.370266 175.329364 
" clip-path="url(#p6dbbd64b79)" style="fill: none; stroke: #4c4c4c; stroke-linecap: round"/>
    <path d="M 410.055886 175.060278 
L 411.370266 175.329364 
L 410.36637 176.219416 
" clip-path="url(#p6dbbd64b79)" style="fill: none; stroke: #4c4c4c; stroke-linecap: round"/>
   </g>
   <g id="patch_7">
    <path d="M 47.61946 270.718146 
Q 135.19297 223.803766 221.780956 177.417345 
" clip-path="url(#p6dbbd64b79)" style="fill: none; stroke: #4c4c4c; stroke-linecap: round"/>
    <path d="M 220.439847 177.455123 
L 221.780956 177.417345 
L 221.006513 178.512899 
" clip-path="url(#p6dbbd64b79)" style="fill: none; stroke: #4c4c4c; stroke-linecap: round"/>
   </g>
   <g id="patch_8">
    <path d="M 43.973089 241.692138 
Q 50.566165 254.407355 56.64459 266.130033 
" clip-path="url(#p6dbbd64b79)" style="fill: none; stroke: #4c4c4c; stroke-linecap: round"/>
    <path d="M 56.624862 264.788538 
L 56.64459 266.130033 
L 55.559557 265.340918 
" clip-path="url(#p6dbbd64b79)" style="fill: none; stroke: #4c4c4c; stroke-linecap: round"/>
   </g>
   <g id="patch_9">
    <path d="M 41.10022 225.414835 
Q 50.565075 152.40024 59.886202 80.494401 
" clip-path="url(#p6dbbd64b79)" style="fill: none; stroke: #4c4c4c; stroke-linecap: round"/>
    <path d="M 59.136915 81.607312 
L 59.886202 80.494401 
L 60.326958 81.761577 
" clip-path="url(#p6dbbd64b79)" style="fill: none; stroke: #4c4c4c; stroke-linecap: round"/>
   </g>
   <g id="patch_10">
    <path d="M 48.523547 232.551565 
Q 219.820999 203.402208 390.01626 174.44041 
" clip-path="url(#p6dbbd64b79)" style="fill: none; stroke: #4c4c4c; stroke-linecap: round"/>
    <path d="M 388.732612 174.05022 
L 390.01626 174.44041 
L 388.93392 175.233215 
" clip-path="url(#p6dbbd64b79)" style="fill: none; stroke: #4c4c4c; stroke-linecap: round"/>
   </g>
   <g id="patch_11">
    <path d="M 48.646384 234.00425 
Q 50.564018 234.00425 51.363617 234.00425 
" clip-path="url(#p6dbbd64b79)" style="fill: none; stroke: #4c4c4c; stroke-linecap: round"/>
    <path d="M 50.163617 233.40425 
L 51.363617 234.00425 
L 50.163617 234.60425 
" clip-path="url(#p6dbbd64b79)" style="fill: none; stroke: #4c4c4c; stroke-linecap: round"/>
   </g>
   <g id="patch_12">
    <path d="M 43.975026 226.312627 
Q 71.722362 172.799907 98.955049 120.279726 
" clip-path="url(#p6dbbd64b79)" style="fill: none; stroke: #4c4c4c; stroke-linecap: round"/>
    <path d="M 97.870016 121.068841 
L 98.955049 120.279726 
L 98.935321 121.621221 
" clip-path="url(#p6dbbd64b79)" style="fill: none; stroke: #4c4c4c; stroke-linecap: round"/>
   </g>
   <g id="patch_13">
    <path d="M 45.303796 227.168082 
Q 71.723179 193.200304 97.456156 160.115049 
" clip-path="url(#p6dbbd64b79)" style="fill: none; stroke: #4c4c4c; stroke-linecap: round"/>
    <path d="M 96.245816 160.693907 
L 97.456156 160.115049 
L 97.193038 161.430636 
" clip-path="url(#p6dbbd64b79)" style="fill: none; stroke: #4c4c4c; stroke-linecap: round"/>
   </g>
   <g id="patch_14">
    <path d="M 48.63331 192.710962 
Q 219.820974 183.000737 389.892399 173.353829 
" clip-path="url(#p6dbbd64b79)" style="fill: none; stroke: #4c4c4c; stroke-linecap: round"/>
    <path d="M 388.660346 172.82275 
L 389.892399 173.353829 
L 388.728304 174.020824 
" clip-path="url(#p6dbbd64b79)" style="fill: none; stroke: #4c4c4c; stroke-linecap: round"/>
   </g>
   <g id="patch_15">
    <path d="M 48.645093 152.398583 
Q 103.457131 152.398583 157.151135 152.398583 
" clip-path="url(#p6dbbd64b79)" style="fill: none; stroke: #4c4c4c; stroke-linecap: round"/>
    <path d="M 155.951135 151.798583 
L 157.151135 152.398583 
L 155.951135 152.998583 
" clip-path="url(#p6dbbd64b79)" style="fill: none; stroke: #4c4c4c; stroke-linecap: round"/>
   </g>
   <g id="patch_16">
    <path d="M 48.609582 153.230068 
Q 145.7742 162.599513 241.825947 171.861646 
" clip-path="url(#p6dbbd64b79)" style="fill: none; stroke: #4c4c4c; stroke-linecap: round"/>
    <path d="M 240.689078 171.149236 
L 241.825947 171.861646 
L 240.573898 172.343696 
" clip-path="url(#p6dbbd64b79)" style="fill: none; stroke: #4c4c4c; stroke-linecap: round"/>
   </g>
   <g id="patch_17">
    <path d="M 47.788946 148.636823 
Q 61.14587 142.196878 73.495703 136.242494 
" clip-path="url(#p6dbbd64b79)" style="fill: none; stroke: #4c4c4c; stroke-linecap: round"/>
    <path d="M 72.154201 136.223192 
L 73.495703 136.242494 
L 72.67536 137.304114 
" clip-path="url(#p6dbbd64b79)" style="fill: none; stroke: #4c4c4c; stroke-linecap: round"/>
   </g>
   <g id="patch_18">
    <path d="M 48.630888 152.919545 
Q 209.242607 162.599269 368.738316 172.211734 
" clip-path="url(#p6dbbd64b79)" style="fill: none; stroke: #4c4c4c; stroke-linecap: round"/>
    <path d="M 367.576585 171.54063 
L 368.738316 172.211734 
L 367.504394 172.738457 
" clip-path="url(#p6dbbd64b79)" style="fill: none; stroke: #4c4c4c; stroke-linecap: round"/>
   </g>
   <g id="patch_19">
    <path d="M 44.91188 118.71956 
Q 61.142891 142.196558 76.738096 164.753908 
" clip-path="url(#p6dbbd64b79)" style="fill: none; stroke: #4c4c4c; stroke-linecap: round"/>
    <path d="M 76.549213 163.42563 
L 76.738096 164.753908 
L 75.562143 164.108048 
" clip-path="url(#p6dbbd64b79)" style="fill: none; stroke: #4c4c4c; stroke-linecap: round"/>
   </g>
   <g id="patch_20">
    <path d="M 42.160718 119.980951 
Q 50.566039 152.401475 58.690776 183.739746 
" clip-path="url(#p6dbbd64b79)" style="fill: none; stroke: #4c4c4c; stroke-linecap: round"/>
    <path d="M 58.970419 182.427572 
L 58.690776 183.739746 
L 57.808823 182.728727 
" clip-path="url(#p6dbbd64b79)" style="fill: none; stroke: #4c4c4c; stroke-linecap: round"/>
   </g>
   <g id="patch_21">
    <path d="M 47.273709 75.477372 
Q 71.722247 91.19429 95.230318 106.306621 
" clip-path="url(#p6dbbd64b79)" style="fill: none; stroke: #4c4c4c; stroke-linecap: round"/>
    <path d="M 94.545359 105.153005 
L 95.230318 106.306621 
L 93.89645 106.162419 
" clip-path="url(#p6dbbd64b79)" style="fill: none; stroke: #4c4c4c; stroke-linecap: round"/>
   </g>
   <g id="patch_22">
    <path d="M 48.646384 70.792916 
Q 50.564018 70.792916 51.363617 70.792916 
" clip-path="url(#p6dbbd64b79)" style="fill: none; stroke: #4c4c4c; stroke-linecap: round"/>
    <path d="M 50.163617 70.192916 
L 51.363617 70.792916 
L 50.163617 71.392916 
" clip-path="url(#p6dbbd64b79)" style="fill: none; stroke: #4c4c4c; stroke-linecap: round"/>
   </g>
   <g id="patch_23">
    <path d="M 42.160718 79.178118 
Q 50.566039 111.598642 58.690776 142.936913 
" clip-path="url(#p6dbbd64b79)" style="fill: none; stroke: #4c4c4c; stroke-linecap: round"/>
    <path d="M 58.970419 141.624739 
L 58.690776 142.936913 
L 57.808823 141.925894 
" clip-path="url(#p6dbbd64b79)" style="fill: none; stroke: #4c4c4c; stroke-linecap: round"/>
   </g>
   <g id="patch_24">
    <path d="M 48.10758 73.804753 
Q 177.509211 121.797116 305.86258 169.4007 
" clip-path="url(#p6dbbd64b79)" style="fill: none; stroke: #4c4c4c; stroke-linecap: round"/>
    <path d="M 304.946109 168.420864 
L 305.86258 169.4007 
L 304.528828 169.545976 
" clip-path="url(#p6dbbd64b79)" style="fill: none; stroke: #4c4c4c; stroke-linecap: round"/>
   </g>
   <g id="patch_25">
    <path d="M 47.789592 74.554988 
Q 145.772761 121.796873 242.748841 168.553197 
" clip-path="url(#p6dbbd64b79)" style="fill: none; stroke: #4c4c4c; stroke-linecap: round"/>
    <path d="M 241.928498 167.491577 
L 242.748841 168.553197 
L 241.407339 168.572499 
" clip-path="url(#p6dbbd64b79)" style="fill: none; stroke: #4c4c4c; stroke-linecap: round"/>
   </g>
   <g id="patch_26">
    <path d="M 42.160718 38.375284 
Q 50.566039 70.795808 58.690776 102.134079 
" clip-path="url(#p6dbbd64b79)" style="fill: none; stroke: #4c4c4c; stroke-linecap: round"/>
    <path d="M 58.970419 100.821905 
L 58.690776 102.134079 
L 57.808823 101.12306 
" clip-path="url(#p6dbbd64b79)" style="fill: none; stroke: #4c4c4c; stroke-linecap: round"/>
   </g>
   <g id="patch_27">
    <path d="M 68.558574 75.261641 
Q 145.771327 121.796112 222.026506 167.753475 
" clip-path="url(#p6dbbd64b79)" style="fill: none; stroke: #4c4c4c; stroke-linecap: round"/>
    <path d="M 221.30844 166.620169 
L 222.026506 167.753475 
L 220.689022 167.647944 
" clip-path="url(#p6dbbd64b79)" style="fill: none; stroke: #4c4c4c; stroke-linecap: round"/>
   </g>
   <g id="patch_28">
    <path d="M 62.135214 79.396962 
Q 71.722465 162.600602 81.181735 244.693556 
" clip-path="url(#p6dbbd64b79)" style="fill: none; stroke: #4c4c4c; stroke-linecap: round"/>
    <path d="M 81.640429 243.432763 
L 81.181735 244.693556 
L 80.448317 243.570126 
" clip-path="url(#p6dbbd64b79)" style="fill: none; stroke: #4c4c4c; stroke-linecap: round"/>
   </g>
   <g id="patch_29">
    <path d="M 63.973089 266.62236 
Q 71.722442 244.204589 79.106523 222.843498 
" clip-path="url(#p6dbbd64b79)" style="fill: none; stroke: #4c4c4c; stroke-linecap: round"/>
    <path d="M 78.147396 223.781622 
L 79.106523 222.843498 
L 79.281546 224.173674 
" clip-path="url(#p6dbbd64b79)" style="fill: none; stroke: #4c4c4c; stroke-linecap: round"/>
   </g>
   <g id="patch_30">
    <path d="M 68.160847 188.126589 
Q 103.457439 162.59959 137.848091 137.727779 
" clip-path="url(#p6dbbd64b79)" style="fill: none; stroke: #4c4c4c; stroke-linecap: round"/>
    <path d="M 136.524123 137.944823 
L 137.848091 137.727779 
L 137.227345 138.91718 
" clip-path="url(#p6dbbd64b79)" style="fill: none; stroke: #4c4c4c; stroke-linecap: round"/>
   </g>
   <g id="patch_31">
    <path d="M 67.375723 187.192064 
Q 71.721894 183.001113 75.263255 179.58623 
" clip-path="url(#p6dbbd64b79)" style="fill: none; stroke: #4c4c4c; stroke-linecap: round"/>
    <path d="M 73.982961 179.987286 
L 75.263255 179.58623 
L 74.815923 180.851099 
" clip-path="url(#p6dbbd64b79)" style="fill: none; stroke: #4c4c4c; stroke-linecap: round"/>
   </g>
   <g id="patch_32">
    <path d="M 69.561932 231.97488 
Q 188.086928 203.40189 305.525026 175.090919 
" clip-path="url(#p6dbbd64b79)" style="fill: none; stroke: #4c4c4c; stroke-linecap: round"/>
    <path d="M 304.217831 174.788858 
L 305.525026 175.090919 
L 304.499061 175.955439 
" clip-path="url(#p6dbbd64b79)" style="fill: none; stroke: #4c4c4c; stroke-linecap: round"/>
   </g>
   <g id="patch_33">
    <path d="M 67.375723 146.38923 
Q 71.721894 142.19828 75.263255 138.783396 
" clip-path="url(#p6dbbd64b79)" style="fill: none; stroke: #4c4c4c; stroke-linecap: round"/>
    <path d="M 73.982961 139.184452 
L 75.263255 138.783396 
L 74.815923 140.048265 
" clip-path="url(#p6dbbd64b79)" style="fill: none; stroke: #4c4c4c; stroke-linecap: round"/>
   </g>
   <g id="patch_34">
    <path d="M 67.375723 105.586397 
Q 71.721894 101.395446 75.263255 97.980563 
" clip-path="url(#p6dbbd64b79)" style="fill: none; stroke: #4c4c4c; stroke-linecap: round"/>
    <path d="M 73.982961 98.381619 
L 75.263255 97.980563 
L 74.815923 99.245432 
" clip-path="url(#p6dbbd64b79)" style="fill: none; stroke: #4c4c4c; stroke-linecap: round"/>
   </g>
   <g id="patch_35">
    <path d="M 90.886506 133.10104 
Q 240.976864 152.398371 389.958316 171.553129 
" clip-path="url(#p6dbbd64b79)" style="fill: none; stroke: #4c4c4c; stroke-linecap: round"/>
    <path d="M 388.844626 170.805002 
L 389.958316 171.553129 
L 388.6916 171.995205 
" clip-path="url(#p6dbbd64b79)" style="fill: none; stroke: #4c4c4c; stroke-linecap: round"/>
   </g>
   <g id="patch_36">
    <path d="M 83.569551 140.561055 
Q 92.879142 203.400798 102.024888 265.134579 
" clip-path="url(#p6dbbd64b79)" style="fill: none; stroke: #4c4c4c; stroke-linecap: round"/>
    <path d="M 102.442551 263.859605 
L 102.024888 265.134579 
L 101.255507 264.035464 
" clip-path="url(#p6dbbd64b79)" style="fill: none; stroke: #4c4c4c; stroke-linecap: round"/>
   </g>
   <g id="patch_37">
    <path d="M 88.532748 219.612186 
Q 92.878919 223.803137 96.42028 227.218021 
" clip-path="url(#p6dbbd64b79)" style="fill: none; stroke: #4c4c4c; stroke-linecap: round"/>
    <path d="M 95.972948 225.953151 
L 96.42028 227.218021 
L 95.139985 226.816965 
" clip-path="url(#p6dbbd64b79)" style="fill: none; stroke: #4c4c4c; stroke-linecap: round"/>
   </g>
   <g id="patch_38">
    <path d="M 90.717665 211.573774 
Q 166.927141 193.201847 242.04972 175.09194 
" clip-path="url(#p6dbbd64b79)" style="fill: none; stroke: #4c4c4c; stroke-linecap: round"/>
    <path d="M 240.742525 174.789879 
L 242.04972 175.09194 
L 241.023754 175.956459 
" clip-path="url(#p6dbbd64b79)" style="fill: none; stroke: #4c4c4c; stroke-linecap: round"/>
   </g>
   <g id="patch_39">
    <path d="M 90.834207 212.106721 
Q 198.666967 193.200978 305.398491 174.488308 
" clip-path="url(#p6dbbd64b79)" style="fill: none; stroke: #4c4c4c; stroke-linecap: round"/>
    <path d="M 304.112905 174.104551 
L 305.398491 174.488308 
L 304.320134 175.286522 
" clip-path="url(#p6dbbd64b79)" style="fill: none; stroke: #4c4c4c; stroke-linecap: round"/>
   </g>
   <g id="patch_40">
    <path d="M 85.130114 246.220943 
Q 92.879467 223.803172 100.263547 202.442082 
" clip-path="url(#p6dbbd64b79)" style="fill: none; stroke: #4c4c4c; stroke-linecap: round"/>
    <path d="M 99.304421 203.380205 
L 100.263547 202.442082 
L 100.43857 203.772257 
" clip-path="url(#p6dbbd64b79)" style="fill: none; stroke: #4c4c4c; stroke-linecap: round"/>
   </g>
   <g id="patch_41">
    <path d="M 84.058962 245.928943 
Q 92.87898 203.403856 101.471942 161.973503 
" clip-path="url(#p6dbbd64b79)" style="fill: none; stroke: #4c4c4c; stroke-linecap: round"/>
    <path d="M 100.640743 163.026646 
L 101.471942 161.973503 
L 101.815736 163.270348 
" clip-path="url(#p6dbbd64b79)" style="fill: none; stroke: #4c4c4c; stroke-linecap: round"/>
   </g>
   <g id="patch_42">
    <path d="M 83.569551 245.841779 
Q 92.879142 183.002035 102.024888 121.268255 
" clip-path="url(#p6dbbd64b79)" style="fill: none; stroke: #4c4c4c; stroke-linecap: round"/>
    <path d="M 101.255507 122.36737 
L 102.024888 121.268255 
L 102.442551 122.543228 
" clip-path="url(#p6dbbd64b79)" style="fill: none; stroke: #4c4c4c; stroke-linecap: round"/>
   </g>
   <g id="patch_43">
    <path d="M 84.058962 164.323276 
Q 92.87898 121.798189 101.471942 80.367836 
" clip-path="url(#p6dbbd64b79)" style="fill: none; stroke: #4c4c4c; stroke-linecap: round"/>
    <path d="M 100.640743 81.420979 
L 101.471942 80.367836 
L 101.815736 81.664681 
" clip-path="url(#p6dbbd64b79)" style="fill: none; stroke: #4c4c4c; stroke-linecap: round"/>
   </g>
   <g id="patch_44">
    <path d="M 89.160976 96.486448 
Q 135.195445 131.998753 180.344674 166.828158 
" clip-path="url(#p6dbbd64b79)" style="fill: none; stroke: #4c4c4c; stroke-linecap: round"/>
    <path d="M 179.761017 165.620125 
L 180.344674 166.828158 
L 179.028053 166.570263 
" clip-path="url(#p6dbbd64b79)" style="fill: none; stroke: #4c4c4c; stroke-linecap: round"/>
   </g>
   <g id="patch_45">
    <path d="M 104.449264 79.396962 
Q 114.036515 162.600602 123.495785 244.693556 
" clip-path="url(#p6dbbd64b79)" style="fill: none; stroke: #4c4c4c; stroke-linecap: round"/>
    <path d="M 123.954478 243.432763 
L 123.495785 244.693556 
L 122.762366 243.570126 
" clip-path="url(#p6dbbd64b79)" style="fill: none; stroke: #4c4c4c; stroke-linecap: round"/>
   </g>
   <g id="patch_46">
    <path d="M 110.474897 75.867744 
Q 188.085348 131.996731 264.78986 187.47053 
" clip-path="url(#p6dbbd64b79)" style="fill: none; stroke: #4c4c4c; stroke-linecap: round"/>
    <path d="M 264.169114 186.281129 
L 264.78986 187.47053 
L 263.465892 187.253486 
" clip-path="url(#p6dbbd64b79)" style="fill: none; stroke: #4c4c4c; stroke-linecap: round"/>
   </g>
   <g id="patch_47">
    <path d="M 112.117459 193.201417 
Q 188.085704 193.201417 262.935915 193.201417 
" clip-path="url(#p6dbbd64b79)" style="fill: none; stroke: #4c4c4c; stroke-linecap: round"/>
    <path d="M 261.735915 192.601417 
L 262.935915 193.201417 
L 261.735915 193.801417 
" clip-path="url(#p6dbbd64b79)" style="fill: none; stroke: #4c4c4c; stroke-linecap: round"/>
   </g>
   <g id="patch_48">
    <path d="M 109.689773 199.21077 
Q 114.035944 203.40172 117.577305 206.816604 
" clip-path="url(#p6dbbd64b79)" style="fill: none; stroke: #4c4c4c; stroke-linecap: round"/>
    <path d="M 117.129973 205.551735 
L 117.577305 206.816604 
L 116.29701 206.415548 
" clip-path="url(#p6dbbd64b79)" style="fill: none; stroke: #4c4c4c; stroke-linecap: round"/>
   </g>
   <g id="patch_49">
    <path d="M 109.689773 158.407936 
Q 114.035944 162.598887 117.577305 166.01377 
" clip-path="url(#p6dbbd64b79)" style="fill: none; stroke: #4c4c4c; stroke-linecap: round"/>
    <path d="M 117.129973 164.748901 
L 117.577305 166.01377 
L 116.29701 165.612714 
" clip-path="url(#p6dbbd64b79)" style="fill: none; stroke: #4c4c4c; stroke-linecap: round"/>
   </g>
   <g id="patch_50">
    <path d="M 109.689773 146.38923 
Q 114.035944 142.19828 117.577305 138.783396 
" clip-path="url(#p6dbbd64b79)" style="fill: none; stroke: #4c4c4c; stroke-linecap: round"/>
    <path d="M 116.29701 139.184452 
L 117.577305 138.783396 
L 117.129973 140.048265 
" clip-path="url(#p6dbbd64b79)" style="fill: none; stroke: #4c4c4c; stroke-linecap: round"/>
   </g>
   <g id="patch_51">
    <path d="M 109.689773 105.586397 
Q 114.035944 101.395446 117.577305 97.980563 
" clip-path="url(#p6dbbd64b79)" style="fill: none; stroke: #4c4c4c; stroke-linecap: round"/>
    <path d="M 116.29701 98.381619 
L 117.577305 97.980563 
L 117.129973 99.245432 
" clip-path="url(#p6dbbd64b79)" style="fill: none; stroke: #4c4c4c; stroke-linecap: round"/>
   </g>
   <g id="patch_52">
    <path d="M 111.260666 271.045012 
Q 209.243836 223.803127 306.219915 177.046803 
" clip-path="url(#p6dbbd64b79)" style="fill: none; stroke: #4c4c4c; stroke-linecap: round"/>
    <path d="M 304.878413 177.027501 
L 306.219915 177.046803 
L 305.399572 178.108423 
" clip-path="url(#p6dbbd64b79)" style="fill: none; stroke: #4c4c4c; stroke-linecap: round"/>
   </g>
   <g id="patch_53">
    <path d="M 132.862552 210.951795 
Q 188.085836 193.201453 242.244721 175.793241 
" clip-path="url(#p6dbbd64b79)" style="fill: none; stroke: #4c4c4c; stroke-linecap: round"/>
    <path d="M 240.918681 175.589235 
L 242.244721 175.793241 
L 241.285892 176.731669 
" clip-path="url(#p6dbbd64b79)" style="fill: none; stroke: #4c4c4c; stroke-linecap: round"/>
   </g>
   <g id="patch_54">
    <path d="M 133.274483 213.602834 
Q 135.192117 213.602834 135.991716 213.602834 
" clip-path="url(#p6dbbd64b79)" style="fill: none; stroke: #4c4c4c; stroke-linecap: round"/>
    <path d="M 134.791716 213.002834 
L 135.991716 213.602834 
L 134.791716 214.202834 
" clip-path="url(#p6dbbd64b79)" style="fill: none; stroke: #4c4c4c; stroke-linecap: round"/>
   </g>
   <g id="patch_55">
    <path d="M 132.572973 250.995054 
Q 219.820745 213.603152 306.040881 176.651665 
" clip-path="url(#p6dbbd64b79)" style="fill: none; stroke: #4c4c4c; stroke-linecap: round"/>
    <path d="M 304.701556 176.572881 
L 306.040881 176.651665 
L 305.174259 177.675855 
" clip-path="url(#p6dbbd64b79)" style="fill: none; stroke: #4c4c4c; stroke-linecap: round"/>
   </g>
   <g id="patch_56">
    <path d="M 126.788817 246.020466 
Q 135.194138 213.599941 143.318875 182.261671 
" clip-path="url(#p6dbbd64b79)" style="fill: none; stroke: #4c4c4c; stroke-linecap: round"/>
    <path d="M 142.436922 183.27269 
L 143.318875 182.261671 
L 143.598519 183.573844 
" clip-path="url(#p6dbbd64b79)" style="fill: none; stroke: #4c4c4c; stroke-linecap: round"/>
   </g>
   <g id="patch_57">
    <path d="M 132.417045 250.643907 
Q 209.24296 213.602841 285.061785 177.047336 
" clip-path="url(#p6dbbd64b79)" style="fill: none; stroke: #4c4c4c; stroke-linecap: round"/>
    <path d="M 283.720284 177.028034 
L 285.061785 177.047336 
L 284.241443 178.108956 
" clip-path="url(#p6dbbd64b79)" style="fill: none; stroke: #4c4c4c; stroke-linecap: round"/>
   </g>
   <g id="patch_58">
    <path d="M 128.601188 165.112113 
Q 135.194264 152.396895 141.272689 140.674217 
" clip-path="url(#p6dbbd64b79)" style="fill: none; stroke: #4c4c4c; stroke-linecap: round"/>
    <path d="M 140.187656 141.463332 
L 141.272689 140.674217 
L 141.252962 142.015713 
" clip-path="url(#p6dbbd64b79)" style="fill: none; stroke: #4c4c4c; stroke-linecap: round"/>
   </g>
   <g id="patch_59">
    <path d="M 132.417045 135.758927 
Q 166.929866 152.399037 200.435596 168.553585 
" clip-path="url(#p6dbbd64b79)" style="fill: none; stroke: #4c4c4c; stroke-linecap: round"/>
    <path d="M 199.615253 167.491965 
L 200.435596 168.553585 
L 199.094094 168.572887 
" clip-path="url(#p6dbbd64b79)" style="fill: none; stroke: #4c4c4c; stroke-linecap: round"/>
   </g>
   <g id="patch_60">
    <path d="M 154.433445 172.8 
Q 198.666347 172.8 241.781216 172.8 
" clip-path="url(#p6dbbd64b79)" style="fill: none; stroke: #4c4c4c; stroke-linecap: round"/>
    <path d="M 240.581216 172.2 
L 241.781216 172.8 
L 240.581216 173.4 
" clip-path="url(#p6dbbd64b79)" style="fill: none; stroke: #4c4c4c; stroke-linecap: round"/>
   </g>
   <g id="patch_61">
    <path d="M 152.003822 178.809353 
Q 156.349993 183.000304 159.891354 186.415187 
" clip-path="url(#p6dbbd64b79)" style="fill: none; stroke: #4c4c4c; stroke-linecap: round"/>
    <path d="M 159.444022 185.150318 
L 159.891354 186.415187 
L 158.61106 186.014131 
" clip-path="url(#p6dbbd64b79)" style="fill: none; stroke: #4c4c4c; stroke-linecap: round"/>
   </g>
   <g id="patch_62">
    <path d="M 154.321746 133.371249 
Q 272.712016 152.398256 389.998417 171.247857 
" clip-path="url(#p6dbbd64b79)" style="fill: none; stroke: #4c4c4c; stroke-linecap: round"/>
    <path d="M 388.908827 170.465045 
L 389.998417 171.247857 
L 388.718413 171.649841 
" clip-path="url(#p6dbbd64b79)" style="fill: none; stroke: #4c4c4c; stroke-linecap: round"/>
   </g>
   <g id="patch_63">
    <path d="M 148.601188 205.41811 
Q 156.350541 183.000338 163.734622 161.639248 
" clip-path="url(#p6dbbd64b79)" style="fill: none; stroke: #4c4c4c; stroke-linecap: round"/>
    <path d="M 162.775495 162.577372 
L 163.734622 161.639248 
L 163.909645 162.969424 
" clip-path="url(#p6dbbd64b79)" style="fill: none; stroke: #4c4c4c; stroke-linecap: round"/>
   </g>
   <g id="patch_64">
    <path d="M 175.537849 153.320968 
Q 262.133188 162.59904 347.616855 171.758004 
" clip-path="url(#p6dbbd64b79)" style="fill: none; stroke: #4c4c4c; stroke-linecap: round"/>
    <path d="M 346.487604 171.033579 
L 347.616855 171.758004 
L 346.359764 172.22675 
" clip-path="url(#p6dbbd64b79)" style="fill: none; stroke: #4c4c4c; stroke-linecap: round"/>
   </g>
   <g id="patch_65">
    <path d="M 175.478771 153.772665 
Q 230.398882 162.599112 284.215125 171.248151 
" clip-path="url(#p6dbbd64b79)" style="fill: none; stroke: #4c4c4c; stroke-linecap: round"/>
    <path d="M 283.125535 170.465339 
L 284.215125 171.248151 
L 282.935121 171.650135 
" clip-path="url(#p6dbbd64b79)" style="fill: none; stroke: #4c4c4c; stroke-linecap: round"/>
   </g>
   <g id="patch_66">
    <path d="M 175.345764 191.172357 
Q 209.244053 183.000449 242.055444 175.09056 
" clip-path="url(#p6dbbd64b79)" style="fill: none; stroke: #4c4c4c; stroke-linecap: round"/>
    <path d="M 240.748249 174.788499 
L 242.055444 175.09056 
L 241.029478 175.955079 
" clip-path="url(#p6dbbd64b79)" style="fill: none; stroke: #4c4c4c; stroke-linecap: round"/>
   </g>
   <g id="patch_67">
    <path d="M 173.160847 187.192064 
Q 177.507018 183.001113 181.048379 179.58623 
" clip-path="url(#p6dbbd64b79)" style="fill: none; stroke: #4c4c4c; stroke-linecap: round"/>
    <path d="M 179.768084 179.987286 
L 181.048379 179.58623 
L 180.601047 180.851099 
" clip-path="url(#p6dbbd64b79)" style="fill: none; stroke: #4c4c4c; stroke-linecap: round"/>
   </g>
   <g id="patch_68">
    <path d="M 196.745558 172.8 
Q 198.663191 172.8 199.462791 172.8 
" clip-path="url(#p6dbbd64b79)" style="fill: none; stroke: #4c4c4c; stroke-linecap: round"/>
    <path d="M 198.262791 172.2 
L 199.462791 172.8 
L 198.262791 173.4 
" clip-path="url(#p6dbbd64b79)" style="fill: none; stroke: #4c4c4c; stroke-linecap: round"/>
   </g>
   <g id="patch_69">
    <path d="M 196.747495 172.8 
Q 293.871893 172.8 389.878258 172.8 
" clip-path="url(#p6dbbd64b79)" style="fill: none; stroke: #4c4c4c; stroke-linecap: round"/>
    <path d="M 388.678258 172.2 
L 389.878258 172.8 
L 388.678258 173.4 
" clip-path="url(#p6dbbd64b79)" style="fill: none; stroke: #4c4c4c; stroke-linecap: round"/>
   </g>
   <g id="patch_70">
    <path d="M 217.902583 172.8 
Q 219.820216 172.8 220.619816 172.8 
" clip-path="url(#p6dbbd64b79)" style="fill: none; stroke: #4c4c4c; stroke-linecap: round"/>
    <path d="M 219.419816 172.2 
L 220.619816 172.8 
L 219.419816 173.4 
" clip-path="url(#p6dbbd64b79)" style="fill: none; stroke: #4c4c4c; stroke-linecap: round"/>
   </g>
   <g id="patch_71">
    <path d="M 217.902583 172.8 
Q 230.397698 172.8 241.77478 172.8 
" clip-path="url(#p6dbbd64b79)" style="fill: none; stroke: #4c4c4c; stroke-linecap: round"/>
    <path d="M 240.57478 172.2 
L 241.77478 172.8 
L 240.57478 173.4 
" clip-path="url(#p6dbbd64b79)" style="fill: none; stroke: #4c4c4c; stroke-linecap: round"/>
   </g>
   <g id="patch_72">
    <path d="M 239.059607 172.8 
Q 315.027853 172.8 389.878064 172.8 
" clip-path="url(#p6dbbd64b79)" style="fill: none; stroke: #4c4c4c; stroke-linecap: round"/>
    <path d="M 388.678064 172.2 
L 389.878064 172.8 
L 388.678064 173.4 
" clip-path="url(#p6dbbd64b79)" style="fill: none; stroke: #4c4c4c; stroke-linecap: round"/>
   </g>
   <g id="patch_73">
    <path d="M 239.059607 172.8 
Q 240.977241 172.8 241.77684 172.8 
" clip-path="url(#p6dbbd64b79)" style="fill: none; stroke: #4c4c4c; stroke-linecap: round"/>
    <path d="M 240.57684 172.2 
L 241.77684 172.8 
L 240.57684 173.4 
" clip-path="url(#p6dbbd64b79)" style="fill: none; stroke: #4c4c4c; stroke-linecap: round"/>
   </g>
   <g id="patch_74">
    <path d="M 257.788946 166.790647 
Q 262.135117 162.599696 265.676478 159.184813 
" clip-path="url(#p6dbbd64b79)" style="fill: none; stroke: #4c4c4c; stroke-linecap: round"/>
    <path d="M 264.396184 159.585869 
L 265.676478 159.184813 
L 265.229146 160.449682 
" clip-path="url(#p6dbbd64b79)" style="fill: none; stroke: #4c4c4c; stroke-linecap: round"/>
   </g>
   <g id="patch_75">
    <path d="M 257.788946 178.809353 
Q 262.135117 183.000304 265.676478 186.415187 
" clip-path="url(#p6dbbd64b79)" style="fill: none; stroke: #4c4c4c; stroke-linecap: round"/>
    <path d="M 265.229146 185.150318 
L 265.676478 186.415187 
L 264.396184 186.014131 
" clip-path="url(#p6dbbd64b79)" style="fill: none; stroke: #4c4c4c; stroke-linecap: round"/>
   </g>
   <g id="patch_76">
    <path d="M 278.945971 199.21077 
Q 283.292142 203.40172 286.833503 206.816604 
" clip-path="url(#p6dbbd64b79)" style="fill: none; stroke: #4c4c4c; stroke-linecap: round"/>
    <path d="M 286.386171 205.551735 
L 286.833503 206.816604 
L 285.553208 206.415548 
" clip-path="url(#p6dbbd64b79)" style="fill: none; stroke: #4c4c4c; stroke-linecap: round"/>
   </g>
   <g id="patch_77">
    <path d="M 278.945971 187.192064 
Q 283.292142 183.001113 286.833503 179.58623 
" clip-path="url(#p6dbbd64b79)" style="fill: none; stroke: #4c4c4c; stroke-linecap: round"/>
    <path d="M 285.553208 179.987286 
L 286.833503 179.58623 
L 286.386171 180.851099 
" clip-path="url(#p6dbbd64b79)" style="fill: none; stroke: #4c4c4c; stroke-linecap: round"/>
   </g>
   <g id="patch_78">
    <path d="M 278.945971 146.38923 
Q 283.292142 142.19828 286.833503 138.783396 
" clip-path="url(#p6dbbd64b79)" style="fill: none; stroke: #4c4c4c; stroke-linecap: round"/>
    <path d="M 285.553208 139.184452 
L 286.833503 138.783396 
L 286.386171 140.048265 
" clip-path="url(#p6dbbd64b79)" style="fill: none; stroke: #4c4c4c; stroke-linecap: round"/>
   </g>
   <g id="patch_79">
    <path d="M 281.220635 154.039139 
Q 325.607234 162.599412 368.896028 170.947965 
" clip-path="url(#p6dbbd64b79)" style="fill: none; stroke: #4c4c4c; stroke-linecap: round"/>
    <path d="M 367.831361 170.13158 
L 368.896028 170.947965 
L 367.60412 171.309867 
" clip-path="url(#p6dbbd64b79)" style="fill: none; stroke: #4c4c4c; stroke-linecap: round"/>
   </g>
   <g id="patch_80">
    <path d="M 302.11875 210.951795 
Q 357.342035 193.201453 411.500919 175.793241 
" clip-path="url(#p6dbbd64b79)" style="fill: none; stroke: #4c4c4c; stroke-linecap: round"/>
    <path d="M 410.174879 175.589235 
L 411.500919 175.793241 
L 410.54209 176.731669 
" clip-path="url(#p6dbbd64b79)" style="fill: none; stroke: #4c4c4c; stroke-linecap: round"/>
   </g>
   <g id="patch_81">
    <path d="M 302.532619 172.8 
Q 346.765521 172.8 389.880389 172.8 
" clip-path="url(#p6dbbd64b79)" style="fill: none; stroke: #4c4c4c; stroke-linecap: round"/>
    <path d="M 388.680389 172.2 
L 389.880389 172.8 
L 388.680389 173.4 
" clip-path="url(#p6dbbd64b79)" style="fill: none; stroke: #4c4c4c; stroke-linecap: round"/>
   </g>
   <g id="patch_82">
    <path d="M 297.857386 139.685054 
Q 304.450462 152.400272 310.528888 164.122949 
" clip-path="url(#p6dbbd64b79)" style="fill: none; stroke: #4c4c4c; stroke-linecap: round"/>
    <path d="M 310.50916 162.781454 
L 310.528888 164.122949 
L 309.443854 163.333834 
" clip-path="url(#p6dbbd64b79)" style="fill: none; stroke: #4c4c4c; stroke-linecap: round"/>
   </g>
   <g id="patch_83">
    <path d="M 323.687707 172.8 
Q 325.60534 172.8 326.40494 172.8 
" clip-path="url(#p6dbbd64b79)" style="fill: none; stroke: #4c4c4c; stroke-linecap: round"/>
    <path d="M 325.20494 172.2 
L 326.40494 172.8 
L 325.20494 173.4 
" clip-path="url(#p6dbbd64b79)" style="fill: none; stroke: #4c4c4c; stroke-linecap: round"/>
   </g>
   <g id="patch_84">
    <path d="M 344.84344 172.8 
Q 367.919063 172.8 389.876651 172.8 
" clip-path="url(#p6dbbd64b79)" style="fill: none; stroke: #4c4c4c; stroke-linecap: round"/>
    <path d="M 388.676651 172.2 
L 389.876651 172.8 
L 388.676651 173.4 
" clip-path="url(#p6dbbd64b79)" style="fill: none; stroke: #4c4c4c; stroke-linecap: round"/>
   </g>
   <g id="patch_85">
    <path d="M 344.844731 172.8 
Q 346.762365 172.8 347.561964 172.8 
" clip-path="url(#p6dbbd64b79)" style="fill: none; stroke: #4c4c4c; stroke-linecap: round"/>
    <path d="M 346.361964 172.2 
L 347.561964 172.8 
L 346.361964 173.4 
" clip-path="url(#p6dbbd64b79)" style="fill: none; stroke: #4c4c4c; stroke-linecap: round"/>
   </g>
   <g id="patch_86">
    <path d="M 366.001756 172.8 
Q 367.91939 172.8 368.718989 172.8 
" clip-path="url(#p6dbbd64b79)" style="fill: none; stroke: #4c4c4c; stroke-linecap: round"/>
    <path d="M 367.518989 172.2 
L 368.718989 172.8 
L 367.518989 173.4 
" clip-path="url(#p6dbbd64b79)" style="fill: none; stroke: #4c4c4c; stroke-linecap: round"/>
   </g>
   <g id="patch_87">
    <path d="M 387.158781 172.8 
Q 389.076414 172.8 389.876014 172.8 
" clip-path="url(#p6dbbd64b79)" style="fill: none; stroke: #4c4c4c; stroke-linecap: round"/>
    <path d="M 388.676014 172.2 
L 389.876014 172.8 
L 388.676014 173.4 
" clip-path="url(#p6dbbd64b79)" style="fill: none; stroke: #4c4c4c; stroke-linecap: round"/>
   </g>
   <g id="patch_88">
    <path d="M 408.315806 172.8 
Q 410.233439 172.8 411.033039 172.8 
" clip-path="url(#p6dbbd64b79)" style="fill: none; stroke: #4c4c4c; stroke-linecap: round"/>
    <path d="M 409.833039 172.2 
L 411.033039 172.8 
L 409.833039 173.4 
" clip-path="url(#p6dbbd64b79)" style="fill: none; stroke: #4c4c4c; stroke-linecap: round"/>
   </g>
   <g id="PathCollection_1">
    <path d="M 39.986777 324.270171 
C 42.283503 324.270171 44.486471 323.357672 46.110501 321.733642 
C 47.734532 320.109611 48.647031 317.906644 48.647031 315.609917 
C 48.647031 313.313191 47.734532 311.110224 46.110501 309.486193 
C 44.486471 307.862162 42.283503 306.949663 39.986777 306.949663 
C 37.690051 306.949663 35.487083 307.862162 33.863053 309.486193 
C 32.239022 311.110224 31.326523 313.313191 31.326523 315.609917 
C 31.326523 317.906644 32.239022 320.109611 33.863053 321.733642 
C 35.487083 323.357672 37.690051 324.270171 39.986777 324.270171 
z
" clip-path="url(#p6dbbd64b79)" style="fill: #ffff00; stroke: #000000"/>
    <path d="M 39.986777 283.467338 
C 42.283503 283.467338 44.486471 282.554839 46.110501 280.930808 
C 47.734532 279.306777 48.647031 277.10381 48.647031 274.807084 
C 48.647031 272.510358 47.734532 270.30739 46.110501 268.683359 
C 44.486471 267.059329 42.283503 266.14683 39.986777 266.14683 
C 37.690051 266.14683 35.487083 267.059329 33.863053 268.683359 
C 32.239022 270.30739 31.326523 272.510358 31.326523 274.807084 
C 31.326523 277.10381 32.239022 279.306777 33.863053 280.930808 
C 35.487083 282.554839 37.690051 283.467338 39.986777 283.467338 
z
" clip-path="url(#p6dbbd64b79)" style="fill: #ffff00; stroke: #000000"/>
    <path d="M 39.986777 242.664504 
C 42.283503 242.664504 44.486471 241.752005 46.110501 240.127975 
C 47.734532 238.503944 48.647031 236.300977 48.647031 234.00425 
C 48.647031 231.707524 47.734532 229.504557 46.110501 227.880526 
C 44.486471 226.256495 42.283503 225.343996 39.986777 225.343996 
C 37.690051 225.343996 35.487083 226.256495 33.863053 227.880526 
C 32.239022 229.504557 31.326523 231.707524 31.326523 234.00425 
C 31.326523 236.300977 32.239022 238.503944 33.863053 240.127975 
C 35.487083 241.752005 37.690051 242.664504 39.986777 242.664504 
z
" clip-path="url(#p6dbbd64b79)" style="fill: #ffff00; stroke: #000000"/>
    <path d="M 39.986777 201.861671 
C 42.283503 201.861671 44.486471 200.949172 46.110501 199.325141 
C 47.734532 197.70111 48.647031 195.498143 48.647031 193.201417 
C 48.647031 190.904691 47.734532 188.701723 46.110501 187.077692 
C 44.486471 185.453662 42.283503 184.541163 39.986777 184.541163 
C 37.690051 184.541163 35.487083 185.453662 33.863053 187.077692 
C 32.239022 188.701723 31.326523 190.904691 31.326523 193.201417 
C 31.326523 195.498143 32.239022 197.70111 33.863053 199.325141 
C 35.487083 200.949172 37.690051 201.861671 39.986777 201.861671 
z
" clip-path="url(#p6dbbd64b79)" style="fill: #ffff00; stroke: #000000"/>
    <path d="M 39.986777 161.058837 
C 42.283503 161.058837 44.486471 160.146338 46.110501 158.522308 
C 47.734532 156.898277 48.647031 154.695309 48.647031 152.398583 
C 48.647031 150.101857 47.734532 147.89889 46.110501 146.274859 
C 44.486471 144.650828 42.283503 143.738329 39.986777 143.738329 
C 37.690051 143.738329 35.487083 144.650828 33.863053 146.274859 
C 32.239022 147.89889 31.326523 150.101857 31.326523 152.398583 
C 31.326523 154.695309 32.239022 156.898277 33.863053 158.522308 
C 35.487083 160.146338 37.690051 161.058837 39.986777 161.058837 
z
" clip-path="url(#p6dbbd64b79)" style="fill: #ffff00; stroke: #000000"/>
    <path d="M 39.986777 120.256004 
C 42.283503 120.256004 44.486471 119.343505 46.110501 117.719474 
C 47.734532 116.095443 48.647031 113.892476 48.647031 111.59575 
C 48.647031 109.299023 47.734532 107.096056 46.110501 105.472025 
C 44.486471 103.847995 42.283503 102.935496 39.986777 102.935496 
C 37.690051 102.935496 35.487083 103.847995 33.863053 105.472025 
C 32.239022 107.096056 31.326523 109.299023 31.326523 111.59575 
C 31.326523 113.892476 32.239022 116.095443 33.863053 117.719474 
C 35.487083 119.343505 37.690051 120.256004 39.986777 120.256004 
z
" clip-path="url(#p6dbbd64b79)" style="fill: #ffff00; stroke: #000000"/>
    <path d="M 39.986777 79.45317 
C 42.283503 79.45317 44.486471 78.540671 46.110501 76.916641 
C 47.734532 75.29261 48.647031 73.089642 48.647031 70.792916 
C 48.647031 68.49619 47.734532 66.293223 46.110501 64.669192 
C 44.486471 63.045161 42.283503 62.132662 39.986777 62.132662 
C 37.690051 62.132662 35.487083 63.045161 33.863053 64.669192 
C 32.239022 66.293223 31.326523 68.49619 31.326523 70.792916 
C 31.326523 73.089642 32.239022 75.29261 33.863053 76.916641 
C 35.487083 78.540671 37.690051 79.45317 39.986777 79.45317 
z
" clip-path="url(#p6dbbd64b79)" style="fill: #ffffff; stroke: #000000"/>
    <path d="M 39.986777 38.650337 
C 42.283503 38.650337 44.486471 37.737838 46.110501 36.113807 
C 47.734532 34.489776 48.647031 32.286809 48.647031 29.990083 
C 48.647031 27.693356 47.734532 25.490389 46.110501 23.866358 
C 44.486471 22.242328 42.283503 21.329829 39.986777 21.329829 
C 37.690051 21.329829 35.487083 22.242328 33.863053 23.866358 
C 32.239022 25.490389 31.326523 27.693356 31.326523 29.990083 
C 31.326523 32.286809 32.239022 34.489776 33.863053 36.113807 
C 35.487083 37.737838 37.690051 38.650337 39.986777 38.650337 
z
" clip-path="url(#p6dbbd64b79)" style="fill: #ffffff; stroke: #000000"/>
    <path d="M 61.143802 79.45317 
C 63.440528 79.45317 65.643495 78.540671 67.267526 76.916641 
C 68.891557 75.29261 69.804056 73.089642 69.804056 70.792916 
C 69.804056 68.49619 68.891557 66.293223 67.267526 64.669192 
C 65.643495 63.045161 63.440528 62.132662 61.143802 62.132662 
C 58.847075 62.132662 56.644108 63.045161 55.020077 64.669192 
C 53.396047 66.293223 52.483548 68.49619 52.483548 70.792916 
C 52.483548 73.089642 53.396047 75.29261 55.020077 76.916641 
C 56.644108 78.540671 58.847075 79.45317 61.143802 79.45317 
z
" clip-path="url(#p6dbbd64b79)" style="fill: #ffffff; stroke: #000000"/>
    <path d="M 61.143802 283.467338 
C 63.440528 283.467338 65.643495 282.554839 67.267526 280.930808 
C 68.891557 279.306777 69.804056 277.10381 69.804056 274.807084 
C 69.804056 272.510358 68.891557 270.30739 67.267526 268.683359 
C 65.643495 267.059329 63.440528 266.14683 61.143802 266.14683 
C 58.847075 266.14683 56.644108 267.059329 55.020077 268.683359 
C 53.396047 270.30739 52.483548 272.510358 52.483548 274.807084 
C 52.483548 277.10381 53.396047 279.306777 55.020077 280.930808 
C 56.644108 282.554839 58.847075 283.467338 61.143802 283.467338 
z
" clip-path="url(#p6dbbd64b79)" style="fill: #ffffff; stroke: #000000"/>
    <path d="M 61.143802 201.861671 
C 63.440528 201.861671 65.643495 200.949172 67.267526 199.325141 
C 68.891557 197.70111 69.804056 195.498143 69.804056 193.201417 
C 69.804056 190.904691 68.891557 188.701723 67.267526 187.077692 
C 65.643495 185.453662 63.440528 184.541163 61.143802 184.541163 
C 58.847075 184.541163 56.644108 185.453662 55.020077 187.077692 
C 53.396047 188.701723 52.483548 190.904691 52.483548 193.201417 
C 52.483548 195.498143 53.396047 197.70111 55.020077 199.325141 
C 56.644108 200.949172 58.847075 201.861671 61.143802 201.861671 
z
" clip-path="url(#p6dbbd64b79)" style="fill: #ffffff; stroke: #000000"/>
    <path d="M 61.143802 242.664504 
C 63.440528 242.664504 65.643495 241.752005 67.267526 240.127975 
C 68.891557 238.503944 69.804056 236.300977 69.804056 234.00425 
C 69.804056 231.707524 68.891557 229.504557 67.267526 227.880526 
C 65.643495 226.256495 63.440528 225.343996 61.143802 225.343996 
C 58.847075 225.343996 56.644108 226.256495 55.020077 227.880526 
C 53.396047 229.504557 52.483548 231.707524 52.483548 234.00425 
C 52.483548 236.300977 53.396047 238.503944 55.020077 240.127975 
C 56.644108 241.752005 58.847075 242.664504 61.143802 242.664504 
z
" clip-path="url(#p6dbbd64b79)" style="fill: #ffffff; stroke: #000000"/>
    <path d="M 61.143802 161.058837 
C 63.440528 161.058837 65.643495 160.146338 67.267526 158.522308 
C 68.891557 156.898277 69.804056 154.695309 69.804056 152.398583 
C 69.804056 150.101857 68.891557 147.89889 67.267526 146.274859 
C 65.643495 144.650828 63.440528 143.738329 61.143802 143.738329 
C 58.847075 143.738329 56.644108 144.650828 55.020077 146.274859 
C 53.396047 147.89889 52.483548 150.101857 52.483548 152.398583 
C 52.483548 154.695309 53.396047 156.898277 55.020077 158.522308 
C 56.644108 160.146338 58.847075 161.058837 61.143802 161.058837 
z
" clip-path="url(#p6dbbd64b79)" style="fill: #ffffff; stroke: #000000"/>
    <path d="M 61.143802 120.256004 
C 63.440528 120.256004 65.643495 119.343505 67.267526 117.719474 
C 68.891557 116.095443 69.804056 113.892476 69.804056 111.59575 
C 69.804056 109.299023 68.891557 107.096056 67.267526 105.472025 
C 65.643495 103.847995 63.440528 102.935496 61.143802 102.935496 
C 58.847075 102.935496 56.644108 103.847995 55.020077 105.472025 
C 53.396047 107.096056 52.483548 109.299023 52.483548 111.59575 
C 52.483548 113.892476 53.396047 116.095443 55.020077 117.719474 
C 56.644108 119.343505 58.847075 120.256004 61.143802 120.256004 
z
" clip-path="url(#p6dbbd64b79)" style="fill: #ffffff; stroke: #000000"/>
    <path d="M 82.300826 140.657421 
C 84.597553 140.657421 86.80052 139.744922 88.424551 138.120891 
C 90.048581 136.49686 90.96108 134.293893 90.96108 131.997166 
C 90.96108 129.70044 90.048581 127.497473 88.424551 125.873442 
C 86.80052 124.249411 84.597553 123.336912 82.300826 123.336912 
C 80.0041 123.336912 77.801133 124.249411 76.177102 125.873442 
C 74.553071 127.497473 73.640572 129.70044 73.640572 131.997166 
C 73.640572 134.293893 74.553071 136.49686 76.177102 138.120891 
C 77.801133 139.744922 80.0041 140.657421 82.300826 140.657421 
z
" clip-path="url(#p6dbbd64b79)" style="fill: #ffffff; stroke: #000000"/>
    <path d="M 82.300826 222.263088 
C 84.597553 222.263088 86.80052 221.350589 88.424551 219.726558 
C 90.048581 218.102527 90.96108 215.89956 90.96108 213.602834 
C 90.96108 211.306107 90.048581 209.10314 88.424551 207.479109 
C 86.80052 205.855078 84.597553 204.942579 82.300826 204.942579 
C 80.0041 204.942579 77.801133 205.855078 76.177102 207.479109 
C 74.553071 209.10314 73.640572 211.306107 73.640572 213.602834 
C 73.640572 215.89956 74.553071 218.102527 76.177102 219.726558 
C 77.801133 221.350589 80.0041 222.263088 82.300826 222.263088 
z
" clip-path="url(#p6dbbd64b79)" style="fill: #ffffff; stroke: #000000"/>
    <path d="M 82.300826 263.065921 
C 84.597553 263.065921 86.80052 262.153422 88.424551 260.529391 
C 90.048581 258.905361 90.96108 256.702393 90.96108 254.405667 
C 90.96108 252.108941 90.048581 249.905973 88.424551 248.281943 
C 86.80052 246.657912 84.597553 245.745413 82.300826 245.745413 
C 80.0041 245.745413 77.801133 246.657912 76.177102 248.281943 
C 74.553071 249.905973 73.640572 252.108941 73.640572 254.405667 
C 73.640572 256.702393 74.553071 258.905361 76.177102 260.529391 
C 77.801133 262.153422 80.0041 263.065921 82.300826 263.065921 
z
" clip-path="url(#p6dbbd64b79)" style="fill: #ffffff; stroke: #000000"/>
    <path d="M 82.300826 181.460254 
C 84.597553 181.460254 86.80052 180.547755 88.424551 178.923724 
C 90.048581 177.299694 90.96108 175.096726 90.96108 172.8 
C 90.96108 170.503274 90.048581 168.300306 88.424551 166.676276 
C 86.80052 165.052245 84.597553 164.139746 82.300826 164.139746 
C 80.0041 164.139746 77.801133 165.052245 76.177102 166.676276 
C 74.553071 168.300306 73.640572 170.503274 73.640572 172.8 
C 73.640572 175.096726 74.553071 177.299694 76.177102 178.923724 
C 77.801133 180.547755 80.0041 181.460254 82.300826 181.460254 
z
" clip-path="url(#p6dbbd64b79)" style="fill: #ffffff; stroke: #000000"/>
    <path d="M 82.300826 99.854587 
C 84.597553 99.854587 86.80052 98.942088 88.424551 97.318057 
C 90.048581 95.694027 90.96108 93.491059 90.96108 91.194333 
C 90.96108 88.897607 90.048581 86.694639 88.424551 85.070609 
C 86.80052 83.446578 84.597553 82.534079 82.300826 82.534079 
C 80.0041 82.534079 77.801133 83.446578 76.177102 85.070609 
C 74.553071 86.694639 73.640572 88.897607 73.640572 91.194333 
C 73.640572 93.491059 74.553071 95.694027 76.177102 97.318057 
C 77.801133 98.942088 80.0041 99.854587 82.300826 99.854587 
z
" clip-path="url(#p6dbbd64b79)" style="fill: #ffffff; stroke: #000000"/>
    <path d="M 103.457851 79.45317 
C 105.754577 79.45317 107.957545 78.540671 109.581576 76.916641 
C 111.205606 75.29261 112.118105 73.089642 112.118105 70.792916 
C 112.118105 68.49619 111.205606 66.293223 109.581576 64.669192 
C 107.957545 63.045161 105.754577 62.132662 103.457851 62.132662 
C 101.161125 62.132662 98.958158 63.045161 97.334127 64.669192 
C 95.710096 66.293223 94.797597 68.49619 94.797597 70.792916 
C 94.797597 73.089642 95.710096 75.29261 97.334127 76.916641 
C 98.958158 78.540671 101.161125 79.45317 103.457851 79.45317 
z
" clip-path="url(#p6dbbd64b79)" style="fill: #ffffff; stroke: #000000"/>
    <path d="M 103.457851 242.664504 
C 105.754577 242.664504 107.957545 241.752005 109.581576 240.127975 
C 111.205606 238.503944 112.118105 236.300977 112.118105 234.00425 
C 112.118105 231.707524 111.205606 229.504557 109.581576 227.880526 
C 107.957545 226.256495 105.754577 225.343996 103.457851 225.343996 
C 101.161125 225.343996 98.958158 226.256495 97.334127 227.880526 
C 95.710096 229.504557 94.797597 231.707524 94.797597 234.00425 
C 94.797597 236.300977 95.710096 238.503944 97.334127 240.127975 
C 98.958158 241.752005 101.161125 242.664504 103.457851 242.664504 
z
" clip-path="url(#p6dbbd64b79)" style="fill: #ffffff; stroke: #000000"/>
    <path d="M 103.457851 201.861671 
C 105.754577 201.861671 107.957545 200.949172 109.581576 199.325141 
C 111.205606 197.70111 112.118105 195.498143 112.118105 193.201417 
C 112.118105 190.904691 111.205606 188.701723 109.581576 187.077692 
C 107.957545 185.453662 105.754577 184.541163 103.457851 184.541163 
C 101.161125 184.541163 98.958158 185.453662 97.334127 187.077692 
C 95.710096 188.701723 94.797597 190.904691 94.797597 193.201417 
C 94.797597 195.498143 95.710096 197.70111 97.334127 199.325141 
C 98.958158 200.949172 101.161125 201.861671 103.457851 201.861671 
z
" clip-path="url(#p6dbbd64b79)" style="fill: #ffffff; stroke: #000000"/>
    <path d="M 103.457851 161.058837 
C 105.754577 161.058837 107.957545 160.146338 109.581576 158.522308 
C 111.205606 156.898277 112.118105 154.695309 112.118105 152.398583 
C 112.118105 150.101857 111.205606 147.89889 109.581576 146.274859 
C 107.957545 144.650828 105.754577 143.738329 103.457851 143.738329 
C 101.161125 143.738329 98.958158 144.650828 97.334127 146.274859 
C 95.710096 147.89889 94.797597 150.101857 94.797597 152.398583 
C 94.797597 154.695309 95.710096 156.898277 97.334127 158.522308 
C 98.958158 160.146338 101.161125 161.058837 103.457851 161.058837 
z
" clip-path="url(#p6dbbd64b79)" style="fill: #ffffff; stroke: #000000"/>
    <path d="M 103.457851 120.256004 
C 105.754577 120.256004 107.957545 119.343505 109.581576 117.719474 
C 111.205606 116.095443 112.118105 113.892476 112.118105 111.59575 
C 112.118105 109.299023 111.205606 107.096056 109.581576 105.472025 
C 107.957545 103.847995 105.754577 102.935496 103.457851 102.935496 
C 101.161125 102.935496 98.958158 103.847995 97.334127 105.472025 
C 95.710096 107.096056 94.797597 109.299023 94.797597 111.59575 
C 94.797597 113.892476 95.710096 116.095443 97.334127 117.719474 
C 98.958158 119.343505 101.161125 120.256004 103.457851 120.256004 
z
" clip-path="url(#p6dbbd64b79)" style="fill: #ffffff; stroke: #000000"/>
    <path d="M 103.457851 283.467338 
C 105.754577 283.467338 107.957545 282.554839 109.581576 280.930808 
C 111.205606 279.306777 112.118105 277.10381 112.118105 274.807084 
C 112.118105 272.510358 111.205606 270.30739 109.581576 268.683359 
C 107.957545 267.059329 105.754577 266.14683 103.457851 266.14683 
C 101.161125 266.14683 98.958158 267.059329 97.334127 268.683359 
C 95.710096 270.30739 94.797597 272.510358 94.797597 274.807084 
C 94.797597 277.10381 95.710096 279.306777 97.334127 280.930808 
C 98.958158 282.554839 101.161125 283.467338 103.457851 283.467338 
z
" clip-path="url(#p6dbbd64b79)" style="fill: #ffffff; stroke: #000000"/>
    <path d="M 124.614876 222.263088 
C 126.911602 222.263088 129.11457 221.350589 130.7386 219.726558 
C 132.362631 218.102527 133.27513 215.89956 133.27513 213.602834 
C 133.27513 211.306107 132.362631 209.10314 130.7386 207.479109 
C 129.11457 205.855078 126.911602 204.942579 124.614876 204.942579 
C 122.31815 204.942579 120.115182 205.855078 118.491152 207.479109 
C 116.867121 209.10314 115.954622 211.306107 115.954622 213.602834 
C 115.954622 215.89956 116.867121 218.102527 118.491152 219.726558 
C 120.115182 221.350589 122.31815 222.263088 124.614876 222.263088 
z
" clip-path="url(#p6dbbd64b79)" style="fill: #ffffff; stroke: #000000"/>
    <path d="M 124.614876 99.854587 
C 126.911602 99.854587 129.11457 98.942088 130.7386 97.318057 
C 132.362631 95.694027 133.27513 93.491059 133.27513 91.194333 
C 133.27513 88.897607 132.362631 86.694639 130.7386 85.070609 
C 129.11457 83.446578 126.911602 82.534079 124.614876 82.534079 
C 122.31815 82.534079 120.115182 83.446578 118.491152 85.070609 
C 116.867121 86.694639 115.954622 88.897607 115.954622 91.194333 
C 115.954622 93.491059 116.867121 95.694027 118.491152 97.318057 
C 120.115182 98.942088 122.31815 99.854587 124.614876 99.854587 
z
" clip-path="url(#p6dbbd64b79)" style="fill: #ffffff; stroke: #000000"/>
    <path d="M 124.614876 263.065921 
C 126.911602 263.065921 129.11457 262.153422 130.7386 260.529391 
C 132.362631 258.905361 133.27513 256.702393 133.27513 254.405667 
C 133.27513 252.108941 132.362631 249.905973 130.7386 248.281943 
C 129.11457 246.657912 126.911602 245.745413 124.614876 245.745413 
C 122.31815 245.745413 120.115182 246.657912 118.491152 248.281943 
C 116.867121 249.905973 115.954622 252.108941 115.954622 254.405667 
C 115.954622 256.702393 116.867121 258.905361 118.491152 260.529391 
C 120.115182 262.153422 122.31815 263.065921 124.614876 263.065921 
z
" clip-path="url(#p6dbbd64b79)" style="fill: #ffffff; stroke: #000000"/>
    <path d="M 124.614876 181.460254 
C 126.911602 181.460254 129.11457 180.547755 130.7386 178.923724 
C 132.362631 177.299694 133.27513 175.096726 133.27513 172.8 
C 133.27513 170.503274 132.362631 168.300306 130.7386 166.676276 
C 129.11457 165.052245 126.911602 164.139746 124.614876 164.139746 
C 122.31815 164.139746 120.115182 165.052245 118.491152 166.676276 
C 116.867121 168.300306 115.954622 170.503274 115.954622 172.8 
C 115.954622 175.096726 116.867121 177.299694 118.491152 178.923724 
C 120.115182 180.547755 122.31815 181.460254 124.614876 181.460254 
z
" clip-path="url(#p6dbbd64b79)" style="fill: #ffffff; stroke: #000000"/>
    <path d="M 124.614876 140.657421 
C 126.911602 140.657421 129.11457 139.744922 130.7386 138.120891 
C 132.362631 136.49686 133.27513 134.293893 133.27513 131.997166 
C 133.27513 129.70044 132.362631 127.497473 130.7386 125.873442 
C 129.11457 124.249411 126.911602 123.336912 124.614876 123.336912 
C 122.31815 123.336912 120.115182 124.249411 118.491152 125.873442 
C 116.867121 127.497473 115.954622 129.70044 115.954622 131.997166 
C 115.954622 134.293893 116.867121 136.49686 118.491152 138.120891 
C 120.115182 139.744922 122.31815 140.657421 124.614876 140.657421 
z
" clip-path="url(#p6dbbd64b79)" style="fill: #ffffff; stroke: #000000"/>
    <path d="M 145.771901 181.460254 
C 148.068627 181.460254 150.271595 180.547755 151.895625 178.923724 
C 153.519656 177.299694 154.432155 175.096726 154.432155 172.8 
C 154.432155 170.503274 153.519656 168.300306 151.895625 166.676276 
C 150.271595 165.052245 148.068627 164.139746 145.771901 164.139746 
C 143.475175 164.139746 141.272207 165.052245 139.648176 166.676276 
C 138.024146 168.300306 137.111647 170.503274 137.111647 172.8 
C 137.111647 175.096726 138.024146 177.299694 139.648176 178.923724 
C 141.272207 180.547755 143.475175 181.460254 145.771901 181.460254 
z
" clip-path="url(#p6dbbd64b79)" style="fill: #ffffff; stroke: #000000"/>
    <path d="M 145.771901 140.657421 
C 148.068627 140.657421 150.271595 139.744922 151.895625 138.120891 
C 153.519656 136.49686 154.432155 134.293893 154.432155 131.997166 
C 154.432155 129.70044 153.519656 127.497473 151.895625 125.873442 
C 150.271595 124.249411 148.068627 123.336912 145.771901 123.336912 
C 143.475175 123.336912 141.272207 124.249411 139.648176 125.873442 
C 138.024146 127.497473 137.111647 129.70044 137.111647 131.997166 
C 137.111647 134.293893 138.024146 136.49686 139.648176 138.120891 
C 141.272207 139.744922 143.475175 140.657421 145.771901 140.657421 
z
" clip-path="url(#p6dbbd64b79)" style="fill: #ffffff; stroke: #000000"/>
    <path d="M 145.771901 222.263088 
C 148.068627 222.263088 150.271595 221.350589 151.895625 219.726558 
C 153.519656 218.102527 154.432155 215.89956 154.432155 213.602834 
C 154.432155 211.306107 153.519656 209.10314 151.895625 207.479109 
C 150.271595 205.855078 148.068627 204.942579 145.771901 204.942579 
C 143.475175 204.942579 141.272207 205.855078 139.648176 207.479109 
C 138.024146 209.10314 137.111647 211.306107 137.111647 213.602834 
C 137.111647 215.89956 138.024146 218.102527 139.648176 219.726558 
C 141.272207 221.350589 143.475175 222.263088 145.771901 222.263088 
z
" clip-path="url(#p6dbbd64b79)" style="fill: #ffffff; stroke: #000000"/>
    <path d="M 166.928926 161.058837 
C 169.225652 161.058837 171.428619 160.146338 173.05265 158.522308 
C 174.676681 156.898277 175.58918 154.695309 175.58918 152.398583 
C 175.58918 150.101857 174.676681 147.89889 173.05265 146.274859 
C 171.428619 144.650828 169.225652 143.738329 166.928926 143.738329 
C 164.632199 143.738329 162.429232 144.650828 160.805201 146.274859 
C 159.181171 147.89889 158.268672 150.101857 158.268672 152.398583 
C 158.268672 154.695309 159.181171 156.898277 160.805201 158.522308 
C 162.429232 160.146338 164.632199 161.058837 166.928926 161.058837 
z
" clip-path="url(#p6dbbd64b79)" style="fill: #ffffff; stroke: #000000"/>
    <path d="M 166.928926 201.861671 
C 169.225652 201.861671 171.428619 200.949172 173.05265 199.325141 
C 174.676681 197.70111 175.58918 195.498143 175.58918 193.201417 
C 175.58918 190.904691 174.676681 188.701723 173.05265 187.077692 
C 171.428619 185.453662 169.225652 184.541163 166.928926 184.541163 
C 164.632199 184.541163 162.429232 185.453662 160.805201 187.077692 
C 159.181171 188.701723 158.268672 190.904691 158.268672 193.201417 
C 158.268672 195.498143 159.181171 197.70111 160.805201 199.325141 
C 162.429232 200.949172 164.632199 201.861671 166.928926 201.861671 
z
" clip-path="url(#p6dbbd64b79)" style="fill: #ffffff; stroke: #000000"/>
    <path d="M 188.08595 181.460254 
C 190.382677 181.460254 192.585644 180.547755 194.209675 178.923724 
C 195.833705 177.299694 196.746204 175.096726 196.746204 172.8 
C 196.746204 170.503274 195.833705 168.300306 194.209675 166.676276 
C 192.585644 165.052245 190.382677 164.139746 188.08595 164.139746 
C 185.789224 164.139746 183.586257 165.052245 181.962226 166.676276 
C 180.338195 168.300306 179.425696 170.503274 179.425696 172.8 
C 179.425696 175.096726 180.338195 177.299694 181.962226 178.923724 
C 183.586257 180.547755 185.789224 181.460254 188.08595 181.460254 
z
" clip-path="url(#p6dbbd64b79)" style="fill: #ffffff; stroke: #000000"/>
    <path d="M 209.242975 181.460254 
C 211.539701 181.460254 213.742669 180.547755 215.3667 178.923724 
C 216.99073 177.299694 217.903229 175.096726 217.903229 172.8 
C 217.903229 170.503274 216.99073 168.300306 215.3667 166.676276 
C 213.742669 165.052245 211.539701 164.139746 209.242975 164.139746 
C 206.946249 164.139746 204.743282 165.052245 203.119251 166.676276 
C 201.49522 168.300306 200.582721 170.503274 200.582721 172.8 
C 200.582721 175.096726 201.49522 177.299694 203.119251 178.923724 
C 204.743282 180.547755 206.946249 181.460254 209.242975 181.460254 
z
" clip-path="url(#p6dbbd64b79)" style="fill: #ffffff; stroke: #000000"/>
    <path d="M 230.4 181.460254 
C 232.696726 181.460254 234.899694 180.547755 236.523724 178.923724 
C 238.147755 177.299694 239.060254 175.096726 239.060254 172.8 
C 239.060254 170.503274 238.147755 168.300306 236.523724 166.676276 
C 234.899694 165.052245 232.696726 164.139746 230.4 164.139746 
C 228.103274 164.139746 225.900306 165.052245 224.276276 166.676276 
C 222.652245 168.300306 221.739746 170.503274 221.739746 172.8 
C 221.739746 175.096726 222.652245 177.299694 224.276276 178.923724 
C 225.900306 180.547755 228.103274 181.460254 230.4 181.460254 
z
" clip-path="url(#p6dbbd64b79)" style="fill: #ffffff; stroke: #000000"/>
    <path d="M 251.557025 181.460254 
C 253.853751 181.460254 256.056718 180.547755 257.680749 178.923724 
C 259.30478 177.299694 260.217279 175.096726 260.217279 172.8 
C 260.217279 170.503274 259.30478 168.300306 257.680749 166.676276 
C 256.056718 165.052245 253.853751 164.139746 251.557025 164.139746 
C 249.260299 164.139746 247.057331 165.052245 245.4333 166.676276 
C 243.80927 168.300306 242.896771 170.503274 242.896771 172.8 
C 242.896771 175.096726 243.80927 177.299694 245.4333 178.923724 
C 247.057331 180.547755 249.260299 181.460254 251.557025 181.460254 
z
" clip-path="url(#p6dbbd64b79)" style="fill: #ffffff; stroke: #000000"/>
    <path d="M 272.71405 201.861671 
C 275.010776 201.861671 277.213743 200.949172 278.837774 199.325141 
C 280.461805 197.70111 281.374304 195.498143 281.374304 193.201417 
C 281.374304 190.904691 280.461805 188.701723 278.837774 187.077692 
C 277.213743 185.453662 275.010776 184.541163 272.71405 184.541163 
C 270.417323 184.541163 268.214356 185.453662 266.590325 187.077692 
C 264.966295 188.701723 264.053796 190.904691 264.053796 193.201417 
C 264.053796 195.498143 264.966295 197.70111 266.590325 199.325141 
C 268.214356 200.949172 270.417323 201.861671 272.71405 201.861671 
z
" clip-path="url(#p6dbbd64b79)" style="fill: #ffffff; stroke: #000000"/>
    <path d="M 272.71405 161.058837 
C 275.010776 161.058837 277.213743 160.146338 278.837774 158.522308 
C 280.461805 156.898277 281.374304 154.695309 281.374304 152.398583 
C 281.374304 150.101857 280.461805 147.89889 278.837774 146.274859 
C 277.213743 144.650828 275.010776 143.738329 272.71405 143.738329 
C 270.417323 143.738329 268.214356 144.650828 266.590325 146.274859 
C 264.966295 147.89889 264.053796 150.101857 264.053796 152.398583 
C 264.053796 154.695309 264.966295 156.898277 266.590325 158.522308 
C 268.214356 160.146338 270.417323 161.058837 272.71405 161.058837 
z
" clip-path="url(#p6dbbd64b79)" style="fill: #ffffff; stroke: #000000"/>
    <path d="M 293.871074 222.263088 
C 296.167801 222.263088 298.370768 221.350589 299.994799 219.726558 
C 301.618829 218.102527 302.531328 215.89956 302.531328 213.602834 
C 302.531328 211.306107 301.618829 209.10314 299.994799 207.479109 
C 298.370768 205.855078 296.167801 204.942579 293.871074 204.942579 
C 291.574348 204.942579 289.371381 205.855078 287.74735 207.479109 
C 286.123319 209.10314 285.21082 211.306107 285.21082 213.602834 
C 285.21082 215.89956 286.123319 218.102527 287.74735 219.726558 
C 289.371381 221.350589 291.574348 222.263088 293.871074 222.263088 
z
" clip-path="url(#p6dbbd64b79)" style="fill: #ffffff; stroke: #000000"/>
    <path d="M 293.871074 181.460254 
C 296.167801 181.460254 298.370768 180.547755 299.994799 178.923724 
C 301.618829 177.299694 302.531328 175.096726 302.531328 172.8 
C 302.531328 170.503274 301.618829 168.300306 299.994799 166.676276 
C 298.370768 165.052245 296.167801 164.139746 293.871074 164.139746 
C 291.574348 164.139746 289.371381 165.052245 287.74735 166.676276 
C 286.123319 168.300306 285.21082 170.503274 285.21082 172.8 
C 285.21082 175.096726 286.123319 177.299694 287.74735 178.923724 
C 289.371381 180.547755 291.574348 181.460254 293.871074 181.460254 
z
" clip-path="url(#p6dbbd64b79)" style="fill: #ffffff; stroke: #000000"/>
    <path d="M 293.871074 140.657421 
C 296.167801 140.657421 298.370768 139.744922 299.994799 138.120891 
C 301.618829 136.49686 302.531328 134.293893 302.531328 131.997166 
C 302.531328 129.70044 301.618829 127.497473 299.994799 125.873442 
C 298.370768 124.249411 296.167801 123.336912 293.871074 123.336912 
C 291.574348 123.336912 289.371381 124.249411 287.74735 125.873442 
C 286.123319 127.497473 285.21082 129.70044 285.21082 131.997166 
C 285.21082 134.293893 286.123319 136.49686 287.74735 138.120891 
C 289.371381 139.744922 291.574348 140.657421 293.871074 140.657421 
z
" clip-path="url(#p6dbbd64b79)" style="fill: #ffffff; stroke: #000000"/>
    <path d="M 315.028099 181.460254 
C 317.324825 181.460254 319.527793 180.547755 321.151824 178.923724 
C 322.775854 177.299694 323.688353 175.096726 323.688353 172.8 
C 323.688353 170.503274 322.775854 168.300306 321.151824 166.676276 
C 319.527793 165.052245 317.324825 164.139746 315.028099 164.139746 
C 312.731373 164.139746 310.528405 165.052245 308.904375 166.676276 
C 307.280344 168.300306 306.367845 170.503274 306.367845 172.8 
C 306.367845 175.096726 307.280344 177.299694 308.904375 178.923724 
C 310.528405 180.547755 312.731373 181.460254 315.028099 181.460254 
z
" clip-path="url(#p6dbbd64b79)" style="fill: #ffffff; stroke: #000000"/>
    <path d="M 336.185124 181.460254 
C 338.48185 181.460254 340.684818 180.547755 342.308848 178.923724 
C 343.932879 177.299694 344.845378 175.096726 344.845378 172.8 
C 344.845378 170.503274 343.932879 168.300306 342.308848 166.676276 
C 340.684818 165.052245 338.48185 164.139746 336.185124 164.139746 
C 333.888398 164.139746 331.68543 165.052245 330.0614 166.676276 
C 328.437369 168.300306 327.52487 170.503274 327.52487 172.8 
C 327.52487 175.096726 328.437369 177.299694 330.0614 178.923724 
C 331.68543 180.547755 333.888398 181.460254 336.185124 181.460254 
z
" clip-path="url(#p6dbbd64b79)" style="fill: #ffffff; stroke: #000000"/>
    <path d="M 357.342149 181.460254 
C 359.638875 181.460254 361.841842 180.547755 363.465873 178.923724 
C 365.089904 177.299694 366.002403 175.096726 366.002403 172.8 
C 366.002403 170.503274 365.089904 168.300306 363.465873 166.676276 
C 361.841842 165.052245 359.638875 164.139746 357.342149 164.139746 
C 355.045423 164.139746 352.842455 165.052245 351.218424 166.676276 
C 349.594394 168.300306 348.681895 170.503274 348.681895 172.8 
C 348.681895 175.096726 349.594394 177.299694 351.218424 178.923724 
C 352.842455 180.547755 355.045423 181.460254 357.342149 181.460254 
z
" clip-path="url(#p6dbbd64b79)" style="fill: #ffffff; stroke: #000000"/>
    <path d="M 378.499174 181.460254 
C 380.7959 181.460254 382.998867 180.547755 384.622898 178.923724 
C 386.246929 177.299694 387.159428 175.096726 387.159428 172.8 
C 387.159428 170.503274 386.246929 168.300306 384.622898 166.676276 
C 382.998867 165.052245 380.7959 164.139746 378.499174 164.139746 
C 376.202447 164.139746 373.99948 165.052245 372.375449 166.676276 
C 370.751419 168.300306 369.83892 170.503274 369.83892 172.8 
C 369.83892 175.096726 370.751419 177.299694 372.375449 178.923724 
C 373.99948 180.547755 376.202447 181.460254 378.499174 181.460254 
z
" clip-path="url(#p6dbbd64b79)" style="fill: #ffffff; stroke: #000000"/>
    <path d="M 399.656198 181.460254 
C 401.952925 181.460254 404.155892 180.547755 405.779923 178.923724 
C 407.403953 177.299694 408.316452 175.096726 408.316452 172.8 
C 408.316452 170.503274 407.403953 168.300306 405.779923 166.676276 
C 404.155892 165.052245 401.952925 164.139746 399.656198 164.139746 
C 397.359472 164.139746 395.156505 165.052245 393.532474 166.676276 
C 391.908443 168.300306 390.995944 170.503274 390.995944 172.8 
C 390.995944 175.096726 391.908443 177.299694 393.532474 178.923724 
C 395.156505 180.547755 397.359472 181.460254 399.656198 181.460254 
z
" clip-path="url(#p6dbbd64b79)" style="fill: #ffffff; stroke: #000000"/>
    <path d="M 420.813223 181.460254 
C 423.109949 181.460254 425.312917 180.547755 426.936947 178.923724 
C 428.560978 177.299694 429.473477 175.096726 429.473477 172.8 
C 429.473477 170.503274 428.560978 168.300306 426.936947 166.676276 
C 425.312917 165.052245 423.109949 164.139746 420.813223 164.139746 
C 418.516497 164.139746 416.313529 165.052245 414.689499 166.676276 
C 413.065468 168.300306 412.152969 170.503274 412.152969 172.8 
C 412.152969 175.096726 413.065468 177.299694 414.689499 178.923724 
C 416.313529 180.547755 418.516497 181.460254 420.813223 181.460254 
z
" clip-path="url(#p6dbbd64b79)" style="fill: #0000ff; stroke: #000000"/>
   </g>
  </g>
 </g>
 <defs>
  <clipPath id="p6dbbd64b79">
   <rect x="0" y="0" width="460.8" height="345.6"/>
  </clipPath>
 </defs>
</svg>
