<?xml version="1.0" encoding="utf-8" standalone="no"?>
<!DOCTYPE svg PUBLIC "-//W3C//DTD SVG 1.1//EN"
  "http://www.w3.org/Graphics/SVG/1.1/DTD/svg11.dtd">
<svg xmlns:xlink="http://www.w3.org/1999/xlink" width="460.8pt" height="345.6pt" viewBox="0 0 460.8 345.6" xmlns="http://www.w3.org/2000/svg" version="1.1">
 <metadata>
  <rdf:RDF xmlns:dc="http://purl.org/dc/elements/1.1/" xmlns:cc="http://creativecommons.org/ns#" xmlns:rdf="http://www.w3.org/1999/02/22-rdf-syntax-ns#">
   <cc:Work>
    <dc:type rdf:resource="http://purl.org/dc/dcmitype/StillImage"/>
    <dc:date>2025-11-05T08:08:59.795426</dc:date>
    <dc:format>image/svg+xml</dc:format>
    <dc:creator>
     <cc:Agent>
      <dc:title>Matplotlib v3.10.5, https://matplotlib.org/</dc:title>
     </cc:Agent>
    </dc:creator>
   </cc:Work>
  </rdf:RDF>
 </metadata>
 <defs>
  <style type="text/css">*{stroke-linejoin: round; stroke-linecap: butt}</style>
 </defs>
 <g id="figure_1">
  <g id="patch_1">
   <path d="M 0 345.6 
L 460.8 345.6 
L 460.8 0 
L 0 0 
z
" style="fill: #ffffff"/>
  </g>
  <g id="axes_1">
   <g id="patch_2">
    <path d="M 47.980611 312.279153 
Q 211.357402 244.20549 373.702162 176.56184 
" clip-path="url(#peeeea04aea)" style="fill: none; stroke: #4c4c4c; stroke-linecap: round"/>
    <path d="M 372.363701 176.469532 
L 373.702162 176.56184 
L 372.825239 177.577225 
" clip-path="url(#peeeea04aea)" style="fill: none; stroke: #4c4c4c; stroke-linecap: round"/>
   </g>
   <g id="patch_3">
    <path d="M 44.317097 308.115132 
Q 59.027087 282.655535 73.177749 258.164004 
" clip-path="url(#peeeea04aea)" style="fill: none; stroke: #4c4c4c; stroke-linecap: round"/>
    <path d="M 72.057897 258.902875 
L 73.177749 258.164004 
L 73.096935 259.503208 
" clip-path="url(#peeeea04aea)" style="fill: none; stroke: #4c4c4c; stroke-linecap: round"/>
   </g>
   <g id="patch_4">
    <path d="M 44.317097 286.144376 
Q 59.027087 260.684778 73.177749 236.193247 
" clip-path="url(#peeeea04aea)" style="fill: none; stroke: #4c4c4c; stroke-linecap: round"/>
    <path d="M 72.057897 236.932119 
L 73.177749 236.193247 
L 73.096935 237.532452 
" clip-path="url(#peeeea04aea)" style="fill: none; stroke: #4c4c4c; stroke-linecap: round"/>
   </g>
   <g id="patch_5">
    <path d="M 46.231224 287.634885 
Q 97.113299 238.709813 147.189458 190.55966 
" clip-path="url(#peeeea04aea)" style="fill: none; stroke: #4c4c4c; stroke-linecap: round"/>
    <path d="M 145.908593 190.958891 
L 147.189458 190.55966 
L 146.740323 191.82389 
" clip-path="url(#peeeea04aea)" style="fill: none; stroke: #4c4c4c; stroke-linecap: round"/>
   </g>
   <g id="patch_6">
    <path d="M 47.299858 288.998167 
Q 135.194129 233.219111 222.14441 178.039124 
" clip-path="url(#peeeea04aea)" style="fill: none; stroke: #4c4c4c; stroke-linecap: round"/>
    <path d="M 220.80972 178.175516 
L 222.14441 178.039124 
L 221.45271 179.188711 
" clip-path="url(#peeeea04aea)" style="fill: none; stroke: #4c4c4c; stroke-linecap: round"/>
   </g>
   <g id="patch_7">
    <path d="M 46.534556 287.972814 
Q 116.152649 227.726386 184.925321 168.211575 
" clip-path="url(#peeeea04aea)" style="fill: none; stroke: #4c4c4c; stroke-linecap: round"/>
    <path d="M 183.625292 168.543126 
L 184.925321 168.211575 
L 184.410544 169.450528 
" clip-path="url(#peeeea04aea)" style="fill: none; stroke: #4c4c4c; stroke-linecap: round"/>
   </g>
   <g id="patch_8">
    <path d="M 42.391348 263.344888 
Q 59.028885 205.753415 75.356123 149.236054 
" clip-path="url(#peeeea04aea)" style="fill: none; stroke: #4c4c4c; stroke-linecap: round"/>
    <path d="M 74.446647 150.222387 
L 75.356123 149.236054 
L 75.599504 150.555434 
" clip-path="url(#peeeea04aea)" style="fill: none; stroke: #4c4c4c; stroke-linecap: round"/>
   </g>
   <g id="patch_9">
    <path d="M 48.215664 268.955584 
Q 173.276893 227.726608 297.2763 186.847682 
" clip-path="url(#peeeea04aea)" style="fill: none; stroke: #4c4c4c; stroke-linecap: round"/>
    <path d="M 295.948777 186.653563 
L 297.2763 186.847682 
L 296.324491 187.79323 
" clip-path="url(#peeeea04aea)" style="fill: none; stroke: #4c4c4c; stroke-linecap: round"/>
   </g>
   <g id="patch_10">
    <path d="M 48.435608 247.802077 
Q 211.358243 211.248921 373.189963 174.940523 
" clip-path="url(#peeeea04aea)" style="fill: none; stroke: #4c4c4c; stroke-linecap: round"/>
    <path d="M 371.887721 174.617777 
L 373.189963 174.940523 
L 372.150421 175.788669 
" clip-path="url(#peeeea04aea)" style="fill: none; stroke: #4c4c4c; stroke-linecap: round"/>
   </g>
   <g id="patch_11">
    <path d="M 48.394641 247.61878 
Q 173.274686 216.741846 297.069381 186.133268 
" clip-path="url(#peeeea04aea)" style="fill: none; stroke: #4c4c4c; stroke-linecap: round"/>
    <path d="M 295.760446 185.838837 
L 297.069381 186.133268 
L 296.048476 187.003757 
" clip-path="url(#peeeea04aea)" style="fill: none; stroke: #4c4c4c; stroke-linecap: round"/>
   </g>
   <g id="patch_12">
    <path d="M 48.215664 246.984828 
Q 173.276893 205.755851 297.2763 164.876926 
" clip-path="url(#peeeea04aea)" style="fill: none; stroke: #4c4c4c; stroke-linecap: round"/>
    <path d="M 295.948777 164.682807 
L 297.2763 164.876926 
L 296.324491 165.822473 
" clip-path="url(#peeeea04aea)" style="fill: none; stroke: #4c4c4c; stroke-linecap: round"/>
   </g>
   <g id="patch_13">
    <path d="M 47.487552 223.399521 
Q 59.028549 216.741253 69.601122 210.641692 
" clip-path="url(#peeeea04aea)" style="fill: none; stroke: #4c4c4c; stroke-linecap: round"/>
    <path d="M 68.261865 210.721648 
L 69.601122 210.641692 
L 68.861532 211.761071 
" clip-path="url(#peeeea04aea)" style="fill: none; stroke: #4c4c4c; stroke-linecap: round"/>
   </g>
   <g id="patch_14">
    <path d="M 48.532942 226.318183 
Q 173.275218 205.756269 296.914347 185.376193 
" clip-path="url(#peeeea04aea)" style="fill: none; stroke: #4c4c4c; stroke-linecap: round"/>
    <path d="M 295.632741 184.97935 
L 296.914347 185.376193 
L 295.827909 186.163373 
" clip-path="url(#peeeea04aea)" style="fill: none; stroke: #4c4c4c; stroke-linecap: round"/>
   </g>
   <g id="patch_15">
    <path d="M 42.391348 219.403375 
Q 59.028885 161.811902 75.356123 105.294541 
" clip-path="url(#peeeea04aea)" style="fill: none; stroke: #4c4c4c; stroke-linecap: round"/>
    <path d="M 74.446647 106.280874 
L 75.356123 105.294541 
L 75.599504 106.613921 
" clip-path="url(#peeeea04aea)" style="fill: none; stroke: #4c4c4c; stroke-linecap: round"/>
   </g>
   <g id="patch_16">
    <path d="M 45.660589 221.180185 
Q 59.02943 205.754599 71.666037 191.173899 
" clip-path="url(#peeeea04aea)" style="fill: none; stroke: #4c4c4c; stroke-linecap: round"/>
    <path d="M 70.426707 191.687768 
L 71.666037 191.173899 
L 71.333534 192.473684 
" clip-path="url(#peeeea04aea)" style="fill: none; stroke: #4c4c4c; stroke-linecap: round"/>
   </g>
   <g id="patch_17">
    <path d="M 48.303409 203.357106 
Q 116.150556 183.785814 182.923469 164.524397 
" clip-path="url(#peeeea04aea)" style="fill: none; stroke: #4c4c4c; stroke-linecap: round"/>
    <path d="M 181.604184 164.280495 
L 182.923469 164.524397 
L 181.936777 165.433484 
" clip-path="url(#peeeea04aea)" style="fill: none; stroke: #4c4c4c; stroke-linecap: round"/>
   </g>
   <g id="patch_18">
    <path d="M 48.614295 205.045076 
Q 173.273946 194.770928 296.819342 184.588616 
" clip-path="url(#peeeea04aea)" style="fill: none; stroke: #4c4c4c; stroke-linecap: round"/>
    <path d="M 295.574113 184.08921 
L 296.819342 184.588616 
L 295.67268 185.285155 
" clip-path="url(#peeeea04aea)" style="fill: none; stroke: #4c4c4c; stroke-linecap: round"/>
   </g>
   <g id="patch_19">
    <path d="M 48.490522 204.120799 
Q 154.235179 183.785288 258.88192 163.660915 
" clip-path="url(#peeeea04aea)" style="fill: none; stroke: #4c4c4c; stroke-linecap: round"/>
    <path d="M 257.590204 163.298328 
L 258.88192 163.660915 
L 257.81682 164.476736 
" clip-path="url(#peeeea04aea)" style="fill: none; stroke: #4c4c4c; stroke-linecap: round"/>
   </g>
   <g id="patch_20">
    <path d="M 48.609065 182.956312 
Q 154.236351 172.799842 258.750737 162.750382 
" clip-path="url(#peeeea04aea)" style="fill: none; stroke: #4c4c4c; stroke-linecap: round"/>
    <path d="M 257.498818 162.267992 
L 258.750737 162.750382 
L 257.613673 163.462482 
" clip-path="url(#peeeea04aea)" style="fill: none; stroke: #4c4c4c; stroke-linecap: round"/>
   </g>
   <g id="patch_21">
    <path d="M 48.646836 183.785378 
Q 173.275019 183.785378 296.785169 183.785378 
" clip-path="url(#peeeea04aea)" style="fill: none; stroke: #4c4c4c; stroke-linecap: round"/>
    <path d="M 295.585169 183.185378 
L 296.785169 183.785378 
L 295.585169 184.385378 
" clip-path="url(#peeeea04aea)" style="fill: none; stroke: #4c4c4c; stroke-linecap: round"/>
   </g>
   <g id="patch_22">
    <path d="M 48.614295 183.074319 
Q 173.273946 172.800172 296.819342 162.617859 
" clip-path="url(#peeeea04aea)" style="fill: none; stroke: #4c4c4c; stroke-linecap: round"/>
    <path d="M 295.574113 162.118454 
L 296.819342 162.617859 
L 295.67268 163.314399 
" clip-path="url(#peeeea04aea)" style="fill: none; stroke: #4c4c4c; stroke-linecap: round"/>
   </g>
   <g id="patch_23">
    <path d="M 48.647417 161.814622 
Q 59.028802 161.814622 68.292153 161.814622 
" clip-path="url(#peeeea04aea)" style="fill: none; stroke: #4c4c4c; stroke-linecap: round"/>
    <path d="M 67.092153 161.214622 
L 68.292153 161.814622 
L 67.092153 162.414622 
" clip-path="url(#peeeea04aea)" style="fill: none; stroke: #4c4c4c; stroke-linecap: round"/>
   </g>
   <g id="patch_24">
    <path d="M 48.614295 162.525681 
Q 173.273946 172.799828 296.819342 182.982141 
" clip-path="url(#peeeea04aea)" style="fill: none; stroke: #4c4c4c; stroke-linecap: round"/>
    <path d="M 295.67268 182.285601 
L 296.819342 182.982141 
L 295.574113 183.481546 
" clip-path="url(#peeeea04aea)" style="fill: none; stroke: #4c4c4c; stroke-linecap: round"/>
   </g>
   <g id="patch_25">
    <path d="M 48.608193 140.672848 
Q 211.360045 156.322064 372.998996 171.864271 
" clip-path="url(#peeeea04aea)" style="fill: none; stroke: #4c4c4c; stroke-linecap: round"/>
    <path d="M 371.861933 171.152171 
L 372.998996 171.864271 
L 371.747078 172.346661 
" clip-path="url(#peeeea04aea)" style="fill: none; stroke: #4c4c4c; stroke-linecap: round"/>
   </g>
   <g id="patch_26">
    <path d="M 48.532942 141.252574 
Q 173.275218 161.814487 296.914347 182.194564 
" clip-path="url(#peeeea04aea)" style="fill: none; stroke: #4c4c4c; stroke-linecap: round"/>
    <path d="M 295.827909 181.407384 
L 296.914347 182.194564 
L 295.632741 182.591406 
" clip-path="url(#peeeea04aea)" style="fill: none; stroke: #4c4c4c; stroke-linecap: round"/>
   </g>
   <g id="patch_27">
    <path d="M 48.540205 119.24385 
Q 211.36087 145.336906 373.077586 171.253046 
" clip-path="url(#peeeea04aea)" style="fill: none; stroke: #4c4c4c; stroke-linecap: round"/>
    <path d="M 371.987647 170.470721 
L 373.077586 171.253046 
L 371.797763 171.655602 
" clip-path="url(#peeeea04aea)" style="fill: none; stroke: #4c4c4c; stroke-linecap: round"/>
   </g>
   <g id="patch_28">
    <path d="M 48.394641 119.951976 
Q 173.274686 150.82891 297.069381 181.437489 
" clip-path="url(#peeeea04aea)" style="fill: none; stroke: #4c4c4c; stroke-linecap: round"/>
    <path d="M 296.048476 180.566999 
L 297.069381 181.437489 
L 295.760446 181.731919 
" clip-path="url(#peeeea04aea)" style="fill: none; stroke: #4c4c4c; stroke-linecap: round"/>
   </g>
   <g id="patch_29">
    <path d="M 47.486389 100.229052 
Q 97.109308 128.857659 145.763802 156.927559 
" clip-path="url(#peeeea04aea)" style="fill: none; stroke: #4c4c4c; stroke-linecap: round"/>
    <path d="M 145.024213 155.808181 
L 145.763802 156.927559 
L 144.424546 156.847604 
" clip-path="url(#peeeea04aea)" style="fill: none; stroke: #4c4c4c; stroke-linecap: round"/>
   </g>
   <g id="patch_30">
    <path d="M 48.647417 95.902352 
Q 59.028802 95.902352 68.292153 95.902352 
" clip-path="url(#peeeea04aea)" style="fill: none; stroke: #4c4c4c; stroke-linecap: round"/>
    <path d="M 67.092153 95.302352 
L 68.292153 95.902352 
L 67.092153 96.502352 
" clip-path="url(#peeeea04aea)" style="fill: none; stroke: #4c4c4c; stroke-linecap: round"/>
   </g>
   <g id="patch_31">
    <path d="M 48.310092 76.332552 
Q 211.360235 123.366247 373.336145 170.090067 
" clip-path="url(#peeeea04aea)" style="fill: none; stroke: #4c4c4c; stroke-linecap: round"/>
    <path d="M 372.349454 169.18098 
L 373.336145 170.090067 
L 372.016861 170.333969 
" clip-path="url(#peeeea04aea)" style="fill: none; stroke: #4c4c4c; stroke-linecap: round"/>
   </g>
   <g id="patch_32">
    <path d="M 47.487552 78.258966 
Q 59.028549 84.917233 69.601122 91.016795 
" clip-path="url(#peeeea04aea)" style="fill: none; stroke: #4c4c4c; stroke-linecap: round"/>
    <path d="M 68.861532 89.897416 
L 69.601122 91.016795 
L 68.261865 90.936839 
" clip-path="url(#peeeea04aea)" style="fill: none; stroke: #4c4c4c; stroke-linecap: round"/>
   </g>
   <g id="patch_33">
    <path d="M 44.317097 81.426381 
Q 59.027087 106.885978 73.177749 131.377509 
" clip-path="url(#peeeea04aea)" style="fill: none; stroke: #4c4c4c; stroke-linecap: round"/>
    <path d="M 73.096935 130.038305 
L 73.177749 131.377509 
L 72.057897 130.638638 
" clip-path="url(#peeeea04aea)" style="fill: none; stroke: #4c4c4c; stroke-linecap: round"/>
   </g>
   <g id="patch_34">
    <path d="M 47.671759 77.921875 
Q 135.19233 123.365248 221.72065 168.293414 
" clip-path="url(#peeeea04aea)" style="fill: none; stroke: #4c4c4c; stroke-linecap: round"/>
    <path d="M 220.932143 167.207938 
L 221.72065 168.293414 
L 220.379165 168.272934 
" clip-path="url(#peeeea04aea)" style="fill: none; stroke: #4c4c4c; stroke-linecap: round"/>
   </g>
   <g id="patch_35">
    <path d="M 47.486389 56.287539 
Q 154.233017 117.872131 260.011219 178.898017 
" clip-path="url(#peeeea04aea)" style="fill: none; stroke: #4c4c4c; stroke-linecap: round"/>
    <path d="M 259.27163 177.778639 
L 260.011219 178.898017 
L 258.671963 178.818062 
" clip-path="url(#peeeea04aea)" style="fill: none; stroke: #4c4c4c; stroke-linecap: round"/>
   </g>
   <g id="patch_36">
    <path d="M 48.153196 54.840025 
Q 211.358967 112.380522 373.510318 169.549267 
" clip-path="url(#peeeea04aea)" style="fill: none; stroke: #4c4c4c; stroke-linecap: round"/>
    <path d="M 372.578098 168.584401 
L 373.510318 169.549267 
L 372.179093 169.716124 
" clip-path="url(#peeeea04aea)" style="fill: none; stroke: #4c4c4c; stroke-linecap: round"/>
   </g>
   <g id="patch_37">
    <path d="M 43.430346 37.936781 
Q 59.028395 73.932279 74.181906 108.901919 
" clip-path="url(#peeeea04aea)" style="fill: none; stroke: #4c4c4c; stroke-linecap: round"/>
    <path d="M 74.25531 107.562288 
L 74.181906 108.901919 
L 73.154244 108.039417 
" clip-path="url(#peeeea04aea)" style="fill: none; stroke: #4c4c4c; stroke-linecap: round"/>
   </g>
   <g id="patch_38">
    <path d="M 81.182929 103.985496 
Q 97.111025 145.337284 112.637253 185.64576 
" clip-path="url(#peeeea04aea)" style="fill: none; stroke: #4c4c4c; stroke-linecap: round"/>
    <path d="M 112.765822 184.310294 
L 112.637253 185.64576 
L 111.646022 184.741625 
" clip-path="url(#peeeea04aea)" style="fill: none; stroke: #4c4c4c; stroke-linecap: round"/>
   </g>
   <g id="patch_39">
    <path d="M 85.569034 100.229052 
Q 135.191953 128.857659 183.846447 156.927559 
" clip-path="url(#peeeea04aea)" style="fill: none; stroke: #4c4c4c; stroke-linecap: round"/>
    <path d="M 183.106858 155.808181 
L 183.846447 156.927559 
L 182.507191 156.847604 
" clip-path="url(#peeeea04aea)" style="fill: none; stroke: #4c4c4c; stroke-linecap: round"/>
   </g>
   <g id="patch_40">
    <path d="M 86.469731 98.022623 
Q 230.402795 134.351882 373.251822 170.407525 
" clip-path="url(#peeeea04aea)" style="fill: none; stroke: #4c4c4c; stroke-linecap: round"/>
    <path d="M 372.235149 169.532096 
L 373.251822 170.407525 
L 371.941475 170.695606 
" clip-path="url(#peeeea04aea)" style="fill: none; stroke: #4c4c4c; stroke-linecap: round"/>
   </g>
   <g id="patch_41">
    <path d="M 86.154778 99.012105 
Q 192.319152 139.844556 297.440014 180.275657 
" clip-path="url(#peeeea04aea)" style="fill: none; stroke: #4c4c4c; stroke-linecap: round"/>
    <path d="M 296.535386 179.284875 
L 297.440014 180.275657 
L 296.104611 180.404889 
" clip-path="url(#peeeea04aea)" style="fill: none; stroke: #4c4c4c; stroke-linecap: round"/>
   </g>
   <g id="patch_42">
    <path d="M 86.683574 140.775685 
Q 230.399813 156.321912 373.004502 171.7479 
" clip-path="url(#peeeea04aea)" style="fill: none; stroke: #4c4c4c; stroke-linecap: round"/>
    <path d="M 371.875989 171.022325 
L 373.004502 171.7479 
L 371.746934 172.215366 
" clip-path="url(#peeeea04aea)" style="fill: none; stroke: #4c4c4c; stroke-linecap: round"/>
   </g>
   <g id="patch_43">
    <path d="M 84.6172 145.510212 
Q 97.109696 156.321026 108.756769 166.400224 
" clip-path="url(#peeeea04aea)" style="fill: none; stroke: #4c4c4c; stroke-linecap: round"/>
    <path d="M 108.241993 165.16127 
L 108.756769 166.400224 
L 107.456741 166.068673 
" clip-path="url(#peeeea04aea)" style="fill: none; stroke: #4c4c4c; stroke-linecap: round"/>
   </g>
   <g id="patch_44">
    <path d="M 86.534814 141.67532 
Q 154.23724 156.32248 220.846913 170.733226 
" clip-path="url(#peeeea04aea)" style="fill: none; stroke: #4c4c4c; stroke-linecap: round"/>
    <path d="M 219.80092 169.893049 
L 220.846913 170.733226 
L 219.547175 171.065914 
" clip-path="url(#peeeea04aea)" style="fill: none; stroke: #4c4c4c; stroke-linecap: round"/>
   </g>
   <g id="patch_45">
    <path d="M 86.720764 162.126569 
Q 230.396365 167.30718 372.954658 172.447503 
" clip-path="url(#peeeea04aea)" style="fill: none; stroke: #4c4c4c; stroke-linecap: round"/>
    <path d="M 371.777058 171.804651 
L 372.954658 172.447503 
L 371.733817 173.003872 
" clip-path="url(#peeeea04aea)" style="fill: none; stroke: #4c4c4c; stroke-linecap: round"/>
   </g>
   <g id="patch_46">
    <path d="M 84.6172 200.089788 
Q 97.109696 189.278974 108.756769 179.199776 
" clip-path="url(#peeeea04aea)" style="fill: none; stroke: #4c4c4c; stroke-linecap: round"/>
    <path d="M 107.456741 179.531327 
L 108.756769 179.199776 
L 108.241993 180.43873 
" clip-path="url(#peeeea04aea)" style="fill: none; stroke: #4c4c4c; stroke-linecap: round"/>
   </g>
   <g id="patch_47">
    <path d="M 86.590599 226.190621 
Q 230.39716 200.263958 373.103426 174.535665 
" clip-path="url(#peeeea04aea)" style="fill: none; stroke: #4c4c4c; stroke-linecap: round"/>
    <path d="M 371.816009 174.158098 
L 373.103426 174.535665 
L 372.028922 175.339058 
" clip-path="url(#peeeea04aea)" style="fill: none; stroke: #4c4c4c; stroke-linecap: round"/>
   </g>
   <g id="patch_48">
    <path d="M 81.912784 219.966255 
Q 97.110854 189.277845 111.812744 159.591335 
" clip-path="url(#peeeea04aea)" style="fill: none; stroke: #4c4c4c; stroke-linecap: round"/>
    <path d="M 110.742512 160.40041 
L 111.812744 159.591335 
L 111.817865 160.932966 
" clip-path="url(#peeeea04aea)" style="fill: none; stroke: #4c4c4c; stroke-linecap: round"/>
   </g>
   <g id="patch_49">
    <path d="M 86.590599 119.409379 
Q 230.39716 145.336042 373.103426 171.064335 
" clip-path="url(#peeeea04aea)" style="fill: none; stroke: #4c4c4c; stroke-linecap: round"/>
    <path d="M 372.028922 170.260942 
L 373.103426 171.064335 
L 371.816009 171.441902 
" clip-path="url(#peeeea04aea)" style="fill: none; stroke: #4c4c4c; stroke-linecap: round"/>
   </g>
   <g id="patch_50">
    <path d="M 86.254145 120.706282 
Q 173.276762 150.829496 259.242853 180.586989 
" clip-path="url(#peeeea04aea)" style="fill: none; stroke: #4c4c4c; stroke-linecap: round"/>
    <path d="M 258.305136 179.627464 
L 259.242853 180.586989 
L 257.912603 180.761448 
" clip-path="url(#peeeea04aea)" style="fill: none; stroke: #4c4c4c; stroke-linecap: round"/>
   </g>
   <g id="patch_51">
    <path d="M 81.182929 241.614504 
Q 97.111025 200.262716 112.637253 159.95424 
" clip-path="url(#peeeea04aea)" style="fill: none; stroke: #4c4c4c; stroke-linecap: round"/>
    <path d="M 111.646022 160.858375 
L 112.637253 159.95424 
L 112.765822 161.289706 
" clip-path="url(#peeeea04aea)" style="fill: none; stroke: #4c4c4c; stroke-linecap: round"/>
   </g>
   <g id="patch_52">
    <path d="M 86.726575 183.785378 
Q 135.192705 183.785378 182.5408 183.785378 
" clip-path="url(#peeeea04aea)" style="fill: none; stroke: #4c4c4c; stroke-linecap: round"/>
    <path d="M 181.3408 183.185378 
L 182.5408 183.785378 
L 181.3408 184.385378 
" clip-path="url(#peeeea04aea)" style="fill: none; stroke: #4c4c4c; stroke-linecap: round"/>
   </g>
   <g id="patch_53">
    <path d="M 124.795855 194.272076 
Q 211.357945 189.27811 296.803858 184.348538 
" clip-path="url(#peeeea04aea)" style="fill: none; stroke: #4c4c4c; stroke-linecap: round"/>
    <path d="M 295.571292 183.81865 
L 296.803858 184.348538 
L 295.640408 185.016658 
" clip-path="url(#peeeea04aea)" style="fill: none; stroke: #4c4c4c; stroke-linecap: round"/>
   </g>
   <g id="patch_54">
    <path d="M 122.699845 189.104409 
Q 135.192341 178.293596 146.839414 168.214398 
" clip-path="url(#peeeea04aea)" style="fill: none; stroke: #4c4c4c; stroke-linecap: round"/>
    <path d="M 145.539385 168.545949 
L 146.839414 168.214398 
L 146.324637 169.453351 
" clip-path="url(#peeeea04aea)" style="fill: none; stroke: #4c4c4c; stroke-linecap: round"/>
   </g>
   <g id="patch_55">
    <path d="M 124.468698 192.371728 
Q 135.189477 189.279196 144.836022 186.496538 
" clip-path="url(#peeeea04aea)" style="fill: none; stroke: #4c4c4c; stroke-linecap: round"/>
    <path d="M 143.516738 186.252637 
L 144.836022 186.496538 
L 143.849331 187.405625 
" clip-path="url(#peeeea04aea)" style="fill: none; stroke: #4c4c4c; stroke-linecap: round"/>
   </g>
   <g id="patch_56">
    <path d="M 124.685447 152.306175 
Q 211.358396 167.307262 296.92969 182.117678 
" clip-path="url(#peeeea04aea)" style="fill: none; stroke: #4c4c4c; stroke-linecap: round"/>
    <path d="M 295.849595 181.321818 
L 296.92969 182.117678 
L 295.644945 182.504239 
" clip-path="url(#peeeea04aea)" style="fill: none; stroke: #4c4c4c; stroke-linecap: round"/>
   </g>
   <g id="patch_57">
    <path d="M 124.80922 172.8 
Q 173.275349 172.8 220.623445 172.8 
" clip-path="url(#peeeea04aea)" style="fill: none; stroke: #4c4c4c; stroke-linecap: round"/>
    <path d="M 219.423445 172.2 
L 220.623445 172.8 
L 219.423445 173.4 
" clip-path="url(#peeeea04aea)" style="fill: none; stroke: #4c4c4c; stroke-linecap: round"/>
   </g>
   <g id="patch_58">
    <path d="M 162.895351 183.785378 
Q 230.400667 183.785378 296.78795 183.785378 
" clip-path="url(#peeeea04aea)" style="fill: none; stroke: #4c4c4c; stroke-linecap: round"/>
    <path d="M 295.58795 183.185378 
L 296.78795 183.785378 
L 295.58795 184.385378 
" clip-path="url(#peeeea04aea)" style="fill: none; stroke: #4c4c4c; stroke-linecap: round"/>
   </g>
   <g id="patch_59">
    <path d="M 161.735486 166.141992 
Q 173.276483 172.80026 183.849055 178.899821 
" clip-path="url(#peeeea04aea)" style="fill: none; stroke: #4c4c4c; stroke-linecap: round"/>
    <path d="M 183.109466 177.780442 
L 183.849055 178.899821 
L 182.509799 178.819865 
" clip-path="url(#peeeea04aea)" style="fill: none; stroke: #4c4c4c; stroke-linecap: round"/>
   </g>
   <g id="patch_60">
    <path d="M 162.802376 163.050343 
Q 230.399638 172.799948 296.890317 182.38995 
" clip-path="url(#peeeea04aea)" style="fill: none; stroke: #4c4c4c; stroke-linecap: round"/>
    <path d="M 295.788259 181.62479 
L 296.890317 182.38995 
L 295.616955 182.8125 
" clip-path="url(#peeeea04aea)" style="fill: none; stroke: #4c4c4c; stroke-linecap: round"/>
   </g>
   <g id="patch_61">
    <path d="M 162.895351 161.814622 
Q 173.276736 161.814622 182.540087 161.814622 
" clip-path="url(#peeeea04aea)" style="fill: none; stroke: #4c4c4c; stroke-linecap: round"/>
    <path d="M 181.340087 161.214622 
L 182.540087 161.814622 
L 181.340087 162.414622 
" clip-path="url(#peeeea04aea)" style="fill: none; stroke: #4c4c4c; stroke-linecap: round"/>
   </g>
   <g id="patch_62">
    <path d="M 200.974509 183.785378 
Q 249.440639 183.785378 296.788734 183.785378 
" clip-path="url(#peeeea04aea)" style="fill: none; stroke: #4c4c4c; stroke-linecap: round"/>
    <path d="M 295.588734 183.185378 
L 296.788734 183.785378 
L 295.588734 184.385378 
" clip-path="url(#peeeea04aea)" style="fill: none; stroke: #4c4c4c; stroke-linecap: round"/>
   </g>
   <g id="patch_63">
    <path d="M 200.633988 164.21365 
Q 211.354766 167.306183 221.001312 170.08884 
" clip-path="url(#peeeea04aea)" style="fill: none; stroke: #4c4c4c; stroke-linecap: round"/>
    <path d="M 220.01462 169.179753 
L 221.001312 170.08884 
L 219.682027 170.332741 
" clip-path="url(#peeeea04aea)" style="fill: none; stroke: #4c4c4c; stroke-linecap: round"/>
   </g>
   <g id="patch_64">
    <path d="M 238.716632 175.199029 
Q 249.437411 178.291561 259.083956 181.074218 
" clip-path="url(#peeeea04aea)" style="fill: none; stroke: #4c4c4c; stroke-linecap: round"/>
    <path d="M 258.097264 180.165131 
L 259.083956 181.074218 
L 257.764672 181.31812 
" clip-path="url(#peeeea04aea)" style="fill: none; stroke: #4c4c4c; stroke-linecap: round"/>
   </g>
   <g id="patch_65">
    <path d="M 238.716632 170.400971 
Q 249.437411 167.308439 259.083956 164.525782 
" clip-path="url(#peeeea04aea)" style="fill: none; stroke: #4c4c4c; stroke-linecap: round"/>
    <path d="M 257.764672 164.28188 
L 259.083956 164.525782 
L 258.097264 165.434869 
" clip-path="url(#peeeea04aea)" style="fill: none; stroke: #4c4c4c; stroke-linecap: round"/>
   </g>
   <g id="patch_66">
    <path d="M 277.104933 182.956312 
Q 325.606406 178.292709 372.994978 173.736115 
" clip-path="url(#peeeea04aea)" style="fill: none; stroke: #4c4c4c; stroke-linecap: round"/>
    <path d="M 371.74306 173.253725 
L 372.994978 173.736115 
L 371.857915 174.448216 
" clip-path="url(#peeeea04aea)" style="fill: none; stroke: #4c4c4c; stroke-linecap: round"/>
   </g>
   <g id="patch_67">
    <path d="M 277.143285 183.785378 
Q 287.52467 183.785378 296.78802 183.785378 
" clip-path="url(#peeeea04aea)" style="fill: none; stroke: #4c4c4c; stroke-linecap: round"/>
    <path d="M 295.58802 183.185378 
L 296.78802 183.785378 
L 295.58802 184.385378 
" clip-path="url(#peeeea04aea)" style="fill: none; stroke: #4c4c4c; stroke-linecap: round"/>
   </g>
   <g id="patch_68">
    <path d="M 277.143285 161.814622 
Q 287.52467 161.814622 296.78802 161.814622 
" clip-path="url(#peeeea04aea)" style="fill: none; stroke: #4c4c4c; stroke-linecap: round"/>
    <path d="M 295.58802 161.214622 
L 296.78802 161.814622 
L 295.58802 162.414622 
" clip-path="url(#peeeea04aea)" style="fill: none; stroke: #4c4c4c; stroke-linecap: round"/>
   </g>
   <g id="patch_69">
    <path d="M 315.187577 182.956312 
Q 363.689051 178.292709 411.077623 173.736115 
" clip-path="url(#peeeea04aea)" style="fill: none; stroke: #4c4c4c; stroke-linecap: round"/>
    <path d="M 409.825705 173.253725 
L 411.077623 173.736115 
L 409.94056 174.448216 
" clip-path="url(#peeeea04aea)" style="fill: none; stroke: #4c4c4c; stroke-linecap: round"/>
   </g>
   <g id="patch_70">
    <path d="M 315.132955 182.549657 
Q 344.64709 178.292811 373.054643 174.195568 
" clip-path="url(#peeeea04aea)" style="fill: none; stroke: #4c4c4c; stroke-linecap: round"/>
    <path d="M 371.781281 173.773017 
L 373.054643 174.195568 
L 371.952585 174.960727 
" clip-path="url(#peeeea04aea)" style="fill: none; stroke: #4c4c4c; stroke-linecap: round"/>
   </g>
   <g id="patch_71">
    <path d="M 314.881921 164.21365 
Q 325.6027 167.306183 335.249246 170.08884 
" clip-path="url(#peeeea04aea)" style="fill: none; stroke: #4c4c4c; stroke-linecap: round"/>
    <path d="M 334.262554 169.179753 
L 335.249246 170.08884 
L 333.929961 170.332741 
" clip-path="url(#peeeea04aea)" style="fill: none; stroke: #4c4c4c; stroke-linecap: round"/>
   </g>
   <g id="patch_72">
    <path d="M 353.308574 172.8 
Q 363.689959 172.8 372.95331 172.8 
" clip-path="url(#peeeea04aea)" style="fill: none; stroke: #4c4c4c; stroke-linecap: round"/>
    <path d="M 371.75331 172.2 
L 372.95331 172.8 
L 371.75331 173.4 
" clip-path="url(#peeeea04aea)" style="fill: none; stroke: #4c4c4c; stroke-linecap: round"/>
   </g>
   <g id="patch_73">
    <path d="M 391.391219 172.8 
Q 401.772604 172.8 411.035954 172.8 
" clip-path="url(#peeeea04aea)" style="fill: none; stroke: #4c4c4c; stroke-linecap: round"/>
    <path d="M 409.835954 172.2 
L 411.035954 172.8 
L 409.835954 173.4 
" clip-path="url(#peeeea04aea)" style="fill: none; stroke: #4c4c4c; stroke-linecap: round"/>
   </g>
   <g id="PathCollection_1">
    <path d="M 39.986777 324.270171 
C 42.283503 324.270171 44.486471 323.357672 46.110501 321.733642 
C 47.734532 320.109611 48.647031 317.906644 48.647031 315.609917 
C 48.647031 313.313191 47.734532 311.110224 46.110501 309.486193 
C 44.486471 307.862162 42.283503 306.949663 39.986777 306.949663 
C 37.690051 306.949663 35.487083 307.862162 33.863053 309.486193 
C 32.239022 311.110224 31.326523 313.313191 31.326523 315.609917 
C 31.326523 317.906644 32.239022 320.109611 33.863053 321.733642 
C 35.487083 323.357672 37.690051 324.270171 39.986777 324.270171 
z
" clip-path="url(#peeeea04aea)" style="fill: #ffff00; stroke: #000000"/>
    <path d="M 39.986777 302.299415 
C 42.283503 302.299415 44.486471 301.386916 46.110501 299.762885 
C 47.734532 298.138855 48.647031 295.935887 48.647031 293.639161 
C 48.647031 291.342435 47.734532 289.139467 46.110501 287.515436 
C 44.486471 285.891406 42.283503 284.978907 39.986777 284.978907 
C 37.690051 284.978907 35.487083 285.891406 33.863053 287.515436 
C 32.239022 289.139467 31.326523 291.342435 31.326523 293.639161 
C 31.326523 295.935887 32.239022 298.138855 33.863053 299.762885 
C 35.487083 301.386916 37.690051 302.299415 39.986777 302.299415 
z
" clip-path="url(#peeeea04aea)" style="fill: #ffff00; stroke: #000000"/>
    <path d="M 39.986777 280.328658 
C 42.283503 280.328658 44.486471 279.416159 46.110501 277.792129 
C 47.734532 276.168098 48.647031 273.965131 48.647031 271.668404 
C 48.647031 269.371678 47.734532 267.168711 46.110501 265.54468 
C 44.486471 263.920649 42.283503 263.00815 39.986777 263.00815 
C 37.690051 263.00815 35.487083 263.920649 33.863053 265.54468 
C 32.239022 267.168711 31.326523 269.371678 31.326523 271.668404 
C 31.326523 273.965131 32.239022 276.168098 33.863053 277.792129 
C 35.487083 279.416159 37.690051 280.328658 39.986777 280.328658 
z
" clip-path="url(#peeeea04aea)" style="fill: #ffff00; stroke: #000000"/>
    <path d="M 39.986777 258.357902 
C 42.283503 258.357902 44.486471 257.445403 46.110501 255.821372 
C 47.734532 254.197341 48.647031 251.994374 48.647031 249.697648 
C 48.647031 247.400922 47.734532 245.197954 46.110501 243.573923 
C 44.486471 241.949893 42.283503 241.037394 39.986777 241.037394 
C 37.690051 241.037394 35.487083 241.949893 33.863053 243.573923 
C 32.239022 245.197954 31.326523 247.400922 31.326523 249.697648 
C 31.326523 251.994374 32.239022 254.197341 33.863053 255.821372 
C 35.487083 257.445403 37.690051 258.357902 39.986777 258.357902 
z
" clip-path="url(#peeeea04aea)" style="fill: #ffff00; stroke: #000000"/>
    <path d="M 39.986777 236.387145 
C 42.283503 236.387145 44.486471 235.474646 46.110501 233.850616 
C 47.734532 232.226585 48.647031 230.023618 48.647031 227.726891 
C 48.647031 225.430165 47.734532 223.227198 46.110501 221.603167 
C 44.486471 219.979136 42.283503 219.066637 39.986777 219.066637 
C 37.690051 219.066637 35.487083 219.979136 33.863053 221.603167 
C 32.239022 223.227198 31.326523 225.430165 31.326523 227.726891 
C 31.326523 230.023618 32.239022 232.226585 33.863053 233.850616 
C 35.487083 235.474646 37.690051 236.387145 39.986777 236.387145 
z
" clip-path="url(#peeeea04aea)" style="fill: #ffff00; stroke: #000000"/>
    <path d="M 39.986777 214.416389 
C 42.283503 214.416389 44.486471 213.50389 46.110501 211.879859 
C 47.734532 210.255828 48.647031 208.052861 48.647031 205.756135 
C 48.647031 203.459409 47.734532 201.256441 46.110501 199.63241 
C 44.486471 198.00838 42.283503 197.095881 39.986777 197.095881 
C 37.690051 197.095881 35.487083 198.00838 33.863053 199.63241 
C 32.239022 201.256441 31.326523 203.459409 31.326523 205.756135 
C 31.326523 208.052861 32.239022 210.255828 33.863053 211.879859 
C 35.487083 213.50389 37.690051 214.416389 39.986777 214.416389 
z
" clip-path="url(#peeeea04aea)" style="fill: #ffff00; stroke: #000000"/>
    <path d="M 39.986777 192.445632 
C 42.283503 192.445632 44.486471 191.533133 46.110501 189.909103 
C 47.734532 188.285072 48.647031 186.082104 48.647031 183.785378 
C 48.647031 181.488652 47.734532 179.285685 46.110501 177.661654 
C 44.486471 176.037623 42.283503 175.125124 39.986777 175.125124 
C 37.690051 175.125124 35.487083 176.037623 33.863053 177.661654 
C 32.239022 179.285685 31.326523 181.488652 31.326523 183.785378 
C 31.326523 186.082104 32.239022 188.285072 33.863053 189.909103 
C 35.487083 191.533133 37.690051 192.445632 39.986777 192.445632 
z
" clip-path="url(#peeeea04aea)" style="fill: #ffff00; stroke: #000000"/>
    <path d="M 39.986777 170.474876 
C 42.283503 170.474876 44.486471 169.562377 46.110501 167.938346 
C 47.734532 166.314315 48.647031 164.111348 48.647031 161.814622 
C 48.647031 159.517896 47.734532 157.314928 46.110501 155.690897 
C 44.486471 154.066867 42.283503 153.154368 39.986777 153.154368 
C 37.690051 153.154368 35.487083 154.066867 33.863053 155.690897 
C 32.239022 157.314928 31.326523 159.517896 31.326523 161.814622 
C 31.326523 164.111348 32.239022 166.314315 33.863053 167.938346 
C 35.487083 169.562377 37.690051 170.474876 39.986777 170.474876 
z
" clip-path="url(#peeeea04aea)" style="fill: #ffff00; stroke: #000000"/>
    <path d="M 39.986777 148.504119 
C 42.283503 148.504119 44.486471 147.59162 46.110501 145.96759 
C 47.734532 144.343559 48.647031 142.140591 48.647031 139.843865 
C 48.647031 137.547139 47.734532 135.344172 46.110501 133.720141 
C 44.486471 132.09611 42.283503 131.183611 39.986777 131.183611 
C 37.690051 131.183611 35.487083 132.09611 33.863053 133.720141 
C 32.239022 135.344172 31.326523 137.547139 31.326523 139.843865 
C 31.326523 142.140591 32.239022 144.343559 33.863053 145.96759 
C 35.487083 147.59162 37.690051 148.504119 39.986777 148.504119 
z
" clip-path="url(#peeeea04aea)" style="fill: #ffff00; stroke: #000000"/>
    <path d="M 39.986777 126.533363 
C 42.283503 126.533363 44.486471 125.620864 46.110501 123.996833 
C 47.734532 122.372802 48.647031 120.169835 48.647031 117.873109 
C 48.647031 115.576382 47.734532 113.373415 46.110501 111.749384 
C 44.486471 110.125354 42.283503 109.212855 39.986777 109.212855 
C 37.690051 109.212855 35.487083 110.125354 33.863053 111.749384 
C 32.239022 113.373415 31.326523 115.576382 31.326523 117.873109 
C 31.326523 120.169835 32.239022 122.372802 33.863053 123.996833 
C 35.487083 125.620864 37.690051 126.533363 39.986777 126.533363 
z
" clip-path="url(#peeeea04aea)" style="fill: #ffff00; stroke: #000000"/>
    <path d="M 39.986777 104.562606 
C 42.283503 104.562606 44.486471 103.650107 46.110501 102.026077 
C 47.734532 100.402046 48.647031 98.199078 48.647031 95.902352 
C 48.647031 93.605626 47.734532 91.402659 46.110501 89.778628 
C 44.486471 88.154597 42.283503 87.242098 39.986777 87.242098 
C 37.690051 87.242098 35.487083 88.154597 33.863053 89.778628 
C 32.239022 91.402659 31.326523 93.605626 31.326523 95.902352 
C 31.326523 98.199078 32.239022 100.402046 33.863053 102.026077 
C 35.487083 103.650107 37.690051 104.562606 39.986777 104.562606 
z
" clip-path="url(#peeeea04aea)" style="fill: #ffff00; stroke: #000000"/>
    <path d="M 39.986777 82.59185 
C 42.283503 82.59185 44.486471 81.679351 46.110501 80.05532 
C 47.734532 78.431289 48.647031 76.228322 48.647031 73.931596 
C 48.647031 71.634869 47.734532 69.431902 46.110501 67.807871 
C 44.486471 66.183841 42.283503 65.271342 39.986777 65.271342 
C 37.690051 65.271342 35.487083 66.183841 33.863053 67.807871 
C 32.239022 69.431902 31.326523 71.634869 31.326523 73.931596 
C 31.326523 76.228322 32.239022 78.431289 33.863053 80.05532 
C 35.487083 81.679351 37.690051 82.59185 39.986777 82.59185 
z
" clip-path="url(#peeeea04aea)" style="fill: #ffff00; stroke: #000000"/>
    <path d="M 39.986777 60.621093 
C 42.283503 60.621093 44.486471 59.708594 46.110501 58.084564 
C 47.734532 56.460533 48.647031 54.257565 48.647031 51.960839 
C 48.647031 49.664113 47.734532 47.461145 46.110501 45.837115 
C 44.486471 44.213084 42.283503 43.300585 39.986777 43.300585 
C 37.690051 43.300585 35.487083 44.213084 33.863053 45.837115 
C 32.239022 47.461145 31.326523 49.664113 31.326523 51.960839 
C 31.326523 54.257565 32.239022 56.460533 33.863053 58.084564 
C 35.487083 59.708594 37.690051 60.621093 39.986777 60.621093 
z
" clip-path="url(#peeeea04aea)" style="fill: #ffffff; stroke: #000000"/>
    <path d="M 39.986777 38.650337 
C 42.283503 38.650337 44.486471 37.737838 46.110501 36.113807 
C 47.734532 34.489776 48.647031 32.286809 48.647031 29.990083 
C 48.647031 27.693356 47.734532 25.490389 46.110501 23.866358 
C 44.486471 22.242328 42.283503 21.329829 39.986777 21.329829 
C 37.690051 21.329829 35.487083 22.242328 33.863053 23.866358 
C 32.239022 25.490389 31.326523 27.693356 31.326523 29.990083 
C 31.326523 32.286809 32.239022 34.489776 33.863053 36.113807 
C 35.487083 37.737838 37.690051 38.650337 39.986777 38.650337 
z
" clip-path="url(#peeeea04aea)" style="fill: #ffffff; stroke: #000000"/>
    <path d="M 78.069421 104.562606 
C 80.366148 104.562606 82.569115 103.650107 84.193146 102.026077 
C 85.817177 100.402046 86.729676 98.199078 86.729676 95.902352 
C 86.729676 93.605626 85.817177 91.402659 84.193146 89.778628 
C 82.569115 88.154597 80.366148 87.242098 78.069421 87.242098 
C 75.772695 87.242098 73.569728 88.154597 71.945697 89.778628 
C 70.321666 91.402659 69.409167 93.605626 69.409167 95.902352 
C 69.409167 98.199078 70.321666 100.402046 71.945697 102.026077 
C 73.569728 103.650107 75.772695 104.562606 78.069421 104.562606 
z
" clip-path="url(#peeeea04aea)" style="fill: #ffffff; stroke: #000000"/>
    <path d="M 78.069421 148.504119 
C 80.366148 148.504119 82.569115 147.59162 84.193146 145.96759 
C 85.817177 144.343559 86.729676 142.140591 86.729676 139.843865 
C 86.729676 137.547139 85.817177 135.344172 84.193146 133.720141 
C 82.569115 132.09611 80.366148 131.183611 78.069421 131.183611 
C 75.772695 131.183611 73.569728 132.09611 71.945697 133.720141 
C 70.321666 135.344172 69.409167 137.547139 69.409167 139.843865 
C 69.409167 142.140591 70.321666 144.343559 71.945697 145.96759 
C 73.569728 147.59162 75.772695 148.504119 78.069421 148.504119 
z
" clip-path="url(#peeeea04aea)" style="fill: #ffffff; stroke: #000000"/>
    <path d="M 78.069421 170.474876 
C 80.366148 170.474876 82.569115 169.562377 84.193146 167.938346 
C 85.817177 166.314315 86.729676 164.111348 86.729676 161.814622 
C 86.729676 159.517896 85.817177 157.314928 84.193146 155.690897 
C 82.569115 154.066867 80.366148 153.154368 78.069421 153.154368 
C 75.772695 153.154368 73.569728 154.066867 71.945697 155.690897 
C 70.321666 157.314928 69.409167 159.517896 69.409167 161.814622 
C 69.409167 164.111348 70.321666 166.314315 71.945697 167.938346 
C 73.569728 169.562377 75.772695 170.474876 78.069421 170.474876 
z
" clip-path="url(#peeeea04aea)" style="fill: #ffffff; stroke: #000000"/>
    <path d="M 78.069421 214.416389 
C 80.366148 214.416389 82.569115 213.50389 84.193146 211.879859 
C 85.817177 210.255828 86.729676 208.052861 86.729676 205.756135 
C 86.729676 203.459409 85.817177 201.256441 84.193146 199.63241 
C 82.569115 198.00838 80.366148 197.095881 78.069421 197.095881 
C 75.772695 197.095881 73.569728 198.00838 71.945697 199.63241 
C 70.321666 201.256441 69.409167 203.459409 69.409167 205.756135 
C 69.409167 208.052861 70.321666 210.255828 71.945697 211.879859 
C 73.569728 213.50389 75.772695 214.416389 78.069421 214.416389 
z
" clip-path="url(#peeeea04aea)" style="fill: #ffffff; stroke: #000000"/>
    <path d="M 78.069421 236.387145 
C 80.366148 236.387145 82.569115 235.474646 84.193146 233.850616 
C 85.817177 232.226585 86.729676 230.023618 86.729676 227.726891 
C 86.729676 225.430165 85.817177 223.227198 84.193146 221.603167 
C 82.569115 219.979136 80.366148 219.066637 78.069421 219.066637 
C 75.772695 219.066637 73.569728 219.979136 71.945697 221.603167 
C 70.321666 223.227198 69.409167 225.430165 69.409167 227.726891 
C 69.409167 230.023618 70.321666 232.226585 71.945697 233.850616 
C 73.569728 235.474646 75.772695 236.387145 78.069421 236.387145 
z
" clip-path="url(#peeeea04aea)" style="fill: #ffffff; stroke: #000000"/>
    <path d="M 78.069421 126.533363 
C 80.366148 126.533363 82.569115 125.620864 84.193146 123.996833 
C 85.817177 122.372802 86.729676 120.169835 86.729676 117.873109 
C 86.729676 115.576382 85.817177 113.373415 84.193146 111.749384 
C 82.569115 110.125354 80.366148 109.212855 78.069421 109.212855 
C 75.772695 109.212855 73.569728 110.125354 71.945697 111.749384 
C 70.321666 113.373415 69.409167 115.576382 69.409167 117.873109 
C 69.409167 120.169835 70.321666 122.372802 71.945697 123.996833 
C 73.569728 125.620864 75.772695 126.533363 78.069421 126.533363 
z
" clip-path="url(#peeeea04aea)" style="fill: #ffffff; stroke: #000000"/>
    <path d="M 78.069421 258.357902 
C 80.366148 258.357902 82.569115 257.445403 84.193146 255.821372 
C 85.817177 254.197341 86.729676 251.994374 86.729676 249.697648 
C 86.729676 247.400922 85.817177 245.197954 84.193146 243.573923 
C 82.569115 241.949893 80.366148 241.037394 78.069421 241.037394 
C 75.772695 241.037394 73.569728 241.949893 71.945697 243.573923 
C 70.321666 245.197954 69.409167 247.400922 69.409167 249.697648 
C 69.409167 251.994374 70.321666 254.197341 71.945697 255.821372 
C 73.569728 257.445403 75.772695 258.357902 78.069421 258.357902 
z
" clip-path="url(#peeeea04aea)" style="fill: #ffffff; stroke: #000000"/>
    <path d="M 78.069421 192.445632 
C 80.366148 192.445632 82.569115 191.533133 84.193146 189.909103 
C 85.817177 188.285072 86.729676 186.082104 86.729676 183.785378 
C 86.729676 181.488652 85.817177 179.285685 84.193146 177.661654 
C 82.569115 176.037623 80.366148 175.125124 78.069421 175.125124 
C 75.772695 175.125124 73.569728 176.037623 71.945697 177.661654 
C 70.321666 179.285685 69.409167 181.488652 69.409167 183.785378 
C 69.409167 186.082104 70.321666 188.285072 71.945697 189.909103 
C 73.569728 191.533133 75.772695 192.445632 78.069421 192.445632 
z
" clip-path="url(#peeeea04aea)" style="fill: #ffffff; stroke: #000000"/>
    <path d="M 116.152066 203.431011 
C 118.448792 203.431011 120.65176 202.518512 122.27579 200.894481 
C 123.899821 199.27045 124.81232 197.067483 124.81232 194.770757 
C 124.81232 192.47403 123.899821 190.271063 122.27579 188.647032 
C 120.65176 187.023001 118.448792 186.110502 116.152066 186.110502 
C 113.85534 186.110502 111.652372 187.023001 110.028342 188.647032 
C 108.404311 190.271063 107.491812 192.47403 107.491812 194.770757 
C 107.491812 197.067483 108.404311 199.27045 110.028342 200.894481 
C 111.652372 202.518512 113.85534 203.431011 116.152066 203.431011 
z
" clip-path="url(#peeeea04aea)" style="fill: #ffffff; stroke: #000000"/>
    <path d="M 116.152066 159.489498 
C 118.448792 159.489498 120.65176 158.576999 122.27579 156.952968 
C 123.899821 155.328937 124.81232 153.12597 124.81232 150.829243 
C 124.81232 148.532517 123.899821 146.32955 122.27579 144.705519 
C 120.65176 143.081488 118.448792 142.168989 116.152066 142.168989 
C 113.85534 142.168989 111.652372 143.081488 110.028342 144.705519 
C 108.404311 146.32955 107.491812 148.532517 107.491812 150.829243 
C 107.491812 153.12597 108.404311 155.328937 110.028342 156.952968 
C 111.652372 158.576999 113.85534 159.489498 116.152066 159.489498 
z
" clip-path="url(#peeeea04aea)" style="fill: #ffffff; stroke: #000000"/>
    <path d="M 116.152066 181.460254 
C 118.448792 181.460254 120.65176 180.547755 122.27579 178.923724 
C 123.899821 177.299694 124.81232 175.096726 124.81232 172.8 
C 124.81232 170.503274 123.899821 168.300306 122.27579 166.676276 
C 120.65176 165.052245 118.448792 164.139746 116.152066 164.139746 
C 113.85534 164.139746 111.652372 165.052245 110.028342 166.676276 
C 108.404311 168.300306 107.491812 170.503274 107.491812 172.8 
C 107.491812 175.096726 108.404311 177.299694 110.028342 178.923724 
C 111.652372 180.547755 113.85534 181.460254 116.152066 181.460254 
z
" clip-path="url(#peeeea04aea)" style="fill: #ffffff; stroke: #000000"/>
    <path d="M 154.234711 192.445632 
C 156.531437 192.445632 158.734404 191.533133 160.358435 189.909103 
C 161.982466 188.285072 162.894965 186.082104 162.894965 183.785378 
C 162.894965 181.488652 161.982466 179.285685 160.358435 177.661654 
C 158.734404 176.037623 156.531437 175.125124 154.234711 175.125124 
C 151.937985 175.125124 149.735017 176.037623 148.110986 177.661654 
C 146.486956 179.285685 145.574457 181.488652 145.574457 183.785378 
C 145.574457 186.082104 146.486956 188.285072 148.110986 189.909103 
C 149.735017 191.533133 151.937985 192.445632 154.234711 192.445632 
z
" clip-path="url(#peeeea04aea)" style="fill: #ffffff; stroke: #000000"/>
    <path d="M 154.234711 170.474876 
C 156.531437 170.474876 158.734404 169.562377 160.358435 167.938346 
C 161.982466 166.314315 162.894965 164.111348 162.894965 161.814622 
C 162.894965 159.517896 161.982466 157.314928 160.358435 155.690897 
C 158.734404 154.066867 156.531437 153.154368 154.234711 153.154368 
C 151.937985 153.154368 149.735017 154.066867 148.110986 155.690897 
C 146.486956 157.314928 145.574457 159.517896 145.574457 161.814622 
C 145.574457 164.111348 146.486956 166.314315 148.110986 167.938346 
C 149.735017 169.562377 151.937985 170.474876 154.234711 170.474876 
z
" clip-path="url(#peeeea04aea)" style="fill: #ffffff; stroke: #000000"/>
    <path d="M 192.317355 192.445632 
C 194.614082 192.445632 196.817049 191.533133 198.44108 189.909103 
C 200.06511 188.285072 200.977609 186.082104 200.977609 183.785378 
C 200.977609 181.488652 200.06511 179.285685 198.44108 177.661654 
C 196.817049 176.037623 194.614082 175.125124 192.317355 175.125124 
C 190.020629 175.125124 187.817662 176.037623 186.193631 177.661654 
C 184.5696 179.285685 183.657101 181.488652 183.657101 183.785378 
C 183.657101 186.082104 184.5696 188.285072 186.193631 189.909103 
C 187.817662 191.533133 190.020629 192.445632 192.317355 192.445632 
z
" clip-path="url(#peeeea04aea)" style="fill: #ffffff; stroke: #000000"/>
    <path d="M 192.317355 170.474876 
C 194.614082 170.474876 196.817049 169.562377 198.44108 167.938346 
C 200.06511 166.314315 200.977609 164.111348 200.977609 161.814622 
C 200.977609 159.517896 200.06511 157.314928 198.44108 155.690897 
C 196.817049 154.066867 194.614082 153.154368 192.317355 153.154368 
C 190.020629 153.154368 187.817662 154.066867 186.193631 155.690897 
C 184.5696 157.314928 183.657101 159.517896 183.657101 161.814622 
C 183.657101 164.111348 184.5696 166.314315 186.193631 167.938346 
C 187.817662 169.562377 190.020629 170.474876 192.317355 170.474876 
z
" clip-path="url(#peeeea04aea)" style="fill: #ffffff; stroke: #000000"/>
    <path d="M 230.4 181.460254 
C 232.696726 181.460254 234.899694 180.547755 236.523724 178.923724 
C 238.147755 177.299694 239.060254 175.096726 239.060254 172.8 
C 239.060254 170.503274 238.147755 168.300306 236.523724 166.676276 
C 234.899694 165.052245 232.696726 164.139746 230.4 164.139746 
C 228.103274 164.139746 225.900306 165.052245 224.276276 166.676276 
C 222.652245 168.300306 221.739746 170.503274 221.739746 172.8 
C 221.739746 175.096726 222.652245 177.299694 224.276276 178.923724 
C 225.900306 180.547755 228.103274 181.460254 230.4 181.460254 
z
" clip-path="url(#peeeea04aea)" style="fill: #ffffff; stroke: #000000"/>
    <path d="M 268.482645 192.445632 
C 270.779371 192.445632 272.982338 191.533133 274.606369 189.909103 
C 276.2304 188.285072 277.142899 186.082104 277.142899 183.785378 
C 277.142899 181.488652 276.2304 179.285685 274.606369 177.661654 
C 272.982338 176.037623 270.779371 175.125124 268.482645 175.125124 
C 266.185918 175.125124 263.982951 176.037623 262.35892 177.661654 
C 260.73489 179.285685 259.822391 181.488652 259.822391 183.785378 
C 259.822391 186.082104 260.73489 188.285072 262.35892 189.909103 
C 263.982951 191.533133 266.185918 192.445632 268.482645 192.445632 
z
" clip-path="url(#peeeea04aea)" style="fill: #ffffff; stroke: #000000"/>
    <path d="M 268.482645 170.474876 
C 270.779371 170.474876 272.982338 169.562377 274.606369 167.938346 
C 276.2304 166.314315 277.142899 164.111348 277.142899 161.814622 
C 277.142899 159.517896 276.2304 157.314928 274.606369 155.690897 
C 272.982338 154.066867 270.779371 153.154368 268.482645 153.154368 
C 266.185918 153.154368 263.982951 154.066867 262.35892 155.690897 
C 260.73489 157.314928 259.822391 159.517896 259.822391 161.814622 
C 259.822391 164.111348 260.73489 166.314315 262.35892 167.938346 
C 263.982951 169.562377 266.185918 170.474876 268.482645 170.474876 
z
" clip-path="url(#peeeea04aea)" style="fill: #ffffff; stroke: #000000"/>
    <path d="M 306.565289 192.445632 
C 308.862015 192.445632 311.064983 191.533133 312.689014 189.909103 
C 314.313044 188.285072 315.225543 186.082104 315.225543 183.785378 
C 315.225543 181.488652 314.313044 179.285685 312.689014 177.661654 
C 311.064983 176.037623 308.862015 175.125124 306.565289 175.125124 
C 304.268563 175.125124 302.065596 176.037623 300.441565 177.661654 
C 298.817534 179.285685 297.905035 181.488652 297.905035 183.785378 
C 297.905035 186.082104 298.817534 188.285072 300.441565 189.909103 
C 302.065596 191.533133 304.268563 192.445632 306.565289 192.445632 
z
" clip-path="url(#peeeea04aea)" style="fill: #ffffff; stroke: #000000"/>
    <path d="M 306.565289 170.474876 
C 308.862015 170.474876 311.064983 169.562377 312.689014 167.938346 
C 314.313044 166.314315 315.225543 164.111348 315.225543 161.814622 
C 315.225543 159.517896 314.313044 157.314928 312.689014 155.690897 
C 311.064983 154.066867 308.862015 153.154368 306.565289 153.154368 
C 304.268563 153.154368 302.065596 154.066867 300.441565 155.690897 
C 298.817534 157.314928 297.905035 159.517896 297.905035 161.814622 
C 297.905035 164.111348 298.817534 166.314315 300.441565 167.938346 
C 302.065596 169.562377 304.268563 170.474876 306.565289 170.474876 
z
" clip-path="url(#peeeea04aea)" style="fill: #ffffff; stroke: #000000"/>
    <path d="M 344.647934 181.460254 
C 346.94466 181.460254 349.147628 180.547755 350.771658 178.923724 
C 352.395689 177.299694 353.308188 175.096726 353.308188 172.8 
C 353.308188 170.503274 352.395689 168.300306 350.771658 166.676276 
C 349.147628 165.052245 346.94466 164.139746 344.647934 164.139746 
C 342.351208 164.139746 340.14824 165.052245 338.52421 166.676276 
C 336.900179 168.300306 335.98768 170.503274 335.98768 172.8 
C 335.98768 175.096726 336.900179 177.299694 338.52421 178.923724 
C 340.14824 180.547755 342.351208 181.460254 344.647934 181.460254 
z
" clip-path="url(#peeeea04aea)" style="fill: #ffffff; stroke: #000000"/>
    <path d="M 382.730579 181.460254 
C 385.027305 181.460254 387.230272 180.547755 388.854303 178.923724 
C 390.478334 177.299694 391.390833 175.096726 391.390833 172.8 
C 391.390833 170.503274 390.478334 168.300306 388.854303 166.676276 
C 387.230272 165.052245 385.027305 164.139746 382.730579 164.139746 
C 380.433852 164.139746 378.230885 165.052245 376.606854 166.676276 
C 374.982823 168.300306 374.070324 170.503274 374.070324 172.8 
C 374.070324 175.096726 374.982823 177.299694 376.606854 178.923724 
C 378.230885 180.547755 380.433852 181.460254 382.730579 181.460254 
z
" clip-path="url(#peeeea04aea)" style="fill: #ffffff; stroke: #000000"/>
    <path d="M 420.813223 181.460254 
C 423.109949 181.460254 425.312917 180.547755 426.936947 178.923724 
C 428.560978 177.299694 429.473477 175.096726 429.473477 172.8 
C 429.473477 170.503274 428.560978 168.300306 426.936947 166.676276 
C 425.312917 165.052245 423.109949 164.139746 420.813223 164.139746 
C 418.516497 164.139746 416.313529 165.052245 414.689499 166.676276 
C 413.065468 168.300306 412.152969 170.503274 412.152969 172.8 
C 412.152969 175.096726 413.065468 177.299694 414.689499 178.923724 
C 416.313529 180.547755 418.516497 181.460254 420.813223 181.460254 
z
" clip-path="url(#peeeea04aea)" style="fill: #0000ff; stroke: #000000"/>
   </g>
  </g>
 </g>
 <defs>
  <clipPath id="peeeea04aea">
   <rect x="0" y="0" width="460.8" height="345.6"/>
  </clipPath>
 </defs>
</svg>
