<?xml version="1.0" encoding="utf-8" standalone="no"?>
<!DOCTYPE svg PUBLIC "-//W3C//DTD SVG 1.1//EN"
  "http://www.w3.org/Graphics/SVG/1.1/DTD/svg11.dtd">
<svg xmlns:xlink="http://www.w3.org/1999/xlink" width="460.8pt" height="345.6pt" viewBox="0 0 460.8 345.6" xmlns="http://www.w3.org/2000/svg" version="1.1">
 <metadata>
  <rdf:RDF xmlns:dc="http://purl.org/dc/elements/1.1/" xmlns:cc="http://creativecommons.org/ns#" xmlns:rdf="http://www.w3.org/1999/02/22-rdf-syntax-ns#">
   <cc:Work>
    <dc:type rdf:resource="http://purl.org/dc/dcmitype/StillImage"/>
    <dc:date>2025-11-06T06:16:30.716771</dc:date>
    <dc:format>image/svg+xml</dc:format>
    <dc:creator>
     <cc:Agent>
      <dc:title>Matplotlib v3.10.5, https://matplotlib.org/</dc:title>
     </cc:Agent>
    </dc:creator>
   </cc:Work>
  </rdf:RDF>
 </metadata>
 <defs>
  <style type="text/css">*{stroke-linejoin: round; stroke-linecap: butt}</style>
 </defs>
 <g id="figure_1">
  <g id="patch_1">
   <path d="M 0 345.6 
L 460.8 345.6 
L 460.8 0 
L 0 0 
z
" style="fill: #ffffff"/>
  </g>
  <g id="axes_1">
   <g id="patch_2">
    <path d="M 42.533761 307.332218 
Q 47.310248 291.808637 51.757937 277.353648 
" clip-path="url(#pb387d7c1e0)" style="fill: none; stroke: #4c4c4c; stroke-linecap: round"/>
    <path d="M 50.831566 278.324132 
L 51.757937 277.353648 
L 51.978501 278.677035 
" clip-path="url(#pb387d7c1e0)" style="fill: none; stroke: #4c4c4c; stroke-linecap: round"/>
   </g>
   <g id="patch_3">
    <path d="M 48.370749 313.430085 
Q 223.076852 268.006498 396.700896 222.864246 
" clip-path="url(#pb387d7c1e0)" style="fill: none; stroke: #4c4c4c; stroke-linecap: round"/>
    <path d="M 395.388529 222.585513 
L 396.700896 222.864246 
L 395.690489 223.746901 
" clip-path="url(#pb387d7c1e0)" style="fill: none; stroke: #4c4c4c; stroke-linecap: round"/>
   </g>
   <g id="patch_4">
    <path d="M 47.244877 310.892152 
Q 149.840502 244.204996 251.498719 178.127155 
" clip-path="url(#pb387d7c1e0)" style="fill: none; stroke: #4c4c4c; stroke-linecap: round"/>
    <path d="M 250.165594 178.278075 
L 251.498719 178.127155 
L 250.81958 179.284207 
" clip-path="url(#pb387d7c1e0)" style="fill: none; stroke: #4c4c4c; stroke-linecap: round"/>
   </g>
   <g id="patch_5">
    <path d="M 47.962195 312.229034 
Q 208.430801 244.204298 367.870045 176.615923 
" clip-path="url(#pb387d7c1e0)" style="fill: none; stroke: #4c4c4c; stroke-linecap: round"/>
    <path d="M 366.53104 176.53186 
L 367.870045 176.615923 
L 366.999392 177.636689 
" clip-path="url(#pb387d7c1e0)" style="fill: none; stroke: #4c4c4c; stroke-linecap: round"/>
   </g>
   <g id="patch_6">
    <path d="M 47.905538 312.100466 
Q 201.107034 244.204349 353.28638 176.76123 
" clip-path="url(#pb387d7c1e0)" style="fill: none; stroke: #4c4c4c; stroke-linecap: round"/>
    <path d="M 351.946188 176.698895 
L 353.28638 176.76123 
L 352.432397 177.795982 
" clip-path="url(#pb387d7c1e0)" style="fill: none; stroke: #4c4c4c; stroke-linecap: round"/>
   </g>
   <g id="patch_7">
    <path d="M 48.644199 315.609917 
Q 51.639073 315.609917 53.515914 315.609917 
" clip-path="url(#pb387d7c1e0)" style="fill: none; stroke: #4c4c4c; stroke-linecap: round"/>
    <path d="M 52.315914 315.009917 
L 53.515914 315.609917 
L 52.315914 316.209917 
" clip-path="url(#pb387d7c1e0)" style="fill: none; stroke: #4c4c4c; stroke-linecap: round"/>
   </g>
   <g id="patch_8">
    <path d="M 48.133282 312.668124 
Q 171.812418 268.006213 294.439983 223.724037 
" clip-path="url(#pb387d7c1e0)" style="fill: none; stroke: #4c4c4c; stroke-linecap: round"/>
    <path d="M 293.107532 223.567278 
L 294.439983 223.724037 
L 293.515105 224.695943 
" clip-path="url(#pb387d7c1e0)" style="fill: none; stroke: #4c4c4c; stroke-linecap: round"/>
   </g>
   <g id="patch_9">
    <path d="M 43.274881 307.595164 
Q 69.282254 244.202193 94.865269 181.843592 
" clip-path="url(#pb387d7c1e0)" style="fill: none; stroke: #4c4c4c; stroke-linecap: round"/>
    <path d="M 93.854701 182.72606 
L 94.865269 181.843592 
L 94.964903 183.181528 
" clip-path="url(#pb387d7c1e0)" style="fill: none; stroke: #4c4c4c; stroke-linecap: round"/>
   </g>
   <g id="patch_10">
    <path d="M 42.533761 259.728913 
Q 47.310248 244.205331 51.757937 229.750343 
" clip-path="url(#pb387d7c1e0)" style="fill: none; stroke: #4c4c4c; stroke-linecap: round"/>
    <path d="M 50.831566 230.720826 
L 51.757937 229.750343 
L 51.978501 231.073729 
" clip-path="url(#pb387d7c1e0)" style="fill: none; stroke: #4c4c4c; stroke-linecap: round"/>
   </g>
   <g id="patch_11">
    <path d="M 42.533761 212.125607 
Q 47.310248 196.602025 51.757937 182.147037 
" clip-path="url(#pb387d7c1e0)" style="fill: none; stroke: #4c4c4c; stroke-linecap: round"/>
    <path d="M 50.831566 183.11752 
L 51.757937 182.147037 
L 51.978501 183.470423 
" clip-path="url(#pb387d7c1e0)" style="fill: none; stroke: #4c4c4c; stroke-linecap: round"/>
   </g>
   <g id="patch_12">
    <path d="M 48.64554 220.403306 
Q 120.546249 220.403306 191.328924 220.403306 
" clip-path="url(#pb387d7c1e0)" style="fill: none; stroke: #4c4c4c; stroke-linecap: round"/>
    <path d="M 190.128924 219.803306 
L 191.328924 220.403306 
L 190.128924 221.003306 
" clip-path="url(#pb387d7c1e0)" style="fill: none; stroke: #4c4c4c; stroke-linecap: round"/>
   </g>
   <g id="patch_13">
    <path d="M 48.646881 172.8 
Q 127.868961 172.8 205.973008 172.8 
" clip-path="url(#pb387d7c1e0)" style="fill: none; stroke: #4c4c4c; stroke-linecap: round"/>
    <path d="M 204.773008 172.2 
L 205.973008 172.8 
L 204.773008 173.4 
" clip-path="url(#pb387d7c1e0)" style="fill: none; stroke: #4c4c4c; stroke-linecap: round"/>
   </g>
   <g id="patch_14">
    <path d="M 42.533761 164.522301 
Q 47.310248 148.998719 51.757937 134.543731 
" clip-path="url(#pb387d7c1e0)" style="fill: none; stroke: #4c4c4c; stroke-linecap: round"/>
    <path d="M 50.831566 135.514214 
L 51.757937 134.543731 
L 51.978501 135.867117 
" clip-path="url(#pb387d7c1e0)" style="fill: none; stroke: #4c4c4c; stroke-linecap: round"/>
   </g>
   <g id="patch_15">
    <path d="M 48.601287 173.674911 
Q 157.164025 184.700814 264.61445 195.613748 
" clip-path="url(#pb387d7c1e0)" style="fill: none; stroke: #4c4c4c; stroke-linecap: round"/>
    <path d="M 263.481217 194.895568 
L 264.61445 195.613748 
L 263.359966 196.089426 
" clip-path="url(#pb387d7c1e0)" style="fill: none; stroke: #4c4c4c; stroke-linecap: round"/>
   </g>
   <g id="patch_16">
    <path d="M 42.533761 116.918995 
Q 47.310248 101.395414 51.757937 86.940425 
" clip-path="url(#pb387d7c1e0)" style="fill: none; stroke: #4c4c4c; stroke-linecap: round"/>
    <path d="M 50.831566 87.910909 
L 51.757937 86.940425 
L 51.978501 88.263812 
" clip-path="url(#pb387d7c1e0)" style="fill: none; stroke: #4c4c4c; stroke-linecap: round"/>
   </g>
   <g id="patch_17">
    <path d="M 48.3465 127.460786 
Q 127.869359 148.998227 206.313063 170.243397 
" clip-path="url(#pb387d7c1e0)" style="fill: none; stroke: #4c4c4c; stroke-linecap: round"/>
    <path d="M 205.311641 169.350562 
L 206.313063 170.243397 
L 204.997942 170.508834 
" clip-path="url(#pb387d7c1e0)" style="fill: none; stroke: #4c4c4c; stroke-linecap: round"/>
   </g>
   <g id="patch_18">
    <path d="M 41.304075 116.634259 
Q 47.310613 77.591761 53.147146 39.654295 
" clip-path="url(#pb387d7c1e0)" style="fill: none; stroke: #4c4c4c; stroke-linecap: round"/>
    <path d="M 52.371654 40.749107 
L 53.147146 39.654295 
L 53.5577 40.931576 
" clip-path="url(#pb387d7c1e0)" style="fill: none; stroke: #4c4c4c; stroke-linecap: round"/>
   </g>
   <g id="patch_19">
    <path d="M 42.056369 133.604413 
Q 54.633941 184.700799 66.944281 234.711556 
" clip-path="url(#pb387d7c1e0)" style="fill: none; stroke: #4c4c4c; stroke-linecap: round"/>
    <path d="M 67.240067 233.402927 
L 66.944281 234.711556 
L 66.07485 233.68975 
" clip-path="url(#pb387d7c1e0)" style="fill: none; stroke: #4c4c4c; stroke-linecap: round"/>
   </g>
   <g id="patch_20">
    <path d="M 48.373543 127.348562 
Q 179.1336 160.89884 308.810703 194.171254 
" clip-path="url(#pb387d7c1e0)" style="fill: none; stroke: #4c4c4c; stroke-linecap: round"/>
    <path d="M 307.797471 193.291845 
L 308.810703 194.171254 
L 307.499236 194.454195 
" clip-path="url(#pb387d7c1e0)" style="fill: none; stroke: #4c4c4c; stroke-linecap: round"/>
   </g>
   <g id="patch_21">
    <path d="M 47.006852 82.663443 
Q 105.899339 125.196906 163.88546 167.07577 
" clip-path="url(#pb387d7c1e0)" style="fill: none; stroke: #4c4c4c; stroke-linecap: round"/>
    <path d="M 163.263939 165.886774 
L 163.88546 167.07577 
L 162.56135 166.859589 
" clip-path="url(#pb387d7c1e0)" style="fill: none; stroke: #4c4c4c; stroke-linecap: round"/>
   </g>
   <g id="patch_22">
    <path d="M 48.272298 80.117883 
Q 157.16573 113.296351 264.989669 146.148957 
" clip-path="url(#pb387d7c1e0)" style="fill: none; stroke: #4c4c4c; stroke-linecap: round"/>
    <path d="M 264.016644 145.225256 
L 264.989669 146.148957 
L 263.666894 146.373156 
" clip-path="url(#pb387d7c1e0)" style="fill: none; stroke: #4c4c4c; stroke-linecap: round"/>
   </g>
   <g id="patch_23">
    <path d="M 48.00857 80.852242 
Q 215.752629 148.998266 382.460866 216.723487 
" clip-path="url(#pb387d7c1e0)" style="fill: none; stroke: #4c4c4c; stroke-linecap: round"/>
    <path d="M 381.574932 215.715955 
L 382.460866 216.723487 
L 381.12328 216.827714 
" clip-path="url(#pb387d7c1e0)" style="fill: none; stroke: #4c4c4c; stroke-linecap: round"/>
   </g>
   <g id="patch_24">
    <path d="M 42.533761 69.31569 
Q 47.310248 53.792108 51.757937 39.33712 
" clip-path="url(#pb387d7c1e0)" style="fill: none; stroke: #4c4c4c; stroke-linecap: round"/>
    <path d="M 50.831566 40.307603 
L 51.757937 39.33712 
L 51.978501 40.660506 
" clip-path="url(#pb387d7c1e0)" style="fill: none; stroke: #4c4c4c; stroke-linecap: round"/>
   </g>
   <g id="patch_25">
    <path d="M 47.602251 81.718437 
Q 171.811913 148.99867 295.038496 215.746403 
" clip-path="url(#pb387d7c1e0)" style="fill: none; stroke: #4c4c4c; stroke-linecap: round"/>
    <path d="M 294.269116 214.647288 
L 295.038496 215.746403 
L 293.697576 215.702438 
" clip-path="url(#pb387d7c1e0)" style="fill: none; stroke: #4c4c4c; stroke-linecap: round"/>
   </g>
   <g id="patch_26">
    <path d="M 45.579817 36.600039 
Q 120.545997 125.196433 194.789991 212.939336 
" clip-path="url(#pb387d7c1e0)" style="fill: none; stroke: #4c4c4c; stroke-linecap: round"/>
    <path d="M 194.472892 211.635707 
L 194.789991 212.939336 
L 193.556829 212.410838 
" clip-path="url(#pb387d7c1e0)" style="fill: none; stroke: #4c4c4c; stroke-linecap: round"/>
   </g>
   <g id="patch_27">
    <path d="M 62.872646 80.270965 
Q 237.726148 137.098354 411.516362 193.580173 
" clip-path="url(#pb387d7c1e0)" style="fill: none; stroke: #4c4c4c; stroke-linecap: round"/>
    <path d="M 410.560573 192.638649 
L 411.516362 193.580173 
L 410.18967 193.77989 
" clip-path="url(#pb387d7c1e0)" style="fill: none; stroke: #4c4c4c; stroke-linecap: round"/>
   </g>
   <g id="patch_28">
    <path d="M 63.140956 79.219728 
Q 179.137103 101.395462 294.035104 123.361257 
" clip-path="url(#pb387d7c1e0)" style="fill: none; stroke: #4c4c4c; stroke-linecap: round"/>
    <path d="M 292.969116 122.546598 
L 294.035104 123.361257 
L 292.743785 123.725253 
" clip-path="url(#pb387d7c1e0)" style="fill: none; stroke: #4c4c4c; stroke-linecap: round"/>
   </g>
   <g id="patch_29">
    <path d="M 62.989648 127.459696 
Q 186.458448 160.899163 308.848092 194.046358 
" clip-path="url(#pb387d7c1e0)" style="fill: none; stroke: #4c4c4c; stroke-linecap: round"/>
    <path d="M 307.846669 193.153524 
L 308.848092 194.046358 
L 307.532971 194.311795 
" clip-path="url(#pb387d7c1e0)" style="fill: none; stroke: #4c4c4c; stroke-linecap: round"/>
   </g>
   <g id="patch_30">
    <path d="M 62.941148 127.651094 
Q 135.194193 148.998585 206.375024 170.029285 
" clip-path="url(#pb387d7c1e0)" style="fill: none; stroke: #4c4c4c; stroke-linecap: round"/>
    <path d="M 205.39421 169.113859 
L 206.375024 170.029285 
L 205.054195 170.26468 
" clip-path="url(#pb387d7c1e0)" style="fill: none; stroke: #4c4c4c; stroke-linecap: round"/>
   </g>
   <g id="patch_31">
    <path d="M 59.173641 132.573696 
Q 69.280832 148.997882 78.802065 164.469885 
" clip-path="url(#pb387d7c1e0)" style="fill: none; stroke: #4c4c4c; stroke-linecap: round"/>
    <path d="M 78.684143 163.133436 
L 78.802065 164.469885 
L 77.662153 163.762353 
" clip-path="url(#pb387d7c1e0)" style="fill: none; stroke: #4c4c4c; stroke-linecap: round"/>
   </g>
   <g id="patch_32">
    <path d="M 63.184985 126.586238 
Q 201.108955 148.998883 337.929367 171.2322 
" clip-path="url(#pb387d7c1e0)" style="fill: none; stroke: #4c4c4c; stroke-linecap: round"/>
    <path d="M 336.841141 170.447493 
L 337.929367 171.2322 
L 336.648666 171.631956 
" clip-path="url(#pb387d7c1e0)" style="fill: none; stroke: #4c4c4c; stroke-linecap: round"/>
   </g>
   <g id="patch_33">
    <path d="M 55.691988 133.793269 
Q 61.957594 184.70132 68.086627 234.49971 
" clip-path="url(#pb387d7c1e0)" style="fill: none; stroke: #4c4c4c; stroke-linecap: round"/>
    <path d="M 68.535547 233.235404 
L 68.086627 234.49971 
L 67.344534 233.38199 
" clip-path="url(#pb387d7c1e0)" style="fill: none; stroke: #4c4c4c; stroke-linecap: round"/>
   </g>
   <g id="patch_34">
    <path d="M 63.292934 125.196694 
Q 179.135098 125.196694 293.859227 125.196694 
" clip-path="url(#pb387d7c1e0)" style="fill: none; stroke: #4c4c4c; stroke-linecap: round"/>
    <path d="M 292.659227 124.596694 
L 293.859227 125.196694 
L 292.659227 125.796694 
" clip-path="url(#pb387d7c1e0)" style="fill: none; stroke: #4c4c4c; stroke-linecap: round"/>
   </g>
   <g id="patch_35">
    <path d="M 63.292711 172.8 
Q 135.19342 172.8 205.976095 172.8 
" clip-path="url(#pb387d7c1e0)" style="fill: none; stroke: #4c4c4c; stroke-linecap: round"/>
    <path d="M 204.776095 172.2 
L 205.976095 172.8 
L 204.776095 173.4 
" clip-path="url(#pb387d7c1e0)" style="fill: none; stroke: #4c4c4c; stroke-linecap: round"/>
   </g>
   <g id="patch_36">
    <path d="M 55.392277 38.616075 
Q 61.957561 113.296178 68.424933 186.862542 
" clip-path="url(#pb387d7c1e0)" style="fill: none; stroke: #4c4c4c; stroke-linecap: round"/>
    <path d="M 68.917539 185.614608 
L 68.424933 186.862542 
L 67.722149 185.719697 
" clip-path="url(#pb387d7c1e0)" style="fill: none; stroke: #4c4c4c; stroke-linecap: round"/>
   </g>
   <g id="patch_37">
    <path d="M 62.655741 33.248936 
Q 230.3998 101.39496 397.108037 169.120181 
" clip-path="url(#pb387d7c1e0)" style="fill: none; stroke: #4c4c4c; stroke-linecap: round"/>
    <path d="M 396.222103 168.112649 
L 397.108037 169.120181 
L 395.770451 169.224409 
" clip-path="url(#pb387d7c1e0)" style="fill: none; stroke: #4c4c4c; stroke-linecap: round"/>
   </g>
   <g id="patch_38">
    <path d="M 63.246447 219.470285 
Q 164.48904 208.502337 264.620102 197.654806 
" clip-path="url(#pb387d7c1e0)" style="fill: none; stroke: #4c4c4c; stroke-linecap: round"/>
    <path d="M 263.362461 197.18754 
L 264.620102 197.654806 
L 263.491704 198.380559 
" clip-path="url(#pb387d7c1e0)" style="fill: none; stroke: #4c4c4c; stroke-linecap: round"/>
   </g>
   <g id="patch_39">
    <path d="M 63.293046 220.403306 
Q 223.075011 220.403306 381.738943 220.403306 
" clip-path="url(#pb387d7c1e0)" style="fill: none; stroke: #4c4c4c; stroke-linecap: round"/>
    <path d="M 380.538943 219.803306 
L 381.738943 220.403306 
L 380.538943 221.003306 
" clip-path="url(#pb387d7c1e0)" style="fill: none; stroke: #4c4c4c; stroke-linecap: round"/>
   </g>
   <g id="patch_40">
    <path d="M 55.392277 306.983925 
Q 61.957561 232.303822 68.424933 158.737458 
" clip-path="url(#pb387d7c1e0)" style="fill: none; stroke: #4c4c4c; stroke-linecap: round"/>
    <path d="M 67.722149 159.880303 
L 68.424933 158.737458 
L 68.917539 159.985392 
" clip-path="url(#pb387d7c1e0)" style="fill: none; stroke: #4c4c4c; stroke-linecap: round"/>
   </g>
   <g id="patch_41">
    <path d="M 55.392277 259.380619 
Q 61.957561 184.700516 68.424933 111.134152 
" clip-path="url(#pb387d7c1e0)" style="fill: none; stroke: #4c4c4c; stroke-linecap: round"/>
    <path d="M 67.722149 112.276997 
L 68.424933 111.134152 
L 68.917539 112.382086 
" clip-path="url(#pb387d7c1e0)" style="fill: none; stroke: #4c4c4c; stroke-linecap: round"/>
   </g>
   <g id="patch_42">
    <path d="M 77.919655 243.594627 
Q 237.724152 232.304092 396.413394 221.092352 
" clip-path="url(#pb387d7c1e0)" style="fill: none; stroke: #4c4c4c; stroke-linecap: round"/>
    <path d="M 395.174092 220.578416 
L 396.413394 221.092352 
L 395.258664 221.775432 
" clip-path="url(#pb387d7c1e0)" style="fill: none; stroke: #4c4c4c; stroke-linecap: round"/>
   </g>
   <g id="patch_43">
    <path d="M 71.021722 235.719518 
Q 76.604931 208.501373 81.963478 182.378458 
" clip-path="url(#pb387d7c1e0)" style="fill: none; stroke: #4c4c4c; stroke-linecap: round"/>
    <path d="M 81.134583 183.433414 
L 81.963478 182.378458 
L 82.310107 183.674547 
" clip-path="url(#pb387d7c1e0)" style="fill: none; stroke: #4c4c4c; stroke-linecap: round"/>
   </g>
   <g id="patch_44">
    <path d="M 77.406392 104.395852 
Q 230.401787 160.899834 382.348389 217.016476 
" clip-path="url(#pb387d7c1e0)" style="fill: none; stroke: #4c4c4c; stroke-linecap: round"/>
    <path d="M 381.430573 216.037899 
L 382.348389 217.016476 
L 381.014837 217.163583 
" clip-path="url(#pb387d7c1e0)" style="fill: none; stroke: #4c4c4c; stroke-linecap: round"/>
   </g>
   <g id="patch_45">
    <path d="M 77.905687 149.735975 
Q 208.427093 160.89899 337.834533 171.966731 
" clip-path="url(#pb387d7c1e0)" style="fill: none; stroke: #4c4c4c; stroke-linecap: round"/>
    <path d="M 336.690027 171.266655 
L 337.834533 171.966731 
L 336.587768 172.46229 
" clip-path="url(#pb387d7c1e0)" style="fill: none; stroke: #4c4c4c; stroke-linecap: round"/>
   </g>
   <g id="patch_46">
    <path d="M 92.585712 172.8 
Q 95.580586 172.8 97.457427 172.8 
" clip-path="url(#pb387d7c1e0)" style="fill: none; stroke: #4c4c4c; stroke-linecap: round"/>
    <path d="M 96.257427 172.2 
L 97.457427 172.8 
L 96.257427 173.4 
" clip-path="url(#pb387d7c1e0)" style="fill: none; stroke: #4c4c4c; stroke-linecap: round"/>
   </g>
   <g id="patch_47">
    <path d="M 107.23333 172.8 
Q 149.839415 172.8 191.327466 172.8 
" clip-path="url(#pb387d7c1e0)" style="fill: none; stroke: #4c4c4c; stroke-linecap: round"/>
    <path d="M 190.127466 172.2 
L 191.327466 172.8 
L 190.127466 173.4 
" clip-path="url(#pb387d7c1e0)" style="fill: none; stroke: #4c4c4c; stroke-linecap: round"/>
   </g>
   <g id="patch_48">
    <path d="M 107.232883 172.8 
Q 110.227757 172.8 112.104598 172.8 
" clip-path="url(#pb387d7c1e0)" style="fill: none; stroke: #4c4c4c; stroke-linecap: round"/>
    <path d="M 110.904598 172.2 
L 112.104598 172.8 
L 110.904598 173.4 
" clip-path="url(#pb387d7c1e0)" style="fill: none; stroke: #4c4c4c; stroke-linecap: round"/>
   </g>
   <g id="patch_49">
    <path d="M 107.214556 172.161885 
Q 259.695305 160.899102 411.061056 149.718678 
" clip-path="url(#pb387d7c1e0)" style="fill: none; stroke: #4c4c4c; stroke-linecap: round"/>
    <path d="M 409.820119 149.208703 
L 411.061056 149.718678 
L 409.908514 150.405443 
" clip-path="url(#pb387d7c1e0)" style="fill: none; stroke: #4c4c4c; stroke-linecap: round"/>
   </g>
   <g id="patch_50">
    <path d="M 106.432313 176.447824 
Q 149.841116 196.601911 192.235853 216.285182 
" clip-path="url(#pb387d7c1e0)" style="fill: none; stroke: #4c4c4c; stroke-linecap: round"/>
    <path d="M 191.400109 215.235643 
L 192.235853 216.285182 
L 190.894775 216.324054 
" clip-path="url(#pb387d7c1e0)" style="fill: none; stroke: #4c4c4c; stroke-linecap: round"/>
   </g>
   <g id="patch_51">
    <path d="M 121.880054 172.8 
Q 124.874928 172.8 126.751769 172.8 
" clip-path="url(#pb387d7c1e0)" style="fill: none; stroke: #4c4c4c; stroke-linecap: round"/>
    <path d="M 125.551769 172.2 
L 126.751769 172.8 
L 125.551769 173.4 
" clip-path="url(#pb387d7c1e0)" style="fill: none; stroke: #4c4c4c; stroke-linecap: round"/>
   </g>
   <g id="patch_52">
    <path d="M 136.527225 172.8 
Q 139.522099 172.8 141.39894 172.8 
" clip-path="url(#pb387d7c1e0)" style="fill: none; stroke: #4c4c4c; stroke-linecap: round"/>
    <path d="M 140.19894 172.2 
L 141.39894 172.8 
L 140.19894 173.4 
" clip-path="url(#pb387d7c1e0)" style="fill: none; stroke: #4c4c4c; stroke-linecap: round"/>
   </g>
   <g id="patch_53">
    <path d="M 136.528119 172.8 
Q 164.487151 172.8 191.328148 172.8 
" clip-path="url(#pb387d7c1e0)" style="fill: none; stroke: #4c4c4c; stroke-linecap: round"/>
    <path d="M 190.128148 172.2 
L 191.328148 172.8 
L 190.128148 173.4 
" clip-path="url(#pb387d7c1e0)" style="fill: none; stroke: #4c4c4c; stroke-linecap: round"/>
   </g>
   <g id="patch_54">
    <path d="M 151.174396 172.8 
Q 154.169271 172.8 156.046111 172.8 
" clip-path="url(#pb387d7c1e0)" style="fill: none; stroke: #4c4c4c; stroke-linecap: round"/>
    <path d="M 154.846111 172.2 
L 156.046111 172.8 
L 154.846111 173.4 
" clip-path="url(#pb387d7c1e0)" style="fill: none; stroke: #4c4c4c; stroke-linecap: round"/>
   </g>
   <g id="patch_55">
    <path d="M 165.821567 172.8 
Q 168.816442 172.8 170.693282 172.8 
" clip-path="url(#pb387d7c1e0)" style="fill: none; stroke: #4c4c4c; stroke-linecap: round"/>
    <path d="M 169.493282 172.2 
L 170.693282 172.8 
L 169.493282 173.4 
" clip-path="url(#pb387d7c1e0)" style="fill: none; stroke: #4c4c4c; stroke-linecap: round"/>
   </g>
   <g id="patch_56">
    <path d="M 180.472538 172.8 
Q 267.018006 172.8 352.445441 172.8 
" clip-path="url(#pb387d7c1e0)" style="fill: none; stroke: #4c4c4c; stroke-linecap: round"/>
    <path d="M 351.245441 172.2 
L 352.445441 172.8 
L 351.245441 173.4 
" clip-path="url(#pb387d7c1e0)" style="fill: none; stroke: #4c4c4c; stroke-linecap: round"/>
   </g>
   <g id="patch_57">
    <path d="M 180.468738 172.8 
Q 183.463613 172.8 185.340453 172.8 
" clip-path="url(#pb387d7c1e0)" style="fill: none; stroke: #4c4c4c; stroke-linecap: round"/>
    <path d="M 184.140453 172.2 
L 185.340453 172.8 
L 184.140453 173.4 
" clip-path="url(#pb387d7c1e0)" style="fill: none; stroke: #4c4c4c; stroke-linecap: round"/>
   </g>
   <g id="patch_58">
    <path d="M 189.005471 164.522301 
Q 193.781958 148.998719 198.229647 134.543731 
" clip-path="url(#pb387d7c1e0)" style="fill: none; stroke: #4c4c4c; stroke-linecap: round"/>
    <path d="M 197.303276 135.514214 
L 198.229647 134.543731 
L 198.450211 135.867117 
" clip-path="url(#pb387d7c1e0)" style="fill: none; stroke: #4c4c4c; stroke-linecap: round"/>
   </g>
   <g id="patch_59">
    <path d="M 195.115909 172.8 
Q 198.110784 172.8 199.987624 172.8 
" clip-path="url(#pb387d7c1e0)" style="fill: none; stroke: #4c4c4c; stroke-linecap: round"/>
    <path d="M 198.787624 172.2 
L 199.987624 172.8 
L 198.787624 173.4 
" clip-path="url(#pb387d7c1e0)" style="fill: none; stroke: #4c4c4c; stroke-linecap: round"/>
   </g>
   <g id="patch_60">
    <path d="M 189.005471 181.077699 
Q 193.781958 196.601281 198.229647 211.056269 
" clip-path="url(#pb387d7c1e0)" style="fill: none; stroke: #4c4c4c; stroke-linecap: round"/>
    <path d="M 198.450211 209.732883 
L 198.229647 211.056269 
L 197.303276 210.085786 
" clip-path="url(#pb387d7c1e0)" style="fill: none; stroke: #4c4c4c; stroke-linecap: round"/>
   </g>
   <g id="patch_61">
    <path d="M 208.96251 216.755482 
Q 252.371313 196.601394 294.76605 176.918124 
" clip-path="url(#pb387d7c1e0)" style="fill: none; stroke: #4c4c4c; stroke-linecap: round"/>
    <path d="M 293.424973 176.879252 
L 294.76605 176.918124 
L 293.930306 177.967663 
" clip-path="url(#pb387d7c1e0)" style="fill: none; stroke: #4c4c4c; stroke-linecap: round"/>
   </g>
   <g id="patch_62">
    <path d="M 209.505387 174.899932 
Q 296.311459 196.60145 382.03288 218.031805 
" clip-path="url(#pb387d7c1e0)" style="fill: none; stroke: #4c4c4c; stroke-linecap: round"/>
    <path d="M 381.01423 217.158677 
L 382.03288 218.031805 
L 380.723187 218.322848 
" clip-path="url(#pb387d7c1e0)" style="fill: none; stroke: #4c4c4c; stroke-linecap: round"/>
   </g>
   <g id="patch_63">
    <path d="M 209.343798 170.122605 
Q 237.722775 160.899437 265.038463 152.021838 
" clip-path="url(#pb387d7c1e0)" style="fill: none; stroke: #4c4c4c; stroke-linecap: round"/>
    <path d="M 263.71177 151.822121 
L 265.038463 152.021838 
L 264.082674 152.963362 
" clip-path="url(#pb387d7c1e0)" style="fill: none; stroke: #4c4c4c; stroke-linecap: round"/>
   </g>
   <g id="patch_64">
    <path d="M 203.652642 133.474393 
Q 208.429129 148.997975 212.876818 163.452963 
" clip-path="url(#pb387d7c1e0)" style="fill: none; stroke: #4c4c4c; stroke-linecap: round"/>
    <path d="M 213.097382 162.129577 
L 212.876818 163.452963 
L 211.950447 162.48248 
" clip-path="url(#pb387d7c1e0)" style="fill: none; stroke: #4c4c4c; stroke-linecap: round"/>
   </g>
   <g id="patch_65">
    <path d="M 208.504339 129.705265 
Q 259.696759 160.900647 309.934445 191.514236 
" clip-path="url(#pb387d7c1e0)" style="fill: none; stroke: #4c4c4c; stroke-linecap: round"/>
    <path d="M 309.221938 190.377427 
L 309.934445 191.514236 
L 308.597494 191.402156 
" clip-path="url(#pb387d7c1e0)" style="fill: none; stroke: #4c4c4c; stroke-linecap: round"/>
   </g>
   <g id="patch_66">
    <path d="M 224.410251 172.8 
Q 227.405126 172.8 229.281966 172.8 
" clip-path="url(#pb387d7c1e0)" style="fill: none; stroke: #4c4c4c; stroke-linecap: round"/>
    <path d="M 228.081966 172.2 
L 229.281966 172.8 
L 228.081966 173.4 
" clip-path="url(#pb387d7c1e0)" style="fill: none; stroke: #4c4c4c; stroke-linecap: round"/>
   </g>
   <g id="patch_67">
    <path d="M 224.19167 174.759017 
Q 267.020638 184.701456 308.760532 194.391074 
" clip-path="url(#pb387d7c1e0)" style="fill: none; stroke: #4c4c4c; stroke-linecap: round"/>
    <path d="M 307.727293 193.53526 
L 308.760532 194.391074 
L 307.455938 194.704177 
" clip-path="url(#pb387d7c1e0)" style="fill: none; stroke: #4c4c4c; stroke-linecap: round"/>
   </g>
   <g id="patch_68">
    <path d="M 223.366962 176.924322 
Q 259.693486 196.601189 295.036932 215.745556 
" clip-path="url(#pb387d7c1e0)" style="fill: none; stroke: #4c4c4c; stroke-linecap: round"/>
    <path d="M 294.267552 214.646441 
L 295.036932 215.745556 
L 293.696012 215.701591 
" clip-path="url(#pb387d7c1e0)" style="fill: none; stroke: #4c4c4c; stroke-linecap: round"/>
   </g>
   <g id="patch_69">
    <path d="M 239.057422 172.8 
Q 242.052297 172.8 243.929137 172.8 
" clip-path="url(#pb387d7c1e0)" style="fill: none; stroke: #4c4c4c; stroke-linecap: round"/>
    <path d="M 242.729137 172.2 
L 243.929137 172.8 
L 242.729137 173.4 
" clip-path="url(#pb387d7c1e0)" style="fill: none; stroke: #4c4c4c; stroke-linecap: round"/>
   </g>
   <g id="patch_70">
    <path d="M 253.704593 172.8 
Q 256.699468 172.8 258.576308 172.8 
" clip-path="url(#pb387d7c1e0)" style="fill: none; stroke: #4c4c4c; stroke-linecap: round"/>
    <path d="M 257.376308 172.2 
L 258.576308 172.8 
L 257.376308 173.4 
" clip-path="url(#pb387d7c1e0)" style="fill: none; stroke: #4c4c4c; stroke-linecap: round"/>
   </g>
   <g id="patch_71">
    <path d="M 264.234035 180.177002 
Q 267.018774 184.702202 269.217553 188.275219 
" clip-path="url(#pb387d7c1e0)" style="fill: none; stroke: #4c4c4c; stroke-linecap: round"/>
    <path d="M 269.099632 186.93877 
L 269.217553 188.275219 
L 268.077642 187.567687 
" clip-path="url(#pb387d7c1e0)" style="fill: none; stroke: #4c4c4c; stroke-linecap: round"/>
   </g>
   <g id="patch_72">
    <path d="M 264.234035 165.422998 
Q 267.018774 160.897798 269.217553 157.324781 
" clip-path="url(#pb387d7c1e0)" style="fill: none; stroke: #4c4c4c; stroke-linecap: round"/>
    <path d="M 268.077642 158.032313 
L 269.217553 157.324781 
L 269.099632 158.66123 
" clip-path="url(#pb387d7c1e0)" style="fill: none; stroke: #4c4c4c; stroke-linecap: round"/>
   </g>
   <g id="patch_73">
    <path d="M 278.881206 189.224651 
Q 281.665945 184.699451 283.864724 181.126434 
" clip-path="url(#pb387d7c1e0)" style="fill: none; stroke: #4c4c4c; stroke-linecap: round"/>
    <path d="M 282.724813 181.833966 
L 283.864724 181.126434 
L 283.746803 182.462883 
" clip-path="url(#pb387d7c1e0)" style="fill: none; stroke: #4c4c4c; stroke-linecap: round"/>
   </g>
   <g id="patch_74">
    <path d="M 277.629617 157.0131 
Q 288.989092 184.701821 299.924211 211.356172 
" clip-path="url(#pb387d7c1e0)" style="fill: none; stroke: #4c4c4c; stroke-linecap: round"/>
    <path d="M 300.023844 210.018236 
L 299.924211 211.356172 
L 298.913642 210.473704 
" clip-path="url(#pb387d7c1e0)" style="fill: none; stroke: #4c4c4c; stroke-linecap: round"/>
   </g>
   <g id="patch_75">
    <path d="M 291.535668 164.522301 
Q 296.312155 148.998719 300.759844 134.543731 
" clip-path="url(#pb387d7c1e0)" style="fill: none; stroke: #4c4c4c; stroke-linecap: round"/>
    <path d="M 299.833473 135.514214 
L 300.759844 134.543731 
L 300.980408 135.867117 
" clip-path="url(#pb387d7c1e0)" style="fill: none; stroke: #4c4c4c; stroke-linecap: round"/>
   </g>
   <g id="patch_76">
    <path d="M 291.535668 181.077699 
Q 296.312155 196.601281 300.759844 211.056269 
" clip-path="url(#pb387d7c1e0)" style="fill: none; stroke: #4c4c4c; stroke-linecap: round"/>
    <path d="M 300.980408 209.732883 
L 300.759844 211.056269 
L 299.833473 210.085786 
" clip-path="url(#pb387d7c1e0)" style="fill: none; stroke: #4c4c4c; stroke-linecap: round"/>
   </g>
   <g id="patch_77">
    <path d="M 297.646106 172.8 
Q 300.640981 172.8 302.517821 172.8 
" clip-path="url(#pb387d7c1e0)" style="fill: none; stroke: #4c4c4c; stroke-linecap: round"/>
    <path d="M 301.317821 172.2 
L 302.517821 172.8 
L 301.317821 173.4 
" clip-path="url(#pb387d7c1e0)" style="fill: none; stroke: #4c4c4c; stroke-linecap: round"/>
   </g>
   <g id="patch_78">
    <path d="M 309.984542 214.508097 
Q 354.900849 172.800097 398.997869 131.852865 
" clip-path="url(#pb387d7c1e0)" style="fill: none; stroke: #4c4c4c; stroke-linecap: round"/>
    <path d="M 397.710246 132.22973 
L 398.997869 131.852865 
L 398.526787 133.109082 
" clip-path="url(#pb387d7c1e0)" style="fill: none; stroke: #4c4c4c; stroke-linecap: round"/>
   </g>
   <g id="patch_79">
    <path d="M 310.355102 214.943918 
Q 332.929261 196.602414 354.635698 178.965933 
" clip-path="url(#pb387d7c1e0)" style="fill: none; stroke: #4c4c4c; stroke-linecap: round"/>
    <path d="M 353.326006 179.256976 
L 354.635698 178.965933 
L 354.082717 180.188313 
" clip-path="url(#pb387d7c1e0)" style="fill: none; stroke: #4c4c4c; stroke-linecap: round"/>
   </g>
   <g id="patch_80">
    <path d="M 312.294171 172.8 
Q 340.253203 172.8 367.0942 172.8 
" clip-path="url(#pb387d7c1e0)" style="fill: none; stroke: #4c4c4c; stroke-linecap: round"/>
    <path d="M 365.8942 172.2 
L 367.0942 172.8 
L 365.8942 173.4 
" clip-path="url(#pb387d7c1e0)" style="fill: none; stroke: #4c4c4c; stroke-linecap: round"/>
   </g>
   <g id="patch_81">
    <path d="M 308.175548 180.177002 
Q 310.960287 184.702202 313.159066 188.275219 
" clip-path="url(#pb387d7c1e0)" style="fill: none; stroke: #4c4c4c; stroke-linecap: round"/>
    <path d="M 313.041145 186.93877 
L 313.159066 188.275219 
L 312.019155 187.567687 
" clip-path="url(#pb387d7c1e0)" style="fill: none; stroke: #4c4c4c; stroke-linecap: round"/>
   </g>
   <g id="patch_82">
    <path d="M 308.175548 132.573696 
Q 310.960287 137.098896 313.159066 140.671913 
" clip-path="url(#pb387d7c1e0)" style="fill: none; stroke: #4c4c4c; stroke-linecap: round"/>
    <path d="M 313.041145 139.335464 
L 313.159066 140.671913 
L 312.019155 139.964381 
" clip-path="url(#pb387d7c1e0)" style="fill: none; stroke: #4c4c4c; stroke-linecap: round"/>
   </g>
   <g id="patch_83">
    <path d="M 311.249988 129.321016 
Q 347.576512 148.997884 382.919958 168.14225 
" clip-path="url(#pb387d7c1e0)" style="fill: none; stroke: #4c4c4c; stroke-linecap: round"/>
    <path d="M 382.150578 167.043135 
L 382.919958 168.14225 
L 381.579038 168.098286 
" clip-path="url(#pb387d7c1e0)" style="fill: none; stroke: #4c4c4c; stroke-linecap: round"/>
   </g>
   <g id="patch_84">
    <path d="M 326.139878 152.646171 
Q 369.548682 172.800259 411.943418 192.483529 
" clip-path="url(#pb387d7c1e0)" style="fill: none; stroke: #4c4c4c; stroke-linecap: round"/>
    <path d="M 411.107674 191.43399 
L 411.943418 192.483529 
L 410.602341 192.522401 
" clip-path="url(#pb387d7c1e0)" style="fill: none; stroke: #4c4c4c; stroke-linecap: round"/>
   </g>
   <g id="patch_85">
    <path d="M 326.521166 151.675743 
Q 354.900143 160.89891 382.215831 169.776509 
" clip-path="url(#pb387d7c1e0)" style="fill: none; stroke: #4c4c4c; stroke-linecap: round"/>
    <path d="M 381.260042 168.834985 
L 382.215831 169.776509 
L 380.889139 169.976226 
" clip-path="url(#pb387d7c1e0)" style="fill: none; stroke: #4c4c4c; stroke-linecap: round"/>
   </g>
   <g id="patch_86">
    <path d="M 322.822719 189.224651 
Q 325.607458 184.699451 327.806237 181.126434 
" clip-path="url(#pb387d7c1e0)" style="fill: none; stroke: #4c4c4c; stroke-linecap: round"/>
    <path d="M 326.666326 181.833966 
L 327.806237 181.126434 
L 327.688316 182.462883 
" clip-path="url(#pb387d7c1e0)" style="fill: none; stroke: #4c4c4c; stroke-linecap: round"/>
   </g>
   <g id="patch_87">
    <path d="M 341.587619 172.8 
Q 344.582494 172.8 346.459334 172.8 
" clip-path="url(#pb387d7c1e0)" style="fill: none; stroke: #4c4c4c; stroke-linecap: round"/>
    <path d="M 345.259334 172.2 
L 346.459334 172.8 
L 345.259334 173.4 
" clip-path="url(#pb387d7c1e0)" style="fill: none; stroke: #4c4c4c; stroke-linecap: round"/>
   </g>
   <g id="patch_88">
    <path d="M 356.23479 172.8 
Q 359.229665 172.8 361.106505 172.8 
" clip-path="url(#pb387d7c1e0)" style="fill: none; stroke: #4c4c4c; stroke-linecap: round"/>
    <path d="M 359.906505 172.2 
L 361.106505 172.8 
L 359.906505 173.4 
" clip-path="url(#pb387d7c1e0)" style="fill: none; stroke: #4c4c4c; stroke-linecap: round"/>
   </g>
   <g id="patch_89">
    <path d="M 370.881961 172.8 
Q 373.876836 172.8 375.753676 172.8 
" clip-path="url(#pb387d7c1e0)" style="fill: none; stroke: #4c4c4c; stroke-linecap: round"/>
    <path d="M 374.553676 172.2 
L 375.753676 172.8 
L 374.553676 173.4 
" clip-path="url(#pb387d7c1e0)" style="fill: none; stroke: #4c4c4c; stroke-linecap: round"/>
   </g>
   <g id="patch_90">
    <path d="M 379.418694 164.522301 
Q 384.195181 148.998719 388.64287 134.543731 
" clip-path="url(#pb387d7c1e0)" style="fill: none; stroke: #4c4c4c; stroke-linecap: round"/>
    <path d="M 387.716499 135.514214 
L 388.64287 134.543731 
L 388.863434 135.867117 
" clip-path="url(#pb387d7c1e0)" style="fill: none; stroke: #4c4c4c; stroke-linecap: round"/>
   </g>
   <g id="patch_91">
    <path d="M 385.529132 172.8 
Q 388.524007 172.8 390.400847 172.8 
" clip-path="url(#pb387d7c1e0)" style="fill: none; stroke: #4c4c4c; stroke-linecap: round"/>
    <path d="M 389.200847 172.2 
L 390.400847 172.8 
L 389.200847 173.4 
" clip-path="url(#pb387d7c1e0)" style="fill: none; stroke: #4c4c4c; stroke-linecap: round"/>
   </g>
   <g id="patch_92">
    <path d="M 379.418694 181.077699 
Q 384.195181 196.601281 388.64287 211.056269 
" clip-path="url(#pb387d7c1e0)" style="fill: none; stroke: #4c4c4c; stroke-linecap: round"/>
    <path d="M 388.863434 209.732883 
L 388.64287 211.056269 
L 387.716499 210.085786 
" clip-path="url(#pb387d7c1e0)" style="fill: none; stroke: #4c4c4c; stroke-linecap: round"/>
   </g>
   <g id="patch_93">
    <path d="M 400.176303 172.8 
Q 403.171178 172.8 405.048018 172.8 
" clip-path="url(#pb387d7c1e0)" style="fill: none; stroke: #4c4c4c; stroke-linecap: round"/>
    <path d="M 403.848018 172.2 
L 405.048018 172.8 
L 403.848018 173.4 
" clip-path="url(#pb387d7c1e0)" style="fill: none; stroke: #4c4c4c; stroke-linecap: round"/>
   </g>
   <g id="patch_94">
    <path d="M 394.065865 181.077699 
Q 398.842352 196.601281 403.290041 211.056269 
" clip-path="url(#pb387d7c1e0)" style="fill: none; stroke: #4c4c4c; stroke-linecap: round"/>
    <path d="M 403.510605 209.732883 
L 403.290041 211.056269 
L 402.36367 210.085786 
" clip-path="url(#pb387d7c1e0)" style="fill: none; stroke: #4c4c4c; stroke-linecap: round"/>
   </g>
   <g id="patch_95">
    <path d="M 398.238128 178.259388 
Q 406.16504 184.700004 413.22423 190.435596 
" clip-path="url(#pb387d7c1e0)" style="fill: none; stroke: #4c4c4c; stroke-linecap: round"/>
    <path d="M 412.671248 189.213216 
L 413.22423 190.435596 
L 411.914537 190.144553 
" clip-path="url(#pb387d7c1e0)" style="fill: none; stroke: #4c4c4c; stroke-linecap: round"/>
   </g>
   <g id="patch_96">
    <path d="M 400.176303 125.196694 
Q 403.171178 125.196694 405.048018 125.196694 
" clip-path="url(#pb387d7c1e0)" style="fill: none; stroke: #4c4c4c; stroke-linecap: round"/>
    <path d="M 403.848018 124.596694 
L 405.048018 125.196694 
L 403.848018 125.796694 
" clip-path="url(#pb387d7c1e0)" style="fill: none; stroke: #4c4c4c; stroke-linecap: round"/>
   </g>
   <g id="patch_97">
    <path d="M 410.705745 213.026304 
Q 413.490484 208.501104 415.689264 204.928087 
" clip-path="url(#pb387d7c1e0)" style="fill: none; stroke: #4c4c4c; stroke-linecap: round"/>
    <path d="M 414.549352 205.635619 
L 415.689264 204.928087 
L 415.571342 206.264536 
" clip-path="url(#pb387d7c1e0)" style="fill: none; stroke: #4c4c4c; stroke-linecap: round"/>
   </g>
   <g id="patch_98">
    <path d="M 410.705745 180.177002 
Q 413.490484 184.702202 415.689264 188.275219 
" clip-path="url(#pb387d7c1e0)" style="fill: none; stroke: #4c4c4c; stroke-linecap: round"/>
    <path d="M 415.571342 186.93877 
L 415.689264 188.275219 
L 414.549352 187.567687 
" clip-path="url(#pb387d7c1e0)" style="fill: none; stroke: #4c4c4c; stroke-linecap: round"/>
   </g>
   <g id="patch_99">
    <path d="M 410.705745 165.422998 
Q 413.490484 160.897798 415.689264 157.324781 
" clip-path="url(#pb387d7c1e0)" style="fill: none; stroke: #4c4c4c; stroke-linecap: round"/>
    <path d="M 414.549352 158.032313 
L 415.689264 157.324781 
L 415.571342 158.66123 
" clip-path="url(#pb387d7c1e0)" style="fill: none; stroke: #4c4c4c; stroke-linecap: round"/>
   </g>
   <g id="PathCollection_1">
    <path d="M 39.986777 324.270171 
C 42.283503 324.270171 44.486471 323.357672 46.110501 321.733642 
C 47.734532 320.109611 48.647031 317.906644 48.647031 315.609917 
C 48.647031 313.313191 47.734532 311.110224 46.110501 309.486193 
C 44.486471 307.862162 42.283503 306.949663 39.986777 306.949663 
C 37.690051 306.949663 35.487083 307.862162 33.863053 309.486193 
C 32.239022 311.110224 31.326523 313.313191 31.326523 315.609917 
C 31.326523 317.906644 32.239022 320.109611 33.863053 321.733642 
C 35.487083 323.357672 37.690051 324.270171 39.986777 324.270171 
z
" clip-path="url(#pb387d7c1e0)" style="fill: #ffff00; stroke: #000000"/>
    <path d="M 39.986777 276.666866 
C 42.283503 276.666866 44.486471 275.754367 46.110501 274.130336 
C 47.734532 272.506305 48.647031 270.303338 48.647031 268.006612 
C 48.647031 265.709885 47.734532 263.506918 46.110501 261.882887 
C 44.486471 260.258857 42.283503 259.346358 39.986777 259.346358 
C 37.690051 259.346358 35.487083 260.258857 33.863053 261.882887 
C 32.239022 263.506918 31.326523 265.709885 31.326523 268.006612 
C 31.326523 270.303338 32.239022 272.506305 33.863053 274.130336 
C 35.487083 275.754367 37.690051 276.666866 39.986777 276.666866 
z
" clip-path="url(#pb387d7c1e0)" style="fill: #ffff00; stroke: #000000"/>
    <path d="M 39.986777 229.06356 
C 42.283503 229.06356 44.486471 228.151061 46.110501 226.52703 
C 47.734532 224.902999 48.647031 222.700032 48.647031 220.403306 
C 48.647031 218.10658 47.734532 215.903612 46.110501 214.279581 
C 44.486471 212.655551 42.283503 211.743052 39.986777 211.743052 
C 37.690051 211.743052 35.487083 212.655551 33.863053 214.279581 
C 32.239022 215.903612 31.326523 218.10658 31.326523 220.403306 
C 31.326523 222.700032 32.239022 224.902999 33.863053 226.52703 
C 35.487083 228.151061 37.690051 229.06356 39.986777 229.06356 
z
" clip-path="url(#pb387d7c1e0)" style="fill: #ffff00; stroke: #000000"/>
    <path d="M 39.986777 181.460254 
C 42.283503 181.460254 44.486471 180.547755 46.110501 178.923724 
C 47.734532 177.299694 48.647031 175.096726 48.647031 172.8 
C 48.647031 170.503274 47.734532 168.300306 46.110501 166.676276 
C 44.486471 165.052245 42.283503 164.139746 39.986777 164.139746 
C 37.690051 164.139746 35.487083 165.052245 33.863053 166.676276 
C 32.239022 168.300306 31.326523 170.503274 31.326523 172.8 
C 31.326523 175.096726 32.239022 177.299694 33.863053 178.923724 
C 35.487083 180.547755 37.690051 181.460254 39.986777 181.460254 
z
" clip-path="url(#pb387d7c1e0)" style="fill: #ffff00; stroke: #000000"/>
    <path d="M 39.986777 133.856948 
C 42.283503 133.856948 44.486471 132.944449 46.110501 131.320419 
C 47.734532 129.696388 48.647031 127.49342 48.647031 125.196694 
C 48.647031 122.899968 47.734532 120.697001 46.110501 119.07297 
C 44.486471 117.448939 42.283503 116.53644 39.986777 116.53644 
C 37.690051 116.53644 35.487083 117.448939 33.863053 119.07297 
C 32.239022 120.697001 31.326523 122.899968 31.326523 125.196694 
C 31.326523 127.49342 32.239022 129.696388 33.863053 131.320419 
C 35.487083 132.944449 37.690051 133.856948 39.986777 133.856948 
z
" clip-path="url(#pb387d7c1e0)" style="fill: #ffff00; stroke: #000000"/>
    <path d="M 39.986777 86.253642 
C 42.283503 86.253642 44.486471 85.341143 46.110501 83.717113 
C 47.734532 82.093082 48.647031 79.890115 48.647031 77.593388 
C 48.647031 75.296662 47.734532 73.093695 46.110501 71.469664 
C 44.486471 69.845633 42.283503 68.933134 39.986777 68.933134 
C 37.690051 68.933134 35.487083 69.845633 33.863053 71.469664 
C 32.239022 73.093695 31.326523 75.296662 31.326523 77.593388 
C 31.326523 79.890115 32.239022 82.093082 33.863053 83.717113 
C 35.487083 85.341143 37.690051 86.253642 39.986777 86.253642 
z
" clip-path="url(#pb387d7c1e0)" style="fill: #ffff00; stroke: #000000"/>
    <path d="M 39.986777 38.650337 
C 42.283503 38.650337 44.486471 37.737838 46.110501 36.113807 
C 47.734532 34.489776 48.647031 32.286809 48.647031 29.990083 
C 48.647031 27.693356 47.734532 25.490389 46.110501 23.866358 
C 44.486471 22.242328 42.283503 21.329829 39.986777 21.329829 
C 37.690051 21.329829 35.487083 22.242328 33.863053 23.866358 
C 32.239022 25.490389 31.326523 27.693356 31.326523 29.990083 
C 31.326523 32.286809 32.239022 34.489776 33.863053 36.113807 
C 35.487083 37.737838 37.690051 38.650337 39.986777 38.650337 
z
" clip-path="url(#pb387d7c1e0)" style="fill: #ffffff; stroke: #000000"/>
    <path d="M 54.633948 86.253642 
C 56.930674 86.253642 59.133642 85.341143 60.757672 83.717113 
C 62.381703 82.093082 63.294202 79.890115 63.294202 77.593388 
C 63.294202 75.296662 62.381703 73.093695 60.757672 71.469664 
C 59.133642 69.845633 56.930674 68.933134 54.633948 68.933134 
C 52.337222 68.933134 50.134254 69.845633 48.510224 71.469664 
C 46.886193 73.093695 45.973694 75.296662 45.973694 77.593388 
C 45.973694 79.890115 46.886193 82.093082 48.510224 83.717113 
C 50.134254 85.341143 52.337222 86.253642 54.633948 86.253642 
z
" clip-path="url(#pb387d7c1e0)" style="fill: #ffffff; stroke: #000000"/>
    <path d="M 54.633948 133.856948 
C 56.930674 133.856948 59.133642 132.944449 60.757672 131.320419 
C 62.381703 129.696388 63.294202 127.49342 63.294202 125.196694 
C 63.294202 122.899968 62.381703 120.697001 60.757672 119.07297 
C 59.133642 117.448939 56.930674 116.53644 54.633948 116.53644 
C 52.337222 116.53644 50.134254 117.448939 48.510224 119.07297 
C 46.886193 120.697001 45.973694 122.899968 45.973694 125.196694 
C 45.973694 127.49342 46.886193 129.696388 48.510224 131.320419 
C 50.134254 132.944449 52.337222 133.856948 54.633948 133.856948 
z
" clip-path="url(#pb387d7c1e0)" style="fill: #ffffff; stroke: #000000"/>
    <path d="M 54.633948 181.460254 
C 56.930674 181.460254 59.133642 180.547755 60.757672 178.923724 
C 62.381703 177.299694 63.294202 175.096726 63.294202 172.8 
C 63.294202 170.503274 62.381703 168.300306 60.757672 166.676276 
C 59.133642 165.052245 56.930674 164.139746 54.633948 164.139746 
C 52.337222 164.139746 50.134254 165.052245 48.510224 166.676276 
C 46.886193 168.300306 45.973694 170.503274 45.973694 172.8 
C 45.973694 175.096726 46.886193 177.299694 48.510224 178.923724 
C 50.134254 180.547755 52.337222 181.460254 54.633948 181.460254 
z
" clip-path="url(#pb387d7c1e0)" style="fill: #ffffff; stroke: #000000"/>
    <path d="M 54.633948 38.650337 
C 56.930674 38.650337 59.133642 37.737838 60.757672 36.113807 
C 62.381703 34.489776 63.294202 32.286809 63.294202 29.990083 
C 63.294202 27.693356 62.381703 25.490389 60.757672 23.866358 
C 59.133642 22.242328 56.930674 21.329829 54.633948 21.329829 
C 52.337222 21.329829 50.134254 22.242328 48.510224 23.866358 
C 46.886193 25.490389 45.973694 27.693356 45.973694 29.990083 
C 45.973694 32.286809 46.886193 34.489776 48.510224 36.113807 
C 50.134254 37.737838 52.337222 38.650337 54.633948 38.650337 
z
" clip-path="url(#pb387d7c1e0)" style="fill: #ffffff; stroke: #000000"/>
    <path d="M 54.633948 229.06356 
C 56.930674 229.06356 59.133642 228.151061 60.757672 226.52703 
C 62.381703 224.902999 63.294202 222.700032 63.294202 220.403306 
C 63.294202 218.10658 62.381703 215.903612 60.757672 214.279581 
C 59.133642 212.655551 56.930674 211.743052 54.633948 211.743052 
C 52.337222 211.743052 50.134254 212.655551 48.510224 214.279581 
C 46.886193 215.903612 45.973694 218.10658 45.973694 220.403306 
C 45.973694 222.700032 46.886193 224.902999 48.510224 226.52703 
C 50.134254 228.151061 52.337222 229.06356 54.633948 229.06356 
z
" clip-path="url(#pb387d7c1e0)" style="fill: #ffffff; stroke: #000000"/>
    <path d="M 54.633948 324.270171 
C 56.930674 324.270171 59.133642 323.357672 60.757672 321.733642 
C 62.381703 320.109611 63.294202 317.906644 63.294202 315.609917 
C 63.294202 313.313191 62.381703 311.110224 60.757672 309.486193 
C 59.133642 307.862162 56.930674 306.949663 54.633948 306.949663 
C 52.337222 306.949663 50.134254 307.862162 48.510224 309.486193 
C 46.886193 311.110224 45.973694 313.313191 45.973694 315.609917 
C 45.973694 317.906644 46.886193 320.109611 48.510224 321.733642 
C 50.134254 323.357672 52.337222 324.270171 54.633948 324.270171 
z
" clip-path="url(#pb387d7c1e0)" style="fill: #ffffff; stroke: #000000"/>
    <path d="M 54.633948 276.666866 
C 56.930674 276.666866 59.133642 275.754367 60.757672 274.130336 
C 62.381703 272.506305 63.294202 270.303338 63.294202 268.006612 
C 63.294202 265.709885 62.381703 263.506918 60.757672 261.882887 
C 59.133642 260.258857 56.930674 259.346358 54.633948 259.346358 
C 52.337222 259.346358 50.134254 260.258857 48.510224 261.882887 
C 46.886193 263.506918 45.973694 265.709885 45.973694 268.006612 
C 45.973694 270.303338 46.886193 272.506305 48.510224 274.130336 
C 50.134254 275.754367 52.337222 276.666866 54.633948 276.666866 
z
" clip-path="url(#pb387d7c1e0)" style="fill: #ffffff; stroke: #000000"/>
    <path d="M 69.281119 205.261907 
C 71.577845 205.261907 73.780813 204.349408 75.404843 202.725377 
C 77.028874 201.101347 77.941373 198.898379 77.941373 196.601653 
C 77.941373 194.304927 77.028874 192.101959 75.404843 190.477929 
C 73.780813 188.853898 71.577845 187.941399 69.281119 187.941399 
C 66.984393 187.941399 64.781425 188.853898 63.157395 190.477929 
C 61.533364 192.101959 60.620865 194.304927 60.620865 196.601653 
C 60.620865 198.898379 61.533364 201.101347 63.157395 202.725377 
C 64.781425 204.349408 66.984393 205.261907 69.281119 205.261907 
z
" clip-path="url(#pb387d7c1e0)" style="fill: #ffffff; stroke: #000000"/>
    <path d="M 69.281119 252.865213 
C 71.577845 252.865213 73.780813 251.952714 75.404843 250.328683 
C 77.028874 248.704652 77.941373 246.501685 77.941373 244.204959 
C 77.941373 241.908232 77.028874 239.705265 75.404843 238.081234 
C 73.780813 236.457204 71.577845 235.544705 69.281119 235.544705 
C 66.984393 235.544705 64.781425 236.457204 63.157395 238.081234 
C 61.533364 239.705265 60.620865 241.908232 60.620865 244.204959 
C 60.620865 246.501685 61.533364 248.704652 63.157395 250.328683 
C 64.781425 251.952714 66.984393 252.865213 69.281119 252.865213 
z
" clip-path="url(#pb387d7c1e0)" style="fill: #ffffff; stroke: #000000"/>
    <path d="M 69.281119 110.055295 
C 71.577845 110.055295 73.780813 109.142796 75.404843 107.518766 
C 77.028874 105.894735 77.941373 103.691768 77.941373 101.395041 
C 77.941373 99.098315 77.028874 96.895348 75.404843 95.271317 
C 73.780813 93.647286 71.577845 92.734787 69.281119 92.734787 
C 66.984393 92.734787 64.781425 93.647286 63.157395 95.271317 
C 61.533364 96.895348 60.620865 99.098315 60.620865 101.395041 
C 60.620865 103.691768 61.533364 105.894735 63.157395 107.518766 
C 64.781425 109.142796 66.984393 110.055295 69.281119 110.055295 
z
" clip-path="url(#pb387d7c1e0)" style="fill: #ffffff; stroke: #000000"/>
    <path d="M 69.281119 157.658601 
C 71.577845 157.658601 73.780813 156.746102 75.404843 155.122071 
C 77.028874 153.498041 77.941373 151.295073 77.941373 148.998347 
C 77.941373 146.701621 77.028874 144.498653 75.404843 142.874623 
C 73.780813 141.250592 71.577845 140.338093 69.281119 140.338093 
C 66.984393 140.338093 64.781425 141.250592 63.157395 142.874623 
C 61.533364 144.498653 60.620865 146.701621 60.620865 148.998347 
C 60.620865 151.295073 61.533364 153.498041 63.157395 155.122071 
C 64.781425 156.746102 66.984393 157.658601 69.281119 157.658601 
z
" clip-path="url(#pb387d7c1e0)" style="fill: #ffffff; stroke: #000000"/>
    <path d="M 83.92829 181.460254 
C 86.225016 181.460254 88.427984 180.547755 90.052014 178.923724 
C 91.676045 177.299694 92.588544 175.096726 92.588544 172.8 
C 92.588544 170.503274 91.676045 168.300306 90.052014 166.676276 
C 88.427984 165.052245 86.225016 164.139746 83.92829 164.139746 
C 81.631564 164.139746 79.428596 165.052245 77.804566 166.676276 
C 76.180535 168.300306 75.268036 170.503274 75.268036 172.8 
C 75.268036 175.096726 76.180535 177.299694 77.804566 178.923724 
C 79.428596 180.547755 81.631564 181.460254 83.92829 181.460254 
z
" clip-path="url(#pb387d7c1e0)" style="fill: #ffffff; stroke: #000000"/>
    <path d="M 98.575461 181.460254 
C 100.872187 181.460254 103.075155 180.547755 104.699185 178.923724 
C 106.323216 177.299694 107.235715 175.096726 107.235715 172.8 
C 107.235715 170.503274 106.323216 168.300306 104.699185 166.676276 
C 103.075155 165.052245 100.872187 164.139746 98.575461 164.139746 
C 96.278735 164.139746 94.075767 165.052245 92.451737 166.676276 
C 90.827706 168.300306 89.915207 170.503274 89.915207 172.8 
C 89.915207 175.096726 90.827706 177.299694 92.451737 178.923724 
C 94.075767 180.547755 96.278735 181.460254 98.575461 181.460254 
z
" clip-path="url(#pb387d7c1e0)" style="fill: #ffffff; stroke: #000000"/>
    <path d="M 113.222632 181.460254 
C 115.519358 181.460254 117.722326 180.547755 119.346356 178.923724 
C 120.970387 177.299694 121.882886 175.096726 121.882886 172.8 
C 121.882886 170.503274 120.970387 168.300306 119.346356 166.676276 
C 117.722326 165.052245 115.519358 164.139746 113.222632 164.139746 
C 110.925906 164.139746 108.722938 165.052245 107.098908 166.676276 
C 105.474877 168.300306 104.562378 170.503274 104.562378 172.8 
C 104.562378 175.096726 105.474877 177.299694 107.098908 178.923724 
C 108.722938 180.547755 110.925906 181.460254 113.222632 181.460254 
z
" clip-path="url(#pb387d7c1e0)" style="fill: #ffffff; stroke: #000000"/>
    <path d="M 127.869803 181.460254 
C 130.166529 181.460254 132.369497 180.547755 133.993527 178.923724 
C 135.617558 177.299694 136.530057 175.096726 136.530057 172.8 
C 136.530057 170.503274 135.617558 168.300306 133.993527 166.676276 
C 132.369497 165.052245 130.166529 164.139746 127.869803 164.139746 
C 125.573077 164.139746 123.370109 165.052245 121.746079 166.676276 
C 120.122048 168.300306 119.209549 170.503274 119.209549 172.8 
C 119.209549 175.096726 120.122048 177.299694 121.746079 178.923724 
C 123.370109 180.547755 125.573077 181.460254 127.869803 181.460254 
z
" clip-path="url(#pb387d7c1e0)" style="fill: #ffffff; stroke: #000000"/>
    <path d="M 142.516974 181.460254 
C 144.8137 181.460254 147.016668 180.547755 148.640698 178.923724 
C 150.264729 177.299694 151.177228 175.096726 151.177228 172.8 
C 151.177228 170.503274 150.264729 168.300306 148.640698 166.676276 
C 147.016668 165.052245 144.8137 164.139746 142.516974 164.139746 
C 140.220248 164.139746 138.01728 165.052245 136.39325 166.676276 
C 134.769219 168.300306 133.85672 170.503274 133.85672 172.8 
C 133.85672 175.096726 134.769219 177.299694 136.39325 178.923724 
C 138.01728 180.547755 140.220248 181.460254 142.516974 181.460254 
z
" clip-path="url(#pb387d7c1e0)" style="fill: #ffffff; stroke: #000000"/>
    <path d="M 157.164145 181.460254 
C 159.460871 181.460254 161.663839 180.547755 163.287869 178.923724 
C 164.9119 177.299694 165.824399 175.096726 165.824399 172.8 
C 165.824399 170.503274 164.9119 168.300306 163.287869 166.676276 
C 161.663839 165.052245 159.460871 164.139746 157.164145 164.139746 
C 154.867419 164.139746 152.664451 165.052245 151.040421 166.676276 
C 149.41639 168.300306 148.503891 170.503274 148.503891 172.8 
C 148.503891 175.096726 149.41639 177.299694 151.040421 178.923724 
C 152.664451 180.547755 154.867419 181.460254 157.164145 181.460254 
z
" clip-path="url(#pb387d7c1e0)" style="fill: #ffffff; stroke: #000000"/>
    <path d="M 171.811316 181.460254 
C 174.108042 181.460254 176.31101 180.547755 177.93504 178.923724 
C 179.559071 177.299694 180.47157 175.096726 180.47157 172.8 
C 180.47157 170.503274 179.559071 168.300306 177.93504 166.676276 
C 176.31101 165.052245 174.108042 164.139746 171.811316 164.139746 
C 169.51459 164.139746 167.311622 165.052245 165.687592 166.676276 
C 164.063561 168.300306 163.151062 170.503274 163.151062 172.8 
C 163.151062 175.096726 164.063561 177.299694 165.687592 178.923724 
C 167.311622 180.547755 169.51459 181.460254 171.811316 181.460254 
z
" clip-path="url(#pb387d7c1e0)" style="fill: #ffffff; stroke: #000000"/>
    <path d="M 186.458487 181.460254 
C 188.755213 181.460254 190.958181 180.547755 192.582211 178.923724 
C 194.206242 177.299694 195.118741 175.096726 195.118741 172.8 
C 195.118741 170.503274 194.206242 168.300306 192.582211 166.676276 
C 190.958181 165.052245 188.755213 164.139746 186.458487 164.139746 
C 184.161761 164.139746 181.958793 165.052245 180.334763 166.676276 
C 178.710732 168.300306 177.798233 170.503274 177.798233 172.8 
C 177.798233 175.096726 178.710732 177.299694 180.334763 178.923724 
C 181.958793 180.547755 184.161761 181.460254 186.458487 181.460254 
z
" clip-path="url(#pb387d7c1e0)" style="fill: #ffffff; stroke: #000000"/>
    <path d="M 201.105658 229.06356 
C 203.402384 229.06356 205.605352 228.151061 207.229382 226.52703 
C 208.853413 224.902999 209.765912 222.700032 209.765912 220.403306 
C 209.765912 218.10658 208.853413 215.903612 207.229382 214.279581 
C 205.605352 212.655551 203.402384 211.743052 201.105658 211.743052 
C 198.808932 211.743052 196.605964 212.655551 194.981934 214.279581 
C 193.357903 215.903612 192.445404 218.10658 192.445404 220.403306 
C 192.445404 222.700032 193.357903 224.902999 194.981934 226.52703 
C 196.605964 228.151061 198.808932 229.06356 201.105658 229.06356 
z
" clip-path="url(#pb387d7c1e0)" style="fill: #ffffff; stroke: #000000"/>
    <path d="M 201.105658 181.460254 
C 203.402384 181.460254 205.605352 180.547755 207.229382 178.923724 
C 208.853413 177.299694 209.765912 175.096726 209.765912 172.8 
C 209.765912 170.503274 208.853413 168.300306 207.229382 166.676276 
C 205.605352 165.052245 203.402384 164.139746 201.105658 164.139746 
C 198.808932 164.139746 196.605964 165.052245 194.981934 166.676276 
C 193.357903 168.300306 192.445404 170.503274 192.445404 172.8 
C 192.445404 175.096726 193.357903 177.299694 194.981934 178.923724 
C 196.605964 180.547755 198.808932 181.460254 201.105658 181.460254 
z
" clip-path="url(#pb387d7c1e0)" style="fill: #ffffff; stroke: #000000"/>
    <path d="M 201.105658 133.856948 
C 203.402384 133.856948 205.605352 132.944449 207.229382 131.320419 
C 208.853413 129.696388 209.765912 127.49342 209.765912 125.196694 
C 209.765912 122.899968 208.853413 120.697001 207.229382 119.07297 
C 205.605352 117.448939 203.402384 116.53644 201.105658 116.53644 
C 198.808932 116.53644 196.605964 117.448939 194.981934 119.07297 
C 193.357903 120.697001 192.445404 122.899968 192.445404 125.196694 
C 192.445404 127.49342 193.357903 129.696388 194.981934 131.320419 
C 196.605964 132.944449 198.808932 133.856948 201.105658 133.856948 
z
" clip-path="url(#pb387d7c1e0)" style="fill: #ffffff; stroke: #000000"/>
    <path d="M 215.752829 181.460254 
C 218.049555 181.460254 220.252523 180.547755 221.876553 178.923724 
C 223.500584 177.299694 224.413083 175.096726 224.413083 172.8 
C 224.413083 170.503274 223.500584 168.300306 221.876553 166.676276 
C 220.252523 165.052245 218.049555 164.139746 215.752829 164.139746 
C 213.456103 164.139746 211.253135 165.052245 209.629105 166.676276 
C 208.005074 168.300306 207.092575 170.503274 207.092575 172.8 
C 207.092575 175.096726 208.005074 177.299694 209.629105 178.923724 
C 211.253135 180.547755 213.456103 181.460254 215.752829 181.460254 
z
" clip-path="url(#pb387d7c1e0)" style="fill: #ffffff; stroke: #000000"/>
    <path d="M 230.4 181.460254 
C 232.696726 181.460254 234.899694 180.547755 236.523724 178.923724 
C 238.147755 177.299694 239.060254 175.096726 239.060254 172.8 
C 239.060254 170.503274 238.147755 168.300306 236.523724 166.676276 
C 234.899694 165.052245 232.696726 164.139746 230.4 164.139746 
C 228.103274 164.139746 225.900306 165.052245 224.276276 166.676276 
C 222.652245 168.300306 221.739746 170.503274 221.739746 172.8 
C 221.739746 175.096726 222.652245 177.299694 224.276276 178.923724 
C 225.900306 180.547755 228.103274 181.460254 230.4 181.460254 
z
" clip-path="url(#pb387d7c1e0)" style="fill: #ffffff; stroke: #000000"/>
    <path d="M 245.047171 181.460254 
C 247.343897 181.460254 249.546865 180.547755 251.170895 178.923724 
C 252.794926 177.299694 253.707425 175.096726 253.707425 172.8 
C 253.707425 170.503274 252.794926 168.300306 251.170895 166.676276 
C 249.546865 165.052245 247.343897 164.139746 245.047171 164.139746 
C 242.750445 164.139746 240.547477 165.052245 238.923447 166.676276 
C 237.299416 168.300306 236.386917 170.503274 236.386917 172.8 
C 236.386917 175.096726 237.299416 177.299694 238.923447 178.923724 
C 240.547477 180.547755 242.750445 181.460254 245.047171 181.460254 
z
" clip-path="url(#pb387d7c1e0)" style="fill: #ffffff; stroke: #000000"/>
    <path d="M 259.694342 181.460254 
C 261.991068 181.460254 264.194036 180.547755 265.818066 178.923724 
C 267.442097 177.299694 268.354596 175.096726 268.354596 172.8 
C 268.354596 170.503274 267.442097 168.300306 265.818066 166.676276 
C 264.194036 165.052245 261.991068 164.139746 259.694342 164.139746 
C 257.397616 164.139746 255.194648 165.052245 253.570618 166.676276 
C 251.946587 168.300306 251.034088 170.503274 251.034088 172.8 
C 251.034088 175.096726 251.946587 177.299694 253.570618 178.923724 
C 255.194648 180.547755 257.397616 181.460254 259.694342 181.460254 
z
" clip-path="url(#pb387d7c1e0)" style="fill: #ffffff; stroke: #000000"/>
    <path d="M 274.341513 205.261907 
C 276.638239 205.261907 278.841207 204.349408 280.465237 202.725377 
C 282.089268 201.101347 283.001767 198.898379 283.001767 196.601653 
C 283.001767 194.304927 282.089268 192.101959 280.465237 190.477929 
C 278.841207 188.853898 276.638239 187.941399 274.341513 187.941399 
C 272.044787 187.941399 269.841819 188.853898 268.217789 190.477929 
C 266.593758 192.101959 265.681259 194.304927 265.681259 196.601653 
C 265.681259 198.898379 266.593758 201.101347 268.217789 202.725377 
C 269.841819 204.349408 272.044787 205.261907 274.341513 205.261907 
z
" clip-path="url(#pb387d7c1e0)" style="fill: #ffffff; stroke: #000000"/>
    <path d="M 274.341513 157.658601 
C 276.638239 157.658601 278.841207 156.746102 280.465237 155.122071 
C 282.089268 153.498041 283.001767 151.295073 283.001767 148.998347 
C 283.001767 146.701621 282.089268 144.498653 280.465237 142.874623 
C 278.841207 141.250592 276.638239 140.338093 274.341513 140.338093 
C 272.044787 140.338093 269.841819 141.250592 268.217789 142.874623 
C 266.593758 144.498653 265.681259 146.701621 265.681259 148.998347 
C 265.681259 151.295073 266.593758 153.498041 268.217789 155.122071 
C 269.841819 156.746102 272.044787 157.658601 274.341513 157.658601 
z
" clip-path="url(#pb387d7c1e0)" style="fill: #ffffff; stroke: #000000"/>
    <path d="M 288.988684 181.460254 
C 291.28541 181.460254 293.488378 180.547755 295.112408 178.923724 
C 296.736439 177.299694 297.648938 175.096726 297.648938 172.8 
C 297.648938 170.503274 296.736439 168.300306 295.112408 166.676276 
C 293.488378 165.052245 291.28541 164.139746 288.988684 164.139746 
C 286.691958 164.139746 284.48899 165.052245 282.86496 166.676276 
C 281.240929 168.300306 280.32843 170.503274 280.32843 172.8 
C 280.32843 175.096726 281.240929 177.299694 282.86496 178.923724 
C 284.48899 180.547755 286.691958 181.460254 288.988684 181.460254 
z
" clip-path="url(#pb387d7c1e0)" style="fill: #ffffff; stroke: #000000"/>
    <path d="M 303.635855 229.06356 
C 305.932581 229.06356 308.135549 228.151061 309.759579 226.52703 
C 311.38361 224.902999 312.296109 222.700032 312.296109 220.403306 
C 312.296109 218.10658 311.38361 215.903612 309.759579 214.279581 
C 308.135549 212.655551 305.932581 211.743052 303.635855 211.743052 
C 301.339129 211.743052 299.136161 212.655551 297.512131 214.279581 
C 295.8881 215.903612 294.975601 218.10658 294.975601 220.403306 
C 294.975601 222.700032 295.8881 224.902999 297.512131 226.52703 
C 299.136161 228.151061 301.339129 229.06356 303.635855 229.06356 
z
" clip-path="url(#pb387d7c1e0)" style="fill: #ffffff; stroke: #000000"/>
    <path d="M 303.635855 181.460254 
C 305.932581 181.460254 308.135549 180.547755 309.759579 178.923724 
C 311.38361 177.299694 312.296109 175.096726 312.296109 172.8 
C 312.296109 170.503274 311.38361 168.300306 309.759579 166.676276 
C 308.135549 165.052245 305.932581 164.139746 303.635855 164.139746 
C 301.339129 164.139746 299.136161 165.052245 297.512131 166.676276 
C 295.8881 168.300306 294.975601 170.503274 294.975601 172.8 
C 294.975601 175.096726 295.8881 177.299694 297.512131 178.923724 
C 299.136161 180.547755 301.339129 181.460254 303.635855 181.460254 
z
" clip-path="url(#pb387d7c1e0)" style="fill: #ffffff; stroke: #000000"/>
    <path d="M 303.635855 133.856948 
C 305.932581 133.856948 308.135549 132.944449 309.759579 131.320419 
C 311.38361 129.696388 312.296109 127.49342 312.296109 125.196694 
C 312.296109 122.899968 311.38361 120.697001 309.759579 119.07297 
C 308.135549 117.448939 305.932581 116.53644 303.635855 116.53644 
C 301.339129 116.53644 299.136161 117.448939 297.512131 119.07297 
C 295.8881 120.697001 294.975601 122.899968 294.975601 125.196694 
C 294.975601 127.49342 295.8881 129.696388 297.512131 131.320419 
C 299.136161 132.944449 301.339129 133.856948 303.635855 133.856948 
z
" clip-path="url(#pb387d7c1e0)" style="fill: #ffffff; stroke: #000000"/>
    <path d="M 318.283026 157.658601 
C 320.579752 157.658601 322.78272 156.746102 324.40675 155.122071 
C 326.030781 153.498041 326.94328 151.295073 326.94328 148.998347 
C 326.94328 146.701621 326.030781 144.498653 324.40675 142.874623 
C 322.78272 141.250592 320.579752 140.338093 318.283026 140.338093 
C 315.9863 140.338093 313.783332 141.250592 312.159302 142.874623 
C 310.535271 144.498653 309.622772 146.701621 309.622772 148.998347 
C 309.622772 151.295073 310.535271 153.498041 312.159302 155.122071 
C 313.783332 156.746102 315.9863 157.658601 318.283026 157.658601 
z
" clip-path="url(#pb387d7c1e0)" style="fill: #ffffff; stroke: #000000"/>
    <path d="M 318.283026 205.261907 
C 320.579752 205.261907 322.78272 204.349408 324.40675 202.725377 
C 326.030781 201.101347 326.94328 198.898379 326.94328 196.601653 
C 326.94328 194.304927 326.030781 192.101959 324.40675 190.477929 
C 322.78272 188.853898 320.579752 187.941399 318.283026 187.941399 
C 315.9863 187.941399 313.783332 188.853898 312.159302 190.477929 
C 310.535271 192.101959 309.622772 194.304927 309.622772 196.601653 
C 309.622772 198.898379 310.535271 201.101347 312.159302 202.725377 
C 313.783332 204.349408 315.9863 205.261907 318.283026 205.261907 
z
" clip-path="url(#pb387d7c1e0)" style="fill: #ffffff; stroke: #000000"/>
    <path d="M 332.930197 181.460254 
C 335.226923 181.460254 337.429891 180.547755 339.053921 178.923724 
C 340.677952 177.299694 341.590451 175.096726 341.590451 172.8 
C 341.590451 170.503274 340.677952 168.300306 339.053921 166.676276 
C 337.429891 165.052245 335.226923 164.139746 332.930197 164.139746 
C 330.633471 164.139746 328.430503 165.052245 326.806473 166.676276 
C 325.182442 168.300306 324.269943 170.503274 324.269943 172.8 
C 324.269943 175.096726 325.182442 177.299694 326.806473 178.923724 
C 328.430503 180.547755 330.633471 181.460254 332.930197 181.460254 
z
" clip-path="url(#pb387d7c1e0)" style="fill: #ffffff; stroke: #000000"/>
    <path d="M 347.577368 181.460254 
C 349.874094 181.460254 352.077062 180.547755 353.701092 178.923724 
C 355.325123 177.299694 356.237622 175.096726 356.237622 172.8 
C 356.237622 170.503274 355.325123 168.300306 353.701092 166.676276 
C 352.077062 165.052245 349.874094 164.139746 347.577368 164.139746 
C 345.280642 164.139746 343.077674 165.052245 341.453644 166.676276 
C 339.829613 168.300306 338.917114 170.503274 338.917114 172.8 
C 338.917114 175.096726 339.829613 177.299694 341.453644 178.923724 
C 343.077674 180.547755 345.280642 181.460254 347.577368 181.460254 
z
" clip-path="url(#pb387d7c1e0)" style="fill: #ffffff; stroke: #000000"/>
    <path d="M 362.224539 181.460254 
C 364.521265 181.460254 366.724233 180.547755 368.348263 178.923724 
C 369.972294 177.299694 370.884793 175.096726 370.884793 172.8 
C 370.884793 170.503274 369.972294 168.300306 368.348263 166.676276 
C 366.724233 165.052245 364.521265 164.139746 362.224539 164.139746 
C 359.927813 164.139746 357.724845 165.052245 356.100815 166.676276 
C 354.476784 168.300306 353.564285 170.503274 353.564285 172.8 
C 353.564285 175.096726 354.476784 177.299694 356.100815 178.923724 
C 357.724845 180.547755 359.927813 181.460254 362.224539 181.460254 
z
" clip-path="url(#pb387d7c1e0)" style="fill: #ffffff; stroke: #000000"/>
    <path d="M 376.87171 181.460254 
C 379.168436 181.460254 381.371404 180.547755 382.995434 178.923724 
C 384.619465 177.299694 385.531964 175.096726 385.531964 172.8 
C 385.531964 170.503274 384.619465 168.300306 382.995434 166.676276 
C 381.371404 165.052245 379.168436 164.139746 376.87171 164.139746 
C 374.574984 164.139746 372.372016 165.052245 370.747986 166.676276 
C 369.123955 168.300306 368.211456 170.503274 368.211456 172.8 
C 368.211456 175.096726 369.123955 177.299694 370.747986 178.923724 
C 372.372016 180.547755 374.574984 181.460254 376.87171 181.460254 
z
" clip-path="url(#pb387d7c1e0)" style="fill: #ffffff; stroke: #000000"/>
    <path d="M 391.518881 229.06356 
C 393.815607 229.06356 396.018575 228.151061 397.642605 226.52703 
C 399.266636 224.902999 400.179135 222.700032 400.179135 220.403306 
C 400.179135 218.10658 399.266636 215.903612 397.642605 214.279581 
C 396.018575 212.655551 393.815607 211.743052 391.518881 211.743052 
C 389.222155 211.743052 387.019187 212.655551 385.395157 214.279581 
C 383.771126 215.903612 382.858627 218.10658 382.858627 220.403306 
C 382.858627 222.700032 383.771126 224.902999 385.395157 226.52703 
C 387.019187 228.151061 389.222155 229.06356 391.518881 229.06356 
z
" clip-path="url(#pb387d7c1e0)" style="fill: #ffffff; stroke: #000000"/>
    <path d="M 391.518881 181.460254 
C 393.815607 181.460254 396.018575 180.547755 397.642605 178.923724 
C 399.266636 177.299694 400.179135 175.096726 400.179135 172.8 
C 400.179135 170.503274 399.266636 168.300306 397.642605 166.676276 
C 396.018575 165.052245 393.815607 164.139746 391.518881 164.139746 
C 389.222155 164.139746 387.019187 165.052245 385.395157 166.676276 
C 383.771126 168.300306 382.858627 170.503274 382.858627 172.8 
C 382.858627 175.096726 383.771126 177.299694 385.395157 178.923724 
C 387.019187 180.547755 389.222155 181.460254 391.518881 181.460254 
z
" clip-path="url(#pb387d7c1e0)" style="fill: #ffffff; stroke: #000000"/>
    <path d="M 391.518881 133.856948 
C 393.815607 133.856948 396.018575 132.944449 397.642605 131.320419 
C 399.266636 129.696388 400.179135 127.49342 400.179135 125.196694 
C 400.179135 122.899968 399.266636 120.697001 397.642605 119.07297 
C 396.018575 117.448939 393.815607 116.53644 391.518881 116.53644 
C 389.222155 116.53644 387.019187 117.448939 385.395157 119.07297 
C 383.771126 120.697001 382.858627 122.899968 382.858627 125.196694 
C 382.858627 127.49342 383.771126 129.696388 385.395157 131.320419 
C 387.019187 132.944449 389.222155 133.856948 391.518881 133.856948 
z
" clip-path="url(#pb387d7c1e0)" style="fill: #ffffff; stroke: #000000"/>
    <path d="M 406.166052 229.06356 
C 408.462778 229.06356 410.665746 228.151061 412.289776 226.52703 
C 413.913807 224.902999 414.826306 222.700032 414.826306 220.403306 
C 414.826306 218.10658 413.913807 215.903612 412.289776 214.279581 
C 410.665746 212.655551 408.462778 211.743052 406.166052 211.743052 
C 403.869326 211.743052 401.666358 212.655551 400.042328 214.279581 
C 398.418297 215.903612 397.505798 218.10658 397.505798 220.403306 
C 397.505798 222.700032 398.418297 224.902999 400.042328 226.52703 
C 401.666358 228.151061 403.869326 229.06356 406.166052 229.06356 
z
" clip-path="url(#pb387d7c1e0)" style="fill: #ffffff; stroke: #000000"/>
    <path d="M 406.166052 133.856948 
C 408.462778 133.856948 410.665746 132.944449 412.289776 131.320419 
C 413.913807 129.696388 414.826306 127.49342 414.826306 125.196694 
C 414.826306 122.899968 413.913807 120.697001 412.289776 119.07297 
C 410.665746 117.448939 408.462778 116.53644 406.166052 116.53644 
C 403.869326 116.53644 401.666358 117.448939 400.042328 119.07297 
C 398.418297 120.697001 397.505798 122.899968 397.505798 125.196694 
C 397.505798 127.49342 398.418297 129.696388 400.042328 131.320419 
C 401.666358 132.944449 403.869326 133.856948 406.166052 133.856948 
z
" clip-path="url(#pb387d7c1e0)" style="fill: #ffffff; stroke: #000000"/>
    <path d="M 406.166052 181.460254 
C 408.462778 181.460254 410.665746 180.547755 412.289776 178.923724 
C 413.913807 177.299694 414.826306 175.096726 414.826306 172.8 
C 414.826306 170.503274 413.913807 168.300306 412.289776 166.676276 
C 410.665746 165.052245 408.462778 164.139746 406.166052 164.139746 
C 403.869326 164.139746 401.666358 165.052245 400.042328 166.676276 
C 398.418297 168.300306 397.505798 170.503274 397.505798 172.8 
C 397.505798 175.096726 398.418297 177.299694 400.042328 178.923724 
C 401.666358 180.547755 403.869326 181.460254 406.166052 181.460254 
z
" clip-path="url(#pb387d7c1e0)" style="fill: #ffffff; stroke: #000000"/>
    <path d="M 420.813223 205.261907 
C 423.109949 205.261907 425.312917 204.349408 426.936947 202.725377 
C 428.560978 201.101347 429.473477 198.898379 429.473477 196.601653 
C 429.473477 194.304927 428.560978 192.101959 426.936947 190.477929 
C 425.312917 188.853898 423.109949 187.941399 420.813223 187.941399 
C 418.516497 187.941399 416.313529 188.853898 414.689499 190.477929 
C 413.065468 192.101959 412.152969 194.304927 412.152969 196.601653 
C 412.152969 198.898379 413.065468 201.101347 414.689499 202.725377 
C 416.313529 204.349408 418.516497 205.261907 420.813223 205.261907 
z
" clip-path="url(#pb387d7c1e0)" style="fill: #0000ff; stroke: #000000"/>
    <path d="M 420.813223 157.658601 
C 423.109949 157.658601 425.312917 156.746102 426.936947 155.122071 
C 428.560978 153.498041 429.473477 151.295073 429.473477 148.998347 
C 429.473477 146.701621 428.560978 144.498653 426.936947 142.874623 
C 425.312917 141.250592 423.109949 140.338093 420.813223 140.338093 
C 418.516497 140.338093 416.313529 141.250592 414.689499 142.874623 
C 413.065468 144.498653 412.152969 146.701621 412.152969 148.998347 
C 412.152969 151.295073 413.065468 153.498041 414.689499 155.122071 
C 416.313529 156.746102 418.516497 157.658601 420.813223 157.658601 
z
" clip-path="url(#pb387d7c1e0)" style="fill: #ffffff; stroke: #000000"/>
   </g>
  </g>
 </g>
 <defs>
  <clipPath id="pb387d7c1e0">
   <rect x="0" y="0" width="460.8" height="345.6"/>
  </clipPath>
 </defs>
</svg>
