<?xml version="1.0" encoding="utf-8" standalone="no"?>
<!DOCTYPE svg PUBLIC "-//W3C//DTD SVG 1.1//EN"
  "http://www.w3.org/Graphics/SVG/1.1/DTD/svg11.dtd">
<svg xmlns:xlink="http://www.w3.org/1999/xlink" width="460.8pt" height="345.6pt" viewBox="0 0 460.8 345.6" xmlns="http://www.w3.org/2000/svg" version="1.1">
 <metadata>
  <rdf:RDF xmlns:dc="http://purl.org/dc/elements/1.1/" xmlns:cc="http://creativecommons.org/ns#" xmlns:rdf="http://www.w3.org/1999/02/22-rdf-syntax-ns#">
   <cc:Work>
    <dc:type rdf:resource="http://purl.org/dc/dcmitype/StillImage"/>
    <dc:date>2025-11-07T17:13:58.856949</dc:date>
    <dc:format>image/svg+xml</dc:format>
    <dc:creator>
     <cc:Agent>
      <dc:title>Matplotlib v3.10.5, https://matplotlib.org/</dc:title>
     </cc:Agent>
    </dc:creator>
   </cc:Work>
  </rdf:RDF>
 </metadata>
 <defs>
  <style type="text/css">*{stroke-linejoin: round; stroke-linecap: butt}</style>
 </defs>
 <g id="figure_1">
  <g id="patch_1">
   <path d="M 0 345.6 
L 460.8 345.6 
L 460.8 0 
L 0 0 
z
" style="fill: #ffffff"/>
  </g>
  <g id="axes_1">
   <g id="patch_2">
    <path d="M 47.995656 312.320556 
Q 213.841261 244.205397 378.652663 176.515 
" clip-path="url(#p26542ff581)" style="fill: none; stroke: #4c4c4c; stroke-linecap: round"/>
    <path d="M 377.314688 176.415891 
L 378.652663 176.515 
L 377.77059 177.525914 
" clip-path="url(#p26542ff581)" style="fill: none; stroke: #4c4c4c; stroke-linecap: round"/>
   </g>
   <g id="patch_3">
    <path d="M 48.070314 312.511228 
Q 164.168871 268.006781 279.223467 223.902519 
" clip-path="url(#p26542ff581)" style="fill: none; stroke: #4c4c4c; stroke-linecap: round"/>
    <path d="M 277.88821 223.771795 
L 279.223467 223.902519 
L 278.317733 224.89229 
" clip-path="url(#p26542ff581)" style="fill: none; stroke: #4c4c4c; stroke-linecap: round"/>
   </g>
   <g id="patch_4">
    <path d="M 47.361631 311.066481 
Q 155.891356 244.204417 263.469191 177.928787 
" clip-path="url(#p26542ff581)" style="fill: none; stroke: #4c4c4c; stroke-linecap: round"/>
    <path d="M 262.132802 178.047375 
L 263.469191 177.928787 
L 262.762227 179.069051 
" clip-path="url(#p26542ff581)" style="fill: none; stroke: #4c4c4c; stroke-linecap: round"/>
   </g>
   <g id="patch_5">
    <path d="M 43.631001 307.75206 
Q 73.103059 244.202934 102.104733 181.668075 
" clip-path="url(#p26542ff581)" style="fill: none; stroke: #4c4c4c; stroke-linecap: round"/>
    <path d="M 101.05555 182.504266 
L 102.104733 181.668075 
L 102.144176 183.009136 
" clip-path="url(#p26542ff581)" style="fill: none; stroke: #4c4c4c; stroke-linecap: round"/>
   </g>
   <g id="patch_6">
    <path d="M 42.831616 212.224393 
Q 48.26561 196.601659 53.332308 182.034905 
" clip-path="url(#p26542ff581)" style="fill: none; stroke: #4c4c4c; stroke-linecap: round"/>
    <path d="M 52.371385 182.971189 
L 53.332308 182.034905 
L 53.504781 183.365413 
" clip-path="url(#p26542ff581)" style="fill: none; stroke: #4c4c4c; stroke-linecap: round"/>
   </g>
   <g id="patch_7">
    <path d="M 48.646356 220.403306 
Q 164.170315 220.403306 278.57624 220.403306 
" clip-path="url(#p26542ff581)" style="fill: none; stroke: #4c4c4c; stroke-linecap: round"/>
    <path d="M 277.37624 219.803306 
L 278.57624 220.403306 
L 277.37624 221.003306 
" clip-path="url(#p26542ff581)" style="fill: none; stroke: #4c4c4c; stroke-linecap: round"/>
   </g>
   <g id="patch_8">
    <path d="M 42.831616 228.582218 
Q 48.26561 244.204952 53.332308 258.771707 
" clip-path="url(#p26542ff581)" style="fill: none; stroke: #4c4c4c; stroke-linecap: round"/>
    <path d="M 53.504781 257.441198 
L 53.332308 258.771707 
L 52.371385 257.835423 
" clip-path="url(#p26542ff581)" style="fill: none; stroke: #4c4c4c; stroke-linecap: round"/>
   </g>
   <g id="patch_9">
    <path d="M 48.194618 127.972876 
Q 180.729899 172.800986 312.206088 217.270873 
" clip-path="url(#p26542ff581)" style="fill: none; stroke: #4c4c4c; stroke-linecap: round"/>
    <path d="M 311.261593 216.31802 
L 312.206088 217.270873 
L 310.877108 217.454757 
" clip-path="url(#p26542ff581)" style="fill: none; stroke: #4c4c4c; stroke-linecap: round"/>
   </g>
   <g id="patch_10">
    <path d="M 42.831616 117.017782 
Q 48.26561 101.395048 53.332308 86.828293 
" clip-path="url(#p26542ff581)" style="fill: none; stroke: #4c4c4c; stroke-linecap: round"/>
    <path d="M 52.371385 87.764577 
L 53.332308 86.828293 
L 53.504781 88.158802 
" clip-path="url(#p26542ff581)" style="fill: none; stroke: #4c4c4c; stroke-linecap: round"/>
   </g>
   <g id="patch_11">
    <path d="M 48.568666 126.371596 
Q 213.842152 148.998323 378.007937 171.473401 
" clip-path="url(#p26542ff581)" style="fill: none; stroke: #4c4c4c; stroke-linecap: round"/>
    <path d="M 376.900411 170.716178 
L 378.007937 171.473401 
L 376.737643 171.905088 
" clip-path="url(#p26542ff581)" style="fill: none; stroke: #4c4c4c; stroke-linecap: round"/>
   </g>
   <g id="patch_12">
    <path d="M 48.649641 125.196694 
Q 172.449018 125.196694 295.130361 125.196694 
" clip-path="url(#p26542ff581)" style="fill: none; stroke: #4c4c4c; stroke-linecap: round"/>
    <path d="M 293.930361 124.596694 
L 295.130361 125.196694 
L 293.930361 125.796694 
" clip-path="url(#p26542ff581)" style="fill: none; stroke: #4c4c4c; stroke-linecap: round"/>
   </g>
   <g id="patch_13">
    <path d="M 48.070314 33.088772 
Q 164.168871 77.593219 279.223467 121.697481 
" clip-path="url(#p26542ff581)" style="fill: none; stroke: #4c4c4c; stroke-linecap: round"/>
    <path d="M 278.317733 120.70771 
L 279.223467 121.697481 
L 277.88821 121.828205 
" clip-path="url(#p26542ff581)" style="fill: none; stroke: #4c4c4c; stroke-linecap: round"/>
   </g>
   <g id="patch_14">
    <path d="M 46.857594 35.257709 
Q 164.168544 125.196104 280.592215 214.454252 
" clip-path="url(#p26542ff581)" style="fill: none; stroke: #4c4c4c; stroke-linecap: round"/>
    <path d="M 280.004946 213.24797 
L 280.592215 214.454252 
L 279.274828 214.200298 
" clip-path="url(#p26542ff581)" style="fill: none; stroke: #4c4c4c; stroke-linecap: round"/>
   </g>
   <g id="patch_15">
    <path d="M 47.016511 35.042704 
Q 172.446973 125.195849 296.969575 214.696469 
" clip-path="url(#p26542ff581)" style="fill: none; stroke: #4c4c4c; stroke-linecap: round"/>
    <path d="M 296.345338 213.508896 
L 296.969575 214.696469 
L 295.644975 214.483315 
" clip-path="url(#p26542ff581)" style="fill: none; stroke: #4c4c4c; stroke-linecap: round"/>
   </g>
   <g id="patch_16">
    <path d="M 47.361631 34.533519 
Q 155.891356 101.395583 263.469191 167.671213 
" clip-path="url(#p26542ff581)" style="fill: none; stroke: #4c4c4c; stroke-linecap: round"/>
    <path d="M 262.762227 166.530949 
L 263.469191 167.671213 
L 262.132802 167.552625 
" clip-path="url(#p26542ff581)" style="fill: none; stroke: #4c4c4c; stroke-linecap: round"/>
   </g>
   <g id="patch_17">
    <path d="M 44.491274 37.390328 
Q 97.939468 125.198076 150.806344 212.050801 
" clip-path="url(#p26542ff581)" style="fill: none; stroke: #4c4c4c; stroke-linecap: round"/>
    <path d="M 150.694927 210.713794 
L 150.806344 212.050801 
L 149.669889 211.337731 
" clip-path="url(#p26542ff581)" style="fill: none; stroke: #4c4c4c; stroke-linecap: round"/>
   </g>
   <g id="patch_18">
    <path d="M 57.541405 86.192142 
Q 64.822906 148.995086 71.975642 210.687436 
" clip-path="url(#p26542ff581)" style="fill: none; stroke: #4c4c4c; stroke-linecap: round"/>
    <path d="M 72.433445 209.426319 
L 71.975642 210.687436 
L 71.24143 209.564524 
" clip-path="url(#p26542ff581)" style="fill: none; stroke: #4c4c4c; stroke-linecap: round"/>
   </g>
   <g id="patch_19">
    <path d="M 64.217682 81.604397 
Q 147.610891 125.196302 230.01327 168.270272 
" clip-path="url(#p26542ff581)" style="fill: none; stroke: #4c4c4c; stroke-linecap: round"/>
    <path d="M 229.227751 167.182632 
L 230.01327 168.270272 
L 228.671846 168.246102 
" clip-path="url(#p26542ff581)" style="fill: none; stroke: #4c4c4c; stroke-linecap: round"/>
   </g>
   <g id="patch_20">
    <path d="M 65.052438 79.224086 
Q 180.729973 101.395614 295.309461 123.356682 
" clip-path="url(#p26542ff581)" style="fill: none; stroke: #4c4c4c; stroke-linecap: round"/>
    <path d="M 294.243857 122.54152 
L 295.309461 123.356682 
L 294.017969 123.720068 
" clip-path="url(#p26542ff581)" style="fill: none; stroke: #4c4c4c; stroke-linecap: round"/>
   </g>
   <g id="patch_21">
    <path d="M 64.217682 263.995603 
Q 147.610891 220.403698 230.01327 177.329728 
" clip-path="url(#p26542ff581)" style="fill: none; stroke: #4c4c4c; stroke-linecap: round"/>
    <path d="M 228.671846 177.353898 
L 230.01327 177.329728 
L 229.227751 178.417368 
" clip-path="url(#p26542ff581)" style="fill: none; stroke: #4c4c4c; stroke-linecap: round"/>
   </g>
   <g id="patch_22">
    <path d="M 59.389288 164.621087 
Q 64.823282 148.998353 69.889979 134.431599 
" clip-path="url(#p26542ff581)" style="fill: none; stroke: #4c4c4c; stroke-linecap: round"/>
    <path d="M 68.929056 135.367883 
L 69.889979 134.431599 
L 70.062453 135.762108 
" clip-path="url(#p26542ff581)" style="fill: none; stroke: #4c4c4c; stroke-linecap: round"/>
   </g>
   <g id="patch_23">
    <path d="M 81.661145 126.49181 
Q 230.399686 148.9983 378.032778 171.337517 
" clip-path="url(#p26542ff581)" style="fill: none; stroke: #4c4c4c; stroke-linecap: round"/>
    <path d="M 376.936052 170.564735 
L 378.032778 171.337517 
L 376.756517 171.751229 
" clip-path="url(#p26542ff581)" style="fill: none; stroke: #4c4c4c; stroke-linecap: round"/>
   </g>
   <g id="patch_24">
    <path d="M 81.627542 126.728606 
Q 205.563739 148.998391 328.399526 171.070447 
" clip-path="url(#p26542ff581)" style="fill: none; stroke: #4c4c4c; stroke-linecap: round"/>
    <path d="M 327.324554 170.267679 
L 328.399526 171.070447 
L 327.112328 171.448763 
" clip-path="url(#p26542ff581)" style="fill: none; stroke: #4c4c4c; stroke-linecap: round"/>
   </g>
   <g id="patch_25">
    <path d="M 78.047997 132.306392 
Q 89.659477 148.997895 100.632488 164.771598 
" clip-path="url(#p26542ff581)" style="fill: none; stroke: #4c4c4c; stroke-linecap: round"/>
    <path d="M 100.439753 163.443873 
L 100.632488 164.771598 
L 99.454667 164.12915 
" clip-path="url(#p26542ff581)" style="fill: none; stroke: #4c4c4c; stroke-linecap: round"/>
   </g>
   <g id="patch_26">
    <path d="M 75.946959 212.224393 
Q 81.380954 196.601659 86.447651 182.034905 
" clip-path="url(#p26542ff581)" style="fill: none; stroke: #4c4c4c; stroke-linecap: round"/>
    <path d="M 85.486728 182.971189 
L 86.447651 182.034905 
L 86.620124 183.365413 
" clip-path="url(#p26542ff581)" style="fill: none; stroke: #4c4c4c; stroke-linecap: round"/>
   </g>
   <g id="patch_27">
    <path d="M 97.166024 177.116083 
Q 131.054238 196.601806 163.973221 215.530222 
" clip-path="url(#p26542ff581)" style="fill: none; stroke: #4c4c4c; stroke-linecap: round"/>
    <path d="M 163.232016 214.411913 
L 163.973221 215.530222 
L 162.633851 215.4522 
" clip-path="url(#p26542ff581)" style="fill: none; stroke: #4c4c4c; stroke-linecap: round"/>
   </g>
   <g id="patch_28">
    <path d="M 96.689526 177.852621 
Q 122.772416 196.599699 147.947445 214.694251 
" clip-path="url(#p26542ff581)" style="fill: none; stroke: #4c4c4c; stroke-linecap: round"/>
    <path d="M 147.323209 213.506679 
L 147.947445 214.694251 
L 146.622845 214.481097 
" clip-path="url(#p26542ff581)" style="fill: none; stroke: #4c4c4c; stroke-linecap: round"/>
   </g>
   <g id="patch_29">
    <path d="M 98.322655 172.8 
Q 102.270059 172.8 105.099429 172.8 
" clip-path="url(#p26542ff581)" style="fill: none; stroke: #4c4c4c; stroke-linecap: round"/>
    <path d="M 103.899429 172.2 
L 105.099429 172.8 
L 103.899429 173.4 
" clip-path="url(#p26542ff581)" style="fill: none; stroke: #4c4c4c; stroke-linecap: round"/>
   </g>
   <g id="patch_30">
    <path d="M 114.880327 172.8 
Q 118.827731 172.8 121.657101 172.8 
" clip-path="url(#p26542ff581)" style="fill: none; stroke: #4c4c4c; stroke-linecap: round"/>
    <path d="M 120.457101 172.2 
L 121.657101 172.8 
L 120.457101 173.4 
" clip-path="url(#p26542ff581)" style="fill: none; stroke: #4c4c4c; stroke-linecap: round"/>
   </g>
   <g id="patch_31">
    <path d="M 131.194444 170.782874 
Q 222.119536 148.998737 311.957363 127.475091 
" clip-path="url(#p26542ff581)" style="fill: none; stroke: #4c4c4c; stroke-linecap: round"/>
    <path d="M 310.650595 127.171191 
L 311.957363 127.475091 
L 310.930182 128.338166 
" clip-path="url(#p26542ff581)" style="fill: none; stroke: #4c4c4c; stroke-linecap: round"/>
   </g>
   <g id="patch_32">
    <path d="M 131.437999 172.8 
Q 135.385402 172.8 138.214772 172.8 
" clip-path="url(#p26542ff581)" style="fill: none; stroke: #4c4c4c; stroke-linecap: round"/>
    <path d="M 137.014772 172.2 
L 138.214772 172.8 
L 137.014772 173.4 
" clip-path="url(#p26542ff581)" style="fill: none; stroke: #4c4c4c; stroke-linecap: round"/>
   </g>
   <g id="patch_33">
    <path d="M 142.177646 180.978913 
Q 147.61164 196.601647 152.678337 211.168401 
" clip-path="url(#p26542ff581)" style="fill: none; stroke: #4c4c4c; stroke-linecap: round"/>
    <path d="M 152.85081 209.837892 
L 152.678337 211.168401 
L 151.717414 210.232117 
" clip-path="url(#p26542ff581)" style="fill: none; stroke: #4c4c4c; stroke-linecap: round"/>
   </g>
   <g id="patch_34">
    <path d="M 142.177646 164.621087 
Q 147.61164 148.998353 152.678337 134.431599 
" clip-path="url(#p26542ff581)" style="fill: none; stroke: #4c4c4c; stroke-linecap: round"/>
    <path d="M 151.717414 135.367883 
L 152.678337 134.431599 
L 152.85081 135.762108 
" clip-path="url(#p26542ff581)" style="fill: none; stroke: #4c4c4c; stroke-linecap: round"/>
   </g>
   <g id="patch_35">
    <path d="M 163.39671 216.087222 
Q 238.67773 172.800636 312.989519 130.071357 
" clip-path="url(#p26542ff581)" style="fill: none; stroke: #4c4c4c; stroke-linecap: round"/>
    <path d="M 311.650148 130.149379 
L 312.989519 130.071357 
L 312.248314 131.189667 
" clip-path="url(#p26542ff581)" style="fill: none; stroke: #4c4c4c; stroke-linecap: round"/>
   </g>
   <g id="patch_36">
    <path d="M 164.375981 218.660747 
Q 271.796145 196.601249 378.12113 174.766654 
" clip-path="url(#p26542ff581)" style="fill: none; stroke: #4c4c4c; stroke-linecap: round"/>
    <path d="M 376.824964 174.42031 
L 378.12113 174.766654 
L 377.066355 175.59578 
" clip-path="url(#p26542ff581)" style="fill: none; stroke: #4c4c4c; stroke-linecap: round"/>
   </g>
   <g id="patch_37">
    <path d="M 164.553342 220.403306 
Q 168.500746 220.403306 171.330115 220.403306 
" clip-path="url(#p26542ff581)" style="fill: none; stroke: #4c4c4c; stroke-linecap: round"/>
    <path d="M 170.130115 219.803306 
L 171.330115 220.403306 
L 170.130115 221.003306 
" clip-path="url(#p26542ff581)" style="fill: none; stroke: #4c4c4c; stroke-linecap: round"/>
   </g>
   <g id="patch_38">
    <path d="M 164.553342 220.403306 
Q 222.121084 220.403306 278.570792 220.403306 
" clip-path="url(#p26542ff581)" style="fill: none; stroke: #4c4c4c; stroke-linecap: round"/>
    <path d="M 277.370792 219.803306 
L 278.570792 220.403306 
L 277.370792 221.003306 
" clip-path="url(#p26542ff581)" style="fill: none; stroke: #4c4c4c; stroke-linecap: round"/>
   </g>
   <g id="patch_39">
    <path d="M 163.39671 224.719389 
Q 197.284924 244.205112 230.203907 263.133528 
" clip-path="url(#p26542ff581)" style="fill: none; stroke: #4c4c4c; stroke-linecap: round"/>
    <path d="M 229.462702 262.015219 
L 230.203907 263.133528 
L 228.864537 263.055506 
" clip-path="url(#p26542ff581)" style="fill: none; stroke: #4c4c4c; stroke-linecap: round"/>
   </g>
   <g id="patch_40">
    <path d="M 164.553342 125.196694 
Q 168.500746 125.196694 171.330115 125.196694 
" clip-path="url(#p26542ff581)" style="fill: none; stroke: #4c4c4c; stroke-linecap: round"/>
    <path d="M 170.130115 124.596694 
L 171.330115 125.196694 
L 170.130115 125.796694 
" clip-path="url(#p26542ff581)" style="fill: none; stroke: #4c4c4c; stroke-linecap: round"/>
   </g>
   <g id="patch_41">
    <path d="M 175.292989 212.224393 
Q 180.726983 196.601659 185.79368 182.034905 
" clip-path="url(#p26542ff581)" style="fill: none; stroke: #4c4c4c; stroke-linecap: round"/>
    <path d="M 184.832757 182.971189 
L 185.79368 182.034905 
L 185.966154 183.365413 
" clip-path="url(#p26542ff581)" style="fill: none; stroke: #4c4c4c; stroke-linecap: round"/>
   </g>
   <g id="patch_42">
    <path d="M 181.110003 125.196694 
Q 271.794507 125.196694 361.360977 125.196694 
" clip-path="url(#p26542ff581)" style="fill: none; stroke: #4c4c4c; stroke-linecap: round"/>
    <path d="M 360.160977 124.596694 
L 361.360977 125.196694 
L 360.160977 125.796694 
" clip-path="url(#p26542ff581)" style="fill: none; stroke: #4c4c4c; stroke-linecap: round"/>
   </g>
   <g id="patch_43">
    <path d="M 181.110508 125.196694 
Q 230.3997 125.196694 278.570858 125.196694 
" clip-path="url(#p26542ff581)" style="fill: none; stroke: #4c4c4c; stroke-linecap: round"/>
    <path d="M 277.370858 124.596694 
L 278.570858 125.196694 
L 277.370858 125.796694 
" clip-path="url(#p26542ff581)" style="fill: none; stroke: #4c4c4c; stroke-linecap: round"/>
   </g>
   <g id="patch_44">
    <path d="M 197.668685 172.8 
Q 201.616089 172.8 204.445459 172.8 
" clip-path="url(#p26542ff581)" style="fill: none; stroke: #4c4c4c; stroke-linecap: round"/>
    <path d="M 203.245459 172.2 
L 204.445459 172.8 
L 203.245459 173.4 
" clip-path="url(#p26542ff581)" style="fill: none; stroke: #4c4c4c; stroke-linecap: round"/>
   </g>
   <g id="patch_45">
    <path d="M 214.226356 172.8 
Q 218.17376 172.8 221.00313 172.8 
" clip-path="url(#p26542ff581)" style="fill: none; stroke: #4c4c4c; stroke-linecap: round"/>
    <path d="M 219.80313 172.2 
L 221.00313 172.8 
L 219.80313 173.4 
" clip-path="url(#p26542ff581)" style="fill: none; stroke: #4c4c4c; stroke-linecap: round"/>
   </g>
   <g id="patch_46">
    <path d="M 223.60523 181.333381 
Q 230.400267 220.404842 237.003739 258.374802 
" clip-path="url(#p26542ff581)" style="fill: none; stroke: #4c4c4c; stroke-linecap: round"/>
    <path d="M 237.389256 257.089743 
L 237.003739 258.374802 
L 236.207002 257.295353 
" clip-path="url(#p26542ff581)" style="fill: none; stroke: #4c4c4c; stroke-linecap: round"/>
   </g>
   <g id="patch_47">
    <path d="M 229.934113 176.543705 
Q 271.796922 196.602967 312.651469 216.179105 
" clip-path="url(#p26542ff581)" style="fill: none; stroke: #4c4c4c; stroke-linecap: round"/>
    <path d="M 311.828562 215.119471 
L 312.651469 216.179105 
L 311.310018 216.20165 
" clip-path="url(#p26542ff581)" style="fill: none; stroke: #4c4c4c; stroke-linecap: round"/>
   </g>
   <g id="patch_48">
    <path d="M 223.60523 164.266619 
Q 230.400267 125.195158 237.003739 87.225198 
" clip-path="url(#p26542ff581)" style="fill: none; stroke: #4c4c4c; stroke-linecap: round"/>
    <path d="M 236.207002 88.304647 
L 237.003739 87.225198 
L 237.389256 88.510257 
" clip-path="url(#p26542ff581)" style="fill: none; stroke: #4c4c4c; stroke-linecap: round"/>
   </g>
   <g id="patch_49">
    <path d="M 230.784028 172.8 
Q 234.731432 172.8 237.560802 172.8 
" clip-path="url(#p26542ff581)" style="fill: none; stroke: #4c4c4c; stroke-linecap: round"/>
    <path d="M 236.360802 172.2 
L 237.560802 172.8 
L 236.360802 173.4 
" clip-path="url(#p26542ff581)" style="fill: none; stroke: #4c4c4c; stroke-linecap: round"/>
   </g>
   <g id="patch_50">
    <path d="M 230.37524 175.436719 
Q 296.631603 196.601946 361.822951 217.42696 
" clip-path="url(#p26542ff581)" style="fill: none; stroke: #4c4c4c; stroke-linecap: round"/>
    <path d="M 360.862435 216.490258 
L 361.822951 217.42696 
L 360.497281 217.633352 
" clip-path="url(#p26542ff581)" style="fill: none; stroke: #4c4c4c; stroke-linecap: round"/>
   </g>
   <g id="patch_51">
    <path d="M 241.523675 259.827699 
Q 246.957669 244.204965 252.024367 229.638211 
" clip-path="url(#p26542ff581)" style="fill: none; stroke: #4c4c4c; stroke-linecap: round"/>
    <path d="M 251.063444 230.574494 
L 252.024367 229.638211 
L 252.19684 230.968719 
" clip-path="url(#p26542ff581)" style="fill: none; stroke: #4c4c4c; stroke-linecap: round"/>
   </g>
   <g id="patch_52">
    <path d="M 244.93344 262.012616 
Q 263.516912 244.203455 281.293176 227.167868 
" clip-path="url(#p26542ff581)" style="fill: none; stroke: #4c4c4c; stroke-linecap: round"/>
    <path d="M 280.011647 227.564962 
L 281.293176 227.167868 
L 280.841934 228.431348 
" clip-path="url(#p26542ff581)" style="fill: none; stroke: #4c4c4c; stroke-linecap: round"/>
   </g>
   <g id="patch_53">
    <path d="M 241.523675 164.621087 
Q 246.957669 148.998353 252.024367 134.431599 
" clip-path="url(#p26542ff581)" style="fill: none; stroke: #4c4c4c; stroke-linecap: round"/>
    <path d="M 251.063444 135.367883 
L 252.024367 134.431599 
L 252.19684 135.762108 
" clip-path="url(#p26542ff581)" style="fill: none; stroke: #4c4c4c; stroke-linecap: round"/>
   </g>
   <g id="patch_54">
    <path d="M 246.185068 81.909472 
Q 321.466087 125.196058 395.777876 167.925337 
" clip-path="url(#p26542ff581)" style="fill: none; stroke: #4c4c4c; stroke-linecap: round"/>
    <path d="M 395.036672 166.807028 
L 395.777876 167.925337 
L 394.438506 167.847315 
" clip-path="url(#p26542ff581)" style="fill: none; stroke: #4c4c4c; stroke-linecap: round"/>
   </g>
   <g id="patch_55">
    <path d="M 242.32306 85.451246 
Q 271.795118 149.000372 300.796792 211.535231 
" clip-path="url(#p26542ff581)" style="fill: none; stroke: #4c4c4c; stroke-linecap: round"/>
    <path d="M 300.836235 210.19417 
L 300.796792 211.535231 
L 299.747609 210.69904 
" clip-path="url(#p26542ff581)" style="fill: none; stroke: #4c4c4c; stroke-linecap: round"/>
   </g>
   <g id="patch_56">
    <path d="M 258.081347 212.224393 
Q 263.515341 196.601659 268.582038 182.034905 
" clip-path="url(#p26542ff581)" style="fill: none; stroke: #4c4c4c; stroke-linecap: round"/>
    <path d="M 267.621115 182.971189 
L 268.582038 182.034905 
L 268.754511 183.365413 
" clip-path="url(#p26542ff581)" style="fill: none; stroke: #4c4c4c; stroke-linecap: round"/>
   </g>
   <g id="patch_57">
    <path d="M 258.081347 133.375607 
Q 263.515341 148.998341 268.582038 163.565095 
" clip-path="url(#p26542ff581)" style="fill: none; stroke: #4c4c4c; stroke-linecap: round"/>
    <path d="M 268.754511 162.234587 
L 268.582038 163.565095 
L 267.621115 162.628811 
" clip-path="url(#p26542ff581)" style="fill: none; stroke: #4c4c4c; stroke-linecap: round"/>
   </g>
   <g id="patch_58">
    <path d="M 259.243031 132.875865 
Q 280.072933 172.799843 300.385669 211.732588 
" clip-path="url(#p26542ff581)" style="fill: none; stroke: #4c4c4c; stroke-linecap: round"/>
    <path d="M 300.362541 210.391147 
L 300.385669 211.732588 
L 299.298639 210.946226 
" clip-path="url(#p26542ff581)" style="fill: none; stroke: #4c4c4c; stroke-linecap: round"/>
   </g>
   <g id="patch_59">
    <path d="M 274.639018 180.978913 
Q 280.073013 196.601647 285.13971 211.168401 
" clip-path="url(#p26542ff581)" style="fill: none; stroke: #4c4c4c; stroke-linecap: round"/>
    <path d="M 285.312183 209.837892 
L 285.13971 211.168401 
L 284.178787 210.232117 
" clip-path="url(#p26542ff581)" style="fill: none; stroke: #4c4c4c; stroke-linecap: round"/>
   </g>
   <g id="patch_60">
    <path d="M 274.639018 164.621087 
Q 280.073013 148.998353 285.13971 134.431599 
" clip-path="url(#p26542ff581)" style="fill: none; stroke: #4c4c4c; stroke-linecap: round"/>
    <path d="M 284.178787 135.367883 
L 285.13971 134.431599 
L 285.312183 135.762108 
" clip-path="url(#p26542ff581)" style="fill: none; stroke: #4c4c4c; stroke-linecap: round"/>
   </g>
   <g id="patch_61">
    <path d="M 276.740056 179.909698 
Q 288.351536 196.601201 299.324547 212.374903 
" clip-path="url(#p26542ff581)" style="fill: none; stroke: #4c4c4c; stroke-linecap: round"/>
    <path d="M 299.131812 211.047179 
L 299.324547 212.374903 
L 298.146726 211.732456 
" clip-path="url(#p26542ff581)" style="fill: none; stroke: #4c4c4c; stroke-linecap: round"/>
   </g>
   <g id="patch_62">
    <path d="M 296.505372 217.473134 
Q 354.583102 196.60145 411.608678 176.107883 
" clip-path="url(#p26542ff581)" style="fill: none; stroke: #4c4c4c; stroke-linecap: round"/>
    <path d="M 410.276469 175.949077 
L 411.608678 176.107883 
L 410.682307 177.078367 
" clip-path="url(#p26542ff581)" style="fill: none; stroke: #4c4c4c; stroke-linecap: round"/>
   </g>
   <g id="patch_63">
    <path d="M 294.606454 214.40931 
Q 313.189926 196.60015 330.966191 179.564563 
" clip-path="url(#p26542ff581)" style="fill: none; stroke: #4c4c4c; stroke-linecap: round"/>
    <path d="M 329.684662 179.961656 
L 330.966191 179.564563 
L 330.514949 180.828042 
" clip-path="url(#p26542ff581)" style="fill: none; stroke: #4c4c4c; stroke-linecap: round"/>
   </g>
   <g id="patch_64">
    <path d="M 297.014714 220.403306 
Q 300.962118 220.403306 303.791488 220.403306 
" clip-path="url(#p26542ff581)" style="fill: none; stroke: #4c4c4c; stroke-linecap: round"/>
    <path d="M 302.591488 219.803306 
L 303.791488 220.403306 
L 302.591488 221.003306 
" clip-path="url(#p26542ff581)" style="fill: none; stroke: #4c4c4c; stroke-linecap: round"/>
   </g>
   <g id="patch_65">
    <path d="M 297.014714 125.196694 
Q 300.962118 125.196694 303.791488 125.196694 
" clip-path="url(#p26542ff581)" style="fill: none; stroke: #4c4c4c; stroke-linecap: round"/>
    <path d="M 302.591488 124.596694 
L 303.791488 125.196694 
L 302.591488 125.796694 
" clip-path="url(#p26542ff581)" style="fill: none; stroke: #4c4c4c; stroke-linecap: round"/>
   </g>
   <g id="patch_66">
    <path d="M 313.572386 220.403306 
Q 317.51979 220.403306 320.34916 220.403306 
" clip-path="url(#p26542ff581)" style="fill: none; stroke: #4c4c4c; stroke-linecap: round"/>
    <path d="M 319.14916 219.803306 
L 320.34916 220.403306 
L 319.14916 221.003306 
" clip-path="url(#p26542ff581)" style="fill: none; stroke: #4c4c4c; stroke-linecap: round"/>
   </g>
   <g id="patch_67">
    <path d="M 306.393588 211.869925 
Q 313.188625 172.798464 319.792096 134.828504 
" clip-path="url(#p26542ff581)" style="fill: none; stroke: #4c4c4c; stroke-linecap: round"/>
    <path d="M 318.99536 135.907953 
L 319.792096 134.828504 
L 320.177614 136.113562 
" clip-path="url(#p26542ff581)" style="fill: none; stroke: #4c4c4c; stroke-linecap: round"/>
   </g>
   <g id="patch_68">
    <path d="M 312.415754 129.512778 
Q 346.303968 148.998501 379.222951 167.926916 
" clip-path="url(#p26542ff581)" style="fill: none; stroke: #4c4c4c; stroke-linecap: round"/>
    <path d="M 378.481747 166.808607 
L 379.222951 167.926916 
L 377.883581 167.848895 
" clip-path="url(#p26542ff581)" style="fill: none; stroke: #4c4c4c; stroke-linecap: round"/>
   </g>
   <g id="patch_69">
    <path d="M 324.312033 228.582218 
Q 329.746027 244.204952 334.812724 258.771707 
" clip-path="url(#p26542ff581)" style="fill: none; stroke: #4c4c4c; stroke-linecap: round"/>
    <path d="M 334.985198 257.441198 
L 334.812724 258.771707 
L 333.851802 257.835423 
" clip-path="url(#p26542ff581)" style="fill: none; stroke: #4c4c4c; stroke-linecap: round"/>
   </g>
   <g id="patch_70">
    <path d="M 324.312033 133.375607 
Q 329.746027 148.998341 334.812724 163.565095 
" clip-path="url(#p26542ff581)" style="fill: none; stroke: #4c4c4c; stroke-linecap: round"/>
    <path d="M 334.985198 162.234587 
L 334.812724 163.565095 
L 333.851802 162.628811 
" clip-path="url(#p26542ff581)" style="fill: none; stroke: #4c4c4c; stroke-linecap: round"/>
   </g>
   <g id="patch_71">
    <path d="M 324.312033 117.017782 
Q 329.746027 101.395048 334.812724 86.828293 
" clip-path="url(#p26542ff581)" style="fill: none; stroke: #4c4c4c; stroke-linecap: round"/>
    <path d="M 333.851802 87.764577 
L 334.812724 86.828293 
L 334.985198 88.158802 
" clip-path="url(#p26542ff581)" style="fill: none; stroke: #4c4c4c; stroke-linecap: round"/>
   </g>
   <g id="patch_72">
    <path d="M 340.869704 180.978913 
Q 346.303699 196.601647 351.370396 211.168401 
" clip-path="url(#p26542ff581)" style="fill: none; stroke: #4c4c4c; stroke-linecap: round"/>
    <path d="M 351.542869 209.837892 
L 351.370396 211.168401 
L 350.409473 210.232117 
" clip-path="url(#p26542ff581)" style="fill: none; stroke: #4c4c4c; stroke-linecap: round"/>
   </g>
   <g id="patch_73">
    <path d="M 342.031389 260.327441 
Q 362.86129 220.403463 383.174027 181.470718 
" clip-path="url(#p26542ff581)" style="fill: none; stroke: #4c4c4c; stroke-linecap: round"/>
    <path d="M 382.086997 182.25708 
L 383.174027 181.470718 
L 383.150899 182.812159 
" clip-path="url(#p26542ff581)" style="fill: none; stroke: #4c4c4c; stroke-linecap: round"/>
   </g>
   <g id="patch_74">
    <path d="M 340.869704 85.772301 
Q 346.303699 101.395035 351.370396 115.961789 
" clip-path="url(#p26542ff581)" style="fill: none; stroke: #4c4c4c; stroke-linecap: round"/>
    <path d="M 351.542869 114.631281 
L 351.370396 115.961789 
L 350.409473 115.025506 
" clip-path="url(#p26542ff581)" style="fill: none; stroke: #4c4c4c; stroke-linecap: round"/>
   </g>
   <g id="patch_75">
    <path d="M 363.245401 220.403306 
Q 367.192805 220.403306 370.022174 220.403306 
" clip-path="url(#p26542ff581)" style="fill: none; stroke: #4c4c4c; stroke-linecap: round"/>
    <path d="M 368.822174 219.803306 
L 370.022174 220.403306 
L 368.822174 221.003306 
" clip-path="url(#p26542ff581)" style="fill: none; stroke: #4c4c4c; stroke-linecap: round"/>
   </g>
   <g id="patch_76">
    <path d="M 360.837141 214.40931 
Q 379.420613 196.60015 397.196877 179.564563 
" clip-path="url(#p26542ff581)" style="fill: none; stroke: #4c4c4c; stroke-linecap: round"/>
    <path d="M 395.915348 179.961656 
L 397.196877 179.564563 
L 396.745635 180.828042 
" clip-path="url(#p26542ff581)" style="fill: none; stroke: #4c4c4c; stroke-linecap: round"/>
   </g>
   <g id="patch_77">
    <path d="M 363.245401 125.196694 
Q 367.192805 125.196694 370.022174 125.196694 
" clip-path="url(#p26542ff581)" style="fill: none; stroke: #4c4c4c; stroke-linecap: round"/>
    <path d="M 368.822174 124.596694 
L 370.022174 125.196694 
L 368.822174 125.796694 
" clip-path="url(#p26542ff581)" style="fill: none; stroke: #4c4c4c; stroke-linecap: round"/>
   </g>
   <g id="patch_78">
    <path d="M 373.985048 133.375607 
Q 379.419042 148.998341 384.485739 163.565095 
" clip-path="url(#p26542ff581)" style="fill: none; stroke: #4c4c4c; stroke-linecap: round"/>
    <path d="M 384.658213 162.234587 
L 384.485739 163.565095 
L 383.524816 162.628811 
" clip-path="url(#p26542ff581)" style="fill: none; stroke: #4c4c4c; stroke-linecap: round"/>
   </g>
   <g id="patch_79">
    <path d="M 373.985048 212.224393 
Q 379.419042 196.601659 384.485739 182.034905 
" clip-path="url(#p26542ff581)" style="fill: none; stroke: #4c4c4c; stroke-linecap: round"/>
    <path d="M 383.524816 182.971189 
L 384.485739 182.034905 
L 384.658213 183.365413 
" clip-path="url(#p26542ff581)" style="fill: none; stroke: #4c4c4c; stroke-linecap: round"/>
   </g>
   <g id="patch_80">
    <path d="M 396.360744 172.8 
Q 400.308148 172.8 403.137518 172.8 
" clip-path="url(#p26542ff581)" style="fill: none; stroke: #4c4c4c; stroke-linecap: round"/>
    <path d="M 401.937518 172.2 
L 403.137518 172.8 
L 401.937518 173.4 
" clip-path="url(#p26542ff581)" style="fill: none; stroke: #4c4c4c; stroke-linecap: round"/>
   </g>
   <g id="patch_81">
    <path d="M 412.918415 172.8 
Q 416.865819 172.8 419.695189 172.8 
" clip-path="url(#p26542ff581)" style="fill: none; stroke: #4c4c4c; stroke-linecap: round"/>
    <path d="M 418.495189 172.2 
L 419.695189 172.8 
L 418.495189 173.4 
" clip-path="url(#p26542ff581)" style="fill: none; stroke: #4c4c4c; stroke-linecap: round"/>
   </g>
   <g id="PathCollection_1">
    <path d="M 39.986777 324.270171 
C 42.283503 324.270171 44.486471 323.357672 46.110501 321.733642 
C 47.734532 320.109611 48.647031 317.906644 48.647031 315.609917 
C 48.647031 313.313191 47.734532 311.110224 46.110501 309.486193 
C 44.486471 307.862162 42.283503 306.949663 39.986777 306.949663 
C 37.690051 306.949663 35.487083 307.862162 33.863053 309.486193 
C 32.239022 311.110224 31.326523 313.313191 31.326523 315.609917 
C 31.326523 317.906644 32.239022 320.109611 33.863053 321.733642 
C 35.487083 323.357672 37.690051 324.270171 39.986777 324.270171 
z
" clip-path="url(#p26542ff581)" style="fill: #ffff00; stroke: #000000"/>
    <path d="M 39.986777 229.06356 
C 42.283503 229.06356 44.486471 228.151061 46.110501 226.52703 
C 47.734532 224.902999 48.647031 222.700032 48.647031 220.403306 
C 48.647031 218.10658 47.734532 215.903612 46.110501 214.279581 
C 44.486471 212.655551 42.283503 211.743052 39.986777 211.743052 
C 37.690051 211.743052 35.487083 212.655551 33.863053 214.279581 
C 32.239022 215.903612 31.326523 218.10658 31.326523 220.403306 
C 31.326523 222.700032 32.239022 224.902999 33.863053 226.52703 
C 35.487083 228.151061 37.690051 229.06356 39.986777 229.06356 
z
" clip-path="url(#p26542ff581)" style="fill: #ffff00; stroke: #000000"/>
    <path d="M 39.986777 133.856948 
C 42.283503 133.856948 44.486471 132.944449 46.110501 131.320419 
C 47.734532 129.696388 48.647031 127.49342 48.647031 125.196694 
C 48.647031 122.899968 47.734532 120.697001 46.110501 119.07297 
C 44.486471 117.448939 42.283503 116.53644 39.986777 116.53644 
C 37.690051 116.53644 35.487083 117.448939 33.863053 119.07297 
C 32.239022 120.697001 31.326523 122.899968 31.326523 125.196694 
C 31.326523 127.49342 32.239022 129.696388 33.863053 131.320419 
C 35.487083 132.944449 37.690051 133.856948 39.986777 133.856948 
z
" clip-path="url(#p26542ff581)" style="fill: #ffff00; stroke: #000000"/>
    <path d="M 39.986777 38.650337 
C 42.283503 38.650337 44.486471 37.737838 46.110501 36.113807 
C 47.734532 34.489776 48.647031 32.286809 48.647031 29.990083 
C 48.647031 27.693356 47.734532 25.490389 46.110501 23.866358 
C 44.486471 22.242328 42.283503 21.329829 39.986777 21.329829 
C 37.690051 21.329829 35.487083 22.242328 33.863053 23.866358 
C 32.239022 25.490389 31.326523 27.693356 31.326523 29.990083 
C 31.326523 32.286809 32.239022 34.489776 33.863053 36.113807 
C 35.487083 37.737838 37.690051 38.650337 39.986777 38.650337 
z
" clip-path="url(#p26542ff581)" style="fill: #ffff00; stroke: #000000"/>
    <path d="M 56.544448 86.253642 
C 58.841175 86.253642 61.044142 85.341143 62.668173 83.717113 
C 64.292203 82.093082 65.204702 79.890115 65.204702 77.593388 
C 65.204702 75.296662 64.292203 73.093695 62.668173 71.469664 
C 61.044142 69.845633 58.841175 68.933134 56.544448 68.933134 
C 54.247722 68.933134 52.044755 69.845633 50.420724 71.469664 
C 48.796693 73.093695 47.884194 75.296662 47.884194 77.593388 
C 47.884194 79.890115 48.796693 82.093082 50.420724 83.717113 
C 52.044755 85.341143 54.247722 86.253642 56.544448 86.253642 
z
" clip-path="url(#p26542ff581)" style="fill: #ffffff; stroke: #000000"/>
    <path d="M 56.544448 276.666866 
C 58.841175 276.666866 61.044142 275.754367 62.668173 274.130336 
C 64.292203 272.506305 65.204702 270.303338 65.204702 268.006612 
C 65.204702 265.709885 64.292203 263.506918 62.668173 261.882887 
C 61.044142 260.258857 58.841175 259.346358 56.544448 259.346358 
C 54.247722 259.346358 52.044755 260.258857 50.420724 261.882887 
C 48.796693 263.506918 47.884194 265.709885 47.884194 268.006612 
C 47.884194 270.303338 48.796693 272.506305 50.420724 274.130336 
C 52.044755 275.754367 54.247722 276.666866 56.544448 276.666866 
z
" clip-path="url(#p26542ff581)" style="fill: #ffffff; stroke: #000000"/>
    <path d="M 56.544448 181.460254 
C 58.841175 181.460254 61.044142 180.547755 62.668173 178.923724 
C 64.292203 177.299694 65.204702 175.096726 65.204702 172.8 
C 65.204702 170.503274 64.292203 168.300306 62.668173 166.676276 
C 61.044142 165.052245 58.841175 164.139746 56.544448 164.139746 
C 54.247722 164.139746 52.044755 165.052245 50.420724 166.676276 
C 48.796693 168.300306 47.884194 170.503274 47.884194 172.8 
C 47.884194 175.096726 48.796693 177.299694 50.420724 178.923724 
C 52.044755 180.547755 54.247722 181.460254 56.544448 181.460254 
z
" clip-path="url(#p26542ff581)" style="fill: #ffffff; stroke: #000000"/>
    <path d="M 73.10212 133.856948 
C 75.398846 133.856948 77.601814 132.944449 79.225844 131.320419 
C 80.849875 129.696388 81.762374 127.49342 81.762374 125.196694 
C 81.762374 122.899968 80.849875 120.697001 79.225844 119.07297 
C 77.601814 117.448939 75.398846 116.53644 73.10212 116.53644 
C 70.805394 116.53644 68.602426 117.448939 66.978396 119.07297 
C 65.354365 120.697001 64.441866 122.899968 64.441866 125.196694 
C 64.441866 127.49342 65.354365 129.696388 66.978396 131.320419 
C 68.602426 132.944449 70.805394 133.856948 73.10212 133.856948 
z
" clip-path="url(#p26542ff581)" style="fill: #ffffff; stroke: #000000"/>
    <path d="M 73.10212 229.06356 
C 75.398846 229.06356 77.601814 228.151061 79.225844 226.52703 
C 80.849875 224.902999 81.762374 222.700032 81.762374 220.403306 
C 81.762374 218.10658 80.849875 215.903612 79.225844 214.279581 
C 77.601814 212.655551 75.398846 211.743052 73.10212 211.743052 
C 70.805394 211.743052 68.602426 212.655551 66.978396 214.279581 
C 65.354365 215.903612 64.441866 218.10658 64.441866 220.403306 
C 64.441866 222.700032 65.354365 224.902999 66.978396 226.52703 
C 68.602426 228.151061 70.805394 229.06356 73.10212 229.06356 
z
" clip-path="url(#p26542ff581)" style="fill: #ffffff; stroke: #000000"/>
    <path d="M 89.659792 181.460254 
C 91.956518 181.460254 94.159485 180.547755 95.783516 178.923724 
C 97.407547 177.299694 98.320046 175.096726 98.320046 172.8 
C 98.320046 170.503274 97.407547 168.300306 95.783516 166.676276 
C 94.159485 165.052245 91.956518 164.139746 89.659792 164.139746 
C 87.363065 164.139746 85.160098 165.052245 83.536067 166.676276 
C 81.912037 168.300306 80.999538 170.503274 80.999538 172.8 
C 80.999538 175.096726 81.912037 177.299694 83.536067 178.923724 
C 85.160098 180.547755 87.363065 181.460254 89.659792 181.460254 
z
" clip-path="url(#p26542ff581)" style="fill: #ffffff; stroke: #000000"/>
    <path d="M 106.217463 181.460254 
C 108.514189 181.460254 110.717157 180.547755 112.341188 178.923724 
C 113.965218 177.299694 114.877717 175.096726 114.877717 172.8 
C 114.877717 170.503274 113.965218 168.300306 112.341188 166.676276 
C 110.717157 165.052245 108.514189 164.139746 106.217463 164.139746 
C 103.920737 164.139746 101.717769 165.052245 100.093739 166.676276 
C 98.469708 168.300306 97.557209 170.503274 97.557209 172.8 
C 97.557209 175.096726 98.469708 177.299694 100.093739 178.923724 
C 101.717769 180.547755 103.920737 181.460254 106.217463 181.460254 
z
" clip-path="url(#p26542ff581)" style="fill: #ffffff; stroke: #000000"/>
    <path d="M 122.775135 181.460254 
C 125.071861 181.460254 127.274828 180.547755 128.898859 178.923724 
C 130.52289 177.299694 131.435389 175.096726 131.435389 172.8 
C 131.435389 170.503274 130.52289 168.300306 128.898859 166.676276 
C 127.274828 165.052245 125.071861 164.139746 122.775135 164.139746 
C 120.478409 164.139746 118.275441 165.052245 116.65141 166.676276 
C 115.02738 168.300306 114.114881 170.503274 114.114881 172.8 
C 114.114881 175.096726 115.02738 177.299694 116.65141 178.923724 
C 118.275441 180.547755 120.478409 181.460254 122.775135 181.460254 
z
" clip-path="url(#p26542ff581)" style="fill: #ffffff; stroke: #000000"/>
    <path d="M 139.332806 181.460254 
C 141.629533 181.460254 143.8325 180.547755 145.456531 178.923724 
C 147.080561 177.299694 147.99306 175.096726 147.99306 172.8 
C 147.99306 170.503274 147.080561 168.300306 145.456531 166.676276 
C 143.8325 165.052245 141.629533 164.139746 139.332806 164.139746 
C 137.03608 164.139746 134.833113 165.052245 133.209082 166.676276 
C 131.585051 168.300306 130.672552 170.503274 130.672552 172.8 
C 130.672552 175.096726 131.585051 177.299694 133.209082 178.923724 
C 134.833113 180.547755 137.03608 181.460254 139.332806 181.460254 
z
" clip-path="url(#p26542ff581)" style="fill: #ffffff; stroke: #000000"/>
    <path d="M 155.890478 229.06356 
C 158.187204 229.06356 160.390172 228.151061 162.014202 226.52703 
C 163.638233 224.902999 164.550732 222.700032 164.550732 220.403306 
C 164.550732 218.10658 163.638233 215.903612 162.014202 214.279581 
C 160.390172 212.655551 158.187204 211.743052 155.890478 211.743052 
C 153.593752 211.743052 151.390784 212.655551 149.766754 214.279581 
C 148.142723 215.903612 147.230224 218.10658 147.230224 220.403306 
C 147.230224 222.700032 148.142723 224.902999 149.766754 226.52703 
C 151.390784 228.151061 153.593752 229.06356 155.890478 229.06356 
z
" clip-path="url(#p26542ff581)" style="fill: #ffffff; stroke: #000000"/>
    <path d="M 155.890478 133.856948 
C 158.187204 133.856948 160.390172 132.944449 162.014202 131.320419 
C 163.638233 129.696388 164.550732 127.49342 164.550732 125.196694 
C 164.550732 122.899968 163.638233 120.697001 162.014202 119.07297 
C 160.390172 117.448939 158.187204 116.53644 155.890478 116.53644 
C 153.593752 116.53644 151.390784 117.448939 149.766754 119.07297 
C 148.142723 120.697001 147.230224 122.899968 147.230224 125.196694 
C 147.230224 127.49342 148.142723 129.696388 149.766754 131.320419 
C 151.390784 132.944449 153.593752 133.856948 155.890478 133.856948 
z
" clip-path="url(#p26542ff581)" style="fill: #ffffff; stroke: #000000"/>
    <path d="M 172.448149 229.06356 
C 174.744876 229.06356 176.947843 228.151061 178.571874 226.52703 
C 180.195905 224.902999 181.108404 222.700032 181.108404 220.403306 
C 181.108404 218.10658 180.195905 215.903612 178.571874 214.279581 
C 176.947843 212.655551 174.744876 211.743052 172.448149 211.743052 
C 170.151423 211.743052 167.948456 212.655551 166.324425 214.279581 
C 164.700394 215.903612 163.787895 218.10658 163.787895 220.403306 
C 163.787895 222.700032 164.700394 224.902999 166.324425 226.52703 
C 167.948456 228.151061 170.151423 229.06356 172.448149 229.06356 
z
" clip-path="url(#p26542ff581)" style="fill: #ffffff; stroke: #000000"/>
    <path d="M 172.448149 133.856948 
C 174.744876 133.856948 176.947843 132.944449 178.571874 131.320419 
C 180.195905 129.696388 181.108404 127.49342 181.108404 125.196694 
C 181.108404 122.899968 180.195905 120.697001 178.571874 119.07297 
C 176.947843 117.448939 174.744876 116.53644 172.448149 116.53644 
C 170.151423 116.53644 167.948456 117.448939 166.324425 119.07297 
C 164.700394 120.697001 163.787895 122.899968 163.787895 125.196694 
C 163.787895 127.49342 164.700394 129.696388 166.324425 131.320419 
C 167.948456 132.944449 170.151423 133.856948 172.448149 133.856948 
z
" clip-path="url(#p26542ff581)" style="fill: #ffffff; stroke: #000000"/>
    <path d="M 189.005821 181.460254 
C 191.302547 181.460254 193.505515 180.547755 195.129545 178.923724 
C 196.753576 177.299694 197.666075 175.096726 197.666075 172.8 
C 197.666075 170.503274 196.753576 168.300306 195.129545 166.676276 
C 193.505515 165.052245 191.302547 164.139746 189.005821 164.139746 
C 186.709095 164.139746 184.506127 165.052245 182.882097 166.676276 
C 181.258066 168.300306 180.345567 170.503274 180.345567 172.8 
C 180.345567 175.096726 181.258066 177.299694 182.882097 178.923724 
C 184.506127 180.547755 186.709095 181.460254 189.005821 181.460254 
z
" clip-path="url(#p26542ff581)" style="fill: #ffffff; stroke: #000000"/>
    <path d="M 205.563493 181.460254 
C 207.860219 181.460254 210.063186 180.547755 211.687217 178.923724 
C 213.311248 177.299694 214.223747 175.096726 214.223747 172.8 
C 214.223747 170.503274 213.311248 168.300306 211.687217 166.676276 
C 210.063186 165.052245 207.860219 164.139746 205.563493 164.139746 
C 203.266766 164.139746 201.063799 165.052245 199.439768 166.676276 
C 197.815738 168.300306 196.903239 170.503274 196.903239 172.8 
C 196.903239 175.096726 197.815738 177.299694 199.439768 178.923724 
C 201.063799 180.547755 203.266766 181.460254 205.563493 181.460254 
z
" clip-path="url(#p26542ff581)" style="fill: #ffffff; stroke: #000000"/>
    <path d="M 222.121164 181.460254 
C 224.41789 181.460254 226.620858 180.547755 228.244889 178.923724 
C 229.868919 177.299694 230.781418 175.096726 230.781418 172.8 
C 230.781418 170.503274 229.868919 168.300306 228.244889 166.676276 
C 226.620858 165.052245 224.41789 164.139746 222.121164 164.139746 
C 219.824438 164.139746 217.621471 165.052245 215.99744 166.676276 
C 214.373409 168.300306 213.46091 170.503274 213.46091 172.8 
C 213.46091 175.096726 214.373409 177.299694 215.99744 178.923724 
C 217.621471 180.547755 219.824438 181.460254 222.121164 181.460254 
z
" clip-path="url(#p26542ff581)" style="fill: #ffffff; stroke: #000000"/>
    <path d="M 238.678836 276.666866 
C 240.975562 276.666866 243.178529 275.754367 244.80256 274.130336 
C 246.426591 272.506305 247.33909 270.303338 247.33909 268.006612 
C 247.33909 265.709885 246.426591 263.506918 244.80256 261.882887 
C 243.178529 260.258857 240.975562 259.346358 238.678836 259.346358 
C 236.38211 259.346358 234.179142 260.258857 232.555111 261.882887 
C 230.931081 263.506918 230.018582 265.709885 230.018582 268.006612 
C 230.018582 270.303338 230.931081 272.506305 232.555111 274.130336 
C 234.179142 275.754367 236.38211 276.666866 238.678836 276.666866 
z
" clip-path="url(#p26542ff581)" style="fill: #ffffff; stroke: #000000"/>
    <path d="M 238.678836 181.460254 
C 240.975562 181.460254 243.178529 180.547755 244.80256 178.923724 
C 246.426591 177.299694 247.33909 175.096726 247.33909 172.8 
C 247.33909 170.503274 246.426591 168.300306 244.80256 166.676276 
C 243.178529 165.052245 240.975562 164.139746 238.678836 164.139746 
C 236.38211 164.139746 234.179142 165.052245 232.555111 166.676276 
C 230.931081 168.300306 230.018582 170.503274 230.018582 172.8 
C 230.018582 175.096726 230.931081 177.299694 232.555111 178.923724 
C 234.179142 180.547755 236.38211 181.460254 238.678836 181.460254 
z
" clip-path="url(#p26542ff581)" style="fill: #ffffff; stroke: #000000"/>
    <path d="M 238.678836 86.253642 
C 240.975562 86.253642 243.178529 85.341143 244.80256 83.717113 
C 246.426591 82.093082 247.33909 79.890115 247.33909 77.593388 
C 247.33909 75.296662 246.426591 73.093695 244.80256 71.469664 
C 243.178529 69.845633 240.975562 68.933134 238.678836 68.933134 
C 236.38211 68.933134 234.179142 69.845633 232.555111 71.469664 
C 230.931081 73.093695 230.018582 75.296662 230.018582 77.593388 
C 230.018582 79.890115 230.931081 82.093082 232.555111 83.717113 
C 234.179142 85.341143 236.38211 86.253642 238.678836 86.253642 
z
" clip-path="url(#p26542ff581)" style="fill: #ffffff; stroke: #000000"/>
    <path d="M 255.236507 229.06356 
C 257.533234 229.06356 259.736201 228.151061 261.360232 226.52703 
C 262.984262 224.902999 263.896761 222.700032 263.896761 220.403306 
C 263.896761 218.10658 262.984262 215.903612 261.360232 214.279581 
C 259.736201 212.655551 257.533234 211.743052 255.236507 211.743052 
C 252.939781 211.743052 250.736814 212.655551 249.112783 214.279581 
C 247.488752 215.903612 246.576253 218.10658 246.576253 220.403306 
C 246.576253 222.700032 247.488752 224.902999 249.112783 226.52703 
C 250.736814 228.151061 252.939781 229.06356 255.236507 229.06356 
z
" clip-path="url(#p26542ff581)" style="fill: #ffffff; stroke: #000000"/>
    <path d="M 255.236507 133.856948 
C 257.533234 133.856948 259.736201 132.944449 261.360232 131.320419 
C 262.984262 129.696388 263.896761 127.49342 263.896761 125.196694 
C 263.896761 122.899968 262.984262 120.697001 261.360232 119.07297 
C 259.736201 117.448939 257.533234 116.53644 255.236507 116.53644 
C 252.939781 116.53644 250.736814 117.448939 249.112783 119.07297 
C 247.488752 120.697001 246.576253 122.899968 246.576253 125.196694 
C 246.576253 127.49342 247.488752 129.696388 249.112783 131.320419 
C 250.736814 132.944449 252.939781 133.856948 255.236507 133.856948 
z
" clip-path="url(#p26542ff581)" style="fill: #ffffff; stroke: #000000"/>
    <path d="M 271.794179 181.460254 
C 274.090905 181.460254 276.293873 180.547755 277.917903 178.923724 
C 279.541934 177.299694 280.454433 175.096726 280.454433 172.8 
C 280.454433 170.503274 279.541934 168.300306 277.917903 166.676276 
C 276.293873 165.052245 274.090905 164.139746 271.794179 164.139746 
C 269.497453 164.139746 267.294485 165.052245 265.670455 166.676276 
C 264.046424 168.300306 263.133925 170.503274 263.133925 172.8 
C 263.133925 175.096726 264.046424 177.299694 265.670455 178.923724 
C 267.294485 180.547755 269.497453 181.460254 271.794179 181.460254 
z
" clip-path="url(#p26542ff581)" style="fill: #ffffff; stroke: #000000"/>
    <path d="M 288.351851 229.06356 
C 290.648577 229.06356 292.851544 228.151061 294.475575 226.52703 
C 296.099606 224.902999 297.012105 222.700032 297.012105 220.403306 
C 297.012105 218.10658 296.099606 215.903612 294.475575 214.279581 
C 292.851544 212.655551 290.648577 211.743052 288.351851 211.743052 
C 286.055124 211.743052 283.852157 212.655551 282.228126 214.279581 
C 280.604095 215.903612 279.691596 218.10658 279.691596 220.403306 
C 279.691596 222.700032 280.604095 224.902999 282.228126 226.52703 
C 283.852157 228.151061 286.055124 229.06356 288.351851 229.06356 
z
" clip-path="url(#p26542ff581)" style="fill: #ffffff; stroke: #000000"/>
    <path d="M 288.351851 133.856948 
C 290.648577 133.856948 292.851544 132.944449 294.475575 131.320419 
C 296.099606 129.696388 297.012105 127.49342 297.012105 125.196694 
C 297.012105 122.899968 296.099606 120.697001 294.475575 119.07297 
C 292.851544 117.448939 290.648577 116.53644 288.351851 116.53644 
C 286.055124 116.53644 283.852157 117.448939 282.228126 119.07297 
C 280.604095 120.697001 279.691596 122.899968 279.691596 125.196694 
C 279.691596 127.49342 280.604095 129.696388 282.228126 131.320419 
C 283.852157 132.944449 286.055124 133.856948 288.351851 133.856948 
z
" clip-path="url(#p26542ff581)" style="fill: #ffffff; stroke: #000000"/>
    <path d="M 304.909522 229.06356 
C 307.206248 229.06356 309.409216 228.151061 311.033246 226.52703 
C 312.657277 224.902999 313.569776 222.700032 313.569776 220.403306 
C 313.569776 218.10658 312.657277 215.903612 311.033246 214.279581 
C 309.409216 212.655551 307.206248 211.743052 304.909522 211.743052 
C 302.612796 211.743052 300.409828 212.655551 298.785798 214.279581 
C 297.161767 215.903612 296.249268 218.10658 296.249268 220.403306 
C 296.249268 222.700032 297.161767 224.902999 298.785798 226.52703 
C 300.409828 228.151061 302.612796 229.06356 304.909522 229.06356 
z
" clip-path="url(#p26542ff581)" style="fill: #ffffff; stroke: #000000"/>
    <path d="M 304.909522 133.856948 
C 307.206248 133.856948 309.409216 132.944449 311.033246 131.320419 
C 312.657277 129.696388 313.569776 127.49342 313.569776 125.196694 
C 313.569776 122.899968 312.657277 120.697001 311.033246 119.07297 
C 309.409216 117.448939 307.206248 116.53644 304.909522 116.53644 
C 302.612796 116.53644 300.409828 117.448939 298.785798 119.07297 
C 297.161767 120.697001 296.249268 122.899968 296.249268 125.196694 
C 296.249268 127.49342 297.161767 129.696388 298.785798 131.320419 
C 300.409828 132.944449 302.612796 133.856948 304.909522 133.856948 
z
" clip-path="url(#p26542ff581)" style="fill: #ffffff; stroke: #000000"/>
    <path d="M 321.467194 229.06356 
C 323.76392 229.06356 325.966887 228.151061 327.590918 226.52703 
C 329.214949 224.902999 330.127448 222.700032 330.127448 220.403306 
C 330.127448 218.10658 329.214949 215.903612 327.590918 214.279581 
C 325.966887 212.655551 323.76392 211.743052 321.467194 211.743052 
C 319.170467 211.743052 316.9675 212.655551 315.343469 214.279581 
C 313.719439 215.903612 312.80694 218.10658 312.80694 220.403306 
C 312.80694 222.700032 313.719439 224.902999 315.343469 226.52703 
C 316.9675 228.151061 319.170467 229.06356 321.467194 229.06356 
z
" clip-path="url(#p26542ff581)" style="fill: #ffffff; stroke: #000000"/>
    <path d="M 321.467194 133.856948 
C 323.76392 133.856948 325.966887 132.944449 327.590918 131.320419 
C 329.214949 129.696388 330.127448 127.49342 330.127448 125.196694 
C 330.127448 122.899968 329.214949 120.697001 327.590918 119.07297 
C 325.966887 117.448939 323.76392 116.53644 321.467194 116.53644 
C 319.170467 116.53644 316.9675 117.448939 315.343469 119.07297 
C 313.719439 120.697001 312.80694 122.899968 312.80694 125.196694 
C 312.80694 127.49342 313.719439 129.696388 315.343469 131.320419 
C 316.9675 132.944449 319.170467 133.856948 321.467194 133.856948 
z
" clip-path="url(#p26542ff581)" style="fill: #ffffff; stroke: #000000"/>
    <path d="M 338.024865 181.460254 
C 340.321591 181.460254 342.524559 180.547755 344.14859 178.923724 
C 345.77262 177.299694 346.685119 175.096726 346.685119 172.8 
C 346.685119 170.503274 345.77262 168.300306 344.14859 166.676276 
C 342.524559 165.052245 340.321591 164.139746 338.024865 164.139746 
C 335.728139 164.139746 333.525172 165.052245 331.901141 166.676276 
C 330.27711 168.300306 329.364611 170.503274 329.364611 172.8 
C 329.364611 175.096726 330.27711 177.299694 331.901141 178.923724 
C 333.525172 180.547755 335.728139 181.460254 338.024865 181.460254 
z
" clip-path="url(#p26542ff581)" style="fill: #ffffff; stroke: #000000"/>
    <path d="M 338.024865 276.666866 
C 340.321591 276.666866 342.524559 275.754367 344.14859 274.130336 
C 345.77262 272.506305 346.685119 270.303338 346.685119 268.006612 
C 346.685119 265.709885 345.77262 263.506918 344.14859 261.882887 
C 342.524559 260.258857 340.321591 259.346358 338.024865 259.346358 
C 335.728139 259.346358 333.525172 260.258857 331.901141 261.882887 
C 330.27711 263.506918 329.364611 265.709885 329.364611 268.006612 
C 329.364611 270.303338 330.27711 272.506305 331.901141 274.130336 
C 333.525172 275.754367 335.728139 276.666866 338.024865 276.666866 
z
" clip-path="url(#p26542ff581)" style="fill: #ffffff; stroke: #000000"/>
    <path d="M 338.024865 86.253642 
C 340.321591 86.253642 342.524559 85.341143 344.14859 83.717113 
C 345.77262 82.093082 346.685119 79.890115 346.685119 77.593388 
C 346.685119 75.296662 345.77262 73.093695 344.14859 71.469664 
C 342.524559 69.845633 340.321591 68.933134 338.024865 68.933134 
C 335.728139 68.933134 333.525172 69.845633 331.901141 71.469664 
C 330.27711 73.093695 329.364611 75.296662 329.364611 77.593388 
C 329.364611 79.890115 330.27711 82.093082 331.901141 83.717113 
C 333.525172 85.341143 335.728139 86.253642 338.024865 86.253642 
z
" clip-path="url(#p26542ff581)" style="fill: #ffffff; stroke: #000000"/>
    <path d="M 354.582537 229.06356 
C 356.879263 229.06356 359.082231 228.151061 360.706261 226.52703 
C 362.330292 224.902999 363.242791 222.700032 363.242791 220.403306 
C 363.242791 218.10658 362.330292 215.903612 360.706261 214.279581 
C 359.082231 212.655551 356.879263 211.743052 354.582537 211.743052 
C 352.285811 211.743052 350.082843 212.655551 348.458812 214.279581 
C 346.834782 215.903612 345.922283 218.10658 345.922283 220.403306 
C 345.922283 222.700032 346.834782 224.902999 348.458812 226.52703 
C 350.082843 228.151061 352.285811 229.06356 354.582537 229.06356 
z
" clip-path="url(#p26542ff581)" style="fill: #ffffff; stroke: #000000"/>
    <path d="M 354.582537 133.856948 
C 356.879263 133.856948 359.082231 132.944449 360.706261 131.320419 
C 362.330292 129.696388 363.242791 127.49342 363.242791 125.196694 
C 363.242791 122.899968 362.330292 120.697001 360.706261 119.07297 
C 359.082231 117.448939 356.879263 116.53644 354.582537 116.53644 
C 352.285811 116.53644 350.082843 117.448939 348.458812 119.07297 
C 346.834782 120.697001 345.922283 122.899968 345.922283 125.196694 
C 345.922283 127.49342 346.834782 129.696388 348.458812 131.320419 
C 350.082843 132.944449 352.285811 133.856948 354.582537 133.856948 
z
" clip-path="url(#p26542ff581)" style="fill: #ffffff; stroke: #000000"/>
    <path d="M 371.140208 133.856948 
C 373.436935 133.856948 375.639902 132.944449 377.263933 131.320419 
C 378.887963 129.696388 379.800462 127.49342 379.800462 125.196694 
C 379.800462 122.899968 378.887963 120.697001 377.263933 119.07297 
C 375.639902 117.448939 373.436935 116.53644 371.140208 116.53644 
C 368.843482 116.53644 366.640515 117.448939 365.016484 119.07297 
C 363.392453 120.697001 362.479954 122.899968 362.479954 125.196694 
C 362.479954 127.49342 363.392453 129.696388 365.016484 131.320419 
C 366.640515 132.944449 368.843482 133.856948 371.140208 133.856948 
z
" clip-path="url(#p26542ff581)" style="fill: #ffffff; stroke: #000000"/>
    <path d="M 371.140208 229.06356 
C 373.436935 229.06356 375.639902 228.151061 377.263933 226.52703 
C 378.887963 224.902999 379.800462 222.700032 379.800462 220.403306 
C 379.800462 218.10658 378.887963 215.903612 377.263933 214.279581 
C 375.639902 212.655551 373.436935 211.743052 371.140208 211.743052 
C 368.843482 211.743052 366.640515 212.655551 365.016484 214.279581 
C 363.392453 215.903612 362.479954 218.10658 362.479954 220.403306 
C 362.479954 222.700032 363.392453 224.902999 365.016484 226.52703 
C 366.640515 228.151061 368.843482 229.06356 371.140208 229.06356 
z
" clip-path="url(#p26542ff581)" style="fill: #ffffff; stroke: #000000"/>
    <path d="M 387.69788 181.460254 
C 389.994606 181.460254 392.197574 180.547755 393.821604 178.923724 
C 395.445635 177.299694 396.358134 175.096726 396.358134 172.8 
C 396.358134 170.503274 395.445635 168.300306 393.821604 166.676276 
C 392.197574 165.052245 389.994606 164.139746 387.69788 164.139746 
C 385.401154 164.139746 383.198186 165.052245 381.574156 166.676276 
C 379.950125 168.300306 379.037626 170.503274 379.037626 172.8 
C 379.037626 175.096726 379.950125 177.299694 381.574156 178.923724 
C 383.198186 180.547755 385.401154 181.460254 387.69788 181.460254 
z
" clip-path="url(#p26542ff581)" style="fill: #ffffff; stroke: #000000"/>
    <path d="M 404.255552 181.460254 
C 406.552278 181.460254 408.755245 180.547755 410.379276 178.923724 
C 412.003307 177.299694 412.915806 175.096726 412.915806 172.8 
C 412.915806 170.503274 412.003307 168.300306 410.379276 166.676276 
C 408.755245 165.052245 406.552278 164.139746 404.255552 164.139746 
C 401.958825 164.139746 399.755858 165.052245 398.131827 166.676276 
C 396.507797 168.300306 395.595298 170.503274 395.595298 172.8 
C 395.595298 175.096726 396.507797 177.299694 398.131827 178.923724 
C 399.755858 180.547755 401.958825 181.460254 404.255552 181.460254 
z
" clip-path="url(#p26542ff581)" style="fill: #ffffff; stroke: #000000"/>
    <path d="M 420.813223 181.460254 
C 423.109949 181.460254 425.312917 180.547755 426.936947 178.923724 
C 428.560978 177.299694 429.473477 175.096726 429.473477 172.8 
C 429.473477 170.503274 428.560978 168.300306 426.936947 166.676276 
C 425.312917 165.052245 423.109949 164.139746 420.813223 164.139746 
C 418.516497 164.139746 416.313529 165.052245 414.689499 166.676276 
C 413.065468 168.300306 412.152969 170.503274 412.152969 172.8 
C 412.152969 175.096726 413.065468 177.299694 414.689499 178.923724 
C 416.313529 180.547755 418.516497 181.460254 420.813223 181.460254 
z
" clip-path="url(#p26542ff581)" style="fill: #0000ff; stroke: #000000"/>
   </g>
  </g>
 </g>
 <defs>
  <clipPath id="p26542ff581">
   <rect x="0" y="0" width="460.8" height="345.6"/>
  </clipPath>
 </defs>
</svg>
