<?xml version="1.0" encoding="utf-8" standalone="no"?>
<!DOCTYPE svg PUBLIC "-//W3C//DTD SVG 1.1//EN"
  "http://www.w3.org/Graphics/SVG/1.1/DTD/svg11.dtd">
<svg xmlns:xlink="http://www.w3.org/1999/xlink" width="460.8pt" height="345.6pt" viewBox="0 0 460.8 345.6" xmlns="http://www.w3.org/2000/svg" version="1.1">
 <metadata>
  <rdf:RDF xmlns:dc="http://purl.org/dc/elements/1.1/" xmlns:cc="http://creativecommons.org/ns#" xmlns:rdf="http://www.w3.org/1999/02/22-rdf-syntax-ns#">
   <cc:Work>
    <dc:type rdf:resource="http://purl.org/dc/dcmitype/StillImage"/>
    <dc:date>2025-11-06T05:39:26.499741</dc:date>
    <dc:format>image/svg+xml</dc:format>
    <dc:creator>
     <cc:Agent>
      <dc:title>Matplotlib v3.10.5, https://matplotlib.org/</dc:title>
     </cc:Agent>
    </dc:creator>
   </cc:Work>
  </rdf:RDF>
 </metadata>
 <defs>
  <style type="text/css">*{stroke-linejoin: round; stroke-linecap: butt}</style>
 </defs>
 <g id="figure_1">
  <g id="patch_1">
   <path d="M 0 345.6 
L 460.8 345.6 
L 460.8 0 
L 0 0 
z
" style="fill: #ffffff"/>
  </g>
  <g id="axes_1">
   <g id="patch_2">
    <path d="M 48.482998 313.928374 
Q 160.249122 291.807995 270.918487 269.904683 
" clip-path="url(#pf438884c93)" style="fill: none; stroke: #4c4c4c; stroke-linecap: round"/>
    <path d="M 269.624831 269.549081 
L 270.918487 269.904683 
L 269.857811 270.726247 
" clip-path="url(#pf438884c93)" style="fill: none; stroke: #4c4c4c; stroke-linecap: round"/>
   </g>
   <g id="patch_3">
    <path d="M 46.780084 310.231883 
Q 100.118687 268.005489 152.5807 226.473061 
" clip-path="url(#pf438884c93)" style="fill: none; stroke: #4c4c4c; stroke-linecap: round"/>
    <path d="M 151.267424 226.747477 
L 152.5807 226.473061 
L 152.012267 227.688332 
" clip-path="url(#pf438884c93)" style="fill: none; stroke: #4c4c4c; stroke-linecap: round"/>
   </g>
   <g id="patch_4">
    <path d="M 41.771044 307.134646 
Q 50.008817 268.005228 58.016262 229.969862 
" clip-path="url(#pf438884c93)" style="fill: none; stroke: #4c4c4c; stroke-linecap: round"/>
    <path d="M 57.18192 231.020515 
L 58.016262 229.969862 
L 58.356179 231.267728 
" clip-path="url(#pf438884c93)" style="fill: none; stroke: #4c4c4c; stroke-linecap: round"/>
   </g>
   <g id="patch_5">
    <path d="M 47.647139 311.566949 
Q 220.378753 220.403041 392.121595 129.760986 
" clip-path="url(#pf438884c93)" style="fill: none; stroke: #4c4c4c; stroke-linecap: round"/>
    <path d="M 390.780278 129.790465 
L 392.121595 129.760986 
L 391.340388 130.851727 
" clip-path="url(#pf438884c93)" style="fill: none; stroke: #4c4c4c; stroke-linecap: round"/>
   </g>
   <g id="patch_6">
    <path d="M 48.650292 315.609917 
Q 170.271317 315.609917 290.774308 315.609917 
" clip-path="url(#pf438884c93)" style="fill: none; stroke: #4c4c4c; stroke-linecap: round"/>
    <path d="M 289.574308 315.009917 
L 290.774308 315.609917 
L 289.574308 316.209917 
" clip-path="url(#pf438884c93)" style="fill: none; stroke: #4c4c4c; stroke-linecap: round"/>
   </g>
   <g id="patch_7">
    <path d="M 46.453447 309.850539 
Q 120.159672 244.205932 193.030989 179.304916 
" clip-path="url(#pf438884c93)" style="fill: none; stroke: #4c4c4c; stroke-linecap: round"/>
    <path d="M 191.735818 179.654963 
L 193.030989 179.304916 
L 192.533923 180.551081 
" clip-path="url(#pf438884c93)" style="fill: none; stroke: #4c4c4c; stroke-linecap: round"/>
   </g>
   <g id="patch_8">
    <path d="M 48.11752 223.374154 
Q 170.269254 268.006519 291.370859 312.255182 
" clip-path="url(#pf438884c93)" style="fill: none; stroke: #4c4c4c; stroke-linecap: round"/>
    <path d="M 290.449656 311.279791 
L 291.370859 312.255182 
L 290.037825 312.406909 
" clip-path="url(#pf438884c93)" style="fill: none; stroke: #4c4c4c; stroke-linecap: round"/>
   </g>
   <g id="patch_9">
    <path d="M 41.771044 211.928035 
Q 50.008817 172.798617 58.016262 134.76325 
" clip-path="url(#pf438884c93)" style="fill: none; stroke: #4c4c4c; stroke-linecap: round"/>
    <path d="M 57.18192 135.813904 
L 58.016262 134.76325 
L 58.356179 136.061116 
" clip-path="url(#pf438884c93)" style="fill: none; stroke: #4c4c4c; stroke-linecap: round"/>
   </g>
   <g id="patch_10">
    <path d="M 46.265662 226.368246 
Q 90.094406 268.005554 133.112577 308.872816 
" clip-path="url(#pf438884c93)" style="fill: none; stroke: #4c4c4c; stroke-linecap: round"/>
    <path d="M 132.655827 307.611317 
L 133.112577 308.872816 
L 131.829328 308.481316 
" clip-path="url(#pf438884c93)" style="fill: none; stroke: #4c4c4c; stroke-linecap: round"/>
   </g>
   <g id="patch_11">
    <path d="M 48.362803 218.192966 
Q 130.182743 196.601593 210.921655 175.295491 
" clip-path="url(#pf438884c93)" style="fill: none; stroke: #4c4c4c; stroke-linecap: round"/>
    <path d="M 209.608282 175.021536 
L 210.921655 175.295491 
L 209.914467 176.181816 
" clip-path="url(#pf438884c93)" style="fill: none; stroke: #4c4c4c; stroke-linecap: round"/>
   </g>
   <g id="patch_12">
    <path d="M 46.980409 130.307425 
Q 170.270503 220.404033 292.657907 309.840981 
" clip-path="url(#pf438884c93)" style="fill: none; stroke: #4c4c4c; stroke-linecap: round"/>
    <path d="M 292.043047 308.648527 
L 292.657907 309.840981 
L 291.335027 309.617396 
" clip-path="url(#pf438884c93)" style="fill: none; stroke: #4c4c4c; stroke-linecap: round"/>
   </g>
   <g id="patch_13">
    <path d="M 48.386506 127.296626 
Q 230.398869 172.799717 411.32658 218.031645 
" clip-path="url(#pf438884c93)" style="fill: none; stroke: #4c4c4c; stroke-linecap: round"/>
    <path d="M 410.30793 217.158517 
L 411.32658 218.031645 
L 410.016887 218.322688 
" clip-path="url(#pf438884c93)" style="fill: none; stroke: #4c4c4c; stroke-linecap: round"/>
   </g>
   <g id="patch_14">
    <path d="M 48.644481 125.196694 
Q 70.050111 125.196694 90.337706 125.196694 
" clip-path="url(#pf438884c93)" style="fill: none; stroke: #4c4c4c; stroke-linecap: round"/>
    <path d="M 89.137706 124.596694 
L 90.337706 125.196694 
L 89.137706 125.796694 
" clip-path="url(#pf438884c93)" style="fill: none; stroke: #4c4c4c; stroke-linecap: round"/>
   </g>
   <g id="patch_15">
    <path d="M 42.854022 38.161732 
Q 90.094944 172.798358 136.965698 306.380007 
" clip-path="url(#pf438884c93)" style="fill: none; stroke: #4c4c4c; stroke-linecap: round"/>
    <path d="M 137.134552 305.049034 
L 136.965698 306.380007 
L 136.002232 305.44634 
" clip-path="url(#pf438884c93)" style="fill: none; stroke: #4c4c4c; stroke-linecap: round"/>
   </g>
   <g id="patch_16">
    <path d="M 68.686755 220.403306 
Q 70.050361 220.403306 70.295934 220.403306 
" clip-path="url(#pf438884c93)" style="fill: none; stroke: #4c4c4c; stroke-linecap: round"/>
    <path d="M 69.095934 219.803306 
L 70.295934 220.403306 
L 69.095934 221.003306 
" clip-path="url(#pf438884c93)" style="fill: none; stroke: #4c4c4c; stroke-linecap: round"/>
   </g>
   <g id="patch_17">
    <path d="M 68.498052 222.231576 
Q 170.270365 244.205144 270.949827 265.942755 
" clip-path="url(#pf438884c93)" style="fill: none; stroke: #4c4c4c; stroke-linecap: round"/>
    <path d="M 269.903484 265.103014 
L 270.949827 265.942755 
L 269.650228 266.275985 
" clip-path="url(#pf438884c93)" style="fill: none; stroke: #4c4c4c; stroke-linecap: round"/>
   </g>
   <g id="patch_18">
    <path d="M 65.60634 227.024884 
Q 100.115392 268.004383 133.904278 308.128686 
" clip-path="url(#pf438884c93)" style="fill: none; stroke: #4c4c4c; stroke-linecap: round"/>
    <path d="M 133.590262 306.824311 
L 133.904278 308.128686 
L 132.672368 307.597274 
" clip-path="url(#pf438884c93)" style="fill: none; stroke: #4c4c4c; stroke-linecap: round"/>
   </g>
   <g id="patch_19">
    <path d="M 68.686755 125.196694 
Q 70.050361 125.196694 70.295934 125.196694 
" clip-path="url(#pf438884c93)" style="fill: none; stroke: #4c4c4c; stroke-linecap: round"/>
    <path d="M 69.095934 124.596694 
L 70.295934 125.196694 
L 69.095934 125.796694 
" clip-path="url(#pf438884c93)" style="fill: none; stroke: #4c4c4c; stroke-linecap: round"/>
   </g>
   <g id="patch_20">
    <path d="M 81.858039 133.671965 
Q 90.095811 172.801383 98.103257 210.83675 
" clip-path="url(#pf438884c93)" style="fill: none; stroke: #4c4c4c; stroke-linecap: round"/>
    <path d="M 98.443174 209.538884 
L 98.103257 210.83675 
L 97.268914 209.786096 
" clip-path="url(#pf438884c93)" style="fill: none; stroke: #4c4c4c; stroke-linecap: round"/>
   </g>
   <g id="patch_21">
    <path d="M 83.434336 133.178035 
Q 100.116908 172.799145 116.36562 211.389836 
" clip-path="url(#pf438884c93)" style="fill: none; stroke: #4c4c4c; stroke-linecap: round"/>
    <path d="M 116.452933 210.051039 
L 116.36562 211.389836 
L 115.346971 210.516708 
" clip-path="url(#pf438884c93)" style="fill: none; stroke: #4c4c4c; stroke-linecap: round"/>
   </g>
   <g id="patch_22">
    <path d="M 81.858039 211.928035 
Q 90.095811 172.798617 98.103257 134.76325 
" clip-path="url(#pf438884c93)" style="fill: none; stroke: #4c4c4c; stroke-linecap: round"/>
    <path d="M 97.268914 135.813904 
L 98.103257 134.76325 
L 98.443174 136.061116 
" clip-path="url(#pf438884c93)" style="fill: none; stroke: #4c4c4c; stroke-linecap: round"/>
   </g>
   <g id="patch_23">
    <path d="M 101.901536 133.671965 
Q 110.139308 172.801383 118.146754 210.83675 
" clip-path="url(#pf438884c93)" style="fill: none; stroke: #4c4c4c; stroke-linecap: round"/>
    <path d="M 118.486671 209.538884 
L 118.146754 210.83675 
L 117.312411 209.786096 
" clip-path="url(#pf438884c93)" style="fill: none; stroke: #4c4c4c; stroke-linecap: round"/>
   </g>
   <g id="patch_24">
    <path d="M 104.743397 117.871991 
Q 130.182614 77.59323 155.024809 38.259754 
" clip-path="url(#pf438884c93)" style="fill: none; stroke: #4c4c4c; stroke-linecap: round"/>
    <path d="M 153.876724 38.953945 
L 155.024809 38.259754 
L 154.891311 39.594737 
" clip-path="url(#pf438884c93)" style="fill: none; stroke: #4c4c4c; stroke-linecap: round"/>
   </g>
   <g id="patch_25">
    <path d="M 107.937584 128.911344 
Q 150.223783 148.997289 191.500087 168.603533 
" clip-path="url(#pf438884c93)" style="fill: none; stroke: #4c4c4c; stroke-linecap: round"/>
    <path d="M 190.673588 167.546698 
L 191.500087 168.603533 
L 190.15872 168.630631 
" clip-path="url(#pf438884c93)" style="fill: none; stroke: #4c4c4c; stroke-linecap: round"/>
   </g>
   <g id="patch_26">
    <path d="M 101.901536 211.928035 
Q 110.139308 172.798617 118.146754 134.76325 
" clip-path="url(#pf438884c93)" style="fill: none; stroke: #4c4c4c; stroke-linecap: round"/>
    <path d="M 117.312411 135.813904 
L 118.146754 134.76325 
L 118.486671 136.061116 
" clip-path="url(#pf438884c93)" style="fill: none; stroke: #4c4c4c; stroke-linecap: round"/>
   </g>
   <g id="patch_27">
    <path d="M 121.06758 133.811428 
Q 130.182587 220.403999 139.180553 305.884679 
" clip-path="url(#pf438884c93)" style="fill: none; stroke: #4c4c4c; stroke-linecap: round"/>
    <path d="M 139.651635 304.628462 
L 139.180553 305.884679 
L 138.458228 304.754084 
" clip-path="url(#pf438884c93)" style="fill: none; stroke: #4c4c4c; stroke-linecap: round"/>
   </g>
   <g id="patch_28">
    <path d="M 128.413844 127.810169 
Q 270.484267 172.799136 411.488821 217.450578 
" clip-path="url(#pf438884c93)" style="fill: none; stroke: #4c4c4c; stroke-linecap: round"/>
    <path d="M 410.525945 216.516303 
L 411.488821 217.450578 
L 410.163675 217.660314 
" clip-path="url(#pf438884c93)" style="fill: none; stroke: #4c4c4c; stroke-linecap: round"/>
   </g>
   <g id="patch_29">
    <path d="M 128.360322 127.978687 
Q 190.31071 148.997568 251.202343 169.65723 
" clip-path="url(#pf438884c93)" style="fill: none; stroke: #4c4c4c; stroke-linecap: round"/>
    <path d="M 250.258747 168.703487 
L 251.202343 169.65723 
L 249.873191 169.839861 
" clip-path="url(#pf438884c93)" style="fill: none; stroke: #4c4c4c; stroke-linecap: round"/>
   </g>
   <g id="patch_30">
    <path d="M 121.945033 133.671965 
Q 130.182805 172.801383 138.190251 210.83675 
" clip-path="url(#pf438884c93)" style="fill: none; stroke: #4c4c4c; stroke-linecap: round"/>
    <path d="M 138.530168 209.538884 
L 138.190251 210.83675 
L 137.355908 209.786096 
" clip-path="url(#pf438884c93)" style="fill: none; stroke: #4c4c4c; stroke-linecap: round"/>
   </g>
   <g id="patch_31">
    <path d="M 121.945033 211.928035 
Q 130.182805 172.798617 138.190251 134.76325 
" clip-path="url(#pf438884c93)" style="fill: none; stroke: #4c4c4c; stroke-linecap: round"/>
    <path d="M 137.355908 135.813904 
L 138.190251 134.76325 
L 138.530168 136.061116 
" clip-path="url(#pf438884c93)" style="fill: none; stroke: #4c4c4c; stroke-linecap: round"/>
   </g>
   <g id="patch_32">
    <path d="M 121.06758 211.788572 
Q 130.182587 125.196001 139.180553 39.715321 
" clip-path="url(#pf438884c93)" style="fill: none; stroke: #4c4c4c; stroke-linecap: round"/>
    <path d="M 138.458228 40.845916 
L 139.180553 39.715321 
L 139.651635 40.971538 
" clip-path="url(#pf438884c93)" style="fill: none; stroke: #4c4c4c; stroke-linecap: round"/>
   </g>
   <g id="patch_33">
    <path d="M 148.860744 315.609917 
Q 150.22435 315.609917 150.469922 315.609917 
" clip-path="url(#pf438884c93)" style="fill: none; stroke: #4c4c4c; stroke-linecap: round"/>
    <path d="M 149.269922 315.009917 
L 150.469922 315.609917 
L 149.269922 316.209917 
" clip-path="url(#pf438884c93)" style="fill: none; stroke: #4c4c4c; stroke-linecap: round"/>
   </g>
   <g id="patch_34">
    <path d="M 141.98853 307.134646 
Q 150.226303 268.005228 158.233748 229.969862 
" clip-path="url(#pf438884c93)" style="fill: none; stroke: #4c4c4c; stroke-linecap: round"/>
    <path d="M 157.399406 231.020515 
L 158.233748 229.969862 
L 158.573665 231.267728 
" clip-path="url(#pf438884c93)" style="fill: none; stroke: #4c4c4c; stroke-linecap: round"/>
   </g>
   <g id="patch_35">
    <path d="M 144.444421 308.057135 
Q 180.29215 244.203367 215.592563 181.324508 
" clip-path="url(#pf438884c93)" style="fill: none; stroke: #4c4c4c; stroke-linecap: round"/>
    <path d="M 214.481931 182.077167 
L 215.592563 181.324508 
L 215.528311 182.664609 
" clip-path="url(#pf438884c93)" style="fill: none; stroke: #4c4c4c; stroke-linecap: round"/>
   </g>
   <g id="patch_36">
    <path d="M 148.860744 125.196694 
Q 150.22435 125.196694 150.469922 125.196694 
" clip-path="url(#pf438884c93)" style="fill: none; stroke: #4c4c4c; stroke-linecap: round"/>
    <path d="M 149.269922 124.596694 
L 150.469922 125.196694 
L 149.269922 125.796694 
" clip-path="url(#pf438884c93)" style="fill: none; stroke: #4c4c4c; stroke-linecap: round"/>
   </g>
   <g id="patch_37">
    <path d="M 141.98853 116.721423 
Q 150.226303 77.592005 158.233748 39.556639 
" clip-path="url(#pf438884c93)" style="fill: none; stroke: #4c4c4c; stroke-linecap: round"/>
    <path d="M 157.399406 40.607292 
L 158.233748 39.556639 
L 158.573665 40.854505 
" clip-path="url(#pf438884c93)" style="fill: none; stroke: #4c4c4c; stroke-linecap: round"/>
   </g>
   <g id="patch_38">
    <path d="M 148.860744 29.990083 
Q 150.22435 29.990083 150.469922 29.990083 
" clip-path="url(#pf438884c93)" style="fill: none; stroke: #4c4c4c; stroke-linecap: round"/>
    <path d="M 149.269922 29.390083 
L 150.469922 29.990083 
L 149.269922 30.590083 
" clip-path="url(#pf438884c93)" style="fill: none; stroke: #4c4c4c; stroke-linecap: round"/>
   </g>
   <g id="patch_39">
    <path d="M 148.860744 220.403306 
Q 220.375822 220.403306 290.772866 220.403306 
" clip-path="url(#pf438884c93)" style="fill: none; stroke: #4c4c4c; stroke-linecap: round"/>
    <path d="M 289.572866 219.803306 
L 290.772866 220.403306 
L 289.572866 221.003306 
" clip-path="url(#pf438884c93)" style="fill: none; stroke: #4c4c4c; stroke-linecap: round"/>
   </g>
   <g id="patch_40">
    <path d="M 163.607713 37.96997 
Q 190.313324 101.395797 216.585074 163.791204 
" clip-path="url(#pf438884c93)" style="fill: none; stroke: #4c4c4c; stroke-linecap: round"/>
    <path d="M 216.672387 162.452408 
L 216.585074 163.791204 
L 215.566425 162.918076 
" clip-path="url(#pf438884c93)" style="fill: none; stroke: #4c4c4c; stroke-linecap: round"/>
   </g>
   <g id="patch_41">
    <path d="M 165.824437 131.818999 
Q 220.378055 196.60142 274.211507 260.528644 
" clip-path="url(#pf438884c93)" style="fill: none; stroke: #4c4c4c; stroke-linecap: round"/>
    <path d="M 273.897491 259.224269 
L 274.211507 260.528644 
L 272.979597 259.997232 
" clip-path="url(#pf438884c93)" style="fill: none; stroke: #4c4c4c; stroke-linecap: round"/>
   </g>
   <g id="patch_42">
    <path d="M 166.804653 309.947146 
Q 270.489832 220.400855 373.328857 131.585333 
" clip-path="url(#pf438884c93)" style="fill: none; stroke: #4c4c4c; stroke-linecap: round"/>
    <path d="M 372.028498 131.915583 
L 373.328857 131.585333 
L 372.812842 132.823771 
" clip-path="url(#pf438884c93)" style="fill: none; stroke: #4c4c4c; stroke-linecap: round"/>
   </g>
   <g id="patch_43">
    <path d="M 161.450932 307.037313 
Q 170.269398 244.205746 178.93247 182.481361 
" clip-path="url(#pf438884c93)" style="fill: none; stroke: #4c4c4c; stroke-linecap: round"/>
    <path d="M 178.171507 183.586321 
L 178.93247 182.481361 
L 179.35986 183.753107 
" clip-path="url(#pf438884c93)" style="fill: none; stroke: #4c4c4c; stroke-linecap: round"/>
   </g>
   <g id="patch_44">
    <path d="M 167.041067 215.025271 
Q 190.315859 196.599394 212.714062 178.867483 
" clip-path="url(#pf438884c93)" style="fill: none; stroke: #4c4c4c; stroke-linecap: round"/>
    <path d="M 211.400785 179.141899 
L 212.714062 178.867483 
L 212.145629 180.082754 
" clip-path="url(#pf438884c93)" style="fill: none; stroke: #4c4c4c; stroke-linecap: round"/>
   </g>
   <g id="patch_45">
    <path d="M 188.947738 172.8 
Q 190.311344 172.8 190.556917 172.8 
" clip-path="url(#pf438884c93)" style="fill: none; stroke: #4c4c4c; stroke-linecap: round"/>
    <path d="M 189.356917 172.2 
L 190.556917 172.8 
L 189.356917 173.4 
" clip-path="url(#pf438884c93)" style="fill: none; stroke: #4c4c4c; stroke-linecap: round"/>
   </g>
   <g id="patch_46">
    <path d="M 188.953549 172.8 
Q 270.487963 172.8 350.904344 172.8 
" clip-path="url(#pf438884c93)" style="fill: none; stroke: #4c4c4c; stroke-linecap: round"/>
    <path d="M 349.704344 172.2 
L 350.904344 172.8 
L 349.704344 173.4 
" clip-path="url(#pf438884c93)" style="fill: none; stroke: #4c4c4c; stroke-linecap: round"/>
   </g>
   <g id="patch_47">
    <path d="M 205.309234 179.888633 
Q 250.443426 244.204857 294.935391 307.605907 
" clip-path="url(#pf438884c93)" style="fill: none; stroke: #4c4c4c; stroke-linecap: round"/>
    <path d="M 294.737214 306.278984 
L 294.935391 307.605907 
L 293.754946 306.968295 
" clip-path="url(#pf438884c93)" style="fill: none; stroke: #4c4c4c; stroke-linecap: round"/>
   </g>
   <g id="patch_48">
    <path d="M 208.991235 172.8 
Q 210.354842 172.8 210.600414 172.8 
" clip-path="url(#pf438884c93)" style="fill: none; stroke: #4c4c4c; stroke-linecap: round"/>
    <path d="M 209.400414 172.2 
L 210.600414 172.8 
L 209.400414 173.4 
" clip-path="url(#pf438884c93)" style="fill: none; stroke: #4c4c4c; stroke-linecap: round"/>
   </g>
   <g id="patch_49">
    <path d="M 229.034732 172.8 
Q 230.398339 172.8 230.643911 172.8 
" clip-path="url(#pf438884c93)" style="fill: none; stroke: #4c4c4c; stroke-linecap: round"/>
    <path d="M 229.443911 172.2 
L 230.643911 172.8 
L 229.443911 173.4 
" clip-path="url(#pf438884c93)" style="fill: none; stroke: #4c4c4c; stroke-linecap: round"/>
   </g>
   <g id="patch_50">
    <path d="M 228.754278 170.58966 
Q 310.574217 148.998287 391.313129 127.692185 
" clip-path="url(#pf438884c93)" style="fill: none; stroke: #4c4c4c; stroke-linecap: round"/>
    <path d="M 389.999756 127.41823 
L 391.313129 127.692185 
L 390.305942 128.57851 
" clip-path="url(#pf438884c93)" style="fill: none; stroke: #4c4c4c; stroke-linecap: round"/>
   </g>
   <g id="patch_51">
    <path d="M 228.80413 174.801146 
Q 320.597051 196.601965 411.302197 218.144437 
" clip-path="url(#pf438884c93)" style="fill: none; stroke: #4c4c4c; stroke-linecap: round"/>
    <path d="M 410.273316 217.283388 
L 411.302197 218.144437 
L 409.996029 218.450912 
" clip-path="url(#pf438884c93)" style="fill: none; stroke: #4c4c4c; stroke-linecap: round"/>
   </g>
   <g id="patch_52">
    <path d="M 242.206016 181.275271 
Q 250.443788 220.404689 258.451234 258.440055 
" clip-path="url(#pf438884c93)" style="fill: none; stroke: #4c4c4c; stroke-linecap: round"/>
    <path d="M 258.791151 257.142189 
L 258.451234 258.440055 
L 257.616891 257.389402 
" clip-path="url(#pf438884c93)" style="fill: none; stroke: #4c4c4c; stroke-linecap: round"/>
   </g>
   <g id="patch_53">
    <path d="M 242.206016 164.324729 
Q 250.443788 125.195311 258.451234 87.159945 
" clip-path="url(#pf438884c93)" style="fill: none; stroke: #4c4c4c; stroke-linecap: round"/>
    <path d="M 257.616891 88.210598 
L 258.451234 87.159945 
L 258.791151 88.457811 
" clip-path="url(#pf438884c93)" style="fill: none; stroke: #4c4c4c; stroke-linecap: round"/>
   </g>
   <g id="patch_54">
    <path d="M 249.07823 172.8 
Q 250.441836 172.8 250.687408 172.8 
" clip-path="url(#pf438884c93)" style="fill: none; stroke: #4c4c4c; stroke-linecap: round"/>
    <path d="M 249.487408 172.2 
L 250.687408 172.8 
L 249.487408 173.4 
" clip-path="url(#pf438884c93)" style="fill: none; stroke: #4c4c4c; stroke-linecap: round"/>
   </g>
   <g id="patch_55">
    <path d="M 269.121727 268.006612 
Q 270.485333 268.006612 270.730905 268.006612 
" clip-path="url(#pf438884c93)" style="fill: none; stroke: #4c4c4c; stroke-linecap: round"/>
    <path d="M 269.530905 267.406612 
L 270.730905 268.006612 
L 269.530905 268.606612 
" clip-path="url(#pf438884c93)" style="fill: none; stroke: #4c4c4c; stroke-linecap: round"/>
   </g>
   <g id="patch_56">
    <path d="M 269.121727 172.8 
Q 270.485333 172.8 270.730905 172.8 
" clip-path="url(#pf438884c93)" style="fill: none; stroke: #4c4c4c; stroke-linecap: round"/>
    <path d="M 269.530905 172.2 
L 270.730905 172.8 
L 269.530905 173.4 
" clip-path="url(#pf438884c93)" style="fill: none; stroke: #4c4c4c; stroke-linecap: round"/>
   </g>
   <g id="patch_57">
    <path d="M 269.121727 77.593388 
Q 270.485333 77.593388 270.730905 77.593388 
" clip-path="url(#pf438884c93)" style="fill: none; stroke: #4c4c4c; stroke-linecap: round"/>
    <path d="M 269.530905 76.993388 
L 270.730905 77.593388 
L 269.530905 78.193388 
" clip-path="url(#pf438884c93)" style="fill: none; stroke: #4c4c4c; stroke-linecap: round"/>
   </g>
   <g id="patch_58">
    <path d="M 283.869307 275.987952 
Q 290.53016 291.807476 296.757151 306.596581 
" clip-path="url(#pf438884c93)" style="fill: none; stroke: #4c4c4c; stroke-linecap: round"/>
    <path d="M 296.844464 305.257784 
L 296.757151 306.596581 
L 295.738501 305.723453 
" clip-path="url(#pf438884c93)" style="fill: none; stroke: #4c4c4c; stroke-linecap: round"/>
   </g>
   <g id="patch_59">
    <path d="M 281.711916 259.434007 
Q 290.530381 196.60244 299.193453 134.878055 
" clip-path="url(#pf438884c93)" style="fill: none; stroke: #4c4c4c; stroke-linecap: round"/>
    <path d="M 298.43249 135.983015 
L 299.193453 134.878055 
L 299.620843 136.149801 
" clip-path="url(#pf438884c93)" style="fill: none; stroke: #4c4c4c; stroke-linecap: round"/>
   </g>
   <g id="patch_60">
    <path d="M 283.869307 260.025271 
Q 290.53016 244.205747 296.757151 229.416642 
" clip-path="url(#pf438884c93)" style="fill: none; stroke: #4c4c4c; stroke-linecap: round"/>
    <path d="M 295.738501 230.28977 
L 296.757151 229.416642 
L 296.844464 230.755439 
" clip-path="url(#pf438884c93)" style="fill: none; stroke: #4c4c4c; stroke-linecap: round"/>
   </g>
   <g id="patch_61">
    <path d="M 281.711916 164.227395 
Q 290.530381 101.395828 299.193453 39.671444 
" clip-path="url(#pf438884c93)" style="fill: none; stroke: #4c4c4c; stroke-linecap: round"/>
    <path d="M 298.43249 40.776404 
L 299.193453 39.671444 
L 299.620843 40.94319 
" clip-path="url(#pf438884c93)" style="fill: none; stroke: #4c4c4c; stroke-linecap: round"/>
   </g>
   <g id="patch_62">
    <path d="M 288.329059 169.08535 
Q 330.615258 148.999406 371.891561 129.393161 
" clip-path="url(#pf438884c93)" style="fill: none; stroke: #4c4c4c; stroke-linecap: round"/>
    <path d="M 370.550194 129.366063 
L 371.891561 129.393161 
L 371.065062 130.449996 
" clip-path="url(#pf438884c93)" style="fill: none; stroke: #4c4c4c; stroke-linecap: round"/>
   </g>
   <g id="patch_63">
    <path d="M 288.564555 80.782147 
Q 340.641958 101.396119 391.679806 121.598601 
" clip-path="url(#pf438884c93)" style="fill: none; stroke: #4c4c4c; stroke-linecap: round"/>
    <path d="M 390.784867 120.599059 
L 391.679806 121.598601 
L 390.343209 121.714827 
" clip-path="url(#pf438884c93)" style="fill: none; stroke: #4c4c4c; stroke-linecap: round"/>
   </g>
   <g id="patch_64">
    <path d="M 306.128306 308.988339 
Q 340.637358 268.00884 374.426244 227.884538 
" clip-path="url(#pf438884c93)" style="fill: none; stroke: #4c4c4c; stroke-linecap: round"/>
    <path d="M 373.194335 228.41595 
L 374.426244 227.884538 
L 374.112228 229.188912 
" clip-path="url(#pf438884c93)" style="fill: none; stroke: #4c4c4c; stroke-linecap: round"/>
   </g>
   <g id="patch_65">
    <path d="M 307.345547 310.231883 
Q 360.68415 268.005489 413.146164 226.473061 
" clip-path="url(#pf438884c93)" style="fill: none; stroke: #4c4c4c; stroke-linecap: round"/>
    <path d="M 411.832887 226.747477 
L 413.146164 226.473061 
L 412.57773 227.688332 
" clip-path="url(#pf438884c93)" style="fill: none; stroke: #4c4c4c; stroke-linecap: round"/>
   </g>
   <g id="patch_66">
    <path d="M 306.831125 214.438365 
Q 350.65987 172.801058 393.67804 131.933796 
" clip-path="url(#pf438884c93)" style="fill: none; stroke: #4c4c4c; stroke-linecap: round"/>
    <path d="M 392.394791 132.325296 
L 393.67804 131.933796 
L 393.22129 133.195295 
" clip-path="url(#pf438884c93)" style="fill: none; stroke: #4c4c4c; stroke-linecap: round"/>
   </g>
   <g id="patch_67">
    <path d="M 303.912804 133.178035 
Q 310.573657 148.997559 316.800648 163.786664 
" clip-path="url(#pf438884c93)" style="fill: none; stroke: #4c4c4c; stroke-linecap: round"/>
    <path d="M 316.887961 162.447867 
L 316.800648 163.786664 
L 315.781999 162.913535 
" clip-path="url(#pf438884c93)" style="fill: none; stroke: #4c4c4c; stroke-linecap: round"/>
   </g>
   <g id="patch_68">
    <path d="M 329.252218 172.8 
Q 330.615825 172.8 330.861397 172.8 
" clip-path="url(#pf438884c93)" style="fill: none; stroke: #4c4c4c; stroke-linecap: round"/>
    <path d="M 329.661397 172.2 
L 330.861397 172.8 
L 329.661397 173.4 
" clip-path="url(#pf438884c93)" style="fill: none; stroke: #4c4c4c; stroke-linecap: round"/>
   </g>
   <g id="patch_69">
    <path d="M 349.295716 172.8 
Q 350.659322 172.8 350.904894 172.8 
" clip-path="url(#pf438884c93)" style="fill: none; stroke: #4c4c4c; stroke-linecap: round"/>
    <path d="M 349.704894 172.2 
L 350.904894 172.8 
L 349.704894 173.4 
" clip-path="url(#pf438884c93)" style="fill: none; stroke: #4c4c4c; stroke-linecap: round"/>
   </g>
   <g id="patch_70">
    <path d="M 346.2153 166.178422 
Q 360.680864 149.000565 374.426263 132.677904 
" clip-path="url(#pf438884c93)" style="fill: none; stroke: #4c4c4c; stroke-linecap: round"/>
    <path d="M 373.194353 133.209316 
L 374.426263 132.677904 
L 374.112247 133.982279 
" clip-path="url(#pf438884c93)" style="fill: none; stroke: #4c4c4c; stroke-linecap: round"/>
   </g>
   <g id="patch_71">
    <path d="M 364.043296 164.81866 
Q 370.704148 148.999135 376.93114 134.210031 
" clip-path="url(#pf438884c93)" style="fill: none; stroke: #4c4c4c; stroke-linecap: round"/>
    <path d="M 375.91249 135.083159 
L 376.93114 134.210031 
L 377.018453 135.548827 
" clip-path="url(#pf438884c93)" style="fill: none; stroke: #4c4c4c; stroke-linecap: round"/>
   </g>
   <g id="patch_72">
    <path d="M 364.043296 180.78134 
Q 370.704148 196.600865 376.93114 211.389969 
" clip-path="url(#pf438884c93)" style="fill: none; stroke: #4c4c4c; stroke-linecap: round"/>
    <path d="M 377.018453 210.051173 
L 376.93114 211.389969 
L 375.91249 210.516841 
" clip-path="url(#pf438884c93)" style="fill: none; stroke: #4c4c4c; stroke-linecap: round"/>
   </g>
   <g id="patch_73">
    <path d="M 389.38271 220.403306 
Q 390.746316 220.403306 390.991888 220.403306 
" clip-path="url(#pf438884c93)" style="fill: none; stroke: #4c4c4c; stroke-linecap: round"/>
    <path d="M 389.791888 219.803306 
L 390.991888 220.403306 
L 389.791888 221.003306 
" clip-path="url(#pf438884c93)" style="fill: none; stroke: #4c4c4c; stroke-linecap: round"/>
   </g>
   <g id="patch_74">
    <path d="M 389.38271 125.196694 
Q 390.746316 125.196694 390.991888 125.196694 
" clip-path="url(#pf438884c93)" style="fill: none; stroke: #4c4c4c; stroke-linecap: round"/>
    <path d="M 389.791888 124.596694 
L 390.991888 125.196694 
L 389.791888 125.796694 
" clip-path="url(#pf438884c93)" style="fill: none; stroke: #4c4c4c; stroke-linecap: round"/>
   </g>
   <g id="patch_75">
    <path d="M 409.426207 125.196694 
Q 410.789813 125.196694 411.035386 125.196694 
" clip-path="url(#pf438884c93)" style="fill: none; stroke: #4c4c4c; stroke-linecap: round"/>
    <path d="M 409.835386 124.596694 
L 411.035386 125.196694 
L 409.835386 125.796694 
" clip-path="url(#pf438884c93)" style="fill: none; stroke: #4c4c4c; stroke-linecap: round"/>
   </g>
   <g id="patch_76">
    <path d="M 402.553994 133.671965 
Q 410.791766 172.801383 418.799211 210.83675 
" clip-path="url(#pf438884c93)" style="fill: none; stroke: #4c4c4c; stroke-linecap: round"/>
    <path d="M 419.139129 209.538884 
L 418.799211 210.83675 
L 417.964869 209.786096 
" clip-path="url(#pf438884c93)" style="fill: none; stroke: #4c4c4c; stroke-linecap: round"/>
   </g>
   <g id="patch_77">
    <path d="M 402.553994 211.928035 
Q 410.791766 172.798617 418.799211 134.76325 
" clip-path="url(#pf438884c93)" style="fill: none; stroke: #4c4c4c; stroke-linecap: round"/>
    <path d="M 417.964869 135.813904 
L 418.799211 134.76325 
L 419.139129 136.061116 
" clip-path="url(#pf438884c93)" style="fill: none; stroke: #4c4c4c; stroke-linecap: round"/>
   </g>
   <g id="PathCollection_1">
    <path d="M 39.986777 324.270171 
C 42.283503 324.270171 44.486471 323.357672 46.110501 321.733642 
C 47.734532 320.109611 48.647031 317.906644 48.647031 315.609917 
C 48.647031 313.313191 47.734532 311.110224 46.110501 309.486193 
C 44.486471 307.862162 42.283503 306.949663 39.986777 306.949663 
C 37.690051 306.949663 35.487083 307.862162 33.863053 309.486193 
C 32.239022 311.110224 31.326523 313.313191 31.326523 315.609917 
C 31.326523 317.906644 32.239022 320.109611 33.863053 321.733642 
C 35.487083 323.357672 37.690051 324.270171 39.986777 324.270171 
z
" clip-path="url(#pf438884c93)" style="fill: #ffff00; stroke: #000000"/>
    <path d="M 39.986777 229.06356 
C 42.283503 229.06356 44.486471 228.151061 46.110501 226.52703 
C 47.734532 224.902999 48.647031 222.700032 48.647031 220.403306 
C 48.647031 218.10658 47.734532 215.903612 46.110501 214.279581 
C 44.486471 212.655551 42.283503 211.743052 39.986777 211.743052 
C 37.690051 211.743052 35.487083 212.655551 33.863053 214.279581 
C 32.239022 215.903612 31.326523 218.10658 31.326523 220.403306 
C 31.326523 222.700032 32.239022 224.902999 33.863053 226.52703 
C 35.487083 228.151061 37.690051 229.06356 39.986777 229.06356 
z
" clip-path="url(#pf438884c93)" style="fill: #ffff00; stroke: #000000"/>
    <path d="M 39.986777 133.856948 
C 42.283503 133.856948 44.486471 132.944449 46.110501 131.320419 
C 47.734532 129.696388 48.647031 127.49342 48.647031 125.196694 
C 48.647031 122.899968 47.734532 120.697001 46.110501 119.07297 
C 44.486471 117.448939 42.283503 116.53644 39.986777 116.53644 
C 37.690051 116.53644 35.487083 117.448939 33.863053 119.07297 
C 32.239022 120.697001 31.326523 122.899968 31.326523 125.196694 
C 31.326523 127.49342 32.239022 129.696388 33.863053 131.320419 
C 35.487083 132.944449 37.690051 133.856948 39.986777 133.856948 
z
" clip-path="url(#pf438884c93)" style="fill: #ffff00; stroke: #000000"/>
    <path d="M 39.986777 38.650337 
C 42.283503 38.650337 44.486471 37.737838 46.110501 36.113807 
C 47.734532 34.489776 48.647031 32.286809 48.647031 29.990083 
C 48.647031 27.693356 47.734532 25.490389 46.110501 23.866358 
C 44.486471 22.242328 42.283503 21.329829 39.986777 21.329829 
C 37.690051 21.329829 35.487083 22.242328 33.863053 23.866358 
C 32.239022 25.490389 31.326523 27.693356 31.326523 29.990083 
C 31.326523 32.286809 32.239022 34.489776 33.863053 36.113807 
C 35.487083 37.737838 37.690051 38.650337 39.986777 38.650337 
z
" clip-path="url(#pf438884c93)" style="fill: #ffff00; stroke: #000000"/>
    <path d="M 60.030274 229.06356 
C 62.327 229.06356 64.529968 228.151061 66.153998 226.52703 
C 67.778029 224.902999 68.690528 222.700032 68.690528 220.403306 
C 68.690528 218.10658 67.778029 215.903612 66.153998 214.279581 
C 64.529968 212.655551 62.327 211.743052 60.030274 211.743052 
C 57.733548 211.743052 55.53058 212.655551 53.90655 214.279581 
C 52.282519 215.903612 51.37002 218.10658 51.37002 220.403306 
C 51.37002 222.700032 52.282519 224.902999 53.90655 226.52703 
C 55.53058 228.151061 57.733548 229.06356 60.030274 229.06356 
z
" clip-path="url(#pf438884c93)" style="fill: #ffffff; stroke: #000000"/>
    <path d="M 60.030274 133.856948 
C 62.327 133.856948 64.529968 132.944449 66.153998 131.320419 
C 67.778029 129.696388 68.690528 127.49342 68.690528 125.196694 
C 68.690528 122.899968 67.778029 120.697001 66.153998 119.07297 
C 64.529968 117.448939 62.327 116.53644 60.030274 116.53644 
C 57.733548 116.53644 55.53058 117.448939 53.90655 119.07297 
C 52.282519 120.697001 51.37002 122.899968 51.37002 125.196694 
C 51.37002 127.49342 52.282519 129.696388 53.90655 131.320419 
C 55.53058 132.944449 57.733548 133.856948 60.030274 133.856948 
z
" clip-path="url(#pf438884c93)" style="fill: #ffffff; stroke: #000000"/>
    <path d="M 80.073771 133.856948 
C 82.370497 133.856948 84.573465 132.944449 86.197496 131.320419 
C 87.821526 129.696388 88.734025 127.49342 88.734025 125.196694 
C 88.734025 122.899968 87.821526 120.697001 86.197496 119.07297 
C 84.573465 117.448939 82.370497 116.53644 80.073771 116.53644 
C 77.777045 116.53644 75.574078 117.448939 73.950047 119.07297 
C 72.326016 120.697001 71.413517 122.899968 71.413517 125.196694 
C 71.413517 127.49342 72.326016 129.696388 73.950047 131.320419 
C 75.574078 132.944449 77.777045 133.856948 80.073771 133.856948 
z
" clip-path="url(#pf438884c93)" style="fill: #ffffff; stroke: #000000"/>
    <path d="M 80.073771 229.06356 
C 82.370497 229.06356 84.573465 228.151061 86.197496 226.52703 
C 87.821526 224.902999 88.734025 222.700032 88.734025 220.403306 
C 88.734025 218.10658 87.821526 215.903612 86.197496 214.279581 
C 84.573465 212.655551 82.370497 211.743052 80.073771 211.743052 
C 77.777045 211.743052 75.574078 212.655551 73.950047 214.279581 
C 72.326016 215.903612 71.413517 218.10658 71.413517 220.403306 
C 71.413517 222.700032 72.326016 224.902999 73.950047 226.52703 
C 75.574078 228.151061 77.777045 229.06356 80.073771 229.06356 
z
" clip-path="url(#pf438884c93)" style="fill: #ffffff; stroke: #000000"/>
    <path d="M 100.117268 133.856948 
C 102.413995 133.856948 104.616962 132.944449 106.240993 131.320419 
C 107.865023 129.696388 108.777522 127.49342 108.777522 125.196694 
C 108.777522 122.899968 107.865023 120.697001 106.240993 119.07297 
C 104.616962 117.448939 102.413995 116.53644 100.117268 116.53644 
C 97.820542 116.53644 95.617575 117.448939 93.993544 119.07297 
C 92.369513 120.697001 91.457014 122.899968 91.457014 125.196694 
C 91.457014 127.49342 92.369513 129.696388 93.993544 131.320419 
C 95.617575 132.944449 97.820542 133.856948 100.117268 133.856948 
z
" clip-path="url(#pf438884c93)" style="fill: #ffffff; stroke: #000000"/>
    <path d="M 100.117268 229.06356 
C 102.413995 229.06356 104.616962 228.151061 106.240993 226.52703 
C 107.865023 224.902999 108.777522 222.700032 108.777522 220.403306 
C 108.777522 218.10658 107.865023 215.903612 106.240993 214.279581 
C 104.616962 212.655551 102.413995 211.743052 100.117268 211.743052 
C 97.820542 211.743052 95.617575 212.655551 93.993544 214.279581 
C 92.369513 215.903612 91.457014 218.10658 91.457014 220.403306 
C 91.457014 222.700032 92.369513 224.902999 93.993544 226.52703 
C 95.617575 228.151061 97.820542 229.06356 100.117268 229.06356 
z
" clip-path="url(#pf438884c93)" style="fill: #ffffff; stroke: #000000"/>
    <path d="M 120.160766 133.856948 
C 122.457492 133.856948 124.660459 132.944449 126.28449 131.320419 
C 127.908521 129.696388 128.82102 127.49342 128.82102 125.196694 
C 128.82102 122.899968 127.908521 120.697001 126.28449 119.07297 
C 124.660459 117.448939 122.457492 116.53644 120.160766 116.53644 
C 117.864039 116.53644 115.661072 117.448939 114.037041 119.07297 
C 112.413011 120.697001 111.500512 122.899968 111.500512 125.196694 
C 111.500512 127.49342 112.413011 129.696388 114.037041 131.320419 
C 115.661072 132.944449 117.864039 133.856948 120.160766 133.856948 
z
" clip-path="url(#pf438884c93)" style="fill: #ffffff; stroke: #000000"/>
    <path d="M 120.160766 229.06356 
C 122.457492 229.06356 124.660459 228.151061 126.28449 226.52703 
C 127.908521 224.902999 128.82102 222.700032 128.82102 220.403306 
C 128.82102 218.10658 127.908521 215.903612 126.28449 214.279581 
C 124.660459 212.655551 122.457492 211.743052 120.160766 211.743052 
C 117.864039 211.743052 115.661072 212.655551 114.037041 214.279581 
C 112.413011 215.903612 111.500512 218.10658 111.500512 220.403306 
C 111.500512 222.700032 112.413011 224.902999 114.037041 226.52703 
C 115.661072 228.151061 117.864039 229.06356 120.160766 229.06356 
z
" clip-path="url(#pf438884c93)" style="fill: #ffffff; stroke: #000000"/>
    <path d="M 140.204263 324.270171 
C 142.500989 324.270171 144.703956 323.357672 146.327987 321.733642 
C 147.952018 320.109611 148.864517 317.906644 148.864517 315.609917 
C 148.864517 313.313191 147.952018 311.110224 146.327987 309.486193 
C 144.703956 307.862162 142.500989 306.949663 140.204263 306.949663 
C 137.907537 306.949663 135.704569 307.862162 134.080538 309.486193 
C 132.456508 311.110224 131.544009 313.313191 131.544009 315.609917 
C 131.544009 317.906644 132.456508 320.109611 134.080538 321.733642 
C 135.704569 323.357672 137.907537 324.270171 140.204263 324.270171 
z
" clip-path="url(#pf438884c93)" style="fill: #ffffff; stroke: #000000"/>
    <path d="M 140.204263 133.856948 
C 142.500989 133.856948 144.703956 132.944449 146.327987 131.320419 
C 147.952018 129.696388 148.864517 127.49342 148.864517 125.196694 
C 148.864517 122.899968 147.952018 120.697001 146.327987 119.07297 
C 144.703956 117.448939 142.500989 116.53644 140.204263 116.53644 
C 137.907537 116.53644 135.704569 117.448939 134.080538 119.07297 
C 132.456508 120.697001 131.544009 122.899968 131.544009 125.196694 
C 131.544009 127.49342 132.456508 129.696388 134.080538 131.320419 
C 135.704569 132.944449 137.907537 133.856948 140.204263 133.856948 
z
" clip-path="url(#pf438884c93)" style="fill: #ffffff; stroke: #000000"/>
    <path d="M 140.204263 38.650337 
C 142.500989 38.650337 144.703956 37.737838 146.327987 36.113807 
C 147.952018 34.489776 148.864517 32.286809 148.864517 29.990083 
C 148.864517 27.693356 147.952018 25.490389 146.327987 23.866358 
C 144.703956 22.242328 142.500989 21.329829 140.204263 21.329829 
C 137.907537 21.329829 135.704569 22.242328 134.080538 23.866358 
C 132.456508 25.490389 131.544009 27.693356 131.544009 29.990083 
C 131.544009 32.286809 132.456508 34.489776 134.080538 36.113807 
C 135.704569 37.737838 137.907537 38.650337 140.204263 38.650337 
z
" clip-path="url(#pf438884c93)" style="fill: #ffffff; stroke: #000000"/>
    <path d="M 140.204263 229.06356 
C 142.500989 229.06356 144.703956 228.151061 146.327987 226.52703 
C 147.952018 224.902999 148.864517 222.700032 148.864517 220.403306 
C 148.864517 218.10658 147.952018 215.903612 146.327987 214.279581 
C 144.703956 212.655551 142.500989 211.743052 140.204263 211.743052 
C 137.907537 211.743052 135.704569 212.655551 134.080538 214.279581 
C 132.456508 215.903612 131.544009 218.10658 131.544009 220.403306 
C 131.544009 222.700032 132.456508 224.902999 134.080538 226.52703 
C 135.704569 228.151061 137.907537 229.06356 140.204263 229.06356 
z
" clip-path="url(#pf438884c93)" style="fill: #ffffff; stroke: #000000"/>
    <path d="M 160.24776 38.650337 
C 162.544486 38.650337 164.747454 37.737838 166.371484 36.113807 
C 167.995515 34.489776 168.908014 32.286809 168.908014 29.990083 
C 168.908014 27.693356 167.995515 25.490389 166.371484 23.866358 
C 164.747454 22.242328 162.544486 21.329829 160.24776 21.329829 
C 157.951034 21.329829 155.748066 22.242328 154.124036 23.866358 
C 152.500005 25.490389 151.587506 27.693356 151.587506 29.990083 
C 151.587506 32.286809 152.500005 34.489776 154.124036 36.113807 
C 155.748066 37.737838 157.951034 38.650337 160.24776 38.650337 
z
" clip-path="url(#pf438884c93)" style="fill: #ffffff; stroke: #000000"/>
    <path d="M 160.24776 133.856948 
C 162.544486 133.856948 164.747454 132.944449 166.371484 131.320419 
C 167.995515 129.696388 168.908014 127.49342 168.908014 125.196694 
C 168.908014 122.899968 167.995515 120.697001 166.371484 119.07297 
C 164.747454 117.448939 162.544486 116.53644 160.24776 116.53644 
C 157.951034 116.53644 155.748066 117.448939 154.124036 119.07297 
C 152.500005 120.697001 151.587506 122.899968 151.587506 125.196694 
C 151.587506 127.49342 152.500005 129.696388 154.124036 131.320419 
C 155.748066 132.944449 157.951034 133.856948 160.24776 133.856948 
z
" clip-path="url(#pf438884c93)" style="fill: #ffffff; stroke: #000000"/>
    <path d="M 160.24776 324.270171 
C 162.544486 324.270171 164.747454 323.357672 166.371484 321.733642 
C 167.995515 320.109611 168.908014 317.906644 168.908014 315.609917 
C 168.908014 313.313191 167.995515 311.110224 166.371484 309.486193 
C 164.747454 307.862162 162.544486 306.949663 160.24776 306.949663 
C 157.951034 306.949663 155.748066 307.862162 154.124036 309.486193 
C 152.500005 311.110224 151.587506 313.313191 151.587506 315.609917 
C 151.587506 317.906644 152.500005 320.109611 154.124036 321.733642 
C 155.748066 323.357672 157.951034 324.270171 160.24776 324.270171 
z
" clip-path="url(#pf438884c93)" style="fill: #ffffff; stroke: #000000"/>
    <path d="M 160.24776 229.06356 
C 162.544486 229.06356 164.747454 228.151061 166.371484 226.52703 
C 167.995515 224.902999 168.908014 222.700032 168.908014 220.403306 
C 168.908014 218.10658 167.995515 215.903612 166.371484 214.279581 
C 164.747454 212.655551 162.544486 211.743052 160.24776 211.743052 
C 157.951034 211.743052 155.748066 212.655551 154.124036 214.279581 
C 152.500005 215.903612 151.587506 218.10658 151.587506 220.403306 
C 151.587506 222.700032 152.500005 224.902999 154.124036 226.52703 
C 155.748066 228.151061 157.951034 229.06356 160.24776 229.06356 
z
" clip-path="url(#pf438884c93)" style="fill: #ffffff; stroke: #000000"/>
    <path d="M 180.291257 181.460254 
C 182.587983 181.460254 184.790951 180.547755 186.414981 178.923724 
C 188.039012 177.299694 188.951511 175.096726 188.951511 172.8 
C 188.951511 170.503274 188.039012 168.300306 186.414981 166.676276 
C 184.790951 165.052245 182.587983 164.139746 180.291257 164.139746 
C 177.994531 164.139746 175.791563 165.052245 174.167533 166.676276 
C 172.543502 168.300306 171.631003 170.503274 171.631003 172.8 
C 171.631003 175.096726 172.543502 177.299694 174.167533 178.923724 
C 175.791563 180.547755 177.994531 181.460254 180.291257 181.460254 
z
" clip-path="url(#pf438884c93)" style="fill: #ffffff; stroke: #000000"/>
    <path d="M 200.334754 181.460254 
C 202.63148 181.460254 204.834448 180.547755 206.458479 178.923724 
C 208.082509 177.299694 208.995008 175.096726 208.995008 172.8 
C 208.995008 170.503274 208.082509 168.300306 206.458479 166.676276 
C 204.834448 165.052245 202.63148 164.139746 200.334754 164.139746 
C 198.038028 164.139746 195.835061 165.052245 194.21103 166.676276 
C 192.586999 168.300306 191.6745 170.503274 191.6745 172.8 
C 191.6745 175.096726 192.586999 177.299694 194.21103 178.923724 
C 195.835061 180.547755 198.038028 181.460254 200.334754 181.460254 
z
" clip-path="url(#pf438884c93)" style="fill: #ffffff; stroke: #000000"/>
    <path d="M 220.378251 181.460254 
C 222.674978 181.460254 224.877945 180.547755 226.501976 178.923724 
C 228.126006 177.299694 229.038505 175.096726 229.038505 172.8 
C 229.038505 170.503274 228.126006 168.300306 226.501976 166.676276 
C 224.877945 165.052245 222.674978 164.139746 220.378251 164.139746 
C 218.081525 164.139746 215.878558 165.052245 214.254527 166.676276 
C 212.630496 168.300306 211.717997 170.503274 211.717997 172.8 
C 211.717997 175.096726 212.630496 177.299694 214.254527 178.923724 
C 215.878558 180.547755 218.081525 181.460254 220.378251 181.460254 
z
" clip-path="url(#pf438884c93)" style="fill: #ffffff; stroke: #000000"/>
    <path d="M 240.421749 181.460254 
C 242.718475 181.460254 244.921442 180.547755 246.545473 178.923724 
C 248.169504 177.299694 249.082003 175.096726 249.082003 172.8 
C 249.082003 170.503274 248.169504 168.300306 246.545473 166.676276 
C 244.921442 165.052245 242.718475 164.139746 240.421749 164.139746 
C 238.125022 164.139746 235.922055 165.052245 234.298024 166.676276 
C 232.673994 168.300306 231.761495 170.503274 231.761495 172.8 
C 231.761495 175.096726 232.673994 177.299694 234.298024 178.923724 
C 235.922055 180.547755 238.125022 181.460254 240.421749 181.460254 
z
" clip-path="url(#pf438884c93)" style="fill: #ffffff; stroke: #000000"/>
    <path d="M 260.465246 276.666866 
C 262.761972 276.666866 264.964939 275.754367 266.58897 274.130336 
C 268.213001 272.506305 269.1255 270.303338 269.1255 268.006612 
C 269.1255 265.709885 268.213001 263.506918 266.58897 261.882887 
C 264.964939 260.258857 262.761972 259.346358 260.465246 259.346358 
C 258.16852 259.346358 255.965552 260.258857 254.341521 261.882887 
C 252.717491 263.506918 251.804992 265.709885 251.804992 268.006612 
C 251.804992 270.303338 252.717491 272.506305 254.341521 274.130336 
C 255.965552 275.754367 258.16852 276.666866 260.465246 276.666866 
z
" clip-path="url(#pf438884c93)" style="fill: #ffffff; stroke: #000000"/>
    <path d="M 260.465246 181.460254 
C 262.761972 181.460254 264.964939 180.547755 266.58897 178.923724 
C 268.213001 177.299694 269.1255 175.096726 269.1255 172.8 
C 269.1255 170.503274 268.213001 168.300306 266.58897 166.676276 
C 264.964939 165.052245 262.761972 164.139746 260.465246 164.139746 
C 258.16852 164.139746 255.965552 165.052245 254.341521 166.676276 
C 252.717491 168.300306 251.804992 170.503274 251.804992 172.8 
C 251.804992 175.096726 252.717491 177.299694 254.341521 178.923724 
C 255.965552 180.547755 258.16852 181.460254 260.465246 181.460254 
z
" clip-path="url(#pf438884c93)" style="fill: #ffffff; stroke: #000000"/>
    <path d="M 260.465246 86.253642 
C 262.761972 86.253642 264.964939 85.341143 266.58897 83.717113 
C 268.213001 82.093082 269.1255 79.890115 269.1255 77.593388 
C 269.1255 75.296662 268.213001 73.093695 266.58897 71.469664 
C 264.964939 69.845633 262.761972 68.933134 260.465246 68.933134 
C 258.16852 68.933134 255.965552 69.845633 254.341521 71.469664 
C 252.717491 73.093695 251.804992 75.296662 251.804992 77.593388 
C 251.804992 79.890115 252.717491 82.093082 254.341521 83.717113 
C 255.965552 85.341143 258.16852 86.253642 260.465246 86.253642 
z
" clip-path="url(#pf438884c93)" style="fill: #ffffff; stroke: #000000"/>
    <path d="M 280.508743 276.666866 
C 282.805469 276.666866 285.008437 275.754367 286.632467 274.130336 
C 288.256498 272.506305 289.168997 270.303338 289.168997 268.006612 
C 289.168997 265.709885 288.256498 263.506918 286.632467 261.882887 
C 285.008437 260.258857 282.805469 259.346358 280.508743 259.346358 
C 278.212017 259.346358 276.009049 260.258857 274.385019 261.882887 
C 272.760988 263.506918 271.848489 265.709885 271.848489 268.006612 
C 271.848489 270.303338 272.760988 272.506305 274.385019 274.130336 
C 276.009049 275.754367 278.212017 276.666866 280.508743 276.666866 
z
" clip-path="url(#pf438884c93)" style="fill: #ffffff; stroke: #000000"/>
    <path d="M 280.508743 181.460254 
C 282.805469 181.460254 285.008437 180.547755 286.632467 178.923724 
C 288.256498 177.299694 289.168997 175.096726 289.168997 172.8 
C 289.168997 170.503274 288.256498 168.300306 286.632467 166.676276 
C 285.008437 165.052245 282.805469 164.139746 280.508743 164.139746 
C 278.212017 164.139746 276.009049 165.052245 274.385019 166.676276 
C 272.760988 168.300306 271.848489 170.503274 271.848489 172.8 
C 271.848489 175.096726 272.760988 177.299694 274.385019 178.923724 
C 276.009049 180.547755 278.212017 181.460254 280.508743 181.460254 
z
" clip-path="url(#pf438884c93)" style="fill: #ffffff; stroke: #000000"/>
    <path d="M 280.508743 86.253642 
C 282.805469 86.253642 285.008437 85.341143 286.632467 83.717113 
C 288.256498 82.093082 289.168997 79.890115 289.168997 77.593388 
C 289.168997 75.296662 288.256498 73.093695 286.632467 71.469664 
C 285.008437 69.845633 282.805469 68.933134 280.508743 68.933134 
C 278.212017 68.933134 276.009049 69.845633 274.385019 71.469664 
C 272.760988 73.093695 271.848489 75.296662 271.848489 77.593388 
C 271.848489 79.890115 272.760988 82.093082 274.385019 83.717113 
C 276.009049 85.341143 278.212017 86.253642 280.508743 86.253642 
z
" clip-path="url(#pf438884c93)" style="fill: #ffffff; stroke: #000000"/>
    <path d="M 300.55224 324.270171 
C 302.848966 324.270171 305.051934 323.357672 306.675964 321.733642 
C 308.299995 320.109611 309.212494 317.906644 309.212494 315.609917 
C 309.212494 313.313191 308.299995 311.110224 306.675964 309.486193 
C 305.051934 307.862162 302.848966 306.949663 300.55224 306.949663 
C 298.255514 306.949663 296.052546 307.862162 294.428516 309.486193 
C 292.804485 311.110224 291.891986 313.313191 291.891986 315.609917 
C 291.891986 317.906644 292.804485 320.109611 294.428516 321.733642 
C 296.052546 323.357672 298.255514 324.270171 300.55224 324.270171 
z
" clip-path="url(#pf438884c93)" style="fill: #ffffff; stroke: #000000"/>
    <path d="M 300.55224 229.06356 
C 302.848966 229.06356 305.051934 228.151061 306.675964 226.52703 
C 308.299995 224.902999 309.212494 222.700032 309.212494 220.403306 
C 309.212494 218.10658 308.299995 215.903612 306.675964 214.279581 
C 305.051934 212.655551 302.848966 211.743052 300.55224 211.743052 
C 298.255514 211.743052 296.052546 212.655551 294.428516 214.279581 
C 292.804485 215.903612 291.891986 218.10658 291.891986 220.403306 
C 291.891986 222.700032 292.804485 224.902999 294.428516 226.52703 
C 296.052546 228.151061 298.255514 229.06356 300.55224 229.06356 
z
" clip-path="url(#pf438884c93)" style="fill: #ffffff; stroke: #000000"/>
    <path d="M 300.55224 38.650337 
C 302.848966 38.650337 305.051934 37.737838 306.675964 36.113807 
C 308.299995 34.489776 309.212494 32.286809 309.212494 29.990083 
C 309.212494 27.693356 308.299995 25.490389 306.675964 23.866358 
C 305.051934 22.242328 302.848966 21.329829 300.55224 21.329829 
C 298.255514 21.329829 296.052546 22.242328 294.428516 23.866358 
C 292.804485 25.490389 291.891986 27.693356 291.891986 29.990083 
C 291.891986 32.286809 292.804485 34.489776 294.428516 36.113807 
C 296.052546 37.737838 298.255514 38.650337 300.55224 38.650337 
z
" clip-path="url(#pf438884c93)" style="fill: #ffffff; stroke: #000000"/>
    <path d="M 300.55224 133.856948 
C 302.848966 133.856948 305.051934 132.944449 306.675964 131.320419 
C 308.299995 129.696388 309.212494 127.49342 309.212494 125.196694 
C 309.212494 122.899968 308.299995 120.697001 306.675964 119.07297 
C 305.051934 117.448939 302.848966 116.53644 300.55224 116.53644 
C 298.255514 116.53644 296.052546 117.448939 294.428516 119.07297 
C 292.804485 120.697001 291.891986 122.899968 291.891986 125.196694 
C 291.891986 127.49342 292.804485 129.696388 294.428516 131.320419 
C 296.052546 132.944449 298.255514 133.856948 300.55224 133.856948 
z
" clip-path="url(#pf438884c93)" style="fill: #ffffff; stroke: #000000"/>
    <path d="M 320.595737 181.460254 
C 322.892463 181.460254 325.095431 180.547755 326.719462 178.923724 
C 328.343492 177.299694 329.255991 175.096726 329.255991 172.8 
C 329.255991 170.503274 328.343492 168.300306 326.719462 166.676276 
C 325.095431 165.052245 322.892463 164.139746 320.595737 164.139746 
C 318.299011 164.139746 316.096044 165.052245 314.472013 166.676276 
C 312.847982 168.300306 311.935483 170.503274 311.935483 172.8 
C 311.935483 175.096726 312.847982 177.299694 314.472013 178.923724 
C 316.096044 180.547755 318.299011 181.460254 320.595737 181.460254 
z
" clip-path="url(#pf438884c93)" style="fill: #ffffff; stroke: #000000"/>
    <path d="M 340.639234 181.460254 
C 342.935961 181.460254 345.138928 180.547755 346.762959 178.923724 
C 348.386989 177.299694 349.299488 175.096726 349.299488 172.8 
C 349.299488 170.503274 348.386989 168.300306 346.762959 166.676276 
C 345.138928 165.052245 342.935961 164.139746 340.639234 164.139746 
C 338.342508 164.139746 336.139541 165.052245 334.51551 166.676276 
C 332.891479 168.300306 331.97898 170.503274 331.97898 172.8 
C 331.97898 175.096726 332.891479 177.299694 334.51551 178.923724 
C 336.139541 180.547755 338.342508 181.460254 340.639234 181.460254 
z
" clip-path="url(#pf438884c93)" style="fill: #ffffff; stroke: #000000"/>
    <path d="M 360.682732 181.460254 
C 362.979458 181.460254 365.182425 180.547755 366.806456 178.923724 
C 368.430487 177.299694 369.342986 175.096726 369.342986 172.8 
C 369.342986 170.503274 368.430487 168.300306 366.806456 166.676276 
C 365.182425 165.052245 362.979458 164.139746 360.682732 164.139746 
C 358.386005 164.139746 356.183038 165.052245 354.559007 166.676276 
C 352.934977 168.300306 352.022478 170.503274 352.022478 172.8 
C 352.022478 175.096726 352.934977 177.299694 354.559007 178.923724 
C 356.183038 180.547755 358.386005 181.460254 360.682732 181.460254 
z
" clip-path="url(#pf438884c93)" style="fill: #ffffff; stroke: #000000"/>
    <path d="M 380.726229 229.06356 
C 383.022955 229.06356 385.225922 228.151061 386.849953 226.52703 
C 388.473984 224.902999 389.386483 222.700032 389.386483 220.403306 
C 389.386483 218.10658 388.473984 215.903612 386.849953 214.279581 
C 385.225922 212.655551 383.022955 211.743052 380.726229 211.743052 
C 378.429503 211.743052 376.226535 212.655551 374.602504 214.279581 
C 372.978474 215.903612 372.065975 218.10658 372.065975 220.403306 
C 372.065975 222.700032 372.978474 224.902999 374.602504 226.52703 
C 376.226535 228.151061 378.429503 229.06356 380.726229 229.06356 
z
" clip-path="url(#pf438884c93)" style="fill: #ffffff; stroke: #000000"/>
    <path d="M 380.726229 133.856948 
C 383.022955 133.856948 385.225922 132.944449 386.849953 131.320419 
C 388.473984 129.696388 389.386483 127.49342 389.386483 125.196694 
C 389.386483 122.899968 388.473984 120.697001 386.849953 119.07297 
C 385.225922 117.448939 383.022955 116.53644 380.726229 116.53644 
C 378.429503 116.53644 376.226535 117.448939 374.602504 119.07297 
C 372.978474 120.697001 372.065975 122.899968 372.065975 125.196694 
C 372.065975 127.49342 372.978474 129.696388 374.602504 131.320419 
C 376.226535 132.944449 378.429503 133.856948 380.726229 133.856948 
z
" clip-path="url(#pf438884c93)" style="fill: #ffffff; stroke: #000000"/>
    <path d="M 400.769726 133.856948 
C 403.066452 133.856948 405.26942 132.944449 406.89345 131.320419 
C 408.517481 129.696388 409.42998 127.49342 409.42998 125.196694 
C 409.42998 122.899968 408.517481 120.697001 406.89345 119.07297 
C 405.26942 117.448939 403.066452 116.53644 400.769726 116.53644 
C 398.473 116.53644 396.270032 117.448939 394.646002 119.07297 
C 393.021971 120.697001 392.109472 122.899968 392.109472 125.196694 
C 392.109472 127.49342 393.021971 129.696388 394.646002 131.320419 
C 396.270032 132.944449 398.473 133.856948 400.769726 133.856948 
z
" clip-path="url(#pf438884c93)" style="fill: #ffffff; stroke: #000000"/>
    <path d="M 400.769726 229.06356 
C 403.066452 229.06356 405.26942 228.151061 406.89345 226.52703 
C 408.517481 224.902999 409.42998 222.700032 409.42998 220.403306 
C 409.42998 218.10658 408.517481 215.903612 406.89345 214.279581 
C 405.26942 212.655551 403.066452 211.743052 400.769726 211.743052 
C 398.473 211.743052 396.270032 212.655551 394.646002 214.279581 
C 393.021971 215.903612 392.109472 218.10658 392.109472 220.403306 
C 392.109472 222.700032 393.021971 224.902999 394.646002 226.52703 
C 396.270032 228.151061 398.473 229.06356 400.769726 229.06356 
z
" clip-path="url(#pf438884c93)" style="fill: #ffffff; stroke: #000000"/>
    <path d="M 420.813223 133.856948 
C 423.109949 133.856948 425.312917 132.944449 426.936947 131.320419 
C 428.560978 129.696388 429.473477 127.49342 429.473477 125.196694 
C 429.473477 122.899968 428.560978 120.697001 426.936947 119.07297 
C 425.312917 117.448939 423.109949 116.53644 420.813223 116.53644 
C 418.516497 116.53644 416.313529 117.448939 414.689499 119.07297 
C 413.065468 120.697001 412.152969 122.899968 412.152969 125.196694 
C 412.152969 127.49342 413.065468 129.696388 414.689499 131.320419 
C 416.313529 132.944449 418.516497 133.856948 420.813223 133.856948 
z
" clip-path="url(#pf438884c93)" style="fill: #0000ff; stroke: #000000"/>
    <path d="M 420.813223 229.06356 
C 423.109949 229.06356 425.312917 228.151061 426.936947 226.52703 
C 428.560978 224.902999 429.473477 222.700032 429.473477 220.403306 
C 429.473477 218.10658 428.560978 215.903612 426.936947 214.279581 
C 425.312917 212.655551 423.109949 211.743052 420.813223 211.743052 
C 418.516497 211.743052 416.313529 212.655551 414.689499 214.279581 
C 413.065468 215.903612 412.152969 218.10658 412.152969 220.403306 
C 412.152969 222.700032 413.065468 224.902999 414.689499 226.52703 
C 416.313529 228.151061 418.516497 229.06356 420.813223 229.06356 
z
" clip-path="url(#pf438884c93)" style="fill: #ffffff; stroke: #000000"/>
   </g>
  </g>
 </g>
 <defs>
  <clipPath id="pf438884c93">
   <rect x="0" y="0" width="460.8" height="345.6"/>
  </clipPath>
 </defs>
</svg>
