<?xml version="1.0" encoding="utf-8" standalone="no"?>
<!DOCTYPE svg PUBLIC "-//W3C//DTD SVG 1.1//EN"
  "http://www.w3.org/Graphics/SVG/1.1/DTD/svg11.dtd">
<svg xmlns:xlink="http://www.w3.org/1999/xlink" width="460.8pt" height="345.6pt" viewBox="0 0 460.8 345.6" xmlns="http://www.w3.org/2000/svg" version="1.1">
 <metadata>
  <rdf:RDF xmlns:dc="http://purl.org/dc/elements/1.1/" xmlns:cc="http://creativecommons.org/ns#" xmlns:rdf="http://www.w3.org/1999/02/22-rdf-syntax-ns#">
   <cc:Work>
    <dc:type rdf:resource="http://purl.org/dc/dcmitype/StillImage"/>
    <dc:date>2025-11-06T03:06:16.535548</dc:date>
    <dc:format>image/svg+xml</dc:format>
    <dc:creator>
     <cc:Agent>
      <dc:title>Matplotlib v3.10.5, https://matplotlib.org/</dc:title>
     </cc:Agent>
    </dc:creator>
   </cc:Work>
  </rdf:RDF>
 </metadata>
 <defs>
  <style type="text/css">*{stroke-linejoin: round; stroke-linecap: butt}</style>
 </defs>
 <g id="figure_1">
  <g id="patch_1">
   <path d="M 0 345.6 
L 460.8 345.6 
L 460.8 0 
L 0 0 
z
" style="fill: #ffffff"/>
  </g>
  <g id="axes_1">
   <g id="patch_2">
    <path d="M 47.228881 310.857286 
Q 148.796068 244.20382 249.428525 178.16377 
" clip-path="url(#p97e2c714bf)" style="fill: none; stroke: #4c4c4c; stroke-linecap: round"/>
    <path d="M 248.096073 178.320529 
L 249.428525 178.16377 
L 248.754461 179.323787 
" clip-path="url(#p97e2c714bf)" style="fill: none; stroke: #4c4c4c; stroke-linecap: round"/>
   </g>
   <g id="patch_3">
    <path d="M 44.947668 308.506823 
Q 49.055605 302.625004 52.523369 297.659797 
" clip-path="url(#p97e2c714bf)" style="fill: none; stroke: #4c4c4c; stroke-linecap: round"/>
    <path d="M 51.344357 298.300055 
L 52.523369 297.659797 
L 52.328168 298.987162 
" clip-path="url(#p97e2c714bf)" style="fill: none; stroke: #4c4c4c; stroke-linecap: round"/>
   </g>
   <g id="patch_4">
    <path d="M 40.590286 306.96877 
Q 49.054218 185.780649 57.440255 65.707846 
" clip-path="url(#p97e2c714bf)" style="fill: none; stroke: #4c4c4c; stroke-linecap: round"/>
    <path d="M 56.758107 66.863127 
L 57.440255 65.707846 
L 57.955191 66.946733 
" clip-path="url(#p97e2c714bf)" style="fill: none; stroke: #4c4c4c; stroke-linecap: round"/>
   </g>
   <g id="patch_5">
    <path d="M 47.291142 284.996246 
Q 121.591746 237.714043 194.949109 191.032085 
" clip-path="url(#p97e2c714bf)" style="fill: none; stroke: #4c4c4c; stroke-linecap: round"/>
    <path d="M 193.614589 191.170139 
L 194.949109 191.032085 
L 194.25884 192.182532 
" clip-path="url(#p97e2c714bf)" style="fill: none; stroke: #4c4c4c; stroke-linecap: round"/>
   </g>
   <g id="patch_6">
    <path d="M 44.947668 282.541383 
Q 49.055605 276.659564 52.523369 271.694358 
" clip-path="url(#p97e2c714bf)" style="fill: none; stroke: #4c4c4c; stroke-linecap: round"/>
    <path d="M 51.344357 272.334616 
L 52.523369 271.694358 
L 52.328168 273.021722 
" clip-path="url(#p97e2c714bf)" style="fill: none; stroke: #4c4c4c; stroke-linecap: round"/>
   </g>
   <g id="patch_7">
    <path d="M 48.651181 289.644478 
Q 49.055791 289.644478 48.342367 289.644478 
" clip-path="url(#p97e2c714bf)" style="fill: none; stroke: #4c4c4c; stroke-linecap: round"/>
    <path d="M 47.142367 289.044478 
L 48.342367 289.644478 
L 47.142367 290.244478 
" clip-path="url(#p97e2c714bf)" style="fill: none; stroke: #4c4c4c; stroke-linecap: round"/>
   </g>
   <g id="patch_8">
    <path d="M 48.022491 286.408505 
Q 185.062867 231.222501 321.066143 176.454136 
" clip-path="url(#p97e2c714bf)" style="fill: none; stroke: #4c4c4c; stroke-linecap: round"/>
    <path d="M 319.728882 176.345827 
L 321.066143 176.454136 
L 320.177139 177.45896 
" clip-path="url(#p97e2c714bf)" style="fill: none; stroke: #4c4c4c; stroke-linecap: round"/>
   </g>
   <g id="patch_9">
    <path d="M 41.805881 281.179442 
Q 58.121256 205.257329 74.201732 130.428296 
" clip-path="url(#p97e2c714bf)" style="fill: none; stroke: #4c4c4c; stroke-linecap: round"/>
    <path d="M 73.363004 131.475452 
L 74.201732 130.428296 
L 74.53622 131.727571 
" clip-path="url(#p97e2c714bf)" style="fill: none; stroke: #4c4c4c; stroke-linecap: round"/>
   </g>
   <g id="patch_10">
    <path d="M 43.197742 281.598821 
Q 58.122265 244.202714 72.632373 207.845 
" clip-path="url(#p97e2c714bf)" style="fill: none; stroke: #4c4c4c; stroke-linecap: round"/>
    <path d="M 71.630316 208.737122 
L 72.632373 207.845 
L 72.744836 209.181919 
" clip-path="url(#p97e2c714bf)" style="fill: none; stroke: #4c4c4c; stroke-linecap: round"/>
   </g>
   <g id="patch_11">
    <path d="M 43.069901 281.551277 
Q 67.188322 218.240422 90.908728 155.974357 
" clip-path="url(#p97e2c714bf)" style="fill: none; stroke: #4c4c4c; stroke-linecap: round"/>
    <path d="M 89.920841 156.882145 
L 90.908728 155.974357 
L 91.042226 157.30934 
" clip-path="url(#p97e2c714bf)" style="fill: none; stroke: #4c4c4c; stroke-linecap: round"/>
   </g>
   <g id="patch_12">
    <path d="M 45.890702 257.339027 
Q 76.256268 224.730551 105.859905 192.940282 
" clip-path="url(#p97e2c714bf)" style="fill: none; stroke: #4c4c4c; stroke-linecap: round"/>
    <path d="M 104.60302 193.409581 
L 105.859905 192.940282 
L 105.481213 194.227369 
" clip-path="url(#p97e2c714bf)" style="fill: none; stroke: #4c4c4c; stroke-linecap: round"/>
   </g>
   <g id="patch_13">
    <path d="M 48.432993 261.769547 
Q 212.263792 224.731244 375.004078 187.939481 
" clip-path="url(#p97e2c714bf)" style="fill: none; stroke: #4c4c4c; stroke-linecap: round"/>
    <path d="M 373.70131 187.618864 
L 375.004078 187.939481 
L 373.965924 188.789325 
" clip-path="url(#p97e2c714bf)" style="fill: none; stroke: #4c4c4c; stroke-linecap: round"/>
   </g>
   <g id="patch_14">
    <path d="M 48.206505 260.963079 
Q 157.859108 224.731712 266.450127 188.851113 
" clip-path="url(#p97e2c714bf)" style="fill: none; stroke: #4c4c4c; stroke-linecap: round"/>
    <path d="M 265.122473 188.657891 
L 266.450127 188.851113 
L 265.498957 189.797303 
" clip-path="url(#p97e2c714bf)" style="fill: none; stroke: #4c4c4c; stroke-linecap: round"/>
   </g>
   <g id="patch_15">
    <path d="M 47.617385 259.581922 
Q 112.525533 224.730672 176.448656 190.408314 
" clip-path="url(#p97e2c714bf)" style="fill: none; stroke: #4c4c4c; stroke-linecap: round"/>
    <path d="M 175.107583 190.447359 
L 176.448656 190.408314 
L 175.675249 191.504599 
" clip-path="url(#p97e2c714bf)" style="fill: none; stroke: #4c4c4c; stroke-linecap: round"/>
   </g>
   <g id="patch_16">
    <path d="M 48.280525 261.179009 
Q 212.265172 211.74823 375.17936 162.640126 
" clip-path="url(#p97e2c714bf)" style="fill: none; stroke: #4c4c4c; stroke-linecap: round"/>
    <path d="M 373.857258 162.411988 
L 375.17936 162.640126 
L 374.203588 163.560924 
" clip-path="url(#p97e2c714bf)" style="fill: none; stroke: #4c4c4c; stroke-linecap: round"/>
   </g>
   <g id="patch_17">
    <path d="M 47.291142 259.030806 
Q 121.591746 211.748603 194.949109 165.066645 
" clip-path="url(#p97e2c714bf)" style="fill: none; stroke: #4c4c4c; stroke-linecap: round"/>
    <path d="M 193.614589 165.204699 
L 194.949109 165.066645 
L 194.25884 166.217093 
" clip-path="url(#p97e2c714bf)" style="fill: none; stroke: #4c4c4c; stroke-linecap: round"/>
   </g>
   <g id="patch_18">
    <path d="M 48.137603 234.795973 
Q 112.52429 211.748466 175.858349 189.077752 
" clip-path="url(#p97e2c714bf)" style="fill: none; stroke: #4c4c4c; stroke-linecap: round"/>
    <path d="M 174.526341 188.917269 
L 175.858349 189.077752 
L 174.930758 190.047069 
" clip-path="url(#p97e2c714bf)" style="fill: none; stroke: #4c4c4c; stroke-linecap: round"/>
   </g>
   <g id="patch_19">
    <path d="M 48.548659 236.423172 
Q 212.26412 211.748353 374.874033 187.240161 
" clip-path="url(#p97e2c714bf)" style="fill: none; stroke: #4c4c4c; stroke-linecap: round"/>
    <path d="M 373.598014 186.825703 
L 374.874033 187.240161 
L 373.776855 188.012301 
" clip-path="url(#p97e2c714bf)" style="fill: none; stroke: #4c4c4c; stroke-linecap: round"/>
   </g>
   <g id="patch_20">
    <path d="M 41.184939 229.135844 
Q 49.054374 172.79785 56.769139 117.56714 
" clip-path="url(#p97e2c714bf)" style="fill: none; stroke: #4c4c4c; stroke-linecap: round"/>
    <path d="M 56.008901 118.672598 
L 56.769139 117.56714 
L 57.197363 118.838605 
" clip-path="url(#p97e2c714bf)" style="fill: none; stroke: #4c4c4c; stroke-linecap: round"/>
   </g>
   <g id="patch_21">
    <path d="M 43.197742 229.667942 
Q 58.122265 192.271835 72.632373 155.914121 
" clip-path="url(#p97e2c714bf)" style="fill: none; stroke: #4c4c4c; stroke-linecap: round"/>
    <path d="M 71.630316 156.806243 
L 72.632373 155.914121 
L 72.744836 157.25104 
" clip-path="url(#p97e2c714bf)" style="fill: none; stroke: #4c4c4c; stroke-linecap: round"/>
   </g>
   <g id="patch_22">
    <path d="M 47.028542 232.672335 
Q 76.256962 211.747444 104.576299 191.473373 
" clip-path="url(#p97e2c714bf)" style="fill: none; stroke: #4c4c4c; stroke-linecap: round"/>
    <path d="M 103.251301 191.684042 
L 104.576299 191.473373 
L 103.949835 192.659772 
" clip-path="url(#p97e2c714bf)" style="fill: none; stroke: #4c4c4c; stroke-linecap: round"/>
   </g>
   <g id="patch_23">
    <path d="M 48.651181 211.748159 
Q 49.055791 211.748159 48.342367 211.748159 
" clip-path="url(#p97e2c714bf)" style="fill: none; stroke: #4c4c4c; stroke-linecap: round"/>
    <path d="M 47.142367 211.148159 
L 48.342367 211.748159 
L 47.142367 212.348159 
" clip-path="url(#p97e2c714bf)" style="fill: none; stroke: #4c4c4c; stroke-linecap: round"/>
   </g>
   <g id="patch_24">
    <path d="M 48.622264 211.097399 
Q 212.26598 198.765396 374.794823 186.517409 
" clip-path="url(#p97e2c714bf)" style="fill: none; stroke: #4c4c4c; stroke-linecap: round"/>
    <path d="M 373.553129 186.009281 
L 374.794823 186.517409 
L 373.643304 187.205888 
" clip-path="url(#p97e2c714bf)" style="fill: none; stroke: #4c4c4c; stroke-linecap: round"/>
   </g>
   <g id="patch_25">
    <path d="M 48.410995 209.737835 
Q 67.189817 205.256525 84.881142 201.034731 
" clip-path="url(#p97e2c714bf)" style="fill: none; stroke: #4c4c4c; stroke-linecap: round"/>
    <path d="M 83.574646 200.729661 
L 84.881142 201.034731 
L 83.853188 201.896886 
" clip-path="url(#p97e2c714bf)" style="fill: none; stroke: #4c4c4c; stroke-linecap: round"/>
   </g>
   <g id="patch_26">
    <path d="M 44.947668 218.851254 
Q 49.055605 224.733073 52.523369 229.698279 
" clip-path="url(#p97e2c714bf)" style="fill: none; stroke: #4c4c4c; stroke-linecap: round"/>
    <path d="M 52.328168 228.370915 
L 52.523369 229.698279 
L 51.344357 229.058021 
" clip-path="url(#p97e2c714bf)" style="fill: none; stroke: #4c4c4c; stroke-linecap: round"/>
   </g>
   <g id="patch_27">
    <path d="M 48.562079 210.520332 
Q 130.662134 198.765097 211.655441 187.168328 
" clip-path="url(#p97e2c714bf)" style="fill: none; stroke: #4c4c4c; stroke-linecap: round"/>
    <path d="M 210.382514 186.744469 
L 211.655441 187.168328 
L 210.552598 187.932354 
" clip-path="url(#p97e2c714bf)" style="fill: none; stroke: #4c4c4c; stroke-linecap: round"/>
   </g>
   <g id="patch_28">
    <path d="M 48.630151 185.267064 
Q 148.793797 179.291392 247.841394 173.382302 
" clip-path="url(#p97e2c714bf)" style="fill: none; stroke: #4c4c4c; stroke-linecap: round"/>
    <path d="M 246.607792 172.854831 
L 247.841394 173.382302 
L 246.679256 174.052701 
" clip-path="url(#p97e2c714bf)" style="fill: none; stroke: #4c4c4c; stroke-linecap: round"/>
   </g>
   <g id="patch_29">
    <path d="M 48.648552 185.78272 
Q 212.266648 185.78272 374.766711 185.78272 
" clip-path="url(#p97e2c714bf)" style="fill: none; stroke: #4c4c4c; stroke-linecap: round"/>
    <path d="M 373.566711 185.18272 
L 374.766711 185.78272 
L 373.566711 186.38272 
" clip-path="url(#p97e2c714bf)" style="fill: none; stroke: #4c4c4c; stroke-linecap: round"/>
   </g>
   <g id="patch_30">
    <path d="M 48.651181 185.78272 
Q 49.055791 185.78272 48.342367 185.78272 
" clip-path="url(#p97e2c714bf)" style="fill: none; stroke: #4c4c4c; stroke-linecap: round"/>
    <path d="M 47.142367 185.18272 
L 48.342367 185.78272 
L 47.142367 186.38272 
" clip-path="url(#p97e2c714bf)" style="fill: none; stroke: #4c4c4c; stroke-linecap: round"/>
   </g>
   <g id="patch_31">
    <path d="M 45.890702 179.442709 
Q 58.121875 166.308097 69.591119 153.991694 
" clip-path="url(#p97e2c714bf)" style="fill: none; stroke: #4c4c4c; stroke-linecap: round"/>
    <path d="M 68.334234 154.460992 
L 69.591119 153.991694 
L 69.212427 155.278781 
" clip-path="url(#p97e2c714bf)" style="fill: none; stroke: #4c4c4c; stroke-linecap: round"/>
   </g>
   <g id="patch_32">
    <path d="M 48.651181 185.78272 
Q 112.525775 185.78272 175.282335 185.78272 
" clip-path="url(#p97e2c714bf)" style="fill: none; stroke: #4c4c4c; stroke-linecap: round"/>
    <path d="M 174.082335 185.18272 
L 175.282335 185.78272 
L 174.082335 186.38272 
" clip-path="url(#p97e2c714bf)" style="fill: none; stroke: #4c4c4c; stroke-linecap: round"/>
   </g>
   <g id="patch_33">
    <path d="M 48.630151 160.332936 
Q 148.793797 166.308608 247.841394 172.217698 
" clip-path="url(#p97e2c714bf)" style="fill: none; stroke: #4c4c4c; stroke-linecap: round"/>
    <path d="M 246.679256 171.547299 
L 247.841394 172.217698 
L 246.607792 172.745169 
" clip-path="url(#p97e2c714bf)" style="fill: none; stroke: #4c4c4c; stroke-linecap: round"/>
   </g>
   <g id="patch_34">
    <path d="M 48.651181 159.81728 
Q 49.055791 159.81728 48.342367 159.81728 
" clip-path="url(#p97e2c714bf)" style="fill: none; stroke: #4c4c4c; stroke-linecap: round"/>
    <path d="M 47.142367 159.21728 
L 48.342367 159.81728 
L 47.142367 160.41728 
" clip-path="url(#p97e2c714bf)" style="fill: none; stroke: #4c4c4c; stroke-linecap: round"/>
   </g>
   <g id="patch_35">
    <path d="M 48.510611 135.377413 
Q 148.795364 153.326105 247.979572 171.077824 
" clip-path="url(#p97e2c714bf)" style="fill: none; stroke: #4c4c4c; stroke-linecap: round"/>
    <path d="M 246.904048 170.275796 
L 247.979572 171.077824 
L 246.692635 171.457026 
" clip-path="url(#p97e2c714bf)" style="fill: none; stroke: #4c4c4c; stroke-linecap: round"/>
   </g>
   <g id="patch_36">
    <path d="M 48.410995 135.862165 
Q 67.189817 140.343475 84.881142 144.565269 
" clip-path="url(#p97e2c714bf)" style="fill: none; stroke: #4c4c4c; stroke-linecap: round"/>
    <path d="M 83.853188 143.703114 
L 84.881142 144.565269 
L 83.574646 144.870339 
" clip-path="url(#p97e2c714bf)" style="fill: none; stroke: #4c4c4c; stroke-linecap: round"/>
   </g>
   <g id="patch_37">
    <path d="M 48.265444 136.391886 
Q 103.456203 153.325415 157.578106 169.930999 
" clip-path="url(#p97e2c714bf)" style="fill: none; stroke: #4c4c4c; stroke-linecap: round"/>
    <path d="M 156.606883 169.005404 
L 157.578106 169.930999 
L 156.254897 170.15262 
" clip-path="url(#p97e2c714bf)" style="fill: none; stroke: #4c4c4c; stroke-linecap: round"/>
   </g>
   <g id="patch_38">
    <path d="M 48.137603 130.934215 
Q 58.120788 127.360689 67.051344 124.163956 
" clip-path="url(#p97e2c714bf)" style="fill: none; stroke: #4c4c4c; stroke-linecap: round"/>
    <path d="M 65.719336 124.003473 
L 67.051344 124.163956 
L 66.123753 125.133273 
" clip-path="url(#p97e2c714bf)" style="fill: none; stroke: #4c4c4c; stroke-linecap: round"/>
   </g>
   <g id="patch_39">
    <path d="M 48.284814 110.361668 
Q 148.792846 140.342757 248.229494 170.004257 
" clip-path="url(#p97e2c714bf)" style="fill: none; stroke: #4c4c4c; stroke-linecap: round"/>
    <path d="M 247.251074 169.086274 
L 248.229494 170.004257 
L 246.908055 170.236203 
" clip-path="url(#p97e2c714bf)" style="fill: none; stroke: #4c4c4c; stroke-linecap: round"/>
   </g>
   <g id="patch_40">
    <path d="M 48.432993 109.795893 
Q 212.263792 146.834195 375.004078 183.625959 
" clip-path="url(#p97e2c714bf)" style="fill: none; stroke: #4c4c4c; stroke-linecap: round"/>
    <path d="M 373.965924 182.776114 
L 375.004078 183.625959 
L 373.70131 183.946575 
" clip-path="url(#p97e2c714bf)" style="fill: none; stroke: #4c4c4c; stroke-linecap: round"/>
   </g>
   <g id="patch_41">
    <path d="M 42.841337 99.711979 
Q 49.05398 81.92123 54.898026 65.186007 
" clip-path="url(#p97e2c714bf)" style="fill: none; stroke: #4c4c4c; stroke-linecap: round"/>
    <path d="M 53.935951 66.121107 
L 54.898026 65.186007 
L 55.068861 66.516727 
" clip-path="url(#p97e2c714bf)" style="fill: none; stroke: #4c4c4c; stroke-linecap: round"/>
   </g>
   <g id="patch_42">
    <path d="M 47.699845 111.830584 
Q 103.459307 140.343945 158.223334 168.348277 
" clip-path="url(#p97e2c714bf)" style="fill: none; stroke: #4c4c4c; stroke-linecap: round"/>
    <path d="M 157.428096 167.267724 
L 158.223334 168.348277 
L 156.881749 168.336136 
" clip-path="url(#p97e2c714bf)" style="fill: none; stroke: #4c4c4c; stroke-linecap: round"/>
   </g>
   <g id="patch_43">
    <path d="M 44.947668 100.783307 
Q 49.055605 94.901488 52.523369 89.936281 
" clip-path="url(#p97e2c714bf)" style="fill: none; stroke: #4c4c4c; stroke-linecap: round"/>
    <path d="M 51.344357 90.576539 
L 52.523369 89.936281 
L 52.328168 91.263646 
" clip-path="url(#p97e2c714bf)" style="fill: none; stroke: #4c4c4c; stroke-linecap: round"/>
   </g>
   <g id="patch_44">
    <path d="M 47.979324 85.258758 
Q 148.793973 127.36033 248.576937 169.031057 
" clip-path="url(#p97e2c714bf)" style="fill: none; stroke: #4c4c4c; stroke-linecap: round"/>
    <path d="M 247.700833 168.014965 
L 248.576937 169.031057 
L 247.238402 169.122285 
" clip-path="url(#p97e2c714bf)" style="fill: none; stroke: #4c4c4c; stroke-linecap: round"/>
   </g>
   <g id="patch_45">
    <path d="M 48.280525 84.420991 
Q 212.265172 133.85177 375.17936 182.959874 
" clip-path="url(#p97e2c714bf)" style="fill: none; stroke: #4c4c4c; stroke-linecap: round"/>
    <path d="M 374.203588 182.039076 
L 375.17936 182.959874 
L 373.857258 183.188012 
" clip-path="url(#p97e2c714bf)" style="fill: none; stroke: #4c4c4c; stroke-linecap: round"/>
   </g>
   <g id="patch_46">
    <path d="M 42.841337 90.095384 
Q 49.05398 107.886133 54.898026 124.621356 
" clip-path="url(#p97e2c714bf)" style="fill: none; stroke: #4c4c4c; stroke-linecap: round"/>
    <path d="M 55.068861 123.290636 
L 54.898026 124.621356 
L 53.935951 123.686256 
" clip-path="url(#p97e2c714bf)" style="fill: none; stroke: #4c4c4c; stroke-linecap: round"/>
   </g>
   <g id="patch_47">
    <path d="M 45.550347 88.559312 
Q 67.187716 114.376627 88.106931 139.337055 
" clip-path="url(#p97e2c714bf)" style="fill: none; stroke: #4c4c4c; stroke-linecap: round"/>
    <path d="M 87.795982 138.031945 
L 88.106931 139.337055 
L 86.876274 138.802748 
" clip-path="url(#p97e2c714bf)" style="fill: none; stroke: #4c4c4c; stroke-linecap: round"/>
   </g>
   <g id="patch_48">
    <path d="M 48.237496 84.546191 
Q 203.198004 133.851807 357.093107 182.818431 
" clip-path="url(#p97e2c714bf)" style="fill: none; stroke: #4c4c4c; stroke-linecap: round"/>
    <path d="M 356.131519 181.882831 
L 357.093107 182.818431 
L 355.767674 183.026342 
" clip-path="url(#p97e2c714bf)" style="fill: none; stroke: #4c4c4c; stroke-linecap: round"/>
   </g>
   <g id="patch_49">
    <path d="M 47.614064 60.050856 
Q 148.793424 114.377273 248.987759 168.1748 
" clip-path="url(#p97e2c714bf)" style="fill: none; stroke: #4c4c4c; stroke-linecap: round"/>
    <path d="M 248.214352 167.078514 
L 248.987759 168.1748 
L 247.646687 168.135754 
" clip-path="url(#p97e2c714bf)" style="fill: none; stroke: #4c4c4c; stroke-linecap: round"/>
   </g>
   <g id="patch_50">
    <path d="M 48.091254 59.009243 
Q 212.265745 120.869248 375.394007 182.335041 
" clip-path="url(#p97e2c714bf)" style="fill: none; stroke: #4c4c4c; stroke-linecap: round"/>
    <path d="M 374.482633 181.350461 
L 375.394007 182.335041 
L 374.059519 182.473392 
" clip-path="url(#p97e2c714bf)" style="fill: none; stroke: #4c4c4c; stroke-linecap: round"/>
   </g>
   <g id="patch_51">
    <path d="M 46.439699 61.730154 
Q 112.524823 120.86883 177.776803 179.261938 
" clip-path="url(#p97e2c714bf)" style="fill: none; stroke: #4c4c4c; stroke-linecap: round"/>
    <path d="M 177.282694 178.014598 
L 177.776803 179.261938 
L 176.482466 178.908821 
" clip-path="url(#p97e2c714bf)" style="fill: none; stroke: #4c4c4c; stroke-linecap: round"/>
   </g>
   <g id="patch_52">
    <path d="M 47.228881 34.742714 
Q 148.796068 101.39618 249.428525 167.43623 
" clip-path="url(#p97e2c714bf)" style="fill: none; stroke: #4c4c4c; stroke-linecap: round"/>
    <path d="M 248.754461 166.276213 
L 249.428525 167.43623 
L 248.096073 167.279471 
" clip-path="url(#p97e2c714bf)" style="fill: none; stroke: #4c4c4c; stroke-linecap: round"/>
   </g>
   <g id="patch_53">
    <path d="M 47.029095 35.031742 
Q 130.660837 94.904467 213.383495 154.12637 
" clip-path="url(#p97e2c714bf)" style="fill: none; stroke: #4c4c4c; stroke-linecap: round"/>
    <path d="M 212.757032 152.93997 
L 213.383495 154.12637 
L 212.058498 153.915701 
" clip-path="url(#p97e2c714bf)" style="fill: none; stroke: #4c4c4c; stroke-linecap: round"/>
   </g>
   <g id="patch_54">
    <path d="M 42.841337 38.164505 
Q 49.05398 55.955254 54.898026 72.690477 
" clip-path="url(#p97e2c714bf)" style="fill: none; stroke: #4c4c4c; stroke-linecap: round"/>
    <path d="M 55.068861 71.359757 
L 54.898026 72.690477 
L 53.935951 71.755377 
" clip-path="url(#p97e2c714bf)" style="fill: none; stroke: #4c4c4c; stroke-linecap: round"/>
   </g>
   <g id="patch_55">
    <path d="M 44.947668 37.093177 
Q 49.055605 42.974996 52.523369 47.940203 
" clip-path="url(#p97e2c714bf)" style="fill: none; stroke: #4c4c4c; stroke-linecap: round"/>
    <path d="M 52.328168 46.612838 
L 52.523369 47.940203 
L 51.344357 47.299945 
" clip-path="url(#p97e2c714bf)" style="fill: none; stroke: #4c4c4c; stroke-linecap: round"/>
   </g>
   <g id="patch_56">
    <path d="M 41.951432 38.429167 
Q 49.054894 68.941768 55.904852 98.365453 
" clip-path="url(#p97e2c714bf)" style="fill: none; stroke: #4c4c4c; stroke-linecap: round"/>
    <path d="M 56.217136 97.060662 
L 55.904852 98.365453 
L 55.04839 97.332751 
" clip-path="url(#p97e2c714bf)" style="fill: none; stroke: #4c4c4c; stroke-linecap: round"/>
   </g>
   <g id="patch_57">
    <path d="M 62.347314 89.484442 
Q 76.257687 114.380848 89.622729 138.301235 
" clip-path="url(#p97e2c714bf)" style="fill: none; stroke: #4c4c4c; stroke-linecap: round"/>
    <path d="M 89.561204 136.961006 
L 89.622729 138.301235 
L 88.513631 137.546317 
" clip-path="url(#p97e2c714bf)" style="fill: none; stroke: #4c4c4c; stroke-linecap: round"/>
   </g>
   <g id="patch_58">
    <path d="M 64.825269 87.405971 
Q 121.592415 133.851817 177.49425 179.589682 
" clip-path="url(#p97e2c714bf)" style="fill: none; stroke: #4c4c4c; stroke-linecap: round"/>
    <path d="M 176.945444 178.365422 
L 177.49425 179.589682 
L 176.185559 179.294171 
" clip-path="url(#p97e2c714bf)" style="fill: none; stroke: #4c4c4c; stroke-linecap: round"/>
   </g>
   <g id="patch_59">
    <path d="M 65.163135 232.672335 
Q 67.187521 231.223058 68.302825 230.424602 
" clip-path="url(#p97e2c714bf)" style="fill: none; stroke: #4c4c4c; stroke-linecap: round"/>
    <path d="M 66.977828 230.635271 
L 68.302825 230.424602 
L 67.676362 231.611002 
" clip-path="url(#p97e2c714bf)" style="fill: none; stroke: #4c4c4c; stroke-linecap: round"/>
   </g>
   <g id="patch_60">
    <path d="M 66.167876 286.444163 
Q 221.332289 224.731044 375.457823 163.431116 
" clip-path="url(#p97e2c714bf)" style="fill: none; stroke: #4c4c4c; stroke-linecap: round"/>
    <path d="M 374.121037 163.317077 
L 375.457823 163.431116 
L 374.564521 164.432121 
" clip-path="url(#p97e2c714bf)" style="fill: none; stroke: #4c4c4c; stroke-linecap: round"/>
   </g>
   <g id="patch_61">
    <path d="M 62.140887 281.970854 
Q 85.324136 237.711925 107.988609 194.443385 
" clip-path="url(#p97e2c714bf)" style="fill: none; stroke: #4c4c4c; stroke-linecap: round"/>
    <path d="M 106.900301 195.227979 
L 107.988609 194.443385 
L 107.963299 195.784787 
" clip-path="url(#p97e2c714bf)" style="fill: none; stroke: #4c4c4c; stroke-linecap: round"/>
   </g>
   <g id="patch_62">
    <path d="M 61.777287 141.703755 
Q 67.188233 153.32499 72.127258 163.93267 
" clip-path="url(#p97e2c714bf)" style="fill: none; stroke: #4c4c4c; stroke-linecap: round"/>
    <path d="M 72.164672 162.591551 
L 72.127258 163.93267 
L 71.076811 163.098068 
" clip-path="url(#p97e2c714bf)" style="fill: none; stroke: #4c4c4c; stroke-linecap: round"/>
   </g>
   <g id="patch_63">
    <path d="M 60.451284 142.191875 
Q 67.188819 166.309188 73.625533 189.349698 
" clip-path="url(#p97e2c714bf)" style="fill: none; stroke: #4c4c4c; stroke-linecap: round"/>
    <path d="M 73.880531 188.032513 
L 73.625533 189.349698 
L 72.724784 188.355388 
" clip-path="url(#p97e2c714bf)" style="fill: none; stroke: #4c4c4c; stroke-linecap: round"/>
   </g>
   <g id="patch_64">
    <path d="M 60.451284 203.408125 
Q 67.188819 179.290812 73.625533 156.250302 
" clip-path="url(#p97e2c714bf)" style="fill: none; stroke: #4c4c4c; stroke-linecap: round"/>
    <path d="M 72.724784 157.244612 
L 73.625533 156.250302 
L 73.880531 157.567487 
" clip-path="url(#p97e2c714bf)" style="fill: none; stroke: #4c4c4c; stroke-linecap: round"/>
   </g>
   <g id="patch_65">
    <path d="M 66.692521 210.520926 
Q 194.129174 192.274315 320.45908 174.186169 
" clip-path="url(#p97e2c714bf)" style="fill: none; stroke: #4c4c4c; stroke-linecap: round"/>
    <path d="M 319.186153 173.76231 
L 320.45908 174.186169 
L 319.356237 174.950195 
" clip-path="url(#p97e2c714bf)" style="fill: none; stroke: #4c4c4c; stroke-linecap: round"/>
   </g>
   <g id="patch_66">
    <path d="M 60.451284 64.295557 
Q 67.188819 88.41287 73.625533 111.453379 
" clip-path="url(#p97e2c714bf)" style="fill: none; stroke: #4c4c4c; stroke-linecap: round"/>
    <path d="M 73.880531 110.136194 
L 73.625533 111.453379 
L 72.724784 110.45907 
" clip-path="url(#p97e2c714bf)" style="fill: none; stroke: #4c4c4c; stroke-linecap: round"/>
   </g>
   <g id="patch_67">
    <path d="M 66.543097 109.896132 
Q 194.128452 140.342637 320.626309 170.529625 
" clip-path="url(#p97e2c714bf)" style="fill: none; stroke: #4c4c4c; stroke-linecap: round"/>
    <path d="M 319.598355 169.66747 
L 320.626309 170.529625 
L 319.319812 170.834695 
" clip-path="url(#p97e2c714bf)" style="fill: none; stroke: #4c4c4c; stroke-linecap: round"/>
   </g>
   <g id="patch_68">
    <path d="M 66.372089 110.51163 
Q 139.726324 133.851614 212.015156 156.852606 
" clip-path="url(#p97e2c714bf)" style="fill: none; stroke: #4c4c4c; stroke-linecap: round"/>
    <path d="M 211.053567 155.917006 
L 212.015156 156.852606 
L 210.689723 157.060517 
" clip-path="url(#p97e2c714bf)" style="fill: none; stroke: #4c4c4c; stroke-linecap: round"/>
   </g>
   <g id="patch_69">
    <path d="M 66.753121 160.503897 
Q 221.330452 172.799821 374.793269 185.00709 
" clip-path="url(#p97e2c714bf)" style="fill: none; stroke: #4c4c4c; stroke-linecap: round"/>
    <path d="M 373.644625 184.313826 
L 374.793269 185.00709 
L 373.549471 185.510047 
" clip-path="url(#p97e2c714bf)" style="fill: none; stroke: #4c4c4c; stroke-linecap: round"/>
   </g>
   <g id="patch_70">
    <path d="M 64.025295 179.442709 
Q 76.256468 166.308097 87.725711 153.991694 
" clip-path="url(#p97e2c714bf)" style="fill: none; stroke: #4c4c4c; stroke-linecap: round"/>
    <path d="M 86.468827 154.460992 
L 87.725711 153.991694 
L 87.34702 155.278781 
" clip-path="url(#p97e2c714bf)" style="fill: none; stroke: #4c4c4c; stroke-linecap: round"/>
   </g>
   <g id="patch_71">
    <path d="M 66.546418 261.668516 
Q 221.331041 224.731276 375.028167 188.053553 
" clip-path="url(#p97e2c714bf)" style="fill: none; stroke: #4c4c4c; stroke-linecap: round"/>
    <path d="M 373.721671 187.748482 
L 375.028167 188.053553 
L 374.000213 188.915707 
" clip-path="url(#p97e2c714bf)" style="fill: none; stroke: #4c4c4c; stroke-linecap: round"/>
   </g>
   <g id="patch_72">
    <path d="M 79.110522 155.008983 
Q 85.323165 172.799732 91.167211 189.534955 
" clip-path="url(#p97e2c714bf)" style="fill: none; stroke: #4c4c4c; stroke-linecap: round"/>
    <path d="M 91.338047 188.204235 
L 91.167211 189.534955 
L 90.205137 188.599854 
" clip-path="url(#p97e2c714bf)" style="fill: none; stroke: #4c4c4c; stroke-linecap: round"/>
   </g>
   <g id="patch_73">
    <path d="M 81.216854 153.937655 
Q 85.324791 159.819474 88.792554 164.784681 
" clip-path="url(#p97e2c714bf)" style="fill: none; stroke: #4c4c4c; stroke-linecap: round"/>
    <path d="M 88.597353 163.457316 
L 88.792554 164.784681 
L 87.613542 164.144422 
" clip-path="url(#p97e2c714bf)" style="fill: none; stroke: #4c4c4c; stroke-linecap: round"/>
   </g>
   <g id="patch_74">
    <path d="M 81.216854 127.972215 
Q 85.324791 133.854034 88.792554 138.819241 
" clip-path="url(#p97e2c714bf)" style="fill: none; stroke: #4c4c4c; stroke-linecap: round"/>
    <path d="M 88.597353 137.491877 
L 88.792554 138.819241 
L 87.613542 138.178983 
" clip-path="url(#p97e2c714bf)" style="fill: none; stroke: #4c4c4c; stroke-linecap: round"/>
   </g>
   <g id="patch_75">
    <path d="M 84.707851 122.759991 
Q 221.331147 153.325572 356.86338 183.647059 
" clip-path="url(#p97e2c714bf)" style="fill: none; stroke: #4c4c4c; stroke-linecap: round"/>
    <path d="M 355.823323 182.799544 
L 356.86338 183.647059 
L 355.561334 183.970595 
" clip-path="url(#p97e2c714bf)" style="fill: none; stroke: #4c4c4c; stroke-linecap: round"/>
   </g>
   <g id="patch_76">
    <path d="M 78.220617 216.291794 
Q 85.324079 185.779194 92.174038 156.355509 
" clip-path="url(#p97e2c714bf)" style="fill: none; stroke: #4c4c4c; stroke-linecap: round"/>
    <path d="M 91.317576 157.388211 
L 92.174038 156.355509 
L 92.486322 157.6603 
" clip-path="url(#p97e2c714bf)" style="fill: none; stroke: #4c4c4c; stroke-linecap: round"/>
   </g>
   <g id="patch_77">
    <path d="M 84.914278 172.8 
Q 121.590354 172.8 157.148395 172.8 
" clip-path="url(#p97e2c714bf)" style="fill: none; stroke: #4c4c4c; stroke-linecap: round"/>
    <path d="M 155.948395 172.2 
L 157.148395 172.8 
L 155.948395 173.4 
" clip-path="url(#p97e2c714bf)" style="fill: none; stroke: #4c4c4c; stroke-linecap: round"/>
   </g>
   <g id="patch_78">
    <path d="M 102.541381 149.752186 
Q 130.657878 159.816614 157.721747 169.504248 
" clip-path="url(#p97e2c714bf)" style="fill: none; stroke: #4c4c4c; stroke-linecap: round"/>
    <path d="M 156.794156 168.534932 
L 157.721747 169.504248 
L 156.389739 169.664731 
" clip-path="url(#p97e2c714bf)" style="fill: none; stroke: #4c4c4c; stroke-linecap: round"/>
   </g>
   <g id="patch_79">
    <path d="M 102.346023 150.251796 
Q 139.725152 166.307831 176.077009 181.922606 
" clip-path="url(#p97e2c714bf)" style="fill: none; stroke: #4c4c4c; stroke-linecap: round"/>
    <path d="M 175.211229 180.897703 
L 176.077009 181.922606 
L 174.737619 182.000288 
" clip-path="url(#p97e2c714bf)" style="fill: none; stroke: #4c4c4c; stroke-linecap: round"/>
   </g>
   <g id="patch_80">
    <path d="M 101.43232 151.875824 
Q 103.456707 153.325101 104.572011 154.123557 
" clip-path="url(#p97e2c714bf)" style="fill: none; stroke: #4c4c4c; stroke-linecap: round"/>
    <path d="M 103.945547 152.937158 
L 104.572011 154.123557 
L 103.247013 153.912888 
" clip-path="url(#p97e2c714bf)" style="fill: none; stroke: #4c4c4c; stroke-linecap: round"/>
   </g>
   <g id="patch_81">
    <path d="M 98.046473 154.686475 
Q 103.457418 166.30771 108.396444 176.91539 
" clip-path="url(#p97e2c714bf)" style="fill: none; stroke: #4c4c4c; stroke-linecap: round"/>
    <path d="M 108.433857 175.574271 
L 108.396444 176.91539 
L 107.345996 176.080788 
" clip-path="url(#p97e2c714bf)" style="fill: none; stroke: #4c4c4c; stroke-linecap: round"/>
   </g>
   <g id="patch_82">
    <path d="M 103.054959 146.83456 
Q 130.662594 146.83456 157.152195 146.83456 
" clip-path="url(#p97e2c714bf)" style="fill: none; stroke: #4c4c4c; stroke-linecap: round"/>
    <path d="M 155.952195 146.23456 
L 157.152195 146.83456 
L 155.952195 147.43456 
" clip-path="url(#p97e2c714bf)" style="fill: none; stroke: #4c4c4c; stroke-linecap: round"/>
   </g>
   <g id="patch_83">
    <path d="M 102.945104 197.404489 
Q 175.995043 185.782907 247.940833 174.336986 
" clip-path="url(#p97e2c714bf)" style="fill: none; stroke: #4c4c4c; stroke-linecap: round"/>
    <path d="M 246.661468 173.932976 
L 247.940833 174.336986 
L 246.850006 175.118072 
" clip-path="url(#p97e2c714bf)" style="fill: none; stroke: #4c4c4c; stroke-linecap: round"/>
   </g>
   <g id="patch_84">
    <path d="M 103.049148 172.8 
Q 212.265017 172.8 320.362852 172.8 
" clip-path="url(#p97e2c714bf)" style="fill: none; stroke: #4c4c4c; stroke-linecap: round"/>
    <path d="M 319.162852 172.2 
L 320.362852 172.8 
L 319.162852 173.4 
" clip-path="url(#p97e2c714bf)" style="fill: none; stroke: #4c4c4c; stroke-linecap: round"/>
   </g>
   <g id="patch_85">
    <path d="M 119.566913 180.741456 
Q 121.5913 179.292179 122.706603 178.493723 
" clip-path="url(#p97e2c714bf)" style="fill: none; stroke: #4c4c4c; stroke-linecap: round"/>
    <path d="M 121.381606 178.704392 
L 122.706603 178.493723 
L 122.08014 179.680123 
" clip-path="url(#p97e2c714bf)" style="fill: none; stroke: #4c4c4c; stroke-linecap: round"/>
   </g>
   <g id="patch_86">
    <path d="M 119.566913 164.858544 
Q 130.660988 172.800893 140.84598 180.092421 
" clip-path="url(#p97e2c714bf)" style="fill: none; stroke: #4c4c4c; stroke-linecap: round"/>
    <path d="M 140.219516 178.906022 
L 140.84598 180.092421 
L 139.520982 179.881752 
" clip-path="url(#p97e2c714bf)" style="fill: none; stroke: #4c4c4c; stroke-linecap: round"/>
   </g>
   <g id="patch_87">
    <path d="M 137.701505 167.758736 
Q 139.725892 166.309459 140.841196 165.511003 
" clip-path="url(#p97e2c714bf)" style="fill: none; stroke: #4c4c4c; stroke-linecap: round"/>
    <path d="M 139.516198 165.721672 
L 140.841196 165.511003 
L 140.214733 166.697403 
" clip-path="url(#p97e2c714bf)" style="fill: none; stroke: #4c4c4c; stroke-linecap: round"/>
   </g>
   <g id="patch_88">
    <path d="M 139.182468 171.274626 
Q 166.929482 166.30854 193.575951 161.539428 
" clip-path="url(#p97e2c714bf)" style="fill: none; stroke: #4c4c4c; stroke-linecap: round"/>
    <path d="M 192.289014 161.160226 
L 193.575951 161.539428 
L 192.500428 162.341457 
" clip-path="url(#p97e2c714bf)" style="fill: none; stroke: #4c4c4c; stroke-linecap: round"/>
   </g>
   <g id="patch_89">
    <path d="M 137.701505 177.841264 
Q 139.725892 179.290541 140.841196 180.088997 
" clip-path="url(#p97e2c714bf)" style="fill: none; stroke: #4c4c4c; stroke-linecap: round"/>
    <path d="M 140.214733 178.902597 
L 140.841196 180.088997 
L 139.516198 179.878328 
" clip-path="url(#p97e2c714bf)" style="fill: none; stroke: #4c4c4c; stroke-linecap: round"/>
   </g>
   <g id="patch_90">
    <path d="M 157.452926 185.78272 
Q 266.668795 185.78272 374.76663 185.78272 
" clip-path="url(#p97e2c714bf)" style="fill: none; stroke: #4c4c4c; stroke-linecap: round"/>
    <path d="M 373.56663 185.18272 
L 374.76663 185.78272 
L 373.56663 186.38272 
" clip-path="url(#p97e2c714bf)" style="fill: none; stroke: #4c4c4c; stroke-linecap: round"/>
   </g>
   <g id="patch_91">
    <path d="M 155.836098 190.823983 
Q 157.860485 192.27326 158.975789 193.071716 
" clip-path="url(#p97e2c714bf)" style="fill: none; stroke: #4c4c4c; stroke-linecap: round"/>
    <path d="M 158.349325 191.885317 
L 158.975789 193.071716 
L 157.650791 192.861047 
" clip-path="url(#p97e2c714bf)" style="fill: none; stroke: #4c4c4c; stroke-linecap: round"/>
   </g>
   <g id="patch_92">
    <path d="M 157.391219 184.756955 
Q 203.198272 179.291341 247.895166 173.958189 
" clip-path="url(#p97e2c714bf)" style="fill: none; stroke: #4c4c4c; stroke-linecap: round"/>
    <path d="M 246.632531 173.504588 
L 247.895166 173.958189 
L 246.774705 174.696136 
" clip-path="url(#p97e2c714bf)" style="fill: none; stroke: #4c4c4c; stroke-linecap: round"/>
   </g>
   <g id="patch_93">
    <path d="M 156.945159 182.865094 
Q 185.061656 172.800667 212.125525 163.113032 
" clip-path="url(#p97e2c714bf)" style="fill: none; stroke: #4c4c4c; stroke-linecap: round"/>
    <path d="M 210.793517 162.952549 
L 212.125525 163.113032 
L 211.197934 164.082348 
" clip-path="url(#p97e2c714bf)" style="fill: none; stroke: #4c4c4c; stroke-linecap: round"/>
   </g>
   <g id="patch_94">
    <path d="M 155.836098 164.858544 
Q 157.860485 166.307821 158.975789 167.106277 
" clip-path="url(#p97e2c714bf)" style="fill: none; stroke: #4c4c4c; stroke-linecap: round"/>
    <path d="M 158.349325 165.919877 
L 158.975789 167.106277 
L 157.650791 166.895608 
" clip-path="url(#p97e2c714bf)" style="fill: none; stroke: #4c4c4c; stroke-linecap: round"/>
   </g>
   <g id="patch_95">
    <path d="M 155.836098 154.776017 
Q 157.860485 153.32674 158.975789 152.528284 
" clip-path="url(#p97e2c714bf)" style="fill: none; stroke: #4c4c4c; stroke-linecap: round"/>
    <path d="M 157.650791 152.738953 
L 158.975789 152.528284 
L 158.349325 153.714683 
" clip-path="url(#p97e2c714bf)" style="fill: none; stroke: #4c4c4c; stroke-linecap: round"/>
   </g>
   <g id="patch_96">
    <path d="M 175.572299 173.315656 
Q 275.735946 179.291328 374.783543 185.200417 
" clip-path="url(#p97e2c714bf)" style="fill: none; stroke: #4c4c4c; stroke-linecap: round"/>
    <path d="M 373.621404 184.530019 
L 374.783543 185.200417 
L 373.549941 185.727889 
" clip-path="url(#p97e2c714bf)" style="fill: none; stroke: #4c4c4c; stroke-linecap: round"/>
   </g>
   <g id="patch_97">
    <path d="M 173.970691 177.841264 
Q 175.995078 179.290541 177.110381 180.088997 
" clip-path="url(#p97e2c714bf)" style="fill: none; stroke: #4c4c4c; stroke-linecap: round"/>
    <path d="M 176.483918 178.902597 
L 177.110381 180.088997 
L 175.785384 179.878328 
" clip-path="url(#p97e2c714bf)" style="fill: none; stroke: #4c4c4c; stroke-linecap: round"/>
   </g>
   <g id="patch_98">
    <path d="M 173.970691 151.875824 
Q 175.995078 153.325101 177.110381 154.123557 
" clip-path="url(#p97e2c714bf)" style="fill: none; stroke: #4c4c4c; stroke-linecap: round"/>
    <path d="M 176.483918 152.937158 
L 177.110381 154.123557 
L 175.785384 153.912888 
" clip-path="url(#p97e2c714bf)" style="fill: none; stroke: #4c4c4c; stroke-linecap: round"/>
   </g>
   <g id="patch_99">
    <path d="M 175.255187 149.218899 
Q 212.265717 159.817369 248.201416 170.108046 
" clip-path="url(#p97e2c714bf)" style="fill: none; stroke: #4c4c4c; stroke-linecap: round"/>
    <path d="M 247.212964 169.200873 
L 248.201416 170.108046 
L 246.882606 170.354504 
" clip-path="url(#p97e2c714bf)" style="fill: none; stroke: #4c4c4c; stroke-linecap: round"/>
   </g>
   <g id="patch_100">
    <path d="M 175.079752 149.752186 
Q 185.062937 153.325712 193.993492 156.522445 
" clip-path="url(#p97e2c714bf)" style="fill: none; stroke: #4c4c4c; stroke-linecap: round"/>
    <path d="M 193.065901 155.553129 
L 193.993492 156.522445 
L 192.661484 156.682928 
" clip-path="url(#p97e2c714bf)" style="fill: none; stroke: #4c4c4c; stroke-linecap: round"/>
   </g>
   <g id="patch_101">
    <path d="M 175.416787 197.029286 
Q 230.401801 185.782351 284.29146 174.759466 
" clip-path="url(#p97e2c714bf)" style="fill: none; stroke: #4c4c4c; stroke-linecap: round"/>
    <path d="M 282.995565 174.412113 
L 284.29146 174.759466 
L 283.23604 175.587771 
" clip-path="url(#p97e2c714bf)" style="fill: none; stroke: #4c4c4c; stroke-linecap: round"/>
   </g>
   <g id="patch_102">
    <path d="M 190.02441 178.679625 
Q 194.132347 172.797806 197.60011 167.8326 
" clip-path="url(#p97e2c714bf)" style="fill: none; stroke: #4c4c4c; stroke-linecap: round"/>
    <path d="M 196.421098 168.472858 
L 197.60011 167.8326 
L 197.404909 169.159964 
" clip-path="url(#p97e2c714bf)" style="fill: none; stroke: #4c4c4c; stroke-linecap: round"/>
   </g>
   <g id="patch_103">
    <path d="M 193.727922 185.78272 
Q 194.132532 185.78272 193.419108 185.78272 
" clip-path="url(#p97e2c714bf)" style="fill: none; stroke: #4c4c4c; stroke-linecap: round"/>
    <path d="M 192.219108 185.18272 
L 193.419108 185.78272 
L 192.219108 186.38272 
" clip-path="url(#p97e2c714bf)" style="fill: none; stroke: #4c4c4c; stroke-linecap: round"/>
   </g>
   <g id="patch_104">
    <path d="M 193.660404 160.843045 
Q 239.467458 166.308659 284.164352 171.641811 
" clip-path="url(#p97e2c714bf)" style="fill: none; stroke: #4c4c4c; stroke-linecap: round"/>
    <path d="M 283.04389 170.903864 
L 284.164352 171.641811 
L 282.901717 172.095412 
" clip-path="url(#p97e2c714bf)" style="fill: none; stroke: #4c4c4c; stroke-linecap: round"/>
   </g>
   <g id="patch_105">
    <path d="M 211.862515 185.78272 
Q 212.267125 185.78272 211.553701 185.78272 
" clip-path="url(#p97e2c714bf)" style="fill: none; stroke: #4c4c4c; stroke-linecap: round"/>
    <path d="M 210.353701 185.18272 
L 211.553701 185.78272 
L 210.353701 186.38272 
" clip-path="url(#p97e2c714bf)" style="fill: none; stroke: #4c4c4c; stroke-linecap: round"/>
   </g>
   <g id="patch_106">
    <path d="M 208.159002 178.679625 
Q 212.266939 172.797806 215.734703 167.8326 
" clip-path="url(#p97e2c714bf)" style="fill: none; stroke: #4c4c4c; stroke-linecap: round"/>
    <path d="M 214.555691 168.472858 
L 215.734703 167.8326 
L 215.539502 169.159964 
" clip-path="url(#p97e2c714bf)" style="fill: none; stroke: #4c4c4c; stroke-linecap: round"/>
   </g>
   <g id="patch_107">
    <path d="M 211.75266 161.178231 
Q 284.802599 172.799812 356.748389 184.245734 
" clip-path="url(#p97e2c714bf)" style="fill: none; stroke: #4c4c4c; stroke-linecap: round"/>
    <path d="M 355.657562 183.464647 
L 356.748389 184.245734 
L 355.469024 184.649744 
" clip-path="url(#p97e2c714bf)" style="fill: none; stroke: #4c4c4c; stroke-linecap: round"/>
   </g>
   <g id="patch_108">
    <path d="M 228.374469 180.741456 
Q 230.398856 179.292179 231.514159 178.493723 
" clip-path="url(#p97e2c714bf)" style="fill: none; stroke: #4c4c4c; stroke-linecap: round"/>
    <path d="M 230.189162 178.704392 
L 231.514159 178.493723 
L 230.887696 179.680123 
" clip-path="url(#p97e2c714bf)" style="fill: none; stroke: #4c4c4c; stroke-linecap: round"/>
   </g>
   <g id="patch_109">
    <path d="M 229.855431 161.342655 
Q 257.602446 166.30874 284.248915 171.077852 
" clip-path="url(#p97e2c714bf)" style="fill: none; stroke: #4c4c4c; stroke-linecap: round"/>
    <path d="M 283.173391 170.275824 
L 284.248915 171.077852 
L 282.961978 171.457054 
" clip-path="url(#p97e2c714bf)" style="fill: none; stroke: #4c4c4c; stroke-linecap: round"/>
   </g>
   <g id="patch_110">
    <path d="M 248.1317 172.8 
Q 248.53631 172.8 247.822886 172.8 
" clip-path="url(#p97e2c714bf)" style="fill: none; stroke: #4c4c4c; stroke-linecap: round"/>
    <path d="M 246.622886 172.2 
L 247.822886 172.8 
L 246.622886 173.4 
" clip-path="url(#p97e2c714bf)" style="fill: none; stroke: #4c4c4c; stroke-linecap: round"/>
   </g>
   <g id="patch_111">
    <path d="M 264.643654 167.758736 
Q 266.668041 166.309459 267.783345 165.511003 
" clip-path="url(#p97e2c714bf)" style="fill: none; stroke: #4c4c4c; stroke-linecap: round"/>
    <path d="M 266.458347 165.721672 
L 267.783345 165.511003 
L 267.156881 166.697403 
" clip-path="url(#p97e2c714bf)" style="fill: none; stroke: #4c4c4c; stroke-linecap: round"/>
   </g>
   <g id="patch_112">
    <path d="M 264.643654 177.841264 
Q 266.668041 179.290541 267.783345 180.088997 
" clip-path="url(#p97e2c714bf)" style="fill: none; stroke: #4c4c4c; stroke-linecap: round"/>
    <path d="M 267.156881 178.902597 
L 267.783345 180.088997 
L 266.458347 179.878328 
" clip-path="url(#p97e2c714bf)" style="fill: none; stroke: #4c4c4c; stroke-linecap: round"/>
   </g>
   <g id="patch_113">
    <path d="M 282.778247 164.858544 
Q 284.802634 166.307821 285.917937 167.106277 
" clip-path="url(#p97e2c714bf)" style="fill: none; stroke: #4c4c4c; stroke-linecap: round"/>
    <path d="M 285.291474 165.919877 
L 285.917937 167.106277 
L 284.59294 166.895608 
" clip-path="url(#p97e2c714bf)" style="fill: none; stroke: #4c4c4c; stroke-linecap: round"/>
   </g>
   <g id="patch_114">
    <path d="M 302.535478 172.8 
Q 302.940088 172.8 302.226664 172.8 
" clip-path="url(#p97e2c714bf)" style="fill: none; stroke: #4c4c4c; stroke-linecap: round"/>
    <path d="M 301.026664 172.2 
L 302.226664 172.8 
L 301.026664 173.4 
" clip-path="url(#p97e2c714bf)" style="fill: none; stroke: #4c4c4c; stroke-linecap: round"/>
   </g>
   <g id="patch_115">
    <path d="M 302.52939 172.8 
Q 357.341428 172.8 411.035432 172.8 
" clip-path="url(#p97e2c714bf)" style="fill: none; stroke: #4c4c4c; stroke-linecap: round"/>
    <path d="M 409.835432 172.2 
L 411.035432 172.8 
L 409.835432 173.4 
" clip-path="url(#p97e2c714bf)" style="fill: none; stroke: #4c4c4c; stroke-linecap: round"/>
   </g>
   <g id="patch_116">
    <path d="M 320.670071 172.8 
Q 321.074681 172.8 320.361257 172.8 
" clip-path="url(#p97e2c714bf)" style="fill: none; stroke: #4c4c4c; stroke-linecap: round"/>
    <path d="M 319.161257 172.2 
L 320.361257 172.8 
L 319.161257 173.4 
" clip-path="url(#p97e2c714bf)" style="fill: none; stroke: #4c4c4c; stroke-linecap: round"/>
   </g>
   <g id="patch_117">
    <path d="M 338.564478 174.810325 
Q 357.3433 179.291635 375.034625 183.513428 
" clip-path="url(#p97e2c714bf)" style="fill: none; stroke: #4c4c4c; stroke-linecap: round"/>
    <path d="M 374.006671 182.651273 
L 375.034625 183.513428 
L 373.728129 183.818498 
" clip-path="url(#p97e2c714bf)" style="fill: none; stroke: #4c4c4c; stroke-linecap: round"/>
   </g>
   <g id="patch_118">
    <path d="M 338.804664 172.8 
Q 339.209274 172.8 338.49585 172.8 
" clip-path="url(#p97e2c714bf)" style="fill: none; stroke: #4c4c4c; stroke-linecap: round"/>
    <path d="M 337.29585 172.2 
L 338.49585 172.8 
L 337.29585 173.4 
" clip-path="url(#p97e2c714bf)" style="fill: none; stroke: #4c4c4c; stroke-linecap: round"/>
   </g>
   <g id="patch_119">
    <path d="M 355.316617 167.758736 
Q 357.341004 166.309459 358.456308 165.511003 
" clip-path="url(#p97e2c714bf)" style="fill: none; stroke: #4c4c4c; stroke-linecap: round"/>
    <path d="M 357.131311 165.721672 
L 358.456308 165.511003 
L 357.829845 166.697403 
" clip-path="url(#p97e2c714bf)" style="fill: none; stroke: #4c4c4c; stroke-linecap: round"/>
   </g>
   <g id="patch_120">
    <path d="M 355.316617 177.841264 
Q 357.341004 179.290541 358.456308 180.088997 
" clip-path="url(#p97e2c714bf)" style="fill: none; stroke: #4c4c4c; stroke-linecap: round"/>
    <path d="M 357.829845 178.902597 
L 358.456308 180.088997 
L 357.131311 179.878328 
" clip-path="url(#p97e2c714bf)" style="fill: none; stroke: #4c4c4c; stroke-linecap: round"/>
   </g>
   <g id="patch_121">
    <path d="M 375.073849 185.78272 
Q 375.478459 185.78272 374.765035 185.78272 
" clip-path="url(#p97e2c714bf)" style="fill: none; stroke: #4c4c4c; stroke-linecap: round"/>
    <path d="M 373.565035 185.18272 
L 374.765035 185.78272 
L 373.565035 186.38272 
" clip-path="url(#p97e2c714bf)" style="fill: none; stroke: #4c4c4c; stroke-linecap: round"/>
   </g>
   <g id="patch_122">
    <path d="M 371.370336 178.679625 
Q 375.478273 172.797806 378.946037 167.8326 
" clip-path="url(#p97e2c714bf)" style="fill: none; stroke: #4c4c4c; stroke-linecap: round"/>
    <path d="M 377.767025 168.472858 
L 378.946037 167.8326 
L 378.750836 169.159964 
" clip-path="url(#p97e2c714bf)" style="fill: none; stroke: #4c4c4c; stroke-linecap: round"/>
   </g>
   <g id="patch_123">
    <path d="M 391.585803 180.741456 
Q 393.61019 179.292179 394.725493 178.493723 
" clip-path="url(#p97e2c714bf)" style="fill: none; stroke: #4c4c4c; stroke-linecap: round"/>
    <path d="M 393.400496 178.704392 
L 394.725493 178.493723 
L 394.09903 179.680123 
" clip-path="url(#p97e2c714bf)" style="fill: none; stroke: #4c4c4c; stroke-linecap: round"/>
   </g>
   <g id="patch_124">
    <path d="M 411.343034 172.8 
Q 411.747644 172.8 411.03422 172.8 
" clip-path="url(#p97e2c714bf)" style="fill: none; stroke: #4c4c4c; stroke-linecap: round"/>
    <path d="M 409.83422 172.2 
L 411.03422 172.8 
L 409.83422 173.4 
" clip-path="url(#p97e2c714bf)" style="fill: none; stroke: #4c4c4c; stroke-linecap: round"/>
   </g>
   <g id="PathCollection_1">
    <path d="M 39.986777 324.270171 
C 42.283503 324.270171 44.486471 323.357672 46.110501 321.733642 
C 47.734532 320.109611 48.647031 317.906644 48.647031 315.609917 
C 48.647031 313.313191 47.734532 311.110224 46.110501 309.486193 
C 44.486471 307.862162 42.283503 306.949663 39.986777 306.949663 
C 37.690051 306.949663 35.487083 307.862162 33.863053 309.486193 
C 32.239022 311.110224 31.326523 313.313191 31.326523 315.609917 
C 31.326523 317.906644 32.239022 320.109611 33.863053 321.733642 
C 35.487083 323.357672 37.690051 324.270171 39.986777 324.270171 
z
" clip-path="url(#p97e2c714bf)" style="fill: #ffff00; stroke: #000000"/>
    <path d="M 39.986777 298.304732 
C 42.283503 298.304732 44.486471 297.392233 46.110501 295.768202 
C 47.734532 294.144172 48.647031 291.941204 48.647031 289.644478 
C 48.647031 287.347752 47.734532 285.144784 46.110501 283.520753 
C 44.486471 281.896723 42.283503 280.984224 39.986777 280.984224 
C 37.690051 280.984224 35.487083 281.896723 33.863053 283.520753 
C 32.239022 285.144784 31.326523 287.347752 31.326523 289.644478 
C 31.326523 291.941204 32.239022 294.144172 33.863053 295.768202 
C 35.487083 297.392233 37.690051 298.304732 39.986777 298.304732 
z
" clip-path="url(#p97e2c714bf)" style="fill: #ffff00; stroke: #000000"/>
    <path d="M 39.986777 272.339292 
C 42.283503 272.339292 44.486471 271.426793 46.110501 269.802763 
C 47.734532 268.178732 48.647031 265.975765 48.647031 263.679038 
C 48.647031 261.382312 47.734532 259.179345 46.110501 257.555314 
C 44.486471 255.931283 42.283503 255.018784 39.986777 255.018784 
C 37.690051 255.018784 35.487083 255.931283 33.863053 257.555314 
C 32.239022 259.179345 31.326523 261.382312 31.326523 263.679038 
C 31.326523 265.975765 32.239022 268.178732 33.863053 269.802763 
C 35.487083 271.426793 37.690051 272.339292 39.986777 272.339292 
z
" clip-path="url(#p97e2c714bf)" style="fill: #ffff00; stroke: #000000"/>
    <path d="M 39.986777 246.373853 
C 42.283503 246.373853 44.486471 245.461354 46.110501 243.837323 
C 47.734532 242.213292 48.647031 240.010325 48.647031 237.713599 
C 48.647031 235.416873 47.734532 233.213905 46.110501 231.589874 
C 44.486471 229.965844 42.283503 229.053345 39.986777 229.053345 
C 37.690051 229.053345 35.487083 229.965844 33.863053 231.589874 
C 32.239022 233.213905 31.326523 235.416873 31.326523 237.713599 
C 31.326523 240.010325 32.239022 242.213292 33.863053 243.837323 
C 35.487083 245.461354 37.690051 246.373853 39.986777 246.373853 
z
" clip-path="url(#p97e2c714bf)" style="fill: #ffff00; stroke: #000000"/>
    <path d="M 39.986777 220.408413 
C 42.283503 220.408413 44.486471 219.495914 46.110501 217.871884 
C 47.734532 216.247853 48.647031 214.044885 48.647031 211.748159 
C 48.647031 209.451433 47.734532 207.248466 46.110501 205.624435 
C 44.486471 204.000404 42.283503 203.087905 39.986777 203.087905 
C 37.690051 203.087905 35.487083 204.000404 33.863053 205.624435 
C 32.239022 207.248466 31.326523 209.451433 31.326523 211.748159 
C 31.326523 214.044885 32.239022 216.247853 33.863053 217.871884 
C 35.487083 219.495914 37.690051 220.408413 39.986777 220.408413 
z
" clip-path="url(#p97e2c714bf)" style="fill: #ffff00; stroke: #000000"/>
    <path d="M 39.986777 194.442974 
C 42.283503 194.442974 44.486471 193.530475 46.110501 191.906444 
C 47.734532 190.282413 48.647031 188.079446 48.647031 185.78272 
C 48.647031 183.485994 47.734532 181.283026 46.110501 179.658995 
C 44.486471 178.034965 42.283503 177.122466 39.986777 177.122466 
C 37.690051 177.122466 35.487083 178.034965 33.863053 179.658995 
C 32.239022 181.283026 31.326523 183.485994 31.326523 185.78272 
C 31.326523 188.079446 32.239022 190.282413 33.863053 191.906444 
C 35.487083 193.530475 37.690051 194.442974 39.986777 194.442974 
z
" clip-path="url(#p97e2c714bf)" style="fill: #ffff00; stroke: #000000"/>
    <path d="M 39.986777 168.477534 
C 42.283503 168.477534 44.486471 167.565035 46.110501 165.941005 
C 47.734532 164.316974 48.647031 162.114006 48.647031 159.81728 
C 48.647031 157.520554 47.734532 155.317587 46.110501 153.693556 
C 44.486471 152.069525 42.283503 151.157026 39.986777 151.157026 
C 37.690051 151.157026 35.487083 152.069525 33.863053 153.693556 
C 32.239022 155.317587 31.326523 157.520554 31.326523 159.81728 
C 31.326523 162.114006 32.239022 164.316974 33.863053 165.941005 
C 35.487083 167.565035 37.690051 168.477534 39.986777 168.477534 
z
" clip-path="url(#p97e2c714bf)" style="fill: #ffff00; stroke: #000000"/>
    <path d="M 39.986777 142.512095 
C 42.283503 142.512095 44.486471 141.599596 46.110501 139.975565 
C 47.734532 138.351534 48.647031 136.148567 48.647031 133.851841 
C 48.647031 131.555115 47.734532 129.352147 46.110501 127.728116 
C 44.486471 126.104086 42.283503 125.191587 39.986777 125.191587 
C 37.690051 125.191587 35.487083 126.104086 33.863053 127.728116 
C 32.239022 129.352147 31.326523 131.555115 31.326523 133.851841 
C 31.326523 136.148567 32.239022 138.351534 33.863053 139.975565 
C 35.487083 141.599596 37.690051 142.512095 39.986777 142.512095 
z
" clip-path="url(#p97e2c714bf)" style="fill: #ffff00; stroke: #000000"/>
    <path d="M 39.986777 116.546655 
C 42.283503 116.546655 44.486471 115.634156 46.110501 114.010126 
C 47.734532 112.386095 48.647031 110.183127 48.647031 107.886401 
C 48.647031 105.589675 47.734532 103.386708 46.110501 101.762677 
C 44.486471 100.138646 42.283503 99.226147 39.986777 99.226147 
C 37.690051 99.226147 35.487083 100.138646 33.863053 101.762677 
C 32.239022 103.386708 31.326523 105.589675 31.326523 107.886401 
C 31.326523 110.183127 32.239022 112.386095 33.863053 114.010126 
C 35.487083 115.634156 37.690051 116.546655 39.986777 116.546655 
z
" clip-path="url(#p97e2c714bf)" style="fill: #ffff00; stroke: #000000"/>
    <path d="M 39.986777 90.581216 
C 42.283503 90.581216 44.486471 89.668717 46.110501 88.044686 
C 47.734532 86.420655 48.647031 84.217688 48.647031 81.920962 
C 48.647031 79.624235 47.734532 77.421268 46.110501 75.797237 
C 44.486471 74.173207 42.283503 73.260708 39.986777 73.260708 
C 37.690051 73.260708 35.487083 74.173207 33.863053 75.797237 
C 32.239022 77.421268 31.326523 79.624235 31.326523 81.920962 
C 31.326523 84.217688 32.239022 86.420655 33.863053 88.044686 
C 35.487083 89.668717 37.690051 90.581216 39.986777 90.581216 
z
" clip-path="url(#p97e2c714bf)" style="fill: #ffff00; stroke: #000000"/>
    <path d="M 39.986777 64.615776 
C 42.283503 64.615776 44.486471 63.703277 46.110501 62.079247 
C 47.734532 60.455216 48.647031 58.252248 48.647031 55.955522 
C 48.647031 53.658796 47.734532 51.455828 46.110501 49.831798 
C 44.486471 48.207767 42.283503 47.295268 39.986777 47.295268 
C 37.690051 47.295268 35.487083 48.207767 33.863053 49.831798 
C 32.239022 51.455828 31.326523 53.658796 31.326523 55.955522 
C 31.326523 58.252248 32.239022 60.455216 33.863053 62.079247 
C 35.487083 63.703277 37.690051 64.615776 39.986777 64.615776 
z
" clip-path="url(#p97e2c714bf)" style="fill: #ffff00; stroke: #000000"/>
    <path d="M 39.986777 38.650337 
C 42.283503 38.650337 44.486471 37.737838 46.110501 36.113807 
C 47.734532 34.489776 48.647031 32.286809 48.647031 29.990083 
C 48.647031 27.693356 47.734532 25.490389 46.110501 23.866358 
C 44.486471 22.242328 42.283503 21.329829 39.986777 21.329829 
C 37.690051 21.329829 35.487083 22.242328 33.863053 23.866358 
C 32.239022 25.490389 31.326523 27.693356 31.326523 29.990083 
C 31.326523 32.286809 32.239022 34.489776 33.863053 36.113807 
C 35.487083 37.737838 37.690051 38.650337 39.986777 38.650337 
z
" clip-path="url(#p97e2c714bf)" style="fill: #ffff00; stroke: #000000"/>
    <path d="M 58.12137 90.581216 
C 60.418096 90.581216 62.621063 89.668717 64.245094 88.044686 
C 65.869125 86.420655 66.781624 84.217688 66.781624 81.920962 
C 66.781624 79.624235 65.869125 77.421268 64.245094 75.797237 
C 62.621063 74.173207 60.418096 73.260708 58.12137 73.260708 
C 55.824643 73.260708 53.621676 74.173207 51.997645 75.797237 
C 50.373614 77.421268 49.461116 79.624235 49.461116 81.920962 
C 49.461116 84.217688 50.373614 86.420655 51.997645 88.044686 
C 53.621676 89.668717 55.824643 90.581216 58.12137 90.581216 
z
" clip-path="url(#p97e2c714bf)" style="fill: #ffffff; stroke: #000000"/>
    <path d="M 58.12137 246.373853 
C 60.418096 246.373853 62.621063 245.461354 64.245094 243.837323 
C 65.869125 242.213292 66.781624 240.010325 66.781624 237.713599 
C 66.781624 235.416873 65.869125 233.213905 64.245094 231.589874 
C 62.621063 229.965844 60.418096 229.053345 58.12137 229.053345 
C 55.824643 229.053345 53.621676 229.965844 51.997645 231.589874 
C 50.373614 233.213905 49.461116 235.416873 49.461116 237.713599 
C 49.461116 240.010325 50.373614 242.213292 51.997645 243.837323 
C 53.621676 245.461354 55.824643 246.373853 58.12137 246.373853 
z
" clip-path="url(#p97e2c714bf)" style="fill: #ffffff; stroke: #000000"/>
    <path d="M 58.12137 298.304732 
C 60.418096 298.304732 62.621063 297.392233 64.245094 295.768202 
C 65.869125 294.144172 66.781624 291.941204 66.781624 289.644478 
C 66.781624 287.347752 65.869125 285.144784 64.245094 283.520753 
C 62.621063 281.896723 60.418096 280.984224 58.12137 280.984224 
C 55.824643 280.984224 53.621676 281.896723 51.997645 283.520753 
C 50.373614 285.144784 49.461116 287.347752 49.461116 289.644478 
C 49.461116 291.941204 50.373614 294.144172 51.997645 295.768202 
C 53.621676 297.392233 55.824643 298.304732 58.12137 298.304732 
z
" clip-path="url(#p97e2c714bf)" style="fill: #ffffff; stroke: #000000"/>
    <path d="M 58.12137 142.512095 
C 60.418096 142.512095 62.621063 141.599596 64.245094 139.975565 
C 65.869125 138.351534 66.781624 136.148567 66.781624 133.851841 
C 66.781624 131.555115 65.869125 129.352147 64.245094 127.728116 
C 62.621063 126.104086 60.418096 125.191587 58.12137 125.191587 
C 55.824643 125.191587 53.621676 126.104086 51.997645 127.728116 
C 50.373614 129.352147 49.461116 131.555115 49.461116 133.851841 
C 49.461116 136.148567 50.373614 138.351534 51.997645 139.975565 
C 53.621676 141.599596 55.824643 142.512095 58.12137 142.512095 
z
" clip-path="url(#p97e2c714bf)" style="fill: #ffffff; stroke: #000000"/>
    <path d="M 58.12137 220.408413 
C 60.418096 220.408413 62.621063 219.495914 64.245094 217.871884 
C 65.869125 216.247853 66.781624 214.044885 66.781624 211.748159 
C 66.781624 209.451433 65.869125 207.248466 64.245094 205.624435 
C 62.621063 204.000404 60.418096 203.087905 58.12137 203.087905 
C 55.824643 203.087905 53.621676 204.000404 51.997645 205.624435 
C 50.373614 207.248466 49.461116 209.451433 49.461116 211.748159 
C 49.461116 214.044885 50.373614 216.247853 51.997645 217.871884 
C 53.621676 219.495914 55.824643 220.408413 58.12137 220.408413 
z
" clip-path="url(#p97e2c714bf)" style="fill: #ffffff; stroke: #000000"/>
    <path d="M 58.12137 64.615776 
C 60.418096 64.615776 62.621063 63.703277 64.245094 62.079247 
C 65.869125 60.455216 66.781624 58.252248 66.781624 55.955522 
C 66.781624 53.658796 65.869125 51.455828 64.245094 49.831798 
C 62.621063 48.207767 60.418096 47.295268 58.12137 47.295268 
C 55.824643 47.295268 53.621676 48.207767 51.997645 49.831798 
C 50.373614 51.455828 49.461116 53.658796 49.461116 55.955522 
C 49.461116 58.252248 50.373614 60.455216 51.997645 62.079247 
C 53.621676 63.703277 55.824643 64.615776 58.12137 64.615776 
z
" clip-path="url(#p97e2c714bf)" style="fill: #ffffff; stroke: #000000"/>
    <path d="M 58.12137 116.546655 
C 60.418096 116.546655 62.621063 115.634156 64.245094 114.010126 
C 65.869125 112.386095 66.781624 110.183127 66.781624 107.886401 
C 66.781624 105.589675 65.869125 103.386708 64.245094 101.762677 
C 62.621063 100.138646 60.418096 99.226147 58.12137 99.226147 
C 55.824643 99.226147 53.621676 100.138646 51.997645 101.762677 
C 50.373614 103.386708 49.461116 105.589675 49.461116 107.886401 
C 49.461116 110.183127 50.373614 112.386095 51.997645 114.010126 
C 53.621676 115.634156 55.824643 116.546655 58.12137 116.546655 
z
" clip-path="url(#p97e2c714bf)" style="fill: #ffffff; stroke: #000000"/>
    <path d="M 58.12137 168.477534 
C 60.418096 168.477534 62.621063 167.565035 64.245094 165.941005 
C 65.869125 164.316974 66.781624 162.114006 66.781624 159.81728 
C 66.781624 157.520554 65.869125 155.317587 64.245094 153.693556 
C 62.621063 152.069525 60.418096 151.157026 58.12137 151.157026 
C 55.824643 151.157026 53.621676 152.069525 51.997645 153.693556 
C 50.373614 155.317587 49.461116 157.520554 49.461116 159.81728 
C 49.461116 162.114006 50.373614 164.316974 51.997645 165.941005 
C 53.621676 167.565035 55.824643 168.477534 58.12137 168.477534 
z
" clip-path="url(#p97e2c714bf)" style="fill: #ffffff; stroke: #000000"/>
    <path d="M 58.12137 194.442974 
C 60.418096 194.442974 62.621063 193.530475 64.245094 191.906444 
C 65.869125 190.282413 66.781624 188.079446 66.781624 185.78272 
C 66.781624 183.485994 65.869125 181.283026 64.245094 179.658995 
C 62.621063 178.034965 60.418096 177.122466 58.12137 177.122466 
C 55.824643 177.122466 53.621676 178.034965 51.997645 179.658995 
C 50.373614 181.283026 49.461116 183.485994 49.461116 185.78272 
C 49.461116 188.079446 50.373614 190.282413 51.997645 191.906444 
C 53.621676 193.530475 55.824643 194.442974 58.12137 194.442974 
z
" clip-path="url(#p97e2c714bf)" style="fill: #ffffff; stroke: #000000"/>
    <path d="M 58.12137 272.339292 
C 60.418096 272.339292 62.621063 271.426793 64.245094 269.802763 
C 65.869125 268.178732 66.781624 265.975765 66.781624 263.679038 
C 66.781624 261.382312 65.869125 259.179345 64.245094 257.555314 
C 62.621063 255.931283 60.418096 255.018784 58.12137 255.018784 
C 55.824643 255.018784 53.621676 255.931283 51.997645 257.555314 
C 50.373614 259.179345 49.461116 261.382312 49.461116 263.679038 
C 49.461116 265.975765 50.373614 268.178732 51.997645 269.802763 
C 53.621676 271.426793 55.824643 272.339292 58.12137 272.339292 
z
" clip-path="url(#p97e2c714bf)" style="fill: #ffffff; stroke: #000000"/>
    <path d="M 76.255962 155.494815 
C 78.552688 155.494815 80.755656 154.582316 82.379687 152.958285 
C 84.003717 151.334254 84.916216 149.131287 84.916216 146.83456 
C 84.916216 144.537834 84.003717 142.334867 82.379687 140.710836 
C 80.755656 139.086805 78.552688 138.174306 76.255962 138.174306 
C 73.959236 138.174306 71.756269 139.086805 70.132238 140.710836 
C 68.508207 142.334867 67.595708 144.537834 67.595708 146.83456 
C 67.595708 149.131287 68.508207 151.334254 70.132238 152.958285 
C 71.756269 154.582316 73.959236 155.494815 76.255962 155.494815 
z
" clip-path="url(#p97e2c714bf)" style="fill: #ffffff; stroke: #000000"/>
    <path d="M 76.255962 129.529375 
C 78.552688 129.529375 80.755656 128.616876 82.379687 126.992845 
C 84.003717 125.368815 84.916216 123.165847 84.916216 120.869121 
C 84.916216 118.572395 84.003717 116.369427 82.379687 114.745397 
C 80.755656 113.121366 78.552688 112.208867 76.255962 112.208867 
C 73.959236 112.208867 71.756269 113.121366 70.132238 114.745397 
C 68.508207 116.369427 67.595708 118.572395 67.595708 120.869121 
C 67.595708 123.165847 68.508207 125.368815 70.132238 126.992845 
C 71.756269 128.616876 73.959236 129.529375 76.255962 129.529375 
z
" clip-path="url(#p97e2c714bf)" style="fill: #ffffff; stroke: #000000"/>
    <path d="M 76.255962 233.391133 
C 78.552688 233.391133 80.755656 232.478634 82.379687 230.854603 
C 84.003717 229.230573 84.916216 227.027605 84.916216 224.730879 
C 84.916216 222.434153 84.003717 220.231185 82.379687 218.607155 
C 80.755656 216.983124 78.552688 216.070625 76.255962 216.070625 
C 73.959236 216.070625 71.756269 216.983124 70.132238 218.607155 
C 68.508207 220.231185 67.595708 222.434153 67.595708 224.730879 
C 67.595708 227.027605 68.508207 229.230573 70.132238 230.854603 
C 71.756269 232.478634 73.959236 233.391133 76.255962 233.391133 
z
" clip-path="url(#p97e2c714bf)" style="fill: #ffffff; stroke: #000000"/>
    <path d="M 76.255962 207.425694 
C 78.552688 207.425694 80.755656 206.513195 82.379687 204.889164 
C 84.003717 203.265133 84.916216 201.062166 84.916216 198.76544 
C 84.916216 196.468713 84.003717 194.265746 82.379687 192.641715 
C 80.755656 191.017684 78.552688 190.105185 76.255962 190.105185 
C 73.959236 190.105185 71.756269 191.017684 70.132238 192.641715 
C 68.508207 194.265746 67.595708 196.468713 67.595708 198.76544 
C 67.595708 201.062166 68.508207 203.265133 70.132238 204.889164 
C 71.756269 206.513195 73.959236 207.425694 76.255962 207.425694 
z
" clip-path="url(#p97e2c714bf)" style="fill: #ffffff; stroke: #000000"/>
    <path d="M 76.255962 181.460254 
C 78.552688 181.460254 80.755656 180.547755 82.379687 178.923724 
C 84.003717 177.299694 84.916216 175.096726 84.916216 172.8 
C 84.916216 170.503274 84.003717 168.300306 82.379687 166.676276 
C 80.755656 165.052245 78.552688 164.139746 76.255962 164.139746 
C 73.959236 164.139746 71.756269 165.052245 70.132238 166.676276 
C 68.508207 168.300306 67.595708 170.503274 67.595708 172.8 
C 67.595708 175.096726 68.508207 177.299694 70.132238 178.923724 
C 71.756269 180.547755 73.959236 181.460254 76.255962 181.460254 
z
" clip-path="url(#p97e2c714bf)" style="fill: #ffffff; stroke: #000000"/>
    <path d="M 94.390555 155.494815 
C 96.687281 155.494815 98.890249 154.582316 100.514279 152.958285 
C 102.13831 151.334254 103.050809 149.131287 103.050809 146.83456 
C 103.050809 144.537834 102.13831 142.334867 100.514279 140.710836 
C 98.890249 139.086805 96.687281 138.174306 94.390555 138.174306 
C 92.093829 138.174306 89.890861 139.086805 88.266831 140.710836 
C 86.6428 142.334867 85.730301 144.537834 85.730301 146.83456 
C 85.730301 149.131287 86.6428 151.334254 88.266831 152.958285 
C 89.890861 154.582316 92.093829 155.494815 94.390555 155.494815 
z
" clip-path="url(#p97e2c714bf)" style="fill: #ffffff; stroke: #000000"/>
    <path d="M 94.390555 207.425694 
C 96.687281 207.425694 98.890249 206.513195 100.514279 204.889164 
C 102.13831 203.265133 103.050809 201.062166 103.050809 198.76544 
C 103.050809 196.468713 102.13831 194.265746 100.514279 192.641715 
C 98.890249 191.017684 96.687281 190.105185 94.390555 190.105185 
C 92.093829 190.105185 89.890861 191.017684 88.266831 192.641715 
C 86.6428 194.265746 85.730301 196.468713 85.730301 198.76544 
C 85.730301 201.062166 86.6428 203.265133 88.266831 204.889164 
C 89.890861 206.513195 92.093829 207.425694 94.390555 207.425694 
z
" clip-path="url(#p97e2c714bf)" style="fill: #ffffff; stroke: #000000"/>
    <path d="M 94.390555 181.460254 
C 96.687281 181.460254 98.890249 180.547755 100.514279 178.923724 
C 102.13831 177.299694 103.050809 175.096726 103.050809 172.8 
C 103.050809 170.503274 102.13831 168.300306 100.514279 166.676276 
C 98.890249 165.052245 96.687281 164.139746 94.390555 164.139746 
C 92.093829 164.139746 89.890861 165.052245 88.266831 166.676276 
C 86.6428 168.300306 85.730301 170.503274 85.730301 172.8 
C 85.730301 175.096726 86.6428 177.299694 88.266831 178.923724 
C 89.890861 180.547755 92.093829 181.460254 94.390555 181.460254 
z
" clip-path="url(#p97e2c714bf)" style="fill: #ffffff; stroke: #000000"/>
    <path d="M 112.525148 194.442974 
C 114.821874 194.442974 117.024841 193.530475 118.648872 191.906444 
C 120.272903 190.282413 121.185402 188.079446 121.185402 185.78272 
C 121.185402 183.485994 120.272903 181.283026 118.648872 179.658995 
C 117.024841 178.034965 114.821874 177.122466 112.525148 177.122466 
C 110.228421 177.122466 108.025454 178.034965 106.401423 179.658995 
C 104.777393 181.283026 103.864894 183.485994 103.864894 185.78272 
C 103.864894 188.079446 104.777393 190.282413 106.401423 191.906444 
C 108.025454 193.530475 110.228421 194.442974 112.525148 194.442974 
z
" clip-path="url(#p97e2c714bf)" style="fill: #ffffff; stroke: #000000"/>
    <path d="M 112.525148 168.477534 
C 114.821874 168.477534 117.024841 167.565035 118.648872 165.941005 
C 120.272903 164.316974 121.185402 162.114006 121.185402 159.81728 
C 121.185402 157.520554 120.272903 155.317587 118.648872 153.693556 
C 117.024841 152.069525 114.821874 151.157026 112.525148 151.157026 
C 110.228421 151.157026 108.025454 152.069525 106.401423 153.693556 
C 104.777393 155.317587 103.864894 157.520554 103.864894 159.81728 
C 103.864894 162.114006 104.777393 164.316974 106.401423 165.941005 
C 108.025454 167.565035 110.228421 168.477534 112.525148 168.477534 
z
" clip-path="url(#p97e2c714bf)" style="fill: #ffffff; stroke: #000000"/>
    <path d="M 130.65974 181.460254 
C 132.956466 181.460254 135.159434 180.547755 136.783465 178.923724 
C 138.407495 177.299694 139.319994 175.096726 139.319994 172.8 
C 139.319994 170.503274 138.407495 168.300306 136.783465 166.676276 
C 135.159434 165.052245 132.956466 164.139746 130.65974 164.139746 
C 128.363014 164.139746 126.160047 165.052245 124.536016 166.676276 
C 122.911985 168.300306 121.999486 170.503274 121.999486 172.8 
C 121.999486 175.096726 122.911985 177.299694 124.536016 178.923724 
C 126.160047 180.547755 128.363014 181.460254 130.65974 181.460254 
z
" clip-path="url(#p97e2c714bf)" style="fill: #ffffff; stroke: #000000"/>
    <path d="M 148.794333 194.442974 
C 151.091059 194.442974 153.294027 193.530475 154.918057 191.906444 
C 156.542088 190.282413 157.454587 188.079446 157.454587 185.78272 
C 157.454587 183.485994 156.542088 181.283026 154.918057 179.658995 
C 153.294027 178.034965 151.091059 177.122466 148.794333 177.122466 
C 146.497607 177.122466 144.294639 178.034965 142.670609 179.658995 
C 141.046578 181.283026 140.134079 183.485994 140.134079 185.78272 
C 140.134079 188.079446 141.046578 190.282413 142.670609 191.906444 
C 144.294639 193.530475 146.497607 194.442974 148.794333 194.442974 
z
" clip-path="url(#p97e2c714bf)" style="fill: #ffffff; stroke: #000000"/>
    <path d="M 148.794333 168.477534 
C 151.091059 168.477534 153.294027 167.565035 154.918057 165.941005 
C 156.542088 164.316974 157.454587 162.114006 157.454587 159.81728 
C 157.454587 157.520554 156.542088 155.317587 154.918057 153.693556 
C 153.294027 152.069525 151.091059 151.157026 148.794333 151.157026 
C 146.497607 151.157026 144.294639 152.069525 142.670609 153.693556 
C 141.046578 155.317587 140.134079 157.520554 140.134079 159.81728 
C 140.134079 162.114006 141.046578 164.316974 142.670609 165.941005 
C 144.294639 167.565035 146.497607 168.477534 148.794333 168.477534 
z
" clip-path="url(#p97e2c714bf)" style="fill: #ffffff; stroke: #000000"/>
    <path d="M 166.928926 181.460254 
C 169.225652 181.460254 171.428619 180.547755 173.05265 178.923724 
C 174.676681 177.299694 175.58918 175.096726 175.58918 172.8 
C 175.58918 170.503274 174.676681 168.300306 173.05265 166.676276 
C 171.428619 165.052245 169.225652 164.139746 166.928926 164.139746 
C 164.632199 164.139746 162.429232 165.052245 160.805201 166.676276 
C 159.181171 168.300306 158.268672 170.503274 158.268672 172.8 
C 158.268672 175.096726 159.181171 177.299694 160.805201 178.923724 
C 162.429232 180.547755 164.632199 181.460254 166.928926 181.460254 
z
" clip-path="url(#p97e2c714bf)" style="fill: #ffffff; stroke: #000000"/>
    <path d="M 166.928926 155.494815 
C 169.225652 155.494815 171.428619 154.582316 173.05265 152.958285 
C 174.676681 151.334254 175.58918 149.131287 175.58918 146.83456 
C 175.58918 144.537834 174.676681 142.334867 173.05265 140.710836 
C 171.428619 139.086805 169.225652 138.174306 166.928926 138.174306 
C 164.632199 138.174306 162.429232 139.086805 160.805201 140.710836 
C 159.181171 142.334867 158.268672 144.537834 158.268672 146.83456 
C 158.268672 149.131287 159.181171 151.334254 160.805201 152.958285 
C 162.429232 154.582316 164.632199 155.494815 166.928926 155.494815 
z
" clip-path="url(#p97e2c714bf)" style="fill: #ffffff; stroke: #000000"/>
    <path d="M 166.928926 207.425694 
C 169.225652 207.425694 171.428619 206.513195 173.05265 204.889164 
C 174.676681 203.265133 175.58918 201.062166 175.58918 198.76544 
C 175.58918 196.468713 174.676681 194.265746 173.05265 192.641715 
C 171.428619 191.017684 169.225652 190.105185 166.928926 190.105185 
C 164.632199 190.105185 162.429232 191.017684 160.805201 192.641715 
C 159.181171 194.265746 158.268672 196.468713 158.268672 198.76544 
C 158.268672 201.062166 159.181171 203.265133 160.805201 204.889164 
C 162.429232 206.513195 164.632199 207.425694 166.928926 207.425694 
z
" clip-path="url(#p97e2c714bf)" style="fill: #ffffff; stroke: #000000"/>
    <path d="M 185.063518 194.442974 
C 187.360245 194.442974 189.563212 193.530475 191.187243 191.906444 
C 192.811273 190.282413 193.723772 188.079446 193.723772 185.78272 
C 193.723772 183.485994 192.811273 181.283026 191.187243 179.658995 
C 189.563212 178.034965 187.360245 177.122466 185.063518 177.122466 
C 182.766792 177.122466 180.563825 178.034965 178.939794 179.658995 
C 177.315763 181.283026 176.403264 183.485994 176.403264 185.78272 
C 176.403264 188.079446 177.315763 190.282413 178.939794 191.906444 
C 180.563825 193.530475 182.766792 194.442974 185.063518 194.442974 
z
" clip-path="url(#p97e2c714bf)" style="fill: #ffffff; stroke: #000000"/>
    <path d="M 185.063518 168.477534 
C 187.360245 168.477534 189.563212 167.565035 191.187243 165.941005 
C 192.811273 164.316974 193.723772 162.114006 193.723772 159.81728 
C 193.723772 157.520554 192.811273 155.317587 191.187243 153.693556 
C 189.563212 152.069525 187.360245 151.157026 185.063518 151.157026 
C 182.766792 151.157026 180.563825 152.069525 178.939794 153.693556 
C 177.315763 155.317587 176.403264 157.520554 176.403264 159.81728 
C 176.403264 162.114006 177.315763 164.316974 178.939794 165.941005 
C 180.563825 167.565035 182.766792 168.477534 185.063518 168.477534 
z
" clip-path="url(#p97e2c714bf)" style="fill: #ffffff; stroke: #000000"/>
    <path d="M 203.198111 194.442974 
C 205.494837 194.442974 207.697805 193.530475 209.321835 191.906444 
C 210.945866 190.282413 211.858365 188.079446 211.858365 185.78272 
C 211.858365 183.485994 210.945866 181.283026 209.321835 179.658995 
C 207.697805 178.034965 205.494837 177.122466 203.198111 177.122466 
C 200.901385 177.122466 198.698417 178.034965 197.074387 179.658995 
C 195.450356 181.283026 194.537857 183.485994 194.537857 185.78272 
C 194.537857 188.079446 195.450356 190.282413 197.074387 191.906444 
C 198.698417 193.530475 200.901385 194.442974 203.198111 194.442974 
z
" clip-path="url(#p97e2c714bf)" style="fill: #ffffff; stroke: #000000"/>
    <path d="M 203.198111 168.477534 
C 205.494837 168.477534 207.697805 167.565035 209.321835 165.941005 
C 210.945866 164.316974 211.858365 162.114006 211.858365 159.81728 
C 211.858365 157.520554 210.945866 155.317587 209.321835 153.693556 
C 207.697805 152.069525 205.494837 151.157026 203.198111 151.157026 
C 200.901385 151.157026 198.698417 152.069525 197.074387 153.693556 
C 195.450356 155.317587 194.537857 157.520554 194.537857 159.81728 
C 194.537857 162.114006 195.450356 164.316974 197.074387 165.941005 
C 198.698417 167.565035 200.901385 168.477534 203.198111 168.477534 
z
" clip-path="url(#p97e2c714bf)" style="fill: #ffffff; stroke: #000000"/>
    <path d="M 221.332704 194.442974 
C 223.62943 194.442974 225.832397 193.530475 227.456428 191.906444 
C 229.080459 190.282413 229.992958 188.079446 229.992958 185.78272 
C 229.992958 183.485994 229.080459 181.283026 227.456428 179.658995 
C 225.832397 178.034965 223.62943 177.122466 221.332704 177.122466 
C 219.035977 177.122466 216.83301 178.034965 215.208979 179.658995 
C 213.584949 181.283026 212.67245 183.485994 212.67245 185.78272 
C 212.67245 188.079446 213.584949 190.282413 215.208979 191.906444 
C 216.83301 193.530475 219.035977 194.442974 221.332704 194.442974 
z
" clip-path="url(#p97e2c714bf)" style="fill: #ffffff; stroke: #000000"/>
    <path d="M 221.332704 168.477534 
C 223.62943 168.477534 225.832397 167.565035 227.456428 165.941005 
C 229.080459 164.316974 229.992958 162.114006 229.992958 159.81728 
C 229.992958 157.520554 229.080459 155.317587 227.456428 153.693556 
C 225.832397 152.069525 223.62943 151.157026 221.332704 151.157026 
C 219.035977 151.157026 216.83301 152.069525 215.208979 153.693556 
C 213.584949 155.317587 212.67245 157.520554 212.67245 159.81728 
C 212.67245 162.114006 213.584949 164.316974 215.208979 165.941005 
C 216.83301 167.565035 219.035977 168.477534 221.332704 168.477534 
z
" clip-path="url(#p97e2c714bf)" style="fill: #ffffff; stroke: #000000"/>
    <path d="M 239.467296 181.460254 
C 241.764023 181.460254 243.96699 180.547755 245.591021 178.923724 
C 247.215051 177.299694 248.12755 175.096726 248.12755 172.8 
C 248.12755 170.503274 247.215051 168.300306 245.591021 166.676276 
C 243.96699 165.052245 241.764023 164.139746 239.467296 164.139746 
C 237.17057 164.139746 234.967603 165.052245 233.343572 166.676276 
C 231.719541 168.300306 230.807042 170.503274 230.807042 172.8 
C 230.807042 175.096726 231.719541 177.299694 233.343572 178.923724 
C 234.967603 180.547755 237.17057 181.460254 239.467296 181.460254 
z
" clip-path="url(#p97e2c714bf)" style="fill: #ffffff; stroke: #000000"/>
    <path d="M 257.601889 181.460254 
C 259.898615 181.460254 262.101583 180.547755 263.725613 178.923724 
C 265.349644 177.299694 266.262143 175.096726 266.262143 172.8 
C 266.262143 170.503274 265.349644 168.300306 263.725613 166.676276 
C 262.101583 165.052245 259.898615 164.139746 257.601889 164.139746 
C 255.305163 164.139746 253.102195 165.052245 251.478165 166.676276 
C 249.854134 168.300306 248.941635 170.503274 248.941635 172.8 
C 248.941635 175.096726 249.854134 177.299694 251.478165 178.923724 
C 253.102195 180.547755 255.305163 181.460254 257.601889 181.460254 
z
" clip-path="url(#p97e2c714bf)" style="fill: #ffffff; stroke: #000000"/>
    <path d="M 275.736482 194.442974 
C 278.033208 194.442974 280.236175 193.530475 281.860206 191.906444 
C 283.484237 190.282413 284.396736 188.079446 284.396736 185.78272 
C 284.396736 183.485994 283.484237 181.283026 281.860206 179.658995 
C 280.236175 178.034965 278.033208 177.122466 275.736482 177.122466 
C 273.439755 177.122466 271.236788 178.034965 269.612757 179.658995 
C 267.988727 181.283026 267.076228 183.485994 267.076228 185.78272 
C 267.076228 188.079446 267.988727 190.282413 269.612757 191.906444 
C 271.236788 193.530475 273.439755 194.442974 275.736482 194.442974 
z
" clip-path="url(#p97e2c714bf)" style="fill: #ffffff; stroke: #000000"/>
    <path d="M 275.736482 168.477534 
C 278.033208 168.477534 280.236175 167.565035 281.860206 165.941005 
C 283.484237 164.316974 284.396736 162.114006 284.396736 159.81728 
C 284.396736 157.520554 283.484237 155.317587 281.860206 153.693556 
C 280.236175 152.069525 278.033208 151.157026 275.736482 151.157026 
C 273.439755 151.157026 271.236788 152.069525 269.612757 153.693556 
C 267.988727 155.317587 267.076228 157.520554 267.076228 159.81728 
C 267.076228 162.114006 267.988727 164.316974 269.612757 165.941005 
C 271.236788 167.565035 273.439755 168.477534 275.736482 168.477534 
z
" clip-path="url(#p97e2c714bf)" style="fill: #ffffff; stroke: #000000"/>
    <path d="M 293.871074 181.460254 
C 296.167801 181.460254 298.370768 180.547755 299.994799 178.923724 
C 301.618829 177.299694 302.531328 175.096726 302.531328 172.8 
C 302.531328 170.503274 301.618829 168.300306 299.994799 166.676276 
C 298.370768 165.052245 296.167801 164.139746 293.871074 164.139746 
C 291.574348 164.139746 289.371381 165.052245 287.74735 166.676276 
C 286.123319 168.300306 285.21082 170.503274 285.21082 172.8 
C 285.21082 175.096726 286.123319 177.299694 287.74735 178.923724 
C 289.371381 180.547755 291.574348 181.460254 293.871074 181.460254 
z
" clip-path="url(#p97e2c714bf)" style="fill: #ffffff; stroke: #000000"/>
    <path d="M 312.005667 181.460254 
C 314.302393 181.460254 316.505361 180.547755 318.129391 178.923724 
C 319.753422 177.299694 320.665921 175.096726 320.665921 172.8 
C 320.665921 170.503274 319.753422 168.300306 318.129391 166.676276 
C 316.505361 165.052245 314.302393 164.139746 312.005667 164.139746 
C 309.708941 164.139746 307.505973 165.052245 305.881943 166.676276 
C 304.257912 168.300306 303.345413 170.503274 303.345413 172.8 
C 303.345413 175.096726 304.257912 177.299694 305.881943 178.923724 
C 307.505973 180.547755 309.708941 181.460254 312.005667 181.460254 
z
" clip-path="url(#p97e2c714bf)" style="fill: #ffffff; stroke: #000000"/>
    <path d="M 330.14026 181.460254 
C 332.436986 181.460254 334.639953 180.547755 336.263984 178.923724 
C 337.888015 177.299694 338.800514 175.096726 338.800514 172.8 
C 338.800514 170.503274 337.888015 168.300306 336.263984 166.676276 
C 334.639953 165.052245 332.436986 164.139746 330.14026 164.139746 
C 327.843534 164.139746 325.640566 165.052245 324.016535 166.676276 
C 322.392505 168.300306 321.480006 170.503274 321.480006 172.8 
C 321.480006 175.096726 322.392505 177.299694 324.016535 178.923724 
C 325.640566 180.547755 327.843534 181.460254 330.14026 181.460254 
z
" clip-path="url(#p97e2c714bf)" style="fill: #ffffff; stroke: #000000"/>
    <path d="M 348.274852 181.460254 
C 350.571579 181.460254 352.774546 180.547755 354.398577 178.923724 
C 356.022607 177.299694 356.935106 175.096726 356.935106 172.8 
C 356.935106 170.503274 356.022607 168.300306 354.398577 166.676276 
C 352.774546 165.052245 350.571579 164.139746 348.274852 164.139746 
C 345.978126 164.139746 343.775159 165.052245 342.151128 166.676276 
C 340.527097 168.300306 339.614598 170.503274 339.614598 172.8 
C 339.614598 175.096726 340.527097 177.299694 342.151128 178.923724 
C 343.775159 180.547755 345.978126 181.460254 348.274852 181.460254 
z
" clip-path="url(#p97e2c714bf)" style="fill: #ffffff; stroke: #000000"/>
    <path d="M 366.409445 194.442974 
C 368.706171 194.442974 370.909139 193.530475 372.533169 191.906444 
C 374.1572 190.282413 375.069699 188.079446 375.069699 185.78272 
C 375.069699 183.485994 374.1572 181.283026 372.533169 179.658995 
C 370.909139 178.034965 368.706171 177.122466 366.409445 177.122466 
C 364.112719 177.122466 361.909751 178.034965 360.285721 179.658995 
C 358.66169 181.283026 357.749191 183.485994 357.749191 185.78272 
C 357.749191 188.079446 358.66169 190.282413 360.285721 191.906444 
C 361.909751 193.530475 364.112719 194.442974 366.409445 194.442974 
z
" clip-path="url(#p97e2c714bf)" style="fill: #ffffff; stroke: #000000"/>
    <path d="M 366.409445 168.477534 
C 368.706171 168.477534 370.909139 167.565035 372.533169 165.941005 
C 374.1572 164.316974 375.069699 162.114006 375.069699 159.81728 
C 375.069699 157.520554 374.1572 155.317587 372.533169 153.693556 
C 370.909139 152.069525 368.706171 151.157026 366.409445 151.157026 
C 364.112719 151.157026 361.909751 152.069525 360.285721 153.693556 
C 358.66169 155.317587 357.749191 157.520554 357.749191 159.81728 
C 357.749191 162.114006 358.66169 164.316974 360.285721 165.941005 
C 361.909751 167.565035 364.112719 168.477534 366.409445 168.477534 
z
" clip-path="url(#p97e2c714bf)" style="fill: #ffffff; stroke: #000000"/>
    <path d="M 384.544038 194.442974 
C 386.840764 194.442974 389.043731 193.530475 390.667762 191.906444 
C 392.291793 190.282413 393.204292 188.079446 393.204292 185.78272 
C 393.204292 183.485994 392.291793 181.283026 390.667762 179.658995 
C 389.043731 178.034965 386.840764 177.122466 384.544038 177.122466 
C 382.247312 177.122466 380.044344 178.034965 378.420313 179.658995 
C 376.796283 181.283026 375.883784 183.485994 375.883784 185.78272 
C 375.883784 188.079446 376.796283 190.282413 378.420313 191.906444 
C 380.044344 193.530475 382.247312 194.442974 384.544038 194.442974 
z
" clip-path="url(#p97e2c714bf)" style="fill: #ffffff; stroke: #000000"/>
    <path d="M 384.544038 168.477534 
C 386.840764 168.477534 389.043731 167.565035 390.667762 165.941005 
C 392.291793 164.316974 393.204292 162.114006 393.204292 159.81728 
C 393.204292 157.520554 392.291793 155.317587 390.667762 153.693556 
C 389.043731 152.069525 386.840764 151.157026 384.544038 151.157026 
C 382.247312 151.157026 380.044344 152.069525 378.420313 153.693556 
C 376.796283 155.317587 375.883784 157.520554 375.883784 159.81728 
C 375.883784 162.114006 376.796283 164.316974 378.420313 165.941005 
C 380.044344 167.565035 382.247312 168.477534 384.544038 168.477534 
z
" clip-path="url(#p97e2c714bf)" style="fill: #ffffff; stroke: #000000"/>
    <path d="M 402.67863 181.460254 
C 404.975357 181.460254 407.178324 180.547755 408.802355 178.923724 
C 410.426386 177.299694 411.338884 175.096726 411.338884 172.8 
C 411.338884 170.503274 410.426386 168.300306 408.802355 166.676276 
C 407.178324 165.052245 404.975357 164.139746 402.67863 164.139746 
C 400.381904 164.139746 398.178937 165.052245 396.554906 166.676276 
C 394.930875 168.300306 394.018376 170.503274 394.018376 172.8 
C 394.018376 175.096726 394.930875 177.299694 396.554906 178.923724 
C 398.178937 180.547755 400.381904 181.460254 402.67863 181.460254 
z
" clip-path="url(#p97e2c714bf)" style="fill: #ffffff; stroke: #000000"/>
    <path d="M 420.813223 181.460254 
C 423.109949 181.460254 425.312917 180.547755 426.936947 178.923724 
C 428.560978 177.299694 429.473477 175.096726 429.473477 172.8 
C 429.473477 170.503274 428.560978 168.300306 426.936947 166.676276 
C 425.312917 165.052245 423.109949 164.139746 420.813223 164.139746 
C 418.516497 164.139746 416.313529 165.052245 414.689499 166.676276 
C 413.065468 168.300306 412.152969 170.503274 412.152969 172.8 
C 412.152969 175.096726 413.065468 177.299694 414.689499 178.923724 
C 416.313529 180.547755 418.516497 181.460254 420.813223 181.460254 
z
" clip-path="url(#p97e2c714bf)" style="fill: #0000ff; stroke: #000000"/>
   </g>
  </g>
 </g>
 <defs>
  <clipPath id="p97e2c714bf">
   <rect x="0" y="0" width="460.8" height="345.6"/>
  </clipPath>
 </defs>
</svg>
