<?xml version="1.0" encoding="utf-8" standalone="no"?>
<!DOCTYPE svg PUBLIC "-//W3C//DTD SVG 1.1//EN"
  "http://www.w3.org/Graphics/SVG/1.1/DTD/svg11.dtd">
<svg xmlns:xlink="http://www.w3.org/1999/xlink" width="460.8pt" height="345.6pt" viewBox="0 0 460.8 345.6" xmlns="http://www.w3.org/2000/svg" version="1.1">
 <metadata>
  <rdf:RDF xmlns:dc="http://purl.org/dc/elements/1.1/" xmlns:cc="http://creativecommons.org/ns#" xmlns:rdf="http://www.w3.org/1999/02/22-rdf-syntax-ns#">
   <cc:Work>
    <dc:type rdf:resource="http://purl.org/dc/dcmitype/StillImage"/>
    <dc:date>2025-11-07T22:14:11.207779</dc:date>
    <dc:format>image/svg+xml</dc:format>
    <dc:creator>
     <cc:Agent>
      <dc:title>Matplotlib v3.10.5, https://matplotlib.org/</dc:title>
     </cc:Agent>
    </dc:creator>
   </cc:Work>
  </rdf:RDF>
 </metadata>
 <defs>
  <style type="text/css">*{stroke-linejoin: round; stroke-linecap: butt}</style>
 </defs>
 <g id="figure_1">
  <g id="patch_1">
   <path d="M 0 345.6 
L 460.8 345.6 
L 460.8 0 
L 0 0 
z
" style="fill: #ffffff"/>
  </g>
  <g id="axes_1">
   <g id="patch_2">
    <path d="M 47.946689 312.198526 
Q 206.59912 244.204628 364.223914 176.651144 
" clip-path="url(#pc501d70517)" style="fill: none; stroke: #4c4c4c; stroke-linecap: round"/>
    <path d="M 362.884589 176.57236 
L 364.223914 176.651144 
L 363.357292 177.675334 
" clip-path="url(#pc501d70517)" style="fill: none; stroke: #4c4c4c; stroke-linecap: round"/>
   </g>
   <g id="patch_3">
    <path d="M 43.253499 307.591598 
Q 47.91967 296.138269 52.164011 285.720343 
" clip-path="url(#pc501d70517)" style="fill: none; stroke: #4c4c4c; stroke-linecap: round"/>
    <path d="M 51.155599 286.605276 
L 52.164011 285.720343 
L 52.26691 287.058032 
" clip-path="url(#pc501d70517)" style="fill: none; stroke: #4c4c4c; stroke-linecap: round"/>
   </g>
   <g id="patch_4">
    <path d="M 46.884859 310.369166 
Q 151.063153 231.220723 254.351198 152.748636 
" clip-path="url(#pc501d70517)" style="fill: none; stroke: #4c4c4c; stroke-linecap: round"/>
    <path d="M 253.032713 152.996822 
L 254.351198 152.748636 
L 253.758655 153.952336 
" clip-path="url(#pc501d70517)" style="fill: none; stroke: #4c4c4c; stroke-linecap: round"/>
   </g>
   <g id="patch_5">
    <path d="M 48.114844 286.651871 
Q 198.664745 231.222135 348.165465 176.178688 
" clip-path="url(#pc501d70517)" style="fill: none; stroke: #4c4c4c; stroke-linecap: round"/>
    <path d="M 346.832061 176.030248 
L 348.165465 176.178688 
L 347.24667 177.156347 
" clip-path="url(#pc501d70517)" style="fill: none; stroke: #4c4c4c; stroke-linecap: round"/>
   </g>
   <g id="patch_6">
    <path d="M 46.691161 284.159073 
Q 119.325801 224.730731 191.09513 166.010371 
" clip-path="url(#pc501d70517)" style="fill: none; stroke: #4c4c4c; stroke-linecap: round"/>
    <path d="M 189.786438 166.305882 
L 191.09513 166.010371 
L 190.546324 167.234631 
" clip-path="url(#pc501d70517)" style="fill: none; stroke: #4c4c4c; stroke-linecap: round"/>
   </g>
   <g id="patch_7">
    <path d="M 43.253499 281.626159 
Q 47.91967 270.17283 52.164011 259.754904 
" clip-path="url(#pc501d70517)" style="fill: none; stroke: #4c4c4c; stroke-linecap: round"/>
    <path d="M 51.155599 260.639836 
L 52.164011 259.754904 
L 52.26691 261.092593 
" clip-path="url(#pc501d70517)" style="fill: none; stroke: #4c4c4c; stroke-linecap: round"/>
   </g>
   <g id="patch_8">
    <path d="M 43.253499 255.660719 
Q 47.91967 244.20739 52.164011 233.789464 
" clip-path="url(#pc501d70517)" style="fill: none; stroke: #4c4c4c; stroke-linecap: round"/>
    <path d="M 51.155599 234.674397 
L 52.164011 233.789464 
L 52.26691 235.127153 
" clip-path="url(#pc501d70517)" style="fill: none; stroke: #4c4c4c; stroke-linecap: round"/>
   </g>
   <g id="patch_9">
    <path d="M 42.517446 255.396849 
Q 55.854734 211.747543 68.865311 169.167471 
" clip-path="url(#pc501d70517)" style="fill: none; stroke: #4c4c4c; stroke-linecap: round"/>
    <path d="M 67.940838 170.139761 
L 68.865311 169.167471 
L 69.08846 170.490424 
" clip-path="url(#pc501d70517)" style="fill: none; stroke: #4c4c4c; stroke-linecap: round"/>
   </g>
   <g id="patch_10">
    <path d="M 42.042885 255.267688 
Q 47.92068 231.22216 53.532995 208.262689 
" clip-path="url(#pc501d70517)" style="fill: none; stroke: #4c4c4c; stroke-linecap: round"/>
    <path d="M 52.665212 209.285896 
L 53.532995 208.262689 
L 53.830891 209.57084 
" clip-path="url(#pc501d70517)" style="fill: none; stroke: #4c4c4c; stroke-linecap: round"/>
   </g>
   <g id="patch_11">
    <path d="M 41.476801 255.145261 
Q 47.920855 218.238411 54.172605 182.432932 
" clip-path="url(#pc501d70517)" style="fill: none; stroke: #4c4c4c; stroke-linecap: round"/>
    <path d="M 53.375146 183.511847 
L 54.172605 182.432932 
L 54.557262 183.718249 
" clip-path="url(#pc501d70517)" style="fill: none; stroke: #4c4c4c; stroke-linecap: round"/>
   </g>
   <g id="patch_12">
    <path d="M 47.590405 233.566165 
Q 87.591615 211.747323 126.611307 190.463855 
" clip-path="url(#pc501d70517)" style="fill: none; stroke: #4c4c4c; stroke-linecap: round"/>
    <path d="M 125.270521 190.51174 
L 126.611307 190.463855 
L 125.845144 191.565215 
" clip-path="url(#pc501d70517)" style="fill: none; stroke: #4c4c4c; stroke-linecap: round"/>
   </g>
   <g id="patch_13">
    <path d="M 42.042885 203.336809 
Q 47.92068 179.291281 53.532995 156.33181 
" clip-path="url(#pc501d70517)" style="fill: none; stroke: #4c4c4c; stroke-linecap: round"/>
    <path d="M 52.665212 157.355017 
L 53.532995 156.33181 
L 53.830891 157.639961 
" clip-path="url(#pc501d70517)" style="fill: none; stroke: #4c4c4c; stroke-linecap: round"/>
   </g>
   <g id="patch_14">
    <path d="M 48.474638 210.012006 
Q 103.459652 198.765071 157.349312 187.742186 
" clip-path="url(#pc501d70517)" style="fill: none; stroke: #4c4c4c; stroke-linecap: round"/>
    <path d="M 156.053416 187.394833 
L 157.349312 187.742186 
L 156.293891 188.570491 
" clip-path="url(#pc501d70517)" style="fill: none; stroke: #4c4c4c; stroke-linecap: round"/>
   </g>
   <g id="patch_15">
    <path d="M 48.340018 209.470003 
Q 87.588104 198.765979 125.757551 188.35613 
" clip-path="url(#pc501d70517)" style="fill: none; stroke: #4c4c4c; stroke-linecap: round"/>
    <path d="M 124.441964 188.093012 
L 125.757551 188.35613 
L 124.757705 189.250729 
" clip-path="url(#pc501d70517)" style="fill: none; stroke: #4c4c4c; stroke-linecap: round"/>
   </g>
   <g id="patch_16">
    <path d="M 41.152357 203.165253 
Q 47.920846 153.324557 54.538885 104.591725 
" clip-path="url(#pc501d70517)" style="fill: none; stroke: #4c4c4c; stroke-linecap: round"/>
    <path d="M 53.782862 105.70007 
L 54.538885 104.591725 
L 54.971947 105.861551 
" clip-path="url(#pc501d70517)" style="fill: none; stroke: #4c4c4c; stroke-linecap: round"/>
   </g>
   <g id="patch_17">
    <path d="M 48.624028 211.105719 
Q 214.532588 198.765413 379.326193 186.508037 
" clip-path="url(#pc501d70517)" style="fill: none; stroke: #4c4c4c; stroke-linecap: round"/>
    <path d="M 378.084994 185.998701 
L 379.326193 186.508037 
L 378.174004 187.195395 
" clip-path="url(#pc501d70517)" style="fill: none; stroke: #4c4c4c; stroke-linecap: round"/>
   </g>
   <g id="patch_18">
    <path d="M 47.761344 207.931553 
Q 79.658202 192.273096 110.551437 177.107326 
" clip-path="url(#pc501d70517)" style="fill: none; stroke: #4c4c4c; stroke-linecap: round"/>
    <path d="M 109.209832 177.097533 
L 110.551437 177.107326 
L 109.73864 178.174734 
" clip-path="url(#pc501d70517)" style="fill: none; stroke: #4c4c4c; stroke-linecap: round"/>
   </g>
   <g id="patch_19">
    <path d="M 41.476801 203.214382 
Q 47.920855 166.307532 54.172605 130.502053 
" clip-path="url(#pc501d70517)" style="fill: none; stroke: #4c4c4c; stroke-linecap: round"/>
    <path d="M 53.375146 131.580968 
L 54.172605 130.502053 
L 54.557262 131.78737 
" clip-path="url(#pc501d70517)" style="fill: none; stroke: #4c4c4c; stroke-linecap: round"/>
   </g>
   <g id="patch_20">
    <path d="M 48.638192 185.445652 
Q 206.597984 179.291374 363.440589 173.180623 
" clip-path="url(#pc501d70517)" style="fill: none; stroke: #4c4c4c; stroke-linecap: round"/>
    <path d="M 362.218139 172.627796 
L 363.440589 173.180623 
L 362.264857 173.826886 
" clip-path="url(#pc501d70517)" style="fill: none; stroke: #4c4c4c; stroke-linecap: round"/>
   </g>
   <g id="patch_21">
    <path d="M 48.633955 186.288074 
Q 151.063307 192.274205 252.376529 198.195108 
" clip-path="url(#pc501d70517)" style="fill: none; stroke: #4c4c4c; stroke-linecap: round"/>
    <path d="M 251.213578 197.526119 
L 252.376529 198.195108 
L 251.143568 198.724075 
" clip-path="url(#pc501d70517)" style="fill: none; stroke: #4c4c4c; stroke-linecap: round"/>
   </g>
   <g id="patch_22">
    <path d="M 48.61168 184.998638 
Q 111.390103 179.291508 173.055083 173.685601 
" clip-path="url(#pc501d70517)" style="fill: none; stroke: #4c4c4c; stroke-linecap: round"/>
    <path d="M 171.80569 173.196708 
L 173.055083 173.685601 
L 171.914333 174.39178 
" clip-path="url(#pc501d70517)" style="fill: none; stroke: #4c4c4c; stroke-linecap: round"/>
   </g>
   <g id="patch_23">
    <path d="M 48.533716 161.21587 
Q 79.654242 166.30832 109.671407 171.22022 
" clip-path="url(#pc501d70517)" style="fill: none; stroke: #4c4c4c; stroke-linecap: round"/>
    <path d="M 108.584051 170.434309 
L 109.671407 171.22022 
L 108.390265 171.618558 
" clip-path="url(#pc501d70517)" style="fill: none; stroke: #4c4c4c; stroke-linecap: round"/>
   </g>
   <g id="patch_24">
    <path d="M 48.633955 134.357195 
Q 151.063307 140.343326 252.376529 146.264229 
" clip-path="url(#pc501d70517)" style="fill: none; stroke: #4c4c4c; stroke-linecap: round"/>
    <path d="M 251.213578 145.59524 
L 252.376529 146.264229 
L 251.143568 146.793196 
" clip-path="url(#pc501d70517)" style="fill: none; stroke: #4c4c4c; stroke-linecap: round"/>
   </g>
   <g id="patch_25">
    <path d="M 48.170774 84.740329 
Q 190.729771 133.851563 332.231701 182.598639 
" clip-path="url(#pc501d70517)" style="fill: none; stroke: #4c4c4c; stroke-linecap: round"/>
    <path d="M 331.292565 181.640503 
L 332.231701 182.598639 
L 330.901711 182.775066 
" clip-path="url(#pc501d70517)" style="fill: none; stroke: #4c4c4c; stroke-linecap: round"/>
   </g>
   <g id="patch_26">
    <path d="M 45.10913 62.940549 
Q 87.590423 120.869585 129.410551 177.897032 
" clip-path="url(#pc501d70517)" style="fill: none; stroke: #4c4c4c; stroke-linecap: round"/>
    <path d="M 129.184758 176.574528 
L 129.410551 177.897032 
L 128.217072 177.284165 
" clip-path="url(#pc501d70517)" style="fill: none; stroke: #4c4c4c; stroke-linecap: round"/>
   </g>
   <g id="patch_27">
    <path d="M 47.922356 59.41832 
Q 158.99392 107.885912 269.040763 155.906352 
" clip-path="url(#pc501d70517)" style="fill: none; stroke: #4c4c4c; stroke-linecap: round"/>
    <path d="M 268.180882 154.876495 
L 269.040763 155.906352 
L 267.700949 155.976343 
" clip-path="url(#pc501d70517)" style="fill: none; stroke: #4c4c4c; stroke-linecap: round"/>
   </g>
   <g id="patch_28">
    <path d="M 46.690677 61.440531 
Q 47.922295 62.448219 48.288603 62.747926 
" clip-path="url(#pc501d70517)" style="fill: none; stroke: #4c4c4c; stroke-linecap: round"/>
    <path d="M 47.739797 61.523666 
L 48.288603 62.747926 
L 46.979912 62.452415 
" clip-path="url(#pc501d70517)" style="fill: none; stroke: #4c4c4c; stroke-linecap: round"/>
   </g>
   <g id="patch_29">
    <path d="M 48.288446 58.42544 
Q 214.532141 107.886374 379.704225 157.028482 
" clip-path="url(#pc501d70517)" style="fill: none; stroke: #4c4c4c; stroke-linecap: round"/>
    <path d="M 378.725152 156.111195 
L 379.704225 157.028482 
L 378.382952 157.261368 
" clip-path="url(#pc501d70517)" style="fill: none; stroke: #4c4c4c; stroke-linecap: round"/>
   </g>
   <g id="patch_30">
    <path d="M 48.102011 33.008145 
Q 214.530305 94.902965 379.910686 156.408066 
" clip-path="url(#pc501d70517)" style="fill: none; stroke: #4c4c4c; stroke-linecap: round"/>
    <path d="M 378.995095 155.427407 
L 379.910686 156.408066 
L 378.576804 156.552143 
" clip-path="url(#pc501d70517)" style="fill: none; stroke: #4c4c4c; stroke-linecap: round"/>
   </g>
   <g id="patch_31">
    <path d="M 47.946689 33.401474 
Q 206.59912 101.395372 364.223914 168.948856 
" clip-path="url(#pc501d70517)" style="fill: none; stroke: #4c4c4c; stroke-linecap: round"/>
    <path d="M 363.357292 167.924666 
L 364.223914 168.948856 
L 362.884589 169.02764 
" clip-path="url(#pc501d70517)" style="fill: none; stroke: #4c4c4c; stroke-linecap: round"/>
   </g>
   <g id="patch_32">
    <path d="M 63.953315 273.603481 
Q 158.993751 237.714086 252.988242 202.219663 
" clip-path="url(#pc501d70517)" style="fill: none; stroke: #4c4c4c; stroke-linecap: round"/>
    <path d="M 251.653654 202.082279 
L 252.988242 202.219663 
L 252.077582 203.204903 
" clip-path="url(#pc501d70517)" style="fill: none; stroke: #4c4c4c; stroke-linecap: round"/>
   </g>
   <g id="patch_33">
    <path d="M 63.942662 273.573568 
Q 174.859895 231.223352 284.73264 189.27194 
" clip-path="url(#pc501d70517)" style="fill: none; stroke: #4c4c4c; stroke-linecap: round"/>
    <path d="M 283.397557 189.139451 
L 284.73264 189.27194 
L 283.825599 190.260513 
" clip-path="url(#pc501d70517)" style="fill: none; stroke: #4c4c4c; stroke-linecap: round"/>
   </g>
   <g id="patch_34">
    <path d="M 63.234452 272.133179 
Q 119.324863 237.714063 174.462347 203.879698 
" clip-path="url(#pc501d70517)" style="fill: none; stroke: #4c4c4c; stroke-linecap: round"/>
    <path d="M 173.12575 203.995924 
L 174.462347 203.879698 
L 173.75337 205.018711 
" clip-path="url(#pc501d70517)" style="fill: none; stroke: #4c4c4c; stroke-linecap: round"/>
   </g>
   <g id="patch_35">
    <path d="M 64.305362 222.84516 
Q 143.126564 205.256958 220.856568 187.912246 
" clip-path="url(#pc501d70517)" style="fill: none; stroke: #4c4c4c; stroke-linecap: round"/>
    <path d="M 219.554701 187.587989 
L 220.856568 187.912246 
L 219.816043 188.759185 
" clip-path="url(#pc501d70517)" style="fill: none; stroke: #4c4c4c; stroke-linecap: round"/>
   </g>
   <g id="patch_36">
    <path d="M 62.121655 74.920483 
Q 103.457841 114.377752 143.985291 153.063045 
" clip-path="url(#pc501d70517)" style="fill: none; stroke: #4c4c4c; stroke-linecap: round"/>
    <path d="M 143.53155 151.80046 
L 143.985291 153.063045 
L 142.702979 152.668487 
" clip-path="url(#pc501d70517)" style="fill: none; stroke: #4c4c4c; stroke-linecap: round"/>
   </g>
   <g id="patch_37">
    <path d="M 64.434414 197.595457 
Q 151.060239 185.782845 236.578283 174.121294 
" clip-path="url(#pc501d70517)" style="fill: none; stroke: #4c4c4c; stroke-linecap: round"/>
    <path d="M 235.308218 173.688931 
L 236.578283 174.121294 
L 235.470354 174.877927 
" clip-path="url(#pc501d70517)" style="fill: none; stroke: #4c4c4c; stroke-linecap: round"/>
   </g>
   <g id="patch_38">
    <path d="M 62.558445 193.280431 
Q 63.790064 192.272743 64.156372 191.973036 
" clip-path="url(#pc501d70517)" style="fill: none; stroke: #4c4c4c; stroke-linecap: round"/>
    <path d="M 62.84768 192.268547 
L 64.156372 191.973036 
L 63.607566 193.197296 
" clip-path="url(#pc501d70517)" style="fill: none; stroke: #4c4c4c; stroke-linecap: round"/>
   </g>
   <g id="patch_39">
    <path d="M 63.458174 194.618006 
Q 79.655553 185.783072 94.871415 177.483511 
" clip-path="url(#pc501d70517)" style="fill: none; stroke: #4c4c4c; stroke-linecap: round"/>
    <path d="M 93.530629 177.531396 
L 94.871415 177.483511 
L 94.105252 178.584871 
" clip-path="url(#pc501d70517)" style="fill: none; stroke: #4c4c4c; stroke-linecap: round"/>
   </g>
   <g id="patch_40">
    <path d="M 64.479449 147.618643 
Q 127.257871 153.325772 188.922852 158.931679 
" clip-path="url(#pc501d70517)" style="fill: none; stroke: #4c4c4c; stroke-linecap: round"/>
    <path d="M 187.782101 158.2255 
L 188.922852 158.931679 
L 187.673459 159.420572 
" clip-path="url(#pc501d70517)" style="fill: none; stroke: #4c4c4c; stroke-linecap: round"/>
   </g>
   <g id="patch_41">
    <path d="M 64.488649 147.540987 
Q 214.531915 159.817254 363.46087 172.002351 
" clip-path="url(#pc501d70517)" style="fill: none; stroke: #4c4c4c; stroke-linecap: round"/>
    <path d="M 362.313794 171.306494 
L 363.46087 172.002351 
L 362.21594 172.502498 
" clip-path="url(#pc501d70517)" style="fill: none; stroke: #4c4c4c; stroke-linecap: round"/>
   </g>
   <g id="patch_42">
    <path d="M 64.388168 122.339027 
Q 206.598426 146.834574 347.706876 171.140336 
" clip-path="url(#pc501d70517)" style="fill: none; stroke: #4c4c4c; stroke-linecap: round"/>
    <path d="M 346.62614 170.345345 
L 347.706876 171.140336 
L 346.422441 171.527929 
" clip-path="url(#pc501d70517)" style="fill: none; stroke: #4c4c4c; stroke-linecap: round"/>
   </g>
   <g id="patch_43">
    <path d="M 59.121268 128.88744 
Q 63.787439 140.340769 68.031779 150.758695 
" clip-path="url(#pc501d70517)" style="fill: none; stroke: #4c4c4c; stroke-linecap: round"/>
    <path d="M 68.134679 149.421006 
L 68.031779 150.758695 
L 67.023368 149.873762 
" clip-path="url(#pc501d70517)" style="fill: none; stroke: #4c4c4c; stroke-linecap: round"/>
   </g>
   <g id="patch_44">
    <path d="M 63.869783 124.148082 
Q 119.324609 146.834147 173.744642 169.096888 
" clip-path="url(#pc501d70517)" style="fill: none; stroke: #4c4c4c; stroke-linecap: round"/>
    <path d="M 172.861166 168.0872 
L 173.744642 169.096888 
L 172.406806 169.197857 
" clip-path="url(#pc501d70517)" style="fill: none; stroke: #4c4c4c; stroke-linecap: round"/>
   </g>
   <g id="patch_45">
    <path d="M 63.234452 125.3977 
Q 119.324863 159.816816 174.462347 193.651181 
" clip-path="url(#pc501d70517)" style="fill: none; stroke: #4c4c4c; stroke-linecap: round"/>
    <path d="M 173.75337 192.512168 
L 174.462347 193.651181 
L 173.12575 193.534955 
" clip-path="url(#pc501d70517)" style="fill: none; stroke: #4c4c4c; stroke-linecap: round"/>
   </g>
   <g id="patch_46">
    <path d="M 64.505598 173.19323 
Q 198.664465 179.29136 331.706451 185.338723 
" clip-path="url(#pc501d70517)" style="fill: none; stroke: #4c4c4c; stroke-linecap: round"/>
    <path d="M 330.534933 184.684853 
L 331.706451 185.338723 
L 330.480444 185.883615 
" clip-path="url(#pc501d70517)" style="fill: none; stroke: #4c4c4c; stroke-linecap: round"/>
   </g>
   <g id="patch_47">
    <path d="M 64.104642 97.528712 
Q 198.665109 140.343406 332.160173 182.819108 
" clip-path="url(#pc501d70517)" style="fill: none; stroke: #4c4c4c; stroke-linecap: round"/>
    <path d="M 331.198584 181.883508 
L 332.160173 182.819108 
L 330.83474 183.027019 
" clip-path="url(#pc501d70517)" style="fill: none; stroke: #4c4c4c; stroke-linecap: round"/>
   </g>
   <g id="patch_48">
    <path d="M 57.34457 242.162542 
Q 63.788623 205.255691 70.040374 169.450212 
" clip-path="url(#pc501d70517)" style="fill: none; stroke: #4c4c4c; stroke-linecap: round"/>
    <path d="M 69.242914 170.529128 
L 70.040374 169.450212 
L 70.42503 170.735529 
" clip-path="url(#pc501d70517)" style="fill: none; stroke: #4c4c4c; stroke-linecap: round"/>
   </g>
   <g id="patch_49">
    <path d="M 78.426214 165.302289 
Q 79.657832 166.309977 80.02414 166.609684 
" clip-path="url(#pc501d70517)" style="fill: none; stroke: #4c4c4c; stroke-linecap: round"/>
    <path d="M 79.475334 165.385424 
L 80.02414 166.609684 
L 78.715449 166.314173 
" clip-path="url(#pc501d70517)" style="fill: none; stroke: #4c4c4c; stroke-linecap: round"/>
   </g>
   <g id="patch_50">
    <path d="M 80.383536 185.78272 
Q 119.326056 185.78272 157.150542 185.78272 
" clip-path="url(#pc501d70517)" style="fill: none; stroke: #4c4c4c; stroke-linecap: round"/>
    <path d="M 155.950542 185.18272 
L 157.150542 185.78272 
L 155.950542 186.38272 
" clip-path="url(#pc501d70517)" style="fill: none; stroke: #4c4c4c; stroke-linecap: round"/>
   </g>
   <g id="patch_51">
    <path d="M 96.248399 172.8 
Q 99.853125 172.8 102.339817 172.8 
" clip-path="url(#pc501d70517)" style="fill: none; stroke: #4c4c4c; stroke-linecap: round"/>
    <path d="M 101.139817 172.2 
L 102.339817 172.8 
L 101.139817 173.4 
" clip-path="url(#pc501d70517)" style="fill: none; stroke: #4c4c4c; stroke-linecap: round"/>
   </g>
   <g id="patch_52">
    <path d="M 111.736519 170.259954 
Q 166.927278 153.326426 221.049181 136.720842 
" clip-path="url(#pc501d70517)" style="fill: none; stroke: #4c4c4c; stroke-linecap: round"/>
    <path d="M 219.725971 136.499221 
L 221.049181 136.720842 
L 220.077958 137.646437 
" clip-path="url(#pc501d70517)" style="fill: none; stroke: #4c4c4c; stroke-linecap: round"/>
   </g>
   <g id="patch_53">
    <path d="M 112.118589 172.8 
Q 214.531662 172.8 315.826702 172.8 
" clip-path="url(#pc501d70517)" style="fill: none; stroke: #4c4c4c; stroke-linecap: round"/>
    <path d="M 314.626702 172.2 
L 315.826702 172.8 
L 314.626702 173.4 
" clip-path="url(#pc501d70517)" style="fill: none; stroke: #4c4c4c; stroke-linecap: round"/>
   </g>
   <g id="patch_54">
    <path d="M 112.116167 172.8 
Q 115.720894 172.8 118.207586 172.8 
" clip-path="url(#pc501d70517)" style="fill: none; stroke: #4c4c4c; stroke-linecap: round"/>
    <path d="M 117.007586 172.2 
L 118.207586 172.8 
L 117.007586 173.4 
" clip-path="url(#pc501d70517)" style="fill: none; stroke: #4c4c4c; stroke-linecap: round"/>
   </g>
   <g id="patch_55">
    <path d="M 126.02952 167.314991 
Q 127.261138 166.307303 127.627446 166.007597 
" clip-path="url(#pc501d70517)" style="fill: none; stroke: #4c4c4c; stroke-linecap: round"/>
    <path d="M 126.318755 166.303108 
L 127.627446 166.007597 
L 127.07864 167.231856 
" clip-path="url(#pc501d70517)" style="fill: none; stroke: #4c4c4c; stroke-linecap: round"/>
   </g>
   <g id="patch_56">
    <path d="M 126.02952 178.285009 
Q 127.261138 179.292697 127.627446 179.592403 
" clip-path="url(#pc501d70517)" style="fill: none; stroke: #4c4c4c; stroke-linecap: round"/>
    <path d="M 127.07864 178.368144 
L 127.627446 179.592403 
L 126.318755 179.296892 
" clip-path="url(#pc501d70517)" style="fill: none; stroke: #4c4c4c; stroke-linecap: round"/>
   </g>
   <g id="patch_57">
    <path d="M 143.851705 185.78272 
Q 147.456431 185.78272 149.943123 185.78272 
" clip-path="url(#pc501d70517)" style="fill: none; stroke: #4c4c4c; stroke-linecap: round"/>
    <path d="M 148.743123 185.18272 
L 149.943123 185.78272 
L 148.743123 186.38272 
" clip-path="url(#pc501d70517)" style="fill: none; stroke: #4c4c4c; stroke-linecap: round"/>
   </g>
   <g id="patch_58">
    <path d="M 143.816597 184.952678 
Q 270.071778 172.799773 395.214069 160.753991 
" clip-path="url(#pc501d70517)" style="fill: none; stroke: #4c4c4c; stroke-linecap: round"/>
    <path d="M 393.962101 160.271728 
L 395.214069 160.753991 
L 394.077078 161.466207 
" clip-path="url(#pc501d70517)" style="fill: none; stroke: #4c4c4c; stroke-linecap: round"/>
   </g>
   <g id="patch_59">
    <path d="M 143.713694 184.233573 
Q 206.598428 172.799985 268.383161 161.566397 
" clip-path="url(#pc501d70517)" style="fill: none; stroke: #4c4c4c; stroke-linecap: round"/>
    <path d="M 267.095186 161.190738 
L 268.383161 161.566397 
L 267.309848 162.371382 
" clip-path="url(#pc501d70517)" style="fill: none; stroke: #4c4c4c; stroke-linecap: round"/>
   </g>
   <g id="patch_60">
    <path d="M 139.708497 178.39436 
Q 143.126629 172.801054 145.961762 168.161745 
" clip-path="url(#pc501d70517)" style="fill: none; stroke: #4c4c4c; stroke-linecap: round"/>
    <path d="M 144.824053 168.872813 
L 145.961762 168.161745 
L 145.847991 169.498553 
" clip-path="url(#pc501d70517)" style="fill: none; stroke: #4c4c4c; stroke-linecap: round"/>
   </g>
   <g id="patch_61">
    <path d="M 143.54663 162.095437 
Q 158.996072 166.308921 173.366876 170.228231 
" clip-path="url(#pc501d70517)" style="fill: none; stroke: #4c4c4c; stroke-linecap: round"/>
    <path d="M 172.36703 169.333632 
L 173.366876 170.228231 
L 172.051289 170.491349 
" clip-path="url(#pc501d70517)" style="fill: none; stroke: #4c4c4c; stroke-linecap: round"/>
   </g>
   <g id="patch_62">
    <path d="M 159.719473 185.78272 
Q 163.324199 185.78272 165.810892 185.78272 
" clip-path="url(#pc501d70517)" style="fill: none; stroke: #4c4c4c; stroke-linecap: round"/>
    <path d="M 164.610892 185.18272 
L 165.810892 185.78272 
L 164.610892 186.38272 
" clip-path="url(#pc501d70517)" style="fill: none; stroke: #4c4c4c; stroke-linecap: round"/>
   </g>
   <g id="patch_63">
    <path d="M 155.576265 178.39436 
Q 158.994397 172.801054 161.82953 168.161745 
" clip-path="url(#pc501d70517)" style="fill: none; stroke: #4c4c4c; stroke-linecap: round"/>
    <path d="M 160.691821 168.872813 
L 161.82953 168.161745 
L 161.715759 169.498553 
" clip-path="url(#pc501d70517)" style="fill: none; stroke: #4c4c4c; stroke-linecap: round"/>
   </g>
   <g id="patch_64">
    <path d="M 159.660879 186.787882 
Q 206.596637 192.27388 252.42192 197.630082 
" clip-path="url(#pc501d70517)" style="fill: none; stroke: #4c4c4c; stroke-linecap: round"/>
    <path d="M 251.29969 196.894827 
L 252.42192 197.630082 
L 251.160378 198.086713 
" clip-path="url(#pc501d70517)" style="fill: none; stroke: #4c4c4c; stroke-linecap: round"/>
   </g>
   <g id="patch_65">
    <path d="M 158.664786 163.964714 
Q 174.862165 172.799648 190.078027 181.099209 
" clip-path="url(#pc501d70517)" style="fill: none; stroke: #4c4c4c; stroke-linecap: round"/>
    <path d="M 189.311863 179.997849 
L 190.078027 181.099209 
L 188.737241 181.051324 
" clip-path="url(#pc501d70517)" style="fill: none; stroke: #4c4c4c; stroke-linecap: round"/>
   </g>
   <g id="patch_66">
    <path d="M 175.579494 185.340361 
Q 293.872512 179.291286 411.048956 173.299309 
" clip-path="url(#pc501d70517)" style="fill: none; stroke: #4c4c4c; stroke-linecap: round"/>
    <path d="M 409.81988 172.761376 
L 411.048956 173.299309 
L 409.881164 173.95981 
" clip-path="url(#pc501d70517)" style="fill: none; stroke: #4c4c4c; stroke-linecap: round"/>
   </g>
   <g id="patch_67">
    <path d="M 173.632825 191.267729 
Q 174.864444 192.275417 175.230752 192.575123 
" clip-path="url(#pc501d70517)" style="fill: none; stroke: #4c4c4c; stroke-linecap: round"/>
    <path d="M 174.681946 191.350863 
L 175.230752 192.575123 
L 173.922061 192.279612 
" clip-path="url(#pc501d70517)" style="fill: none; stroke: #4c4c4c; stroke-linecap: round"/>
   </g>
   <g id="patch_68">
    <path d="M 173.632825 180.297711 
Q 174.864444 179.290023 175.230752 178.990316 
" clip-path="url(#pc501d70517)" style="fill: none; stroke: #4c4c4c; stroke-linecap: round"/>
    <path d="M 173.922061 179.285827 
L 175.230752 178.990316 
L 174.681946 180.214576 
" clip-path="url(#pc501d70517)" style="fill: none; stroke: #4c4c4c; stroke-linecap: round"/>
   </g>
   <g id="patch_69">
    <path d="M 170.195648 177.764401 
Q 174.861819 166.311072 179.10616 155.893146 
" clip-path="url(#pc501d70517)" style="fill: none; stroke: #4c4c4c; stroke-linecap: round"/>
    <path d="M 178.097748 156.778078 
L 179.10616 155.893146 
L 179.209059 157.230835 
" clip-path="url(#pc501d70517)" style="fill: none; stroke: #4c4c4c; stroke-linecap: round"/>
   </g>
   <g id="patch_70">
    <path d="M 174.532554 181.635286 
Q 190.729933 172.800352 205.945795 164.500791 
" clip-path="url(#pc501d70517)" style="fill: none; stroke: #4c4c4c; stroke-linecap: round"/>
    <path d="M 204.605009 164.548676 
L 205.945795 164.500791 
L 205.179632 165.602151 
" clip-path="url(#pc501d70517)" style="fill: none; stroke: #4c4c4c; stroke-linecap: round"/>
   </g>
   <g id="patch_71">
    <path d="M 174.944163 163.096241 
Q 198.662839 172.799336 221.346721 182.079106 
" clip-path="url(#pc501d70517)" style="fill: none; stroke: #4c4c4c; stroke-linecap: round"/>
    <path d="M 220.463244 181.069418 
L 221.346721 182.079106 
L 220.008885 182.180074 
" clip-path="url(#pc501d70517)" style="fill: none; stroke: #4c4c4c; stroke-linecap: round"/>
   </g>
   <g id="patch_72">
    <path d="M 189.500594 204.250448 
Q 190.732213 205.258136 191.098521 205.557843 
" clip-path="url(#pc501d70517)" style="fill: none; stroke: #4c4c4c; stroke-linecap: round"/>
    <path d="M 190.549715 204.333583 
L 191.098521 205.557843 
L 189.789829 205.262332 
" clip-path="url(#pc501d70517)" style="fill: none; stroke: #4c4c4c; stroke-linecap: round"/>
   </g>
   <g id="patch_73">
    <path d="M 190.043434 194.022119 
Q 222.46706 172.799382 253.955225 152.188947 
" clip-path="url(#pc501d70517)" style="fill: none; stroke: #4c4c4c; stroke-linecap: round"/>
    <path d="M 252.622588 152.344117 
L 253.955225 152.188947 
L 253.279779 153.348159 
" clip-path="url(#pc501d70517)" style="fill: none; stroke: #4c4c4c; stroke-linecap: round"/>
   </g>
   <g id="patch_74">
    <path d="M 189.500594 167.314991 
Q 190.732213 166.307303 191.098521 166.007597 
" clip-path="url(#pc501d70517)" style="fill: none; stroke: #4c4c4c; stroke-linecap: round"/>
    <path d="M 189.789829 166.303108 
L 191.098521 166.007597 
L 190.549715 167.231856 
" clip-path="url(#pc501d70517)" style="fill: none; stroke: #4c4c4c; stroke-linecap: round"/>
   </g>
   <g id="patch_75">
    <path d="M 191.457916 172.8 
Q 278.003385 172.8 363.430819 172.8 
" clip-path="url(#pc501d70517)" style="fill: none; stroke: #4c4c4c; stroke-linecap: round"/>
    <path d="M 362.230819 172.2 
L 363.430819 172.8 
L 362.230819 173.4 
" clip-path="url(#pc501d70517)" style="fill: none; stroke: #4c4c4c; stroke-linecap: round"/>
   </g>
   <g id="patch_76">
    <path d="M 189.500594 178.285009 
Q 190.732213 179.292697 191.098521 179.592403 
" clip-path="url(#pc501d70517)" style="fill: none; stroke: #4c4c4c; stroke-linecap: round"/>
    <path d="M 190.549715 178.368144 
L 191.098521 179.592403 
L 189.789829 179.296892 
" clip-path="url(#pc501d70517)" style="fill: none; stroke: #4c4c4c; stroke-linecap: round"/>
   </g>
   <g id="patch_77">
    <path d="M 186.063417 164.781681 
Q 190.729588 153.328352 194.973928 142.910426 
" clip-path="url(#pc501d70517)" style="fill: none; stroke: #4c4c4c; stroke-linecap: round"/>
    <path d="M 193.965516 143.795359 
L 194.973928 142.910426 
L 195.076827 144.248115 
" clip-path="url(#pc501d70517)" style="fill: none; stroke: #4c4c4c; stroke-linecap: round"/>
   </g>
   <g id="patch_78">
    <path d="M 191.208045 148.899165 
Q 262.133774 166.308207 331.973698 183.450734 
" clip-path="url(#pc501d70517)" style="fill: none; stroke: #4c4c4c; stroke-linecap: round"/>
    <path d="M 330.951319 182.581976 
L 331.973698 183.450734 
L 330.665265 183.747383 
" clip-path="url(#pc501d70517)" style="fill: none; stroke: #4c4c4c; stroke-linecap: round"/>
   </g>
   <g id="patch_79">
    <path d="M 207.322779 185.78272 
Q 210.927505 185.78272 213.414197 185.78272 
" clip-path="url(#pc501d70517)" style="fill: none; stroke: #4c4c4c; stroke-linecap: round"/>
    <path d="M 212.214197 185.18272 
L 213.414197 185.78272 
L 212.214197 186.38272 
" clip-path="url(#pc501d70517)" style="fill: none; stroke: #4c4c4c; stroke-linecap: round"/>
   </g>
   <g id="patch_80">
    <path d="M 207.152324 184.046566 
Q 230.400384 179.291281 252.553089 174.760046 
" clip-path="url(#pc501d70517)" style="fill: none; stroke: #4c4c4c; stroke-linecap: round"/>
    <path d="M 251.257193 174.412693 
L 252.553089 174.760046 
L 251.497669 175.588351 
" clip-path="url(#pc501d70517)" style="fill: none; stroke: #4c4c4c; stroke-linecap: round"/>
   </g>
   <g id="patch_81">
    <path d="M 206.894221 209.054784 
Q 238.332127 198.766014 268.707457 188.824997 
" clip-path="url(#pc501d70517)" style="fill: none; stroke: #4c4c4c; stroke-linecap: round"/>
    <path d="M 267.380357 188.628006 
L 268.707457 188.824997 
L 267.753604 189.768483 
" clip-path="url(#pc501d70517)" style="fill: none; stroke: #4c4c4c; stroke-linecap: round"/>
   </g>
   <g id="patch_82">
    <path d="M 207.322779 159.81728 
Q 210.927505 159.81728 213.414197 159.81728 
" clip-path="url(#pc501d70517)" style="fill: none; stroke: #4c4c4c; stroke-linecap: round"/>
    <path d="M 212.214197 159.21728 
L 213.414197 159.81728 
L 212.214197 160.41728 
" clip-path="url(#pc501d70517)" style="fill: none; stroke: #4c4c4c; stroke-linecap: round"/>
   </g>
   <g id="patch_83">
    <path d="M 203.179571 141.2402 
Q 206.597703 146.833507 209.432836 151.472815 
" clip-path="url(#pc501d70517)" style="fill: none; stroke: #4c4c4c; stroke-linecap: round"/>
    <path d="M 209.319065 150.136007 
L 209.432836 151.472815 
L 208.295127 150.761747 
" clip-path="url(#pc501d70517)" style="fill: none; stroke: #4c4c4c; stroke-linecap: round"/>
   </g>
   <g id="patch_84">
    <path d="M 217.0629 168.099469 
Q 222.466037 185.782464 227.542464 202.396224 
" clip-path="url(#pc501d70517)" style="fill: none; stroke: #4c4c4c; stroke-linecap: round"/>
    <path d="M 227.765613 201.073271 
L 227.542464 202.396224 
L 226.617991 201.423934 
" clip-path="url(#pc501d70517)" style="fill: none; stroke: #4c4c4c; stroke-linecap: round"/>
   </g>
   <g id="patch_85">
    <path d="M 219.04734 178.39436 
Q 222.465472 172.801054 225.300605 168.161745 
" clip-path="url(#pc501d70517)" style="fill: none; stroke: #4c4c4c; stroke-linecap: round"/>
    <path d="M 224.162896 168.872813 
L 225.300605 168.161745 
L 225.186834 169.498553 
" clip-path="url(#pc501d70517)" style="fill: none; stroke: #4c4c4c; stroke-linecap: round"/>
   </g>
   <g id="patch_86">
    <path d="M 223.190548 185.78272 
Q 226.795274 185.78272 229.281966 185.78272 
" clip-path="url(#pc501d70517)" style="fill: none; stroke: #4c4c4c; stroke-linecap: round"/>
    <path d="M 228.081966 185.18272 
L 229.281966 185.78272 
L 228.081966 186.38272 
" clip-path="url(#pc501d70517)" style="fill: none; stroke: #4c4c4c; stroke-linecap: round"/>
   </g>
   <g id="patch_87">
    <path d="M 217.0629 177.500531 
Q 222.466037 159.817536 227.542464 143.203776 
" clip-path="url(#pc501d70517)" style="fill: none; stroke: #4c4c4c; stroke-linecap: round"/>
    <path d="M 226.617991 144.176066 
L 227.542464 143.203776 
L 227.765613 144.526729 
" clip-path="url(#pc501d70517)" style="fill: none; stroke: #4c4c4c; stroke-linecap: round"/>
   </g>
   <g id="patch_88">
    <path d="M 237.1039 191.267729 
Q 238.335518 192.275417 238.701826 192.575123 
" clip-path="url(#pc501d70517)" style="fill: none; stroke: #4c4c4c; stroke-linecap: round"/>
    <path d="M 238.15302 191.350863 
L 238.701826 192.575123 
L 237.393135 192.279612 
" clip-path="url(#pc501d70517)" style="fill: none; stroke: #4c4c4c; stroke-linecap: round"/>
   </g>
   <g id="patch_89">
    <path d="M 237.1039 180.297711 
Q 238.335518 179.290023 238.701826 178.990316 
" clip-path="url(#pc501d70517)" style="fill: none; stroke: #4c4c4c; stroke-linecap: round"/>
    <path d="M 237.393135 179.285827 
L 238.701826 178.990316 
L 238.15302 180.214576 
" clip-path="url(#pc501d70517)" style="fill: none; stroke: #4c4c4c; stroke-linecap: round"/>
   </g>
   <g id="patch_90">
    <path d="M 238.94694 161.21587 
Q 309.739946 172.80018 379.429593 184.203941 
" clip-path="url(#pc501d70517)" style="fill: none; stroke: #4c4c4c; stroke-linecap: round"/>
    <path d="M 378.342236 183.41803 
L 379.429593 184.203941 
L 378.14845 184.602279 
" clip-path="url(#pc501d70517)" style="fill: none; stroke: #4c4c4c; stroke-linecap: round"/>
   </g>
   <g id="patch_91">
    <path d="M 232.456108 203.336809 
Q 238.333904 179.291281 243.946219 156.33181 
" clip-path="url(#pc501d70517)" style="fill: none; stroke: #4c4c4c; stroke-linecap: round"/>
    <path d="M 243.078436 157.355017 
L 243.946219 156.33181 
L 244.244114 157.639961 
" clip-path="url(#pc501d70517)" style="fill: none; stroke: #4c4c4c; stroke-linecap: round"/>
   </g>
   <g id="patch_92">
    <path d="M 237.1039 139.33685 
Q 238.335518 140.344538 238.701826 140.644244 
" clip-path="url(#pc501d70517)" style="fill: none; stroke: #4c4c4c; stroke-linecap: round"/>
    <path d="M 238.15302 139.419984 
L 238.701826 140.644244 
L 237.393135 140.348733 
" clip-path="url(#pc501d70517)" style="fill: none; stroke: #4c4c4c; stroke-linecap: round"/>
   </g>
   <g id="patch_93">
    <path d="M 248.798438 155.11675 
Q 254.201575 172.799744 259.278002 189.413505 
" clip-path="url(#pc501d70517)" style="fill: none; stroke: #4c4c4c; stroke-linecap: round"/>
    <path d="M 259.50115 188.090552 
L 259.278002 189.413505 
L 258.353528 188.441214 
" clip-path="url(#pc501d70517)" style="fill: none; stroke: #4c4c4c; stroke-linecap: round"/>
   </g>
   <g id="patch_94">
    <path d="M 254.901872 147.540987 
Q 325.607987 153.326033 395.199792 159.019908 
" clip-path="url(#pc501d70517)" style="fill: none; stroke: #4c4c4c; stroke-linecap: round"/>
    <path d="M 394.052716 158.324051 
L 395.199792 159.019908 
L 393.954861 159.520055 
" clip-path="url(#pc501d70517)" style="fill: none; stroke: #4c4c4c; stroke-linecap: round"/>
   </g>
   <g id="patch_95">
    <path d="M 250.782877 191.37708 
Q 254.201009 185.783774 257.036142 181.144465 
" clip-path="url(#pc501d70517)" style="fill: none; stroke: #4c4c4c; stroke-linecap: round"/>
    <path d="M 255.898433 181.855533 
L 257.036142 181.144465 
L 256.922371 182.481273 
" clip-path="url(#pc501d70517)" style="fill: none; stroke: #4c4c4c; stroke-linecap: round"/>
   </g>
   <g id="patch_96">
    <path d="M 254.679119 196.700835 
Q 325.604848 179.291793 395.444773 162.149266 
" clip-path="url(#pc501d70517)" style="fill: none; stroke: #4c4c4c; stroke-linecap: round"/>
    <path d="M 394.136339 161.852617 
L 395.444773 162.149266 
L 394.422393 163.018024 
" clip-path="url(#pc501d70517)" style="fill: none; stroke: #4c4c4c; stroke-linecap: round"/>
   </g>
   <g id="patch_97">
    <path d="M 250.782877 165.411641 
Q 254.201009 159.818334 257.036142 155.179025 
" clip-path="url(#pc501d70517)" style="fill: none; stroke: #4c4c4c; stroke-linecap: round"/>
    <path d="M 255.898433 155.890094 
L 257.036142 155.179025 
L 256.922371 156.515834 
" clip-path="url(#pc501d70517)" style="fill: none; stroke: #4c4c4c; stroke-linecap: round"/>
   </g>
   <g id="patch_98">
    <path d="M 268.839437 193.280431 
Q 270.071056 192.272743 270.437364 191.973036 
" clip-path="url(#pc501d70517)" style="fill: none; stroke: #4c4c4c; stroke-linecap: round"/>
    <path d="M 269.128672 192.268547 
L 270.437364 191.973036 
L 269.888558 193.197296 
" clip-path="url(#pc501d70517)" style="fill: none; stroke: #4c4c4c; stroke-linecap: round"/>
   </g>
   <g id="patch_99">
    <path d="M 268.839437 167.314991 
Q 270.071056 166.307303 270.437364 166.007597 
" clip-path="url(#pc501d70517)" style="fill: none; stroke: #4c4c4c; stroke-linecap: round"/>
    <path d="M 269.128672 166.303108 
L 270.437364 166.007597 
L 269.888558 167.231856 
" clip-path="url(#pc501d70517)" style="fill: none; stroke: #4c4c4c; stroke-linecap: round"/>
   </g>
   <g id="patch_100">
    <path d="M 270.488778 149.112717 
Q 309.736864 159.816741 347.906312 170.22659 
" clip-path="url(#pc501d70517)" style="fill: none; stroke: #4c4c4c; stroke-linecap: round"/>
    <path d="M 346.906465 169.331991 
L 347.906312 170.22659 
L 346.590725 170.489707 
" clip-path="url(#pc501d70517)" style="fill: none; stroke: #4c4c4c; stroke-linecap: round"/>
   </g>
   <g id="patch_101">
    <path d="M 286.661622 185.78272 
Q 290.266348 185.78272 292.75304 185.78272 
" clip-path="url(#pc501d70517)" style="fill: none; stroke: #4c4c4c; stroke-linecap: round"/>
    <path d="M 291.55304 185.18272 
L 292.75304 185.78272 
L 291.55304 186.38272 
" clip-path="url(#pc501d70517)" style="fill: none; stroke: #4c4c4c; stroke-linecap: round"/>
   </g>
   <g id="patch_102">
    <path d="M 282.518414 178.39436 
Q 285.936546 172.801054 288.771679 168.161745 
" clip-path="url(#pc501d70517)" style="fill: none; stroke: #4c4c4c; stroke-linecap: round"/>
    <path d="M 287.63397 168.872813 
L 288.771679 168.161745 
L 288.657908 169.498553 
" clip-path="url(#pc501d70517)" style="fill: none; stroke: #4c4c4c; stroke-linecap: round"/>
   </g>
   <g id="patch_103">
    <path d="M 286.583174 160.987262 
Q 325.607242 166.308726 363.523529 171.479129 
" clip-path="url(#pc501d70517)" style="fill: none; stroke: #4c4c4c; stroke-linecap: round"/>
    <path d="M 362.415601 170.722495 
L 363.523529 171.479129 
L 362.253465 171.911491 
" clip-path="url(#pc501d70517)" style="fill: none; stroke: #4c4c4c; stroke-linecap: round"/>
   </g>
   <g id="patch_104">
    <path d="M 302.52939 185.78272 
Q 306.134117 185.78272 308.620809 185.78272 
" clip-path="url(#pc501d70517)" style="fill: none; stroke: #4c4c4c; stroke-linecap: round"/>
    <path d="M 307.420809 185.18272 
L 308.620809 185.78272 
L 307.420809 186.38272 
" clip-path="url(#pc501d70517)" style="fill: none; stroke: #4c4c4c; stroke-linecap: round"/>
   </g>
   <g id="patch_105">
    <path d="M 302.52939 159.81728 
Q 306.134117 159.81728 308.620809 159.81728 
" clip-path="url(#pc501d70517)" style="fill: none; stroke: #4c4c4c; stroke-linecap: round"/>
    <path d="M 307.420809 159.21728 
L 308.620809 159.81728 
L 307.420809 160.41728 
" clip-path="url(#pc501d70517)" style="fill: none; stroke: #4c4c4c; stroke-linecap: round"/>
   </g>
   <g id="patch_106">
    <path d="M 318.226705 184.046566 
Q 341.474764 179.291281 363.627469 174.760046 
" clip-path="url(#pc501d70517)" style="fill: none; stroke: #4c4c4c; stroke-linecap: round"/>
    <path d="M 362.331573 174.412693 
L 363.627469 174.760046 
L 362.572049 175.588351 
" clip-path="url(#pc501d70517)" style="fill: none; stroke: #4c4c4c; stroke-linecap: round"/>
   </g>
   <g id="patch_107">
    <path d="M 318.402002 185.78272 
Q 349.411044 185.78272 379.302053 185.78272 
" clip-path="url(#pc501d70517)" style="fill: none; stroke: #4c4c4c; stroke-linecap: round"/>
    <path d="M 378.102053 185.18272 
L 379.302053 185.78272 
L 378.102053 186.38272 
" clip-path="url(#pc501d70517)" style="fill: none; stroke: #4c4c4c; stroke-linecap: round"/>
   </g>
   <g id="patch_108">
    <path d="M 316.442743 180.297711 
Q 325.608074 172.798803 333.908095 166.007877 
" clip-path="url(#pc501d70517)" style="fill: none; stroke: #4c4c4c; stroke-linecap: round"/>
    <path d="M 332.599404 166.303388 
L 333.908095 166.007877 
L 333.359289 167.232137 
" clip-path="url(#pc501d70517)" style="fill: none; stroke: #4c4c4c; stroke-linecap: round"/>
   </g>
   <g id="patch_109">
    <path d="M 316.442743 165.302289 
Q 317.674361 166.309977 318.040669 166.609684 
" clip-path="url(#pc501d70517)" style="fill: none; stroke: #4c4c4c; stroke-linecap: round"/>
    <path d="M 317.491863 165.385424 
L 318.040669 166.609684 
L 316.731978 166.314173 
" clip-path="url(#pc501d70517)" style="fill: none; stroke: #4c4c4c; stroke-linecap: round"/>
   </g>
   <g id="patch_110">
    <path d="M 332.310511 167.314991 
Q 333.54213 166.307303 333.908438 166.007597 
" clip-path="url(#pc501d70517)" style="fill: none; stroke: #4c4c4c; stroke-linecap: round"/>
    <path d="M 332.599747 166.303108 
L 333.908438 166.007597 
L 333.359632 167.231856 
" clip-path="url(#pc501d70517)" style="fill: none; stroke: #4c4c4c; stroke-linecap: round"/>
   </g>
   <g id="patch_111">
    <path d="M 332.310511 178.285009 
Q 333.54213 179.292697 333.908438 179.592403 
" clip-path="url(#pc501d70517)" style="fill: none; stroke: #4c4c4c; stroke-linecap: round"/>
    <path d="M 333.359632 178.368144 
L 333.908438 179.592403 
L 332.599747 179.296892 
" clip-path="url(#pc501d70517)" style="fill: none; stroke: #4c4c4c; stroke-linecap: round"/>
   </g>
   <g id="patch_112">
    <path d="M 349.489618 182.503759 
Q 357.340886 179.291876 364.157362 176.503318 
" clip-path="url(#pc501d70517)" style="fill: none; stroke: #4c4c4c; stroke-linecap: round"/>
    <path d="M 362.819526 176.402349 
L 364.157362 176.503318 
L 363.273885 177.513006 
" clip-path="url(#pc501d70517)" style="fill: none; stroke: #4c4c4c; stroke-linecap: round"/>
   </g>
   <g id="patch_113">
    <path d="M 348.17828 165.302289 
Q 349.409899 166.309977 349.776207 166.609684 
" clip-path="url(#pc501d70517)" style="fill: none; stroke: #4c4c4c; stroke-linecap: round"/>
    <path d="M 349.227401 165.385424 
L 349.776207 166.609684 
L 348.467515 166.314173 
" clip-path="url(#pc501d70517)" style="fill: none; stroke: #4c4c4c; stroke-linecap: round"/>
   </g>
   <g id="patch_114">
    <path d="M 366.000465 172.8 
Q 369.605191 172.8 372.091883 172.8 
" clip-path="url(#pc501d70517)" style="fill: none; stroke: #4c4c4c; stroke-linecap: round"/>
    <path d="M 370.891883 172.2 
L 372.091883 172.8 
L 370.891883 173.4 
" clip-path="url(#pc501d70517)" style="fill: none; stroke: #4c4c4c; stroke-linecap: round"/>
   </g>
   <g id="patch_115">
    <path d="M 379.913817 178.285009 
Q 381.145436 179.292697 381.511744 179.592403 
" clip-path="url(#pc501d70517)" style="fill: none; stroke: #4c4c4c; stroke-linecap: round"/>
    <path d="M 380.962938 178.368144 
L 381.511744 179.592403 
L 380.203052 179.296892 
" clip-path="url(#pc501d70517)" style="fill: none; stroke: #4c4c4c; stroke-linecap: round"/>
   </g>
   <g id="patch_116">
    <path d="M 379.913817 167.314991 
Q 381.145436 166.307303 381.511744 166.007597 
" clip-path="url(#pc501d70517)" style="fill: none; stroke: #4c4c4c; stroke-linecap: round"/>
    <path d="M 380.203052 166.303108 
L 381.511744 166.007597 
L 380.962938 167.231856 
" clip-path="url(#pc501d70517)" style="fill: none; stroke: #4c4c4c; stroke-linecap: round"/>
   </g>
   <g id="patch_117">
    <path d="M 397.736002 185.78272 
Q 401.340728 185.78272 403.827421 185.78272 
" clip-path="url(#pc501d70517)" style="fill: none; stroke: #4c4c4c; stroke-linecap: round"/>
    <path d="M 402.627421 185.18272 
L 403.827421 185.78272 
L 402.627421 186.38272 
" clip-path="url(#pc501d70517)" style="fill: none; stroke: #4c4c4c; stroke-linecap: round"/>
   </g>
   <g id="patch_118">
    <path d="M 397.736002 159.81728 
Q 401.340728 159.81728 403.827421 159.81728 
" clip-path="url(#pc501d70517)" style="fill: none; stroke: #4c4c4c; stroke-linecap: round"/>
    <path d="M 402.627421 159.21728 
L 403.827421 159.81728 
L 402.627421 160.41728 
" clip-path="url(#pc501d70517)" style="fill: none; stroke: #4c4c4c; stroke-linecap: round"/>
   </g>
   <g id="patch_119">
    <path d="M 411.649354 180.297711 
Q 412.880973 179.290023 413.247281 178.990316 
" clip-path="url(#pc501d70517)" style="fill: none; stroke: #4c4c4c; stroke-linecap: round"/>
    <path d="M 411.93859 179.285827 
L 413.247281 178.990316 
L 412.698475 180.214576 
" clip-path="url(#pc501d70517)" style="fill: none; stroke: #4c4c4c; stroke-linecap: round"/>
   </g>
   <g id="PathCollection_1">
    <path d="M 39.986777 324.270171 
C 42.283503 324.270171 44.486471 323.357672 46.110501 321.733642 
C 47.734532 320.109611 48.647031 317.906644 48.647031 315.609917 
C 48.647031 313.313191 47.734532 311.110224 46.110501 309.486193 
C 44.486471 307.862162 42.283503 306.949663 39.986777 306.949663 
C 37.690051 306.949663 35.487083 307.862162 33.863053 309.486193 
C 32.239022 311.110224 31.326523 313.313191 31.326523 315.609917 
C 31.326523 317.906644 32.239022 320.109611 33.863053 321.733642 
C 35.487083 323.357672 37.690051 324.270171 39.986777 324.270171 
z
" clip-path="url(#pc501d70517)" style="fill: #ffff00; stroke: #000000"/>
    <path d="M 39.986777 298.304732 
C 42.283503 298.304732 44.486471 297.392233 46.110501 295.768202 
C 47.734532 294.144172 48.647031 291.941204 48.647031 289.644478 
C 48.647031 287.347752 47.734532 285.144784 46.110501 283.520753 
C 44.486471 281.896723 42.283503 280.984224 39.986777 280.984224 
C 37.690051 280.984224 35.487083 281.896723 33.863053 283.520753 
C 32.239022 285.144784 31.326523 287.347752 31.326523 289.644478 
C 31.326523 291.941204 32.239022 294.144172 33.863053 295.768202 
C 35.487083 297.392233 37.690051 298.304732 39.986777 298.304732 
z
" clip-path="url(#pc501d70517)" style="fill: #ffff00; stroke: #000000"/>
    <path d="M 39.986777 272.339292 
C 42.283503 272.339292 44.486471 271.426793 46.110501 269.802763 
C 47.734532 268.178732 48.647031 265.975765 48.647031 263.679038 
C 48.647031 261.382312 47.734532 259.179345 46.110501 257.555314 
C 44.486471 255.931283 42.283503 255.018784 39.986777 255.018784 
C 37.690051 255.018784 35.487083 255.931283 33.863053 257.555314 
C 32.239022 259.179345 31.326523 261.382312 31.326523 263.679038 
C 31.326523 265.975765 32.239022 268.178732 33.863053 269.802763 
C 35.487083 271.426793 37.690051 272.339292 39.986777 272.339292 
z
" clip-path="url(#pc501d70517)" style="fill: #ffff00; stroke: #000000"/>
    <path d="M 39.986777 246.373853 
C 42.283503 246.373853 44.486471 245.461354 46.110501 243.837323 
C 47.734532 242.213292 48.647031 240.010325 48.647031 237.713599 
C 48.647031 235.416873 47.734532 233.213905 46.110501 231.589874 
C 44.486471 229.965844 42.283503 229.053345 39.986777 229.053345 
C 37.690051 229.053345 35.487083 229.965844 33.863053 231.589874 
C 32.239022 233.213905 31.326523 235.416873 31.326523 237.713599 
C 31.326523 240.010325 32.239022 242.213292 33.863053 243.837323 
C 35.487083 245.461354 37.690051 246.373853 39.986777 246.373853 
z
" clip-path="url(#pc501d70517)" style="fill: #ffff00; stroke: #000000"/>
    <path d="M 39.986777 220.408413 
C 42.283503 220.408413 44.486471 219.495914 46.110501 217.871884 
C 47.734532 216.247853 48.647031 214.044885 48.647031 211.748159 
C 48.647031 209.451433 47.734532 207.248466 46.110501 205.624435 
C 44.486471 204.000404 42.283503 203.087905 39.986777 203.087905 
C 37.690051 203.087905 35.487083 204.000404 33.863053 205.624435 
C 32.239022 207.248466 31.326523 209.451433 31.326523 211.748159 
C 31.326523 214.044885 32.239022 216.247853 33.863053 217.871884 
C 35.487083 219.495914 37.690051 220.408413 39.986777 220.408413 
z
" clip-path="url(#pc501d70517)" style="fill: #ffff00; stroke: #000000"/>
    <path d="M 39.986777 194.442974 
C 42.283503 194.442974 44.486471 193.530475 46.110501 191.906444 
C 47.734532 190.282413 48.647031 188.079446 48.647031 185.78272 
C 48.647031 183.485994 47.734532 181.283026 46.110501 179.658995 
C 44.486471 178.034965 42.283503 177.122466 39.986777 177.122466 
C 37.690051 177.122466 35.487083 178.034965 33.863053 179.658995 
C 32.239022 181.283026 31.326523 183.485994 31.326523 185.78272 
C 31.326523 188.079446 32.239022 190.282413 33.863053 191.906444 
C 35.487083 193.530475 37.690051 194.442974 39.986777 194.442974 
z
" clip-path="url(#pc501d70517)" style="fill: #ffff00; stroke: #000000"/>
    <path d="M 39.986777 168.477534 
C 42.283503 168.477534 44.486471 167.565035 46.110501 165.941005 
C 47.734532 164.316974 48.647031 162.114006 48.647031 159.81728 
C 48.647031 157.520554 47.734532 155.317587 46.110501 153.693556 
C 44.486471 152.069525 42.283503 151.157026 39.986777 151.157026 
C 37.690051 151.157026 35.487083 152.069525 33.863053 153.693556 
C 32.239022 155.317587 31.326523 157.520554 31.326523 159.81728 
C 31.326523 162.114006 32.239022 164.316974 33.863053 165.941005 
C 35.487083 167.565035 37.690051 168.477534 39.986777 168.477534 
z
" clip-path="url(#pc501d70517)" style="fill: #ffff00; stroke: #000000"/>
    <path d="M 39.986777 142.512095 
C 42.283503 142.512095 44.486471 141.599596 46.110501 139.975565 
C 47.734532 138.351534 48.647031 136.148567 48.647031 133.851841 
C 48.647031 131.555115 47.734532 129.352147 46.110501 127.728116 
C 44.486471 126.104086 42.283503 125.191587 39.986777 125.191587 
C 37.690051 125.191587 35.487083 126.104086 33.863053 127.728116 
C 32.239022 129.352147 31.326523 131.555115 31.326523 133.851841 
C 31.326523 136.148567 32.239022 138.351534 33.863053 139.975565 
C 35.487083 141.599596 37.690051 142.512095 39.986777 142.512095 
z
" clip-path="url(#pc501d70517)" style="fill: #ffff00; stroke: #000000"/>
    <path d="M 39.986777 116.546655 
C 42.283503 116.546655 44.486471 115.634156 46.110501 114.010126 
C 47.734532 112.386095 48.647031 110.183127 48.647031 107.886401 
C 48.647031 105.589675 47.734532 103.386708 46.110501 101.762677 
C 44.486471 100.138646 42.283503 99.226147 39.986777 99.226147 
C 37.690051 99.226147 35.487083 100.138646 33.863053 101.762677 
C 32.239022 103.386708 31.326523 105.589675 31.326523 107.886401 
C 31.326523 110.183127 32.239022 112.386095 33.863053 114.010126 
C 35.487083 115.634156 37.690051 116.546655 39.986777 116.546655 
z
" clip-path="url(#pc501d70517)" style="fill: #ffff00; stroke: #000000"/>
    <path d="M 39.986777 90.581216 
C 42.283503 90.581216 44.486471 89.668717 46.110501 88.044686 
C 47.734532 86.420655 48.647031 84.217688 48.647031 81.920962 
C 48.647031 79.624235 47.734532 77.421268 46.110501 75.797237 
C 44.486471 74.173207 42.283503 73.260708 39.986777 73.260708 
C 37.690051 73.260708 35.487083 74.173207 33.863053 75.797237 
C 32.239022 77.421268 31.326523 79.624235 31.326523 81.920962 
C 31.326523 84.217688 32.239022 86.420655 33.863053 88.044686 
C 35.487083 89.668717 37.690051 90.581216 39.986777 90.581216 
z
" clip-path="url(#pc501d70517)" style="fill: #ffff00; stroke: #000000"/>
    <path d="M 39.986777 64.615776 
C 42.283503 64.615776 44.486471 63.703277 46.110501 62.079247 
C 47.734532 60.455216 48.647031 58.252248 48.647031 55.955522 
C 48.647031 53.658796 47.734532 51.455828 46.110501 49.831798 
C 44.486471 48.207767 42.283503 47.295268 39.986777 47.295268 
C 37.690051 47.295268 35.487083 48.207767 33.863053 49.831798 
C 32.239022 51.455828 31.326523 53.658796 31.326523 55.955522 
C 31.326523 58.252248 32.239022 60.455216 33.863053 62.079247 
C 35.487083 63.703277 37.690051 64.615776 39.986777 64.615776 
z
" clip-path="url(#pc501d70517)" style="fill: #ffff00; stroke: #000000"/>
    <path d="M 39.986777 38.650337 
C 42.283503 38.650337 44.486471 37.737838 46.110501 36.113807 
C 47.734532 34.489776 48.647031 32.286809 48.647031 29.990083 
C 48.647031 27.693356 47.734532 25.490389 46.110501 23.866358 
C 44.486471 22.242328 42.283503 21.329829 39.986777 21.329829 
C 37.690051 21.329829 35.487083 22.242328 33.863053 23.866358 
C 32.239022 25.490389 31.326523 27.693356 31.326523 29.990083 
C 31.326523 32.286809 32.239022 34.489776 33.863053 36.113807 
C 35.487083 37.737838 37.690051 38.650337 39.986777 38.650337 
z
" clip-path="url(#pc501d70517)" style="fill: #ffff00; stroke: #000000"/>
    <path d="M 55.854545 285.322012 
C 58.151272 285.322012 60.354239 284.409513 61.97827 282.785482 
C 63.6023 281.161452 64.514799 278.958484 64.514799 276.661758 
C 64.514799 274.365032 63.6023 272.162064 61.97827 270.538034 
C 60.354239 268.914003 58.151272 268.001504 55.854545 268.001504 
C 53.557819 268.001504 51.354852 268.914003 49.730821 270.538034 
C 48.10679 272.162064 47.194291 274.365032 47.194291 276.661758 
C 47.194291 278.958484 48.10679 281.161452 49.730821 282.785482 
C 51.354852 284.409513 53.557819 285.322012 55.854545 285.322012 
z
" clip-path="url(#pc501d70517)" style="fill: #ffffff; stroke: #000000"/>
    <path d="M 55.854545 233.391133 
C 58.151272 233.391133 60.354239 232.478634 61.97827 230.854603 
C 63.6023 229.230573 64.514799 227.027605 64.514799 224.730879 
C 64.514799 222.434153 63.6023 220.231185 61.97827 218.607155 
C 60.354239 216.983124 58.151272 216.070625 55.854545 216.070625 
C 53.557819 216.070625 51.354852 216.983124 49.730821 218.607155 
C 48.10679 220.231185 47.194291 222.434153 47.194291 224.730879 
C 47.194291 227.027605 48.10679 229.230573 49.730821 230.854603 
C 51.354852 232.478634 53.557819 233.391133 55.854545 233.391133 
z
" clip-path="url(#pc501d70517)" style="fill: #ffffff; stroke: #000000"/>
    <path d="M 55.854545 77.598496 
C 58.151272 77.598496 60.354239 76.685997 61.97827 75.061966 
C 63.6023 73.437936 64.514799 71.234968 64.514799 68.938242 
C 64.514799 66.641516 63.6023 64.438548 61.97827 62.814518 
C 60.354239 61.190487 58.151272 60.277988 55.854545 60.277988 
C 53.557819 60.277988 51.354852 61.190487 49.730821 62.814518 
C 48.10679 64.438548 47.194291 66.641516 47.194291 68.938242 
C 47.194291 71.234968 48.10679 73.437936 49.730821 75.061966 
C 51.354852 76.685997 53.557819 77.598496 55.854545 77.598496 
z
" clip-path="url(#pc501d70517)" style="fill: #ffffff; stroke: #000000"/>
    <path d="M 55.854545 207.425694 
C 58.151272 207.425694 60.354239 206.513195 61.97827 204.889164 
C 63.6023 203.265133 64.514799 201.062166 64.514799 198.76544 
C 64.514799 196.468713 63.6023 194.265746 61.97827 192.641715 
C 60.354239 191.017684 58.151272 190.105185 55.854545 190.105185 
C 53.557819 190.105185 51.354852 191.017684 49.730821 192.641715 
C 48.10679 194.265746 47.194291 196.468713 47.194291 198.76544 
C 47.194291 201.062166 48.10679 203.265133 49.730821 204.889164 
C 51.354852 206.513195 53.557819 207.425694 55.854545 207.425694 
z
" clip-path="url(#pc501d70517)" style="fill: #ffffff; stroke: #000000"/>
    <path d="M 55.854545 155.494815 
C 58.151272 155.494815 60.354239 154.582316 61.97827 152.958285 
C 63.6023 151.334254 64.514799 149.131287 64.514799 146.83456 
C 64.514799 144.537834 63.6023 142.334867 61.97827 140.710836 
C 60.354239 139.086805 58.151272 138.174306 55.854545 138.174306 
C 53.557819 138.174306 51.354852 139.086805 49.730821 140.710836 
C 48.10679 142.334867 47.194291 144.537834 47.194291 146.83456 
C 47.194291 149.131287 48.10679 151.334254 49.730821 152.958285 
C 51.354852 154.582316 53.557819 155.494815 55.854545 155.494815 
z
" clip-path="url(#pc501d70517)" style="fill: #ffffff; stroke: #000000"/>
    <path d="M 55.854545 129.529375 
C 58.151272 129.529375 60.354239 128.616876 61.97827 126.992845 
C 63.6023 125.368815 64.514799 123.165847 64.514799 120.869121 
C 64.514799 118.572395 63.6023 116.369427 61.97827 114.745397 
C 60.354239 113.121366 58.151272 112.208867 55.854545 112.208867 
C 53.557819 112.208867 51.354852 113.121366 49.730821 114.745397 
C 48.10679 116.369427 47.194291 118.572395 47.194291 120.869121 
C 47.194291 123.165847 48.10679 125.368815 49.730821 126.992845 
C 51.354852 128.616876 53.557819 129.529375 55.854545 129.529375 
z
" clip-path="url(#pc501d70517)" style="fill: #ffffff; stroke: #000000"/>
    <path d="M 55.854545 181.460254 
C 58.151272 181.460254 60.354239 180.547755 61.97827 178.923724 
C 63.6023 177.299694 64.514799 175.096726 64.514799 172.8 
C 64.514799 170.503274 63.6023 168.300306 61.97827 166.676276 
C 60.354239 165.052245 58.151272 164.139746 55.854545 164.139746 
C 53.557819 164.139746 51.354852 165.052245 49.730821 166.676276 
C 48.10679 168.300306 47.194291 170.503274 47.194291 172.8 
C 47.194291 175.096726 48.10679 177.299694 49.730821 178.923724 
C 51.354852 180.547755 53.557819 181.460254 55.854545 181.460254 
z
" clip-path="url(#pc501d70517)" style="fill: #ffffff; stroke: #000000"/>
    <path d="M 55.854545 103.563935 
C 58.151272 103.563935 60.354239 102.651436 61.97827 101.027406 
C 63.6023 99.403375 64.514799 97.200408 64.514799 94.903681 
C 64.514799 92.606955 63.6023 90.403988 61.97827 88.779957 
C 60.354239 87.155926 58.151272 86.243427 55.854545 86.243427 
C 53.557819 86.243427 51.354852 87.155926 49.730821 88.779957 
C 48.10679 90.403988 47.194291 92.606955 47.194291 94.903681 
C 47.194291 97.200408 48.10679 99.403375 49.730821 101.027406 
C 51.354852 102.651436 53.557819 103.563935 55.854545 103.563935 
z
" clip-path="url(#pc501d70517)" style="fill: #ffffff; stroke: #000000"/>
    <path d="M 55.854545 259.356573 
C 58.151272 259.356573 60.354239 258.444074 61.97827 256.820043 
C 63.6023 255.196012 64.514799 252.993045 64.514799 250.696319 
C 64.514799 248.399592 63.6023 246.196625 61.97827 244.572594 
C 60.354239 242.948564 58.151272 242.036065 55.854545 242.036065 
C 53.557819 242.036065 51.354852 242.948564 49.730821 244.572594 
C 48.10679 246.196625 47.194291 248.399592 47.194291 250.696319 
C 47.194291 252.993045 48.10679 255.196012 49.730821 256.820043 
C 51.354852 258.444074 53.557819 259.356573 55.854545 259.356573 
z
" clip-path="url(#pc501d70517)" style="fill: #ffffff; stroke: #000000"/>
    <path d="M 71.722314 168.477534 
C 74.01904 168.477534 76.222008 167.565035 77.846038 165.941005 
C 79.470069 164.316974 80.382568 162.114006 80.382568 159.81728 
C 80.382568 157.520554 79.470069 155.317587 77.846038 153.693556 
C 76.222008 152.069525 74.01904 151.157026 71.722314 151.157026 
C 69.425588 151.157026 67.22262 152.069525 65.59859 153.693556 
C 63.974559 155.317587 63.06206 157.520554 63.06206 159.81728 
C 63.06206 162.114006 63.974559 164.316974 65.59859 165.941005 
C 67.22262 167.565035 69.425588 168.477534 71.722314 168.477534 
z
" clip-path="url(#pc501d70517)" style="fill: #ffffff; stroke: #000000"/>
    <path d="M 71.722314 194.442974 
C 74.01904 194.442974 76.222008 193.530475 77.846038 191.906444 
C 79.470069 190.282413 80.382568 188.079446 80.382568 185.78272 
C 80.382568 183.485994 79.470069 181.283026 77.846038 179.658995 
C 76.222008 178.034965 74.01904 177.122466 71.722314 177.122466 
C 69.425588 177.122466 67.22262 178.034965 65.59859 179.658995 
C 63.974559 181.283026 63.06206 183.485994 63.06206 185.78272 
C 63.06206 188.079446 63.974559 190.282413 65.59859 191.906444 
C 67.22262 193.530475 69.425588 194.442974 71.722314 194.442974 
z
" clip-path="url(#pc501d70517)" style="fill: #ffffff; stroke: #000000"/>
    <path d="M 87.590083 181.460254 
C 89.886809 181.460254 92.089776 180.547755 93.713807 178.923724 
C 95.337838 177.299694 96.250337 175.096726 96.250337 172.8 
C 96.250337 170.503274 95.337838 168.300306 93.713807 166.676276 
C 92.089776 165.052245 89.886809 164.139746 87.590083 164.139746 
C 85.293356 164.139746 83.090389 165.052245 81.466358 166.676276 
C 79.842328 168.300306 78.929829 170.503274 78.929829 172.8 
C 78.929829 175.096726 79.842328 177.299694 81.466358 178.923724 
C 83.090389 180.547755 85.293356 181.460254 87.590083 181.460254 
z
" clip-path="url(#pc501d70517)" style="fill: #ffffff; stroke: #000000"/>
    <path d="M 103.457851 181.460254 
C 105.754577 181.460254 107.957545 180.547755 109.581576 178.923724 
C 111.205606 177.299694 112.118105 175.096726 112.118105 172.8 
C 112.118105 170.503274 111.205606 168.300306 109.581576 166.676276 
C 107.957545 165.052245 105.754577 164.139746 103.457851 164.139746 
C 101.161125 164.139746 98.958158 165.052245 97.334127 166.676276 
C 95.710096 168.300306 94.797597 170.503274 94.797597 172.8 
C 94.797597 175.096726 95.710096 177.299694 97.334127 178.923724 
C 98.958158 180.547755 101.161125 181.460254 103.457851 181.460254 
z
" clip-path="url(#pc501d70517)" style="fill: #ffffff; stroke: #000000"/>
    <path d="M 119.32562 181.460254 
C 121.622346 181.460254 123.825314 180.547755 125.449344 178.923724 
C 127.073375 177.299694 127.985874 175.096726 127.985874 172.8 
C 127.985874 170.503274 127.073375 168.300306 125.449344 166.676276 
C 123.825314 165.052245 121.622346 164.139746 119.32562 164.139746 
C 117.028894 164.139746 114.825926 165.052245 113.201895 166.676276 
C 111.577865 168.300306 110.665366 170.503274 110.665366 172.8 
C 110.665366 175.096726 111.577865 177.299694 113.201895 178.923724 
C 114.825926 180.547755 117.028894 181.460254 119.32562 181.460254 
z
" clip-path="url(#pc501d70517)" style="fill: #ffffff; stroke: #000000"/>
    <path d="M 135.193388 194.442974 
C 137.490115 194.442974 139.693082 193.530475 141.317113 191.906444 
C 142.941143 190.282413 143.853642 188.079446 143.853642 185.78272 
C 143.853642 183.485994 142.941143 181.283026 141.317113 179.658995 
C 139.693082 178.034965 137.490115 177.122466 135.193388 177.122466 
C 132.896662 177.122466 130.693695 178.034965 129.069664 179.658995 
C 127.445633 181.283026 126.533134 183.485994 126.533134 185.78272 
C 126.533134 188.079446 127.445633 190.282413 129.069664 191.906444 
C 130.693695 193.530475 132.896662 194.442974 135.193388 194.442974 
z
" clip-path="url(#pc501d70517)" style="fill: #ffffff; stroke: #000000"/>
    <path d="M 135.193388 168.477534 
C 137.490115 168.477534 139.693082 167.565035 141.317113 165.941005 
C 142.941143 164.316974 143.853642 162.114006 143.853642 159.81728 
C 143.853642 157.520554 142.941143 155.317587 141.317113 153.693556 
C 139.693082 152.069525 137.490115 151.157026 135.193388 151.157026 
C 132.896662 151.157026 130.693695 152.069525 129.069664 153.693556 
C 127.445633 155.317587 126.533134 157.520554 126.533134 159.81728 
C 126.533134 162.114006 127.445633 164.316974 129.069664 165.941005 
C 130.693695 167.565035 132.896662 168.477534 135.193388 168.477534 
z
" clip-path="url(#pc501d70517)" style="fill: #ffffff; stroke: #000000"/>
    <path d="M 151.061157 194.442974 
C 153.357883 194.442974 155.560851 193.530475 157.184881 191.906444 
C 158.808912 190.282413 159.721411 188.079446 159.721411 185.78272 
C 159.721411 183.485994 158.808912 181.283026 157.184881 179.658995 
C 155.560851 178.034965 153.357883 177.122466 151.061157 177.122466 
C 148.764431 177.122466 146.561463 178.034965 144.937433 179.658995 
C 143.313402 181.283026 142.400903 183.485994 142.400903 185.78272 
C 142.400903 188.079446 143.313402 190.282413 144.937433 191.906444 
C 146.561463 193.530475 148.764431 194.442974 151.061157 194.442974 
z
" clip-path="url(#pc501d70517)" style="fill: #ffffff; stroke: #000000"/>
    <path d="M 151.061157 168.477534 
C 153.357883 168.477534 155.560851 167.565035 157.184881 165.941005 
C 158.808912 164.316974 159.721411 162.114006 159.721411 159.81728 
C 159.721411 157.520554 158.808912 155.317587 157.184881 153.693556 
C 155.560851 152.069525 153.357883 151.157026 151.061157 151.157026 
C 148.764431 151.157026 146.561463 152.069525 144.937433 153.693556 
C 143.313402 155.317587 142.400903 157.520554 142.400903 159.81728 
C 142.400903 162.114006 143.313402 164.316974 144.937433 165.941005 
C 146.561463 167.565035 148.764431 168.477534 151.061157 168.477534 
z
" clip-path="url(#pc501d70517)" style="fill: #ffffff; stroke: #000000"/>
    <path d="M 166.928926 194.442974 
C 169.225652 194.442974 171.428619 193.530475 173.05265 191.906444 
C 174.676681 190.282413 175.58918 188.079446 175.58918 185.78272 
C 175.58918 183.485994 174.676681 181.283026 173.05265 179.658995 
C 171.428619 178.034965 169.225652 177.122466 166.928926 177.122466 
C 164.632199 177.122466 162.429232 178.034965 160.805201 179.658995 
C 159.181171 181.283026 158.268672 183.485994 158.268672 185.78272 
C 158.268672 188.079446 159.181171 190.282413 160.805201 191.906444 
C 162.429232 193.530475 164.632199 194.442974 166.928926 194.442974 
z
" clip-path="url(#pc501d70517)" style="fill: #ffffff; stroke: #000000"/>
    <path d="M 166.928926 168.477534 
C 169.225652 168.477534 171.428619 167.565035 173.05265 165.941005 
C 174.676681 164.316974 175.58918 162.114006 175.58918 159.81728 
C 175.58918 157.520554 174.676681 155.317587 173.05265 153.693556 
C 171.428619 152.069525 169.225652 151.157026 166.928926 151.157026 
C 164.632199 151.157026 162.429232 152.069525 160.805201 153.693556 
C 159.181171 155.317587 158.268672 157.520554 158.268672 159.81728 
C 158.268672 162.114006 159.181171 164.316974 160.805201 165.941005 
C 162.429232 167.565035 164.632199 168.477534 166.928926 168.477534 
z
" clip-path="url(#pc501d70517)" style="fill: #ffffff; stroke: #000000"/>
    <path d="M 182.796694 207.425694 
C 185.09342 207.425694 187.296388 206.513195 188.920419 204.889164 
C 190.544449 203.265133 191.456948 201.062166 191.456948 198.76544 
C 191.456948 196.468713 190.544449 194.265746 188.920419 192.641715 
C 187.296388 191.017684 185.09342 190.105185 182.796694 190.105185 
C 180.499968 190.105185 178.297001 191.017684 176.67297 192.641715 
C 175.048939 194.265746 174.13644 196.468713 174.13644 198.76544 
C 174.13644 201.062166 175.048939 203.265133 176.67297 204.889164 
C 178.297001 206.513195 180.499968 207.425694 182.796694 207.425694 
z
" clip-path="url(#pc501d70517)" style="fill: #ffffff; stroke: #000000"/>
    <path d="M 182.796694 181.460254 
C 185.09342 181.460254 187.296388 180.547755 188.920419 178.923724 
C 190.544449 177.299694 191.456948 175.096726 191.456948 172.8 
C 191.456948 170.503274 190.544449 168.300306 188.920419 166.676276 
C 187.296388 165.052245 185.09342 164.139746 182.796694 164.139746 
C 180.499968 164.139746 178.297001 165.052245 176.67297 166.676276 
C 175.048939 168.300306 174.13644 170.503274 174.13644 172.8 
C 174.13644 175.096726 175.048939 177.299694 176.67297 178.923724 
C 178.297001 180.547755 180.499968 181.460254 182.796694 181.460254 
z
" clip-path="url(#pc501d70517)" style="fill: #ffffff; stroke: #000000"/>
    <path d="M 182.796694 155.494815 
C 185.09342 155.494815 187.296388 154.582316 188.920419 152.958285 
C 190.544449 151.334254 191.456948 149.131287 191.456948 146.83456 
C 191.456948 144.537834 190.544449 142.334867 188.920419 140.710836 
C 187.296388 139.086805 185.09342 138.174306 182.796694 138.174306 
C 180.499968 138.174306 178.297001 139.086805 176.67297 140.710836 
C 175.048939 142.334867 174.13644 144.537834 174.13644 146.83456 
C 174.13644 149.131287 175.048939 151.334254 176.67297 152.958285 
C 178.297001 154.582316 180.499968 155.494815 182.796694 155.494815 
z
" clip-path="url(#pc501d70517)" style="fill: #ffffff; stroke: #000000"/>
    <path d="M 198.664463 194.442974 
C 200.961189 194.442974 203.164156 193.530475 204.788187 191.906444 
C 206.412218 190.282413 207.324717 188.079446 207.324717 185.78272 
C 207.324717 183.485994 206.412218 181.283026 204.788187 179.658995 
C 203.164156 178.034965 200.961189 177.122466 198.664463 177.122466 
C 196.367737 177.122466 194.164769 178.034965 192.540738 179.658995 
C 190.916708 181.283026 190.004209 183.485994 190.004209 185.78272 
C 190.004209 188.079446 190.916708 190.282413 192.540738 191.906444 
C 194.164769 193.530475 196.367737 194.442974 198.664463 194.442974 
z
" clip-path="url(#pc501d70517)" style="fill: #ffffff; stroke: #000000"/>
    <path d="M 198.664463 220.408413 
C 200.961189 220.408413 203.164156 219.495914 204.788187 217.871884 
C 206.412218 216.247853 207.324717 214.044885 207.324717 211.748159 
C 207.324717 209.451433 206.412218 207.248466 204.788187 205.624435 
C 203.164156 204.000404 200.961189 203.087905 198.664463 203.087905 
C 196.367737 203.087905 194.164769 204.000404 192.540738 205.624435 
C 190.916708 207.248466 190.004209 209.451433 190.004209 211.748159 
C 190.004209 214.044885 190.916708 216.247853 192.540738 217.871884 
C 194.164769 219.495914 196.367737 220.408413 198.664463 220.408413 
z
" clip-path="url(#pc501d70517)" style="fill: #ffffff; stroke: #000000"/>
    <path d="M 198.664463 168.477534 
C 200.961189 168.477534 203.164156 167.565035 204.788187 165.941005 
C 206.412218 164.316974 207.324717 162.114006 207.324717 159.81728 
C 207.324717 157.520554 206.412218 155.317587 204.788187 153.693556 
C 203.164156 152.069525 200.961189 151.157026 198.664463 151.157026 
C 196.367737 151.157026 194.164769 152.069525 192.540738 153.693556 
C 190.916708 155.317587 190.004209 157.520554 190.004209 159.81728 
C 190.004209 162.114006 190.916708 164.316974 192.540738 165.941005 
C 194.164769 167.565035 196.367737 168.477534 198.664463 168.477534 
z
" clip-path="url(#pc501d70517)" style="fill: #ffffff; stroke: #000000"/>
    <path d="M 198.664463 142.512095 
C 200.961189 142.512095 203.164156 141.599596 204.788187 139.975565 
C 206.412218 138.351534 207.324717 136.148567 207.324717 133.851841 
C 207.324717 131.555115 206.412218 129.352147 204.788187 127.728116 
C 203.164156 126.104086 200.961189 125.191587 198.664463 125.191587 
C 196.367737 125.191587 194.164769 126.104086 192.540738 127.728116 
C 190.916708 129.352147 190.004209 131.555115 190.004209 133.851841 
C 190.004209 136.148567 190.916708 138.351534 192.540738 139.975565 
C 194.164769 141.599596 196.367737 142.512095 198.664463 142.512095 
z
" clip-path="url(#pc501d70517)" style="fill: #ffffff; stroke: #000000"/>
    <path d="M 214.532231 168.477534 
C 216.828958 168.477534 219.031925 167.565035 220.655956 165.941005 
C 222.279986 164.316974 223.192485 162.114006 223.192485 159.81728 
C 223.192485 157.520554 222.279986 155.317587 220.655956 153.693556 
C 219.031925 152.069525 216.828958 151.157026 214.532231 151.157026 
C 212.235505 151.157026 210.032538 152.069525 208.408507 153.693556 
C 206.784476 155.317587 205.871977 157.520554 205.871977 159.81728 
C 205.871977 162.114006 206.784476 164.316974 208.408507 165.941005 
C 210.032538 167.565035 212.235505 168.477534 214.532231 168.477534 
z
" clip-path="url(#pc501d70517)" style="fill: #ffffff; stroke: #000000"/>
    <path d="M 214.532231 194.442974 
C 216.828958 194.442974 219.031925 193.530475 220.655956 191.906444 
C 222.279986 190.282413 223.192485 188.079446 223.192485 185.78272 
C 223.192485 183.485994 222.279986 181.283026 220.655956 179.658995 
C 219.031925 178.034965 216.828958 177.122466 214.532231 177.122466 
C 212.235505 177.122466 210.032538 178.034965 208.408507 179.658995 
C 206.784476 181.283026 205.871977 183.485994 205.871977 185.78272 
C 205.871977 188.079446 206.784476 190.282413 208.408507 191.906444 
C 210.032538 193.530475 212.235505 194.442974 214.532231 194.442974 
z
" clip-path="url(#pc501d70517)" style="fill: #ffffff; stroke: #000000"/>
    <path d="M 230.4 194.442974 
C 232.696726 194.442974 234.899694 193.530475 236.523724 191.906444 
C 238.147755 190.282413 239.060254 188.079446 239.060254 185.78272 
C 239.060254 183.485994 238.147755 181.283026 236.523724 179.658995 
C 234.899694 178.034965 232.696726 177.122466 230.4 177.122466 
C 228.103274 177.122466 225.900306 178.034965 224.276276 179.658995 
C 222.652245 181.283026 221.739746 183.485994 221.739746 185.78272 
C 221.739746 188.079446 222.652245 190.282413 224.276276 191.906444 
C 225.900306 193.530475 228.103274 194.442974 230.4 194.442974 
z
" clip-path="url(#pc501d70517)" style="fill: #ffffff; stroke: #000000"/>
    <path d="M 230.4 168.477534 
C 232.696726 168.477534 234.899694 167.565035 236.523724 165.941005 
C 238.147755 164.316974 239.060254 162.114006 239.060254 159.81728 
C 239.060254 157.520554 238.147755 155.317587 236.523724 153.693556 
C 234.899694 152.069525 232.696726 151.157026 230.4 151.157026 
C 228.103274 151.157026 225.900306 152.069525 224.276276 153.693556 
C 222.652245 155.317587 221.739746 157.520554 221.739746 159.81728 
C 221.739746 162.114006 222.652245 164.316974 224.276276 165.941005 
C 225.900306 167.565035 228.103274 168.477534 230.4 168.477534 
z
" clip-path="url(#pc501d70517)" style="fill: #ffffff; stroke: #000000"/>
    <path d="M 230.4 220.408413 
C 232.696726 220.408413 234.899694 219.495914 236.523724 217.871884 
C 238.147755 216.247853 239.060254 214.044885 239.060254 211.748159 
C 239.060254 209.451433 238.147755 207.248466 236.523724 205.624435 
C 234.899694 204.000404 232.696726 203.087905 230.4 203.087905 
C 228.103274 203.087905 225.900306 204.000404 224.276276 205.624435 
C 222.652245 207.248466 221.739746 209.451433 221.739746 211.748159 
C 221.739746 214.044885 222.652245 216.247853 224.276276 217.871884 
C 225.900306 219.495914 228.103274 220.408413 230.4 220.408413 
z
" clip-path="url(#pc501d70517)" style="fill: #ffffff; stroke: #000000"/>
    <path d="M 230.4 142.512095 
C 232.696726 142.512095 234.899694 141.599596 236.523724 139.975565 
C 238.147755 138.351534 239.060254 136.148567 239.060254 133.851841 
C 239.060254 131.555115 238.147755 129.352147 236.523724 127.728116 
C 234.899694 126.104086 232.696726 125.191587 230.4 125.191587 
C 228.103274 125.191587 225.900306 126.104086 224.276276 127.728116 
C 222.652245 129.352147 221.739746 131.555115 221.739746 133.851841 
C 221.739746 136.148567 222.652245 138.351534 224.276276 139.975565 
C 225.900306 141.599596 228.103274 142.512095 230.4 142.512095 
z
" clip-path="url(#pc501d70517)" style="fill: #ffffff; stroke: #000000"/>
    <path d="M 246.267769 155.494815 
C 248.564495 155.494815 250.767462 154.582316 252.391493 152.958285 
C 254.015524 151.334254 254.928023 149.131287 254.928023 146.83456 
C 254.928023 144.537834 254.015524 142.334867 252.391493 140.710836 
C 250.767462 139.086805 248.564495 138.174306 246.267769 138.174306 
C 243.971042 138.174306 241.768075 139.086805 240.144044 140.710836 
C 238.520014 142.334867 237.607515 144.537834 237.607515 146.83456 
C 237.607515 149.131287 238.520014 151.334254 240.144044 152.958285 
C 241.768075 154.582316 243.971042 155.494815 246.267769 155.494815 
z
" clip-path="url(#pc501d70517)" style="fill: #ffffff; stroke: #000000"/>
    <path d="M 246.267769 207.425694 
C 248.564495 207.425694 250.767462 206.513195 252.391493 204.889164 
C 254.015524 203.265133 254.928023 201.062166 254.928023 198.76544 
C 254.928023 196.468713 254.015524 194.265746 252.391493 192.641715 
C 250.767462 191.017684 248.564495 190.105185 246.267769 190.105185 
C 243.971042 190.105185 241.768075 191.017684 240.144044 192.641715 
C 238.520014 194.265746 237.607515 196.468713 237.607515 198.76544 
C 237.607515 201.062166 238.520014 203.265133 240.144044 204.889164 
C 241.768075 206.513195 243.971042 207.425694 246.267769 207.425694 
z
" clip-path="url(#pc501d70517)" style="fill: #ffffff; stroke: #000000"/>
    <path d="M 246.267769 181.460254 
C 248.564495 181.460254 250.767462 180.547755 252.391493 178.923724 
C 254.015524 177.299694 254.928023 175.096726 254.928023 172.8 
C 254.928023 170.503274 254.015524 168.300306 252.391493 166.676276 
C 250.767462 165.052245 248.564495 164.139746 246.267769 164.139746 
C 243.971042 164.139746 241.768075 165.052245 240.144044 166.676276 
C 238.520014 168.300306 237.607515 170.503274 237.607515 172.8 
C 237.607515 175.096726 238.520014 177.299694 240.144044 178.923724 
C 241.768075 180.547755 243.971042 181.460254 246.267769 181.460254 
z
" clip-path="url(#pc501d70517)" style="fill: #ffffff; stroke: #000000"/>
    <path d="M 262.135537 207.425694 
C 264.432263 207.425694 266.635231 206.513195 268.259262 204.889164 
C 269.883292 203.265133 270.795791 201.062166 270.795791 198.76544 
C 270.795791 196.468713 269.883292 194.265746 268.259262 192.641715 
C 266.635231 191.017684 264.432263 190.105185 262.135537 190.105185 
C 259.838811 190.105185 257.635844 191.017684 256.011813 192.641715 
C 254.387782 194.265746 253.475283 196.468713 253.475283 198.76544 
C 253.475283 201.062166 254.387782 203.265133 256.011813 204.889164 
C 257.635844 206.513195 259.838811 207.425694 262.135537 207.425694 
z
" clip-path="url(#pc501d70517)" style="fill: #ffffff; stroke: #000000"/>
    <path d="M 262.135537 181.460254 
C 264.432263 181.460254 266.635231 180.547755 268.259262 178.923724 
C 269.883292 177.299694 270.795791 175.096726 270.795791 172.8 
C 270.795791 170.503274 269.883292 168.300306 268.259262 166.676276 
C 266.635231 165.052245 264.432263 164.139746 262.135537 164.139746 
C 259.838811 164.139746 257.635844 165.052245 256.011813 166.676276 
C 254.387782 168.300306 253.475283 170.503274 253.475283 172.8 
C 253.475283 175.096726 254.387782 177.299694 256.011813 178.923724 
C 257.635844 180.547755 259.838811 181.460254 262.135537 181.460254 
z
" clip-path="url(#pc501d70517)" style="fill: #ffffff; stroke: #000000"/>
    <path d="M 262.135537 155.494815 
C 264.432263 155.494815 266.635231 154.582316 268.259262 152.958285 
C 269.883292 151.334254 270.795791 149.131287 270.795791 146.83456 
C 270.795791 144.537834 269.883292 142.334867 268.259262 140.710836 
C 266.635231 139.086805 264.432263 138.174306 262.135537 138.174306 
C 259.838811 138.174306 257.635844 139.086805 256.011813 140.710836 
C 254.387782 142.334867 253.475283 144.537834 253.475283 146.83456 
C 253.475283 149.131287 254.387782 151.334254 256.011813 152.958285 
C 257.635844 154.582316 259.838811 155.494815 262.135537 155.494815 
z
" clip-path="url(#pc501d70517)" style="fill: #ffffff; stroke: #000000"/>
    <path d="M 278.003306 194.442974 
C 280.300032 194.442974 282.502999 193.530475 284.12703 191.906444 
C 285.751061 190.282413 286.66356 188.079446 286.66356 185.78272 
C 286.66356 183.485994 285.751061 181.283026 284.12703 179.658995 
C 282.502999 178.034965 280.300032 177.122466 278.003306 177.122466 
C 275.70658 177.122466 273.503612 178.034965 271.879581 179.658995 
C 270.255551 181.283026 269.343052 183.485994 269.343052 185.78272 
C 269.343052 188.079446 270.255551 190.282413 271.879581 191.906444 
C 273.503612 193.530475 275.70658 194.442974 278.003306 194.442974 
z
" clip-path="url(#pc501d70517)" style="fill: #ffffff; stroke: #000000"/>
    <path d="M 278.003306 168.477534 
C 280.300032 168.477534 282.502999 167.565035 284.12703 165.941005 
C 285.751061 164.316974 286.66356 162.114006 286.66356 159.81728 
C 286.66356 157.520554 285.751061 155.317587 284.12703 153.693556 
C 282.502999 152.069525 280.300032 151.157026 278.003306 151.157026 
C 275.70658 151.157026 273.503612 152.069525 271.879581 153.693556 
C 270.255551 155.317587 269.343052 157.520554 269.343052 159.81728 
C 269.343052 162.114006 270.255551 164.316974 271.879581 165.941005 
C 273.503612 167.565035 275.70658 168.477534 278.003306 168.477534 
z
" clip-path="url(#pc501d70517)" style="fill: #ffffff; stroke: #000000"/>
    <path d="M 293.871074 194.442974 
C 296.167801 194.442974 298.370768 193.530475 299.994799 191.906444 
C 301.618829 190.282413 302.531328 188.079446 302.531328 185.78272 
C 302.531328 183.485994 301.618829 181.283026 299.994799 179.658995 
C 298.370768 178.034965 296.167801 177.122466 293.871074 177.122466 
C 291.574348 177.122466 289.371381 178.034965 287.74735 179.658995 
C 286.123319 181.283026 285.21082 183.485994 285.21082 185.78272 
C 285.21082 188.079446 286.123319 190.282413 287.74735 191.906444 
C 289.371381 193.530475 291.574348 194.442974 293.871074 194.442974 
z
" clip-path="url(#pc501d70517)" style="fill: #ffffff; stroke: #000000"/>
    <path d="M 293.871074 168.477534 
C 296.167801 168.477534 298.370768 167.565035 299.994799 165.941005 
C 301.618829 164.316974 302.531328 162.114006 302.531328 159.81728 
C 302.531328 157.520554 301.618829 155.317587 299.994799 153.693556 
C 298.370768 152.069525 296.167801 151.157026 293.871074 151.157026 
C 291.574348 151.157026 289.371381 152.069525 287.74735 153.693556 
C 286.123319 155.317587 285.21082 157.520554 285.21082 159.81728 
C 285.21082 162.114006 286.123319 164.316974 287.74735 165.941005 
C 289.371381 167.565035 291.574348 168.477534 293.871074 168.477534 
z
" clip-path="url(#pc501d70517)" style="fill: #ffffff; stroke: #000000"/>
    <path d="M 309.738843 194.442974 
C 312.035569 194.442974 314.238537 193.530475 315.862567 191.906444 
C 317.486598 190.282413 318.399097 188.079446 318.399097 185.78272 
C 318.399097 183.485994 317.486598 181.283026 315.862567 179.658995 
C 314.238537 178.034965 312.035569 177.122466 309.738843 177.122466 
C 307.442117 177.122466 305.239149 178.034965 303.615119 179.658995 
C 301.991088 181.283026 301.078589 183.485994 301.078589 185.78272 
C 301.078589 188.079446 301.991088 190.282413 303.615119 191.906444 
C 305.239149 193.530475 307.442117 194.442974 309.738843 194.442974 
z
" clip-path="url(#pc501d70517)" style="fill: #ffffff; stroke: #000000"/>
    <path d="M 309.738843 168.477534 
C 312.035569 168.477534 314.238537 167.565035 315.862567 165.941005 
C 317.486598 164.316974 318.399097 162.114006 318.399097 159.81728 
C 318.399097 157.520554 317.486598 155.317587 315.862567 153.693556 
C 314.238537 152.069525 312.035569 151.157026 309.738843 151.157026 
C 307.442117 151.157026 305.239149 152.069525 303.615119 153.693556 
C 301.991088 155.317587 301.078589 157.520554 301.078589 159.81728 
C 301.078589 162.114006 301.991088 164.316974 303.615119 165.941005 
C 305.239149 167.565035 307.442117 168.477534 309.738843 168.477534 
z
" clip-path="url(#pc501d70517)" style="fill: #ffffff; stroke: #000000"/>
    <path d="M 325.606612 181.460254 
C 327.903338 181.460254 330.106305 180.547755 331.730336 178.923724 
C 333.354367 177.299694 334.266866 175.096726 334.266866 172.8 
C 334.266866 170.503274 333.354367 168.300306 331.730336 166.676276 
C 330.106305 165.052245 327.903338 164.139746 325.606612 164.139746 
C 323.309885 164.139746 321.106918 165.052245 319.482887 166.676276 
C 317.858857 168.300306 316.946358 170.503274 316.946358 172.8 
C 316.946358 175.096726 317.858857 177.299694 319.482887 178.923724 
C 321.106918 180.547755 323.309885 181.460254 325.606612 181.460254 
z
" clip-path="url(#pc501d70517)" style="fill: #ffffff; stroke: #000000"/>
    <path d="M 341.47438 194.442974 
C 343.771106 194.442974 345.974074 193.530475 347.598105 191.906444 
C 349.222135 190.282413 350.134634 188.079446 350.134634 185.78272 
C 350.134634 183.485994 349.222135 181.283026 347.598105 179.658995 
C 345.974074 178.034965 343.771106 177.122466 341.47438 177.122466 
C 339.177654 177.122466 336.974686 178.034965 335.350656 179.658995 
C 333.726625 181.283026 332.814126 183.485994 332.814126 185.78272 
C 332.814126 188.079446 333.726625 190.282413 335.350656 191.906444 
C 336.974686 193.530475 339.177654 194.442974 341.47438 194.442974 
z
" clip-path="url(#pc501d70517)" style="fill: #ffffff; stroke: #000000"/>
    <path d="M 341.47438 168.477534 
C 343.771106 168.477534 345.974074 167.565035 347.598105 165.941005 
C 349.222135 164.316974 350.134634 162.114006 350.134634 159.81728 
C 350.134634 157.520554 349.222135 155.317587 347.598105 153.693556 
C 345.974074 152.069525 343.771106 151.157026 341.47438 151.157026 
C 339.177654 151.157026 336.974686 152.069525 335.350656 153.693556 
C 333.726625 155.317587 332.814126 157.520554 332.814126 159.81728 
C 332.814126 162.114006 333.726625 164.316974 335.350656 165.941005 
C 336.974686 167.565035 339.177654 168.477534 341.47438 168.477534 
z
" clip-path="url(#pc501d70517)" style="fill: #ffffff; stroke: #000000"/>
    <path d="M 357.342149 181.460254 
C 359.638875 181.460254 361.841842 180.547755 363.465873 178.923724 
C 365.089904 177.299694 366.002403 175.096726 366.002403 172.8 
C 366.002403 170.503274 365.089904 168.300306 363.465873 166.676276 
C 361.841842 165.052245 359.638875 164.139746 357.342149 164.139746 
C 355.045423 164.139746 352.842455 165.052245 351.218424 166.676276 
C 349.594394 168.300306 348.681895 170.503274 348.681895 172.8 
C 348.681895 175.096726 349.594394 177.299694 351.218424 178.923724 
C 352.842455 180.547755 355.045423 181.460254 357.342149 181.460254 
z
" clip-path="url(#pc501d70517)" style="fill: #ffffff; stroke: #000000"/>
    <path d="M 373.209917 181.460254 
C 375.506644 181.460254 377.709611 180.547755 379.333642 178.923724 
C 380.957672 177.299694 381.870171 175.096726 381.870171 172.8 
C 381.870171 170.503274 380.957672 168.300306 379.333642 166.676276 
C 377.709611 165.052245 375.506644 164.139746 373.209917 164.139746 
C 370.913191 164.139746 368.710224 165.052245 367.086193 166.676276 
C 365.462162 168.300306 364.549663 170.503274 364.549663 172.8 
C 364.549663 175.096726 365.462162 177.299694 367.086193 178.923724 
C 368.710224 180.547755 370.913191 181.460254 373.209917 181.460254 
z
" clip-path="url(#pc501d70517)" style="fill: #ffffff; stroke: #000000"/>
    <path d="M 389.077686 194.442974 
C 391.374412 194.442974 393.57738 193.530475 395.20141 191.906444 
C 396.825441 190.282413 397.73794 188.079446 397.73794 185.78272 
C 397.73794 183.485994 396.825441 181.283026 395.20141 179.658995 
C 393.57738 178.034965 391.374412 177.122466 389.077686 177.122466 
C 386.78096 177.122466 384.577992 178.034965 382.953962 179.658995 
C 381.329931 181.283026 380.417432 183.485994 380.417432 185.78272 
C 380.417432 188.079446 381.329931 190.282413 382.953962 191.906444 
C 384.577992 193.530475 386.78096 194.442974 389.077686 194.442974 
z
" clip-path="url(#pc501d70517)" style="fill: #ffffff; stroke: #000000"/>
    <path d="M 389.077686 168.477534 
C 391.374412 168.477534 393.57738 167.565035 395.20141 165.941005 
C 396.825441 164.316974 397.73794 162.114006 397.73794 159.81728 
C 397.73794 157.520554 396.825441 155.317587 395.20141 153.693556 
C 393.57738 152.069525 391.374412 151.157026 389.077686 151.157026 
C 386.78096 151.157026 384.577992 152.069525 382.953962 153.693556 
C 381.329931 155.317587 380.417432 157.520554 380.417432 159.81728 
C 380.417432 162.114006 381.329931 164.316974 382.953962 165.941005 
C 384.577992 167.565035 386.78096 168.477534 389.077686 168.477534 
z
" clip-path="url(#pc501d70517)" style="fill: #ffffff; stroke: #000000"/>
    <path d="M 404.945455 194.442974 
C 407.242181 194.442974 409.445148 193.530475 411.069179 191.906444 
C 412.69321 190.282413 413.605709 188.079446 413.605709 185.78272 
C 413.605709 183.485994 412.69321 181.283026 411.069179 179.658995 
C 409.445148 178.034965 407.242181 177.122466 404.945455 177.122466 
C 402.648728 177.122466 400.445761 178.034965 398.82173 179.658995 
C 397.1977 181.283026 396.285201 183.485994 396.285201 185.78272 
C 396.285201 188.079446 397.1977 190.282413 398.82173 191.906444 
C 400.445761 193.530475 402.648728 194.442974 404.945455 194.442974 
z
" clip-path="url(#pc501d70517)" style="fill: #ffffff; stroke: #000000"/>
    <path d="M 404.945455 168.477534 
C 407.242181 168.477534 409.445148 167.565035 411.069179 165.941005 
C 412.69321 164.316974 413.605709 162.114006 413.605709 159.81728 
C 413.605709 157.520554 412.69321 155.317587 411.069179 153.693556 
C 409.445148 152.069525 407.242181 151.157026 404.945455 151.157026 
C 402.648728 151.157026 400.445761 152.069525 398.82173 153.693556 
C 397.1977 155.317587 396.285201 157.520554 396.285201 159.81728 
C 396.285201 162.114006 397.1977 164.316974 398.82173 165.941005 
C 400.445761 167.565035 402.648728 168.477534 404.945455 168.477534 
z
" clip-path="url(#pc501d70517)" style="fill: #ffffff; stroke: #000000"/>
    <path d="M 420.813223 181.460254 
C 423.109949 181.460254 425.312917 180.547755 426.936947 178.923724 
C 428.560978 177.299694 429.473477 175.096726 429.473477 172.8 
C 429.473477 170.503274 428.560978 168.300306 426.936947 166.676276 
C 425.312917 165.052245 423.109949 164.139746 420.813223 164.139746 
C 418.516497 164.139746 416.313529 165.052245 414.689499 166.676276 
C 413.065468 168.300306 412.152969 170.503274 412.152969 172.8 
C 412.152969 175.096726 413.065468 177.299694 414.689499 178.923724 
C 416.313529 180.547755 418.516497 181.460254 420.813223 181.460254 
z
" clip-path="url(#pc501d70517)" style="fill: #0000ff; stroke: #000000"/>
   </g>
  </g>
 </g>
 <defs>
  <clipPath id="pc501d70517">
   <rect x="0" y="0" width="460.8" height="345.6"/>
  </clipPath>
 </defs>
</svg>
