<?xml version="1.0" encoding="utf-8" standalone="no"?>
<!DOCTYPE svg PUBLIC "-//W3C//DTD SVG 1.1//EN"
  "http://www.w3.org/Graphics/SVG/1.1/DTD/svg11.dtd">
<svg xmlns:xlink="http://www.w3.org/1999/xlink" width="460.8pt" height="345.6pt" viewBox="0 0 460.8 345.6" xmlns="http://www.w3.org/2000/svg" version="1.1">
 <metadata>
  <rdf:RDF xmlns:dc="http://purl.org/dc/elements/1.1/" xmlns:cc="http://creativecommons.org/ns#" xmlns:rdf="http://www.w3.org/1999/02/22-rdf-syntax-ns#">
   <cc:Work>
    <dc:type rdf:resource="http://purl.org/dc/dcmitype/StillImage"/>
    <dc:date>2025-11-05T02:29:20.863786</dc:date>
    <dc:format>image/svg+xml</dc:format>
    <dc:creator>
     <cc:Agent>
      <dc:title>Matplotlib v3.10.5, https://matplotlib.org/</dc:title>
     </cc:Agent>
    </dc:creator>
   </cc:Work>
  </rdf:RDF>
 </metadata>
 <defs>
  <style type="text/css">*{stroke-linejoin: round; stroke-linecap: butt}</style>
 </defs>
 <g id="figure_1">
  <g id="patch_1">
   <path d="M 0 345.6 
L 460.8 345.6 
L 460.8 0 
L 0 0 
z
" style="fill: #ffffff"/>
  </g>
  <g id="axes_1">
   <g id="patch_2">
    <path d="M 47.464744 311.238183 
Q 158.996427 246.035045 269.562915 181.396175 
" clip-path="url(#p8edfabc6ff)" style="fill: none; stroke: #4c4c4c; stroke-linecap: round"/>
    <path d="M 268.224141 181.483833 
L 269.562915 181.396175 
L 268.829776 182.519789 
" clip-path="url(#p8edfabc6ff)" style="fill: none; stroke: #4c4c4c; stroke-linecap: round"/>
   </g>
   <g id="patch_3">
    <path d="M 47.946689 312.198526 
Q 206.59912 244.204628 364.223914 176.651144 
" clip-path="url(#p8edfabc6ff)" style="fill: none; stroke: #4c4c4c; stroke-linecap: round"/>
    <path d="M 362.884589 176.57236 
L 364.223914 176.651144 
L 363.357292 177.675334 
" clip-path="url(#p8edfabc6ff)" style="fill: none; stroke: #4c4c4c; stroke-linecap: round"/>
   </g>
   <g id="patch_4">
    <path d="M 44.625368 308.295216 
Q 87.589761 240.543673 129.9554 173.736319 
" clip-path="url(#p8edfabc6ff)" style="fill: none; stroke: #4c4c4c; stroke-linecap: round"/>
    <path d="M 128.806045 174.428404 
L 129.9554 173.736319 
L 129.819455 175.071055 
" clip-path="url(#p8edfabc6ff)" style="fill: none; stroke: #4c4c4c; stroke-linecap: round"/>
   </g>
   <g id="patch_5">
    <path d="M 47.559172 304.09239 
Q 158.992427 242.37551 269.447636 181.200317 
" clip-path="url(#p8edfabc6ff)" style="fill: none; stroke: #4c4c4c; stroke-linecap: round"/>
    <path d="M 268.107187 181.256842 
L 269.447636 181.200317 
L 268.688586 182.306592 
" clip-path="url(#p8edfabc6ff)" style="fill: none; stroke: #4c4c4c; stroke-linecap: round"/>
   </g>
   <g id="patch_6">
    <path d="M 48.007704 305.025076 
Q 206.598119 240.543259 364.152837 176.482549 
" clip-path="url(#p8edfabc6ff)" style="fill: none; stroke: #4c4c4c; stroke-linecap: round"/>
    <path d="M 362.81522 176.378716 
L 364.152837 176.482549 
L 363.2672 177.490343 
" clip-path="url(#p8edfabc6ff)" style="fill: none; stroke: #4c4c4c; stroke-linecap: round"/>
   </g>
   <g id="patch_7">
    <path d="M 42.390331 299.966336 
Q 63.788071 225.897236 84.875512 152.902247 
" clip-path="url(#p8edfabc6ff)" style="fill: none; stroke: #4c4c4c; stroke-linecap: round"/>
    <path d="M 83.966036 153.88858 
L 84.875512 152.902247 
L 85.118893 154.221628 
" clip-path="url(#p8edfabc6ff)" style="fill: none; stroke: #4c4c4c; stroke-linecap: round"/>
   </g>
   <g id="patch_8">
    <path d="M 47.660863 296.948609 
Q 158.995738 238.711905 269.339926 180.993407 
" clip-path="url(#p8edfabc6ff)" style="fill: none; stroke: #4c4c4c; stroke-linecap: round"/>
    <path d="M 267.998509 181.017945 
L 269.339926 180.993407 
L 268.554706 182.081263 
" clip-path="url(#p8edfabc6ff)" style="fill: none; stroke: #4c4c4c; stroke-linecap: round"/>
   </g>
   <g id="patch_9">
    <path d="M 48.068719 297.854307 
Q 206.597131 236.881841 364.082031 176.310726 
" clip-path="url(#p8edfabc6ff)" style="fill: none; stroke: #4c4c4c; stroke-linecap: round"/>
    <path d="M 362.746628 176.181493 
L 364.082031 176.310726 
L 363.177403 177.301508 
" clip-path="url(#p8edfabc6ff)" style="fill: none; stroke: #4c4c4c; stroke-linecap: round"/>
   </g>
   <g id="patch_10">
    <path d="M 45.347379 294.158906 
Q 87.590193 240.543026 129.141088 187.805352 
" clip-path="url(#p8edfabc6ff)" style="fill: none; stroke: #4c4c4c; stroke-linecap: round"/>
    <path d="M 127.927146 188.376618 
L 129.141088 187.805352 
L 128.869736 189.119265 
" clip-path="url(#p8edfabc6ff)" style="fill: none; stroke: #4c4c4c; stroke-linecap: round"/>
   </g>
   <g id="patch_11">
    <path d="M 42.390331 292.64275 
Q 63.788071 218.573651 84.875512 145.578662 
" clip-path="url(#p8edfabc6ff)" style="fill: none; stroke: #4c4c4c; stroke-linecap: round"/>
    <path d="M 83.966036 146.564995 
L 84.875512 145.578662 
L 85.118893 146.898042 
" clip-path="url(#p8edfabc6ff)" style="fill: none; stroke: #4c4c4c; stroke-linecap: round"/>
   </g>
   <g id="patch_12">
    <path d="M 46.430394 295.180013 
Q 111.391449 236.88163 175.520416 179.329993 
" clip-path="url(#p8edfabc6ff)" style="fill: none; stroke: #4c4c4c; stroke-linecap: round"/>
    <path d="M 174.22658 179.684939 
L 175.520416 179.329993 
L 175.028071 180.57803 
" clip-path="url(#p8edfabc6ff)" style="fill: none; stroke: #4c4c4c; stroke-linecap: round"/>
   </g>
   <g id="patch_13">
    <path d="M 43.335337 285.654133 
Q 63.788706 236.880714 83.809701 189.138341 
" clip-path="url(#p8edfabc6ff)" style="fill: none; stroke: #4c4c4c; stroke-linecap: round"/>
    <path d="M 82.792313 190.012938 
L 83.809701 189.138341 
L 83.898946 190.47701 
" clip-path="url(#p8edfabc6ff)" style="fill: none; stroke: #4c4c4c; stroke-linecap: round"/>
   </g>
   <g id="patch_14">
    <path d="M 48.129734 290.68622 
Q 206.598635 233.219476 364.016478 176.133885 
" clip-path="url(#p8edfabc6ff)" style="fill: none; stroke: #4c4c4c; stroke-linecap: round"/>
    <path d="M 362.683816 175.978924 
L 364.016478 176.133885 
L 363.092912 177.107038 
" clip-path="url(#p8edfabc6ff)" style="fill: none; stroke: #4c4c4c; stroke-linecap: round"/>
   </g>
   <g id="patch_15">
    <path d="M 44.247656 286.100682 
Q 63.788652 251.528152 82.77951 217.92894 
" clip-path="url(#p8edfabc6ff)" style="fill: none; stroke: #4c4c4c; stroke-linecap: round"/>
    <path d="M 81.666704 218.678381 
L 82.77951 217.92894 
L 82.711379 219.26885 
" clip-path="url(#p8edfabc6ff)" style="fill: none; stroke: #4c4c4c; stroke-linecap: round"/>
   </g>
   <g id="patch_16">
    <path d="M 42.493476 285.347773 
Q 63.788713 214.909679 84.760404 145.54178 
" clip-path="url(#p8edfabc6ff)" style="fill: none; stroke: #4c4c4c; stroke-linecap: round"/>
    <path d="M 83.838809 146.5168 
L 84.760404 145.54178 
L 84.987463 146.864067 
" clip-path="url(#p8edfabc6ff)" style="fill: none; stroke: #4c4c4c; stroke-linecap: round"/>
   </g>
   <g id="patch_17">
    <path d="M 47.849719 282.686525 
Q 158.99498 231.388713 269.125111 180.559421 
" clip-path="url(#p8edfabc6ff)" style="fill: none; stroke: #4c4c4c; stroke-linecap: round"/>
    <path d="M 267.784124 180.517516 
L 269.125111 180.559421 
L 268.286994 181.607067 
" clip-path="url(#p8edfabc6ff)" style="fill: none; stroke: #4c4c4c; stroke-linecap: round"/>
   </g>
   <g id="patch_18">
    <path d="M 48.185665 283.522548 
Q 206.600024 229.557217 363.956071 175.952409 
" clip-path="url(#p8edfabc6ff)" style="fill: none; stroke: #4c4c4c; stroke-linecap: round"/>
    <path d="M 362.626695 175.771414 
L 363.956071 175.952409 
L 363.01365 176.907313 
" clip-path="url(#p8edfabc6ff)" style="fill: none; stroke: #4c4c4c; stroke-linecap: round"/>
   </g>
   <g id="patch_19">
    <path d="M 43.001207 278.199801 
Q 63.78862 222.233689 84.186749 167.31565 
" clip-path="url(#p8edfabc6ff)" style="fill: none; stroke: #4c4c4c; stroke-linecap: round"/>
    <path d="M 83.20647 168.231648 
L 84.186749 167.31565 
L 84.331381 168.649472 
" clip-path="url(#p8edfabc6ff)" style="fill: none; stroke: #4c4c4c; stroke-linecap: round"/>
   </g>
   <g id="patch_20">
    <path d="M 47.936883 275.567329 
Q 158.994414 227.727162 269.025127 180.329316 
" clip-path="url(#p8edfabc6ff)" style="fill: none; stroke: #4c4c4c; stroke-linecap: round"/>
    <path d="M 267.685658 180.253017 
L 269.025127 180.329316 
L 268.160407 181.355112 
" clip-path="url(#p8edfabc6ff)" style="fill: none; stroke: #4c4c4c; stroke-linecap: round"/>
   </g>
   <g id="patch_21">
    <path d="M 48.236511 276.362954 
Q 206.596335 225.896636 363.890911 175.769793 
" clip-path="url(#p8edfabc6ff)" style="fill: none; stroke: #4c4c4c; stroke-linecap: round"/>
    <path d="M 362.565383 175.562483 
L 363.890911 175.769793 
L 362.929746 176.705829 
" clip-path="url(#p8edfabc6ff)" style="fill: none; stroke: #4c4c4c; stroke-linecap: round"/>
   </g>
   <g id="patch_22">
    <path d="M 47.105917 274.063354 
Q 111.391121 229.558213 174.757085 185.689469 
" clip-path="url(#p8edfabc6ff)" style="fill: none; stroke: #4c4c4c; stroke-linecap: round"/>
    <path d="M 173.428929 185.879205 
L 174.757085 185.689469 
L 174.111981 186.865836 
" clip-path="url(#p8edfabc6ff)" style="fill: none; stroke: #4c4c4c; stroke-linecap: round"/>
   </g>
   <g id="patch_23">
    <path d="M 48.024048 268.453496 
Q 158.993882 224.065562 268.925649 180.092856 
" clip-path="url(#p8edfabc6ff)" style="fill: none; stroke: #4c4c4c; stroke-linecap: round"/>
    <path d="M 267.588642 179.981438 
L 268.925649 180.092856 
L 268.034311 181.09561 
" clip-path="url(#p8edfabc6ff)" style="fill: none; stroke: #4c4c4c; stroke-linecap: round"/>
   </g>
   <g id="patch_24">
    <path d="M 48.287356 269.205595 
Q 206.597614 222.23442 363.836022 175.581266 
" clip-path="url(#p8edfabc6ff)" style="fill: none; stroke: #4c4c4c; stroke-linecap: round"/>
    <path d="M 362.514924 175.347387 
L 363.836022 175.581266 
L 362.85626 176.497817 
" clip-path="url(#p8edfabc6ff)" style="fill: none; stroke: #4c4c4c; stroke-linecap: round"/>
   </g>
   <g id="patch_25">
    <path d="M 45.765767 265.222608 
Q 87.588081 218.574642 128.664057 172.75913 
" clip-path="url(#p8edfabc6ff)" style="fill: none; stroke: #4c4c4c; stroke-linecap: round"/>
    <path d="M 127.416261 173.252087 
L 128.664057 172.75913 
L 128.309745 174.053141 
" clip-path="url(#p8edfabc6ff)" style="fill: none; stroke: #4c4c4c; stroke-linecap: round"/>
   </g>
   <g id="patch_26">
    <path d="M 48.111212 261.345027 
Q 158.996894 220.402622 268.833751 179.847474 
" clip-path="url(#p8edfabc6ff)" style="fill: none; stroke: #4c4c4c; stroke-linecap: round"/>
    <path d="M 267.500211 179.700265 
L 268.833751 179.847474 
L 267.91586 180.825981 
" clip-path="url(#p8edfabc6ff)" style="fill: none; stroke: #4c4c4c; stroke-linecap: round"/>
   </g>
   <g id="patch_27">
    <path d="M 48.338202 262.050471 
Q 206.598901 218.572257 363.78151 175.390222 
" clip-path="url(#p8edfabc6ff)" style="fill: none; stroke: #4c4c4c; stroke-linecap: round"/>
    <path d="M 362.465436 175.12955 
L 363.78151 175.390222 
L 362.783328 176.286678 
" clip-path="url(#p8edfabc6ff)" style="fill: none; stroke: #4c4c4c; stroke-linecap: round"/>
   </g>
   <g id="patch_28">
    <path d="M 48.191112 254.244381 
Q 158.996175 216.741129 268.742218 179.596315 
" clip-path="url(#p8edfabc6ff)" style="fill: none; stroke: #4c4c4c; stroke-linecap: round"/>
    <path d="M 267.413201 179.412701 
L 268.742218 179.596315 
L 267.797917 180.54936 
" clip-path="url(#p8edfabc6ff)" style="fill: none; stroke: #4c4c4c; stroke-linecap: round"/>
   </g>
   <g id="patch_29">
    <path d="M 48.383963 254.898867 
Q 206.600066 214.910182 363.73222 175.195462 
" clip-path="url(#p8edfabc6ff)" style="fill: none; stroke: #4c4c4c; stroke-linecap: round"/>
    <path d="M 362.42178 174.907804 
L 363.73222 175.195462 
L 362.71583 176.071219 
" clip-path="url(#p8edfabc6ff)" style="fill: none; stroke: #4c4c4c; stroke-linecap: round"/>
   </g>
   <g id="patch_30">
    <path d="M 45.66117 250.473857 
Q 63.788822 229.557335 81.18424 209.485699 
" clip-path="url(#p8edfabc6ff)" style="fill: none; stroke: #4c4c4c; stroke-linecap: round"/>
    <path d="M 79.94491 209.999568 
L 81.18424 209.485699 
L 80.851736 210.785485 
" clip-path="url(#p8edfabc6ff)" style="fill: none; stroke: #4c4c4c; stroke-linecap: round"/>
   </g>
   <g id="patch_31">
    <path d="M 48.263749 247.150887 
Q 158.995229 213.079663 268.658115 179.337236 
" clip-path="url(#p8edfabc6ff)" style="fill: none; stroke: #4c4c4c; stroke-linecap: round"/>
    <path d="M 267.334729 179.116672 
L 268.658115 179.337236 
L 267.687632 180.263607 
" clip-path="url(#p8edfabc6ff)" style="fill: none; stroke: #4c4c4c; stroke-linecap: round"/>
   </g>
   <g id="patch_32">
    <path d="M 48.42464 247.750449 
Q 206.598628 211.248759 363.683214 174.99847 
" clip-path="url(#p8edfabc6ff)" style="fill: none; stroke: #4c4c4c; stroke-linecap: round"/>
    <path d="M 362.379029 174.683667 
L 363.683214 174.99847 
L 362.648861 175.852936 
" clip-path="url(#p8edfabc6ff)" style="fill: none; stroke: #4c4c4c; stroke-linecap: round"/>
   </g>
   <g id="patch_33">
    <path d="M 48.336386 240.061863 
Q 158.997811 209.41716 268.581753 179.070838 
" clip-path="url(#p8edfabc6ff)" style="fill: none; stroke: #4c4c4c; stroke-linecap: round"/>
    <path d="M 267.26515 178.812855 
L 268.581753 179.070838 
L 267.585405 179.969331 
" clip-path="url(#p8edfabc6ff)" style="fill: none; stroke: #4c4c4c; stroke-linecap: round"/>
   </g>
   <g id="patch_34">
    <path d="M 44.878144 235.225141 
Q 63.790117 207.584565 82.070753 180.866712 
" clip-path="url(#p8edfabc6ff)" style="fill: none; stroke: #4c4c4c; stroke-linecap: round"/>
    <path d="M 80.897948 181.51827 
L 82.070753 180.866712 
L 81.888317 182.195891 
" clip-path="url(#p8edfabc6ff)" style="fill: none; stroke: #4c4c4c; stroke-linecap: round"/>
   </g>
   <g id="patch_35">
    <path d="M 48.263749 239.827302 
Q 158.995229 205.756077 268.658115 172.013651 
" clip-path="url(#p8edfabc6ff)" style="fill: none; stroke: #4c4c4c; stroke-linecap: round"/>
    <path d="M 267.334729 171.793086 
L 268.658115 172.013651 
L 267.687632 172.940021 
" clip-path="url(#p8edfabc6ff)" style="fill: none; stroke: #4c4c4c; stroke-linecap: round"/>
   </g>
   <g id="patch_36">
    <path d="M 46.596733 229.457437 
Q 63.786968 214.911854 80.123711 201.088456 
" clip-path="url(#p8edfabc6ff)" style="fill: none; stroke: #4c4c4c; stroke-linecap: round"/>
    <path d="M 78.820082 201.405555 
L 80.123711 201.088456 
L 79.595213 202.321618 
" clip-path="url(#p8edfabc6ff)" style="fill: none; stroke: #4c4c4c; stroke-linecap: round"/>
   </g>
   <g id="patch_37">
    <path d="M 48.500909 233.459925 
Q 206.598116 203.925282 363.596302 174.59595 
" clip-path="url(#p8edfabc6ff)" style="fill: none; stroke: #4c4c4c; stroke-linecap: round"/>
    <path d="M 362.306527 174.226517 
L 363.596302 174.59595 
L 362.526891 175.40611 
" clip-path="url(#p8edfabc6ff)" style="fill: none; stroke: #4c4c4c; stroke-linecap: round"/>
   </g>
   <g id="patch_38">
    <path d="M 48.452605 225.903482 
Q 158.994984 202.094354 268.444393 178.520635 
" clip-path="url(#p8edfabc6ff)" style="fill: none; stroke: #4c4c4c; stroke-linecap: round"/>
    <path d="M 267.144961 178.186754 
L 268.444393 178.520635 
L 267.397629 179.359852 
" clip-path="url(#p8edfabc6ff)" style="fill: none; stroke: #4c4c4c; stroke-linecap: round"/>
   </g>
   <g id="patch_39">
    <path d="M 48.531416 226.318434 
Q 206.598907 200.263353 363.56325 174.39011 
" clip-path="url(#p8edfabc6ff)" style="fill: none; stroke: #4c4c4c; stroke-linecap: round"/>
    <path d="M 362.281644 173.993267 
L 363.56325 174.39011 
L 362.476812 175.17729 
" clip-path="url(#p8edfabc6ff)" style="fill: none; stroke: #4c4c4c; stroke-linecap: round"/>
   </g>
   <g id="patch_40">
    <path d="M 45.66117 221.179515 
Q 63.788822 200.262993 81.18424 180.191357 
" clip-path="url(#p8edfabc6ff)" style="fill: none; stroke: #4c4c4c; stroke-linecap: round"/>
    <path d="M 79.94491 180.705226 
L 81.18424 180.191357 
L 80.851736 181.491142 
" clip-path="url(#p8edfabc6ff)" style="fill: none; stroke: #4c4c4c; stroke-linecap: round"/>
   </g>
   <g id="patch_41">
    <path d="M 47.485808 216.076941 
Q 87.588311 192.940882 126.722389 170.363529 
" clip-path="url(#p8edfabc6ff)" style="fill: none; stroke: #4c4c4c; stroke-linecap: round"/>
    <path d="M 125.383133 170.443485 
L 126.722389 170.363529 
L 125.9828 171.482908 
" clip-path="url(#p8edfabc6ff)" style="fill: none; stroke: #4c4c4c; stroke-linecap: round"/>
   </g>
   <g id="patch_42">
    <path d="M 48.561924 219.178285 
Q 206.599701 196.601459 363.530681 174.182748 
" clip-path="url(#p8edfabc6ff)" style="fill: none; stroke: #4c4c4c; stroke-linecap: round"/>
    <path d="M 362.257889 173.758484 
L 363.530681 174.182748 
L 362.427595 174.946423 
" clip-path="url(#p8edfabc6ff)" style="fill: none; stroke: #4c4c4c; stroke-linecap: round"/>
   </g>
   <g id="patch_43">
    <path d="M 48.547033 211.762758 
Q 158.994922 194.770775 268.337778 177.948797 
" clip-path="url(#p8edfabc6ff)" style="fill: none; stroke: #4c4c4c; stroke-linecap: round"/>
    <path d="M 267.060497 177.538243 
L 268.337778 177.948797 
L 267.242966 178.724289 
" clip-path="url(#p8edfabc6ff)" style="fill: none; stroke: #4c4c4c; stroke-linecap: round"/>
   </g>
   <g id="patch_44">
    <path d="M 48.582262 212.040706 
Q 206.598994 192.939782 363.505771 173.973029 
" clip-path="url(#p8edfabc6ff)" style="fill: none; stroke: #4c4c4c; stroke-linecap: round"/>
    <path d="M 362.24244 173.521371 
L 363.505771 173.973029 
L 362.386446 174.712699 
" clip-path="url(#p8edfabc6ff)" style="fill: none; stroke: #4c4c4c; stroke-linecap: round"/>
   </g>
   <g id="patch_45">
    <path d="M 48.583352 204.698095 
Q 158.996255 191.108814 268.299498 177.656108 
" clip-path="url(#p8edfabc6ff)" style="fill: none; stroke: #4c4c4c; stroke-linecap: round"/>
    <path d="M 267.035192 177.207187 
L 268.299498 177.656108 
L 267.181778 178.3982 
" clip-path="url(#p8edfabc6ff)" style="fill: none; stroke: #4c4c4c; stroke-linecap: round"/>
   </g>
   <g id="patch_46">
    <path d="M 48.6026 204.90402 
Q 206.599526 189.277951 363.483845 173.761919 
" clip-path="url(#p8edfabc6ff)" style="fill: none; stroke: #4c4c4c; stroke-linecap: round"/>
    <path d="M 362.230619 173.282937 
L 363.483845 173.761919 
L 362.348724 174.477111 
" clip-path="url(#p8edfabc6ff)" style="fill: none; stroke: #4c4c4c; stroke-linecap: round"/>
   </g>
   <g id="patch_47">
    <path d="M 48.547033 204.439172 
Q 158.994922 187.447189 268.337778 170.625212 
" clip-path="url(#p8edfabc6ff)" style="fill: none; stroke: #4c4c4c; stroke-linecap: round"/>
    <path d="M 267.060497 170.214657 
L 268.337778 170.625212 
L 267.242966 171.400703 
" clip-path="url(#p8edfabc6ff)" style="fill: none; stroke: #4c4c4c; stroke-linecap: round"/>
   </g>
   <g id="patch_48">
    <path d="M 48.576814 197.331262 
Q 111.392029 189.27803 173.098287 181.366971 
" clip-path="url(#p8edfabc6ff)" style="fill: none; stroke: #4c4c4c; stroke-linecap: round"/>
    <path d="M 171.831731 180.924439 
L 173.098287 181.366971 
L 171.984328 182.114697 
" clip-path="url(#p8edfabc6ff)" style="fill: none; stroke: #4c4c4c; stroke-linecap: round"/>
   </g>
   <g id="patch_49">
    <path d="M 48.622939 197.768229 
Q 206.600059 185.616143 363.462439 173.549806 
" clip-path="url(#p8edfabc6ff)" style="fill: none; stroke: #4c4c4c; stroke-linecap: round"/>
    <path d="M 362.219955 173.043609 
L 363.462439 173.549806 
L 362.311991 174.240075 
" clip-path="url(#p8edfabc6ff)" style="fill: none; stroke: #4c4c4c; stroke-linecap: round"/>
   </g>
   <g id="patch_50">
    <path d="M 48.171501 195.599376 
Q 87.591343 181.954046 125.954659 168.674436 
" clip-path="url(#p8edfabc6ff)" style="fill: none; stroke: #4c4c4c; stroke-linecap: round"/>
    <path d="M 124.624409 168.499977 
L 125.954659 168.674436 
L 125.016942 169.633961 
" clip-path="url(#p8edfabc6ff)" style="fill: none; stroke: #4c4c4c; stroke-linecap: round"/>
   </g>
   <g id="patch_51">
    <path d="M 45.248592 191.551713 
Q 63.789792 167.305529 81.651843 143.947463 
" clip-path="url(#p8edfabc6ff)" style="fill: none; stroke: #4c4c4c; stroke-linecap: round"/>
    <path d="M 80.446288 144.536223 
L 81.651843 143.947463 
L 81.399517 145.265163 
" clip-path="url(#p8edfabc6ff)" style="fill: none; stroke: #4c4c4c; stroke-linecap: round"/>
   </g>
   <g id="patch_52">
    <path d="M 48.620396 197.768425 
Q 182.796161 187.447212 315.857184 177.211749 
" clip-path="url(#p8edfabc6ff)" style="fill: none; stroke: #4c4c4c; stroke-linecap: round"/>
    <path d="M 314.614701 176.705552 
L 315.857184 177.211749 
L 314.706736 177.902017 
" clip-path="url(#p8edfabc6ff)" style="fill: none; stroke: #4c4c4c; stroke-linecap: round"/>
   </g>
   <g id="patch_53">
    <path d="M 48.634197 190.576815 
Q 158.998131 183.785188 268.246142 177.062234 
" clip-path="url(#p8edfabc6ff)" style="fill: none; stroke: #4c4c4c; stroke-linecap: round"/>
    <path d="M 267.011555 176.537073 
L 268.246142 177.062234 
L 267.085262 177.734807 
" clip-path="url(#p8edfabc6ff)" style="fill: none; stroke: #4c4c4c; stroke-linecap: round"/>
   </g>
   <g id="patch_54">
    <path d="M 48.633108 190.633891 
Q 206.600326 181.954373 363.451195 173.336194 
" clip-path="url(#p8edfabc6ff)" style="fill: none; stroke: #4c4c4c; stroke-linecap: round"/>
    <path d="M 362.220084 172.802932 
L 363.451195 173.336194 
L 362.285919 174.001125 
" clip-path="url(#p8edfabc6ff)" style="fill: none; stroke: #4c4c4c; stroke-linecap: round"/>
   </g>
   <g id="patch_55">
    <path d="M 48.618944 190.444951 
Q 63.787337 189.278151 77.840989 188.197101 
" clip-path="url(#p8edfabc6ff)" style="fill: none; stroke: #4c4c4c; stroke-linecap: round"/>
    <path d="M 76.598506 187.690904 
L 77.840989 188.197101 
L 76.690542 188.88737 
" clip-path="url(#p8edfabc6ff)" style="fill: none; stroke: #4c4c4c; stroke-linecap: round"/>
   </g>
   <g id="patch_56">
    <path d="M 48.641461 183.51908 
Q 158.994901 180.12359 268.230835 176.762484 
" clip-path="url(#p8edfabc6ff)" style="fill: none; stroke: #4c4c4c; stroke-linecap: round"/>
    <path d="M 267.01295 176.199674 
L 268.230835 176.762484 
L 267.049855 177.399106 
" clip-path="url(#p8edfabc6ff)" style="fill: none; stroke: #4c4c4c; stroke-linecap: round"/>
   </g>
   <g id="patch_57">
    <path d="M 48.643277 183.499999 
Q 206.600594 178.292615 363.440484 173.122069 
" clip-path="url(#p8edfabc6ff)" style="fill: none; stroke: #4c4c4c; stroke-linecap: round"/>
    <path d="M 362.221366 172.561934 
L 363.440484 173.122069 
L 362.260905 173.761282 
" clip-path="url(#p8edfabc6ff)" style="fill: none; stroke: #4c4c4c; stroke-linecap: round"/>
   </g>
   <g id="patch_58">
    <path d="M 48.618944 183.121365 
Q 63.787337 181.954566 77.840989 180.873516 
" clip-path="url(#p8edfabc6ff)" style="fill: none; stroke: #4c4c4c; stroke-linecap: round"/>
    <path d="M 76.598506 180.367319 
L 77.840989 180.873516 
L 76.690542 181.563784 
" clip-path="url(#p8edfabc6ff)" style="fill: none; stroke: #4c4c4c; stroke-linecap: round"/>
   </g>
   <g id="patch_59">
    <path d="M 48.648725 176.461793 
Q 158.99517 176.461793 268.223581 176.461793 
" clip-path="url(#p8edfabc6ff)" style="fill: none; stroke: #4c4c4c; stroke-linecap: round"/>
    <path d="M 267.023581 175.861793 
L 268.223581 176.461793 
L 267.023581 177.061793 
" clip-path="url(#p8edfabc6ff)" style="fill: none; stroke: #4c4c4c; stroke-linecap: round"/>
   </g>
   <g id="patch_60">
    <path d="M 48.648362 176.366611 
Q 206.598251 174.630897 363.430175 172.90747 
" clip-path="url(#p8edfabc6ff)" style="fill: none; stroke: #4c4c4c; stroke-linecap: round"/>
    <path d="M 362.223654 172.320692 
L 363.430175 172.90747 
L 362.23684 173.520619 
" clip-path="url(#p8edfabc6ff)" style="fill: none; stroke: #4c4c4c; stroke-linecap: round"/>
   </g>
   <g id="patch_61">
    <path d="M 48.647998 169.304769 
Q 135.193467 170.969105 220.621109 172.611944 
" clip-path="url(#p8edfabc6ff)" style="fill: none; stroke: #4c4c4c; stroke-linecap: round"/>
    <path d="M 219.432867 171.988983 
L 220.621109 172.611944 
L 219.409794 173.188761 
" clip-path="url(#p8edfabc6ff)" style="fill: none; stroke: #4c4c4c; stroke-linecap: round"/>
   </g>
   <g id="patch_62">
    <path d="M 48.648362 169.233389 
Q 206.598251 170.969103 363.430175 172.69253 
" clip-path="url(#p8edfabc6ff)" style="fill: none; stroke: #4c4c4c; stroke-linecap: round"/>
    <path d="M 362.23684 172.079381 
L 363.430175 172.69253 
L 362.223654 173.279308 
" clip-path="url(#p8edfabc6ff)" style="fill: none; stroke: #4c4c4c; stroke-linecap: round"/>
   </g>
   <g id="patch_63">
    <path d="M 48.642188 168.805307 
Q 87.589964 167.307315 125.420532 165.852294 
" clip-path="url(#p8edfabc6ff)" style="fill: none; stroke: #4c4c4c; stroke-linecap: round"/>
    <path d="M 124.198359 165.298857 
L 125.420532 165.852294 
L 124.244479 166.49797 
" clip-path="url(#p8edfabc6ff)" style="fill: none; stroke: #4c4c4c; stroke-linecap: round"/>
   </g>
   <g id="patch_64">
    <path d="M 48.634197 162.346771 
Q 158.998131 169.138397 268.246142 175.861352 
" clip-path="url(#p8edfabc6ff)" style="fill: none; stroke: #4c4c4c; stroke-linecap: round"/>
    <path d="M 267.085262 175.188778 
L 268.246142 175.861352 
L 267.011555 176.386512 
" clip-path="url(#p8edfabc6ff)" style="fill: none; stroke: #4c4c4c; stroke-linecap: round"/>
   </g>
   <g id="patch_65">
    <path d="M 48.643277 162.100001 
Q 206.600594 167.307385 363.440484 172.477931 
" clip-path="url(#p8edfabc6ff)" style="fill: none; stroke: #4c4c4c; stroke-linecap: round"/>
    <path d="M 362.260905 171.838718 
L 363.440484 172.477931 
L 362.221366 173.038066 
" clip-path="url(#p8edfabc6ff)" style="fill: none; stroke: #4c4c4c; stroke-linecap: round"/>
   </g>
   <g id="patch_66">
    <path d="M 48.612406 155.287248 
Q 158.997326 165.476625 268.268945 175.563236 
" clip-path="url(#p8edfabc6ff)" style="fill: none; stroke: #4c4c4c; stroke-linecap: round"/>
    <path d="M 267.129175 174.855476 
L 268.268945 175.563236 
L 267.018875 176.050396 
" clip-path="url(#p8edfabc6ff)" style="fill: none; stroke: #4c4c4c; stroke-linecap: round"/>
   </g>
   <g id="patch_67">
    <path d="M 48.633108 154.966109 
Q 206.600326 163.645627 363.451195 172.263806 
" clip-path="url(#p8edfabc6ff)" style="fill: none; stroke: #4c4c4c; stroke-linecap: round"/>
    <path d="M 362.285919 171.598875 
L 363.451195 172.263806 
L 362.220084 172.797068 
" clip-path="url(#p8edfabc6ff)" style="fill: none; stroke: #4c4c4c; stroke-linecap: round"/>
   </g>
   <g id="patch_68">
    <path d="M 48.637829 154.93468 
Q 182.796696 161.814622 315.838997 168.637304 
" clip-path="url(#p8edfabc6ff)" style="fill: none; stroke: #4c4c4c; stroke-linecap: round"/>
    <path d="M 314.6713 167.976634 
L 315.838997 168.637304 
L 314.609843 169.175059 
" clip-path="url(#p8edfabc6ff)" style="fill: none; stroke: #4c4c4c; stroke-linecap: round"/>
   </g>
   <g id="patch_69">
    <path d="M 48.583352 148.225491 
Q 158.996255 161.814771 268.299498 175.267478 
" clip-path="url(#p8edfabc6ff)" style="fill: none; stroke: #4c4c4c; stroke-linecap: round"/>
    <path d="M 267.181778 174.525385 
L 268.299498 175.267478 
L 267.035192 175.716398 
" clip-path="url(#p8edfabc6ff)" style="fill: none; stroke: #4c4c4c; stroke-linecap: round"/>
   </g>
   <g id="patch_70">
    <path d="M 48.622939 147.831771 
Q 206.600059 159.983857 363.462439 172.050194 
" clip-path="url(#p8edfabc6ff)" style="fill: none; stroke: #4c4c4c; stroke-linecap: round"/>
    <path d="M 362.311991 171.359925 
L 363.462439 172.050194 
L 362.219955 172.556391 
" clip-path="url(#p8edfabc6ff)" style="fill: none; stroke: #4c4c4c; stroke-linecap: round"/>
   </g>
   <g id="patch_71">
    <path d="M 48.547033 141.160828 
Q 158.994922 158.152811 268.337778 174.974788 
" clip-path="url(#p8edfabc6ff)" style="fill: none; stroke: #4c4c4c; stroke-linecap: round"/>
    <path d="M 267.242966 174.199297 
L 268.337778 174.974788 
L 267.060497 175.385343 
" clip-path="url(#p8edfabc6ff)" style="fill: none; stroke: #4c4c4c; stroke-linecap: round"/>
   </g>
   <g id="patch_72">
    <path d="M 48.6026 140.69598 
Q 206.599526 156.322049 363.483845 171.838081 
" clip-path="url(#p8edfabc6ff)" style="fill: none; stroke: #4c4c4c; stroke-linecap: round"/>
    <path d="M 362.348724 171.122889 
L 363.483845 171.838081 
L 362.230619 172.317063 
" clip-path="url(#p8edfabc6ff)" style="fill: none; stroke: #4c4c4c; stroke-linecap: round"/>
   </g>
   <g id="patch_73">
    <path d="M 48.35164 142.095944 
Q 87.591824 152.660609 125.752417 162.934614 
" clip-path="url(#p8edfabc6ff)" style="fill: none; stroke: #4c4c4c; stroke-linecap: round"/>
    <path d="M 124.749662 162.043277 
L 125.752417 162.934614 
L 124.437694 163.202016 
" clip-path="url(#p8edfabc6ff)" style="fill: none; stroke: #4c4c4c; stroke-linecap: round"/>
   </g>
   <g id="patch_74">
    <path d="M 48.503451 134.092589 
Q 158.996831 154.491367 268.390757 174.687168 
" clip-path="url(#p8edfabc6ff)" style="fill: none; stroke: #4c4c4c; stroke-linecap: round"/>
    <path d="M 267.319627 173.879282 
L 268.390757 174.687168 
L 267.10177 175.059341 
" clip-path="url(#p8edfabc6ff)" style="fill: none; stroke: #4c4c4c; stroke-linecap: round"/>
   </g>
   <g id="patch_75">
    <path d="M 48.582262 133.559294 
Q 206.598994 152.660218 363.505771 171.626971 
" clip-path="url(#p8edfabc6ff)" style="fill: none; stroke: #4c4c4c; stroke-linecap: round"/>
    <path d="M 362.386446 170.887301 
L 363.505771 171.626971 
L 362.24244 172.078629 
" clip-path="url(#p8edfabc6ff)" style="fill: none; stroke: #4c4c4c; stroke-linecap: round"/>
   </g>
   <g id="patch_76">
    <path d="M 48.452605 127.020103 
Q 158.994984 150.829231 268.444393 174.40295 
" clip-path="url(#p8edfabc6ff)" style="fill: none; stroke: #4c4c4c; stroke-linecap: round"/>
    <path d="M 267.397629 173.563734 
L 268.444393 174.40295 
L 267.144961 174.736832 
" clip-path="url(#p8edfabc6ff)" style="fill: none; stroke: #4c4c4c; stroke-linecap: round"/>
   </g>
   <g id="patch_77">
    <path d="M 47.108097 130.126839 
Q 63.789867 141.675757 79.552399 152.588279 
" clip-path="url(#p8edfabc6ff)" style="fill: none; stroke: #4c4c4c; stroke-linecap: round"/>
    <path d="M 78.907294 151.411911 
L 79.552399 152.588279 
L 78.224242 152.398542 
" clip-path="url(#p8edfabc6ff)" style="fill: none; stroke: #4c4c4c; stroke-linecap: round"/>
   </g>
   <g id="patch_78">
    <path d="M 48.394496 119.942701 
Q 158.992886 147.16692 268.505649 174.123908 
" clip-path="url(#p8edfabc6ff)" style="fill: none; stroke: #4c4c4c; stroke-linecap: round"/>
    <path d="M 267.483842 173.254476 
L 268.505649 174.123908 
L 267.19702 174.419694 
" clip-path="url(#p8edfabc6ff)" style="fill: none; stroke: #4c4c4c; stroke-linecap: round"/>
   </g>
   <g id="patch_79">
    <path d="M 48.531416 119.281566 
Q 206.598907 145.336647 363.56325 171.20989 
" clip-path="url(#p8edfabc6ff)" style="fill: none; stroke: #4c4c4c; stroke-linecap: round"/>
    <path d="M 362.476812 170.42271 
L 363.56325 171.20989 
L 362.281644 171.606733 
" clip-path="url(#p8edfabc6ff)" style="fill: none; stroke: #4c4c4c; stroke-linecap: round"/>
   </g>
   <g id="patch_80">
    <path d="M 45.66117 117.0969 
Q 63.788822 138.013422 81.18424 158.085057 
" clip-path="url(#p8edfabc6ff)" style="fill: none; stroke: #4c4c4c; stroke-linecap: round"/>
    <path d="M 80.851736 156.785272 
L 81.18424 158.085057 
L 79.94491 157.571189 
" clip-path="url(#p8edfabc6ff)" style="fill: none; stroke: #4c4c4c; stroke-linecap: round"/>
   </g>
   <g id="patch_81">
    <path d="M 48.500909 112.140075 
Q 206.598116 141.674718 363.596302 171.00405 
" clip-path="url(#p8edfabc6ff)" style="fill: none; stroke: #4c4c4c; stroke-linecap: round"/>
    <path d="M 362.526891 170.19389 
L 363.596302 171.00405 
L 362.306527 171.373483 
" clip-path="url(#p8edfabc6ff)" style="fill: none; stroke: #4c4c4c; stroke-linecap: round"/>
   </g>
   <g id="patch_82">
    <path d="M 48.263749 105.772698 
Q 158.995229 139.843923 268.658115 173.586349 
" clip-path="url(#p8edfabc6ff)" style="fill: none; stroke: #4c4c4c; stroke-linecap: round"/>
    <path d="M 267.687632 172.659979 
L 268.658115 173.586349 
L 267.334729 173.806914 
" clip-path="url(#p8edfabc6ff)" style="fill: none; stroke: #4c4c4c; stroke-linecap: round"/>
   </g>
   <g id="patch_83">
    <path d="M 47.108097 108.156082 
Q 63.789867 119.705 79.552399 130.617522 
" clip-path="url(#p8edfabc6ff)" style="fill: none; stroke: #4c4c4c; stroke-linecap: round"/>
    <path d="M 78.907294 129.441155 
L 79.552399 130.617522 
L 78.224242 130.427786 
" clip-path="url(#p8edfabc6ff)" style="fill: none; stroke: #4c4c4c; stroke-linecap: round"/>
   </g>
   <g id="patch_84">
    <path d="M 48.191112 98.679204 
Q 158.996175 136.182456 268.742218 173.327271 
" clip-path="url(#p8edfabc6ff)" style="fill: none; stroke: #4c4c4c; stroke-linecap: round"/>
    <path d="M 267.797917 172.374226 
L 268.742218 173.327271 
L 267.413201 173.510885 
" clip-path="url(#p8edfabc6ff)" style="fill: none; stroke: #4c4c4c; stroke-linecap: round"/>
   </g>
   <g id="patch_85">
    <path d="M 48.42464 97.849551 
Q 206.598628 134.351241 363.683214 170.60153 
" clip-path="url(#p8edfabc6ff)" style="fill: none; stroke: #4c4c4c; stroke-linecap: round"/>
    <path d="M 362.648861 169.747064 
L 363.683214 170.60153 
L 362.379029 170.916333 
" clip-path="url(#p8edfabc6ff)" style="fill: none; stroke: #4c4c4c; stroke-linecap: round"/>
   </g>
   <g id="patch_86">
    <path d="M 48.111212 91.578558 
Q 158.996894 132.520964 268.833751 173.076111 
" clip-path="url(#p8edfabc6ff)" style="fill: none; stroke: #4c4c4c; stroke-linecap: round"/>
    <path d="M 267.91586 172.097604 
L 268.833751 173.076111 
L 267.500211 173.22332 
" clip-path="url(#p8edfabc6ff)" style="fill: none; stroke: #4c4c4c; stroke-linecap: round"/>
   </g>
   <g id="patch_87">
    <path d="M 48.263023 91.125304 
Q 182.798108 132.520715 316.2646 173.587328 
" clip-path="url(#p8edfabc6ff)" style="fill: none; stroke: #4c4c4c; stroke-linecap: round"/>
    <path d="M 315.294117 172.660957 
L 316.2646 173.587328 
L 314.941214 173.807892 
" clip-path="url(#p8edfabc6ff)" style="fill: none; stroke: #4c4c4c; stroke-linecap: round"/>
   </g>
   <g id="patch_88">
    <path d="M 48.024048 84.470089 
Q 158.993882 128.858023 268.925649 172.83073 
" clip-path="url(#p8edfabc6ff)" style="fill: none; stroke: #4c4c4c; stroke-linecap: round"/>
    <path d="M 268.034311 171.827975 
L 268.925649 172.83073 
L 267.588642 172.942147 
" clip-path="url(#p8edfabc6ff)" style="fill: none; stroke: #4c4c4c; stroke-linecap: round"/>
   </g>
   <g id="patch_89">
    <path d="M 48.338202 83.549529 
Q 206.598901 127.027743 363.78151 170.209778 
" clip-path="url(#p8edfabc6ff)" style="fill: none; stroke: #4c4c4c; stroke-linecap: round"/>
    <path d="M 362.783328 169.313322 
L 363.78151 170.209778 
L 362.465436 170.47045 
" clip-path="url(#p8edfabc6ff)" style="fill: none; stroke: #4c4c4c; stroke-linecap: round"/>
   </g>
   <g id="patch_90">
    <path d="M 46.474703 86.9945 
Q 87.591839 123.367352 127.871572 158.999423 
" clip-path="url(#p8edfabc6ff)" style="fill: none; stroke: #4c4c4c; stroke-linecap: round"/>
    <path d="M 127.37032 157.754936 
L 127.871572 158.999423 
L 126.575231 158.653732 
" clip-path="url(#p8edfabc6ff)" style="fill: none; stroke: #4c4c4c; stroke-linecap: round"/>
   </g>
   <g id="patch_91">
    <path d="M 47.936883 77.356257 
Q 158.994414 125.196424 269.025127 172.59427 
" clip-path="url(#p8edfabc6ff)" style="fill: none; stroke: #4c4c4c; stroke-linecap: round"/>
    <path d="M 268.160407 171.568474 
L 269.025127 172.59427 
L 267.685658 172.670569 
" clip-path="url(#p8edfabc6ff)" style="fill: none; stroke: #4c4c4c; stroke-linecap: round"/>
   </g>
   <g id="patch_92">
    <path d="M 48.287356 76.394405 
Q 206.597614 123.36558 363.836022 170.018734 
" clip-path="url(#p8edfabc6ff)" style="fill: none; stroke: #4c4c4c; stroke-linecap: round"/>
    <path d="M 362.85626 169.102183 
L 363.836022 170.018734 
L 362.514924 170.252613 
" clip-path="url(#p8edfabc6ff)" style="fill: none; stroke: #4c4c4c; stroke-linecap: round"/>
   </g>
   <g id="patch_93">
    <path d="M 44.544015 81.293288 
Q 63.787846 112.379476 82.443194 142.515039 
" clip-path="url(#p8edfabc6ff)" style="fill: none; stroke: #4c4c4c; stroke-linecap: round"/>
    <path d="M 82.321728 141.178908 
L 82.443194 142.515039 
L 81.301409 141.810533 
" clip-path="url(#p8edfabc6ff)" style="fill: none; stroke: #4c4c4c; stroke-linecap: round"/>
   </g>
   <g id="patch_94">
    <path d="M 45.248592 80.812431 
Q 63.789792 105.058616 81.651843 128.416682 
" clip-path="url(#p8edfabc6ff)" style="fill: none; stroke: #4c4c4c; stroke-linecap: round"/>
    <path d="M 81.399517 127.098982 
L 81.651843 128.416682 
L 80.446288 127.827922 
" clip-path="url(#p8edfabc6ff)" style="fill: none; stroke: #4c4c4c; stroke-linecap: round"/>
   </g>
   <g id="patch_95">
    <path d="M 47.849719 70.23706 
Q 158.99498 121.534873 269.125111 172.364164 
" clip-path="url(#p8edfabc6ff)" style="fill: none; stroke: #4c4c4c; stroke-linecap: round"/>
    <path d="M 268.286994 171.316519 
L 269.125111 172.364164 
L 267.784124 172.40607 
" clip-path="url(#p8edfabc6ff)" style="fill: none; stroke: #4c4c4c; stroke-linecap: round"/>
   </g>
   <g id="patch_96">
    <path d="M 48.236511 69.237046 
Q 206.596335 119.703364 363.890911 169.830207 
" clip-path="url(#p8edfabc6ff)" style="fill: none; stroke: #4c4c4c; stroke-linecap: round"/>
    <path d="M 362.929746 168.894171 
L 363.890911 169.830207 
L 362.565383 170.037517 
" clip-path="url(#p8edfabc6ff)" style="fill: none; stroke: #4c4c4c; stroke-linecap: round"/>
   </g>
   <g id="patch_97">
    <path d="M 44.247656 66.822904 
Q 63.788652 101.395434 82.77951 134.994645 
" clip-path="url(#p8edfabc6ff)" style="fill: none; stroke: #4c4c4c; stroke-linecap: round"/>
    <path d="M 82.711379 133.654736 
L 82.77951 134.994645 
L 81.666704 134.245204 
" clip-path="url(#p8edfabc6ff)" style="fill: none; stroke: #4c4c4c; stroke-linecap: round"/>
   </g>
   <g id="patch_98">
    <path d="M 47.849719 62.913475 
Q 158.99498 114.211287 269.125111 165.040579 
" clip-path="url(#p8edfabc6ff)" style="fill: none; stroke: #4c4c4c; stroke-linecap: round"/>
    <path d="M 268.286994 163.992933 
L 269.125111 165.040579 
L 267.784124 165.082484 
" clip-path="url(#p8edfabc6ff)" style="fill: none; stroke: #4c4c4c; stroke-linecap: round"/>
   </g>
   <g id="patch_99">
    <path d="M 47.660863 55.974977 
Q 158.995738 114.211681 269.339926 171.930179 
" clip-path="url(#p8edfabc6ff)" style="fill: none; stroke: #4c4c4c; stroke-linecap: round"/>
    <path d="M 268.554706 170.842323 
L 269.339926 171.930179 
L 267.998509 171.90564 
" clip-path="url(#p8edfabc6ff)" style="fill: none; stroke: #4c4c4c; stroke-linecap: round"/>
   </g>
   <g id="patch_100">
    <path d="M 48.129734 54.91378 
Q 206.598635 112.380524 364.016478 169.466115 
" clip-path="url(#p8edfabc6ff)" style="fill: none; stroke: #4c4c4c; stroke-linecap: round"/>
    <path d="M 363.092912 168.492962 
L 364.016478 169.466115 
L 362.683816 169.621076 
" clip-path="url(#p8edfabc6ff)" style="fill: none; stroke: #4c4c4c; stroke-linecap: round"/>
   </g>
   <g id="patch_101">
    <path d="M 47.559172 48.831195 
Q 158.992427 110.548075 269.447636 171.723268 
" clip-path="url(#p8edfabc6ff)" style="fill: none; stroke: #4c4c4c; stroke-linecap: round"/>
    <path d="M 268.688586 170.616993 
L 269.447636 171.723268 
L 268.107187 171.666743 
" clip-path="url(#p8edfabc6ff)" style="fill: none; stroke: #4c4c4c; stroke-linecap: round"/>
   </g>
   <g id="patch_102">
    <path d="M 48.068719 47.745693 
Q 206.597131 108.718159 364.082031 169.289274 
" clip-path="url(#p8edfabc6ff)" style="fill: none; stroke: #4c4c4c; stroke-linecap: round"/>
    <path d="M 363.177403 168.298492 
L 364.082031 169.289274 
L 362.746628 169.418507 
" clip-path="url(#p8edfabc6ff)" style="fill: none; stroke: #4c4c4c; stroke-linecap: round"/>
   </g>
   <g id="patch_103">
    <path d="M 47.464744 41.685403 
Q 158.996427 106.88854 269.562915 171.52741 
" clip-path="url(#p8edfabc6ff)" style="fill: none; stroke: #4c4c4c; stroke-linecap: round"/>
    <path d="M 268.829776 170.403796 
L 269.562915 171.52741 
L 268.224141 171.439752 
" clip-path="url(#p8edfabc6ff)" style="fill: none; stroke: #4c4c4c; stroke-linecap: round"/>
   </g>
   <g id="patch_104">
    <path d="M 48.007704 40.574924 
Q 206.598119 105.056741 364.152837 169.117451 
" clip-path="url(#p8edfabc6ff)" style="fill: none; stroke: #4c4c4c; stroke-linecap: round"/>
    <path d="M 363.2672 168.109657 
L 364.152837 169.117451 
L 362.81522 169.221284 
" clip-path="url(#p8edfabc6ff)" style="fill: none; stroke: #4c4c4c; stroke-linecap: round"/>
   </g>
   <g id="patch_105">
    <path d="M 44.79098 44.519973 
Q 87.590594 108.719394 129.770035 171.988555 
" clip-path="url(#p8edfabc6ff)" style="fill: none; stroke: #4c4c4c; stroke-linecap: round"/>
    <path d="M 129.603625 170.657275 
L 129.770035 171.988555 
L 128.605165 171.322915 
" clip-path="url(#p8edfabc6ff)" style="fill: none; stroke: #4c4c4c; stroke-linecap: round"/>
   </g>
   <g id="patch_106">
    <path d="M 43.530004 45.21779 
Q 63.788524 90.409873 83.589705 134.581739 
" clip-path="url(#p8edfabc6ff)" style="fill: none; stroke: #4c4c4c; stroke-linecap: round"/>
    <path d="M 83.646344 133.241294 
L 83.589705 134.581739 
L 82.551332 133.732161 
" clip-path="url(#p8edfabc6ff)" style="fill: none; stroke: #4c4c4c; stroke-linecap: round"/>
   </g>
   <g id="patch_107">
    <path d="M 47.363052 34.529329 
Q 158.996722 103.226972 269.678208 171.338656 
" clip-path="url(#p8edfabc6ff)" style="fill: none; stroke: #4c4c4c; stroke-linecap: round"/>
    <path d="M 268.970677 170.198744 
L 269.678208 171.338656 
L 268.34176 171.220734 
" clip-path="url(#p8edfabc6ff)" style="fill: none; stroke: #4c4c4c; stroke-linecap: round"/>
   </g>
   <g id="patch_108">
    <path d="M 47.946689 33.401474 
Q 206.59912 101.395372 364.223914 168.948856 
" clip-path="url(#p8edfabc6ff)" style="fill: none; stroke: #4c4c4c; stroke-linecap: round"/>
    <path d="M 363.357292 167.924666 
L 364.223914 168.948856 
L 362.884589 169.02764 
" clip-path="url(#p8edfabc6ff)" style="fill: none; stroke: #4c4c4c; stroke-linecap: round"/>
   </g>
   <g id="patch_109">
    <path d="M 96.123463 144.982589 
Q 182.796413 159.983677 268.367707 174.794093 
" clip-path="url(#p8edfabc6ff)" style="fill: none; stroke: #4c4c4c; stroke-linecap: round"/>
    <path d="M 267.287611 173.998233 
L 268.367707 174.794093 
L 267.082962 175.180654 
" clip-path="url(#p8edfabc6ff)" style="fill: none; stroke: #4c4c4c; stroke-linecap: round"/>
   </g>
   <g id="patch_110">
    <path d="M 96.18012 137.283359 
Q 230.398132 154.490797 363.507186 171.55606 
" clip-path="url(#p8edfabc6ff)" style="fill: none; stroke: #4c4c4c; stroke-linecap: round"/>
    <path d="M 362.393226 170.808334 
L 363.507186 171.55606 
L 362.240629 171.998592 
" clip-path="url(#p8edfabc6ff)" style="fill: none; stroke: #4c4c4c; stroke-linecap: round"/>
   </g>
   <g id="patch_111">
    <path d="M 96.241135 158.596473 
Q 230.400002 165.476415 363.442302 172.299097 
" clip-path="url(#p8edfabc6ff)" style="fill: none; stroke: #4c4c4c; stroke-linecap: round"/>
    <path d="M 362.274606 171.638426 
L 363.442302 172.299097 
L 362.213148 172.836852 
" clip-path="url(#p8edfabc6ff)" style="fill: none; stroke: #4c4c4c; stroke-linecap: round"/>
   </g>
   <g id="patch_112">
    <path d="M 93.955979 203.541716 
Q 111.392023 187.446905 128.006533 172.110435 
" clip-path="url(#p8edfabc6ff)" style="fill: none; stroke: #4c4c4c; stroke-linecap: round"/>
    <path d="M 126.717801 172.483489 
L 128.006533 172.110435 
L 127.531737 173.365253 
" clip-path="url(#p8edfabc6ff)" style="fill: none; stroke: #4c4c4c; stroke-linecap: round"/>
   </g>
   <g id="patch_113">
    <path d="M 96.251304 179.957024 
Q 182.796773 178.292688 268.224414 176.649848 
" clip-path="url(#p8edfabc6ff)" style="fill: none; stroke: #4c4c4c; stroke-linecap: round"/>
    <path d="M 267.0131 176.073032 
L 268.224414 176.649848 
L 267.036172 177.27281 
" clip-path="url(#p8edfabc6ff)" style="fill: none; stroke: #4c4c4c; stroke-linecap: round"/>
   </g>
   <g id="patch_114">
    <path d="M 96.249851 179.90154 
Q 230.40027 176.461786 363.433023 173.05069 
" clip-path="url(#p8edfabc6ff)" style="fill: none; stroke: #4c4c4c; stroke-linecap: round"/>
    <path d="M 362.218037 172.481646 
L 363.433023 173.05069 
L 362.248796 173.681252 
" clip-path="url(#p8edfabc6ff)" style="fill: none; stroke: #4c4c4c; stroke-linecap: round"/>
   </g>
   <g id="patch_115">
    <path d="M 96.249851 172.8 
Q 230.40027 172.8 363.432655 172.8 
" clip-path="url(#p8edfabc6ff)" style="fill: none; stroke: #4c4c4c; stroke-linecap: round"/>
    <path d="M 362.232655 172.2 
L 363.432655 172.8 
L 362.232655 173.4 
" clip-path="url(#p8edfabc6ff)" style="fill: none; stroke: #4c4c4c; stroke-linecap: round"/>
   </g>
   <g id="patch_116">
    <path d="M 94.967084 155.368937 
Q 111.39127 165.476128 126.863273 174.997361 
" clip-path="url(#p8edfabc6ff)" style="fill: none; stroke: #4c4c4c; stroke-linecap: round"/>
    <path d="M 126.155742 173.857449 
L 126.863273 174.997361 
L 125.526825 174.879439 
" clip-path="url(#p8edfabc6ff)" style="fill: none; stroke: #4c4c4c; stroke-linecap: round"/>
   </g>
   <g id="patch_117">
    <path d="M 95.455204 191.1407 
Q 111.393893 183.784383 126.317452 176.896586 
" clip-path="url(#p8edfabc6ff)" style="fill: none; stroke: #4c4c4c; stroke-linecap: round"/>
    <path d="M 124.976466 176.85468 
L 126.317452 176.896586 
L 125.479336 177.944231 
" clip-path="url(#p8edfabc6ff)" style="fill: none; stroke: #4c4c4c; stroke-linecap: round"/>
   </g>
   <g id="patch_118">
    <path d="M 95.455204 183.817115 
Q 111.393893 176.460797 126.317452 169.573 
" clip-path="url(#p8edfabc6ff)" style="fill: none; stroke: #4c4c4c; stroke-linecap: round"/>
    <path d="M 124.976466 169.531095 
L 126.317452 169.573 
L 125.479336 170.620646 
" clip-path="url(#p8edfabc6ff)" style="fill: none; stroke: #4c4c4c; stroke-linecap: round"/>
   </g>
   <g id="patch_119">
    <path d="M 96.233871 165.975095 
Q 182.795962 170.969061 268.241874 175.898633 
" clip-path="url(#p8edfabc6ff)" style="fill: none; stroke: #4c4c4c; stroke-linecap: round"/>
    <path d="M 267.078424 175.230513 
L 268.241874 175.898633 
L 267.009309 176.428521 
" clip-path="url(#p8edfabc6ff)" style="fill: none; stroke: #4c4c4c; stroke-linecap: round"/>
   </g>
   <g id="patch_120">
    <path d="M 94.455721 196.813082 
Q 111.392038 183.785146 127.442175 171.438886 
" clip-path="url(#p8edfabc6ff)" style="fill: none; stroke: #4c4c4c; stroke-linecap: round"/>
    <path d="M 126.1252 171.694965 
L 127.442175 171.438886 
L 126.856853 172.646114 
" clip-path="url(#p8edfabc6ff)" style="fill: none; stroke: #4c4c4c; stroke-linecap: round"/>
   </g>
   <g id="patch_121">
    <path d="M 143.827008 166.140539 
Q 206.597258 170.96902 268.252767 175.711751 
" clip-path="url(#p8edfabc6ff)" style="fill: none; stroke: #4c4c4c; stroke-linecap: round"/>
    <path d="M 267.10232 175.021483 
L 268.252767 175.711751 
L 267.010284 176.217948 
" clip-path="url(#p8edfabc6ff)" style="fill: none; stroke: #4c4c4c; stroke-linecap: round"/>
   </g>
   <g id="patch_122">
    <path d="M 143.848073 165.742712 
Q 254.201512 169.138203 363.437446 172.499309 
" clip-path="url(#p8edfabc6ff)" style="fill: none; stroke: #4c4c4c; stroke-linecap: round"/>
    <path d="M 362.256467 171.862687 
L 363.437446 172.499309 
L 362.219561 173.062119 
" clip-path="url(#p8edfabc6ff)" style="fill: none; stroke: #4c4c4c; stroke-linecap: round"/>
   </g>
   <g id="patch_123">
    <path d="M 143.755824 178.806288 
Q 158.99425 176.461915 173.127642 174.287546 
" clip-path="url(#p8edfabc6ff)" style="fill: none; stroke: #4c4c4c; stroke-linecap: round"/>
    <path d="M 171.850362 173.876992 
L 173.127642 174.287546 
L 172.03283 175.063038 
" clip-path="url(#p8edfabc6ff)" style="fill: none; stroke: #4c4c4c; stroke-linecap: round"/>
   </g>
   <g id="patch_124">
    <path d="M 143.85461 180.123586 
Q 158.997433 180.123586 173.022223 180.123586 
" clip-path="url(#p8edfabc6ff)" style="fill: none; stroke: #4c4c4c; stroke-linecap: round"/>
    <path d="M 171.822223 179.523586 
L 173.022223 180.123586 
L 171.822223 180.723586 
" clip-path="url(#p8edfabc6ff)" style="fill: none; stroke: #4c4c4c; stroke-linecap: round"/>
   </g>
   <g id="patch_125">
    <path d="M 143.755824 171.482702 
Q 158.99425 169.138329 173.127642 166.963961 
" clip-path="url(#p8edfabc6ff)" style="fill: none; stroke: #4c4c4c; stroke-linecap: round"/>
    <path d="M 171.850362 166.553407 
L 173.127642 166.963961 
L 172.03283 167.739453 
" clip-path="url(#p8edfabc6ff)" style="fill: none; stroke: #4c4c4c; stroke-linecap: round"/>
   </g>
   <g id="patch_126">
    <path d="M 191.452105 179.790685 
Q 230.399881 178.292694 268.230449 176.837672 
" clip-path="url(#p8edfabc6ff)" style="fill: none; stroke: #4c4c4c; stroke-linecap: round"/>
    <path d="M 267.008276 176.284235 
L 268.230449 176.837672 
L 267.054396 177.483348 
" clip-path="url(#p8edfabc6ff)" style="fill: none; stroke: #4c4c4c; stroke-linecap: round"/>
   </g>
   <g id="patch_127">
    <path d="M 191.452105 172.4671 
Q 230.399881 170.969108 268.230449 169.514086 
" clip-path="url(#p8edfabc6ff)" style="fill: none; stroke: #4c4c4c; stroke-linecap: round"/>
    <path d="M 267.008276 168.960649 
L 268.230449 169.514086 
L 267.054396 170.159763 
" clip-path="url(#p8edfabc6ff)" style="fill: none; stroke: #4c4c4c; stroke-linecap: round"/>
   </g>
   <g id="patch_128">
    <path d="M 191.457916 172.8 
Q 206.600739 172.8 220.625529 172.8 
" clip-path="url(#p8edfabc6ff)" style="fill: none; stroke: #4c4c4c; stroke-linecap: round"/>
    <path d="M 219.425529 172.2 
L 220.625529 172.8 
L 219.425529 173.4 
" clip-path="url(#p8edfabc6ff)" style="fill: none; stroke: #4c4c4c; stroke-linecap: round"/>
   </g>
   <g id="patch_129">
    <path d="M 191.399806 166.469081 
Q 230.400189 170.969125 268.289907 175.341016 
" clip-path="url(#p8edfabc6ff)" style="fill: none; stroke: #4c4c4c; stroke-linecap: round"/>
    <path d="M 267.16659 174.607422 
L 268.289907 175.341016 
L 267.029042 175.799512 
" clip-path="url(#p8edfabc6ff)" style="fill: none; stroke: #4c4c4c; stroke-linecap: round"/>
   </g>
   <g id="patch_130">
    <path d="M 191.452105 165.809315 
Q 278.003114 169.1382 363.436915 172.424115 
" clip-path="url(#p8edfabc6ff)" style="fill: none; stroke: #4c4c4c; stroke-linecap: round"/>
    <path d="M 362.260862 171.778439 
L 363.436915 172.424115 
L 362.214742 172.977552 
" clip-path="url(#p8edfabc6ff)" style="fill: none; stroke: #4c4c4c; stroke-linecap: round"/>
   </g>
   <g id="patch_131">
    <path d="M 239.032167 173.464013 
Q 254.20056 174.630812 268.254212 175.711862 
" clip-path="url(#p8edfabc6ff)" style="fill: none; stroke: #4c4c4c; stroke-linecap: round"/>
    <path d="M 267.103765 175.021594 
L 268.254212 175.711862 
L 267.011729 176.218059 
" clip-path="url(#p8edfabc6ff)" style="fill: none; stroke: #4c4c4c; stroke-linecap: round"/>
   </g>
   <g id="patch_132">
    <path d="M 239.032167 172.135987 
Q 254.20056 170.969188 268.254212 169.888138 
" clip-path="url(#p8edfabc6ff)" style="fill: none; stroke: #4c4c4c; stroke-linecap: round"/>
    <path d="M 267.011729 169.381941 
L 268.254212 169.888138 
L 267.103765 170.578406 
" clip-path="url(#p8edfabc6ff)" style="fill: none; stroke: #4c4c4c; stroke-linecap: round"/>
   </g>
   <g id="patch_133">
    <path d="M 286.663075 176.239747 
Q 349.40881 174.630882 411.036878 173.050676 
" clip-path="url(#p8edfabc6ff)" style="fill: none; stroke: #4c4c4c; stroke-linecap: round"/>
    <path d="M 409.821893 172.481632 
L 411.036878 173.050676 
L 409.852652 173.681237 
" clip-path="url(#p8edfabc6ff)" style="fill: none; stroke: #4c4c4c; stroke-linecap: round"/>
   </g>
   <g id="patch_134">
    <path d="M 286.664527 176.461793 
Q 301.807351 176.461793 315.83214 176.461793 
" clip-path="url(#p8edfabc6ff)" style="fill: none; stroke: #4c4c4c; stroke-linecap: round"/>
    <path d="M 314.63214 175.861793 
L 315.83214 176.461793 
L 314.63214 177.061793 
" clip-path="url(#p8edfabc6ff)" style="fill: none; stroke: #4c4c4c; stroke-linecap: round"/>
   </g>
   <g id="patch_135">
    <path d="M 286.664527 169.138207 
Q 301.807351 169.138207 315.83214 169.138207 
" clip-path="url(#p8edfabc6ff)" style="fill: none; stroke: #4c4c4c; stroke-linecap: round"/>
    <path d="M 314.63214 168.538207 
L 315.83214 169.138207 
L 314.63214 169.738207 
" clip-path="url(#p8edfabc6ff)" style="fill: none; stroke: #4c4c4c; stroke-linecap: round"/>
   </g>
   <g id="patch_136">
    <path d="M 334.238778 175.79778 
Q 349.407172 174.63098 363.460824 173.54993 
" clip-path="url(#p8edfabc6ff)" style="fill: none; stroke: #4c4c4c; stroke-linecap: round"/>
    <path d="M 362.218341 173.043733 
L 363.460824 173.54993 
L 362.310376 174.240199 
" clip-path="url(#p8edfabc6ff)" style="fill: none; stroke: #4c4c4c; stroke-linecap: round"/>
   </g>
   <g id="patch_137">
    <path d="M 334.238778 169.80222 
Q 349.407172 170.96902 363.460824 172.05007 
" clip-path="url(#p8edfabc6ff)" style="fill: none; stroke: #4c4c4c; stroke-linecap: round"/>
    <path d="M 362.310376 171.359801 
L 363.460824 172.05007 
L 362.218341 172.556267 
" clip-path="url(#p8edfabc6ff)" style="fill: none; stroke: #4c4c4c; stroke-linecap: round"/>
   </g>
   <g id="patch_138">
    <path d="M 381.871139 172.8 
Q 397.013962 172.8 411.038752 172.8 
" clip-path="url(#p8edfabc6ff)" style="fill: none; stroke: #4c4c4c; stroke-linecap: round"/>
    <path d="M 409.838752 172.2 
L 411.038752 172.8 
L 409.838752 173.4 
" clip-path="url(#p8edfabc6ff)" style="fill: none; stroke: #4c4c4c; stroke-linecap: round"/>
   </g>
   <g id="PathCollection_1">
    <path d="M 39.986777 324.270171 
C 42.283503 324.270171 44.486471 323.357672 46.110501 321.733642 
C 47.734532 320.109611 48.647031 317.906644 48.647031 315.609917 
C 48.647031 313.313191 47.734532 311.110224 46.110501 309.486193 
C 44.486471 307.862162 42.283503 306.949663 39.986777 306.949663 
C 37.690051 306.949663 35.487083 307.862162 33.863053 309.486193 
C 32.239022 311.110224 31.326523 313.313191 31.326523 315.609917 
C 31.326523 317.906644 32.239022 320.109611 33.863053 321.733642 
C 35.487083 323.357672 37.690051 324.270171 39.986777 324.270171 
z
" clip-path="url(#p8edfabc6ff)" style="fill: #ffff00; stroke: #000000"/>
    <path d="M 39.986777 316.946586 
C 42.283503 316.946586 44.486471 316.034087 46.110501 314.410056 
C 47.734532 312.786026 48.647031 310.583058 48.647031 308.286332 
C 48.647031 305.989606 47.734532 303.786638 46.110501 302.162607 
C 44.486471 300.538577 42.283503 299.626078 39.986777 299.626078 
C 37.690051 299.626078 35.487083 300.538577 33.863053 302.162607 
C 32.239022 303.786638 31.326523 305.989606 31.326523 308.286332 
C 31.326523 310.583058 32.239022 312.786026 33.863053 314.410056 
C 35.487083 316.034087 37.690051 316.946586 39.986777 316.946586 
z
" clip-path="url(#p8edfabc6ff)" style="fill: #ffff00; stroke: #000000"/>
    <path d="M 39.986777 309.623 
C 42.283503 309.623 44.486471 308.710501 46.110501 307.086471 
C 47.734532 305.46244 48.647031 303.259473 48.647031 300.962746 
C 48.647031 298.66602 47.734532 296.463053 46.110501 294.839022 
C 44.486471 293.214991 42.283503 292.302492 39.986777 292.302492 
C 37.690051 292.302492 35.487083 293.214991 33.863053 294.839022 
C 32.239022 296.463053 31.326523 298.66602 31.326523 300.962746 
C 31.326523 303.259473 32.239022 305.46244 33.863053 307.086471 
C 35.487083 308.710501 37.690051 309.623 39.986777 309.623 
z
" clip-path="url(#p8edfabc6ff)" style="fill: #ffff00; stroke: #000000"/>
    <path d="M 39.986777 302.299415 
C 42.283503 302.299415 44.486471 301.386916 46.110501 299.762885 
C 47.734532 298.138855 48.647031 295.935887 48.647031 293.639161 
C 48.647031 291.342435 47.734532 289.139467 46.110501 287.515436 
C 44.486471 285.891406 42.283503 284.978907 39.986777 284.978907 
C 37.690051 284.978907 35.487083 285.891406 33.863053 287.515436 
C 32.239022 289.139467 31.326523 291.342435 31.326523 293.639161 
C 31.326523 295.935887 32.239022 298.138855 33.863053 299.762885 
C 35.487083 301.386916 37.690051 302.299415 39.986777 302.299415 
z
" clip-path="url(#p8edfabc6ff)" style="fill: #ffff00; stroke: #000000"/>
    <path d="M 39.986777 294.975829 
C 42.283503 294.975829 44.486471 294.06333 46.110501 292.4393 
C 47.734532 290.815269 48.647031 288.612302 48.647031 286.315575 
C 48.647031 284.018849 47.734532 281.815882 46.110501 280.191851 
C 44.486471 278.56782 42.283503 277.655321 39.986777 277.655321 
C 37.690051 277.655321 35.487083 278.56782 33.863053 280.191851 
C 32.239022 281.815882 31.326523 284.018849 31.326523 286.315575 
C 31.326523 288.612302 32.239022 290.815269 33.863053 292.4393 
C 35.487083 294.06333 37.690051 294.975829 39.986777 294.975829 
z
" clip-path="url(#p8edfabc6ff)" style="fill: #ffff00; stroke: #000000"/>
    <path d="M 39.986777 287.652244 
C 42.283503 287.652244 44.486471 286.739745 46.110501 285.115714 
C 47.734532 283.491684 48.647031 281.288716 48.647031 278.99199 
C 48.647031 276.695264 47.734532 274.492296 46.110501 272.868265 
C 44.486471 271.244235 42.283503 270.331736 39.986777 270.331736 
C 37.690051 270.331736 35.487083 271.244235 33.863053 272.868265 
C 32.239022 274.492296 31.326523 276.695264 31.326523 278.99199 
C 31.326523 281.288716 32.239022 283.491684 33.863053 285.115714 
C 35.487083 286.739745 37.690051 287.652244 39.986777 287.652244 
z
" clip-path="url(#p8edfabc6ff)" style="fill: #ffff00; stroke: #000000"/>
    <path d="M 39.986777 280.328658 
C 42.283503 280.328658 44.486471 279.416159 46.110501 277.792129 
C 47.734532 276.168098 48.647031 273.965131 48.647031 271.668404 
C 48.647031 269.371678 47.734532 267.168711 46.110501 265.54468 
C 44.486471 263.920649 42.283503 263.00815 39.986777 263.00815 
C 37.690051 263.00815 35.487083 263.920649 33.863053 265.54468 
C 32.239022 267.168711 31.326523 269.371678 31.326523 271.668404 
C 31.326523 273.965131 32.239022 276.168098 33.863053 277.792129 
C 35.487083 279.416159 37.690051 280.328658 39.986777 280.328658 
z
" clip-path="url(#p8edfabc6ff)" style="fill: #ffff00; stroke: #000000"/>
    <path d="M 39.986777 273.005073 
C 42.283503 273.005073 44.486471 272.092574 46.110501 270.468543 
C 47.734532 268.844512 48.647031 266.641545 48.647031 264.344819 
C 48.647031 262.048093 47.734532 259.845125 46.110501 258.221094 
C 44.486471 256.597064 42.283503 255.684565 39.986777 255.684565 
C 37.690051 255.684565 35.487083 256.597064 33.863053 258.221094 
C 32.239022 259.845125 31.326523 262.048093 31.326523 264.344819 
C 31.326523 266.641545 32.239022 268.844512 33.863053 270.468543 
C 35.487083 272.092574 37.690051 273.005073 39.986777 273.005073 
z
" clip-path="url(#p8edfabc6ff)" style="fill: #ffff00; stroke: #000000"/>
    <path d="M 39.986777 265.681487 
C 42.283503 265.681487 44.486471 264.768988 46.110501 263.144958 
C 47.734532 261.520927 48.647031 259.31796 48.647031 257.021233 
C 48.647031 254.724507 47.734532 252.52154 46.110501 250.897509 
C 44.486471 249.273478 42.283503 248.360979 39.986777 248.360979 
C 37.690051 248.360979 35.487083 249.273478 33.863053 250.897509 
C 32.239022 252.52154 31.326523 254.724507 31.326523 257.021233 
C 31.326523 259.31796 32.239022 261.520927 33.863053 263.144958 
C 35.487083 264.768988 37.690051 265.681487 39.986777 265.681487 
z
" clip-path="url(#p8edfabc6ff)" style="fill: #ffff00; stroke: #000000"/>
    <path d="M 39.986777 258.357902 
C 42.283503 258.357902 44.486471 257.445403 46.110501 255.821372 
C 47.734532 254.197341 48.647031 251.994374 48.647031 249.697648 
C 48.647031 247.400922 47.734532 245.197954 46.110501 243.573923 
C 44.486471 241.949893 42.283503 241.037394 39.986777 241.037394 
C 37.690051 241.037394 35.487083 241.949893 33.863053 243.573923 
C 32.239022 245.197954 31.326523 247.400922 31.326523 249.697648 
C 31.326523 251.994374 32.239022 254.197341 33.863053 255.821372 
C 35.487083 257.445403 37.690051 258.357902 39.986777 258.357902 
z
" clip-path="url(#p8edfabc6ff)" style="fill: #ffff00; stroke: #000000"/>
    <path d="M 39.986777 251.034316 
C 42.283503 251.034316 44.486471 250.121817 46.110501 248.497787 
C 47.734532 246.873756 48.647031 244.670789 48.647031 242.374062 
C 48.647031 240.077336 47.734532 237.874369 46.110501 236.250338 
C 44.486471 234.626307 42.283503 233.713808 39.986777 233.713808 
C 37.690051 233.713808 35.487083 234.626307 33.863053 236.250338 
C 32.239022 237.874369 31.326523 240.077336 31.326523 242.374062 
C 31.326523 244.670789 32.239022 246.873756 33.863053 248.497787 
C 35.487083 250.121817 37.690051 251.034316 39.986777 251.034316 
z
" clip-path="url(#p8edfabc6ff)" style="fill: #ffff00; stroke: #000000"/>
    <path d="M 39.986777 243.710731 
C 42.283503 243.710731 44.486471 242.798232 46.110501 241.174201 
C 47.734532 239.55017 48.647031 237.347203 48.647031 235.050477 
C 48.647031 232.753751 47.734532 230.550783 46.110501 228.926752 
C 44.486471 227.302722 42.283503 226.390223 39.986777 226.390223 
C 37.690051 226.390223 35.487083 227.302722 33.863053 228.926752 
C 32.239022 230.550783 31.326523 232.753751 31.326523 235.050477 
C 31.326523 237.347203 32.239022 239.55017 33.863053 241.174201 
C 35.487083 242.798232 37.690051 243.710731 39.986777 243.710731 
z
" clip-path="url(#p8edfabc6ff)" style="fill: #ffff00; stroke: #000000"/>
    <path d="M 39.986777 236.387145 
C 42.283503 236.387145 44.486471 235.474646 46.110501 233.850616 
C 47.734532 232.226585 48.647031 230.023618 48.647031 227.726891 
C 48.647031 225.430165 47.734532 223.227198 46.110501 221.603167 
C 44.486471 219.979136 42.283503 219.066637 39.986777 219.066637 
C 37.690051 219.066637 35.487083 219.979136 33.863053 221.603167 
C 32.239022 223.227198 31.326523 225.430165 31.326523 227.726891 
C 31.326523 230.023618 32.239022 232.226585 33.863053 233.850616 
C 35.487083 235.474646 37.690051 236.387145 39.986777 236.387145 
z
" clip-path="url(#p8edfabc6ff)" style="fill: #ffff00; stroke: #000000"/>
    <path d="M 39.986777 229.06356 
C 42.283503 229.06356 44.486471 228.151061 46.110501 226.52703 
C 47.734532 224.902999 48.647031 222.700032 48.647031 220.403306 
C 48.647031 218.10658 47.734532 215.903612 46.110501 214.279581 
C 44.486471 212.655551 42.283503 211.743052 39.986777 211.743052 
C 37.690051 211.743052 35.487083 212.655551 33.863053 214.279581 
C 32.239022 215.903612 31.326523 218.10658 31.326523 220.403306 
C 31.326523 222.700032 32.239022 224.902999 33.863053 226.52703 
C 35.487083 228.151061 37.690051 229.06356 39.986777 229.06356 
z
" clip-path="url(#p8edfabc6ff)" style="fill: #ffff00; stroke: #000000"/>
    <path d="M 39.986777 221.739974 
C 42.283503 221.739974 44.486471 220.827475 46.110501 219.203445 
C 47.734532 217.579414 48.647031 215.376446 48.647031 213.07972 
C 48.647031 210.782994 47.734532 208.580027 46.110501 206.955996 
C 44.486471 205.331965 42.283503 204.419466 39.986777 204.419466 
C 37.690051 204.419466 35.487083 205.331965 33.863053 206.955996 
C 32.239022 208.580027 31.326523 210.782994 31.326523 213.07972 
C 31.326523 215.376446 32.239022 217.579414 33.863053 219.203445 
C 35.487083 220.827475 37.690051 221.739974 39.986777 221.739974 
z
" clip-path="url(#p8edfabc6ff)" style="fill: #ffff00; stroke: #000000"/>
    <path d="M 39.986777 214.416389 
C 42.283503 214.416389 44.486471 213.50389 46.110501 211.879859 
C 47.734532 210.255828 48.647031 208.052861 48.647031 205.756135 
C 48.647031 203.459409 47.734532 201.256441 46.110501 199.63241 
C 44.486471 198.00838 42.283503 197.095881 39.986777 197.095881 
C 37.690051 197.095881 35.487083 198.00838 33.863053 199.63241 
C 32.239022 201.256441 31.326523 203.459409 31.326523 205.756135 
C 31.326523 208.052861 32.239022 210.255828 33.863053 211.879859 
C 35.487083 213.50389 37.690051 214.416389 39.986777 214.416389 
z
" clip-path="url(#p8edfabc6ff)" style="fill: #ffff00; stroke: #000000"/>
    <path d="M 39.986777 207.092803 
C 42.283503 207.092803 44.486471 206.180304 46.110501 204.556274 
C 47.734532 202.932243 48.647031 200.729275 48.647031 198.432549 
C 48.647031 196.135823 47.734532 193.932856 46.110501 192.308825 
C 44.486471 190.684794 42.283503 189.772295 39.986777 189.772295 
C 37.690051 189.772295 35.487083 190.684794 33.863053 192.308825 
C 32.239022 193.932856 31.326523 196.135823 31.326523 198.432549 
C 31.326523 200.729275 32.239022 202.932243 33.863053 204.556274 
C 35.487083 206.180304 37.690051 207.092803 39.986777 207.092803 
z
" clip-path="url(#p8edfabc6ff)" style="fill: #ffff00; stroke: #000000"/>
    <path d="M 39.986777 199.769218 
C 42.283503 199.769218 44.486471 198.856719 46.110501 197.232688 
C 47.734532 195.608657 48.647031 193.40569 48.647031 191.108964 
C 48.647031 188.812238 47.734532 186.60927 46.110501 184.985239 
C 44.486471 183.361209 42.283503 182.44871 39.986777 182.44871 
C 37.690051 182.44871 35.487083 183.361209 33.863053 184.985239 
C 32.239022 186.60927 31.326523 188.812238 31.326523 191.108964 
C 31.326523 193.40569 32.239022 195.608657 33.863053 197.232688 
C 35.487083 198.856719 37.690051 199.769218 39.986777 199.769218 
z
" clip-path="url(#p8edfabc6ff)" style="fill: #ffff00; stroke: #000000"/>
    <path d="M 39.986777 192.445632 
C 42.283503 192.445632 44.486471 191.533133 46.110501 189.909103 
C 47.734532 188.285072 48.647031 186.082104 48.647031 183.785378 
C 48.647031 181.488652 47.734532 179.285685 46.110501 177.661654 
C 44.486471 176.037623 42.283503 175.125124 39.986777 175.125124 
C 37.690051 175.125124 35.487083 176.037623 33.863053 177.661654 
C 32.239022 179.285685 31.326523 181.488652 31.326523 183.785378 
C 31.326523 186.082104 32.239022 188.285072 33.863053 189.909103 
C 35.487083 191.533133 37.690051 192.445632 39.986777 192.445632 
z
" clip-path="url(#p8edfabc6ff)" style="fill: #ffff00; stroke: #000000"/>
    <path d="M 39.986777 185.122047 
C 42.283503 185.122047 44.486471 184.209548 46.110501 182.585517 
C 47.734532 180.961486 48.647031 178.758519 48.647031 176.461793 
C 48.647031 174.165067 47.734532 171.962099 46.110501 170.338068 
C 44.486471 168.714038 42.283503 167.801539 39.986777 167.801539 
C 37.690051 167.801539 35.487083 168.714038 33.863053 170.338068 
C 32.239022 171.962099 31.326523 174.165067 31.326523 176.461793 
C 31.326523 178.758519 32.239022 180.961486 33.863053 182.585517 
C 35.487083 184.209548 37.690051 185.122047 39.986777 185.122047 
z
" clip-path="url(#p8edfabc6ff)" style="fill: #ffff00; stroke: #000000"/>
    <path d="M 39.986777 177.798461 
C 42.283503 177.798461 44.486471 176.885962 46.110501 175.261932 
C 47.734532 173.637901 48.647031 171.434933 48.647031 169.138207 
C 48.647031 166.841481 47.734532 164.638514 46.110501 163.014483 
C 44.486471 161.390452 42.283503 160.477953 39.986777 160.477953 
C 37.690051 160.477953 35.487083 161.390452 33.863053 163.014483 
C 32.239022 164.638514 31.326523 166.841481 31.326523 169.138207 
C 31.326523 171.434933 32.239022 173.637901 33.863053 175.261932 
C 35.487083 176.885962 37.690051 177.798461 39.986777 177.798461 
z
" clip-path="url(#p8edfabc6ff)" style="fill: #ffff00; stroke: #000000"/>
    <path d="M 39.986777 170.474876 
C 42.283503 170.474876 44.486471 169.562377 46.110501 167.938346 
C 47.734532 166.314315 48.647031 164.111348 48.647031 161.814622 
C 48.647031 159.517896 47.734532 157.314928 46.110501 155.690897 
C 44.486471 154.066867 42.283503 153.154368 39.986777 153.154368 
C 37.690051 153.154368 35.487083 154.066867 33.863053 155.690897 
C 32.239022 157.314928 31.326523 159.517896 31.326523 161.814622 
C 31.326523 164.111348 32.239022 166.314315 33.863053 167.938346 
C 35.487083 169.562377 37.690051 170.474876 39.986777 170.474876 
z
" clip-path="url(#p8edfabc6ff)" style="fill: #ffff00; stroke: #000000"/>
    <path d="M 39.986777 163.15129 
C 42.283503 163.15129 44.486471 162.238791 46.110501 160.614761 
C 47.734532 158.99073 48.647031 156.787762 48.647031 154.491036 
C 48.647031 152.19431 47.734532 149.991343 46.110501 148.367312 
C 44.486471 146.743281 42.283503 145.830782 39.986777 145.830782 
C 37.690051 145.830782 35.487083 146.743281 33.863053 148.367312 
C 32.239022 149.991343 31.326523 152.19431 31.326523 154.491036 
C 31.326523 156.787762 32.239022 158.99073 33.863053 160.614761 
C 35.487083 162.238791 37.690051 163.15129 39.986777 163.15129 
z
" clip-path="url(#p8edfabc6ff)" style="fill: #ffff00; stroke: #000000"/>
    <path d="M 39.986777 155.827705 
C 42.283503 155.827705 44.486471 154.915206 46.110501 153.291175 
C 47.734532 151.667144 48.647031 149.464177 48.647031 147.167451 
C 48.647031 144.870725 47.734532 142.667757 46.110501 141.043726 
C 44.486471 139.419696 42.283503 138.507197 39.986777 138.507197 
C 37.690051 138.507197 35.487083 139.419696 33.863053 141.043726 
C 32.239022 142.667757 31.326523 144.870725 31.326523 147.167451 
C 31.326523 149.464177 32.239022 151.667144 33.863053 153.291175 
C 35.487083 154.915206 37.690051 155.827705 39.986777 155.827705 
z
" clip-path="url(#p8edfabc6ff)" style="fill: #ffff00; stroke: #000000"/>
    <path d="M 39.986777 148.504119 
C 42.283503 148.504119 44.486471 147.59162 46.110501 145.96759 
C 47.734532 144.343559 48.647031 142.140591 48.647031 139.843865 
C 48.647031 137.547139 47.734532 135.344172 46.110501 133.720141 
C 44.486471 132.09611 42.283503 131.183611 39.986777 131.183611 
C 37.690051 131.183611 35.487083 132.09611 33.863053 133.720141 
C 32.239022 135.344172 31.326523 137.547139 31.326523 139.843865 
C 31.326523 142.140591 32.239022 144.343559 33.863053 145.96759 
C 35.487083 147.59162 37.690051 148.504119 39.986777 148.504119 
z
" clip-path="url(#p8edfabc6ff)" style="fill: #ffff00; stroke: #000000"/>
    <path d="M 39.986777 141.180534 
C 42.283503 141.180534 44.486471 140.268035 46.110501 138.644004 
C 47.734532 137.019973 48.647031 134.817006 48.647031 132.52028 
C 48.647031 130.223554 47.734532 128.020586 46.110501 126.396555 
C 44.486471 124.772525 42.283503 123.860026 39.986777 123.860026 
C 37.690051 123.860026 35.487083 124.772525 33.863053 126.396555 
C 32.239022 128.020586 31.326523 130.223554 31.326523 132.52028 
C 31.326523 134.817006 32.239022 137.019973 33.863053 138.644004 
C 35.487083 140.268035 37.690051 141.180534 39.986777 141.180534 
z
" clip-path="url(#p8edfabc6ff)" style="fill: #ffff00; stroke: #000000"/>
    <path d="M 39.986777 133.856948 
C 42.283503 133.856948 44.486471 132.944449 46.110501 131.320419 
C 47.734532 129.696388 48.647031 127.49342 48.647031 125.196694 
C 48.647031 122.899968 47.734532 120.697001 46.110501 119.07297 
C 44.486471 117.448939 42.283503 116.53644 39.986777 116.53644 
C 37.690051 116.53644 35.487083 117.448939 33.863053 119.07297 
C 32.239022 120.697001 31.326523 122.899968 31.326523 125.196694 
C 31.326523 127.49342 32.239022 129.696388 33.863053 131.320419 
C 35.487083 132.944449 37.690051 133.856948 39.986777 133.856948 
z
" clip-path="url(#p8edfabc6ff)" style="fill: #ffff00; stroke: #000000"/>
    <path d="M 39.986777 126.533363 
C 42.283503 126.533363 44.486471 125.620864 46.110501 123.996833 
C 47.734532 122.372802 48.647031 120.169835 48.647031 117.873109 
C 48.647031 115.576382 47.734532 113.373415 46.110501 111.749384 
C 44.486471 110.125354 42.283503 109.212855 39.986777 109.212855 
C 37.690051 109.212855 35.487083 110.125354 33.863053 111.749384 
C 32.239022 113.373415 31.326523 115.576382 31.326523 117.873109 
C 31.326523 120.169835 32.239022 122.372802 33.863053 123.996833 
C 35.487083 125.620864 37.690051 126.533363 39.986777 126.533363 
z
" clip-path="url(#p8edfabc6ff)" style="fill: #ffff00; stroke: #000000"/>
    <path d="M 39.986777 119.209777 
C 42.283503 119.209777 44.486471 118.297278 46.110501 116.673248 
C 47.734532 115.049217 48.647031 112.846249 48.647031 110.549523 
C 48.647031 108.252797 47.734532 106.04983 46.110501 104.425799 
C 44.486471 102.801768 42.283503 101.889269 39.986777 101.889269 
C 37.690051 101.889269 35.487083 102.801768 33.863053 104.425799 
C 32.239022 106.04983 31.326523 108.252797 31.326523 110.549523 
C 31.326523 112.846249 32.239022 115.049217 33.863053 116.673248 
C 35.487083 118.297278 37.690051 119.209777 39.986777 119.209777 
z
" clip-path="url(#p8edfabc6ff)" style="fill: #ffff00; stroke: #000000"/>
    <path d="M 39.986777 111.886192 
C 42.283503 111.886192 44.486471 110.973693 46.110501 109.349662 
C 47.734532 107.725631 48.647031 105.522664 48.647031 103.225938 
C 48.647031 100.929211 47.734532 98.726244 46.110501 97.102213 
C 44.486471 95.478183 42.283503 94.565684 39.986777 94.565684 
C 37.690051 94.565684 35.487083 95.478183 33.863053 97.102213 
C 32.239022 98.726244 31.326523 100.929211 31.326523 103.225938 
C 31.326523 105.522664 32.239022 107.725631 33.863053 109.349662 
C 35.487083 110.973693 37.690051 111.886192 39.986777 111.886192 
z
" clip-path="url(#p8edfabc6ff)" style="fill: #ffff00; stroke: #000000"/>
    <path d="M 39.986777 104.562606 
C 42.283503 104.562606 44.486471 103.650107 46.110501 102.026077 
C 47.734532 100.402046 48.647031 98.199078 48.647031 95.902352 
C 48.647031 93.605626 47.734532 91.402659 46.110501 89.778628 
C 44.486471 88.154597 42.283503 87.242098 39.986777 87.242098 
C 37.690051 87.242098 35.487083 88.154597 33.863053 89.778628 
C 32.239022 91.402659 31.326523 93.605626 31.326523 95.902352 
C 31.326523 98.199078 32.239022 100.402046 33.863053 102.026077 
C 35.487083 103.650107 37.690051 104.562606 39.986777 104.562606 
z
" clip-path="url(#p8edfabc6ff)" style="fill: #ffff00; stroke: #000000"/>
    <path d="M 39.986777 97.239021 
C 42.283503 97.239021 44.486471 96.326522 46.110501 94.702491 
C 47.734532 93.07846 48.647031 90.875493 48.647031 88.578767 
C 48.647031 86.28204 47.734532 84.079073 46.110501 82.455042 
C 44.486471 80.831012 42.283503 79.918513 39.986777 79.918513 
C 37.690051 79.918513 35.487083 80.831012 33.863053 82.455042 
C 32.239022 84.079073 31.326523 86.28204 31.326523 88.578767 
C 31.326523 90.875493 32.239022 93.07846 33.863053 94.702491 
C 35.487083 96.326522 37.690051 97.239021 39.986777 97.239021 
z
" clip-path="url(#p8edfabc6ff)" style="fill: #ffff00; stroke: #000000"/>
    <path d="M 39.986777 89.915435 
C 42.283503 89.915435 44.486471 89.002936 46.110501 87.378906 
C 47.734532 85.754875 48.647031 83.551907 48.647031 81.255181 
C 48.647031 78.958455 47.734532 76.755488 46.110501 75.131457 
C 44.486471 73.507426 42.283503 72.594927 39.986777 72.594927 
C 37.690051 72.594927 35.487083 73.507426 33.863053 75.131457 
C 32.239022 76.755488 31.326523 78.958455 31.326523 81.255181 
C 31.326523 83.551907 32.239022 85.754875 33.863053 87.378906 
C 35.487083 89.002936 37.690051 89.915435 39.986777 89.915435 
z
" clip-path="url(#p8edfabc6ff)" style="fill: #ffff00; stroke: #000000"/>
    <path d="M 39.986777 82.59185 
C 42.283503 82.59185 44.486471 81.679351 46.110501 80.05532 
C 47.734532 78.431289 48.647031 76.228322 48.647031 73.931596 
C 48.647031 71.634869 47.734532 69.431902 46.110501 67.807871 
C 44.486471 66.183841 42.283503 65.271342 39.986777 65.271342 
C 37.690051 65.271342 35.487083 66.183841 33.863053 67.807871 
C 32.239022 69.431902 31.326523 71.634869 31.326523 73.931596 
C 31.326523 76.228322 32.239022 78.431289 33.863053 80.05532 
C 35.487083 81.679351 37.690051 82.59185 39.986777 82.59185 
z
" clip-path="url(#p8edfabc6ff)" style="fill: #ffff00; stroke: #000000"/>
    <path d="M 39.986777 75.268264 
C 42.283503 75.268264 44.486471 74.355765 46.110501 72.731735 
C 47.734532 71.107704 48.647031 68.904736 48.647031 66.60801 
C 48.647031 64.311284 47.734532 62.108316 46.110501 60.484286 
C 44.486471 58.860255 42.283503 57.947756 39.986777 57.947756 
C 37.690051 57.947756 35.487083 58.860255 33.863053 60.484286 
C 32.239022 62.108316 31.326523 64.311284 31.326523 66.60801 
C 31.326523 68.904736 32.239022 71.107704 33.863053 72.731735 
C 35.487083 74.355765 37.690051 75.268264 39.986777 75.268264 
z
" clip-path="url(#p8edfabc6ff)" style="fill: #ffff00; stroke: #000000"/>
    <path d="M 39.986777 67.944679 
C 42.283503 67.944679 44.486471 67.03218 46.110501 65.408149 
C 47.734532 63.784118 48.647031 61.581151 48.647031 59.284425 
C 48.647031 56.987698 47.734532 54.784731 46.110501 53.1607 
C 44.486471 51.53667 42.283503 50.624171 39.986777 50.624171 
C 37.690051 50.624171 35.487083 51.53667 33.863053 53.1607 
C 32.239022 54.784731 31.326523 56.987698 31.326523 59.284425 
C 31.326523 61.581151 32.239022 63.784118 33.863053 65.408149 
C 35.487083 67.03218 37.690051 67.944679 39.986777 67.944679 
z
" clip-path="url(#p8edfabc6ff)" style="fill: #ffff00; stroke: #000000"/>
    <path d="M 39.986777 60.621093 
C 42.283503 60.621093 44.486471 59.708594 46.110501 58.084564 
C 47.734532 56.460533 48.647031 54.257565 48.647031 51.960839 
C 48.647031 49.664113 47.734532 47.461145 46.110501 45.837115 
C 44.486471 44.213084 42.283503 43.300585 39.986777 43.300585 
C 37.690051 43.300585 35.487083 44.213084 33.863053 45.837115 
C 32.239022 47.461145 31.326523 49.664113 31.326523 51.960839 
C 31.326523 54.257565 32.239022 56.460533 33.863053 58.084564 
C 35.487083 59.708594 37.690051 60.621093 39.986777 60.621093 
z
" clip-path="url(#p8edfabc6ff)" style="fill: #ffff00; stroke: #000000"/>
    <path d="M 39.986777 53.297508 
C 42.283503 53.297508 44.486471 52.385009 46.110501 50.760978 
C 47.734532 49.136947 48.647031 46.93398 48.647031 44.637254 
C 48.647031 42.340527 47.734532 40.13756 46.110501 38.513529 
C 44.486471 36.889499 42.283503 35.977 39.986777 35.977 
C 37.690051 35.977 35.487083 36.889499 33.863053 38.513529 
C 32.239022 40.13756 31.326523 42.340527 31.326523 44.637254 
C 31.326523 46.93398 32.239022 49.136947 33.863053 50.760978 
C 35.487083 52.385009 37.690051 53.297508 39.986777 53.297508 
z
" clip-path="url(#p8edfabc6ff)" style="fill: #ffff00; stroke: #000000"/>
    <path d="M 39.986777 45.973922 
C 42.283503 45.973922 44.486471 45.061423 46.110501 43.437393 
C 47.734532 41.813362 48.647031 39.610394 48.647031 37.313668 
C 48.647031 35.016942 47.734532 32.813974 46.110501 31.189944 
C 44.486471 29.565913 42.283503 28.653414 39.986777 28.653414 
C 37.690051 28.653414 35.487083 29.565913 33.863053 31.189944 
C 32.239022 32.813974 31.326523 35.016942 31.326523 37.313668 
C 31.326523 39.610394 32.239022 41.813362 33.863053 43.437393 
C 35.487083 45.061423 37.690051 45.973922 39.986777 45.973922 
z
" clip-path="url(#p8edfabc6ff)" style="fill: #ffff00; stroke: #000000"/>
    <path d="M 39.986777 38.650337 
C 42.283503 38.650337 44.486471 37.737838 46.110501 36.113807 
C 47.734532 34.489776 48.647031 32.286809 48.647031 29.990083 
C 48.647031 27.693356 47.734532 25.490389 46.110501 23.866358 
C 44.486471 22.242328 42.283503 21.329829 39.986777 21.329829 
C 37.690051 21.329829 35.487083 22.242328 33.863053 23.866358 
C 32.239022 25.490389 31.326523 27.693356 31.326523 29.990083 
C 31.326523 32.286809 32.239022 34.489776 33.863053 36.113807 
C 35.487083 37.737838 37.690051 38.650337 39.986777 38.650337 
z
" clip-path="url(#p8edfabc6ff)" style="fill: #ffff00; stroke: #000000"/>
    <path d="M 87.590083 152.165912 
C 89.886809 152.165912 92.089776 151.253413 93.713807 149.629382 
C 95.337838 148.005352 96.250337 145.802384 96.250337 143.505658 
C 96.250337 141.208932 95.337838 139.005964 93.713807 137.381934 
C 92.089776 135.757903 89.886809 134.845404 87.590083 134.845404 
C 85.293356 134.845404 83.090389 135.757903 81.466358 137.381934 
C 79.842328 139.005964 78.929829 141.208932 78.929829 143.505658 
C 78.929829 145.802384 79.842328 148.005352 81.466358 149.629382 
C 83.090389 151.253413 85.293356 152.165912 87.590083 152.165912 
z
" clip-path="url(#p8edfabc6ff)" style="fill: #ffffff; stroke: #000000"/>
    <path d="M 87.590083 144.842327 
C 89.886809 144.842327 92.089776 143.929828 93.713807 142.305797 
C 95.337838 140.681766 96.250337 138.478799 96.250337 136.182072 
C 96.250337 133.885346 95.337838 131.682379 93.713807 130.058348 
C 92.089776 128.434317 89.886809 127.521818 87.590083 127.521818 
C 85.293356 127.521818 83.090389 128.434317 81.466358 130.058348 
C 79.842328 131.682379 78.929829 133.885346 78.929829 136.182072 
C 78.929829 138.478799 79.842328 140.681766 81.466358 142.305797 
C 83.090389 143.929828 85.293356 144.842327 87.590083 144.842327 
z
" clip-path="url(#p8edfabc6ff)" style="fill: #ffffff; stroke: #000000"/>
    <path d="M 87.590083 166.813083 
C 89.886809 166.813083 92.089776 165.900584 93.713807 164.276553 
C 95.337838 162.652523 96.250337 160.449555 96.250337 158.152829 
C 96.250337 155.856103 95.337838 153.653135 93.713807 152.029105 
C 92.089776 150.405074 89.886809 149.492575 87.590083 149.492575 
C 85.293356 149.492575 83.090389 150.405074 81.466358 152.029105 
C 79.842328 153.653135 78.929829 155.856103 78.929829 158.152829 
C 78.929829 160.449555 79.842328 162.652523 81.466358 164.276553 
C 83.090389 165.900584 85.293356 166.813083 87.590083 166.813083 
z
" clip-path="url(#p8edfabc6ff)" style="fill: #ffffff; stroke: #000000"/>
    <path d="M 87.590083 218.078182 
C 89.886809 218.078182 92.089776 217.165683 93.713807 215.541652 
C 95.337838 213.917621 96.250337 211.714654 96.250337 209.417928 
C 96.250337 207.121201 95.337838 204.918234 93.713807 203.294203 
C 92.089776 201.670172 89.886809 200.757673 87.590083 200.757673 
C 85.293356 200.757673 83.090389 201.670172 81.466358 203.294203 
C 79.842328 204.918234 78.929829 207.121201 78.929829 209.417928 
C 78.929829 211.714654 79.842328 213.917621 81.466358 215.541652 
C 83.090389 217.165683 85.293356 218.078182 87.590083 218.078182 
z
" clip-path="url(#p8edfabc6ff)" style="fill: #ffffff; stroke: #000000"/>
    <path d="M 87.590083 188.78384 
C 89.886809 188.78384 92.089776 187.871341 93.713807 186.24731 
C 95.337838 184.623279 96.250337 182.420312 96.250337 180.123586 
C 96.250337 177.826859 95.337838 175.623892 93.713807 173.999861 
C 92.089776 172.37583 89.886809 171.463331 87.590083 171.463331 
C 85.293356 171.463331 83.090389 172.37583 81.466358 173.999861 
C 79.842328 175.623892 78.929829 177.826859 78.929829 180.123586 
C 78.929829 182.420312 79.842328 184.623279 81.466358 186.24731 
C 83.090389 187.871341 85.293356 188.78384 87.590083 188.78384 
z
" clip-path="url(#p8edfabc6ff)" style="fill: #ffffff; stroke: #000000"/>
    <path d="M 87.590083 181.460254 
C 89.886809 181.460254 92.089776 180.547755 93.713807 178.923724 
C 95.337838 177.299694 96.250337 175.096726 96.250337 172.8 
C 96.250337 170.503274 95.337838 168.300306 93.713807 166.676276 
C 92.089776 165.052245 89.886809 164.139746 87.590083 164.139746 
C 85.293356 164.139746 83.090389 165.052245 81.466358 166.676276 
C 79.842328 168.300306 78.929829 170.503274 78.929829 172.8 
C 78.929829 175.096726 79.842328 177.299694 81.466358 178.923724 
C 83.090389 180.547755 85.293356 181.460254 87.590083 181.460254 
z
" clip-path="url(#p8edfabc6ff)" style="fill: #ffffff; stroke: #000000"/>
    <path d="M 87.590083 159.489498 
C 89.886809 159.489498 92.089776 158.576999 93.713807 156.952968 
C 95.337838 155.328937 96.250337 153.12597 96.250337 150.829243 
C 96.250337 148.532517 95.337838 146.32955 93.713807 144.705519 
C 92.089776 143.081488 89.886809 142.168989 87.590083 142.168989 
C 85.293356 142.168989 83.090389 143.081488 81.466358 144.705519 
C 79.842328 146.32955 78.929829 148.532517 78.929829 150.829243 
C 78.929829 153.12597 79.842328 155.328937 81.466358 156.952968 
C 83.090389 158.576999 85.293356 159.489498 87.590083 159.489498 
z
" clip-path="url(#p8edfabc6ff)" style="fill: #ffffff; stroke: #000000"/>
    <path d="M 87.590083 203.431011 
C 89.886809 203.431011 92.089776 202.518512 93.713807 200.894481 
C 95.337838 199.27045 96.250337 197.067483 96.250337 194.770757 
C 96.250337 192.47403 95.337838 190.271063 93.713807 188.647032 
C 92.089776 187.023001 89.886809 186.110502 87.590083 186.110502 
C 85.293356 186.110502 83.090389 187.023001 81.466358 188.647032 
C 79.842328 190.271063 78.929829 192.47403 78.929829 194.770757 
C 78.929829 197.067483 79.842328 199.27045 81.466358 200.894481 
C 83.090389 202.518512 85.293356 203.431011 87.590083 203.431011 
z
" clip-path="url(#p8edfabc6ff)" style="fill: #ffffff; stroke: #000000"/>
    <path d="M 87.590083 196.107425 
C 89.886809 196.107425 92.089776 195.194926 93.713807 193.570895 
C 95.337838 191.946865 96.250337 189.743897 96.250337 187.447171 
C 96.250337 185.150445 95.337838 182.947477 93.713807 181.323447 
C 92.089776 179.699416 89.886809 178.786917 87.590083 178.786917 
C 85.293356 178.786917 83.090389 179.699416 81.466358 181.323447 
C 79.842328 182.947477 78.929829 185.150445 78.929829 187.447171 
C 78.929829 189.743897 79.842328 191.946865 81.466358 193.570895 
C 83.090389 195.194926 85.293356 196.107425 87.590083 196.107425 
z
" clip-path="url(#p8edfabc6ff)" style="fill: #ffffff; stroke: #000000"/>
    <path d="M 87.590083 174.136669 
C 89.886809 174.136669 92.089776 173.22417 93.713807 171.600139 
C 95.337838 169.976108 96.250337 167.773141 96.250337 165.476414 
C 96.250337 163.179688 95.337838 160.976721 93.713807 159.35269 
C 92.089776 157.728659 89.886809 156.81616 87.590083 156.81616 
C 85.293356 156.81616 83.090389 157.728659 81.466358 159.35269 
C 79.842328 160.976721 78.929829 163.179688 78.929829 165.476414 
C 78.929829 167.773141 79.842328 169.976108 81.466358 171.600139 
C 83.090389 173.22417 85.293356 174.136669 87.590083 174.136669 
z
" clip-path="url(#p8edfabc6ff)" style="fill: #ffffff; stroke: #000000"/>
    <path d="M 87.590083 210.754596 
C 89.886809 210.754596 92.089776 209.842097 93.713807 208.218066 
C 95.337838 206.594036 96.250337 204.391068 96.250337 202.094342 
C 96.250337 199.797616 95.337838 197.594648 93.713807 195.970618 
C 92.089776 194.346587 89.886809 193.434088 87.590083 193.434088 
C 85.293356 193.434088 83.090389 194.346587 81.466358 195.970618 
C 79.842328 197.594648 78.929829 199.797616 78.929829 202.094342 
C 78.929829 204.391068 79.842328 206.594036 81.466358 208.218066 
C 83.090389 209.842097 85.293356 210.754596 87.590083 210.754596 
z
" clip-path="url(#p8edfabc6ff)" style="fill: #ffffff; stroke: #000000"/>
    <path d="M 135.193388 174.136669 
C 137.490115 174.136669 139.693082 173.22417 141.317113 171.600139 
C 142.941143 169.976108 143.853642 167.773141 143.853642 165.476414 
C 143.853642 163.179688 142.941143 160.976721 141.317113 159.35269 
C 139.693082 157.728659 137.490115 156.81616 135.193388 156.81616 
C 132.896662 156.81616 130.693695 157.728659 129.069664 159.35269 
C 127.445633 160.976721 126.533134 163.179688 126.533134 165.476414 
C 126.533134 167.773141 127.445633 169.976108 129.069664 171.600139 
C 130.693695 173.22417 132.896662 174.136669 135.193388 174.136669 
z
" clip-path="url(#p8edfabc6ff)" style="fill: #ffffff; stroke: #000000"/>
    <path d="M 135.193388 188.78384 
C 137.490115 188.78384 139.693082 187.871341 141.317113 186.24731 
C 142.941143 184.623279 143.853642 182.420312 143.853642 180.123586 
C 143.853642 177.826859 142.941143 175.623892 141.317113 173.999861 
C 139.693082 172.37583 137.490115 171.463331 135.193388 171.463331 
C 132.896662 171.463331 130.693695 172.37583 129.069664 173.999861 
C 127.445633 175.623892 126.533134 177.826859 126.533134 180.123586 
C 126.533134 182.420312 127.445633 184.623279 129.069664 186.24731 
C 130.693695 187.871341 132.896662 188.78384 135.193388 188.78384 
z
" clip-path="url(#p8edfabc6ff)" style="fill: #ffffff; stroke: #000000"/>
    <path d="M 135.193388 181.460254 
C 137.490115 181.460254 139.693082 180.547755 141.317113 178.923724 
C 142.941143 177.299694 143.853642 175.096726 143.853642 172.8 
C 143.853642 170.503274 142.941143 168.300306 141.317113 166.676276 
C 139.693082 165.052245 137.490115 164.139746 135.193388 164.139746 
C 132.896662 164.139746 130.693695 165.052245 129.069664 166.676276 
C 127.445633 168.300306 126.533134 170.503274 126.533134 172.8 
C 126.533134 175.096726 127.445633 177.299694 129.069664 178.923724 
C 130.693695 180.547755 132.896662 181.460254 135.193388 181.460254 
z
" clip-path="url(#p8edfabc6ff)" style="fill: #ffffff; stroke: #000000"/>
    <path d="M 182.796694 188.78384 
C 185.09342 188.78384 187.296388 187.871341 188.920419 186.24731 
C 190.544449 184.623279 191.456948 182.420312 191.456948 180.123586 
C 191.456948 177.826859 190.544449 175.623892 188.920419 173.999861 
C 187.296388 172.37583 185.09342 171.463331 182.796694 171.463331 
C 180.499968 171.463331 178.297001 172.37583 176.67297 173.999861 
C 175.048939 175.623892 174.13644 177.826859 174.13644 180.123586 
C 174.13644 182.420312 175.048939 184.623279 176.67297 186.24731 
C 178.297001 187.871341 180.499968 188.78384 182.796694 188.78384 
z
" clip-path="url(#p8edfabc6ff)" style="fill: #ffffff; stroke: #000000"/>
    <path d="M 182.796694 181.460254 
C 185.09342 181.460254 187.296388 180.547755 188.920419 178.923724 
C 190.544449 177.299694 191.456948 175.096726 191.456948 172.8 
C 191.456948 170.503274 190.544449 168.300306 188.920419 166.676276 
C 187.296388 165.052245 185.09342 164.139746 182.796694 164.139746 
C 180.499968 164.139746 178.297001 165.052245 176.67297 166.676276 
C 175.048939 168.300306 174.13644 170.503274 174.13644 172.8 
C 174.13644 175.096726 175.048939 177.299694 176.67297 178.923724 
C 178.297001 180.547755 180.499968 181.460254 182.796694 181.460254 
z
" clip-path="url(#p8edfabc6ff)" style="fill: #ffffff; stroke: #000000"/>
    <path d="M 182.796694 174.136669 
C 185.09342 174.136669 187.296388 173.22417 188.920419 171.600139 
C 190.544449 169.976108 191.456948 167.773141 191.456948 165.476414 
C 191.456948 163.179688 190.544449 160.976721 188.920419 159.35269 
C 187.296388 157.728659 185.09342 156.81616 182.796694 156.81616 
C 180.499968 156.81616 178.297001 157.728659 176.67297 159.35269 
C 175.048939 160.976721 174.13644 163.179688 174.13644 165.476414 
C 174.13644 167.773141 175.048939 169.976108 176.67297 171.600139 
C 178.297001 173.22417 180.499968 174.136669 182.796694 174.136669 
z
" clip-path="url(#p8edfabc6ff)" style="fill: #ffffff; stroke: #000000"/>
    <path d="M 230.4 181.460254 
C 232.696726 181.460254 234.899694 180.547755 236.523724 178.923724 
C 238.147755 177.299694 239.060254 175.096726 239.060254 172.8 
C 239.060254 170.503274 238.147755 168.300306 236.523724 166.676276 
C 234.899694 165.052245 232.696726 164.139746 230.4 164.139746 
C 228.103274 164.139746 225.900306 165.052245 224.276276 166.676276 
C 222.652245 168.300306 221.739746 170.503274 221.739746 172.8 
C 221.739746 175.096726 222.652245 177.299694 224.276276 178.923724 
C 225.900306 180.547755 228.103274 181.460254 230.4 181.460254 
z
" clip-path="url(#p8edfabc6ff)" style="fill: #ffffff; stroke: #000000"/>
    <path d="M 278.003306 185.122047 
C 280.300032 185.122047 282.502999 184.209548 284.12703 182.585517 
C 285.751061 180.961486 286.66356 178.758519 286.66356 176.461793 
C 286.66356 174.165067 285.751061 171.962099 284.12703 170.338068 
C 282.502999 168.714038 280.300032 167.801539 278.003306 167.801539 
C 275.70658 167.801539 273.503612 168.714038 271.879581 170.338068 
C 270.255551 171.962099 269.343052 174.165067 269.343052 176.461793 
C 269.343052 178.758519 270.255551 180.961486 271.879581 182.585517 
C 273.503612 184.209548 275.70658 185.122047 278.003306 185.122047 
z
" clip-path="url(#p8edfabc6ff)" style="fill: #ffffff; stroke: #000000"/>
    <path d="M 278.003306 177.798461 
C 280.300032 177.798461 282.502999 176.885962 284.12703 175.261932 
C 285.751061 173.637901 286.66356 171.434933 286.66356 169.138207 
C 286.66356 166.841481 285.751061 164.638514 284.12703 163.014483 
C 282.502999 161.390452 280.300032 160.477953 278.003306 160.477953 
C 275.70658 160.477953 273.503612 161.390452 271.879581 163.014483 
C 270.255551 164.638514 269.343052 166.841481 269.343052 169.138207 
C 269.343052 171.434933 270.255551 173.637901 271.879581 175.261932 
C 273.503612 176.885962 275.70658 177.798461 278.003306 177.798461 
z
" clip-path="url(#p8edfabc6ff)" style="fill: #ffffff; stroke: #000000"/>
    <path d="M 325.606612 185.122047 
C 327.903338 185.122047 330.106305 184.209548 331.730336 182.585517 
C 333.354367 180.961486 334.266866 178.758519 334.266866 176.461793 
C 334.266866 174.165067 333.354367 171.962099 331.730336 170.338068 
C 330.106305 168.714038 327.903338 167.801539 325.606612 167.801539 
C 323.309885 167.801539 321.106918 168.714038 319.482887 170.338068 
C 317.858857 171.962099 316.946358 174.165067 316.946358 176.461793 
C 316.946358 178.758519 317.858857 180.961486 319.482887 182.585517 
C 321.106918 184.209548 323.309885 185.122047 325.606612 185.122047 
z
" clip-path="url(#p8edfabc6ff)" style="fill: #ffffff; stroke: #000000"/>
    <path d="M 325.606612 177.798461 
C 327.903338 177.798461 330.106305 176.885962 331.730336 175.261932 
C 333.354367 173.637901 334.266866 171.434933 334.266866 169.138207 
C 334.266866 166.841481 333.354367 164.638514 331.730336 163.014483 
C 330.106305 161.390452 327.903338 160.477953 325.606612 160.477953 
C 323.309885 160.477953 321.106918 161.390452 319.482887 163.014483 
C 317.858857 164.638514 316.946358 166.841481 316.946358 169.138207 
C 316.946358 171.434933 317.858857 173.637901 319.482887 175.261932 
C 321.106918 176.885962 323.309885 177.798461 325.606612 177.798461 
z
" clip-path="url(#p8edfabc6ff)" style="fill: #ffffff; stroke: #000000"/>
    <path d="M 373.209917 181.460254 
C 375.506644 181.460254 377.709611 180.547755 379.333642 178.923724 
C 380.957672 177.299694 381.870171 175.096726 381.870171 172.8 
C 381.870171 170.503274 380.957672 168.300306 379.333642 166.676276 
C 377.709611 165.052245 375.506644 164.139746 373.209917 164.139746 
C 370.913191 164.139746 368.710224 165.052245 367.086193 166.676276 
C 365.462162 168.300306 364.549663 170.503274 364.549663 172.8 
C 364.549663 175.096726 365.462162 177.299694 367.086193 178.923724 
C 368.710224 180.547755 370.913191 181.460254 373.209917 181.460254 
z
" clip-path="url(#p8edfabc6ff)" style="fill: #ffffff; stroke: #000000"/>
    <path d="M 420.813223 181.460254 
C 423.109949 181.460254 425.312917 180.547755 426.936947 178.923724 
C 428.560978 177.299694 429.473477 175.096726 429.473477 172.8 
C 429.473477 170.503274 428.560978 168.300306 426.936947 166.676276 
C 425.312917 165.052245 423.109949 164.139746 420.813223 164.139746 
C 418.516497 164.139746 416.313529 165.052245 414.689499 166.676276 
C 413.065468 168.300306 412.152969 170.503274 412.152969 172.8 
C 412.152969 175.096726 413.065468 177.299694 414.689499 178.923724 
C 416.313529 180.547755 418.516497 181.460254 420.813223 181.460254 
z
" clip-path="url(#p8edfabc6ff)" style="fill: #0000ff; stroke: #000000"/>
   </g>
  </g>
 </g>
 <defs>
  <clipPath id="p8edfabc6ff">
   <rect x="0" y="0" width="460.8" height="345.6"/>
  </clipPath>
 </defs>
</svg>
