<?xml version="1.0" encoding="utf-8" standalone="no"?>
<!DOCTYPE svg PUBLIC "-//W3C//DTD SVG 1.1//EN"
  "http://www.w3.org/Graphics/SVG/1.1/DTD/svg11.dtd">
<svg xmlns:xlink="http://www.w3.org/1999/xlink" width="460.8pt" height="345.6pt" viewBox="0 0 460.8 345.6" xmlns="http://www.w3.org/2000/svg" version="1.1">
 <metadata>
  <rdf:RDF xmlns:dc="http://purl.org/dc/elements/1.1/" xmlns:cc="http://creativecommons.org/ns#" xmlns:rdf="http://www.w3.org/1999/02/22-rdf-syntax-ns#">
   <cc:Work>
    <dc:type rdf:resource="http://purl.org/dc/dcmitype/StillImage"/>
    <dc:date>2025-11-05T14:25:10.586334</dc:date>
    <dc:format>image/svg+xml</dc:format>
    <dc:creator>
     <cc:Agent>
      <dc:title>Matplotlib v3.10.5, https://matplotlib.org/</dc:title>
     </cc:Agent>
    </dc:creator>
   </cc:Work>
  </rdf:RDF>
 </metadata>
 <defs>
  <style type="text/css">*{stroke-linejoin: round; stroke-linecap: butt}</style>
 </defs>
 <g id="figure_1">
  <g id="patch_1">
   <path d="M 0 345.6 
L 460.8 345.6 
L 460.8 0 
L 0 0 
z
" style="fill: #ffffff"/>
  </g>
  <g id="axes_1">
   <g id="patch_2">
    <path d="M 48.302247 313.184572 
Q 203.199668 268.006157 357.023776 223.140793 
" clip-path="url(#p18c4d7add7)" style="fill: none; stroke: #4c4c4c; stroke-linecap: round"/>
    <path d="M 355.703776 222.900793 
L 357.023776 223.140793 
L 356.039776 224.052793 
" clip-path="url(#p18c4d7add7)" style="fill: none; stroke: #4c4c4c; stroke-linecap: round"/>
   </g>
   <g id="patch_3">
    <path d="M 45.234895 308.721762 
Q 94.390706 244.20476 142.86894 180.577079 
" clip-path="url(#p18c4d7add7)" style="fill: none; stroke: #4c4c4c; stroke-linecap: round"/>
    <path d="M 141.664429 181.167971 
L 142.86894 180.577079 
L 142.618947 181.895223 
" clip-path="url(#p18c4d7add7)" style="fill: none; stroke: #4c4c4c; stroke-linecap: round"/>
   </g>
   <g id="patch_4">
    <path d="M 41.608032 307.098328 
Q 53.588415 244.201316 65.359601 182.402592 
" clip-path="url(#p18c4d7add7)" style="fill: none; stroke: #4c4c4c; stroke-linecap: round"/>
    <path d="M 64.545663 183.469131 
L 65.359601 182.402592 
L 65.724469 183.693665 
" clip-path="url(#p18c4d7add7)" style="fill: none; stroke: #4c4c4c; stroke-linecap: round"/>
   </g>
   <g id="patch_5">
    <path d="M 47.294255 310.959704 
Q 189.597312 220.403213 330.957127 130.446967 
" clip-path="url(#p18c4d7add7)" style="fill: none; stroke: #4c4c4c; stroke-linecap: round"/>
    <path d="M 329.622608 130.585021 
L 330.957127 130.446967 
L 330.266859 131.597414 
" clip-path="url(#p18c4d7add7)" style="fill: none; stroke: #4c4c4c; stroke-linecap: round"/>
   </g>
   <g id="patch_6">
    <path d="M 48.648414 220.403306 
Q 203.196662 220.403306 356.626876 220.403306 
" clip-path="url(#p18c4d7add7)" style="fill: none; stroke: #4c4c4c; stroke-linecap: round"/>
    <path d="M 355.426876 219.803306 
L 356.626876 220.403306 
L 355.426876 221.003306 
" clip-path="url(#p18c4d7add7)" style="fill: none; stroke: #4c4c4c; stroke-linecap: round"/>
   </g>
   <g id="patch_7">
    <path d="M 48.237081 217.778209 
Q 189.595471 172.800539 329.888458 128.161862 
" clip-path="url(#p18c4d7add7)" style="fill: none; stroke: #4c4c4c; stroke-linecap: round"/>
    <path d="M 328.563025 127.953951 
L 329.888458 128.161862 
L 328.92687 129.097462 
" clip-path="url(#p18c4d7add7)" style="fill: none; stroke: #4c4c4c; stroke-linecap: round"/>
   </g>
   <g id="patch_8">
    <path d="M 45.622569 131.771785 
Q 80.789471 172.799837 115.228766 212.979015 
" clip-path="url(#p18c4d7add7)" style="fill: none; stroke: #4c4c4c; stroke-linecap: round"/>
    <path d="M 114.903371 211.677432 
L 115.228766 212.979015 
L 113.992263 212.458382 
" clip-path="url(#p18c4d7add7)" style="fill: none; stroke: #4c4c4c; stroke-linecap: round"/>
   </g>
   <g id="patch_9">
    <path d="M 47.919554 128.667284 
Q 94.390356 148.99826 139.836862 168.881107 
" clip-path="url(#p18c4d7add7)" style="fill: none; stroke: #4c4c4c; stroke-linecap: round"/>
    <path d="M 138.977965 167.85043 
L 139.836862 168.881107 
L 138.496982 168.949818 
" clip-path="url(#p18c4d7add7)" style="fill: none; stroke: #4c4c4c; stroke-linecap: round"/>
   </g>
   <g id="patch_10">
    <path d="M 47.919554 128.667284 
Q 148.794943 172.800267 248.646037 216.485121 
" clip-path="url(#p18c4d7add7)" style="fill: none; stroke: #4c4c4c; stroke-linecap: round"/>
    <path d="M 247.78714 215.454444 
L 248.646037 216.485121 
L 247.306157 216.553832 
" clip-path="url(#p18c4d7add7)" style="fill: none; stroke: #4c4c4c; stroke-linecap: round"/>
   </g>
   <g id="patch_11">
    <path d="M 47.46547 34.352654 
Q 203.196183 125.195569 357.961161 215.47514 
" clip-path="url(#p18c4d7add7)" style="fill: none; stroke: #4c4c4c; stroke-linecap: round"/>
    <path d="M 357.226949 214.352228 
L 357.961161 215.47514 
L 356.622304 215.388762 
" clip-path="url(#p18c4d7add7)" style="fill: none; stroke: #4c4c4c; stroke-linecap: round"/>
   </g>
   <g id="patch_12">
    <path d="M 45.234895 36.878238 
Q 94.390706 101.39524 142.86894 165.022921 
" clip-path="url(#p18c4d7add7)" style="fill: none; stroke: #4c4c4c; stroke-linecap: round"/>
    <path d="M 142.618947 163.704777 
L 142.86894 165.022921 
L 141.664429 164.432029 
" clip-path="url(#p18c4d7add7)" style="fill: none; stroke: #4c4c4c; stroke-linecap: round"/>
   </g>
   <g id="patch_13">
    <path d="M 46.916335 35.187251 
Q 135.193491 101.395118 222.57622 166.932165 
" clip-path="url(#p18c4d7add7)" style="fill: none; stroke: #4c4c4c; stroke-linecap: round"/>
    <path d="M 221.97622 165.732165 
L 222.57622 166.932165 
L 221.25622 166.692165 
" clip-path="url(#p18c4d7add7)" style="fill: none; stroke: #4c4c4c; stroke-linecap: round"/>
   </g>
   <g id="patch_14">
    <path d="M 43.39739 37.948179 
Q 80.789292 125.195951 117.740779 211.416088 
" clip-path="url(#p18c4d7add7)" style="fill: none; stroke: #4c4c4c; stroke-linecap: round"/>
    <path d="M 117.819563 210.076762 
L 117.740779 211.416088 
L 116.716589 210.549465 
" clip-path="url(#p18c4d7add7)" style="fill: none; stroke: #4c4c4c; stroke-linecap: round"/>
   </g>
   <g id="patch_15">
    <path d="M 75.851963 172.8 
Q 80.792117 172.8 84.614238 172.8 
" clip-path="url(#p18c4d7add7)" style="fill: none; stroke: #4c4c4c; stroke-linecap: round"/>
    <path d="M 83.414238 172.2 
L 84.614238 172.8 
L 83.414238 173.4 
" clip-path="url(#p18c4d7add7)" style="fill: none; stroke: #4c4c4c; stroke-linecap: round"/>
   </g>
   <g id="patch_16">
    <path d="M 103.052192 172.8 
Q 135.194491 172.8 166.218756 172.8 
" clip-path="url(#p18c4d7add7)" style="fill: none; stroke: #4c4c4c; stroke-linecap: round"/>
    <path d="M 165.018756 172.2 
L 166.218756 172.8 
L 165.018756 173.4 
" clip-path="url(#p18c4d7add7)" style="fill: none; stroke: #4c4c4c; stroke-linecap: round"/>
   </g>
   <g id="patch_17">
    <path d="M 98.685677 165.283536 
Q 107.990852 148.99948 116.741327 133.686149 
" clip-path="url(#p18c4d7add7)" style="fill: none; stroke: #4c4c4c; stroke-linecap: round"/>
    <path d="M 115.625014 134.430357 
L 116.741327 133.686149 
L 116.666906 135.025724 
" clip-path="url(#p18c4d7add7)" style="fill: none; stroke: #4c4c4c; stroke-linecap: round"/>
   </g>
   <g id="patch_18">
    <path d="M 98.685677 180.316464 
Q 107.990852 196.60052 116.741327 211.913851 
" clip-path="url(#p18c4d7add7)" style="fill: none; stroke: #4c4c4c; stroke-linecap: round"/>
    <path d="M 116.666906 210.574276 
L 116.741327 211.913851 
L 115.625014 211.169643 
" clip-path="url(#p18c4d7add7)" style="fill: none; stroke: #4c4c4c; stroke-linecap: round"/>
   </g>
   <g id="patch_19">
    <path d="M 102.88907 174.452489 
Q 216.79872 196.601588 329.61089 218.537287 
" clip-path="url(#p18c4d7add7)" style="fill: none; stroke: #4c4c4c; stroke-linecap: round"/>
    <path d="M 328.547474 217.719275 
L 329.61089 218.537287 
L 328.31843 218.897213 
" clip-path="url(#p18c4d7add7)" style="fill: none; stroke: #4c4c4c; stroke-linecap: round"/>
   </g>
   <g id="patch_20">
    <path d="M 130.255326 220.403306 
Q 244.002869 220.403306 356.632379 220.403306 
" clip-path="url(#p18c4d7add7)" style="fill: none; stroke: #4c4c4c; stroke-linecap: round"/>
    <path d="M 355.432379 219.803306 
L 356.632379 220.403306 
L 355.432379 221.003306 
" clip-path="url(#p18c4d7add7)" style="fill: none; stroke: #4c4c4c; stroke-linecap: round"/>
   </g>
   <g id="patch_21">
    <path d="M 125.887566 132.713159 
Q 135.192741 148.997215 143.943216 164.310545 
" clip-path="url(#p18c4d7add7)" style="fill: none; stroke: #4c4c4c; stroke-linecap: round"/>
    <path d="M 143.868795 162.97097 
L 143.943216 164.310545 
L 142.826903 163.566337 
" clip-path="url(#p18c4d7add7)" style="fill: none; stroke: #4c4c4c; stroke-linecap: round"/>
   </g>
   <g id="patch_22">
    <path d="M 157.45597 172.8 
Q 189.598269 172.8 220.622534 172.8 
" clip-path="url(#p18c4d7add7)" style="fill: none; stroke: #4c4c4c; stroke-linecap: round"/>
    <path d="M 219.422534 172.2 
L 220.622534 172.8 
L 219.422534 173.4 
" clip-path="url(#p18c4d7add7)" style="fill: none; stroke: #4c4c4c; stroke-linecap: round"/>
   </g>
   <g id="patch_23">
    <path d="M 157.45763 172.8 
Q 162.397784 172.8 166.219905 172.8 
" clip-path="url(#p18c4d7add7)" style="fill: none; stroke: #4c4c4c; stroke-linecap: round"/>
    <path d="M 165.019905 172.2 
L 166.219905 172.8 
L 165.019905 173.4 
" clip-path="url(#p18c4d7add7)" style="fill: none; stroke: #4c4c4c; stroke-linecap: round"/>
   </g>
   <g id="patch_24">
    <path d="M 184.659519 172.8 
Q 189.599673 172.8 193.421794 172.8 
" clip-path="url(#p18c4d7add7)" style="fill: none; stroke: #4c4c4c; stroke-linecap: round"/>
    <path d="M 192.221794 172.2 
L 193.421794 172.8 
L 192.221794 173.4 
" clip-path="url(#p18c4d7add7)" style="fill: none; stroke: #4c4c4c; stroke-linecap: round"/>
   </g>
   <g id="patch_25">
    <path d="M 211.861408 172.8 
Q 216.801563 172.8 220.623683 172.8 
" clip-path="url(#p18c4d7add7)" style="fill: none; stroke: #4c4c4c; stroke-linecap: round"/>
    <path d="M 219.423683 172.2 
L 220.623683 172.8 
L 219.423683 173.4 
" clip-path="url(#p18c4d7add7)" style="fill: none; stroke: #4c4c4c; stroke-linecap: round"/>
   </g>
   <g id="patch_26">
    <path d="M 211.513581 175.225345 
Q 284.804076 196.60174 357.021257 217.665084 
" clip-path="url(#p18c4d7add7)" style="fill: none; stroke: #4c4c4c; stroke-linecap: round"/>
    <path d="M 356.037257 216.753084 
L 357.021257 217.665084 
L 355.701257 217.905084 
" clip-path="url(#p18c4d7add7)" style="fill: none; stroke: #4c4c4c; stroke-linecap: round"/>
   </g>
   <g id="patch_27">
    <path d="M 211.861408 172.8 
Q 257.604486 172.8 302.229531 172.8 
" clip-path="url(#p18c4d7add7)" style="fill: none; stroke: #4c4c4c; stroke-linecap: round"/>
    <path d="M 301.029531 172.2 
L 302.229531 172.8 
L 301.029531 173.4 
" clip-path="url(#p18c4d7add7)" style="fill: none; stroke: #4c4c4c; stroke-linecap: round"/>
   </g>
   <g id="patch_28">
    <path d="M 234.695122 165.283536 
Q 244.000297 148.99948 252.750772 133.686149 
" clip-path="url(#p18c4d7add7)" style="fill: none; stroke: #4c4c4c; stroke-linecap: round"/>
    <path d="M 251.634459 134.430357 
L 252.750772 133.686149 
L 252.676351 135.025724 
" clip-path="url(#p18c4d7add7)" style="fill: none; stroke: #4c4c4c; stroke-linecap: round"/>
   </g>
   <g id="patch_29">
    <path d="M 238.572687 169.93956 
Q 298.404487 148.998429 357.181022 128.426642 
" clip-path="url(#p18c4d7add7)" style="fill: none; stroke: #4c4c4c; stroke-linecap: round"/>
    <path d="M 355.850182 128.256748 
L 357.181022 128.426642 
L 356.246603 129.389378 
" clip-path="url(#p18c4d7add7)" style="fill: none; stroke: #4c4c4c; stroke-linecap: round"/>
   </g>
   <g id="patch_30">
    <path d="M 234.695122 180.316464 
Q 244.000297 196.60052 252.750772 211.913851 
" clip-path="url(#p18c4d7add7)" style="fill: none; stroke: #4c4c4c; stroke-linecap: round"/>
    <path d="M 252.676351 210.574276 
L 252.750772 211.913851 
L 251.634459 211.169643 
" clip-path="url(#p18c4d7add7)" style="fill: none; stroke: #4c4c4c; stroke-linecap: round"/>
   </g>
   <g id="patch_31">
    <path d="M 261.897012 212.886841 
Q 271.202186 196.602785 279.952661 181.289455 
" clip-path="url(#p18c4d7add7)" style="fill: none; stroke: #4c4c4c; stroke-linecap: round"/>
    <path d="M 278.836348 182.033663 
L 279.952661 181.289455 
L 279.87824 182.62903 
" clip-path="url(#p18c4d7add7)" style="fill: none; stroke: #4c4c4c; stroke-linecap: round"/>
   </g>
   <g id="patch_32">
    <path d="M 265.917359 127.62204 
Q 339.207854 148.998434 411.425035 170.061779 
" clip-path="url(#p18c4d7add7)" style="fill: none; stroke: #4c4c4c; stroke-linecap: round"/>
    <path d="M 410.441035 169.149779 
L 411.425035 170.061779 
L 410.105035 170.301779 
" clip-path="url(#p18c4d7add7)" style="fill: none; stroke: #4c4c4c; stroke-linecap: round"/>
   </g>
   <g id="patch_33">
    <path d="M 293.467075 172.8 
Q 298.40723 172.8 302.22935 172.8 
" clip-path="url(#p18c4d7add7)" style="fill: none; stroke: #4c4c4c; stroke-linecap: round"/>
    <path d="M 301.02935 172.2 
L 302.22935 172.8 
L 301.02935 173.4 
" clip-path="url(#p18c4d7add7)" style="fill: none; stroke: #4c4c4c; stroke-linecap: round"/>
   </g>
   <g id="patch_34">
    <path d="M 316.30079 180.316464 
Q 325.605964 196.60052 334.356439 211.913851 
" clip-path="url(#p18c4d7add7)" style="fill: none; stroke: #4c4c4c; stroke-linecap: round"/>
    <path d="M 334.282018 210.574276 
L 334.356439 211.913851 
L 333.240126 211.169643 
" clip-path="url(#p18c4d7add7)" style="fill: none; stroke: #4c4c4c; stroke-linecap: round"/>
   </g>
   <g id="patch_35">
    <path d="M 318.523893 178.503448 
Q 339.209318 196.603194 359.053336 213.96671 
" clip-path="url(#p18c4d7add7)" style="fill: none; stroke: #4c4c4c; stroke-linecap: round"/>
    <path d="M 358.545346 212.724959 
L 359.053336 213.96671 
L 357.755141 213.628051 
" clip-path="url(#p18c4d7add7)" style="fill: none; stroke: #4c4c4c; stroke-linecap: round"/>
   </g>
   <g id="patch_36">
    <path d="M 316.30079 165.283536 
Q 325.605964 148.99948 334.356439 133.686149 
" clip-path="url(#p18c4d7add7)" style="fill: none; stroke: #4c4c4c; stroke-linecap: round"/>
    <path d="M 333.240126 134.430357 
L 334.356439 133.686149 
L 334.282018 135.025724 
" clip-path="url(#p18c4d7add7)" style="fill: none; stroke: #4c4c4c; stroke-linecap: round"/>
   </g>
   <g id="patch_37">
    <path d="M 347.870853 220.403306 
Q 352.811008 220.403306 356.633128 220.403306 
" clip-path="url(#p18c4d7add7)" style="fill: none; stroke: #4c4c4c; stroke-linecap: round"/>
    <path d="M 355.433128 219.803306 
L 356.633128 220.403306 
L 355.433128 221.003306 
" clip-path="url(#p18c4d7add7)" style="fill: none; stroke: #4c4c4c; stroke-linecap: round"/>
   </g>
   <g id="patch_38">
    <path d="M 343.502679 212.886841 
Q 366.409252 172.800338 388.761126 133.684559 
" clip-path="url(#p18c4d7add7)" style="fill: none; stroke: #4c4c4c; stroke-linecap: round"/>
    <path d="M 387.644813 134.428767 
L 388.761126 133.684559 
L 388.686705 135.024134 
" clip-path="url(#p18c4d7add7)" style="fill: none; stroke: #4c4c4c; stroke-linecap: round"/>
   </g>
   <g id="patch_39">
    <path d="M 347.870853 125.196694 
Q 352.811008 125.196694 356.633128 125.196694 
" clip-path="url(#p18c4d7add7)" style="fill: none; stroke: #4c4c4c; stroke-linecap: round"/>
    <path d="M 355.433128 124.596694 
L 356.633128 125.196694 
L 355.433128 125.796694 
" clip-path="url(#p18c4d7add7)" style="fill: none; stroke: #4c4c4c; stroke-linecap: round"/>
   </g>
   <g id="patch_40">
    <path d="M 375.072742 220.403306 
Q 380.012897 220.403306 383.835017 220.403306 
" clip-path="url(#p18c4d7add7)" style="fill: none; stroke: #4c4c4c; stroke-linecap: round"/>
    <path d="M 382.635017 219.803306 
L 383.835017 220.403306 
L 382.635017 221.003306 
" clip-path="url(#p18c4d7add7)" style="fill: none; stroke: #4c4c4c; stroke-linecap: round"/>
   </g>
   <g id="patch_41">
    <path d="M 368.787784 212.079119 
Q 380.00982 172.801995 390.924707 134.599887 
" clip-path="url(#p18c4d7add7)" style="fill: none; stroke: #4c4c4c; stroke-linecap: round"/>
    <path d="M 390.018128 135.588884 
L 390.924707 134.599887 
L 391.171956 135.918549 
" clip-path="url(#p18c4d7add7)" style="fill: none; stroke: #4c4c4c; stroke-linecap: round"/>
   </g>
   <g id="patch_42">
    <path d="M 397.906457 212.886841 
Q 407.211631 196.602785 415.962106 181.289455 
" clip-path="url(#p18c4d7add7)" style="fill: none; stroke: #4c4c4c; stroke-linecap: round"/>
    <path d="M 414.845793 182.033663 
L 415.962106 181.289455 
L 415.887685 182.62903 
" clip-path="url(#p18c4d7add7)" style="fill: none; stroke: #4c4c4c; stroke-linecap: round"/>
   </g>
   <g id="PathCollection_1">
    <path d="M 39.986777 324.270171 
C 42.283503 324.270171 44.486471 323.357672 46.110501 321.733642 
C 47.734532 320.109611 48.647031 317.906644 48.647031 315.609917 
C 48.647031 313.313191 47.734532 311.110224 46.110501 309.486193 
C 44.486471 307.862162 42.283503 306.949663 39.986777 306.949663 
C 37.690051 306.949663 35.487083 307.862162 33.863053 309.486193 
C 32.239022 311.110224 31.326523 313.313191 31.326523 315.609917 
C 31.326523 317.906644 32.239022 320.109611 33.863053 321.733642 
C 35.487083 323.357672 37.690051 324.270171 39.986777 324.270171 
z
" clip-path="url(#p18c4d7add7)" style="fill: #ffff00; stroke: #000000"/>
    <path d="M 39.986777 229.06356 
C 42.283503 229.06356 44.486471 228.151061 46.110501 226.52703 
C 47.734532 224.902999 48.647031 222.700032 48.647031 220.403306 
C 48.647031 218.10658 47.734532 215.903612 46.110501 214.279581 
C 44.486471 212.655551 42.283503 211.743052 39.986777 211.743052 
C 37.690051 211.743052 35.487083 212.655551 33.863053 214.279581 
C 32.239022 215.903612 31.326523 218.10658 31.326523 220.403306 
C 31.326523 222.700032 32.239022 224.902999 33.863053 226.52703 
C 35.487083 228.151061 37.690051 229.06356 39.986777 229.06356 
z
" clip-path="url(#p18c4d7add7)" style="fill: #ffff00; stroke: #000000"/>
    <path d="M 39.986777 133.856948 
C 42.283503 133.856948 44.486471 132.944449 46.110501 131.320419 
C 47.734532 129.696388 48.647031 127.49342 48.647031 125.196694 
C 48.647031 122.899968 47.734532 120.697001 46.110501 119.07297 
C 44.486471 117.448939 42.283503 116.53644 39.986777 116.53644 
C 37.690051 116.53644 35.487083 117.448939 33.863053 119.07297 
C 32.239022 120.697001 31.326523 122.899968 31.326523 125.196694 
C 31.326523 127.49342 32.239022 129.696388 33.863053 131.320419 
C 35.487083 132.944449 37.690051 133.856948 39.986777 133.856948 
z
" clip-path="url(#p18c4d7add7)" style="fill: #ffff00; stroke: #000000"/>
    <path d="M 39.986777 38.650337 
C 42.283503 38.650337 44.486471 37.737838 46.110501 36.113807 
C 47.734532 34.489776 48.647031 32.286809 48.647031 29.990083 
C 48.647031 27.693356 47.734532 25.490389 46.110501 23.866358 
C 44.486471 22.242328 42.283503 21.329829 39.986777 21.329829 
C 37.690051 21.329829 35.487083 22.242328 33.863053 23.866358 
C 32.239022 25.490389 31.326523 27.693356 31.326523 29.990083 
C 31.326523 32.286809 32.239022 34.489776 33.863053 36.113807 
C 35.487083 37.737838 37.690051 38.650337 39.986777 38.650337 
z
" clip-path="url(#p18c4d7add7)" style="fill: #ffff00; stroke: #000000"/>
    <path d="M 67.188666 181.460254 
C 69.485392 181.460254 71.68836 180.547755 73.31239 178.923724 
C 74.936421 177.299694 75.84892 175.096726 75.84892 172.8 
C 75.84892 170.503274 74.936421 168.300306 73.31239 166.676276 
C 71.68836 165.052245 69.485392 164.139746 67.188666 164.139746 
C 64.89194 164.139746 62.688972 165.052245 61.064942 166.676276 
C 59.440911 168.300306 58.528412 170.503274 58.528412 172.8 
C 58.528412 175.096726 59.440911 177.299694 61.064942 178.923724 
C 62.688972 180.547755 64.89194 181.460254 67.188666 181.460254 
z
" clip-path="url(#p18c4d7add7)" style="fill: #ffffff; stroke: #000000"/>
    <path d="M 94.390555 181.460254 
C 96.687281 181.460254 98.890249 180.547755 100.514279 178.923724 
C 102.13831 177.299694 103.050809 175.096726 103.050809 172.8 
C 103.050809 170.503274 102.13831 168.300306 100.514279 166.676276 
C 98.890249 165.052245 96.687281 164.139746 94.390555 164.139746 
C 92.093829 164.139746 89.890861 165.052245 88.266831 166.676276 
C 86.6428 168.300306 85.730301 170.503274 85.730301 172.8 
C 85.730301 175.096726 86.6428 177.299694 88.266831 178.923724 
C 89.890861 180.547755 92.093829 181.460254 94.390555 181.460254 
z
" clip-path="url(#p18c4d7add7)" style="fill: #ffffff; stroke: #000000"/>
    <path d="M 121.592444 229.06356 
C 123.88917 229.06356 126.092138 228.151061 127.716168 226.52703 
C 129.340199 224.902999 130.252698 222.700032 130.252698 220.403306 
C 130.252698 218.10658 129.340199 215.903612 127.716168 214.279581 
C 126.092138 212.655551 123.88917 211.743052 121.592444 211.743052 
C 119.295718 211.743052 117.09275 212.655551 115.46872 214.279581 
C 113.844689 215.903612 112.93219 218.10658 112.93219 220.403306 
C 112.93219 222.700032 113.844689 224.902999 115.46872 226.52703 
C 117.09275 228.151061 119.295718 229.06356 121.592444 229.06356 
z
" clip-path="url(#p18c4d7add7)" style="fill: #ffffff; stroke: #000000"/>
    <path d="M 121.592444 133.856948 
C 123.88917 133.856948 126.092138 132.944449 127.716168 131.320419 
C 129.340199 129.696388 130.252698 127.49342 130.252698 125.196694 
C 130.252698 122.899968 129.340199 120.697001 127.716168 119.07297 
C 126.092138 117.448939 123.88917 116.53644 121.592444 116.53644 
C 119.295718 116.53644 117.09275 117.448939 115.46872 119.07297 
C 113.844689 120.697001 112.93219 122.899968 112.93219 125.196694 
C 112.93219 127.49342 113.844689 129.696388 115.46872 131.320419 
C 117.09275 132.944449 119.295718 133.856948 121.592444 133.856948 
z
" clip-path="url(#p18c4d7add7)" style="fill: #ffffff; stroke: #000000"/>
    <path d="M 148.794333 181.460254 
C 151.091059 181.460254 153.294027 180.547755 154.918057 178.923724 
C 156.542088 177.299694 157.454587 175.096726 157.454587 172.8 
C 157.454587 170.503274 156.542088 168.300306 154.918057 166.676276 
C 153.294027 165.052245 151.091059 164.139746 148.794333 164.139746 
C 146.497607 164.139746 144.294639 165.052245 142.670609 166.676276 
C 141.046578 168.300306 140.134079 170.503274 140.134079 172.8 
C 140.134079 175.096726 141.046578 177.299694 142.670609 178.923724 
C 144.294639 180.547755 146.497607 181.460254 148.794333 181.460254 
z
" clip-path="url(#p18c4d7add7)" style="fill: #ffffff; stroke: #000000"/>
    <path d="M 175.996222 181.460254 
C 178.292948 181.460254 180.495916 180.547755 182.119946 178.923724 
C 183.743977 177.299694 184.656476 175.096726 184.656476 172.8 
C 184.656476 170.503274 183.743977 168.300306 182.119946 166.676276 
C 180.495916 165.052245 178.292948 164.139746 175.996222 164.139746 
C 173.699496 164.139746 171.496528 165.052245 169.872498 166.676276 
C 168.248467 168.300306 167.335968 170.503274 167.335968 172.8 
C 167.335968 175.096726 168.248467 177.299694 169.872498 178.923724 
C 171.496528 180.547755 173.699496 181.460254 175.996222 181.460254 
z
" clip-path="url(#p18c4d7add7)" style="fill: #ffffff; stroke: #000000"/>
    <path d="M 203.198111 181.460254 
C 205.494837 181.460254 207.697805 180.547755 209.321835 178.923724 
C 210.945866 177.299694 211.858365 175.096726 211.858365 172.8 
C 211.858365 170.503274 210.945866 168.300306 209.321835 166.676276 
C 207.697805 165.052245 205.494837 164.139746 203.198111 164.139746 
C 200.901385 164.139746 198.698417 165.052245 197.074387 166.676276 
C 195.450356 168.300306 194.537857 170.503274 194.537857 172.8 
C 194.537857 175.096726 195.450356 177.299694 197.074387 178.923724 
C 198.698417 180.547755 200.901385 181.460254 203.198111 181.460254 
z
" clip-path="url(#p18c4d7add7)" style="fill: #ffffff; stroke: #000000"/>
    <path d="M 230.4 181.460254 
C 232.696726 181.460254 234.899694 180.547755 236.523724 178.923724 
C 238.147755 177.299694 239.060254 175.096726 239.060254 172.8 
C 239.060254 170.503274 238.147755 168.300306 236.523724 166.676276 
C 234.899694 165.052245 232.696726 164.139746 230.4 164.139746 
C 228.103274 164.139746 225.900306 165.052245 224.276276 166.676276 
C 222.652245 168.300306 221.739746 170.503274 221.739746 172.8 
C 221.739746 175.096726 222.652245 177.299694 224.276276 178.923724 
C 225.900306 180.547755 228.103274 181.460254 230.4 181.460254 
z
" clip-path="url(#p18c4d7add7)" style="fill: #ffffff; stroke: #000000"/>
    <path d="M 257.601889 229.06356 
C 259.898615 229.06356 262.101583 228.151061 263.725613 226.52703 
C 265.349644 224.902999 266.262143 222.700032 266.262143 220.403306 
C 266.262143 218.10658 265.349644 215.903612 263.725613 214.279581 
C 262.101583 212.655551 259.898615 211.743052 257.601889 211.743052 
C 255.305163 211.743052 253.102195 212.655551 251.478165 214.279581 
C 249.854134 215.903612 248.941635 218.10658 248.941635 220.403306 
C 248.941635 222.700032 249.854134 224.902999 251.478165 226.52703 
C 253.102195 228.151061 255.305163 229.06356 257.601889 229.06356 
z
" clip-path="url(#p18c4d7add7)" style="fill: #ffffff; stroke: #000000"/>
    <path d="M 257.601889 133.856948 
C 259.898615 133.856948 262.101583 132.944449 263.725613 131.320419 
C 265.349644 129.696388 266.262143 127.49342 266.262143 125.196694 
C 266.262143 122.899968 265.349644 120.697001 263.725613 119.07297 
C 262.101583 117.448939 259.898615 116.53644 257.601889 116.53644 
C 255.305163 116.53644 253.102195 117.448939 251.478165 119.07297 
C 249.854134 120.697001 248.941635 122.899968 248.941635 125.196694 
C 248.941635 127.49342 249.854134 129.696388 251.478165 131.320419 
C 253.102195 132.944449 255.305163 133.856948 257.601889 133.856948 
z
" clip-path="url(#p18c4d7add7)" style="fill: #ffffff; stroke: #000000"/>
    <path d="M 284.803778 181.460254 
C 287.100504 181.460254 289.303472 180.547755 290.927502 178.923724 
C 292.551533 177.299694 293.464032 175.096726 293.464032 172.8 
C 293.464032 170.503274 292.551533 168.300306 290.927502 166.676276 
C 289.303472 165.052245 287.100504 164.139746 284.803778 164.139746 
C 282.507052 164.139746 280.304084 165.052245 278.680054 166.676276 
C 277.056023 168.300306 276.143524 170.503274 276.143524 172.8 
C 276.143524 175.096726 277.056023 177.299694 278.680054 178.923724 
C 280.304084 180.547755 282.507052 181.460254 284.803778 181.460254 
z
" clip-path="url(#p18c4d7add7)" style="fill: #ffffff; stroke: #000000"/>
    <path d="M 312.005667 181.460254 
C 314.302393 181.460254 316.505361 180.547755 318.129391 178.923724 
C 319.753422 177.299694 320.665921 175.096726 320.665921 172.8 
C 320.665921 170.503274 319.753422 168.300306 318.129391 166.676276 
C 316.505361 165.052245 314.302393 164.139746 312.005667 164.139746 
C 309.708941 164.139746 307.505973 165.052245 305.881943 166.676276 
C 304.257912 168.300306 303.345413 170.503274 303.345413 172.8 
C 303.345413 175.096726 304.257912 177.299694 305.881943 178.923724 
C 307.505973 180.547755 309.708941 181.460254 312.005667 181.460254 
z
" clip-path="url(#p18c4d7add7)" style="fill: #ffffff; stroke: #000000"/>
    <path d="M 339.207556 229.06356 
C 341.504282 229.06356 343.70725 228.151061 345.33128 226.52703 
C 346.955311 224.902999 347.86781 222.700032 347.86781 220.403306 
C 347.86781 218.10658 346.955311 215.903612 345.33128 214.279581 
C 343.70725 212.655551 341.504282 211.743052 339.207556 211.743052 
C 336.91083 211.743052 334.707862 212.655551 333.083832 214.279581 
C 331.459801 215.903612 330.547302 218.10658 330.547302 220.403306 
C 330.547302 222.700032 331.459801 224.902999 333.083832 226.52703 
C 334.707862 228.151061 336.91083 229.06356 339.207556 229.06356 
z
" clip-path="url(#p18c4d7add7)" style="fill: #ffffff; stroke: #000000"/>
    <path d="M 339.207556 133.856948 
C 341.504282 133.856948 343.70725 132.944449 345.33128 131.320419 
C 346.955311 129.696388 347.86781 127.49342 347.86781 125.196694 
C 347.86781 122.899968 346.955311 120.697001 345.33128 119.07297 
C 343.70725 117.448939 341.504282 116.53644 339.207556 116.53644 
C 336.91083 116.53644 334.707862 117.448939 333.083832 119.07297 
C 331.459801 120.697001 330.547302 122.899968 330.547302 125.196694 
C 330.547302 127.49342 331.459801 129.696388 333.083832 131.320419 
C 334.707862 132.944449 336.91083 133.856948 339.207556 133.856948 
z
" clip-path="url(#p18c4d7add7)" style="fill: #ffffff; stroke: #000000"/>
    <path d="M 366.409445 229.06356 
C 368.706171 229.06356 370.909139 228.151061 372.533169 226.52703 
C 374.1572 224.902999 375.069699 222.700032 375.069699 220.403306 
C 375.069699 218.10658 374.1572 215.903612 372.533169 214.279581 
C 370.909139 212.655551 368.706171 211.743052 366.409445 211.743052 
C 364.112719 211.743052 361.909751 212.655551 360.285721 214.279581 
C 358.66169 215.903612 357.749191 218.10658 357.749191 220.403306 
C 357.749191 222.700032 358.66169 224.902999 360.285721 226.52703 
C 361.909751 228.151061 364.112719 229.06356 366.409445 229.06356 
z
" clip-path="url(#p18c4d7add7)" style="fill: #ffffff; stroke: #000000"/>
    <path d="M 366.409445 133.856948 
C 368.706171 133.856948 370.909139 132.944449 372.533169 131.320419 
C 374.1572 129.696388 375.069699 127.49342 375.069699 125.196694 
C 375.069699 122.899968 374.1572 120.697001 372.533169 119.07297 
C 370.909139 117.448939 368.706171 116.53644 366.409445 116.53644 
C 364.112719 116.53644 361.909751 117.448939 360.285721 119.07297 
C 358.66169 120.697001 357.749191 122.899968 357.749191 125.196694 
C 357.749191 127.49342 358.66169 129.696388 360.285721 131.320419 
C 361.909751 132.944449 364.112719 133.856948 366.409445 133.856948 
z
" clip-path="url(#p18c4d7add7)" style="fill: #ffffff; stroke: #000000"/>
    <path d="M 393.611334 229.06356 
C 395.90806 229.06356 398.111028 228.151061 399.735058 226.52703 
C 401.359089 224.902999 402.271588 222.700032 402.271588 220.403306 
C 402.271588 218.10658 401.359089 215.903612 399.735058 214.279581 
C 398.111028 212.655551 395.90806 211.743052 393.611334 211.743052 
C 391.314608 211.743052 389.11164 212.655551 387.48761 214.279581 
C 385.863579 215.903612 384.95108 218.10658 384.95108 220.403306 
C 384.95108 222.700032 385.863579 224.902999 387.48761 226.52703 
C 389.11164 228.151061 391.314608 229.06356 393.611334 229.06356 
z
" clip-path="url(#p18c4d7add7)" style="fill: #ffffff; stroke: #000000"/>
    <path d="M 393.611334 133.856948 
C 395.90806 133.856948 398.111028 132.944449 399.735058 131.320419 
C 401.359089 129.696388 402.271588 127.49342 402.271588 125.196694 
C 402.271588 122.899968 401.359089 120.697001 399.735058 119.07297 
C 398.111028 117.448939 395.90806 116.53644 393.611334 116.53644 
C 391.314608 116.53644 389.11164 117.448939 387.48761 119.07297 
C 385.863579 120.697001 384.95108 122.899968 384.95108 125.196694 
C 384.95108 127.49342 385.863579 129.696388 387.48761 131.320419 
C 389.11164 132.944449 391.314608 133.856948 393.611334 133.856948 
z
" clip-path="url(#p18c4d7add7)" style="fill: #ffffff; stroke: #000000"/>
    <path d="M 420.813223 181.460254 
C 423.109949 181.460254 425.312917 180.547755 426.936947 178.923724 
C 428.560978 177.299694 429.473477 175.096726 429.473477 172.8 
C 429.473477 170.503274 428.560978 168.300306 426.936947 166.676276 
C 425.312917 165.052245 423.109949 164.139746 420.813223 164.139746 
C 418.516497 164.139746 416.313529 165.052245 414.689499 166.676276 
C 413.065468 168.300306 412.152969 170.503274 412.152969 172.8 
C 412.152969 175.096726 413.065468 177.299694 414.689499 178.923724 
C 416.313529 180.547755 418.516497 181.460254 420.813223 181.460254 
z
" clip-path="url(#p18c4d7add7)" style="fill: #0000ff; stroke: #000000"/>
   </g>
  </g>
 </g>
 <defs>
  <clipPath id="p18c4d7add7">
   <rect x="0" y="0" width="460.8" height="345.6"/>
  </clipPath>
 </defs>
</svg>
