<?xml version="1.0" encoding="utf-8" standalone="no"?>
<!DOCTYPE svg PUBLIC "-//W3C//DTD SVG 1.1//EN"
  "http://www.w3.org/Graphics/SVG/1.1/DTD/svg11.dtd">
<svg xmlns:xlink="http://www.w3.org/1999/xlink" width="460.8pt" height="345.6pt" viewBox="0 0 460.8 345.6" xmlns="http://www.w3.org/2000/svg" version="1.1">
 <metadata>
  <rdf:RDF xmlns:dc="http://purl.org/dc/elements/1.1/" xmlns:cc="http://creativecommons.org/ns#" xmlns:rdf="http://www.w3.org/1999/02/22-rdf-syntax-ns#">
   <cc:Work>
    <dc:type rdf:resource="http://purl.org/dc/dcmitype/StillImage"/>
    <dc:date>2025-11-05T11:55:18.156862</dc:date>
    <dc:format>image/svg+xml</dc:format>
    <dc:creator>
     <cc:Agent>
      <dc:title>Matplotlib v3.10.5, https://matplotlib.org/</dc:title>
     </cc:Agent>
    </dc:creator>
   </cc:Work>
  </rdf:RDF>
 </metadata>
 <defs>
  <style type="text/css">*{stroke-linejoin: round; stroke-linecap: butt}</style>
 </defs>
 <g id="figure_1">
  <g id="patch_1">
   <path d="M 0 345.6 
L 460.8 345.6 
L 460.8 0 
L 0 0 
z
" style="fill: #ffffff"/>
  </g>
  <g id="axes_1">
   <g id="patch_2">
    <path d="M 48.121091 301.660619 
Q 220.879047 238.712376 392.586532 176.146896 
" clip-path="url(#pe15b1c9a96)" style="fill: none; stroke: #4c4c4c; stroke-linecap: round"/>
    <path d="M 391.253634 175.993978 
L 392.586532 176.146896 
L 391.664459 177.121463 
" clip-path="url(#pe15b1c9a96)" style="fill: none; stroke: #4c4c4c; stroke-linecap: round"/>
   </g>
   <g id="patch_3">
    <path d="M 47.487552 308.951909 
Q 49.506302 310.116573 50.556628 310.72253 
" clip-path="url(#pe15b1c9a96)" style="fill: none; stroke: #4c4c4c; stroke-linecap: round"/>
    <path d="M 49.817039 309.603152 
L 50.556628 310.72253 
L 49.217372 310.642574 
" clip-path="url(#pe15b1c9a96)" style="fill: none; stroke: #4c4c4c; stroke-linecap: round"/>
   </g>
   <g id="patch_4">
    <path d="M 47.487552 300.297169 
Q 49.506302 299.132505 50.556628 298.526548 
" clip-path="url(#pe15b1c9a96)" style="fill: none; stroke: #4c4c4c; stroke-linecap: round"/>
    <path d="M 49.217372 298.606504 
L 50.556628 298.526548 
L 49.817039 299.645926 
" clip-path="url(#pe15b1c9a96)" style="fill: none; stroke: #4c4c4c; stroke-linecap: round"/>
   </g>
   <g id="patch_5">
    <path d="M 41.130953 296.043218 
Q 49.507405 233.219827 57.736094 171.504663 
" clip-path="url(#pe15b1c9a96)" style="fill: none; stroke: #4c4c4c; stroke-linecap: round"/>
    <path d="M 56.98276 172.614838 
L 57.736094 171.504663 
L 58.172234 172.773435 
" clip-path="url(#pe15b1c9a96)" style="fill: none; stroke: #4c4c4c; stroke-linecap: round"/>
   </g>
   <g id="patch_6">
    <path d="M 41.624884 296.118984 
Q 49.507795 255.188485 57.179266 215.355845 
" clip-path="url(#pe15b1c9a96)" style="fill: none; stroke: #4c4c4c; stroke-linecap: round"/>
    <path d="M 56.363153 216.42072 
L 57.179266 215.355845 
L 57.541498 216.64766 
" clip-path="url(#pe15b1c9a96)" style="fill: none; stroke: #4c4c4c; stroke-linecap: round"/>
   </g>
   <g id="patch_7">
    <path d="M 48.275662 280.136915 
Q 220.879899 227.726721 392.414332 175.641367 
" clip-path="url(#pe15b1c9a96)" style="fill: none; stroke: #4c4c4c; stroke-linecap: round"/>
    <path d="M 391.091772 175.415904 
L 392.414332 175.641367 
L 391.440426 176.564138 
" clip-path="url(#pe15b1c9a96)" style="fill: none; stroke: #4c4c4c; stroke-linecap: round"/>
   </g>
   <g id="patch_8">
    <path d="M 44.317097 275.158998 
Q 49.505994 266.178215 54.135563 258.165499 
" clip-path="url(#pe15b1c9a96)" style="fill: none; stroke: #4c4c4c; stroke-linecap: round"/>
    <path d="M 53.015711 258.904371 
L 54.135563 258.165499 
L 54.054749 259.504704 
" clip-path="url(#pe15b1c9a96)" style="fill: none; stroke: #4c4c4c; stroke-linecap: round"/>
   </g>
   <g id="patch_9">
    <path d="M 47.487552 278.326413 
Q 49.506302 277.161749 50.556628 276.555792 
" clip-path="url(#pe15b1c9a96)" style="fill: none; stroke: #4c4c4c; stroke-linecap: round"/>
    <path d="M 49.217372 276.635747 
L 50.556628 276.555792 
L 49.817039 277.67517 
" clip-path="url(#pe15b1c9a96)" style="fill: none; stroke: #4c4c4c; stroke-linecap: round"/>
   </g>
   <g id="patch_10">
    <path d="M 40.637313 274.021672 
Q 49.507326 156.323422 58.293319 39.740045 
" clip-path="url(#pe15b1c9a96)" style="fill: none; stroke: #4c4c4c; stroke-linecap: round"/>
    <path d="M 57.604837 40.891562 
L 58.293319 39.740045 
L 58.801444 40.981741 
" clip-path="url(#pe15b1c9a96)" style="fill: none; stroke: #4c4c4c; stroke-linecap: round"/>
   </g>
   <g id="patch_11">
    <path d="M 48.402631 258.638689 
Q 220.880168 216.741312 392.271266 175.107847 
" clip-path="url(#pe15b1c9a96)" style="fill: none; stroke: #4c4c4c; stroke-linecap: round"/>
    <path d="M 390.963546 174.808063 
L 392.271266 175.107847 
L 391.246807 175.974152 
" clip-path="url(#pe15b1c9a96)" style="fill: none; stroke: #4c4c4c; stroke-linecap: round"/>
   </g>
   <g id="patch_12">
    <path d="M 44.317097 253.188241 
Q 49.505994 244.207459 54.135563 236.194743 
" clip-path="url(#pe15b1c9a96)" style="fill: none; stroke: #4c4c4c; stroke-linecap: round"/>
    <path d="M 53.015711 236.933614 
L 54.135563 236.194743 
L 54.054749 237.533947 
" clip-path="url(#pe15b1c9a96)" style="fill: none; stroke: #4c4c4c; stroke-linecap: round"/>
   </g>
   <g id="patch_13">
    <path d="M 48.072133 257.573274 
Q 154.236507 216.740822 259.357369 176.309721 
" clip-path="url(#pe15b1c9a96)" style="fill: none; stroke: #4c4c4c; stroke-linecap: round"/>
    <path d="M 258.021967 176.180489 
L 259.357369 176.309721 
L 258.452742 177.300504 
" clip-path="url(#pe15b1c9a96)" style="fill: none; stroke: #4c4c4c; stroke-linecap: round"/>
   </g>
   <g id="patch_14">
    <path d="M 48.452169 236.880814 
Q 192.317457 205.756113 335.089991 174.867824 
" clip-path="url(#pe15b1c9a96)" style="fill: none; stroke: #4c4c4c; stroke-linecap: round"/>
    <path d="M 333.790253 174.535136 
L 335.089991 174.867824 
L 334.043998 175.708002 
" clip-path="url(#pe15b1c9a96)" style="fill: none; stroke: #4c4c4c; stroke-linecap: round"/>
   </g>
   <g id="patch_15">
    <path d="M 40.773289 230.090886 
Q 49.507247 134.353265 58.139632 39.729054 
" clip-path="url(#pe15b1c9a96)" style="fill: none; stroke: #4c4c4c; stroke-linecap: round"/>
    <path d="M 57.433092 40.869581 
L 58.139632 39.729054 
L 58.628129 40.978602 
" clip-path="url(#pe15b1c9a96)" style="fill: none; stroke: #4c4c4c; stroke-linecap: round"/>
   </g>
   <g id="patch_16">
    <path d="M 48.584804 215.697218 
Q 220.879112 194.770784 392.063543 173.979153 
" clip-path="url(#pe15b1c9a96)" style="fill: none; stroke: #4c4c4c; stroke-linecap: round"/>
    <path d="M 390.799954 173.528216 
L 392.063543 173.979153 
L 390.94464 174.719461 
" clip-path="url(#pe15b1c9a96)" style="fill: none; stroke: #4c4c4c; stroke-linecap: round"/>
   </g>
   <g id="patch_17">
    <path d="M 48.550665 215.423992 
Q 182.798256 194.770516 315.940813 174.287046 
" clip-path="url(#pe15b1c9a96)" style="fill: none; stroke: #4c4c4c; stroke-linecap: round"/>
    <path d="M 314.663533 173.876491 
L 315.940813 174.287046 
L 314.846002 175.062538 
" clip-path="url(#pe15b1c9a96)" style="fill: none; stroke: #4c4c4c; stroke-linecap: round"/>
   </g>
   <g id="patch_18">
    <path d="M 47.487552 212.414143 
Q 49.506302 211.249479 50.556628 210.643522 
" clip-path="url(#pe15b1c9a96)" style="fill: none; stroke: #4c4c4c; stroke-linecap: round"/>
    <path d="M 49.217372 210.723478 
L 50.556628 210.643522 
L 49.817039 211.7629 
" clip-path="url(#pe15b1c9a96)" style="fill: none; stroke: #4c4c4c; stroke-linecap: round"/>
   </g>
   <g id="patch_19">
    <path d="M 40.865102 208.12717 
Q 49.507464 123.365545 58.036418 39.716187 
" clip-path="url(#pe15b1c9a96)" style="fill: none; stroke: #4c4c4c; stroke-linecap: round"/>
    <path d="M 57.317791 40.849137 
L 58.036418 39.716187 
L 58.511601 40.970859 
" clip-path="url(#pe15b1c9a96)" style="fill: none; stroke: #4c4c4c; stroke-linecap: round"/>
   </g>
   <g id="patch_20">
    <path d="M 47.487552 190.443386 
Q 49.506302 189.278723 50.556628 188.672766 
" clip-path="url(#pe15b1c9a96)" style="fill: none; stroke: #4c4c4c; stroke-linecap: round"/>
    <path d="M 49.217372 188.752721 
L 50.556628 188.672766 
L 49.817039 189.792144 
" clip-path="url(#pe15b1c9a96)" style="fill: none; stroke: #4c4c4c; stroke-linecap: round"/>
   </g>
   <g id="patch_21">
    <path d="M 42.823683 186.587374 
Q 49.507114 167.308244 55.824342 149.085474 
" clip-path="url(#pe15b1c9a96)" style="fill: none; stroke: #4c4c4c; stroke-linecap: round"/>
    <path d="M 54.864388 150.022751 
L 55.824342 149.085474 
L 55.998191 150.415803 
" clip-path="url(#pe15b1c9a96)" style="fill: none; stroke: #4c4c4c; stroke-linecap: round"/>
   </g>
   <g id="patch_22">
    <path d="M 44.317097 187.275971 
Q 49.505994 178.295189 54.135563 170.282473 
" clip-path="url(#pe15b1c9a96)" style="fill: none; stroke: #4c4c4c; stroke-linecap: round"/>
    <path d="M 53.015711 171.021345 
L 54.135563 170.282473 
L 54.054749 171.621678 
" clip-path="url(#pe15b1c9a96)" style="fill: none; stroke: #4c4c4c; stroke-linecap: round"/>
   </g>
   <g id="patch_23">
    <path d="M 48.394641 192.691889 
Q 106.633624 178.29214 163.787257 164.160748 
" clip-path="url(#pe15b1c9a96)" style="fill: none; stroke: #4c4c4c; stroke-linecap: round"/>
    <path d="M 162.478322 163.866317 
L 163.787257 164.160748 
L 162.766351 165.031238 
" clip-path="url(#pe15b1c9a96)" style="fill: none; stroke: #4c4c4c; stroke-linecap: round"/>
   </g>
   <g id="patch_24">
    <path d="M 41.334336 186.218937 
Q 49.507064 134.353549 57.505764 83.592567 
" clip-path="url(#pe15b1c9a96)" style="fill: none; stroke: #4c4c4c; stroke-linecap: round"/>
    <path d="M 56.726291 84.684547 
L 57.505764 83.592567 
L 57.911665 84.871333 
" clip-path="url(#pe15b1c9a96)" style="fill: none; stroke: #4c4c4c; stroke-linecap: round"/>
   </g>
   <g id="patch_25">
    <path d="M 48.645529 172.8 
Q 220.877884 172.8 391.992205 172.8 
" clip-path="url(#pe15b1c9a96)" style="fill: none; stroke: #4c4c4c; stroke-linecap: round"/>
    <path d="M 390.792205 172.2 
L 391.992205 172.8 
L 390.792205 173.4 
" clip-path="url(#pe15b1c9a96)" style="fill: none; stroke: #4c4c4c; stroke-linecap: round"/>
   </g>
   <g id="patch_26">
    <path d="M 41.130953 164.218679 
Q 49.507405 101.395288 57.736094 39.680124 
" clip-path="url(#pe15b1c9a96)" style="fill: none; stroke: #4c4c4c; stroke-linecap: round"/>
    <path d="M 56.98276 40.790299 
L 57.736094 39.680124 
L 58.172234 40.948896 
" clip-path="url(#pe15b1c9a96)" style="fill: none; stroke: #4c4c4c; stroke-linecap: round"/>
   </g>
   <g id="patch_27">
    <path d="M 48.647998 172.8 
Q 230.399113 172.8 411.032194 172.8 
" clip-path="url(#pe15b1c9a96)" style="fill: none; stroke: #4c4c4c; stroke-linecap: round"/>
    <path d="M 409.832194 172.2 
L 411.032194 172.8 
L 409.832194 173.4 
" clip-path="url(#pe15b1c9a96)" style="fill: none; stroke: #4c4c4c; stroke-linecap: round"/>
   </g>
   <g id="patch_28">
    <path d="M 41.624884 164.294445 
Q 49.507795 123.363946 57.179266 83.531306 
" clip-path="url(#pe15b1c9a96)" style="fill: none; stroke: #4c4c4c; stroke-linecap: round"/>
    <path d="M 56.363153 84.596181 
L 57.179266 83.531306 
L 57.541498 84.823121 
" clip-path="url(#pe15b1c9a96)" style="fill: none; stroke: #4c4c4c; stroke-linecap: round"/>
   </g>
   <g id="patch_29">
    <path d="M 48.628968 151.354073 
Q 220.877483 161.814509 392.010021 172.207173 
" clip-path="url(#pe15b1c9a96)" style="fill: none; stroke: #4c4c4c; stroke-linecap: round"/>
    <path d="M 390.848598 171.535536 
L 392.010021 172.207173 
L 390.775857 172.733329 
" clip-path="url(#pe15b1c9a96)" style="fill: none; stroke: #4c4c4c; stroke-linecap: round"/>
   </g>
   <g id="patch_30">
    <path d="M 48.630566 151.327924 
Q 230.398712 161.814547 411.050681 172.236776 
" clip-path="url(#pe15b1c9a96)" style="fill: none; stroke: #4c4c4c; stroke-linecap: round"/>
    <path d="M 409.887231 171.568657 
L 411.050681 172.236776 
L 409.818116 172.766665 
" clip-path="url(#pe15b1c9a96)" style="fill: none; stroke: #4c4c4c; stroke-linecap: round"/>
   </g>
   <g id="patch_31">
    <path d="M 48.620396 151.493368 
Q 182.796161 161.814581 315.857184 172.050044 
" clip-path="url(#pe15b1c9a96)" style="fill: none; stroke: #4c4c4c; stroke-linecap: round"/>
    <path d="M 314.706736 171.359776 
L 315.857184 172.050044 
L 314.614701 172.556241 
" clip-path="url(#pe15b1c9a96)" style="fill: none; stroke: #4c4c4c; stroke-linecap: round"/>
   </g>
   <g id="patch_32">
    <path d="M 48.584804 129.902782 
Q 220.879112 150.829216 392.063543 171.620847 
" clip-path="url(#pe15b1c9a96)" style="fill: none; stroke: #4c4c4c; stroke-linecap: round"/>
    <path d="M 390.94464 170.880539 
L 392.063543 171.620847 
L 390.799954 172.071784 
" clip-path="url(#pe15b1c9a96)" style="fill: none; stroke: #4c4c4c; stroke-linecap: round"/>
   </g>
   <g id="patch_33">
    <path d="M 48.303409 131.257515 
Q 116.150556 150.828808 182.923469 170.090225 
" clip-path="url(#pe15b1c9a96)" style="fill: none; stroke: #4c4c4c; stroke-linecap: round"/>
    <path d="M 181.936777 169.181138 
L 182.923469 170.090225 
L 181.604184 170.334126 
" clip-path="url(#pe15b1c9a96)" style="fill: none; stroke: #4c4c4c; stroke-linecap: round"/>
   </g>
   <g id="patch_34">
    <path d="M 42.068259 98.481744 
Q 49.507339 68.439305 56.677689 39.482123 
" clip-path="url(#pe15b1c9a96)" style="fill: none; stroke: #4c4c4c; stroke-linecap: round"/>
    <path d="M 55.806847 40.502728 
L 56.677689 39.482123 
L 56.971668 40.79116 
" clip-path="url(#pe15b1c9a96)" style="fill: none; stroke: #4c4c4c; stroke-linecap: round"/>
   </g>
   <g id="patch_35">
    <path d="M 47.487552 111.215101 
Q 49.506302 112.379764 50.556628 112.985721 
" clip-path="url(#pe15b1c9a96)" style="fill: none; stroke: #4c4c4c; stroke-linecap: round"/>
    <path d="M 49.817039 111.866343 
L 50.556628 112.985721 
L 49.217372 112.905766 
" clip-path="url(#pe15b1c9a96)" style="fill: none; stroke: #4c4c4c; stroke-linecap: round"/>
   </g>
   <g id="patch_36">
    <path d="M 46.078977 113.03851 
Q 78.069284 145.336416 109.272813 176.839979 
" clip-path="url(#pe15b1c9a96)" style="fill: none; stroke: #4c4c4c; stroke-linecap: round"/>
    <path d="M 108.854644 175.565171 
L 109.272813 176.839979 
L 108.002065 176.409629 
" clip-path="url(#pe15b1c9a96)" style="fill: none; stroke: #4c4c4c; stroke-linecap: round"/>
   </g>
   <g id="patch_37">
    <path d="M 46.534556 112.554078 
Q 59.027051 123.364891 70.674124 133.444089 
" clip-path="url(#pe15b1c9a96)" style="fill: none; stroke: #4c4c4c; stroke-linecap: round"/>
    <path d="M 70.159348 132.205136 
L 70.674124 133.444089 
L 69.374096 133.112538 
" clip-path="url(#pe15b1c9a96)" style="fill: none; stroke: #4c4c4c; stroke-linecap: round"/>
   </g>
   <g id="patch_38">
    <path d="M 47.487552 89.244344 
Q 49.506302 90.409008 50.556628 91.014965 
" clip-path="url(#pe15b1c9a96)" style="fill: none; stroke: #4c4c4c; stroke-linecap: round"/>
    <path d="M 49.817039 89.895587 
L 50.556628 91.014965 
L 49.217372 90.935009 
" clip-path="url(#pe15b1c9a96)" style="fill: none; stroke: #4c4c4c; stroke-linecap: round"/>
   </g>
   <g id="patch_39">
    <path d="M 42.823683 76.733591 
Q 49.507114 57.454462 55.824342 39.231691 
" clip-path="url(#pe15b1c9a96)" style="fill: none; stroke: #4c4c4c; stroke-linecap: round"/>
    <path d="M 54.864388 40.168969 
L 55.824342 39.231691 
L 55.998191 40.56202 
" clip-path="url(#pe15b1c9a96)" style="fill: none; stroke: #4c4c4c; stroke-linecap: round"/>
   </g>
   <g id="patch_40">
    <path d="M 48.09959 65.974756 
Q 201.838555 123.365999 354.530088 180.366232 
" clip-path="url(#pe15b1c9a96)" style="fill: none; stroke: #4c4c4c; stroke-linecap: round"/>
    <path d="M 353.615705 179.384446 
L 354.530088 180.366232 
L 353.19603 180.508667 
" clip-path="url(#pe15b1c9a96)" style="fill: none; stroke: #4c4c4c; stroke-linecap: round"/>
   </g>
   <g id="patch_41">
    <path d="M 48.275662 65.463085 
Q 220.879899 117.873279 392.414332 169.958633 
" clip-path="url(#pe15b1c9a96)" style="fill: none; stroke: #4c4c4c; stroke-linecap: round"/>
    <path d="M 391.440426 169.035862 
L 392.414332 169.958633 
L 391.091772 170.184096 
" clip-path="url(#pe15b1c9a96)" style="fill: none; stroke: #4c4c4c; stroke-linecap: round"/>
   </g>
   <g id="patch_42">
    <path d="M 47.487552 45.302831 
Q 49.506302 46.467495 50.556628 47.073452 
" clip-path="url(#pe15b1c9a96)" style="fill: none; stroke: #4c4c4c; stroke-linecap: round"/>
    <path d="M 49.817039 45.954074 
L 50.556628 47.073452 
L 49.217372 46.993496 
" clip-path="url(#pe15b1c9a96)" style="fill: none; stroke: #4c4c4c; stroke-linecap: round"/>
   </g>
   <g id="patch_43">
    <path d="M 64.699006 36.533436 
Q 116.151985 95.902259 166.87273 154.426195 
" clip-path="url(#pe15b1c9a96)" style="fill: none; stroke: #4c4c4c; stroke-linecap: round"/>
    <path d="M 166.540226 153.12641 
L 166.87273 154.426195 
L 165.6334 153.912326 
" clip-path="url(#pe15b1c9a96)" style="fill: none; stroke: #4c4c4c; stroke-linecap: round"/>
   </g>
   <g id="patch_44">
    <path d="M 67.686125 183.507877 
Q 230.402302 178.292615 392.00102 173.113169 
" clip-path="url(#pe15b1c9a96)" style="fill: none; stroke: #4c4c4c; stroke-linecap: round"/>
    <path d="M 390.782415 172.551919 
L 392.00102 173.113169 
L 390.820856 173.751303 
" clip-path="url(#pe15b1c9a96)" style="fill: none; stroke: #4c4c4c; stroke-linecap: round"/>
   </g>
   <g id="patch_45">
    <path d="M 67.68874 183.785378 
Q 211.359828 183.785378 353.912882 183.785378 
" clip-path="url(#pe15b1c9a96)" style="fill: none; stroke: #4c4c4c; stroke-linecap: round"/>
    <path d="M 352.712882 183.185378 
L 353.912882 183.785378 
L 352.712882 184.385378 
" clip-path="url(#pe15b1c9a96)" style="fill: none; stroke: #4c4c4c; stroke-linecap: round"/>
   </g>
   <g id="patch_46">
    <path d="M 67.655617 183.074319 
Q 125.670424 178.292879 182.570974 173.603273 
" clip-path="url(#pe15b1c9a96)" style="fill: none; stroke: #4c4c4c; stroke-linecap: round"/>
    <path d="M 181.325745 173.103868 
L 182.570974 173.603273 
L 181.424312 174.299813 
" clip-path="url(#pe15b1c9a96)" style="fill: none; stroke: #4c4c4c; stroke-linecap: round"/>
   </g>
   <g id="patch_47">
    <path d="M 67.623076 204.693569 
Q 192.318136 189.277971 315.903609 173.999547 
" clip-path="url(#pe15b1c9a96)" style="fill: none; stroke: #4c4c4c; stroke-linecap: round"/>
    <path d="M 314.63906 173.551311 
L 315.903609 173.999547 
L 314.786291 174.742245 
" clip-path="url(#pe15b1c9a96)" style="fill: none; stroke: #4c4c4c; stroke-linecap: round"/>
   </g>
   <g id="patch_48">
    <path d="M 67.68874 205.756135 
Q 68.54915 205.756135 68.291527 205.756135 
" clip-path="url(#pe15b1c9a96)" style="fill: none; stroke: #4c4c4c; stroke-linecap: round"/>
    <path d="M 67.091527 205.156135 
L 68.291527 205.756135 
L 67.091527 206.356135 
" clip-path="url(#pe15b1c9a96)" style="fill: none; stroke: #4c4c4c; stroke-linecap: round"/>
   </g>
   <g id="patch_49">
    <path d="M 67.435963 203.677267 
Q 125.674946 189.277519 182.828579 175.146126 
" clip-path="url(#pe15b1c9a96)" style="fill: none; stroke: #4c4c4c; stroke-linecap: round"/>
    <path d="M 181.519644 174.851696 
L 182.828579 175.146126 
L 181.807674 176.016616 
" clip-path="url(#pe15b1c9a96)" style="fill: none; stroke: #4c4c4c; stroke-linecap: round"/>
   </g>
   <g id="patch_50">
    <path d="M 64.701911 199.209429 
Q 68.551271 194.767859 71.668396 191.171176 
" clip-path="url(#pe15b1c9a96)" style="fill: none; stroke: #4c4c4c; stroke-linecap: round"/>
    <path d="M 70.429066 191.685045 
L 71.668396 191.171176 
L 71.335893 192.470962 
" clip-path="url(#pe15b1c9a96)" style="fill: none; stroke: #4c4c4c; stroke-linecap: round"/>
   </g>
   <g id="patch_51">
    <path d="M 67.631211 162.807289 
Q 106.631594 167.307333 144.521312 171.679223 
" clip-path="url(#pe15b1c9a96)" style="fill: none; stroke: #4c4c4c; stroke-linecap: round"/>
    <path d="M 143.397995 170.945629 
L 144.521312 171.679223 
L 143.260447 172.13772 
" clip-path="url(#pe15b1c9a96)" style="fill: none; stroke: #4c4c4c; stroke-linecap: round"/>
   </g>
   <g id="patch_52">
    <path d="M 67.476931 97.797923 
Q 230.399565 134.351079 392.231285 170.659477 
" clip-path="url(#pe15b1c9a96)" style="fill: none; stroke: #4c4c4c; stroke-linecap: round"/>
    <path d="M 391.191743 169.811331 
L 392.231285 170.659477 
L 390.929043 170.982223 
" clip-path="url(#pe15b1c9a96)" style="fill: none; stroke: #4c4c4c; stroke-linecap: round"/>
   </g>
   <g id="patch_53">
    <path d="M 67.635569 140.837035 
Q 201.840908 156.322266 334.935582 171.679344 
" clip-path="url(#pe15b1c9a96)" style="fill: none; stroke: #4c4c4c; stroke-linecap: round"/>
    <path d="M 333.812266 170.94575 
L 334.935582 171.679344 
L 333.674717 172.13784 
" clip-path="url(#pe15b1c9a96)" style="fill: none; stroke: #4c4c4c; stroke-linecap: round"/>
   </g>
   <g id="patch_54">
    <path d="M 67.581528 119.24385 
Q 230.402192 145.336906 392.118909 171.253046 
" clip-path="url(#pe15b1c9a96)" style="fill: none; stroke: #4c4c4c; stroke-linecap: round"/>
    <path d="M 391.02897 170.470721 
L 392.118909 171.253046 
L 390.839085 171.655602 
" clip-path="url(#pe15b1c9a96)" style="fill: none; stroke: #4c4c4c; stroke-linecap: round"/>
   </g>
   <g id="patch_55">
    <path d="M 66.772643 311.737645 
Q 201.837012 244.205461 335.90138 177.173277 
" clip-path="url(#pe15b1c9a96)" style="fill: none; stroke: #4c4c4c; stroke-linecap: round"/>
    <path d="M 334.559739 177.173277 
L 335.90138 177.173277 
L 335.096396 178.24659 
" clip-path="url(#pe15b1c9a96)" style="fill: none; stroke: #4c4c4c; stroke-linecap: round"/>
   </g>
   <g id="patch_56">
    <path d="M 61.43267 219.403375 
Q 68.549288 194.768928 75.355608 171.208592 
" clip-path="url(#pe15b1c9a96)" style="fill: none; stroke: #4c4c4c; stroke-linecap: round"/>
    <path d="M 74.446132 172.194926 
L 75.355608 171.208592 
L 75.598989 172.527973 
" clip-path="url(#pe15b1c9a96)" style="fill: none; stroke: #4c4c4c; stroke-linecap: round"/>
   </g>
   <g id="patch_57">
    <path d="M 67.007987 55.336945 
Q 201.839343 112.380981 335.641027 168.989386 
" clip-path="url(#pe15b1c9a96)" style="fill: none; stroke: #4c4c4c; stroke-linecap: round"/>
    <path d="M 334.76965 167.969237 
L 335.641027 168.989386 
L 334.302082 169.074398 
" clip-path="url(#pe15b1c9a96)" style="fill: none; stroke: #4c4c4c; stroke-linecap: round"/>
   </g>
   <g id="patch_58">
    <path d="M 67.177376 290.70072 
Q 211.359083 238.712123 354.489039 187.102764 
" clip-path="url(#pe15b1c9a96)" style="fill: none; stroke: #4c4c4c; stroke-linecap: round"/>
    <path d="M 353.156662 186.945375 
L 354.489039 187.102764 
L 353.563702 188.074233 
" clip-path="url(#pe15b1c9a96)" style="fill: none; stroke: #4c4c4c; stroke-linecap: round"/>
   </g>
   <g id="patch_59">
    <path d="M 61.43267 82.255112 
Q 68.549288 106.889559 75.355608 130.449895 
" clip-path="url(#pe15b1c9a96)" style="fill: none; stroke: #4c4c4c; stroke-linecap: round"/>
    <path d="M 75.598989 129.130514 
L 75.355608 130.449895 
L 74.446132 129.463561 
" clip-path="url(#pe15b1c9a96)" style="fill: none; stroke: #4c4c4c; stroke-linecap: round"/>
   </g>
   <g id="patch_60">
    <path d="M 67.39151 247.44596 
Q 201.837776 211.248889 335.204452 175.342476 
" clip-path="url(#pe15b1c9a96)" style="fill: none; stroke: #4c4c4c; stroke-linecap: round"/>
    <path d="M 333.889729 175.075075 
L 335.204452 175.342476 
L 334.201697 176.233814 
" clip-path="url(#pe15b1c9a96)" style="fill: none; stroke: #4c4c4c; stroke-linecap: round"/>
   </g>
   <g id="patch_61">
    <path d="M 82.399742 169.309407 
Q 87.588638 178.290189 92.218207 186.302905 
" clip-path="url(#pe15b1c9a96)" style="fill: none; stroke: #4c4c4c; stroke-linecap: round"/>
    <path d="M 92.137393 184.963701 
L 92.218207 186.302905 
L 91.098355 185.564034 
" clip-path="url(#pe15b1c9a96)" style="fill: none; stroke: #4c4c4c; stroke-linecap: round"/>
   </g>
   <g id="patch_62">
    <path d="M 86.721346 162.171157 
Q 211.357395 167.307258 334.876359 172.397325 
" clip-path="url(#pe15b1c9a96)" style="fill: none; stroke: #4c4c4c; stroke-linecap: round"/>
    <path d="M 333.702081 171.748425 
L 334.876359 172.397325 
L 333.652673 172.947408 
" clip-path="url(#pe15b1c9a96)" style="fill: none; stroke: #4c4c4c; stroke-linecap: round"/>
   </g>
   <g id="patch_63">
    <path d="M 85.570196 166.141992 
Q 87.588947 167.306656 88.639272 167.912613 
" clip-path="url(#pe15b1c9a96)" style="fill: none; stroke: #4c4c4c; stroke-linecap: round"/>
    <path d="M 87.899683 166.793234 
L 88.639272 167.912613 
L 87.300016 167.832657 
" clip-path="url(#pe15b1c9a96)" style="fill: none; stroke: #4c4c4c; stroke-linecap: round"/>
   </g>
   <g id="patch_64">
    <path d="M 85.570196 144.171235 
Q 87.588947 145.335899 88.639272 145.941856 
" clip-path="url(#pe15b1c9a96)" style="fill: none; stroke: #4c4c4c; stroke-linecap: round"/>
    <path d="M 87.899683 144.822478 
L 88.639272 145.941856 
L 87.300016 145.861901 
" clip-path="url(#pe15b1c9a96)" style="fill: none; stroke: #4c4c4c; stroke-linecap: round"/>
   </g>
   <g id="patch_65">
    <path d="M 86.642898 204.519576 
Q 192.317124 189.278101 296.884766 174.196229 
" clip-path="url(#pe15b1c9a96)" style="fill: none; stroke: #4c4c4c; stroke-linecap: round"/>
    <path d="M 295.611404 173.773679 
L 296.884766 174.196229 
L 295.782708 174.961389 
" clip-path="url(#pe15b1c9a96)" style="fill: none; stroke: #4c4c4c; stroke-linecap: round"/>
   </g>
   <g id="patch_66">
    <path d="M 86.509827 181.837592 
Q 125.67351 172.799819 163.747791 164.013447 
" clip-path="url(#pe15b1c9a96)" style="fill: none; stroke: #4c4c4c; stroke-linecap: round"/>
    <path d="M 162.443606 163.698644 
L 163.747791 164.013447 
L 162.713437 164.867913 
" clip-path="url(#pe15b1c9a96)" style="fill: none; stroke: #4c4c4c; stroke-linecap: round"/>
   </g>
   <g id="patch_67">
    <path d="M 105.1961 153.938996 
Q 125.673252 161.814824 145.106892 169.2893 
" clip-path="url(#pe15b1c9a96)" style="fill: none; stroke: #4c4c4c; stroke-linecap: round"/>
    <path d="M 144.202264 168.298518 
L 145.106892 169.2893 
L 143.771489 169.418533 
" clip-path="url(#pe15b1c9a96)" style="fill: none; stroke: #4c4c4c; stroke-linecap: round"/>
   </g>
   <g id="patch_68">
    <path d="M 101.441064 187.275971 
Q 106.629961 178.295189 111.25953 170.282473 
" clip-path="url(#pe15b1c9a96)" style="fill: none; stroke: #4c4c4c; stroke-linecap: round"/>
    <path d="M 110.139678 171.021345 
L 111.25953 170.282473 
L 111.178716 171.621678 
" clip-path="url(#pe15b1c9a96)" style="fill: none; stroke: #4c4c4c; stroke-linecap: round"/>
   </g>
   <g id="patch_69">
    <path d="M 104.611519 190.443386 
Q 106.630269 189.278723 107.680595 188.672766 
" clip-path="url(#pe15b1c9a96)" style="fill: none; stroke: #4c4c4c; stroke-linecap: round"/>
    <path d="M 106.341339 188.752721 
L 107.680595 188.672766 
L 106.941006 189.792144 
" clip-path="url(#pe15b1c9a96)" style="fill: none; stroke: #4c4c4c; stroke-linecap: round"/>
   </g>
   <g id="patch_70">
    <path d="M 105.771965 172.8 
Q 144.714486 172.8 182.538972 172.8 
" clip-path="url(#pe15b1c9a96)" style="fill: none; stroke: #4c4c4c; stroke-linecap: round"/>
    <path d="M 181.338972 172.2 
L 182.538972 172.8 
L 181.338972 173.4 
" clip-path="url(#pe15b1c9a96)" style="fill: none; stroke: #4c4c4c; stroke-linecap: round"/>
   </g>
   <g id="patch_71">
    <path d="M 124.802247 183.369504 
Q 230.399361 178.29272 334.879731 173.269625 
" clip-path="url(#pe15b1c9a96)" style="fill: none; stroke: #4c4c4c; stroke-linecap: round"/>
    <path d="M 333.652302 172.727943 
L 334.879731 173.269625 
L 333.709928 173.926559 
" clip-path="url(#pe15b1c9a96)" style="fill: none; stroke: #4c4c4c; stroke-linecap: round"/>
   </g>
   <g id="patch_72">
    <path d="M 124.812707 161.814622 
Q 125.673117 161.814622 125.415494 161.814622 
" clip-path="url(#pe15b1c9a96)" style="fill: none; stroke: #4c4c4c; stroke-linecap: round"/>
    <path d="M 124.215494 161.214622 
L 125.415494 161.814622 
L 124.215494 162.414622 
" clip-path="url(#pe15b1c9a96)" style="fill: none; stroke: #4c4c4c; stroke-linecap: round"/>
   </g>
   <g id="patch_73">
    <path d="M 121.825878 168.361328 
Q 125.675238 172.802897 128.792363 176.39958 
" clip-path="url(#pe15b1c9a96)" style="fill: none; stroke: #4c4c4c; stroke-linecap: round"/>
    <path d="M 128.45986 175.099795 
L 128.792363 176.39958 
L 127.553033 175.885712 
" clip-path="url(#pe15b1c9a96)" style="fill: none; stroke: #4c4c4c; stroke-linecap: round"/>
   </g>
   <g id="patch_74">
    <path d="M 143.837177 183.286698 
Q 230.399268 178.292731 315.84518 173.36316 
" clip-path="url(#pe15b1c9a96)" style="fill: none; stroke: #4c4c4c; stroke-linecap: round"/>
    <path d="M 314.612614 172.833271 
L 315.84518 173.36316 
L 314.68173 174.031279 
" clip-path="url(#pe15b1c9a96)" style="fill: none; stroke: #4c4c4c; stroke-linecap: round"/>
   </g>
   <g id="patch_75">
    <path d="M 142.694163 166.141992 
Q 144.712914 167.306656 145.763239 167.912613 
" clip-path="url(#pe15b1c9a96)" style="fill: none; stroke: #4c4c4c; stroke-linecap: round"/>
    <path d="M 145.02365 166.793234 
L 145.763239 167.912613 
L 144.423983 167.832657 
" clip-path="url(#pe15b1c9a96)" style="fill: none; stroke: #4c4c4c; stroke-linecap: round"/>
   </g>
   <g id="patch_76">
    <path d="M 161.735486 177.12737 
Q 163.754236 178.292034 164.804562 178.897991 
" clip-path="url(#pe15b1c9a96)" style="fill: none; stroke: #4c4c4c; stroke-linecap: round"/>
    <path d="M 164.064973 177.778613 
L 164.804562 178.897991 
L 163.465306 178.818035 
" clip-path="url(#pe15b1c9a96)" style="fill: none; stroke: #4c4c4c; stroke-linecap: round"/>
   </g>
   <g id="patch_77">
    <path d="M 161.735486 168.47263 
Q 163.754236 167.307966 164.804562 166.702009 
" clip-path="url(#pe15b1c9a96)" style="fill: none; stroke: #4c4c4c; stroke-linecap: round"/>
    <path d="M 163.465306 166.781965 
L 164.804562 166.702009 
L 164.064973 167.821387 
" clip-path="url(#pe15b1c9a96)" style="fill: none; stroke: #4c4c4c; stroke-linecap: round"/>
   </g>
   <g id="patch_78">
    <path d="M 181.903551 183.074319 
Q 239.918358 178.292879 296.818908 173.603273 
" clip-path="url(#pe15b1c9a96)" style="fill: none; stroke: #4c4c4c; stroke-linecap: round"/>
    <path d="M 295.573679 173.103868 
L 296.818908 173.603273 
L 295.672246 174.299813 
" clip-path="url(#pe15b1c9a96)" style="fill: none; stroke: #4c4c4c; stroke-linecap: round"/>
   </g>
   <g id="patch_79">
    <path d="M 180.776808 166.141992 
Q 182.795558 167.306656 183.845884 167.912613 
" clip-path="url(#pe15b1c9a96)" style="fill: none; stroke: #4c4c4c; stroke-linecap: round"/>
    <path d="M 183.106295 166.793234 
L 183.845884 167.912613 
L 182.506628 167.832657 
" clip-path="url(#pe15b1c9a96)" style="fill: none; stroke: #4c4c4c; stroke-linecap: round"/>
   </g>
   <g id="patch_80">
    <path d="M 181.903551 162.525681 
Q 239.918358 167.307121 296.818908 171.996727 
" clip-path="url(#pe15b1c9a96)" style="fill: none; stroke: #4c4c4c; stroke-linecap: round"/>
    <path d="M 295.672246 171.300187 
L 296.818908 171.996727 
L 295.573679 172.496132 
" clip-path="url(#pe15b1c9a96)" style="fill: none; stroke: #4c4c4c; stroke-linecap: round"/>
   </g>
   <g id="patch_81">
    <path d="M 200.977996 172.8 
Q 201.838406 172.8 201.580783 172.8 
" clip-path="url(#pe15b1c9a96)" style="fill: none; stroke: #4c4c4c; stroke-linecap: round"/>
    <path d="M 200.380783 172.2 
L 201.580783 172.8 
L 200.380783 173.4 
" clip-path="url(#pe15b1c9a96)" style="fill: none; stroke: #4c4c4c; stroke-linecap: round"/>
   </g>
   <g id="patch_82">
    <path d="M 220.019318 172.8 
Q 220.879729 172.8 220.622105 172.8 
" clip-path="url(#pe15b1c9a96)" style="fill: none; stroke: #4c4c4c; stroke-linecap: round"/>
    <path d="M 219.422105 172.2 
L 220.622105 172.8 
L 219.422105 173.4 
" clip-path="url(#pe15b1c9a96)" style="fill: none; stroke: #4c4c4c; stroke-linecap: round"/>
   </g>
   <g id="patch_83">
    <path d="M 237.900775 168.47263 
Q 239.919525 167.307966 240.969851 166.702009 
" clip-path="url(#pe15b1c9a96)" style="fill: none; stroke: #4c4c4c; stroke-linecap: round"/>
    <path d="M 239.630595 166.781965 
L 240.969851 166.702009 
L 240.230262 167.821387 
" clip-path="url(#pe15b1c9a96)" style="fill: none; stroke: #4c4c4c; stroke-linecap: round"/>
   </g>
   <g id="patch_84">
    <path d="M 239.061222 172.8 
Q 325.60669 172.8 411.034125 172.8 
" clip-path="url(#pe15b1c9a96)" style="fill: none; stroke: #4c4c4c; stroke-linecap: round"/>
    <path d="M 409.834125 172.2 
L 411.034125 172.8 
L 409.834125 173.4 
" clip-path="url(#pe15b1c9a96)" style="fill: none; stroke: #4c4c4c; stroke-linecap: round"/>
   </g>
   <g id="patch_85">
    <path d="M 237.900775 177.12737 
Q 239.919525 178.292034 240.969851 178.897991 
" clip-path="url(#pe15b1c9a96)" style="fill: none; stroke: #4c4c4c; stroke-linecap: round"/>
    <path d="M 240.230262 177.778613 
L 240.969851 178.897991 
L 239.630595 178.818035 
" clip-path="url(#pe15b1c9a96)" style="fill: none; stroke: #4c4c4c; stroke-linecap: round"/>
   </g>
   <g id="patch_86">
    <path d="M 239.058026 172.8 
Q 316.082448 172.8 391.988837 172.8 
" clip-path="url(#pe15b1c9a96)" style="fill: none; stroke: #4c4c4c; stroke-linecap: round"/>
    <path d="M 390.788837 172.2 
L 391.988837 172.8 
L 390.788837 173.4 
" clip-path="url(#pe15b1c9a96)" style="fill: none; stroke: #4c4c4c; stroke-linecap: round"/>
   </g>
   <g id="patch_87">
    <path d="M 258.044434 182.792711 
Q 297.044817 178.292667 334.934535 173.920777 
" clip-path="url(#pe15b1c9a96)" style="fill: none; stroke: #4c4c4c; stroke-linecap: round"/>
    <path d="M 333.67367 173.46228 
L 334.934535 173.920777 
L 333.811219 174.654371 
" clip-path="url(#pe15b1c9a96)" style="fill: none; stroke: #4c4c4c; stroke-linecap: round"/>
   </g>
   <g id="patch_88">
    <path d="M 256.942097 179.458008 
Q 258.960848 178.293344 260.011173 177.687387 
" clip-path="url(#pe15b1c9a96)" style="fill: none; stroke: #4c4c4c; stroke-linecap: round"/>
    <path d="M 258.671917 177.767343 
L 260.011173 177.687387 
L 259.271584 178.806766 
" clip-path="url(#pe15b1c9a96)" style="fill: none; stroke: #4c4c4c; stroke-linecap: round"/>
   </g>
   <g id="patch_89">
    <path d="M 277.143285 172.8 
Q 278.003696 172.8 277.746072 172.8 
" clip-path="url(#pe15b1c9a96)" style="fill: none; stroke: #4c4c4c; stroke-linecap: round"/>
    <path d="M 276.546072 172.2 
L 277.746072 172.8 
L 276.546072 173.4 
" clip-path="url(#pe15b1c9a96)" style="fill: none; stroke: #4c4c4c; stroke-linecap: round"/>
   </g>
   <g id="patch_90">
    <path d="M 277.085757 171.807333 
Q 316.086139 167.307289 353.975857 162.935399 
" clip-path="url(#pe15b1c9a96)" style="fill: none; stroke: #4c4c4c; stroke-linecap: round"/>
    <path d="M 352.714992 162.476902 
L 353.975857 162.935399 
L 352.852541 163.668993 
" clip-path="url(#pe15b1c9a96)" style="fill: none; stroke: #4c4c4c; stroke-linecap: round"/>
   </g>
   <g id="patch_91">
    <path d="M 296.184607 172.8 
Q 297.045018 172.8 296.787394 172.8 
" clip-path="url(#pe15b1c9a96)" style="fill: none; stroke: #4c4c4c; stroke-linecap: round"/>
    <path d="M 295.587394 172.2 
L 296.787394 172.8 
L 295.587394 173.4 
" clip-path="url(#pe15b1c9a96)" style="fill: none; stroke: #4c4c4c; stroke-linecap: round"/>
   </g>
   <g id="patch_92">
    <path d="M 315.22593 172.8 
Q 316.08634 172.8 315.828717 172.8 
" clip-path="url(#pe15b1c9a96)" style="fill: none; stroke: #4c4c4c; stroke-linecap: round"/>
    <path d="M 314.628717 172.2 
L 315.828717 172.8 
L 314.628717 173.4 
" clip-path="url(#pe15b1c9a96)" style="fill: none; stroke: #4c4c4c; stroke-linecap: round"/>
   </g>
   <g id="patch_93">
    <path d="M 315.069034 174.435336 
Q 335.12814 178.292856 354.089329 181.939238 
" clip-path="url(#pe15b1c9a96)" style="fill: none; stroke: #4c4c4c; stroke-linecap: round"/>
    <path d="M 353.02423 181.123418 
L 354.089329 181.939238 
L 352.797613 182.301825 
" clip-path="url(#pe15b1c9a96)" style="fill: none; stroke: #4c4c4c; stroke-linecap: round"/>
   </g>
   <g id="patch_94">
    <path d="M 334.267252 172.8 
Q 335.127663 172.8 334.870039 172.8 
" clip-path="url(#pe15b1c9a96)" style="fill: none; stroke: #4c4c4c; stroke-linecap: round"/>
    <path d="M 333.670039 172.2 
L 334.870039 172.8 
L 333.670039 173.4 
" clip-path="url(#pe15b1c9a96)" style="fill: none; stroke: #4c4c4c; stroke-linecap: round"/>
   </g>
   <g id="patch_95">
    <path d="M 352.148709 168.47263 
Q 354.167459 167.307966 355.217785 166.702009 
" clip-path="url(#pe15b1c9a96)" style="fill: none; stroke: #4c4c4c; stroke-linecap: round"/>
    <path d="M 353.878529 166.781965 
L 355.217785 166.702009 
L 354.478196 167.821387 
" clip-path="url(#pe15b1c9a96)" style="fill: none; stroke: #4c4c4c; stroke-linecap: round"/>
   </g>
   <g id="patch_96">
    <path d="M 352.148709 177.12737 
Q 354.167459 178.292034 355.217785 178.897991 
" clip-path="url(#pe15b1c9a96)" style="fill: none; stroke: #4c4c4c; stroke-linecap: round"/>
    <path d="M 354.478196 177.778613 
L 355.217785 178.897991 
L 353.878529 178.818035 
" clip-path="url(#pe15b1c9a96)" style="fill: none; stroke: #4c4c4c; stroke-linecap: round"/>
   </g>
   <g id="patch_97">
    <path d="M 371.190031 179.458008 
Q 373.208782 178.293344 374.259107 177.687387 
" clip-path="url(#pe15b1c9a96)" style="fill: none; stroke: #4c4c4c; stroke-linecap: round"/>
    <path d="M 372.919851 177.767343 
L 374.259107 177.687387 
L 373.519518 178.806766 
" clip-path="url(#pe15b1c9a96)" style="fill: none; stroke: #4c4c4c; stroke-linecap: round"/>
   </g>
   <g id="patch_98">
    <path d="M 391.391219 172.8 
Q 392.25163 172.8 391.994006 172.8 
" clip-path="url(#pe15b1c9a96)" style="fill: none; stroke: #4c4c4c; stroke-linecap: round"/>
    <path d="M 390.794006 172.2 
L 391.994006 172.8 
L 390.794006 173.4 
" clip-path="url(#pe15b1c9a96)" style="fill: none; stroke: #4c4c4c; stroke-linecap: round"/>
   </g>
   <g id="patch_99">
    <path d="M 410.432541 172.8 
Q 411.292952 172.8 411.035328 172.8 
" clip-path="url(#pe15b1c9a96)" style="fill: none; stroke: #4c4c4c; stroke-linecap: round"/>
    <path d="M 409.835328 172.2 
L 411.035328 172.8 
L 409.835328 173.4 
" clip-path="url(#pe15b1c9a96)" style="fill: none; stroke: #4c4c4c; stroke-linecap: round"/>
   </g>
   <g id="PathCollection_1">
    <path d="M 39.986777 313.284793 
C 42.283503 313.284793 44.486471 312.372294 46.110501 310.748263 
C 47.734532 309.124233 48.647031 306.921265 48.647031 304.624539 
C 48.647031 302.327813 47.734532 300.124845 46.110501 298.500815 
C 44.486471 296.876784 42.283503 295.964285 39.986777 295.964285 
C 37.690051 295.964285 35.487083 296.876784 33.863053 298.500815 
C 32.239022 300.124845 31.326523 302.327813 31.326523 304.624539 
C 31.326523 306.921265 32.239022 309.124233 33.863053 310.748263 
C 35.487083 312.372294 37.690051 313.284793 39.986777 313.284793 
z
" clip-path="url(#pe15b1c9a96)" style="fill: #ffff00; stroke: #000000"/>
    <path d="M 39.986777 291.314037 
C 42.283503 291.314037 44.486471 290.401538 46.110501 288.777507 
C 47.734532 287.153476 48.647031 284.950509 48.647031 282.653783 
C 48.647031 280.357056 47.734532 278.154089 46.110501 276.530058 
C 44.486471 274.906028 42.283503 273.993529 39.986777 273.993529 
C 37.690051 273.993529 35.487083 274.906028 33.863053 276.530058 
C 32.239022 278.154089 31.326523 280.357056 31.326523 282.653783 
C 31.326523 284.950509 32.239022 287.153476 33.863053 288.777507 
C 35.487083 290.401538 37.690051 291.314037 39.986777 291.314037 
z
" clip-path="url(#pe15b1c9a96)" style="fill: #ffff00; stroke: #000000"/>
    <path d="M 39.986777 269.34328 
C 42.283503 269.34328 44.486471 268.430781 46.110501 266.80675 
C 47.734532 265.18272 48.647031 262.979752 48.647031 260.683026 
C 48.647031 258.3863 47.734532 256.183332 46.110501 254.559302 
C 44.486471 252.935271 42.283503 252.022772 39.986777 252.022772 
C 37.690051 252.022772 35.487083 252.935271 33.863053 254.559302 
C 32.239022 256.183332 31.326523 258.3863 31.326523 260.683026 
C 31.326523 262.979752 32.239022 265.18272 33.863053 266.80675 
C 35.487083 268.430781 37.690051 269.34328 39.986777 269.34328 
z
" clip-path="url(#pe15b1c9a96)" style="fill: #ffff00; stroke: #000000"/>
    <path d="M 39.986777 247.372524 
C 42.283503 247.372524 44.486471 246.460025 46.110501 244.835994 
C 47.734532 243.211963 48.647031 241.008996 48.647031 238.71227 
C 48.647031 236.415543 47.734532 234.212576 46.110501 232.588545 
C 44.486471 230.964515 42.283503 230.052016 39.986777 230.052016 
C 37.690051 230.052016 35.487083 230.964515 33.863053 232.588545 
C 32.239022 234.212576 31.326523 236.415543 31.326523 238.71227 
C 31.326523 241.008996 32.239022 243.211963 33.863053 244.835994 
C 35.487083 246.460025 37.690051 247.372524 39.986777 247.372524 
z
" clip-path="url(#pe15b1c9a96)" style="fill: #ffff00; stroke: #000000"/>
    <path d="M 39.986777 225.401767 
C 42.283503 225.401767 44.486471 224.489268 46.110501 222.865237 
C 47.734532 221.241207 48.647031 219.038239 48.647031 216.741513 
C 48.647031 214.444787 47.734532 212.241819 46.110501 210.617789 
C 44.486471 208.993758 42.283503 208.081259 39.986777 208.081259 
C 37.690051 208.081259 35.487083 208.993758 33.863053 210.617789 
C 32.239022 212.241819 31.326523 214.444787 31.326523 216.741513 
C 31.326523 219.038239 32.239022 221.241207 33.863053 222.865237 
C 35.487083 224.489268 37.690051 225.401767 39.986777 225.401767 
z
" clip-path="url(#pe15b1c9a96)" style="fill: #ffff00; stroke: #000000"/>
    <path d="M 39.986777 203.431011 
C 42.283503 203.431011 44.486471 202.518512 46.110501 200.894481 
C 47.734532 199.27045 48.647031 197.067483 48.647031 194.770757 
C 48.647031 192.47403 47.734532 190.271063 46.110501 188.647032 
C 44.486471 187.023001 42.283503 186.110502 39.986777 186.110502 
C 37.690051 186.110502 35.487083 187.023001 33.863053 188.647032 
C 32.239022 190.271063 31.326523 192.47403 31.326523 194.770757 
C 31.326523 197.067483 32.239022 199.27045 33.863053 200.894481 
C 35.487083 202.518512 37.690051 203.431011 39.986777 203.431011 
z
" clip-path="url(#pe15b1c9a96)" style="fill: #ffff00; stroke: #000000"/>
    <path d="M 39.986777 181.460254 
C 42.283503 181.460254 44.486471 180.547755 46.110501 178.923724 
C 47.734532 177.299694 48.647031 175.096726 48.647031 172.8 
C 48.647031 170.503274 47.734532 168.300306 46.110501 166.676276 
C 44.486471 165.052245 42.283503 164.139746 39.986777 164.139746 
C 37.690051 164.139746 35.487083 165.052245 33.863053 166.676276 
C 32.239022 168.300306 31.326523 170.503274 31.326523 172.8 
C 31.326523 175.096726 32.239022 177.299694 33.863053 178.923724 
C 35.487083 180.547755 37.690051 181.460254 39.986777 181.460254 
z
" clip-path="url(#pe15b1c9a96)" style="fill: #ffff00; stroke: #000000"/>
    <path d="M 39.986777 159.489498 
C 42.283503 159.489498 44.486471 158.576999 46.110501 156.952968 
C 47.734532 155.328937 48.647031 153.12597 48.647031 150.829243 
C 48.647031 148.532517 47.734532 146.32955 46.110501 144.705519 
C 44.486471 143.081488 42.283503 142.168989 39.986777 142.168989 
C 37.690051 142.168989 35.487083 143.081488 33.863053 144.705519 
C 32.239022 146.32955 31.326523 148.532517 31.326523 150.829243 
C 31.326523 153.12597 32.239022 155.328937 33.863053 156.952968 
C 35.487083 158.576999 37.690051 159.489498 39.986777 159.489498 
z
" clip-path="url(#pe15b1c9a96)" style="fill: #ffff00; stroke: #000000"/>
    <path d="M 39.986777 137.518741 
C 42.283503 137.518741 44.486471 136.606242 46.110501 134.982211 
C 47.734532 133.358181 48.647031 131.155213 48.647031 128.858487 
C 48.647031 126.561761 47.734532 124.358793 46.110501 122.734763 
C 44.486471 121.110732 42.283503 120.198233 39.986777 120.198233 
C 37.690051 120.198233 35.487083 121.110732 33.863053 122.734763 
C 32.239022 124.358793 31.326523 126.561761 31.326523 128.858487 
C 31.326523 131.155213 32.239022 133.358181 33.863053 134.982211 
C 35.487083 136.606242 37.690051 137.518741 39.986777 137.518741 
z
" clip-path="url(#pe15b1c9a96)" style="fill: #ffff00; stroke: #000000"/>
    <path d="M 39.986777 115.547984 
C 42.283503 115.547984 44.486471 114.635485 46.110501 113.011455 
C 47.734532 111.387424 48.647031 109.184457 48.647031 106.88773 
C 48.647031 104.591004 47.734532 102.388037 46.110501 100.764006 
C 44.486471 99.139975 42.283503 98.227476 39.986777 98.227476 
C 37.690051 98.227476 35.487083 99.139975 33.863053 100.764006 
C 32.239022 102.388037 31.326523 104.591004 31.326523 106.88773 
C 31.326523 109.184457 32.239022 111.387424 33.863053 113.011455 
C 35.487083 114.635485 37.690051 115.547984 39.986777 115.547984 
z
" clip-path="url(#pe15b1c9a96)" style="fill: #ffff00; stroke: #000000"/>
    <path d="M 39.986777 93.577228 
C 42.283503 93.577228 44.486471 92.664729 46.110501 91.040698 
C 47.734532 89.416668 48.647031 87.2137 48.647031 84.916974 
C 48.647031 82.620248 47.734532 80.41728 46.110501 78.79325 
C 44.486471 77.169219 42.283503 76.25672 39.986777 76.25672 
C 37.690051 76.25672 35.487083 77.169219 33.863053 78.79325 
C 32.239022 80.41728 31.326523 82.620248 31.326523 84.916974 
C 31.326523 87.2137 32.239022 89.416668 33.863053 91.040698 
C 35.487083 92.664729 37.690051 93.577228 39.986777 93.577228 
z
" clip-path="url(#pe15b1c9a96)" style="fill: #ffff00; stroke: #000000"/>
    <path d="M 39.986777 71.606471 
C 42.283503 71.606471 44.486471 70.693972 46.110501 69.069942 
C 47.734532 67.445911 48.647031 65.242944 48.647031 62.946217 
C 48.647031 60.649491 47.734532 58.446524 46.110501 56.822493 
C 44.486471 55.198462 42.283503 54.285963 39.986777 54.285963 
C 37.690051 54.285963 35.487083 55.198462 33.863053 56.822493 
C 32.239022 58.446524 31.326523 60.649491 31.326523 62.946217 
C 31.326523 65.242944 32.239022 67.445911 33.863053 69.069942 
C 35.487083 70.693972 37.690051 71.606471 39.986777 71.606471 
z
" clip-path="url(#pe15b1c9a96)" style="fill: #ffff00; stroke: #000000"/>
    <path d="M 39.986777 49.635715 
C 42.283503 49.635715 44.486471 48.723216 46.110501 47.099185 
C 47.734532 45.475155 48.647031 43.272187 48.647031 40.975461 
C 48.647031 38.678735 47.734532 36.475767 46.110501 34.851737 
C 44.486471 33.227706 42.283503 32.315207 39.986777 32.315207 
C 37.690051 32.315207 35.487083 33.227706 33.863053 34.851737 
C 32.239022 36.475767 31.326523 38.678735 31.326523 40.975461 
C 31.326523 43.272187 32.239022 45.475155 33.863053 47.099185 
C 35.487083 48.723216 37.690051 49.635715 39.986777 49.635715 
z
" clip-path="url(#pe15b1c9a96)" style="fill: #ffffff; stroke: #000000"/>
    <path d="M 59.028099 38.650337 
C 61.324825 38.650337 63.527793 37.737838 65.151824 36.113807 
C 66.775854 34.489776 67.688353 32.286809 67.688353 29.990083 
C 67.688353 27.693356 66.775854 25.490389 65.151824 23.866358 
C 63.527793 22.242328 61.324825 21.329829 59.028099 21.329829 
C 56.731373 21.329829 54.528405 22.242328 52.904375 23.866358 
C 51.280344 25.490389 50.367845 27.693356 50.367845 29.990083 
C 50.367845 32.286809 51.280344 34.489776 52.904375 36.113807 
C 54.528405 37.737838 56.731373 38.650337 59.028099 38.650337 
z
" clip-path="url(#pe15b1c9a96)" style="fill: #ffffff; stroke: #000000"/>
    <path d="M 59.028099 192.445632 
C 61.324825 192.445632 63.527793 191.533133 65.151824 189.909103 
C 66.775854 188.285072 67.688353 186.082104 67.688353 183.785378 
C 67.688353 181.488652 66.775854 179.285685 65.151824 177.661654 
C 63.527793 176.037623 61.324825 175.125124 59.028099 175.125124 
C 56.731373 175.125124 54.528405 176.037623 52.904375 177.661654 
C 51.280344 179.285685 50.367845 181.488652 50.367845 183.785378 
C 50.367845 186.082104 51.280344 188.285072 52.904375 189.909103 
C 54.528405 191.533133 56.731373 192.445632 59.028099 192.445632 
z
" clip-path="url(#pe15b1c9a96)" style="fill: #ffffff; stroke: #000000"/>
    <path d="M 59.028099 214.416389 
C 61.324825 214.416389 63.527793 213.50389 65.151824 211.879859 
C 66.775854 210.255828 67.688353 208.052861 67.688353 205.756135 
C 67.688353 203.459409 66.775854 201.256441 65.151824 199.63241 
C 63.527793 198.00838 61.324825 197.095881 59.028099 197.095881 
C 56.731373 197.095881 54.528405 198.00838 52.904375 199.63241 
C 51.280344 201.256441 50.367845 203.459409 50.367845 205.756135 
C 50.367845 208.052861 51.280344 210.255828 52.904375 211.879859 
C 54.528405 213.50389 56.731373 214.416389 59.028099 214.416389 
z
" clip-path="url(#pe15b1c9a96)" style="fill: #ffffff; stroke: #000000"/>
    <path d="M 59.028099 170.474876 
C 61.324825 170.474876 63.527793 169.562377 65.151824 167.938346 
C 66.775854 166.314315 67.688353 164.111348 67.688353 161.814622 
C 67.688353 159.517896 66.775854 157.314928 65.151824 155.690897 
C 63.527793 154.066867 61.324825 153.154368 59.028099 153.154368 
C 56.731373 153.154368 54.528405 154.066867 52.904375 155.690897 
C 51.280344 157.314928 50.367845 159.517896 50.367845 161.814622 
C 50.367845 164.111348 51.280344 166.314315 52.904375 167.938346 
C 54.528405 169.562377 56.731373 170.474876 59.028099 170.474876 
z
" clip-path="url(#pe15b1c9a96)" style="fill: #ffffff; stroke: #000000"/>
    <path d="M 59.028099 104.562606 
C 61.324825 104.562606 63.527793 103.650107 65.151824 102.026077 
C 66.775854 100.402046 67.688353 98.199078 67.688353 95.902352 
C 67.688353 93.605626 66.775854 91.402659 65.151824 89.778628 
C 63.527793 88.154597 61.324825 87.242098 59.028099 87.242098 
C 56.731373 87.242098 54.528405 88.154597 52.904375 89.778628 
C 51.280344 91.402659 50.367845 93.605626 50.367845 95.902352 
C 50.367845 98.199078 51.280344 100.402046 52.904375 102.026077 
C 54.528405 103.650107 56.731373 104.562606 59.028099 104.562606 
z
" clip-path="url(#pe15b1c9a96)" style="fill: #ffffff; stroke: #000000"/>
    <path d="M 59.028099 148.504119 
C 61.324825 148.504119 63.527793 147.59162 65.151824 145.96759 
C 66.775854 144.343559 67.688353 142.140591 67.688353 139.843865 
C 67.688353 137.547139 66.775854 135.344172 65.151824 133.720141 
C 63.527793 132.09611 61.324825 131.183611 59.028099 131.183611 
C 56.731373 131.183611 54.528405 132.09611 52.904375 133.720141 
C 51.280344 135.344172 50.367845 137.547139 50.367845 139.843865 
C 50.367845 142.140591 51.280344 144.343559 52.904375 145.96759 
C 54.528405 147.59162 56.731373 148.504119 59.028099 148.504119 
z
" clip-path="url(#pe15b1c9a96)" style="fill: #ffffff; stroke: #000000"/>
    <path d="M 59.028099 126.533363 
C 61.324825 126.533363 63.527793 125.620864 65.151824 123.996833 
C 66.775854 122.372802 67.688353 120.169835 67.688353 117.873109 
C 67.688353 115.576382 66.775854 113.373415 65.151824 111.749384 
C 63.527793 110.125354 61.324825 109.212855 59.028099 109.212855 
C 56.731373 109.212855 54.528405 110.125354 52.904375 111.749384 
C 51.280344 113.373415 50.367845 115.576382 50.367845 117.873109 
C 50.367845 120.169835 51.280344 122.372802 52.904375 123.996833 
C 54.528405 125.620864 56.731373 126.533363 59.028099 126.533363 
z
" clip-path="url(#pe15b1c9a96)" style="fill: #ffffff; stroke: #000000"/>
    <path d="M 59.028099 280.328658 
C 61.324825 280.328658 63.527793 279.416159 65.151824 277.792129 
C 66.775854 276.168098 67.688353 273.965131 67.688353 271.668404 
C 67.688353 269.371678 66.775854 267.168711 65.151824 265.54468 
C 63.527793 263.920649 61.324825 263.00815 59.028099 263.00815 
C 56.731373 263.00815 54.528405 263.920649 52.904375 265.54468 
C 51.280344 267.168711 50.367845 269.371678 50.367845 271.668404 
C 50.367845 273.965131 51.280344 276.168098 52.904375 277.792129 
C 54.528405 279.416159 56.731373 280.328658 59.028099 280.328658 
z
" clip-path="url(#pe15b1c9a96)" style="fill: #ffffff; stroke: #000000"/>
    <path d="M 59.028099 324.270171 
C 61.324825 324.270171 63.527793 323.357672 65.151824 321.733642 
C 66.775854 320.109611 67.688353 317.906644 67.688353 315.609917 
C 67.688353 313.313191 66.775854 311.110224 65.151824 309.486193 
C 63.527793 307.862162 61.324825 306.949663 59.028099 306.949663 
C 56.731373 306.949663 54.528405 307.862162 52.904375 309.486193 
C 51.280344 311.110224 50.367845 313.313191 50.367845 315.609917 
C 50.367845 317.906644 51.280344 320.109611 52.904375 321.733642 
C 54.528405 323.357672 56.731373 324.270171 59.028099 324.270171 
z
" clip-path="url(#pe15b1c9a96)" style="fill: #ffffff; stroke: #000000"/>
    <path d="M 59.028099 236.387145 
C 61.324825 236.387145 63.527793 235.474646 65.151824 233.850616 
C 66.775854 232.226585 67.688353 230.023618 67.688353 227.726891 
C 67.688353 225.430165 66.775854 223.227198 65.151824 221.603167 
C 63.527793 219.979136 61.324825 219.066637 59.028099 219.066637 
C 56.731373 219.066637 54.528405 219.979136 52.904375 221.603167 
C 51.280344 223.227198 50.367845 225.430165 50.367845 227.726891 
C 50.367845 230.023618 51.280344 232.226585 52.904375 233.850616 
C 54.528405 235.474646 56.731373 236.387145 59.028099 236.387145 
z
" clip-path="url(#pe15b1c9a96)" style="fill: #ffffff; stroke: #000000"/>
    <path d="M 59.028099 60.621093 
C 61.324825 60.621093 63.527793 59.708594 65.151824 58.084564 
C 66.775854 56.460533 67.688353 54.257565 67.688353 51.960839 
C 67.688353 49.664113 66.775854 47.461145 65.151824 45.837115 
C 63.527793 44.213084 61.324825 43.300585 59.028099 43.300585 
C 56.731373 43.300585 54.528405 44.213084 52.904375 45.837115 
C 51.280344 47.461145 50.367845 49.664113 50.367845 51.960839 
C 50.367845 54.257565 51.280344 56.460533 52.904375 58.084564 
C 54.528405 59.708594 56.731373 60.621093 59.028099 60.621093 
z
" clip-path="url(#pe15b1c9a96)" style="fill: #ffffff; stroke: #000000"/>
    <path d="M 59.028099 302.299415 
C 61.324825 302.299415 63.527793 301.386916 65.151824 299.762885 
C 66.775854 298.138855 67.688353 295.935887 67.688353 293.639161 
C 67.688353 291.342435 66.775854 289.139467 65.151824 287.515436 
C 63.527793 285.891406 61.324825 284.978907 59.028099 284.978907 
C 56.731373 284.978907 54.528405 285.891406 52.904375 287.515436 
C 51.280344 289.139467 50.367845 291.342435 50.367845 293.639161 
C 50.367845 295.935887 51.280344 298.138855 52.904375 299.762885 
C 54.528405 301.386916 56.731373 302.299415 59.028099 302.299415 
z
" clip-path="url(#pe15b1c9a96)" style="fill: #ffffff; stroke: #000000"/>
    <path d="M 59.028099 82.59185 
C 61.324825 82.59185 63.527793 81.679351 65.151824 80.05532 
C 66.775854 78.431289 67.688353 76.228322 67.688353 73.931596 
C 67.688353 71.634869 66.775854 69.431902 65.151824 67.807871 
C 63.527793 66.183841 61.324825 65.271342 59.028099 65.271342 
C 56.731373 65.271342 54.528405 66.183841 52.904375 67.807871 
C 51.280344 69.431902 50.367845 71.634869 50.367845 73.931596 
C 50.367845 76.228322 51.280344 78.431289 52.904375 80.05532 
C 54.528405 81.679351 56.731373 82.59185 59.028099 82.59185 
z
" clip-path="url(#pe15b1c9a96)" style="fill: #ffffff; stroke: #000000"/>
    <path d="M 59.028099 258.357902 
C 61.324825 258.357902 63.527793 257.445403 65.151824 255.821372 
C 66.775854 254.197341 67.688353 251.994374 67.688353 249.697648 
C 67.688353 247.400922 66.775854 245.197954 65.151824 243.573923 
C 63.527793 241.949893 61.324825 241.037394 59.028099 241.037394 
C 56.731373 241.037394 54.528405 241.949893 52.904375 243.573923 
C 51.280344 245.197954 50.367845 247.400922 50.367845 249.697648 
C 50.367845 251.994374 51.280344 254.197341 52.904375 255.821372 
C 54.528405 257.445403 56.731373 258.357902 59.028099 258.357902 
z
" clip-path="url(#pe15b1c9a96)" style="fill: #ffffff; stroke: #000000"/>
    <path d="M 78.069421 170.474876 
C 80.366148 170.474876 82.569115 169.562377 84.193146 167.938346 
C 85.817177 166.314315 86.729676 164.111348 86.729676 161.814622 
C 86.729676 159.517896 85.817177 157.314928 84.193146 155.690897 
C 82.569115 154.066867 80.366148 153.154368 78.069421 153.154368 
C 75.772695 153.154368 73.569728 154.066867 71.945697 155.690897 
C 70.321666 157.314928 69.409167 159.517896 69.409167 161.814622 
C 69.409167 164.111348 70.321666 166.314315 71.945697 167.938346 
C 73.569728 169.562377 75.772695 170.474876 78.069421 170.474876 
z
" clip-path="url(#pe15b1c9a96)" style="fill: #ffffff; stroke: #000000"/>
    <path d="M 78.069421 148.504119 
C 80.366148 148.504119 82.569115 147.59162 84.193146 145.96759 
C 85.817177 144.343559 86.729676 142.140591 86.729676 139.843865 
C 86.729676 137.547139 85.817177 135.344172 84.193146 133.720141 
C 82.569115 132.09611 80.366148 131.183611 78.069421 131.183611 
C 75.772695 131.183611 73.569728 132.09611 71.945697 133.720141 
C 70.321666 135.344172 69.409167 137.547139 69.409167 139.843865 
C 69.409167 142.140591 70.321666 144.343559 71.945697 145.96759 
C 73.569728 147.59162 75.772695 148.504119 78.069421 148.504119 
z
" clip-path="url(#pe15b1c9a96)" style="fill: #ffffff; stroke: #000000"/>
    <path d="M 78.069421 214.416389 
C 80.366148 214.416389 82.569115 213.50389 84.193146 211.879859 
C 85.817177 210.255828 86.729676 208.052861 86.729676 205.756135 
C 86.729676 203.459409 85.817177 201.256441 84.193146 199.63241 
C 82.569115 198.00838 80.366148 197.095881 78.069421 197.095881 
C 75.772695 197.095881 73.569728 198.00838 71.945697 199.63241 
C 70.321666 201.256441 69.409167 203.459409 69.409167 205.756135 
C 69.409167 208.052861 70.321666 210.255828 71.945697 211.879859 
C 73.569728 213.50389 75.772695 214.416389 78.069421 214.416389 
z
" clip-path="url(#pe15b1c9a96)" style="fill: #ffffff; stroke: #000000"/>
    <path d="M 78.069421 192.445632 
C 80.366148 192.445632 82.569115 191.533133 84.193146 189.909103 
C 85.817177 188.285072 86.729676 186.082104 86.729676 183.785378 
C 86.729676 181.488652 85.817177 179.285685 84.193146 177.661654 
C 82.569115 176.037623 80.366148 175.125124 78.069421 175.125124 
C 75.772695 175.125124 73.569728 176.037623 71.945697 177.661654 
C 70.321666 179.285685 69.409167 181.488652 69.409167 183.785378 
C 69.409167 186.082104 70.321666 188.285072 71.945697 189.909103 
C 73.569728 191.533133 75.772695 192.445632 78.069421 192.445632 
z
" clip-path="url(#pe15b1c9a96)" style="fill: #ffffff; stroke: #000000"/>
    <path d="M 97.110744 159.489498 
C 99.40747 159.489498 101.610437 158.576999 103.234468 156.952968 
C 104.858499 155.328937 105.770998 153.12597 105.770998 150.829243 
C 105.770998 148.532517 104.858499 146.32955 103.234468 144.705519 
C 101.610437 143.081488 99.40747 142.168989 97.110744 142.168989 
C 94.814018 142.168989 92.61105 143.081488 90.987019 144.705519 
C 89.362989 146.32955 88.45049 148.532517 88.45049 150.829243 
C 88.45049 153.12597 89.362989 155.328937 90.987019 156.952968 
C 92.61105 158.576999 94.814018 159.489498 97.110744 159.489498 
z
" clip-path="url(#pe15b1c9a96)" style="fill: #ffffff; stroke: #000000"/>
    <path d="M 97.110744 203.431011 
C 99.40747 203.431011 101.610437 202.518512 103.234468 200.894481 
C 104.858499 199.27045 105.770998 197.067483 105.770998 194.770757 
C 105.770998 192.47403 104.858499 190.271063 103.234468 188.647032 
C 101.610437 187.023001 99.40747 186.110502 97.110744 186.110502 
C 94.814018 186.110502 92.61105 187.023001 90.987019 188.647032 
C 89.362989 190.271063 88.45049 192.47403 88.45049 194.770757 
C 88.45049 197.067483 89.362989 199.27045 90.987019 200.894481 
C 92.61105 202.518512 94.814018 203.431011 97.110744 203.431011 
z
" clip-path="url(#pe15b1c9a96)" style="fill: #ffffff; stroke: #000000"/>
    <path d="M 97.110744 181.460254 
C 99.40747 181.460254 101.610437 180.547755 103.234468 178.923724 
C 104.858499 177.299694 105.770998 175.096726 105.770998 172.8 
C 105.770998 170.503274 104.858499 168.300306 103.234468 166.676276 
C 101.610437 165.052245 99.40747 164.139746 97.110744 164.139746 
C 94.814018 164.139746 92.61105 165.052245 90.987019 166.676276 
C 89.362989 168.300306 88.45049 170.503274 88.45049 172.8 
C 88.45049 175.096726 89.362989 177.299694 90.987019 178.923724 
C 92.61105 180.547755 94.814018 181.460254 97.110744 181.460254 
z
" clip-path="url(#pe15b1c9a96)" style="fill: #ffffff; stroke: #000000"/>
    <path d="M 116.152066 192.445632 
C 118.448792 192.445632 120.65176 191.533133 122.27579 189.909103 
C 123.899821 188.285072 124.81232 186.082104 124.81232 183.785378 
C 124.81232 181.488652 123.899821 179.285685 122.27579 177.661654 
C 120.65176 176.037623 118.448792 175.125124 116.152066 175.125124 
C 113.85534 175.125124 111.652372 176.037623 110.028342 177.661654 
C 108.404311 179.285685 107.491812 181.488652 107.491812 183.785378 
C 107.491812 186.082104 108.404311 188.285072 110.028342 189.909103 
C 111.652372 191.533133 113.85534 192.445632 116.152066 192.445632 
z
" clip-path="url(#pe15b1c9a96)" style="fill: #ffffff; stroke: #000000"/>
    <path d="M 116.152066 170.474876 
C 118.448792 170.474876 120.65176 169.562377 122.27579 167.938346 
C 123.899821 166.314315 124.81232 164.111348 124.81232 161.814622 
C 124.81232 159.517896 123.899821 157.314928 122.27579 155.690897 
C 120.65176 154.066867 118.448792 153.154368 116.152066 153.154368 
C 113.85534 153.154368 111.652372 154.066867 110.028342 155.690897 
C 108.404311 157.314928 107.491812 159.517896 107.491812 161.814622 
C 107.491812 164.111348 108.404311 166.314315 110.028342 167.938346 
C 111.652372 169.562377 113.85534 170.474876 116.152066 170.474876 
z
" clip-path="url(#pe15b1c9a96)" style="fill: #ffffff; stroke: #000000"/>
    <path d="M 135.193388 192.445632 
C 137.490115 192.445632 139.693082 191.533133 141.317113 189.909103 
C 142.941143 188.285072 143.853642 186.082104 143.853642 183.785378 
C 143.853642 181.488652 142.941143 179.285685 141.317113 177.661654 
C 139.693082 176.037623 137.490115 175.125124 135.193388 175.125124 
C 132.896662 175.125124 130.693695 176.037623 129.069664 177.661654 
C 127.445633 179.285685 126.533134 181.488652 126.533134 183.785378 
C 126.533134 186.082104 127.445633 188.285072 129.069664 189.909103 
C 130.693695 191.533133 132.896662 192.445632 135.193388 192.445632 
z
" clip-path="url(#pe15b1c9a96)" style="fill: #ffffff; stroke: #000000"/>
    <path d="M 135.193388 170.474876 
C 137.490115 170.474876 139.693082 169.562377 141.317113 167.938346 
C 142.941143 166.314315 143.853642 164.111348 143.853642 161.814622 
C 143.853642 159.517896 142.941143 157.314928 141.317113 155.690897 
C 139.693082 154.066867 137.490115 153.154368 135.193388 153.154368 
C 132.896662 153.154368 130.693695 154.066867 129.069664 155.690897 
C 127.445633 157.314928 126.533134 159.517896 126.533134 161.814622 
C 126.533134 164.111348 127.445633 166.314315 129.069664 167.938346 
C 130.693695 169.562377 132.896662 170.474876 135.193388 170.474876 
z
" clip-path="url(#pe15b1c9a96)" style="fill: #ffffff; stroke: #000000"/>
    <path d="M 154.234711 181.460254 
C 156.531437 181.460254 158.734404 180.547755 160.358435 178.923724 
C 161.982466 177.299694 162.894965 175.096726 162.894965 172.8 
C 162.894965 170.503274 161.982466 168.300306 160.358435 166.676276 
C 158.734404 165.052245 156.531437 164.139746 154.234711 164.139746 
C 151.937985 164.139746 149.735017 165.052245 148.110986 166.676276 
C 146.486956 168.300306 145.574457 170.503274 145.574457 172.8 
C 145.574457 175.096726 146.486956 177.299694 148.110986 178.923724 
C 149.735017 180.547755 151.937985 181.460254 154.234711 181.460254 
z
" clip-path="url(#pe15b1c9a96)" style="fill: #ffffff; stroke: #000000"/>
    <path d="M 173.276033 192.445632 
C 175.572759 192.445632 177.775727 191.533133 179.399757 189.909103 
C 181.023788 188.285072 181.936287 186.082104 181.936287 183.785378 
C 181.936287 181.488652 181.023788 179.285685 179.399757 177.661654 
C 177.775727 176.037623 175.572759 175.125124 173.276033 175.125124 
C 170.979307 175.125124 168.776339 176.037623 167.152309 177.661654 
C 165.528278 179.285685 164.615779 181.488652 164.615779 183.785378 
C 164.615779 186.082104 165.528278 188.285072 167.152309 189.909103 
C 168.776339 191.533133 170.979307 192.445632 173.276033 192.445632 
z
" clip-path="url(#pe15b1c9a96)" style="fill: #ffffff; stroke: #000000"/>
    <path d="M 173.276033 170.474876 
C 175.572759 170.474876 177.775727 169.562377 179.399757 167.938346 
C 181.023788 166.314315 181.936287 164.111348 181.936287 161.814622 
C 181.936287 159.517896 181.023788 157.314928 179.399757 155.690897 
C 177.775727 154.066867 175.572759 153.154368 173.276033 153.154368 
C 170.979307 153.154368 168.776339 154.066867 167.152309 155.690897 
C 165.528278 157.314928 164.615779 159.517896 164.615779 161.814622 
C 164.615779 164.111348 165.528278 166.314315 167.152309 167.938346 
C 168.776339 169.562377 170.979307 170.474876 173.276033 170.474876 
z
" clip-path="url(#pe15b1c9a96)" style="fill: #ffffff; stroke: #000000"/>
    <path d="M 192.317355 181.460254 
C 194.614082 181.460254 196.817049 180.547755 198.44108 178.923724 
C 200.06511 177.299694 200.977609 175.096726 200.977609 172.8 
C 200.977609 170.503274 200.06511 168.300306 198.44108 166.676276 
C 196.817049 165.052245 194.614082 164.139746 192.317355 164.139746 
C 190.020629 164.139746 187.817662 165.052245 186.193631 166.676276 
C 184.5696 168.300306 183.657101 170.503274 183.657101 172.8 
C 183.657101 175.096726 184.5696 177.299694 186.193631 178.923724 
C 187.817662 180.547755 190.020629 181.460254 192.317355 181.460254 
z
" clip-path="url(#pe15b1c9a96)" style="fill: #ffffff; stroke: #000000"/>
    <path d="M 211.358678 181.460254 
C 213.655404 181.460254 215.858371 180.547755 217.482402 178.923724 
C 219.106433 177.299694 220.018932 175.096726 220.018932 172.8 
C 220.018932 170.503274 219.106433 168.300306 217.482402 166.676276 
C 215.858371 165.052245 213.655404 164.139746 211.358678 164.139746 
C 209.061951 164.139746 206.858984 165.052245 205.234953 166.676276 
C 203.610923 168.300306 202.698424 170.503274 202.698424 172.8 
C 202.698424 175.096726 203.610923 177.299694 205.234953 178.923724 
C 206.858984 180.547755 209.061951 181.460254 211.358678 181.460254 
z
" clip-path="url(#pe15b1c9a96)" style="fill: #ffffff; stroke: #000000"/>
    <path d="M 230.4 181.460254 
C 232.696726 181.460254 234.899694 180.547755 236.523724 178.923724 
C 238.147755 177.299694 239.060254 175.096726 239.060254 172.8 
C 239.060254 170.503274 238.147755 168.300306 236.523724 166.676276 
C 234.899694 165.052245 232.696726 164.139746 230.4 164.139746 
C 228.103274 164.139746 225.900306 165.052245 224.276276 166.676276 
C 222.652245 168.300306 221.739746 170.503274 221.739746 172.8 
C 221.739746 175.096726 222.652245 177.299694 224.276276 178.923724 
C 225.900306 180.547755 228.103274 181.460254 230.4 181.460254 
z
" clip-path="url(#pe15b1c9a96)" style="fill: #ffffff; stroke: #000000"/>
    <path d="M 249.441322 192.445632 
C 251.738049 192.445632 253.941016 191.533133 255.565047 189.909103 
C 257.189077 188.285072 258.101576 186.082104 258.101576 183.785378 
C 258.101576 181.488652 257.189077 179.285685 255.565047 177.661654 
C 253.941016 176.037623 251.738049 175.125124 249.441322 175.125124 
C 247.144596 175.125124 244.941629 176.037623 243.317598 177.661654 
C 241.693567 179.285685 240.781068 181.488652 240.781068 183.785378 
C 240.781068 186.082104 241.693567 188.285072 243.317598 189.909103 
C 244.941629 191.533133 247.144596 192.445632 249.441322 192.445632 
z
" clip-path="url(#pe15b1c9a96)" style="fill: #ffffff; stroke: #000000"/>
    <path d="M 249.441322 170.474876 
C 251.738049 170.474876 253.941016 169.562377 255.565047 167.938346 
C 257.189077 166.314315 258.101576 164.111348 258.101576 161.814622 
C 258.101576 159.517896 257.189077 157.314928 255.565047 155.690897 
C 253.941016 154.066867 251.738049 153.154368 249.441322 153.154368 
C 247.144596 153.154368 244.941629 154.066867 243.317598 155.690897 
C 241.693567 157.314928 240.781068 159.517896 240.781068 161.814622 
C 240.781068 164.111348 241.693567 166.314315 243.317598 167.938346 
C 244.941629 169.562377 247.144596 170.474876 249.441322 170.474876 
z
" clip-path="url(#pe15b1c9a96)" style="fill: #ffffff; stroke: #000000"/>
    <path d="M 268.482645 181.460254 
C 270.779371 181.460254 272.982338 180.547755 274.606369 178.923724 
C 276.2304 177.299694 277.142899 175.096726 277.142899 172.8 
C 277.142899 170.503274 276.2304 168.300306 274.606369 166.676276 
C 272.982338 165.052245 270.779371 164.139746 268.482645 164.139746 
C 266.185918 164.139746 263.982951 165.052245 262.35892 166.676276 
C 260.73489 168.300306 259.822391 170.503274 259.822391 172.8 
C 259.822391 175.096726 260.73489 177.299694 262.35892 178.923724 
C 263.982951 180.547755 266.185918 181.460254 268.482645 181.460254 
z
" clip-path="url(#pe15b1c9a96)" style="fill: #ffffff; stroke: #000000"/>
    <path d="M 287.523967 181.460254 
C 289.820693 181.460254 292.023661 180.547755 293.647691 178.923724 
C 295.271722 177.299694 296.184221 175.096726 296.184221 172.8 
C 296.184221 170.503274 295.271722 168.300306 293.647691 166.676276 
C 292.023661 165.052245 289.820693 164.139746 287.523967 164.139746 
C 285.227241 164.139746 283.024273 165.052245 281.400243 166.676276 
C 279.776212 168.300306 278.863713 170.503274 278.863713 172.8 
C 278.863713 175.096726 279.776212 177.299694 281.400243 178.923724 
C 283.024273 180.547755 285.227241 181.460254 287.523967 181.460254 
z
" clip-path="url(#pe15b1c9a96)" style="fill: #ffffff; stroke: #000000"/>
    <path d="M 306.565289 181.460254 
C 308.862015 181.460254 311.064983 180.547755 312.689014 178.923724 
C 314.313044 177.299694 315.225543 175.096726 315.225543 172.8 
C 315.225543 170.503274 314.313044 168.300306 312.689014 166.676276 
C 311.064983 165.052245 308.862015 164.139746 306.565289 164.139746 
C 304.268563 164.139746 302.065596 165.052245 300.441565 166.676276 
C 298.817534 168.300306 297.905035 170.503274 297.905035 172.8 
C 297.905035 175.096726 298.817534 177.299694 300.441565 178.923724 
C 302.065596 180.547755 304.268563 181.460254 306.565289 181.460254 
z
" clip-path="url(#pe15b1c9a96)" style="fill: #ffffff; stroke: #000000"/>
    <path d="M 325.606612 181.460254 
C 327.903338 181.460254 330.106305 180.547755 331.730336 178.923724 
C 333.354367 177.299694 334.266866 175.096726 334.266866 172.8 
C 334.266866 170.503274 333.354367 168.300306 331.730336 166.676276 
C 330.106305 165.052245 327.903338 164.139746 325.606612 164.139746 
C 323.309885 164.139746 321.106918 165.052245 319.482887 166.676276 
C 317.858857 168.300306 316.946358 170.503274 316.946358 172.8 
C 316.946358 175.096726 317.858857 177.299694 319.482887 178.923724 
C 321.106918 180.547755 323.309885 181.460254 325.606612 181.460254 
z
" clip-path="url(#pe15b1c9a96)" style="fill: #ffffff; stroke: #000000"/>
    <path d="M 344.647934 181.460254 
C 346.94466 181.460254 349.147628 180.547755 350.771658 178.923724 
C 352.395689 177.299694 353.308188 175.096726 353.308188 172.8 
C 353.308188 170.503274 352.395689 168.300306 350.771658 166.676276 
C 349.147628 165.052245 346.94466 164.139746 344.647934 164.139746 
C 342.351208 164.139746 340.14824 165.052245 338.52421 166.676276 
C 336.900179 168.300306 335.98768 170.503274 335.98768 172.8 
C 335.98768 175.096726 336.900179 177.299694 338.52421 178.923724 
C 340.14824 180.547755 342.351208 181.460254 344.647934 181.460254 
z
" clip-path="url(#pe15b1c9a96)" style="fill: #ffffff; stroke: #000000"/>
    <path d="M 363.689256 192.445632 
C 365.985982 192.445632 368.18895 191.533133 369.812981 189.909103 
C 371.437011 188.285072 372.34951 186.082104 372.34951 183.785378 
C 372.34951 181.488652 371.437011 179.285685 369.812981 177.661654 
C 368.18895 176.037623 365.985982 175.125124 363.689256 175.125124 
C 361.39253 175.125124 359.189563 176.037623 357.565532 177.661654 
C 355.941501 179.285685 355.029002 181.488652 355.029002 183.785378 
C 355.029002 186.082104 355.941501 188.285072 357.565532 189.909103 
C 359.189563 191.533133 361.39253 192.445632 363.689256 192.445632 
z
" clip-path="url(#pe15b1c9a96)" style="fill: #ffffff; stroke: #000000"/>
    <path d="M 363.689256 170.474876 
C 365.985982 170.474876 368.18895 169.562377 369.812981 167.938346 
C 371.437011 166.314315 372.34951 164.111348 372.34951 161.814622 
C 372.34951 159.517896 371.437011 157.314928 369.812981 155.690897 
C 368.18895 154.066867 365.985982 153.154368 363.689256 153.154368 
C 361.39253 153.154368 359.189563 154.066867 357.565532 155.690897 
C 355.941501 157.314928 355.029002 159.517896 355.029002 161.814622 
C 355.029002 164.111348 355.941501 166.314315 357.565532 167.938346 
C 359.189563 169.562377 361.39253 170.474876 363.689256 170.474876 
z
" clip-path="url(#pe15b1c9a96)" style="fill: #ffffff; stroke: #000000"/>
    <path d="M 382.730579 181.460254 
C 385.027305 181.460254 387.230272 180.547755 388.854303 178.923724 
C 390.478334 177.299694 391.390833 175.096726 391.390833 172.8 
C 391.390833 170.503274 390.478334 168.300306 388.854303 166.676276 
C 387.230272 165.052245 385.027305 164.139746 382.730579 164.139746 
C 380.433852 164.139746 378.230885 165.052245 376.606854 166.676276 
C 374.982823 168.300306 374.070324 170.503274 374.070324 172.8 
C 374.070324 175.096726 374.982823 177.299694 376.606854 178.923724 
C 378.230885 180.547755 380.433852 181.460254 382.730579 181.460254 
z
" clip-path="url(#pe15b1c9a96)" style="fill: #ffffff; stroke: #000000"/>
    <path d="M 401.771901 181.460254 
C 404.068627 181.460254 406.271595 180.547755 407.895625 178.923724 
C 409.519656 177.299694 410.432155 175.096726 410.432155 172.8 
C 410.432155 170.503274 409.519656 168.300306 407.895625 166.676276 
C 406.271595 165.052245 404.068627 164.139746 401.771901 164.139746 
C 399.475175 164.139746 397.272207 165.052245 395.648176 166.676276 
C 394.024146 168.300306 393.111647 170.503274 393.111647 172.8 
C 393.111647 175.096726 394.024146 177.299694 395.648176 178.923724 
C 397.272207 180.547755 399.475175 181.460254 401.771901 181.460254 
z
" clip-path="url(#pe15b1c9a96)" style="fill: #ffffff; stroke: #000000"/>
    <path d="M 420.813223 181.460254 
C 423.109949 181.460254 425.312917 180.547755 426.936947 178.923724 
C 428.560978 177.299694 429.473477 175.096726 429.473477 172.8 
C 429.473477 170.503274 428.560978 168.300306 426.936947 166.676276 
C 425.312917 165.052245 423.109949 164.139746 420.813223 164.139746 
C 418.516497 164.139746 416.313529 165.052245 414.689499 166.676276 
C 413.065468 168.300306 412.152969 170.503274 412.152969 172.8 
C 412.152969 175.096726 413.065468 177.299694 414.689499 178.923724 
C 416.313529 180.547755 418.516497 181.460254 420.813223 181.460254 
z
" clip-path="url(#pe15b1c9a96)" style="fill: #0000ff; stroke: #000000"/>
   </g>
  </g>
 </g>
 <defs>
  <clipPath id="pe15b1c9a96">
   <rect x="0" y="0" width="460.8" height="345.6"/>
  </clipPath>
 </defs>
</svg>
