<?xml version="1.0" encoding="utf-8" standalone="no"?>
<!DOCTYPE svg PUBLIC "-//W3C//DTD SVG 1.1//EN"
  "http://www.w3.org/Graphics/SVG/1.1/DTD/svg11.dtd">
<svg xmlns:xlink="http://www.w3.org/1999/xlink" width="460.8pt" height="345.6pt" viewBox="0 0 460.8 345.6" xmlns="http://www.w3.org/2000/svg" version="1.1">
 <metadata>
  <rdf:RDF xmlns:dc="http://purl.org/dc/elements/1.1/" xmlns:cc="http://creativecommons.org/ns#" xmlns:rdf="http://www.w3.org/1999/02/22-rdf-syntax-ns#">
   <cc:Work>
    <dc:type rdf:resource="http://purl.org/dc/dcmitype/StillImage"/>
    <dc:date>2025-11-05T06:53:09.989893</dc:date>
    <dc:format>image/svg+xml</dc:format>
    <dc:creator>
     <cc:Agent>
      <dc:title>Matplotlib v3.10.5, https://matplotlib.org/</dc:title>
     </cc:Agent>
    </dc:creator>
   </cc:Work>
  </rdf:RDF>
 </metadata>
 <defs>
  <style type="text/css">*{stroke-linejoin: round; stroke-linecap: butt}</style>
 </defs>
 <g id="figure_1">
  <g id="patch_1">
   <path d="M 0 345.6 
L 460.8 345.6 
L 460.8 0 
L 0 0 
z
" style="fill: #ffffff"/>
  </g>
  <g id="axes_1">
   <g id="patch_2">
    <path d="M 41.780424 307.134937 
Q 49.054758 272.763708 56.097598 239.486285 
" clip-path="url(#p507e988554)" style="fill: none; stroke: #4c4c4c; stroke-linecap: round"/>
    <path d="M 55.262136 240.536048 
L 56.097598 239.486285 
L 56.436132 240.784513 
" clip-path="url(#p507e988554)" style="fill: none; stroke: #4c4c4c; stroke-linecap: round"/>
   </g>
   <g id="patch_3">
    <path d="M 47.081947 310.643298 
Q 121.591826 258.486383 195.185776 206.970618 
" clip-path="url(#p507e988554)" style="fill: none; stroke: #4c4c4c; stroke-linecap: round"/>
    <path d="M 193.85862 207.167234 
L 195.185776 206.970618 
L 194.546775 208.150312 
" clip-path="url(#p507e988554)" style="fill: none; stroke: #4c4c4c; stroke-linecap: round"/>
   </g>
   <g id="patch_4">
    <path d="M 44.628896 308.29858 
Q 49.053643 301.329603 52.879115 295.304484 
" clip-path="url(#p507e988554)" style="fill: none; stroke: #4c4c4c; stroke-linecap: round"/>
    <path d="M 51.729378 295.995935 
L 52.879115 295.304484 
L 52.742433 296.639144 
" clip-path="url(#p507e988554)" style="fill: none; stroke: #4c4c4c; stroke-linecap: round"/>
   </g>
   <g id="patch_5">
    <path d="M 41.077575 307.01988 
Q 49.054111 244.204665 56.889804 182.498577 
" clip-path="url(#p507e988554)" style="fill: none; stroke: #4c4c4c; stroke-linecap: round"/>
    <path d="M 56.143417 183.613434 
L 56.889804 182.498577 
L 57.333857 183.764601 
" clip-path="url(#p507e988554)" style="fill: none; stroke: #4c4c4c; stroke-linecap: round"/>
   </g>
   <g id="patch_6">
    <path d="M 48.045735 312.436703 
Q 148.793271 272.76736 248.500512 233.507634 
" clip-path="url(#p507e988554)" style="fill: none; stroke: #4c4c4c; stroke-linecap: round"/>
    <path d="M 247.164126 233.389 
L 248.500512 233.507634 
L 247.603773 234.505562 
" clip-path="url(#p507e988554)" style="fill: none; stroke: #4c4c4c; stroke-linecap: round"/>
   </g>
   <g id="patch_7">
    <path d="M 47.316876 310.991955 
Q 130.661844 258.484625 213.060852 206.57325 
" clip-path="url(#p507e988554)" style="fill: none; stroke: #4c4c4c; stroke-linecap: round"/>
    <path d="M 211.72572 206.70524 
L 213.060852 206.57325 
L 212.365365 207.72055 
" clip-path="url(#p507e988554)" style="fill: none; stroke: #4c4c4c; stroke-linecap: round"/>
   </g>
   <g id="patch_8">
    <path d="M 46.990632 310.518653 
Q 157.860956 229.924456 267.826935 149.987649 
" clip-path="url(#p507e988554)" style="fill: none; stroke: #4c4c4c; stroke-linecap: round"/>
    <path d="M 266.503498 150.20791 
L 267.826935 149.987649 
L 267.209082 151.178555 
" clip-path="url(#p507e988554)" style="fill: none; stroke: #4c4c4c; stroke-linecap: round"/>
   </g>
   <g id="patch_9">
    <path d="M 46.281973 309.660957 
Q 130.659492 229.924202 214.22441 150.955354 
" clip-path="url(#p507e988554)" style="fill: none; stroke: #4c4c4c; stroke-linecap: round"/>
    <path d="M 212.940134 151.343471 
L 214.22441 150.955354 
L 213.764338 152.215645 
" clip-path="url(#p507e988554)" style="fill: none; stroke: #4c4c4c; stroke-linecap: round"/>
   </g>
   <g id="patch_10">
    <path d="M 48.505907 256.907406 
Q 194.134169 229.923345 338.66311 203.142983 
" clip-path="url(#p507e988554)" style="fill: none; stroke: #4c4c4c; stroke-linecap: round"/>
    <path d="M 337.373879 202.771656 
L 338.66311 203.142983 
L 337.592511 203.951572 
" clip-path="url(#p507e988554)" style="fill: none; stroke: #4c4c4c; stroke-linecap: round"/>
   </g>
   <g id="patch_11">
    <path d="M 46.990632 253.394686 
Q 157.860956 172.800489 267.826935 92.863682 
" clip-path="url(#p507e988554)" style="fill: none; stroke: #4c4c4c; stroke-linecap: round"/>
    <path d="M 266.503498 93.083943 
L 267.826935 92.863682 
L 267.209082 94.054588 
" clip-path="url(#p507e988554)" style="fill: none; stroke: #4c4c4c; stroke-linecap: round"/>
   </g>
   <g id="patch_12">
    <path d="M 41.780424 192.887003 
Q 49.054758 158.515774 56.097598 125.238351 
" clip-path="url(#p507e988554)" style="fill: none; stroke: #4c4c4c; stroke-linecap: round"/>
    <path d="M 55.262136 126.288115 
L 56.097598 125.238351 
L 56.436132 126.536579 
" clip-path="url(#p507e988554)" style="fill: none; stroke: #4c4c4c; stroke-linecap: round"/>
   </g>
   <g id="patch_13">
    <path d="M 48.648552 201.361983 
Q 212.266648 201.361983 374.766711 201.361983 
" clip-path="url(#p507e988554)" style="fill: none; stroke: #4c4c4c; stroke-linecap: round"/>
    <path d="M 373.566711 200.761983 
L 374.766711 201.361983 
L 373.566711 201.961983 
" clip-path="url(#p507e988554)" style="fill: none; stroke: #4c4c4c; stroke-linecap: round"/>
   </g>
   <g id="patch_14">
    <path d="M 43.361555 193.389069 
Q 58.120772 158.520419 72.444181 124.681367 
" clip-path="url(#p507e988554)" style="fill: none; stroke: #4c4c4c; stroke-linecap: round"/>
    <path d="M 71.423882 125.552568 
L 72.444181 124.681367 
L 72.528962 126.020327 
" clip-path="url(#p507e988554)" style="fill: none; stroke: #4c4c4c; stroke-linecap: round"/>
   </g>
   <g id="patch_15">
    <path d="M 48.645093 144.238017 
Q 130.65827 144.238017 211.553412 144.238017 
" clip-path="url(#p507e988554)" style="fill: none; stroke: #4c4c4c; stroke-linecap: round"/>
    <path d="M 210.353412 143.638017 
L 211.553412 144.238017 
L 210.353412 144.838017 
" clip-path="url(#p507e988554)" style="fill: none; stroke: #4c4c4c; stroke-linecap: round"/>
   </g>
   <g id="patch_16">
    <path d="M 44.628896 79.802712 
Q 49.053643 72.833735 52.879115 66.808616 
" clip-path="url(#p507e988554)" style="fill: none; stroke: #4c4c4c; stroke-linecap: round"/>
    <path d="M 51.729378 67.500067 
L 52.879115 66.808616 
L 52.742433 68.143277 
" clip-path="url(#p507e988554)" style="fill: none; stroke: #4c4c4c; stroke-linecap: round"/>
   </g>
   <g id="patch_17">
    <path d="M 48.10841 90.123831 
Q 194.131305 144.238198 339.105839 197.964055 
" clip-path="url(#p507e988554)" style="fill: none; stroke: #4c4c4c; stroke-linecap: round"/>
    <path d="M 338.189117 196.984453 
L 339.105839 197.964055 
L 337.772124 198.109672 
" clip-path="url(#p507e988554)" style="fill: none; stroke: #4c4c4c; stroke-linecap: round"/>
   </g>
   <g id="patch_18">
    <path d="M 48.362017 32.188583 
Q 203.196363 72.832599 356.949311 113.192748 
" clip-path="url(#p507e988554)" style="fill: none; stroke: #4c4c4c; stroke-linecap: round"/>
    <path d="M 355.940973 112.307732 
L 356.949311 113.192748 
L 355.636295 113.468409 
" clip-path="url(#p507e988554)" style="fill: none; stroke: #4c4c4c; stroke-linecap: round"/>
   </g>
   <g id="patch_19">
    <path d="M 60.741278 278.795222 
Q 67.188527 258.486388 73.297482 239.243179 
" clip-path="url(#p507e988554)" style="fill: none; stroke: #4c4c4c; stroke-linecap: round"/>
    <path d="M 72.362513 240.205381 
L 73.297482 239.243179 
L 73.506262 240.568475 
" clip-path="url(#p507e988554)" style="fill: none; stroke: #4c4c4c; stroke-linecap: round"/>
   </g>
   <g id="patch_20">
    <path d="M 66.496609 284.849433 
Q 221.330955 244.205418 375.083904 203.845269 
" clip-path="url(#p507e988554)" style="fill: none; stroke: #4c4c4c; stroke-linecap: round"/>
    <path d="M 373.770888 203.569608 
L 375.083904 203.845269 
L 374.075566 204.730285 
" clip-path="url(#p507e988554)" style="fill: none; stroke: #4c4c4c; stroke-linecap: round"/>
   </g>
   <g id="patch_21">
    <path d="M 65.692623 282.839208 
Q 212.266607 201.361317 357.863389 120.426635 
" clip-path="url(#p507e988554)" style="fill: none; stroke: #4c4c4c; stroke-linecap: round"/>
    <path d="M 356.52303 120.485246 
L 357.863389 120.426635 
L 357.106063 121.53409 
" clip-path="url(#p507e988554)" style="fill: none; stroke: #4c4c4c; stroke-linecap: round"/>
   </g>
   <g id="patch_22">
    <path d="M 62.763489 122.987371 
Q 76.25576 144.237699 89.148757 164.544168 
" clip-path="url(#p507e988554)" style="fill: none; stroke: #4c4c4c; stroke-linecap: round"/>
    <path d="M 89.012075 163.209508 
L 89.148757 164.544168 
L 87.999019 163.852717 
" clip-path="url(#p507e988554)" style="fill: none; stroke: #4c4c4c; stroke-linecap: round"/>
   </g>
   <g id="patch_23">
    <path d="M 64.924055 121.033148 
Q 94.390566 144.238025 122.978708 166.751187 
" clip-path="url(#p507e988554)" style="fill: none; stroke: #4c4c4c; stroke-linecap: round"/>
    <path d="M 122.407157 165.537379 
L 122.978708 166.751187 
L 121.664731 166.480142 
" clip-path="url(#p507e988554)" style="fill: none; stroke: #4c4c4c; stroke-linecap: round"/>
   </g>
   <g id="patch_24">
    <path d="M 60.741278 221.671255 
Q 67.188527 201.362421 73.297482 182.119212 
" clip-path="url(#p507e988554)" style="fill: none; stroke: #4c4c4c; stroke-linecap: round"/>
    <path d="M 72.362513 183.081414 
L 73.297482 182.119212 
L 73.506262 183.444509 
" clip-path="url(#p507e988554)" style="fill: none; stroke: #4c4c4c; stroke-linecap: round"/>
   </g>
   <g id="patch_25">
    <path d="M 66.781623 172.8 
Q 212.263604 172.8 356.627551 172.8 
" clip-path="url(#p507e988554)" style="fill: none; stroke: #4c4c4c; stroke-linecap: round"/>
    <path d="M 355.427551 172.2 
L 356.627551 172.8 
L 355.427551 173.4 
" clip-path="url(#p507e988554)" style="fill: none; stroke: #4c4c4c; stroke-linecap: round"/>
   </g>
   <g id="patch_26">
    <path d="M 66.784666 172.8 
Q 112.527745 172.8 157.15279 172.8 
" clip-path="url(#p507e988554)" style="fill: none; stroke: #4c4c4c; stroke-linecap: round"/>
    <path d="M 155.95279 172.2 
L 157.15279 172.8 
L 155.95279 173.4 
" clip-path="url(#p507e988554)" style="fill: none; stroke: #4c4c4c; stroke-linecap: round"/>
   </g>
   <g id="patch_27">
    <path d="M 60.741278 164.547288 
Q 67.188527 144.238454 73.297482 124.995245 
" clip-path="url(#p507e988554)" style="fill: none; stroke: #4c4c4c; stroke-linecap: round"/>
    <path d="M 72.362513 125.957447 
L 73.297482 124.995245 
L 73.506262 126.320542 
" clip-path="url(#p507e988554)" style="fill: none; stroke: #4c4c4c; stroke-linecap: round"/>
   </g>
   <g id="patch_28">
    <path d="M 65.636589 62.856237 
Q 157.862594 115.676585 249.118417 167.941284 
" clip-path="url(#p507e988554)" style="fill: none; stroke: #4c4c4c; stroke-linecap: round"/>
    <path d="M 248.375301 166.824244 
L 249.118417 167.941284 
L 247.778915 167.865552 
" clip-path="url(#p507e988554)" style="fill: none; stroke: #4c4c4c; stroke-linecap: round"/>
   </g>
   <g id="patch_29">
    <path d="M 84.705084 117.577085 
Q 203.19639 144.237629 320.596932 170.652751 
" clip-path="url(#p507e988554)" style="fill: none; stroke: #4c4c4c; stroke-linecap: round"/>
    <path d="M 319.557907 169.803971 
L 320.596932 170.652751 
L 319.294493 170.974702 
" clip-path="url(#p507e988554)" style="fill: none; stroke: #4c4c4c; stroke-linecap: round"/>
   </g>
   <g id="patch_30">
    <path d="M 84.596336 117.994166 
Q 230.398399 158.518563 375.12326 198.743562 
" clip-path="url(#p507e988554)" style="fill: none; stroke: #4c4c4c; stroke-linecap: round"/>
    <path d="M 374.127762 197.844127 
L 375.12326 198.743562 
L 373.806414 199.0003 
" clip-path="url(#p507e988554)" style="fill: none; stroke: #4c4c4c; stroke-linecap: round"/>
   </g>
   <g id="patch_31">
    <path d="M 78.875871 221.671255 
Q 85.32312 201.362421 91.432075 182.119212 
" clip-path="url(#p507e988554)" style="fill: none; stroke: #4c4c4c; stroke-linecap: round"/>
    <path d="M 90.497105 183.081414 
L 91.432075 182.119212 
L 91.640855 183.444509 
" clip-path="url(#p507e988554)" style="fill: none; stroke: #4c4c4c; stroke-linecap: round"/>
   </g>
   <g id="patch_32">
    <path d="M 84.752125 171.127318 
Q 148.793028 158.519265 211.736954 146.12718 
" clip-path="url(#p507e988554)" style="fill: none; stroke: #4c4c4c; stroke-linecap: round"/>
    <path d="M 210.443654 145.770281 
L 211.736954 146.12718 
L 210.675455 146.94768 
" clip-path="url(#p507e988554)" style="fill: none; stroke: #4c4c4c; stroke-linecap: round"/>
   </g>
   <g id="patch_33">
    <path d="M 99.032674 180.111338 
Q 103.457421 187.080315 107.282893 193.105433 
" clip-path="url(#p507e988554)" style="fill: none; stroke: #4c4c4c; stroke-linecap: round"/>
    <path d="M 107.146211 191.770773 
L 107.282893 193.105433 
L 106.133156 192.413983 
" clip-path="url(#p507e988554)" style="fill: none; stroke: #4c4c4c; stroke-linecap: round"/>
   </g>
   <g id="patch_34">
    <path d="M 103.049148 172.8 
Q 212.265017 172.8 320.362852 172.8 
" clip-path="url(#p507e988554)" style="fill: none; stroke: #4c4c4c; stroke-linecap: round"/>
    <path d="M 319.162852 172.2 
L 320.362852 172.8 
L 319.162852 173.4 
" clip-path="url(#p507e988554)" style="fill: none; stroke: #4c4c4c; stroke-linecap: round"/>
   </g>
   <g id="patch_35">
    <path d="M 99.032674 165.488662 
Q 103.457421 158.519685 107.282893 152.494567 
" clip-path="url(#p507e988554)" style="fill: none; stroke: #4c4c4c; stroke-linecap: round"/>
    <path d="M 106.133156 153.186017 
L 107.282893 152.494567 
L 107.146211 153.829227 
" clip-path="url(#p507e988554)" style="fill: none; stroke: #4c4c4c; stroke-linecap: round"/>
   </g>
   <g id="patch_36">
    <path d="M 103.048871 172.8 
Q 139.724946 172.8 175.282988 172.8 
" clip-path="url(#p507e988554)" style="fill: none; stroke: #4c4c4c; stroke-linecap: round"/>
    <path d="M 174.082988 172.2 
L 175.282988 172.8 
L 174.082988 173.4 
" clip-path="url(#p507e988554)" style="fill: none; stroke: #4c4c4c; stroke-linecap: round"/>
   </g>
   <g id="patch_37">
    <path d="M 117.167267 194.050646 
Q 121.592014 187.081669 125.417486 181.05655 
" clip-path="url(#p507e988554)" style="fill: none; stroke: #4c4c4c; stroke-linecap: round"/>
    <path d="M 124.267749 181.748001 
L 125.417486 181.05655 
L 125.280804 182.391211 
" clip-path="url(#p507e988554)" style="fill: none; stroke: #4c4c4c; stroke-linecap: round"/>
   </g>
   <g id="patch_38">
    <path d="M 119.855246 148.855979 
Q 157.862879 172.800787 194.924552 196.149641 
" clip-path="url(#p507e988554)" style="fill: none; stroke: #4c4c4c; stroke-linecap: round"/>
    <path d="M 194.229065 195.002341 
L 194.924552 196.149641 
L 193.58942 196.017651 
" clip-path="url(#p507e988554)" style="fill: none; stroke: #4c4c4c; stroke-linecap: round"/>
   </g>
   <g id="patch_39">
    <path d="M 139.324144 172.8 
Q 139.728754 172.8 139.01533 172.8 
" clip-path="url(#p507e988554)" style="fill: none; stroke: #4c4c4c; stroke-linecap: round"/>
    <path d="M 137.81533 172.2 
L 139.01533 172.8 
L 137.81533 173.4 
" clip-path="url(#p507e988554)" style="fill: none; stroke: #4c4c4c; stroke-linecap: round"/>
   </g>
   <g id="patch_40">
    <path d="M 139.263821 173.767959 
Q 257.60172 187.080973 374.828593 200.268996 
" clip-path="url(#p507e988554)" style="fill: none; stroke: #4c4c4c; stroke-linecap: round"/>
    <path d="M 373.703192 199.538603 
L 374.828593 200.268996 
L 373.569039 200.731081 
" clip-path="url(#p507e988554)" style="fill: none; stroke: #4c4c4c; stroke-linecap: round"/>
   </g>
   <g id="patch_41">
    <path d="M 139.318056 172.8 
Q 194.130094 172.8 247.824098 172.8 
" clip-path="url(#p507e988554)" style="fill: none; stroke: #4c4c4c; stroke-linecap: round"/>
    <path d="M 246.624098 172.2 
L 247.824098 172.8 
L 246.624098 173.4 
" clip-path="url(#p507e988554)" style="fill: none; stroke: #4c4c4c; stroke-linecap: round"/>
   </g>
   <g id="patch_42">
    <path d="M 138.919591 175.401853 
Q 175.99518 187.080664 212.00439 198.423565 
" clip-path="url(#p507e988554)" style="fill: none; stroke: #4c4c4c; stroke-linecap: round"/>
    <path d="M 211.040099 197.49075 
L 212.00439 198.423565 
L 210.679563 198.635308 
" clip-path="url(#p507e988554)" style="fill: none; stroke: #4c4c4c; stroke-linecap: round"/>
   </g>
   <g id="patch_43">
    <path d="M 157.458737 172.8 
Q 157.863347 172.8 157.149923 172.8 
" clip-path="url(#p507e988554)" style="fill: none; stroke: #4c4c4c; stroke-linecap: round"/>
    <path d="M 155.949923 172.2 
L 157.149923 172.8 
L 155.949923 173.4 
" clip-path="url(#p507e988554)" style="fill: none; stroke: #4c4c4c; stroke-linecap: round"/>
   </g>
   <g id="patch_44">
    <path d="M 175.593329 172.8 
Q 175.99794 172.8 175.284516 172.8 
" clip-path="url(#p507e988554)" style="fill: none; stroke: #4c4c4c; stroke-linecap: round"/>
    <path d="M 174.084516 172.2 
L 175.284516 172.8 
L 174.084516 173.4 
" clip-path="url(#p507e988554)" style="fill: none; stroke: #4c4c4c; stroke-linecap: round"/>
   </g>
   <g id="patch_45">
    <path d="M 191.358715 166.85104 
Q 230.399654 129.957351 268.627994 93.83157 
" clip-path="url(#p507e988554)" style="fill: none; stroke: #4c4c4c; stroke-linecap: round"/>
    <path d="M 267.343718 94.219688 
L 268.627994 93.83157 
L 268.167922 95.091862 
" clip-path="url(#p507e988554)" style="fill: none; stroke: #4c4c4c; stroke-linecap: round"/>
   </g>
   <g id="patch_46">
    <path d="M 189.705638 180.111338 
Q 194.130385 187.080315 197.955857 193.105433 
" clip-path="url(#p507e988554)" style="fill: none; stroke: #4c4c4c; stroke-linecap: round"/>
    <path d="M 197.819175 191.770773 
L 197.955857 193.105433 
L 196.806119 192.413983 
" clip-path="url(#p507e988554)" style="fill: none; stroke: #4c4c4c; stroke-linecap: round"/>
   </g>
   <g id="patch_47">
    <path d="M 193.637991 174.027709 
Q 284.804542 187.081101 374.864346 199.976028 
" clip-path="url(#p507e988554)" style="fill: none; stroke: #4c4c4c; stroke-linecap: round"/>
    <path d="M 373.761503 199.212001 
L 374.864346 199.976028 
L 373.591419 200.399887 
" clip-path="url(#p507e988554)" style="fill: none; stroke: #4c4c4c; stroke-linecap: round"/>
   </g>
   <g id="patch_48">
    <path d="M 189.705638 165.488662 
Q 194.130385 158.519685 197.955857 152.494567 
" clip-path="url(#p507e988554)" style="fill: none; stroke: #4c4c4c; stroke-linecap: round"/>
    <path d="M 196.806119 153.186017 
L 197.955857 152.494567 
L 197.819175 153.829227 
" clip-path="url(#p507e988554)" style="fill: none; stroke: #4c4c4c; stroke-linecap: round"/>
   </g>
   <g id="patch_49">
    <path d="M 211.862515 201.361983 
Q 212.267125 201.361983 211.553701 201.361983 
" clip-path="url(#p507e988554)" style="fill: none; stroke: #4c4c4c; stroke-linecap: round"/>
    <path d="M 210.353701 200.761983 
L 211.553701 201.361983 
L 210.353701 201.961983 
" clip-path="url(#p507e988554)" style="fill: none; stroke: #4c4c4c; stroke-linecap: round"/>
   </g>
   <g id="patch_50">
    <path d="M 211.772583 200.134275 
Q 302.939135 187.080882 392.998939 174.185956 
" clip-path="url(#p507e988554)" style="fill: none; stroke: #4c4c4c; stroke-linecap: round"/>
    <path d="M 391.726012 173.762097 
L 392.998939 174.185956 
L 391.896096 174.949982 
" clip-path="url(#p507e988554)" style="fill: none; stroke: #4c4c4c; stroke-linecap: round"/>
   </g>
   <g id="patch_51">
    <path d="M 211.862515 144.238017 
Q 212.267125 144.238017 211.553701 144.238017 
" clip-path="url(#p507e988554)" style="fill: none; stroke: #4c4c4c; stroke-linecap: round"/>
    <path d="M 210.353701 143.638017 
L 211.553701 144.238017 
L 210.353701 144.838017 
" clip-path="url(#p507e988554)" style="fill: none; stroke: #4c4c4c; stroke-linecap: round"/>
   </g>
   <g id="patch_52">
    <path d="M 211.457962 146.83987 
Q 293.871665 172.800186 375.218989 198.424593 
" clip-path="url(#p507e988554)" style="fill: none; stroke: #4c4c4c; stroke-linecap: round"/>
    <path d="M 374.254699 197.491778 
L 375.218989 198.424593 
L 373.894163 198.636336 
" clip-path="url(#p507e988554)" style="fill: none; stroke: #4c4c4c; stroke-linecap: round"/>
   </g>
   <g id="patch_53">
    <path d="M 223.952612 152.490728 
Q 230.399861 172.799563 236.508816 192.042772 
" clip-path="url(#p507e988554)" style="fill: none; stroke: #4c4c4c; stroke-linecap: round"/>
    <path d="M 236.717596 190.717475 
L 236.508816 192.042772 
L 235.573847 191.08057 
" clip-path="url(#p507e988554)" style="fill: none; stroke: #4c4c4c; stroke-linecap: round"/>
   </g>
   <g id="patch_54">
    <path d="M 222.690252 152.790573 
Q 230.400125 201.362773 237.934727 248.830762 
" clip-path="url(#p507e988554)" style="fill: none; stroke: #4c4c4c; stroke-linecap: round"/>
    <path d="M 238.339187 247.551539 
L 237.934727 248.830762 
L 237.154024 247.73966 
" clip-path="url(#p507e988554)" style="fill: none; stroke: #4c4c4c; stroke-linecap: round"/>
   </g>
   <g id="patch_55">
    <path d="M 223.952612 193.109272 
Q 230.399861 172.800437 236.508816 153.557228 
" clip-path="url(#p507e988554)" style="fill: none; stroke: #4c4c4c; stroke-linecap: round"/>
    <path d="M 235.573847 154.51943 
L 236.508816 153.557228 
L 236.717596 154.882525 
" clip-path="url(#p507e988554)" style="fill: none; stroke: #4c4c4c; stroke-linecap: round"/>
   </g>
   <g id="patch_56">
    <path d="M 222.690252 192.809427 
Q 230.400125 144.237227 237.934727 96.769238 
" clip-path="url(#p507e988554)" style="fill: none; stroke: #4c4c4c; stroke-linecap: round"/>
    <path d="M 237.154024 97.86034 
L 237.934727 96.769238 
L 238.339187 98.048461 
" clip-path="url(#p507e988554)" style="fill: none; stroke: #4c4c4c; stroke-linecap: round"/>
   </g>
   <g id="patch_57">
    <path d="M 247.916418 142.336964 
Q 302.937495 129.957222 356.867807 117.822902 
" clip-path="url(#p507e988554)" style="fill: none; stroke: #4c4c4c; stroke-linecap: round"/>
    <path d="M 355.565368 117.50095 
L 356.867807 117.822902 
L 355.828783 118.671682 
" clip-path="url(#p507e988554)" style="fill: none; stroke: #4c4c4c; stroke-linecap: round"/>
   </g>
   <g id="patch_58">
    <path d="M 244.109416 251.174613 
Q 248.534163 244.205636 252.359635 238.180517 
" clip-path="url(#p507e988554)" style="fill: none; stroke: #4c4c4c; stroke-linecap: round"/>
    <path d="M 251.209897 238.871968 
L 252.359635 238.180517 
L 252.222953 239.515177 
" clip-path="url(#p507e988554)" style="fill: none; stroke: #4c4c4c; stroke-linecap: round"/>
   </g>
   <g id="patch_59">
    <path d="M 241.260943 95.58903 
Q 248.535277 129.960259 255.578118 163.237682 
" clip-path="url(#p507e988554)" style="fill: none; stroke: #4c4c4c; stroke-linecap: round"/>
    <path d="M 255.916651 161.939454 
L 255.578118 163.237682 
L 254.742656 162.187918 
" clip-path="url(#p507e988554)" style="fill: none; stroke: #4c4c4c; stroke-linecap: round"/>
   </g>
   <g id="patch_60">
    <path d="M 244.107755 94.422772 
Q 266.668149 129.955393 288.629268 164.544155 
" clip-path="url(#p507e988554)" style="fill: none; stroke: #4c4c4c; stroke-linecap: round"/>
    <path d="M 288.492586 163.209494 
L 288.629268 164.544155 
L 287.47953 163.852704 
" clip-path="url(#p507e988554)" style="fill: none; stroke: #4c4c4c; stroke-linecap: round"/>
   </g>
   <g id="patch_61">
    <path d="M 241.260943 192.887003 
Q 248.535277 158.515774 255.578118 125.238351 
" clip-path="url(#p507e988554)" style="fill: none; stroke: #4c4c4c; stroke-linecap: round"/>
    <path d="M 254.742656 126.288115 
L 255.578118 125.238351 
L 255.916651 126.536579 
" clip-path="url(#p507e988554)" style="fill: none; stroke: #4c4c4c; stroke-linecap: round"/>
   </g>
   <g id="patch_62">
    <path d="M 262.244008 108.364695 
Q 266.668756 101.395718 270.494228 95.3706 
" clip-path="url(#p507e988554)" style="fill: none; stroke: #4c4c4c; stroke-linecap: round"/>
    <path d="M 269.34449 96.06205 
L 270.494228 95.3706 
L 270.357545 96.70526 
" clip-path="url(#p507e988554)" style="fill: none; stroke: #4c4c4c; stroke-linecap: round"/>
   </g>
   <g id="patch_63">
    <path d="M 264.78035 120.521494 
Q 321.074912 158.520323 376.442793 195.893643 
" clip-path="url(#p507e988554)" style="fill: none; stroke: #4c4c4c; stroke-linecap: round"/>
    <path d="M 375.783858 194.724966 
L 376.442793 195.893643 
L 375.11249 195.719585 
" clip-path="url(#p507e988554)" style="fill: none; stroke: #4c4c4c; stroke-linecap: round"/>
   </g>
   <g id="patch_64">
    <path d="M 262.244008 180.111338 
Q 266.668756 187.080315 270.494228 193.105433 
" clip-path="url(#p507e988554)" style="fill: none; stroke: #4c4c4c; stroke-linecap: round"/>
    <path d="M 270.357545 191.770773 
L 270.494228 193.105433 
L 269.34449 192.413983 
" clip-path="url(#p507e988554)" style="fill: none; stroke: #4c4c4c; stroke-linecap: round"/>
   </g>
   <g id="patch_65">
    <path d="M 259.395536 181.274981 
Q 266.66987 215.646209 273.712711 248.923632 
" clip-path="url(#p507e988554)" style="fill: none; stroke: #4c4c4c; stroke-linecap: round"/>
    <path d="M 274.051244 247.625404 
L 273.712711 248.923632 
L 272.877248 247.873869 
" clip-path="url(#p507e988554)" style="fill: none; stroke: #4c4c4c; stroke-linecap: round"/>
   </g>
   <g id="patch_66">
    <path d="M 262.244008 165.488662 
Q 266.668756 158.519685 270.494228 152.494567 
" clip-path="url(#p507e988554)" style="fill: none; stroke: #4c4c4c; stroke-linecap: round"/>
    <path d="M 269.34449 153.186017 
L 270.494228 152.494567 
L 270.357545 153.829227 
" clip-path="url(#p507e988554)" style="fill: none; stroke: #4c4c4c; stroke-linecap: round"/>
   </g>
   <g id="patch_67">
    <path d="M 265.86174 227.322114 
Q 302.937329 215.643303 338.946538 204.300402 
" clip-path="url(#p507e988554)" style="fill: none; stroke: #4c4c4c; stroke-linecap: round"/>
    <path d="M 337.621712 204.088659 
L 338.946538 204.300402 
L 337.982248 205.233217 
" clip-path="url(#p507e988554)" style="fill: none; stroke: #4c4c4c; stroke-linecap: round"/>
   </g>
   <g id="patch_68">
    <path d="M 258.692687 221.333929 
Q 266.669223 158.518714 274.504916 96.812627 
" clip-path="url(#p507e988554)" style="fill: none; stroke: #4c4c4c; stroke-linecap: round"/>
    <path d="M 273.758529 97.927484 
L 274.504916 96.812627 
L 274.94897 98.078651 
" clip-path="url(#p507e988554)" style="fill: none; stroke: #4c4c4c; stroke-linecap: round"/>
   </g>
   <g id="patch_69">
    <path d="M 281.710139 93.386389 
Q 330.141051 144.238848 377.800906 194.281695 
" clip-path="url(#p507e988554)" style="fill: none; stroke: #4c4c4c; stroke-linecap: round"/>
    <path d="M 377.407803 192.998937 
L 377.800906 194.281695 
L 376.538837 193.826523 
" clip-path="url(#p507e988554)" style="fill: none; stroke: #4c4c4c; stroke-linecap: round"/>
   </g>
   <g id="patch_70">
    <path d="M 280.378601 251.174613 
Q 312.005018 201.363006 343.03216 152.495257 
" clip-path="url(#p507e988554)" style="fill: none; stroke: #4c4c4c; stroke-linecap: round"/>
    <path d="M 341.882422 153.186708 
L 343.03216 152.495257 
L 342.895478 153.829918 
" clip-path="url(#p507e988554)" style="fill: none; stroke: #4c4c4c; stroke-linecap: round"/>
   </g>
   <g id="patch_71">
    <path d="M 280.378601 194.050646 
Q 284.803348 187.081669 288.62882 181.05655 
" clip-path="url(#p507e988554)" style="fill: none; stroke: #4c4c4c; stroke-linecap: round"/>
    <path d="M 287.479083 181.748001 
L 288.62882 181.05655 
L 288.492138 182.391211 
" clip-path="url(#p507e988554)" style="fill: none; stroke: #4c4c4c; stroke-linecap: round"/>
   </g>
   <g id="patch_72">
    <path d="M 283.403616 148.263262 
Q 302.936646 158.518103 321.479772 168.253244 
" clip-path="url(#p507e988554)" style="fill: none; stroke: #4c4c4c; stroke-linecap: round"/>
    <path d="M 320.696194 167.164204 
L 321.479772 168.253244 
L 320.138394 168.226682 
" clip-path="url(#p507e988554)" style="fill: none; stroke: #4c4c4c; stroke-linecap: round"/>
   </g>
   <g id="patch_73">
    <path d="M 302.535478 172.8 
Q 302.940088 172.8 302.226664 172.8 
" clip-path="url(#p507e988554)" style="fill: none; stroke: #4c4c4c; stroke-linecap: round"/>
    <path d="M 301.026664 172.2 
L 302.226664 172.8 
L 301.026664 173.4 
" clip-path="url(#p507e988554)" style="fill: none; stroke: #4c4c4c; stroke-linecap: round"/>
   </g>
   <g id="patch_74">
    <path d="M 320.670071 172.8 
Q 321.074681 172.8 320.361257 172.8 
" clip-path="url(#p507e988554)" style="fill: none; stroke: #4c4c4c; stroke-linecap: round"/>
    <path d="M 319.161257 172.2 
L 320.361257 172.8 
L 319.161257 173.4 
" clip-path="url(#p507e988554)" style="fill: none; stroke: #4c4c4c; stroke-linecap: round"/>
   </g>
   <g id="patch_75">
    <path d="M 334.782379 165.488662 
Q 339.207126 158.519685 343.032598 152.494567 
" clip-path="url(#p507e988554)" style="fill: none; stroke: #4c4c4c; stroke-linecap: round"/>
    <path d="M 341.882861 153.186017 
L 343.032598 152.494567 
L 342.895916 153.829227 
" clip-path="url(#p507e988554)" style="fill: none; stroke: #4c4c4c; stroke-linecap: round"/>
   </g>
   <g id="patch_76">
    <path d="M 334.782379 180.111338 
Q 339.207126 187.080315 343.032598 193.105433 
" clip-path="url(#p507e988554)" style="fill: none; stroke: #4c4c4c; stroke-linecap: round"/>
    <path d="M 342.895916 191.770773 
L 343.032598 193.105433 
L 341.882861 192.413983 
" clip-path="url(#p507e988554)" style="fill: none; stroke: #4c4c4c; stroke-linecap: round"/>
   </g>
   <g id="patch_77">
    <path d="M 352.916972 208.673321 
Q 357.341719 215.642298 361.167191 221.667417 
" clip-path="url(#p507e988554)" style="fill: none; stroke: #4c4c4c; stroke-linecap: round"/>
    <path d="M 361.030509 220.332756 
L 361.167191 221.667417 
L 360.017453 220.975966 
" clip-path="url(#p507e988554)" style="fill: none; stroke: #4c4c4c; stroke-linecap: round"/>
   </g>
   <g id="patch_78">
    <path d="M 352.916972 194.050646 
Q 357.341719 187.081669 361.167191 181.05655 
" clip-path="url(#p507e988554)" style="fill: none; stroke: #4c4c4c; stroke-linecap: round"/>
    <path d="M 360.017453 181.748001 
L 361.167191 181.05655 
L 361.030509 182.391211 
" clip-path="url(#p507e988554)" style="fill: none; stroke: #4c4c4c; stroke-linecap: round"/>
   </g>
   <g id="patch_79">
    <path d="M 352.916972 136.926679 
Q 357.341719 129.957702 361.167191 123.932583 
" clip-path="url(#p507e988554)" style="fill: none; stroke: #4c4c4c; stroke-linecap: round"/>
    <path d="M 360.017453 124.624034 
L 361.167191 123.932583 
L 361.030509 125.267244 
" clip-path="url(#p507e988554)" style="fill: none; stroke: #4c4c4c; stroke-linecap: round"/>
   </g>
   <g id="patch_80">
    <path d="M 371.051564 165.488662 
Q 375.476312 158.519685 379.301784 152.494567 
" clip-path="url(#p507e988554)" style="fill: none; stroke: #4c4c4c; stroke-linecap: round"/>
    <path d="M 378.152046 153.186017 
L 379.301784 152.494567 
L 379.165102 153.829227 
" clip-path="url(#p507e988554)" style="fill: none; stroke: #4c4c4c; stroke-linecap: round"/>
   </g>
   <g id="patch_81">
    <path d="M 371.051564 180.111338 
Q 375.476312 187.080315 379.301784 193.105433 
" clip-path="url(#p507e988554)" style="fill: none; stroke: #4c4c4c; stroke-linecap: round"/>
    <path d="M 379.165102 191.770773 
L 379.301784 193.105433 
L 378.152046 192.413983 
" clip-path="url(#p507e988554)" style="fill: none; stroke: #4c4c4c; stroke-linecap: round"/>
   </g>
   <g id="patch_82">
    <path d="M 389.186157 151.549354 
Q 393.610904 158.518331 397.436376 164.54345 
" clip-path="url(#p507e988554)" style="fill: none; stroke: #4c4c4c; stroke-linecap: round"/>
    <path d="M 397.299694 163.208789 
L 397.436376 164.54345 
L 396.286639 163.851999 
" clip-path="url(#p507e988554)" style="fill: none; stroke: #4c4c4c; stroke-linecap: round"/>
   </g>
   <g id="patch_83">
    <path d="M 411.343034 172.8 
Q 411.747644 172.8 411.03422 172.8 
" clip-path="url(#p507e988554)" style="fill: none; stroke: #4c4c4c; stroke-linecap: round"/>
    <path d="M 409.83422 172.2 
L 411.03422 172.8 
L 409.83422 173.4 
" clip-path="url(#p507e988554)" style="fill: none; stroke: #4c4c4c; stroke-linecap: round"/>
   </g>
   <g id="PathCollection_1">
    <path d="M 39.986777 324.270171 
C 42.283503 324.270171 44.486471 323.357672 46.110501 321.733642 
C 47.734532 320.109611 48.647031 317.906644 48.647031 315.609917 
C 48.647031 313.313191 47.734532 311.110224 46.110501 309.486193 
C 44.486471 307.862162 42.283503 306.949663 39.986777 306.949663 
C 37.690051 306.949663 35.487083 307.862162 33.863053 309.486193 
C 32.239022 311.110224 31.326523 313.313191 31.326523 315.609917 
C 31.326523 317.906644 32.239022 320.109611 33.863053 321.733642 
C 35.487083 323.357672 37.690051 324.270171 39.986777 324.270171 
z
" clip-path="url(#p507e988554)" style="fill: #ffff00; stroke: #000000"/>
    <path d="M 39.986777 267.146204 
C 42.283503 267.146204 44.486471 266.233705 46.110501 264.609675 
C 47.734532 262.985644 48.647031 260.782677 48.647031 258.48595 
C 48.647031 256.189224 47.734532 253.986257 46.110501 252.362226 
C 44.486471 250.738195 42.283503 249.825696 39.986777 249.825696 
C 37.690051 249.825696 35.487083 250.738195 33.863053 252.362226 
C 32.239022 253.986257 31.326523 256.189224 31.326523 258.48595 
C 31.326523 260.782677 32.239022 262.985644 33.863053 264.609675 
C 35.487083 266.233705 37.690051 267.146204 39.986777 267.146204 
z
" clip-path="url(#p507e988554)" style="fill: #ffff00; stroke: #000000"/>
    <path d="M 39.986777 210.022238 
C 42.283503 210.022238 44.486471 209.109739 46.110501 207.485708 
C 47.734532 205.861677 48.647031 203.65871 48.647031 201.361983 
C 48.647031 199.065257 47.734532 196.86229 46.110501 195.238259 
C 44.486471 193.614228 42.283503 192.701729 39.986777 192.701729 
C 37.690051 192.701729 35.487083 193.614228 33.863053 195.238259 
C 32.239022 196.86229 31.326523 199.065257 31.326523 201.361983 
C 31.326523 203.65871 32.239022 205.861677 33.863053 207.485708 
C 35.487083 209.109739 37.690051 210.022238 39.986777 210.022238 
z
" clip-path="url(#p507e988554)" style="fill: #ffff00; stroke: #000000"/>
    <path d="M 39.986777 152.898271 
C 42.283503 152.898271 44.486471 151.985772 46.110501 150.361741 
C 47.734532 148.73771 48.647031 146.534743 48.647031 144.238017 
C 48.647031 141.94129 47.734532 139.738323 46.110501 138.114292 
C 44.486471 136.490261 42.283503 135.577762 39.986777 135.577762 
C 37.690051 135.577762 35.487083 136.490261 33.863053 138.114292 
C 32.239022 139.738323 31.326523 141.94129 31.326523 144.238017 
C 31.326523 146.534743 32.239022 148.73771 33.863053 150.361741 
C 35.487083 151.985772 37.690051 152.898271 39.986777 152.898271 
z
" clip-path="url(#p507e988554)" style="fill: #ffff00; stroke: #000000"/>
    <path d="M 39.986777 95.774304 
C 42.283503 95.774304 44.486471 94.861805 46.110501 93.237774 
C 47.734532 91.613743 48.647031 89.410776 48.647031 87.11405 
C 48.647031 84.817323 47.734532 82.614356 46.110501 80.990325 
C 44.486471 79.366295 42.283503 78.453796 39.986777 78.453796 
C 37.690051 78.453796 35.487083 79.366295 33.863053 80.990325 
C 32.239022 82.614356 31.326523 84.817323 31.326523 87.11405 
C 31.326523 89.410776 32.239022 91.613743 33.863053 93.237774 
C 35.487083 94.861805 37.690051 95.774304 39.986777 95.774304 
z
" clip-path="url(#p507e988554)" style="fill: #ffffff; stroke: #000000"/>
    <path d="M 39.986777 38.650337 
C 42.283503 38.650337 44.486471 37.737838 46.110501 36.113807 
C 47.734532 34.489776 48.647031 32.286809 48.647031 29.990083 
C 48.647031 27.693356 47.734532 25.490389 46.110501 23.866358 
C 44.486471 22.242328 42.283503 21.329829 39.986777 21.329829 
C 37.690051 21.329829 35.487083 22.242328 33.863053 23.866358 
C 32.239022 25.490389 31.326523 27.693356 31.326523 29.990083 
C 31.326523 32.286809 32.239022 34.489776 33.863053 36.113807 
C 35.487083 37.737838 37.690051 38.650337 39.986777 38.650337 
z
" clip-path="url(#p507e988554)" style="fill: #ffffff; stroke: #000000"/>
    <path d="M 58.12137 295.708188 
C 60.418096 295.708188 62.621063 294.795689 64.245094 293.171658 
C 65.869125 291.547628 66.781624 289.34466 66.781624 287.047934 
C 66.781624 284.751208 65.869125 282.54824 64.245094 280.92421 
C 62.621063 279.300179 60.418096 278.38768 58.12137 278.38768 
C 55.824643 278.38768 53.621676 279.300179 51.997645 280.92421 
C 50.373614 282.54824 49.461116 284.751208 49.461116 287.047934 
C 49.461116 289.34466 50.373614 291.547628 51.997645 293.171658 
C 53.621676 294.795689 55.824643 295.708188 58.12137 295.708188 
z
" clip-path="url(#p507e988554)" style="fill: #ffffff; stroke: #000000"/>
    <path d="M 58.12137 124.336287 
C 60.418096 124.336287 62.621063 123.423788 64.245094 121.799757 
C 65.869125 120.175727 66.781624 117.972759 66.781624 115.676033 
C 66.781624 113.379307 65.869125 111.176339 64.245094 109.552309 
C 62.621063 107.928278 60.418096 107.015779 58.12137 107.015779 
C 55.824643 107.015779 53.621676 107.928278 51.997645 109.552309 
C 50.373614 111.176339 49.461116 113.379307 49.461116 115.676033 
C 49.461116 117.972759 50.373614 120.175727 51.997645 121.799757 
C 53.621676 123.423788 55.824643 124.336287 58.12137 124.336287 
z
" clip-path="url(#p507e988554)" style="fill: #ffffff; stroke: #000000"/>
    <path d="M 58.12137 238.584221 
C 60.418096 238.584221 62.621063 237.671722 64.245094 236.047691 
C 65.869125 234.423661 66.781624 232.220693 66.781624 229.923967 
C 66.781624 227.627241 65.869125 225.424273 64.245094 223.800243 
C 62.621063 222.176212 60.418096 221.263713 58.12137 221.263713 
C 55.824643 221.263713 53.621676 222.176212 51.997645 223.800243 
C 50.373614 225.424273 49.461116 227.627241 49.461116 229.923967 
C 49.461116 232.220693 50.373614 234.423661 51.997645 236.047691 
C 53.621676 237.671722 55.824643 238.584221 58.12137 238.584221 
z
" clip-path="url(#p507e988554)" style="fill: #ffffff; stroke: #000000"/>
    <path d="M 58.12137 181.460254 
C 60.418096 181.460254 62.621063 180.547755 64.245094 178.923724 
C 65.869125 177.299694 66.781624 175.096726 66.781624 172.8 
C 66.781624 170.503274 65.869125 168.300306 64.245094 166.676276 
C 62.621063 165.052245 60.418096 164.139746 58.12137 164.139746 
C 55.824643 164.139746 53.621676 165.052245 51.997645 166.676276 
C 50.373614 168.300306 49.461116 170.503274 49.461116 172.8 
C 49.461116 175.096726 50.373614 177.299694 51.997645 178.923724 
C 53.621676 180.547755 55.824643 181.460254 58.12137 181.460254 
z
" clip-path="url(#p507e988554)" style="fill: #ffffff; stroke: #000000"/>
    <path d="M 58.12137 67.21232 
C 60.418096 67.21232 62.621063 66.299821 64.245094 64.67579 
C 65.869125 63.05176 66.781624 60.848792 66.781624 58.552066 
C 66.781624 56.25534 65.869125 54.052372 64.245094 52.428342 
C 62.621063 50.804311 60.418096 49.891812 58.12137 49.891812 
C 55.824643 49.891812 53.621676 50.804311 51.997645 52.428342 
C 50.373614 54.052372 49.461116 56.25534 49.461116 58.552066 
C 49.461116 60.848792 50.373614 63.05176 51.997645 64.67579 
C 53.621676 66.299821 55.824643 67.21232 58.12137 67.21232 
z
" clip-path="url(#p507e988554)" style="fill: #ffffff; stroke: #000000"/>
    <path d="M 76.255962 124.336287 
C 78.552688 124.336287 80.755656 123.423788 82.379687 121.799757 
C 84.003717 120.175727 84.916216 117.972759 84.916216 115.676033 
C 84.916216 113.379307 84.003717 111.176339 82.379687 109.552309 
C 80.755656 107.928278 78.552688 107.015779 76.255962 107.015779 
C 73.959236 107.015779 71.756269 107.928278 70.132238 109.552309 
C 68.508207 111.176339 67.595708 113.379307 67.595708 115.676033 
C 67.595708 117.972759 68.508207 120.175727 70.132238 121.799757 
C 71.756269 123.423788 73.959236 124.336287 76.255962 124.336287 
z
" clip-path="url(#p507e988554)" style="fill: #ffffff; stroke: #000000"/>
    <path d="M 76.255962 238.584221 
C 78.552688 238.584221 80.755656 237.671722 82.379687 236.047691 
C 84.003717 234.423661 84.916216 232.220693 84.916216 229.923967 
C 84.916216 227.627241 84.003717 225.424273 82.379687 223.800243 
C 80.755656 222.176212 78.552688 221.263713 76.255962 221.263713 
C 73.959236 221.263713 71.756269 222.176212 70.132238 223.800243 
C 68.508207 225.424273 67.595708 227.627241 67.595708 229.923967 
C 67.595708 232.220693 68.508207 234.423661 70.132238 236.047691 
C 71.756269 237.671722 73.959236 238.584221 76.255962 238.584221 
z
" clip-path="url(#p507e988554)" style="fill: #ffffff; stroke: #000000"/>
    <path d="M 76.255962 181.460254 
C 78.552688 181.460254 80.755656 180.547755 82.379687 178.923724 
C 84.003717 177.299694 84.916216 175.096726 84.916216 172.8 
C 84.916216 170.503274 84.003717 168.300306 82.379687 166.676276 
C 80.755656 165.052245 78.552688 164.139746 76.255962 164.139746 
C 73.959236 164.139746 71.756269 165.052245 70.132238 166.676276 
C 68.508207 168.300306 67.595708 170.503274 67.595708 172.8 
C 67.595708 175.096726 68.508207 177.299694 70.132238 178.923724 
C 71.756269 180.547755 73.959236 181.460254 76.255962 181.460254 
z
" clip-path="url(#p507e988554)" style="fill: #ffffff; stroke: #000000"/>
    <path d="M 94.390555 181.460254 
C 96.687281 181.460254 98.890249 180.547755 100.514279 178.923724 
C 102.13831 177.299694 103.050809 175.096726 103.050809 172.8 
C 103.050809 170.503274 102.13831 168.300306 100.514279 166.676276 
C 98.890249 165.052245 96.687281 164.139746 94.390555 164.139746 
C 92.093829 164.139746 89.890861 165.052245 88.266831 166.676276 
C 86.6428 168.300306 85.730301 170.503274 85.730301 172.8 
C 85.730301 175.096726 86.6428 177.299694 88.266831 178.923724 
C 89.890861 180.547755 92.093829 181.460254 94.390555 181.460254 
z
" clip-path="url(#p507e988554)" style="fill: #ffffff; stroke: #000000"/>
    <path d="M 112.525148 210.022238 
C 114.821874 210.022238 117.024841 209.109739 118.648872 207.485708 
C 120.272903 205.861677 121.185402 203.65871 121.185402 201.361983 
C 121.185402 199.065257 120.272903 196.86229 118.648872 195.238259 
C 117.024841 193.614228 114.821874 192.701729 112.525148 192.701729 
C 110.228421 192.701729 108.025454 193.614228 106.401423 195.238259 
C 104.777393 196.86229 103.864894 199.065257 103.864894 201.361983 
C 103.864894 203.65871 104.777393 205.861677 106.401423 207.485708 
C 108.025454 209.109739 110.228421 210.022238 112.525148 210.022238 
z
" clip-path="url(#p507e988554)" style="fill: #ffffff; stroke: #000000"/>
    <path d="M 112.525148 152.898271 
C 114.821874 152.898271 117.024841 151.985772 118.648872 150.361741 
C 120.272903 148.73771 121.185402 146.534743 121.185402 144.238017 
C 121.185402 141.94129 120.272903 139.738323 118.648872 138.114292 
C 117.024841 136.490261 114.821874 135.577762 112.525148 135.577762 
C 110.228421 135.577762 108.025454 136.490261 106.401423 138.114292 
C 104.777393 139.738323 103.864894 141.94129 103.864894 144.238017 
C 103.864894 146.534743 104.777393 148.73771 106.401423 150.361741 
C 108.025454 151.985772 110.228421 152.898271 112.525148 152.898271 
z
" clip-path="url(#p507e988554)" style="fill: #ffffff; stroke: #000000"/>
    <path d="M 130.65974 181.460254 
C 132.956466 181.460254 135.159434 180.547755 136.783465 178.923724 
C 138.407495 177.299694 139.319994 175.096726 139.319994 172.8 
C 139.319994 170.503274 138.407495 168.300306 136.783465 166.676276 
C 135.159434 165.052245 132.956466 164.139746 130.65974 164.139746 
C 128.363014 164.139746 126.160047 165.052245 124.536016 166.676276 
C 122.911985 168.300306 121.999486 170.503274 121.999486 172.8 
C 121.999486 175.096726 122.911985 177.299694 124.536016 178.923724 
C 126.160047 180.547755 128.363014 181.460254 130.65974 181.460254 
z
" clip-path="url(#p507e988554)" style="fill: #ffffff; stroke: #000000"/>
    <path d="M 148.794333 181.460254 
C 151.091059 181.460254 153.294027 180.547755 154.918057 178.923724 
C 156.542088 177.299694 157.454587 175.096726 157.454587 172.8 
C 157.454587 170.503274 156.542088 168.300306 154.918057 166.676276 
C 153.294027 165.052245 151.091059 164.139746 148.794333 164.139746 
C 146.497607 164.139746 144.294639 165.052245 142.670609 166.676276 
C 141.046578 168.300306 140.134079 170.503274 140.134079 172.8 
C 140.134079 175.096726 141.046578 177.299694 142.670609 178.923724 
C 144.294639 180.547755 146.497607 181.460254 148.794333 181.460254 
z
" clip-path="url(#p507e988554)" style="fill: #ffffff; stroke: #000000"/>
    <path d="M 166.928926 181.460254 
C 169.225652 181.460254 171.428619 180.547755 173.05265 178.923724 
C 174.676681 177.299694 175.58918 175.096726 175.58918 172.8 
C 175.58918 170.503274 174.676681 168.300306 173.05265 166.676276 
C 171.428619 165.052245 169.225652 164.139746 166.928926 164.139746 
C 164.632199 164.139746 162.429232 165.052245 160.805201 166.676276 
C 159.181171 168.300306 158.268672 170.503274 158.268672 172.8 
C 158.268672 175.096726 159.181171 177.299694 160.805201 178.923724 
C 162.429232 180.547755 164.632199 181.460254 166.928926 181.460254 
z
" clip-path="url(#p507e988554)" style="fill: #ffffff; stroke: #000000"/>
    <path d="M 185.063518 181.460254 
C 187.360245 181.460254 189.563212 180.547755 191.187243 178.923724 
C 192.811273 177.299694 193.723772 175.096726 193.723772 172.8 
C 193.723772 170.503274 192.811273 168.300306 191.187243 166.676276 
C 189.563212 165.052245 187.360245 164.139746 185.063518 164.139746 
C 182.766792 164.139746 180.563825 165.052245 178.939794 166.676276 
C 177.315763 168.300306 176.403264 170.503274 176.403264 172.8 
C 176.403264 175.096726 177.315763 177.299694 178.939794 178.923724 
C 180.563825 180.547755 182.766792 181.460254 185.063518 181.460254 
z
" clip-path="url(#p507e988554)" style="fill: #ffffff; stroke: #000000"/>
    <path d="M 203.198111 210.022238 
C 205.494837 210.022238 207.697805 209.109739 209.321835 207.485708 
C 210.945866 205.861677 211.858365 203.65871 211.858365 201.361983 
C 211.858365 199.065257 210.945866 196.86229 209.321835 195.238259 
C 207.697805 193.614228 205.494837 192.701729 203.198111 192.701729 
C 200.901385 192.701729 198.698417 193.614228 197.074387 195.238259 
C 195.450356 196.86229 194.537857 199.065257 194.537857 201.361983 
C 194.537857 203.65871 195.450356 205.861677 197.074387 207.485708 
C 198.698417 209.109739 200.901385 210.022238 203.198111 210.022238 
z
" clip-path="url(#p507e988554)" style="fill: #ffffff; stroke: #000000"/>
    <path d="M 203.198111 152.898271 
C 205.494837 152.898271 207.697805 151.985772 209.321835 150.361741 
C 210.945866 148.73771 211.858365 146.534743 211.858365 144.238017 
C 211.858365 141.94129 210.945866 139.738323 209.321835 138.114292 
C 207.697805 136.490261 205.494837 135.577762 203.198111 135.577762 
C 200.901385 135.577762 198.698417 136.490261 197.074387 138.114292 
C 195.450356 139.738323 194.537857 141.94129 194.537857 144.238017 
C 194.537857 146.534743 195.450356 148.73771 197.074387 150.361741 
C 198.698417 151.985772 200.901385 152.898271 203.198111 152.898271 
z
" clip-path="url(#p507e988554)" style="fill: #ffffff; stroke: #000000"/>
    <path d="M 221.332704 152.898271 
C 223.62943 152.898271 225.832397 151.985772 227.456428 150.361741 
C 229.080459 148.73771 229.992958 146.534743 229.992958 144.238017 
C 229.992958 141.94129 229.080459 139.738323 227.456428 138.114292 
C 225.832397 136.490261 223.62943 135.577762 221.332704 135.577762 
C 219.035977 135.577762 216.83301 136.490261 215.208979 138.114292 
C 213.584949 139.738323 212.67245 141.94129 212.67245 144.238017 
C 212.67245 146.534743 213.584949 148.73771 215.208979 150.361741 
C 216.83301 151.985772 219.035977 152.898271 221.332704 152.898271 
z
" clip-path="url(#p507e988554)" style="fill: #ffffff; stroke: #000000"/>
    <path d="M 221.332704 210.022238 
C 223.62943 210.022238 225.832397 209.109739 227.456428 207.485708 
C 229.080459 205.861677 229.992958 203.65871 229.992958 201.361983 
C 229.992958 199.065257 229.080459 196.86229 227.456428 195.238259 
C 225.832397 193.614228 223.62943 192.701729 221.332704 192.701729 
C 219.035977 192.701729 216.83301 193.614228 215.208979 195.238259 
C 213.584949 196.86229 212.67245 199.065257 212.67245 201.361983 
C 212.67245 203.65871 213.584949 205.861677 215.208979 207.485708 
C 216.83301 209.109739 219.035977 210.022238 221.332704 210.022238 
z
" clip-path="url(#p507e988554)" style="fill: #ffffff; stroke: #000000"/>
    <path d="M 239.467296 152.898271 
C 241.764023 152.898271 243.96699 151.985772 245.591021 150.361741 
C 247.215051 148.73771 248.12755 146.534743 248.12755 144.238017 
C 248.12755 141.94129 247.215051 139.738323 245.591021 138.114292 
C 243.96699 136.490261 241.764023 135.577762 239.467296 135.577762 
C 237.17057 135.577762 234.967603 136.490261 233.343572 138.114292 
C 231.719541 139.738323 230.807042 141.94129 230.807042 144.238017 
C 230.807042 146.534743 231.719541 148.73771 233.343572 150.361741 
C 234.967603 151.985772 237.17057 152.898271 239.467296 152.898271 
z
" clip-path="url(#p507e988554)" style="fill: #ffffff; stroke: #000000"/>
    <path d="M 239.467296 267.146204 
C 241.764023 267.146204 243.96699 266.233705 245.591021 264.609675 
C 247.215051 262.985644 248.12755 260.782677 248.12755 258.48595 
C 248.12755 256.189224 247.215051 253.986257 245.591021 252.362226 
C 243.96699 250.738195 241.764023 249.825696 239.467296 249.825696 
C 237.17057 249.825696 234.967603 250.738195 233.343572 252.362226 
C 231.719541 253.986257 230.807042 256.189224 230.807042 258.48595 
C 230.807042 260.782677 231.719541 262.985644 233.343572 264.609675 
C 234.967603 266.233705 237.17057 267.146204 239.467296 267.146204 
z
" clip-path="url(#p507e988554)" style="fill: #ffffff; stroke: #000000"/>
    <path d="M 239.467296 95.774304 
C 241.764023 95.774304 243.96699 94.861805 245.591021 93.237774 
C 247.215051 91.613743 248.12755 89.410776 248.12755 87.11405 
C 248.12755 84.817323 247.215051 82.614356 245.591021 80.990325 
C 243.96699 79.366295 241.764023 78.453796 239.467296 78.453796 
C 237.17057 78.453796 234.967603 79.366295 233.343572 80.990325 
C 231.719541 82.614356 230.807042 84.817323 230.807042 87.11405 
C 230.807042 89.410776 231.719541 91.613743 233.343572 93.237774 
C 234.967603 94.861805 237.17057 95.774304 239.467296 95.774304 
z
" clip-path="url(#p507e988554)" style="fill: #ffffff; stroke: #000000"/>
    <path d="M 239.467296 210.022238 
C 241.764023 210.022238 243.96699 209.109739 245.591021 207.485708 
C 247.215051 205.861677 248.12755 203.65871 248.12755 201.361983 
C 248.12755 199.065257 247.215051 196.86229 245.591021 195.238259 
C 243.96699 193.614228 241.764023 192.701729 239.467296 192.701729 
C 237.17057 192.701729 234.967603 193.614228 233.343572 195.238259 
C 231.719541 196.86229 230.807042 199.065257 230.807042 201.361983 
C 230.807042 203.65871 231.719541 205.861677 233.343572 207.485708 
C 234.967603 209.109739 237.17057 210.022238 239.467296 210.022238 
z
" clip-path="url(#p507e988554)" style="fill: #ffffff; stroke: #000000"/>
    <path d="M 257.601889 124.336287 
C 259.898615 124.336287 262.101583 123.423788 263.725613 121.799757 
C 265.349644 120.175727 266.262143 117.972759 266.262143 115.676033 
C 266.262143 113.379307 265.349644 111.176339 263.725613 109.552309 
C 262.101583 107.928278 259.898615 107.015779 257.601889 107.015779 
C 255.305163 107.015779 253.102195 107.928278 251.478165 109.552309 
C 249.854134 111.176339 248.941635 113.379307 248.941635 115.676033 
C 248.941635 117.972759 249.854134 120.175727 251.478165 121.799757 
C 253.102195 123.423788 255.305163 124.336287 257.601889 124.336287 
z
" clip-path="url(#p507e988554)" style="fill: #ffffff; stroke: #000000"/>
    <path d="M 257.601889 181.460254 
C 259.898615 181.460254 262.101583 180.547755 263.725613 178.923724 
C 265.349644 177.299694 266.262143 175.096726 266.262143 172.8 
C 266.262143 170.503274 265.349644 168.300306 263.725613 166.676276 
C 262.101583 165.052245 259.898615 164.139746 257.601889 164.139746 
C 255.305163 164.139746 253.102195 165.052245 251.478165 166.676276 
C 249.854134 168.300306 248.941635 170.503274 248.941635 172.8 
C 248.941635 175.096726 249.854134 177.299694 251.478165 178.923724 
C 253.102195 180.547755 255.305163 181.460254 257.601889 181.460254 
z
" clip-path="url(#p507e988554)" style="fill: #ffffff; stroke: #000000"/>
    <path d="M 257.601889 238.584221 
C 259.898615 238.584221 262.101583 237.671722 263.725613 236.047691 
C 265.349644 234.423661 266.262143 232.220693 266.262143 229.923967 
C 266.262143 227.627241 265.349644 225.424273 263.725613 223.800243 
C 262.101583 222.176212 259.898615 221.263713 257.601889 221.263713 
C 255.305163 221.263713 253.102195 222.176212 251.478165 223.800243 
C 249.854134 225.424273 248.941635 227.627241 248.941635 229.923967 
C 248.941635 232.220693 249.854134 234.423661 251.478165 236.047691 
C 253.102195 237.671722 255.305163 238.584221 257.601889 238.584221 
z
" clip-path="url(#p507e988554)" style="fill: #ffffff; stroke: #000000"/>
    <path d="M 275.736482 95.774304 
C 278.033208 95.774304 280.236175 94.861805 281.860206 93.237774 
C 283.484237 91.613743 284.396736 89.410776 284.396736 87.11405 
C 284.396736 84.817323 283.484237 82.614356 281.860206 80.990325 
C 280.236175 79.366295 278.033208 78.453796 275.736482 78.453796 
C 273.439755 78.453796 271.236788 79.366295 269.612757 80.990325 
C 267.988727 82.614356 267.076228 84.817323 267.076228 87.11405 
C 267.076228 89.410776 267.988727 91.613743 269.612757 93.237774 
C 271.236788 94.861805 273.439755 95.774304 275.736482 95.774304 
z
" clip-path="url(#p507e988554)" style="fill: #ffffff; stroke: #000000"/>
    <path d="M 275.736482 267.146204 
C 278.033208 267.146204 280.236175 266.233705 281.860206 264.609675 
C 283.484237 262.985644 284.396736 260.782677 284.396736 258.48595 
C 284.396736 256.189224 283.484237 253.986257 281.860206 252.362226 
C 280.236175 250.738195 278.033208 249.825696 275.736482 249.825696 
C 273.439755 249.825696 271.236788 250.738195 269.612757 252.362226 
C 267.988727 253.986257 267.076228 256.189224 267.076228 258.48595 
C 267.076228 260.782677 267.988727 262.985644 269.612757 264.609675 
C 271.236788 266.233705 273.439755 267.146204 275.736482 267.146204 
z
" clip-path="url(#p507e988554)" style="fill: #ffffff; stroke: #000000"/>
    <path d="M 275.736482 210.022238 
C 278.033208 210.022238 280.236175 209.109739 281.860206 207.485708 
C 283.484237 205.861677 284.396736 203.65871 284.396736 201.361983 
C 284.396736 199.065257 283.484237 196.86229 281.860206 195.238259 
C 280.236175 193.614228 278.033208 192.701729 275.736482 192.701729 
C 273.439755 192.701729 271.236788 193.614228 269.612757 195.238259 
C 267.988727 196.86229 267.076228 199.065257 267.076228 201.361983 
C 267.076228 203.65871 267.988727 205.861677 269.612757 207.485708 
C 271.236788 209.109739 273.439755 210.022238 275.736482 210.022238 
z
" clip-path="url(#p507e988554)" style="fill: #ffffff; stroke: #000000"/>
    <path d="M 275.736482 152.898271 
C 278.033208 152.898271 280.236175 151.985772 281.860206 150.361741 
C 283.484237 148.73771 284.396736 146.534743 284.396736 144.238017 
C 284.396736 141.94129 283.484237 139.738323 281.860206 138.114292 
C 280.236175 136.490261 278.033208 135.577762 275.736482 135.577762 
C 273.439755 135.577762 271.236788 136.490261 269.612757 138.114292 
C 267.988727 139.738323 267.076228 141.94129 267.076228 144.238017 
C 267.076228 146.534743 267.988727 148.73771 269.612757 150.361741 
C 271.236788 151.985772 273.439755 152.898271 275.736482 152.898271 
z
" clip-path="url(#p507e988554)" style="fill: #ffffff; stroke: #000000"/>
    <path d="M 293.871074 181.460254 
C 296.167801 181.460254 298.370768 180.547755 299.994799 178.923724 
C 301.618829 177.299694 302.531328 175.096726 302.531328 172.8 
C 302.531328 170.503274 301.618829 168.300306 299.994799 166.676276 
C 298.370768 165.052245 296.167801 164.139746 293.871074 164.139746 
C 291.574348 164.139746 289.371381 165.052245 287.74735 166.676276 
C 286.123319 168.300306 285.21082 170.503274 285.21082 172.8 
C 285.21082 175.096726 286.123319 177.299694 287.74735 178.923724 
C 289.371381 180.547755 291.574348 181.460254 293.871074 181.460254 
z
" clip-path="url(#p507e988554)" style="fill: #ffffff; stroke: #000000"/>
    <path d="M 312.005667 181.460254 
C 314.302393 181.460254 316.505361 180.547755 318.129391 178.923724 
C 319.753422 177.299694 320.665921 175.096726 320.665921 172.8 
C 320.665921 170.503274 319.753422 168.300306 318.129391 166.676276 
C 316.505361 165.052245 314.302393 164.139746 312.005667 164.139746 
C 309.708941 164.139746 307.505973 165.052245 305.881943 166.676276 
C 304.257912 168.300306 303.345413 170.503274 303.345413 172.8 
C 303.345413 175.096726 304.257912 177.299694 305.881943 178.923724 
C 307.505973 180.547755 309.708941 181.460254 312.005667 181.460254 
z
" clip-path="url(#p507e988554)" style="fill: #ffffff; stroke: #000000"/>
    <path d="M 330.14026 181.460254 
C 332.436986 181.460254 334.639953 180.547755 336.263984 178.923724 
C 337.888015 177.299694 338.800514 175.096726 338.800514 172.8 
C 338.800514 170.503274 337.888015 168.300306 336.263984 166.676276 
C 334.639953 165.052245 332.436986 164.139746 330.14026 164.139746 
C 327.843534 164.139746 325.640566 165.052245 324.016535 166.676276 
C 322.392505 168.300306 321.480006 170.503274 321.480006 172.8 
C 321.480006 175.096726 322.392505 177.299694 324.016535 178.923724 
C 325.640566 180.547755 327.843534 181.460254 330.14026 181.460254 
z
" clip-path="url(#p507e988554)" style="fill: #ffffff; stroke: #000000"/>
    <path d="M 348.274852 210.022238 
C 350.571579 210.022238 352.774546 209.109739 354.398577 207.485708 
C 356.022607 205.861677 356.935106 203.65871 356.935106 201.361983 
C 356.935106 199.065257 356.022607 196.86229 354.398577 195.238259 
C 352.774546 193.614228 350.571579 192.701729 348.274852 192.701729 
C 345.978126 192.701729 343.775159 193.614228 342.151128 195.238259 
C 340.527097 196.86229 339.614598 199.065257 339.614598 201.361983 
C 339.614598 203.65871 340.527097 205.861677 342.151128 207.485708 
C 343.775159 209.109739 345.978126 210.022238 348.274852 210.022238 
z
" clip-path="url(#p507e988554)" style="fill: #ffffff; stroke: #000000"/>
    <path d="M 348.274852 152.898271 
C 350.571579 152.898271 352.774546 151.985772 354.398577 150.361741 
C 356.022607 148.73771 356.935106 146.534743 356.935106 144.238017 
C 356.935106 141.94129 356.022607 139.738323 354.398577 138.114292 
C 352.774546 136.490261 350.571579 135.577762 348.274852 135.577762 
C 345.978126 135.577762 343.775159 136.490261 342.151128 138.114292 
C 340.527097 139.738323 339.614598 141.94129 339.614598 144.238017 
C 339.614598 146.534743 340.527097 148.73771 342.151128 150.361741 
C 343.775159 151.985772 345.978126 152.898271 348.274852 152.898271 
z
" clip-path="url(#p507e988554)" style="fill: #ffffff; stroke: #000000"/>
    <path d="M 366.409445 124.336287 
C 368.706171 124.336287 370.909139 123.423788 372.533169 121.799757 
C 374.1572 120.175727 375.069699 117.972759 375.069699 115.676033 
C 375.069699 113.379307 374.1572 111.176339 372.533169 109.552309 
C 370.909139 107.928278 368.706171 107.015779 366.409445 107.015779 
C 364.112719 107.015779 361.909751 107.928278 360.285721 109.552309 
C 358.66169 111.176339 357.749191 113.379307 357.749191 115.676033 
C 357.749191 117.972759 358.66169 120.175727 360.285721 121.799757 
C 361.909751 123.423788 364.112719 124.336287 366.409445 124.336287 
z
" clip-path="url(#p507e988554)" style="fill: #0000ff; stroke: #000000"/>
    <path d="M 366.409445 238.584221 
C 368.706171 238.584221 370.909139 237.671722 372.533169 236.047691 
C 374.1572 234.423661 375.069699 232.220693 375.069699 229.923967 
C 375.069699 227.627241 374.1572 225.424273 372.533169 223.800243 
C 370.909139 222.176212 368.706171 221.263713 366.409445 221.263713 
C 364.112719 221.263713 361.909751 222.176212 360.285721 223.800243 
C 358.66169 225.424273 357.749191 227.627241 357.749191 229.923967 
C 357.749191 232.220693 358.66169 234.423661 360.285721 236.047691 
C 361.909751 237.671722 364.112719 238.584221 366.409445 238.584221 
z
" clip-path="url(#p507e988554)" style="fill: #ffffff; stroke: #000000"/>
    <path d="M 366.409445 181.460254 
C 368.706171 181.460254 370.909139 180.547755 372.533169 178.923724 
C 374.1572 177.299694 375.069699 175.096726 375.069699 172.8 
C 375.069699 170.503274 374.1572 168.300306 372.533169 166.676276 
C 370.909139 165.052245 368.706171 164.139746 366.409445 164.139746 
C 364.112719 164.139746 361.909751 165.052245 360.285721 166.676276 
C 358.66169 168.300306 357.749191 170.503274 357.749191 172.8 
C 357.749191 175.096726 358.66169 177.299694 360.285721 178.923724 
C 361.909751 180.547755 364.112719 181.460254 366.409445 181.460254 
z
" clip-path="url(#p507e988554)" style="fill: #ffffff; stroke: #000000"/>
    <path d="M 384.544038 210.022238 
C 386.840764 210.022238 389.043731 209.109739 390.667762 207.485708 
C 392.291793 205.861677 393.204292 203.65871 393.204292 201.361983 
C 393.204292 199.065257 392.291793 196.86229 390.667762 195.238259 
C 389.043731 193.614228 386.840764 192.701729 384.544038 192.701729 
C 382.247312 192.701729 380.044344 193.614228 378.420313 195.238259 
C 376.796283 196.86229 375.883784 199.065257 375.883784 201.361983 
C 375.883784 203.65871 376.796283 205.861677 378.420313 207.485708 
C 380.044344 209.109739 382.247312 210.022238 384.544038 210.022238 
z
" clip-path="url(#p507e988554)" style="fill: #ffffff; stroke: #000000"/>
    <path d="M 384.544038 152.898271 
C 386.840764 152.898271 389.043731 151.985772 390.667762 150.361741 
C 392.291793 148.73771 393.204292 146.534743 393.204292 144.238017 
C 393.204292 141.94129 392.291793 139.738323 390.667762 138.114292 
C 389.043731 136.490261 386.840764 135.577762 384.544038 135.577762 
C 382.247312 135.577762 380.044344 136.490261 378.420313 138.114292 
C 376.796283 139.738323 375.883784 141.94129 375.883784 144.238017 
C 375.883784 146.534743 376.796283 148.73771 378.420313 150.361741 
C 380.044344 151.985772 382.247312 152.898271 384.544038 152.898271 
z
" clip-path="url(#p507e988554)" style="fill: #ffffff; stroke: #000000"/>
    <path d="M 402.67863 181.460254 
C 404.975357 181.460254 407.178324 180.547755 408.802355 178.923724 
C 410.426386 177.299694 411.338884 175.096726 411.338884 172.8 
C 411.338884 170.503274 410.426386 168.300306 408.802355 166.676276 
C 407.178324 165.052245 404.975357 164.139746 402.67863 164.139746 
C 400.381904 164.139746 398.178937 165.052245 396.554906 166.676276 
C 394.930875 168.300306 394.018376 170.503274 394.018376 172.8 
C 394.018376 175.096726 394.930875 177.299694 396.554906 178.923724 
C 398.178937 180.547755 400.381904 181.460254 402.67863 181.460254 
z
" clip-path="url(#p507e988554)" style="fill: #ffffff; stroke: #000000"/>
    <path d="M 420.813223 181.460254 
C 423.109949 181.460254 425.312917 180.547755 426.936947 178.923724 
C 428.560978 177.299694 429.473477 175.096726 429.473477 172.8 
C 429.473477 170.503274 428.560978 168.300306 426.936947 166.676276 
C 425.312917 165.052245 423.109949 164.139746 420.813223 164.139746 
C 418.516497 164.139746 416.313529 165.052245 414.689499 166.676276 
C 413.065468 168.300306 412.152969 170.503274 412.152969 172.8 
C 412.152969 175.096726 413.065468 177.299694 414.689499 178.923724 
C 416.313529 180.547755 418.516497 181.460254 420.813223 181.460254 
z
" clip-path="url(#p507e988554)" style="fill: #ffffff; stroke: #000000"/>
   </g>
  </g>
 </g>
 <defs>
  <clipPath id="p507e988554">
   <rect x="0" y="0" width="460.8" height="345.6"/>
  </clipPath>
 </defs>
</svg>
