<?xml version="1.0" encoding="utf-8" standalone="no"?>
<!DOCTYPE svg PUBLIC "-//W3C//DTD SVG 1.1//EN"
  "http://www.w3.org/Graphics/SVG/1.1/DTD/svg11.dtd">
<svg xmlns:xlink="http://www.w3.org/1999/xlink" width="460.8pt" height="345.6pt" viewBox="0 0 460.8 345.6" xmlns="http://www.w3.org/2000/svg" version="1.1">
 <metadata>
  <rdf:RDF xmlns:dc="http://purl.org/dc/elements/1.1/" xmlns:cc="http://creativecommons.org/ns#" xmlns:rdf="http://www.w3.org/1999/02/22-rdf-syntax-ns#">
   <cc:Work>
    <dc:type rdf:resource="http://purl.org/dc/dcmitype/StillImage"/>
    <dc:date>2025-11-05T03:43:41.174486</dc:date>
    <dc:format>image/svg+xml</dc:format>
    <dc:creator>
     <cc:Agent>
      <dc:title>Matplotlib v3.10.5, https://matplotlib.org/</dc:title>
     </cc:Agent>
    </dc:creator>
   </cc:Work>
  </rdf:RDF>
 </metadata>
 <defs>
  <style type="text/css">*{stroke-linejoin: round; stroke-linecap: butt}</style>
 </defs>
 <g id="figure_1">
  <g id="patch_1">
   <path d="M 0 345.6 
L 460.8 345.6 
L 460.8 0 
L 0 0 
z
" style="fill: #ffffff"/>
  </g>
  <g id="axes_1">
   <g id="patch_2">
    <path d="M 47.741561 311.763795 
Q 183.955293 244.206178 319.167414 177.145327 
" clip-path="url(#pa4db398737)" style="fill: none; stroke: #4c4c4c; stroke-linecap: round"/>
    <path d="M 317.82578 177.140992 
L 319.167414 177.145327 
L 318.358966 178.216033 
" clip-path="url(#pa4db398737)" style="fill: none; stroke: #4c4c4c; stroke-linecap: round"/>
   </g>
   <g id="patch_3">
    <path d="M 41.10418 307.01988 
Q 44.631385 279.904491 48.01437 253.897795 
" clip-path="url(#pa4db398737)" style="fill: none; stroke: #4c4c4c; stroke-linecap: round"/>
    <path d="M 47.264589 255.010373 
L 48.01437 253.897795 
L 48.454564 255.165167 
" clip-path="url(#pa4db398737)" style="fill: none; stroke: #4c4c4c; stroke-linecap: round"/>
   </g>
   <g id="patch_4">
    <path d="M 48.06825 312.503601 
Q 225.754932 244.205283 402.398018 176.308096 
" clip-path="url(#pa4db398737)" style="fill: none; stroke: #4c4c4c; stroke-linecap: round"/>
    <path d="M 401.062643 176.178584 
L 402.398018 176.308096 
L 401.493184 177.298689 
" clip-path="url(#pa4db398737)" style="fill: none; stroke: #4c4c4c; stroke-linecap: round"/>
   </g>
   <g id="patch_5">
    <path d="M 47.794427 264.25528 
Q 114.294281 232.304178 179.786386 200.837268 
" clip-path="url(#pa4db398737)" style="fill: none; stroke: #4c4c4c; stroke-linecap: round"/>
    <path d="M 178.444911 200.816143 
L 179.786386 200.837268 
L 178.964601 201.897772 
" clip-path="url(#pa4db398737)" style="fill: none; stroke: #4c4c4c; stroke-linecap: round"/>
   </g>
   <g id="patch_6">
    <path d="M 41.10418 259.416574 
Q 44.631385 232.301185 48.01437 206.29449 
" clip-path="url(#pa4db398737)" style="fill: none; stroke: #4c4c4c; stroke-linecap: round"/>
    <path d="M 47.264589 207.407067 
L 48.01437 206.29449 
L 48.454564 207.561861 
" clip-path="url(#pa4db398737)" style="fill: none; stroke: #4c4c4c; stroke-linecap: round"/>
   </g>
   <g id="patch_7">
    <path d="M 40.660564 259.373718 
Q 44.630991 208.502623 48.514421 158.746172 
" clip-path="url(#pa4db398737)" style="fill: none; stroke: #4c4c4c; stroke-linecap: round"/>
    <path d="M 47.822866 159.895847 
L 48.514421 158.746172 
L 49.019227 159.989221 
" clip-path="url(#pa4db398737)" style="fill: none; stroke: #4c4c4c; stroke-linecap: round"/>
   </g>
   <g id="patch_8">
    <path d="M 47.812426 264.293051 
Q 165.380606 208.502595 281.938709 153.191458 
" clip-path="url(#pa4db398737)" style="fill: none; stroke: #4c4c4c; stroke-linecap: round"/>
    <path d="M 280.597353 153.163853 
L 281.938709 153.191458 
L 281.111811 154.247981 
" clip-path="url(#pa4db398737)" style="fill: none; stroke: #4c4c4c; stroke-linecap: round"/>
   </g>
   <g id="patch_9">
    <path d="M 48.317554 265.634654 
Q 165.382333 232.30371 281.371814 199.278927 
" clip-path="url(#pa4db398737)" style="fill: none; stroke: #4c4c4c; stroke-linecap: round"/>
    <path d="M 280.05338 199.030469 
L 281.371814 199.278927 
L 280.381986 200.184599 
" clip-path="url(#pa4db398737)" style="fill: none; stroke: #4c4c4c; stroke-linecap: round"/>
   </g>
   <g id="patch_10">
    <path d="M 48.507047 218.843792 
Q 170.026456 196.6014 290.446101 174.560304 
" clip-path="url(#pa4db398737)" style="fill: none; stroke: #4c4c4c; stroke-linecap: round"/>
    <path d="M 289.157685 174.186163 
L 290.446101 174.560304 
L 289.373738 175.366553 
" clip-path="url(#pa4db398737)" style="fill: none; stroke: #4c4c4c; stroke-linecap: round"/>
   </g>
   <g id="patch_11">
    <path d="M 48.118139 217.426646 
Q 105.007175 196.601196 160.846313 176.160083 
" clip-path="url(#pa4db398737)" style="fill: none; stroke: #4c4c4c; stroke-linecap: round"/>
    <path d="M 159.513188 176.009163 
L 160.846313 176.160083 
L 159.925702 177.136031 
" clip-path="url(#pa4db398737)" style="fill: none; stroke: #4c4c4c; stroke-linecap: round"/>
   </g>
   <g id="patch_12">
    <path d="M 48.52037 218.945484 
Q 109.648049 208.502838 169.673659 198.248463 
" clip-path="url(#pa4db398737)" style="fill: none; stroke: #4c4c4c; stroke-linecap: round"/>
    <path d="M 168.389759 197.859104 
L 169.673659 198.248463 
L 168.591832 199.041968 
" clip-path="url(#pa4db398737)" style="fill: none; stroke: #4c4c4c; stroke-linecap: round"/>
   </g>
   <g id="patch_13">
    <path d="M 48.600448 219.520405 
Q 156.091803 208.502541 262.470952 197.598678 
" clip-path="url(#pa4db398737)" style="fill: none; stroke: #4c4c4c; stroke-linecap: round"/>
    <path d="M 261.216027 197.124164 
L 262.470952 197.598678 
L 261.338386 198.31791 
" clip-path="url(#pa4db398737)" style="fill: none; stroke: #4c4c4c; stroke-linecap: round"/>
   </g>
   <g id="patch_14">
    <path d="M 41.10418 164.209963 
Q 44.631385 137.094574 48.01437 111.087878 
" clip-path="url(#pa4db398737)" style="fill: none; stroke: #4c4c4c; stroke-linecap: round"/>
    <path d="M 47.264589 112.200456 
L 48.01437 111.087878 
L 48.454564 112.355249 
" clip-path="url(#pa4db398737)" style="fill: none; stroke: #4c4c4c; stroke-linecap: round"/>
   </g>
   <g id="patch_15">
    <path d="M 48.64651 172.8 
Q 225.754259 172.8 401.743973 172.8 
" clip-path="url(#pa4db398737)" style="fill: none; stroke: #4c4c4c; stroke-linecap: round"/>
    <path d="M 400.543973 172.2 
L 401.743973 172.8 
L 400.543973 173.4 
" clip-path="url(#pa4db398737)" style="fill: none; stroke: #4c4c4c; stroke-linecap: round"/>
   </g>
   <g id="patch_16">
    <path d="M 48.648069 172.8 
Q 146.804379 172.8 243.842654 172.8 
" clip-path="url(#pa4db398737)" style="fill: none; stroke: #4c4c4c; stroke-linecap: round"/>
    <path d="M 242.642654 172.2 
L 243.842654 172.8 
L 242.642654 173.4 
" clip-path="url(#pa4db398737)" style="fill: none; stroke: #4c4c4c; stroke-linecap: round"/>
   </g>
   <g id="patch_17">
    <path d="M 48.644384 172.8 
Q 128.226865 172.8 206.691311 172.8 
" clip-path="url(#pa4db398737)" style="fill: none; stroke: #4c4c4c; stroke-linecap: round"/>
    <path d="M 205.491311 172.2 
L 206.691311 172.8 
L 205.491311 173.4 
" clip-path="url(#pa4db398737)" style="fill: none; stroke: #4c4c4c; stroke-linecap: round"/>
   </g>
   <g id="patch_18">
    <path d="M 48.118139 169.823341 
Q 105.007175 148.99789 160.846313 128.556777 
" clip-path="url(#pa4db398737)" style="fill: none; stroke: #4c4c4c; stroke-linecap: round"/>
    <path d="M 159.513188 128.405857 
L 160.846313 128.556777 
L 159.925702 129.532725 
" clip-path="url(#pa4db398737)" style="fill: none; stroke: #4c4c4c; stroke-linecap: round"/>
   </g>
   <g id="patch_19">
    <path d="M 48.556157 174.054802 
Q 202.532885 196.601394 355.403375 218.986002 
" clip-path="url(#pa4db398737)" style="fill: none; stroke: #4c4c4c; stroke-linecap: round"/>
    <path d="M 354.302967 218.218472 
L 355.403375 218.986002 
L 354.129107 219.405811 
" clip-path="url(#pa4db398737)" style="fill: none; stroke: #4c4c4c; stroke-linecap: round"/>
   </g>
   <g id="patch_20">
    <path d="M 47.694081 176.749994 
Q 86.429066 196.601673 124.169074 215.943427 
" clip-path="url(#pa4db398737)" style="fill: none; stroke: #4c4c4c; stroke-linecap: round"/>
    <path d="M 123.374809 214.862159 
L 124.169074 215.943427 
L 122.8275 215.930078 
" clip-path="url(#pa4db398737)" style="fill: none; stroke: #4c4c4c; stroke-linecap: round"/>
   </g>
   <g id="patch_21">
    <path d="M 48.532417 126.609482 
Q 183.956663 148.998167 318.277848 171.204492 
" clip-path="url(#pa4db398737)" style="fill: none; stroke: #4c4c4c; stroke-linecap: round"/>
    <path d="M 317.191783 170.416797 
L 318.277848 171.204492 
L 316.996053 171.600727 
" clip-path="url(#pa4db398737)" style="fill: none; stroke: #4c4c4c; stroke-linecap: round"/>
   </g>
   <g id="patch_22">
    <path d="M 48.4196 127.161159 
Q 193.243941 160.898647 336.979404 194.382477 
" clip-path="url(#pa4db398737)" style="fill: none; stroke: #4c4c4c; stroke-linecap: round"/>
    <path d="M 335.946825 193.525867 
L 336.979404 194.382477 
L 335.674569 194.694575 
" clip-path="url(#pa4db398737)" style="fill: none; stroke: #4c4c4c; stroke-linecap: round"/>
   </g>
   <g id="patch_23">
    <path d="M 48.374388 79.742714 
Q 225.756251 125.196816 402.055073 170.373389 
" clip-path="url(#pa4db398737)" style="fill: none; stroke: #4c4c4c; stroke-linecap: round"/>
    <path d="M 401.041569 169.494293 
L 402.055073 170.373389 
L 400.743694 170.656734 
" clip-path="url(#pa4db398737)" style="fill: none; stroke: #4c4c4c; stroke-linecap: round"/>
   </g>
   <g id="patch_24">
    <path d="M 43.134611 85.659714 
Q 63.207561 137.096647 82.874057 187.492044 
" clip-path="url(#pa4db398737)" style="fill: none; stroke: #4c4c4c; stroke-linecap: round"/>
    <path d="M 82.996753 186.156025 
L 82.874057 187.492044 
L 81.878859 186.592276 
" clip-path="url(#pa4db398737)" style="fill: none; stroke: #4c4c4c; stroke-linecap: round"/>
   </g>
   <g id="patch_25">
    <path d="M 47.758427 81.423168 
Q 160.73685 137.097631 272.712398 192.277889 
" clip-path="url(#pa4db398737)" style="fill: none; stroke: #4c4c4c; stroke-linecap: round"/>
    <path d="M 271.901217 191.209252 
L 272.712398 192.277889 
L 271.370779 192.285651 
" clip-path="url(#pa4db398737)" style="fill: none; stroke: #4c4c4c; stroke-linecap: round"/>
   </g>
   <g id="patch_26">
    <path d="M 43.135462 85.661893 
Q 44.63068 89.493391 45.719446 92.283353 
" clip-path="url(#pa4db398737)" style="fill: none; stroke: #4c4c4c; stroke-linecap: round"/>
    <path d="M 45.842142 90.947335 
L 45.719446 92.283353 
L 44.724249 91.383586 
" clip-path="url(#pa4db398737)" style="fill: none; stroke: #4c4c4c; stroke-linecap: round"/>
   </g>
   <g id="patch_27">
    <path d="M 47.200151 34.782301 
Q 165.380523 113.29565 282.629641 191.190319 
" clip-path="url(#pa4db398737)" style="fill: none; stroke: #4c4c4c; stroke-linecap: round"/>
    <path d="M 281.962133 190.026518 
L 282.629641 191.190319 
L 281.298095 191.026044 
" clip-path="url(#pa4db398737)" style="fill: none; stroke: #4c4c4c; stroke-linecap: round"/>
   </g>
   <g id="patch_28">
    <path d="M 47.812426 33.703643 
Q 165.380606 89.494099 281.938709 144.805236 
" clip-path="url(#pa4db398737)" style="fill: none; stroke: #4c4c4c; stroke-linecap: round"/>
    <path d="M 281.111811 143.748714 
L 281.938709 144.805236 
L 280.597353 144.832841 
" clip-path="url(#pa4db398737)" style="fill: none; stroke: #4c4c4c; stroke-linecap: round"/>
   </g>
   <g id="patch_29">
    <path d="M 43.576243 37.87409 
Q 72.496074 101.394431 100.952635 163.897236 
" clip-path="url(#pa4db398737)" style="fill: none; stroke: #4c4c4c; stroke-linecap: round"/>
    <path d="M 101.001471 162.556484 
L 100.952635 163.897236 
L 99.909335 163.053717 
" clip-path="url(#pa4db398737)" style="fill: none; stroke: #4c4c4c; stroke-linecap: round"/>
   </g>
   <g id="patch_30">
    <path d="M 57.664255 103.54473 
Q 188.600413 137.09712 318.453529 170.371981 
" clip-path="url(#pa4db398737)" style="fill: none; stroke: #4c4c4c; stroke-linecap: round"/>
    <path d="M 317.440026 169.492885 
L 318.453529 170.371981 
L 317.14215 170.655326 
" clip-path="url(#pa4db398737)" style="fill: none; stroke: #4c4c4c; stroke-linecap: round"/>
   </g>
   <g id="patch_31">
    <path d="M 50.116256 110.015586 
Q 53.919632 149.000191 57.614447 186.872045 
" clip-path="url(#pa4db398737)" style="fill: none; stroke: #4c4c4c; stroke-linecap: round"/>
    <path d="M 58.095091 185.619456 
L 57.614447 186.872045 
L 56.900762 185.735976 
" clip-path="url(#pa4db398737)" style="fill: none; stroke: #4c4c4c; stroke-linecap: round"/>
   </g>
   <g id="patch_32">
    <path d="M 54.252518 108.480769 
Q 91.072671 160.898347 127.250177 212.401046 
" clip-path="url(#pa4db398737)" style="fill: none; stroke: #4c4c4c; stroke-linecap: round"/>
    <path d="M 127.051391 211.074214 
L 127.250177 212.401046 
L 126.069439 211.763975 
" clip-path="url(#pa4db398737)" style="fill: none; stroke: #4c4c4c; stroke-linecap: round"/>
   </g>
   <g id="patch_33">
    <path d="M 57.606004 103.766999 
Q 174.670783 137.097943 290.660264 170.122725 
" clip-path="url(#pa4db398737)" style="fill: none; stroke: #4c4c4c; stroke-linecap: round"/>
    <path d="M 289.670436 169.217053 
L 290.660264 170.122725 
L 289.34183 170.371184 
" clip-path="url(#pa4db398737)" style="fill: none; stroke: #4c4c4c; stroke-linecap: round"/>
   </g>
   <g id="patch_34">
    <path d="M 57.917456 196.033814 
Q 230.400573 184.700789 401.76806 173.441066 
" clip-path="url(#pa4db398737)" style="fill: none; stroke: #4c4c4c; stroke-linecap: round"/>
    <path d="M 400.531304 172.921034 
L 401.76806 173.441066 
L 400.60998 174.118452 
" clip-path="url(#pa4db398737)" style="fill: none; stroke: #4c4c4c; stroke-linecap: round"/>
   </g>
   <g id="patch_35">
    <path d="M 56.375074 239.243133 
Q 100.361761 208.502437 143.43203 178.402193 
" clip-path="url(#pa4db398737)" style="fill: none; stroke: #4c4c4c; stroke-linecap: round"/>
    <path d="M 142.104725 178.597796 
L 143.43203 178.402193 
L 142.792129 179.581399 
" clip-path="url(#pa4db398737)" style="fill: none; stroke: #4c4c4c; stroke-linecap: round"/>
   </g>
   <g id="patch_36">
    <path d="M 57.74164 242.397027 
Q 105.003728 232.304602 151.172433 222.445659 
" clip-path="url(#pa4db398737)" style="fill: none; stroke: #4c4c4c; stroke-linecap: round"/>
    <path d="M 149.873592 222.109489 
L 151.172433 222.445659 
L 150.124192 223.28303 
" clip-path="url(#pa4db398737)" style="fill: none; stroke: #4c4c4c; stroke-linecap: round"/>
   </g>
   <g id="patch_37">
    <path d="M 57.933259 148.998347 
Q 58.248468 148.998347 57.445643 148.998347 
" clip-path="url(#pa4db398737)" style="fill: none; stroke: #4c4c4c; stroke-linecap: round"/>
    <path d="M 56.245643 148.398347 
L 57.445643 148.998347 
L 56.245643 149.598347 
" clip-path="url(#pa4db398737)" style="fill: none; stroke: #4c4c4c; stroke-linecap: round"/>
   </g>
   <g id="patch_38">
    <path d="M 61.712361 157.066852 
Q 63.20758 160.89835 64.296346 163.688312 
" clip-path="url(#pa4db398737)" style="fill: none; stroke: #4c4c4c; stroke-linecap: round"/>
    <path d="M 64.419042 162.352293 
L 64.296346 163.688312 
L 63.301148 162.788544 
" clip-path="url(#pa4db398737)" style="fill: none; stroke: #4c4c4c; stroke-linecap: round"/>
   </g>
   <g id="patch_39">
    <path d="M 67.224969 196.601653 
Q 165.381278 196.601653 262.419554 196.601653 
" clip-path="url(#pa4db398737)" style="fill: none; stroke: #4c4c4c; stroke-linecap: round"/>
    <path d="M 261.219554 196.001653 
L 262.419554 196.601653 
L 261.219554 197.201653 
" clip-path="url(#pa4db398737)" style="fill: none; stroke: #4c4c4c; stroke-linecap: round"/>
   </g>
   <g id="patch_40">
    <path d="M 76.454884 171.797974 
Q 170.023964 160.899303 262.482518 150.129983 
" clip-path="url(#pa4db398737)" style="fill: none; stroke: #4c4c4c; stroke-linecap: round"/>
    <path d="M 261.221159 149.672846 
L 262.482518 150.129983 
L 261.359994 150.864788 
" clip-path="url(#pa4db398737)" style="fill: none; stroke: #4c4c4c; stroke-linecap: round"/>
   </g>
   <g id="patch_41">
    <path d="M 76.461404 173.71922 
Q 179.312992 184.70077 281.052865 195.563621 
" clip-path="url(#pa4db398737)" style="fill: none; stroke: #4c4c4c; stroke-linecap: round"/>
    <path d="M 279.923348 194.839611 
L 281.052865 195.563621 
L 279.795947 196.032829 
" clip-path="url(#pa4db398737)" style="fill: none; stroke: #4c4c4c; stroke-linecap: round"/>
   </g>
   <g id="patch_42">
    <path d="M 76.510159 172.8 
Q 142.159928 172.8 206.691663 172.8 
" clip-path="url(#pa4db398737)" style="fill: none; stroke: #4c4c4c; stroke-linecap: round"/>
    <path d="M 205.491663 172.2 
L 206.691663 172.8 
L 205.491663 173.4 
" clip-path="url(#pa4db398737)" style="fill: none; stroke: #4c4c4c; stroke-linecap: round"/>
   </g>
   <g id="patch_43">
    <path d="M 76.510159 172.8 
Q 76.825368 172.8 76.022543 172.8 
" clip-path="url(#pa4db398737)" style="fill: none; stroke: #4c4c4c; stroke-linecap: round"/>
    <path d="M 74.822543 172.2 
L 76.022543 172.8 
L 74.822543 173.4 
" clip-path="url(#pa4db398737)" style="fill: none; stroke: #4c4c4c; stroke-linecap: round"/>
   </g>
   <g id="patch_44">
    <path d="M 85.803711 172.8 
Q 142.159376 172.8 197.397007 172.8 
" clip-path="url(#pa4db398737)" style="fill: none; stroke: #4c4c4c; stroke-linecap: round"/>
    <path d="M 196.197007 172.2 
L 197.397007 172.8 
L 196.197007 173.4 
" clip-path="url(#pa4db398737)" style="fill: none; stroke: #4c4c4c; stroke-linecap: round"/>
   </g>
   <g id="patch_45">
    <path d="M 85.800452 172.8 
Q 202.532688 172.8 318.14689 172.8 
" clip-path="url(#pa4db398737)" style="fill: none; stroke: #4c4c4c; stroke-linecap: round"/>
    <path d="M 316.94689 172.2 
L 318.14689 172.8 
L 316.94689 173.4 
" clip-path="url(#pa4db398737)" style="fill: none; stroke: #4c4c4c; stroke-linecap: round"/>
   </g>
   <g id="patch_46">
    <path d="M 80.289261 164.731495 
Q 81.78448 160.899997 82.873246 158.110035 
" clip-path="url(#pa4db398737)" style="fill: none; stroke: #4c4c4c; stroke-linecap: round"/>
    <path d="M 81.878048 159.009803 
L 82.873246 158.110035 
L 82.995941 159.446054 
" clip-path="url(#pa4db398737)" style="fill: none; stroke: #4c4c4c; stroke-linecap: round"/>
   </g>
   <g id="patch_47">
    <path d="M 83.722541 178.422095 
Q 105.004627 196.600543 125.43659 214.052845 
" clip-path="url(#pa4db398737)" style="fill: none; stroke: #4c4c4c; stroke-linecap: round"/>
    <path d="M 124.913833 212.817237 
L 125.43659 214.052845 
L 124.13445 213.729686 
" clip-path="url(#pa4db398737)" style="fill: none; stroke: #4c4c4c; stroke-linecap: round"/>
   </g>
   <g id="patch_48">
    <path d="M 85.767712 173.536901 
Q 216.464904 184.70062 346.048119 195.769186 
" clip-path="url(#pa4db398737)" style="fill: none; stroke: #4c4c4c; stroke-linecap: round"/>
    <path d="M 344.903537 195.069235 
L 346.048119 195.769186 
L 344.801409 196.264881 
" clip-path="url(#pa4db398737)" style="fill: none; stroke: #4c4c4c; stroke-linecap: round"/>
   </g>
   <g id="patch_49">
    <path d="M 80.289261 180.868505 
Q 81.78448 184.700003 82.873246 187.489965 
" clip-path="url(#pa4db398737)" style="fill: none; stroke: #4c4c4c; stroke-linecap: round"/>
    <path d="M 82.995941 186.153946 
L 82.873246 187.489965 
L 81.878048 186.590197 
" clip-path="url(#pa4db398737)" style="fill: none; stroke: #4c4c4c; stroke-linecap: round"/>
   </g>
   <g id="patch_50">
    <path d="M 94.863408 194.636825 
Q 188.602656 172.799841 281.253026 151.216517 
" clip-path="url(#pa4db398737)" style="fill: none; stroke: #4c4c4c; stroke-linecap: round"/>
    <path d="M 279.948191 150.904419 
L 281.253026 151.216517 
L 280.220446 152.073126 
" clip-path="url(#pa4db398737)" style="fill: none; stroke: #4c4c4c; stroke-linecap: round"/>
   </g>
   <g id="patch_51">
    <path d="M 95.087059 196.601653 
Q 95.402268 196.601653 94.599442 196.601653 
" clip-path="url(#pa4db398737)" style="fill: none; stroke: #4c4c4c; stroke-linecap: round"/>
    <path d="M 93.399442 196.001653 
L 94.599442 196.601653 
L 93.399442 197.201653 
" clip-path="url(#pa4db398737)" style="fill: none; stroke: #4c4c4c; stroke-linecap: round"/>
   </g>
   <g id="patch_52">
    <path d="M 95.087059 148.998347 
Q 95.402268 148.998347 94.599442 148.998347 
" clip-path="url(#pa4db398737)" style="fill: none; stroke: #4c4c4c; stroke-linecap: round"/>
    <path d="M 93.399442 148.398347 
L 94.599442 148.998347 
L 93.399442 149.598347 
" clip-path="url(#pa4db398737)" style="fill: none; stroke: #4c4c4c; stroke-linecap: round"/>
   </g>
   <g id="patch_53">
    <path d="M 103.848838 199.578312 
Q 128.225102 208.501766 151.551469 217.040882 
" clip-path="url(#pa4db398737)" style="fill: none; stroke: #4c4c4c; stroke-linecap: round"/>
    <path d="M 150.630858 216.064934 
L 151.551469 217.040882 
L 150.218344 217.191802 
" clip-path="url(#pa4db398737)" style="fill: none; stroke: #4c4c4c; stroke-linecap: round"/>
   </g>
   <g id="patch_54">
    <path d="M 98.866161 157.066852 
Q 100.36138 160.89835 101.450146 163.688312 
" clip-path="url(#pa4db398737)" style="fill: none; stroke: #4c4c4c; stroke-linecap: round"/>
    <path d="M 101.572841 162.352293 
L 101.450146 163.688312 
L 100.454948 162.788544 
" clip-path="url(#pa4db398737)" style="fill: none; stroke: #4c4c4c; stroke-linecap: round"/>
   </g>
   <g id="patch_55">
    <path d="M 113.663959 172.8 
Q 113.979168 172.8 113.176342 172.8 
" clip-path="url(#pa4db398737)" style="fill: none; stroke: #4c4c4c; stroke-linecap: round"/>
    <path d="M 111.976342 172.2 
L 113.176342 172.8 
L 111.976342 173.4 
" clip-path="url(#pa4db398737)" style="fill: none; stroke: #4c4c4c; stroke-linecap: round"/>
   </g>
   <g id="patch_56">
    <path d="M 122.952409 172.8 
Q 123.267617 172.8 122.464792 172.8 
" clip-path="url(#pa4db398737)" style="fill: none; stroke: #4c4c4c; stroke-linecap: round"/>
    <path d="M 121.264792 172.2 
L 122.464792 172.8 
L 121.264792 173.4 
" clip-path="url(#pa4db398737)" style="fill: none; stroke: #4c4c4c; stroke-linecap: round"/>
   </g>
   <g id="patch_57">
    <path d="M 132.240859 172.8 
Q 132.556067 172.8 131.753242 172.8 
" clip-path="url(#pa4db398737)" style="fill: none; stroke: #4c4c4c; stroke-linecap: round"/>
    <path d="M 130.553242 172.2 
L 131.753242 172.8 
L 130.553242 173.4 
" clip-path="url(#pa4db398737)" style="fill: none; stroke: #4c4c4c; stroke-linecap: round"/>
   </g>
   <g id="patch_58">
    <path d="M 125.241073 164.301485 
Q 128.226744 148.999922 130.9983 134.795698 
" clip-path="url(#pa4db398737)" style="fill: none; stroke: #4c4c4c; stroke-linecap: round"/>
    <path d="M 130.179593 135.858581 
L 130.9983 134.795698 
L 131.357381 136.088393 
" clip-path="url(#pa4db398737)" style="fill: none; stroke: #4c4c4c; stroke-linecap: round"/>
   </g>
   <g id="patch_59">
    <path d="M 125.241073 181.298515 
Q 128.226744 196.600078 130.9983 210.804302 
" clip-path="url(#pa4db398737)" style="fill: none; stroke: #4c4c4c; stroke-linecap: round"/>
    <path d="M 131.357381 209.511607 
L 130.9983 210.804302 
L 130.179593 209.741419 
" clip-path="url(#pa4db398737)" style="fill: none; stroke: #4c4c4c; stroke-linecap: round"/>
   </g>
   <g id="patch_60">
    <path d="M 132.243977 172.8 
Q 165.382454 172.8 197.402897 172.8 
" clip-path="url(#pa4db398737)" style="fill: none; stroke: #4c4c4c; stroke-linecap: round"/>
    <path d="M 196.202897 172.2 
L 197.402897 172.8 
L 196.202897 173.4 
" clip-path="url(#pa4db398737)" style="fill: none; stroke: #4c4c4c; stroke-linecap: round"/>
   </g>
   <g id="patch_61">
    <path d="M 141.258887 218.253981 
Q 225.755665 196.601681 309.169402 175.226911 
" clip-path="url(#pa4db398737)" style="fill: none; stroke: #4c4c4c; stroke-linecap: round"/>
    <path d="M 307.858023 174.943566 
L 309.169402 175.226911 
L 308.155898 176.106007 
" clip-path="url(#pa4db398737)" style="fill: none; stroke: #4c4c4c; stroke-linecap: round"/>
   </g>
   <g id="patch_62">
    <path d="M 141.28539 218.349861 
Q 230.399209 196.601846 318.426872 175.118904 
" clip-path="url(#pa4db398737)" style="fill: none; stroke: #4c4c4c; stroke-linecap: round"/>
    <path d="M 317.118833 174.820519 
L 318.426872 175.118904 
L 317.40334 175.986304 
" clip-path="url(#pa4db398737)" style="fill: none; stroke: #4c4c4c; stroke-linecap: round"/>
   </g>
   <g id="patch_63">
    <path d="M 136.019961 212.334801 
Q 137.515179 208.503303 138.603945 205.713341 
" clip-path="url(#pa4db398737)" style="fill: none; stroke: #4c4c4c; stroke-linecap: round"/>
    <path d="M 137.608748 206.613108 
L 138.603945 205.713341 
L 138.726641 207.049359 
" clip-path="url(#pa4db398737)" style="fill: none; stroke: #4c4c4c; stroke-linecap: round"/>
   </g>
   <g id="patch_64">
    <path d="M 140.57858 216.453312 
Q 156.0936 208.501865 170.613644 201.060342 
" clip-path="url(#pa4db398737)" style="fill: none; stroke: #4c4c4c; stroke-linecap: round"/>
    <path d="M 169.272069 201.073691 
L 170.613644 201.060342 
L 169.819378 202.141611 
" clip-path="url(#pa4db398737)" style="fill: none; stroke: #4c4c4c; stroke-linecap: round"/>
   </g>
   <g id="patch_65">
    <path d="M 141.530159 172.8 
Q 235.042551 172.8 327.436908 172.8 
" clip-path="url(#pa4db398737)" style="fill: none; stroke: #4c4c4c; stroke-linecap: round"/>
    <path d="M 326.236908 172.2 
L 327.436908 172.8 
L 326.236908 173.4 
" clip-path="url(#pa4db398737)" style="fill: none; stroke: #4c4c4c; stroke-linecap: round"/>
   </g>
   <g id="patch_66">
    <path d="M 141.404869 174.257822 
Q 202.532548 184.700467 262.558159 194.954842 
" clip-path="url(#pa4db398737)" style="fill: none; stroke: #4c4c4c; stroke-linecap: round"/>
    <path d="M 261.476331 194.161338 
L 262.558159 194.954842 
L 261.274258 195.344202 
" clip-path="url(#pa4db398737)" style="fill: none; stroke: #4c4c4c; stroke-linecap: round"/>
   </g>
   <g id="patch_67">
    <path d="M 141.490474 173.649488 
Q 253.622136 184.700926 364.641155 195.642704 
" clip-path="url(#pa4db398737)" style="fill: none; stroke: #4c4c4c; stroke-linecap: round"/>
    <path d="M 363.505791 194.927898 
L 364.641155 195.642704 
L 363.388092 196.122112 
" clip-path="url(#pa4db398737)" style="fill: none; stroke: #4c4c4c; stroke-linecap: round"/>
   </g>
   <g id="patch_68">
    <path d="M 136.019961 133.265199 
Q 137.515179 137.096697 138.603945 139.886659 
" clip-path="url(#pa4db398737)" style="fill: none; stroke: #4c4c4c; stroke-linecap: round"/>
    <path d="M 138.726641 138.550641 
L 138.603945 139.886659 
L 137.608748 138.986892 
" clip-path="url(#pa4db398737)" style="fill: none; stroke: #4c4c4c; stroke-linecap: round"/>
   </g>
   <g id="patch_69">
    <path d="M 150.819459 196.601653 
Q 165.382239 196.601653 178.826986 196.601653 
" clip-path="url(#pa4db398737)" style="fill: none; stroke: #4c4c4c; stroke-linecap: round"/>
    <path d="M 177.626986 196.001653 
L 178.826986 196.601653 
L 177.626986 197.201653 
" clip-path="url(#pa4db398737)" style="fill: none; stroke: #4c4c4c; stroke-linecap: round"/>
   </g>
   <g id="patch_70">
    <path d="M 145.308411 157.066852 
Q 146.803629 160.89835 147.892395 163.688312 
" clip-path="url(#pa4db398737)" style="fill: none; stroke: #4c4c4c; stroke-linecap: round"/>
    <path d="M 148.015091 162.352293 
L 147.892395 163.688312 
L 146.897198 162.788544 
" clip-path="url(#pa4db398737)" style="fill: none; stroke: #4c4c4c; stroke-linecap: round"/>
   </g>
   <g id="patch_71">
    <path d="M 153.106423 181.298515 
Q 156.092093 196.600078 158.863649 210.804302 
" clip-path="url(#pa4db398737)" style="fill: none; stroke: #4c4c4c; stroke-linecap: round"/>
    <path d="M 159.222731 209.511607 
L 158.863649 210.804302 
L 158.044943 209.741419 
" clip-path="url(#pa4db398737)" style="fill: none; stroke: #4c4c4c; stroke-linecap: round"/>
   </g>
   <g id="patch_72">
    <path d="M 160.106208 172.8 
Q 160.421417 172.8 159.618592 172.8 
" clip-path="url(#pa4db398737)" style="fill: none; stroke: #4c4c4c; stroke-linecap: round"/>
    <path d="M 158.418592 172.2 
L 159.618592 172.8 
L 158.418592 173.4 
" clip-path="url(#pa4db398737)" style="fill: none; stroke: #4c4c4c; stroke-linecap: round"/>
   </g>
   <g id="patch_73">
    <path d="M 153.106423 164.301485 
Q 156.092093 148.999922 158.863649 134.795698 
" clip-path="url(#pa4db398737)" style="fill: none; stroke: #4c4c4c; stroke-linecap: round"/>
    <path d="M 158.044943 135.858581 
L 158.863649 134.795698 
L 159.222731 136.088393 
" clip-path="url(#pa4db398737)" style="fill: none; stroke: #4c4c4c; stroke-linecap: round"/>
   </g>
   <g id="patch_74">
    <path d="M 169.394658 220.403306 
Q 169.709867 220.403306 168.907042 220.403306 
" clip-path="url(#pa4db398737)" style="fill: none; stroke: #4c4c4c; stroke-linecap: round"/>
    <path d="M 167.707042 219.803306 
L 168.907042 220.403306 
L 167.707042 221.003306 
" clip-path="url(#pa4db398737)" style="fill: none; stroke: #4c4c4c; stroke-linecap: round"/>
   </g>
   <g id="patch_75">
    <path d="M 169.345761 219.444136 
Q 267.555203 208.502323 364.653486 197.684308 
" clip-path="url(#pa4db398737)" style="fill: none; stroke: #4c4c4c; stroke-linecap: round"/>
    <path d="M 363.394428 197.220871 
L 364.653486 197.684308 
L 363.527302 198.413492 
" clip-path="url(#pa4db398737)" style="fill: none; stroke: #4c4c4c; stroke-linecap: round"/>
   </g>
   <g id="patch_76">
    <path d="M 169.394658 172.8 
Q 169.709867 172.8 168.907042 172.8 
" clip-path="url(#pa4db398737)" style="fill: none; stroke: #4c4c4c; stroke-linecap: round"/>
    <path d="M 167.707042 172.2 
L 168.907042 172.8 
L 167.707042 173.4 
" clip-path="url(#pa4db398737)" style="fill: none; stroke: #4c4c4c; stroke-linecap: round"/>
   </g>
   <g id="patch_77">
    <path d="M 169.394658 125.196694 
Q 169.709867 125.196694 168.907042 125.196694 
" clip-path="url(#pa4db398737)" style="fill: none; stroke: #4c4c4c; stroke-linecap: round"/>
    <path d="M 167.707042 124.596694 
L 168.907042 125.196694 
L 167.707042 125.796694 
" clip-path="url(#pa4db398737)" style="fill: none; stroke: #4c4c4c; stroke-linecap: round"/>
   </g>
   <g id="patch_78">
    <path d="M 173.17376 164.731495 
Q 174.668979 160.899997 175.757745 158.110035 
" clip-path="url(#pa4db398737)" style="fill: none; stroke: #4c4c4c; stroke-linecap: round"/>
    <path d="M 174.762547 159.009803 
L 175.757745 158.110035 
L 175.88044 159.446054 
" clip-path="url(#pa4db398737)" style="fill: none; stroke: #4c4c4c; stroke-linecap: round"/>
   </g>
   <g id="patch_79">
    <path d="M 178.634211 173.75917 
Q 276.843653 184.700983 373.941936 195.518998 
" clip-path="url(#pa4db398737)" style="fill: none; stroke: #4c4c4c; stroke-linecap: round"/>
    <path d="M 372.815752 194.789814 
L 373.941936 195.518998 
L 372.682878 195.982435 
" clip-path="url(#pa4db398737)" style="fill: none; stroke: #4c4c4c; stroke-linecap: round"/>
   </g>
   <g id="patch_80">
    <path d="M 178.686226 172.8 
Q 253.619289 172.8 327.434317 172.8 
" clip-path="url(#pa4db398737)" style="fill: none; stroke: #4c4c4c; stroke-linecap: round"/>
    <path d="M 326.234317 172.2 
L 327.434317 172.8 
L 326.234317 173.4 
" clip-path="url(#pa4db398737)" style="fill: none; stroke: #4c4c4c; stroke-linecap: round"/>
   </g>
   <g id="patch_81">
    <path d="M 173.17376 180.868505 
Q 174.668979 184.700003 175.757745 187.489965 
" clip-path="url(#pa4db398737)" style="fill: none; stroke: #4c4c4c; stroke-linecap: round"/>
    <path d="M 175.88044 186.153946 
L 175.757745 187.489965 
L 174.762547 186.590197 
" clip-path="url(#pa4db398737)" style="fill: none; stroke: #4c4c4c; stroke-linecap: round"/>
   </g>
   <g id="patch_82">
    <path d="M 177.73238 129.146688 
Q 216.467364 148.998367 254.207373 168.340122 
" clip-path="url(#pa4db398737)" style="fill: none; stroke: #4c4c4c; stroke-linecap: round"/>
    <path d="M 253.413108 167.258853 
L 254.207373 168.340122 
L 252.865799 168.326773 
" clip-path="url(#pa4db398737)" style="fill: none; stroke: #4c4c4c; stroke-linecap: round"/>
   </g>
   <g id="patch_83">
    <path d="M 178.19754 217.547587 
Q 272.196811 184.70125 365.14063 152.223723 
" clip-path="url(#pa4db398737)" style="fill: none; stroke: #4c4c4c; stroke-linecap: round"/>
    <path d="M 363.809876 152.053155 
L 365.14063 152.223723 
L 364.205723 153.185985 
" clip-path="url(#pa4db398737)" style="fill: none; stroke: #4c4c4c; stroke-linecap: round"/>
   </g>
   <g id="patch_84">
    <path d="M 187.563374 193.959123 
Q 216.469688 184.70007 244.311256 175.782067 
" clip-path="url(#pa4db398737)" style="fill: none; stroke: #4c4c4c; stroke-linecap: round"/>
    <path d="M 242.985423 175.57672 
L 244.311256 175.782067 
L 243.351478 176.719525 
" clip-path="url(#pa4db398737)" style="fill: none; stroke: #4c4c4c; stroke-linecap: round"/>
   </g>
   <g id="patch_85">
    <path d="M 187.394998 152.104663 
Q 272.197574 184.700653 355.956553 216.895511 
" clip-path="url(#pa4db398737)" style="fill: none; stroke: #4c4c4c; stroke-linecap: round"/>
    <path d="M 355.051718 215.904918 
L 355.956553 216.895511 
L 354.621178 217.025023 
" clip-path="url(#pa4db398737)" style="fill: none; stroke: #4c4c4c; stroke-linecap: round"/>
   </g>
   <g id="patch_86">
    <path d="M 187.971558 148.998347 
Q 188.286767 148.998347 187.483941 148.998347 
" clip-path="url(#pa4db398737)" style="fill: none; stroke: #4c4c4c; stroke-linecap: round"/>
    <path d="M 186.283941 148.398347 
L 187.483941 148.998347 
L 186.283941 149.598347 
" clip-path="url(#pa4db398737)" style="fill: none; stroke: #4c4c4c; stroke-linecap: round"/>
   </g>
   <g id="patch_87">
    <path d="M 180.971772 157.496862 
Q 183.957443 172.798425 186.728999 187.002649 
" clip-path="url(#pa4db398737)" style="fill: none; stroke: #4c4c4c; stroke-linecap: round"/>
    <path d="M 187.088081 185.709954 
L 186.728999 187.002649 
L 185.910292 185.939766 
" clip-path="url(#pa4db398737)" style="fill: none; stroke: #4c4c4c; stroke-linecap: round"/>
   </g>
   <g id="patch_88">
    <path d="M 196.851824 193.959123 
Q 225.758138 184.70007 253.599705 175.782067 
" clip-path="url(#pa4db398737)" style="fill: none; stroke: #4c4c4c; stroke-linecap: round"/>
    <path d="M 252.273873 175.57672 
L 253.599705 175.782067 
L 252.639928 176.719525 
" clip-path="url(#pa4db398737)" style="fill: none; stroke: #4c4c4c; stroke-linecap: round"/>
   </g>
   <g id="patch_89">
    <path d="M 191.75066 157.066852 
Q 193.245879 160.89835 194.334645 163.688312 
" clip-path="url(#pa4db398737)" style="fill: none; stroke: #4c4c4c; stroke-linecap: round"/>
    <path d="M 194.45734 162.352293 
L 194.334645 163.688312 
L 193.339447 162.788544 
" clip-path="url(#pa4db398737)" style="fill: none; stroke: #4c4c4c; stroke-linecap: round"/>
   </g>
   <g id="patch_90">
    <path d="M 197.135569 150.456169 
Q 258.263247 160.898814 318.288858 171.15319 
" clip-path="url(#pa4db398737)" style="fill: none; stroke: #4c4c4c; stroke-linecap: round"/>
    <path d="M 317.20703 170.359685 
L 318.288858 171.15319 
L 317.004958 171.542549 
" clip-path="url(#pa4db398737)" style="fill: none; stroke: #4c4c4c; stroke-linecap: round"/>
   </g>
   <g id="patch_91">
    <path d="M 206.453499 174.090757 
Q 276.842003 184.700789 346.124963 195.144177 
" clip-path="url(#pa4db398737)" style="fill: none; stroke: #4c4c4c; stroke-linecap: round"/>
    <path d="M 345.027798 194.372017 
L 346.124963 195.144177 
L 344.848936 195.558612 
" clip-path="url(#pa4db398737)" style="fill: none; stroke: #4c4c4c; stroke-linecap: round"/>
   </g>
   <g id="patch_92">
    <path d="M 206.55356 172.8 
Q 262.909225 172.8 318.146856 172.8 
" clip-path="url(#pa4db398737)" style="fill: none; stroke: #4c4c4c; stroke-linecap: round"/>
    <path d="M 316.946856 172.2 
L 318.146856 172.8 
L 316.946856 173.4 
" clip-path="url(#pa4db398737)" style="fill: none; stroke: #4c4c4c; stroke-linecap: round"/>
   </g>
   <g id="patch_93">
    <path d="M 206.548458 172.8 
Q 206.863667 172.8 206.060841 172.8 
" clip-path="url(#pa4db398737)" style="fill: none; stroke: #4c4c4c; stroke-linecap: round"/>
    <path d="M 204.860841 172.2 
L 206.060841 172.8 
L 204.860841 173.4 
" clip-path="url(#pa4db398737)" style="fill: none; stroke: #4c4c4c; stroke-linecap: round"/>
   </g>
   <g id="patch_94">
    <path d="M 206.551718 172.8 
Q 304.708027 172.8 401.746302 172.8 
" clip-path="url(#pa4db398737)" style="fill: none; stroke: #4c4c4c; stroke-linecap: round"/>
    <path d="M 400.546302 172.2 
L 401.746302 172.8 
L 400.546302 173.4 
" clip-path="url(#pa4db398737)" style="fill: none; stroke: #4c4c4c; stroke-linecap: round"/>
   </g>
   <g id="patch_95">
    <path d="M 215.837758 172.8 
Q 309.35015 172.8 401.744507 172.8 
" clip-path="url(#pa4db398737)" style="fill: none; stroke: #4c4c4c; stroke-linecap: round"/>
    <path d="M 400.544507 172.2 
L 401.744507 172.8 
L 400.544507 173.4 
" clip-path="url(#pa4db398737)" style="fill: none; stroke: #4c4c4c; stroke-linecap: round"/>
   </g>
   <g id="patch_96">
    <path d="M 215.836908 172.8 
Q 216.152117 172.8 215.349291 172.8 
" clip-path="url(#pa4db398737)" style="fill: none; stroke: #4c4c4c; stroke-linecap: round"/>
    <path d="M 214.149291 172.2 
L 215.349291 172.8 
L 214.149291 173.4 
" clip-path="url(#pa4db398737)" style="fill: none; stroke: #4c4c4c; stroke-linecap: round"/>
   </g>
   <g id="patch_97">
    <path d="M 225.125358 172.8 
Q 225.440566 172.8 224.637741 172.8 
" clip-path="url(#pa4db398737)" style="fill: none; stroke: #4c4c4c; stroke-linecap: round"/>
    <path d="M 223.437741 172.2 
L 224.637741 172.8 
L 223.437741 173.4 
" clip-path="url(#pa4db398737)" style="fill: none; stroke: #4c4c4c; stroke-linecap: round"/>
   </g>
   <g id="patch_98">
    <path d="M 234.413808 172.8 
Q 234.729016 172.8 233.926191 172.8 
" clip-path="url(#pa4db398737)" style="fill: none; stroke: #4c4c4c; stroke-linecap: round"/>
    <path d="M 232.726191 172.2 
L 233.926191 172.8 
L 232.726191 173.4 
" clip-path="url(#pa4db398737)" style="fill: none; stroke: #4c4c4c; stroke-linecap: round"/>
   </g>
   <g id="patch_99">
    <path d="M 243.702258 172.8 
Q 244.017466 172.8 243.214641 172.8 
" clip-path="url(#pa4db398737)" style="fill: none; stroke: #4c4c4c; stroke-linecap: round"/>
    <path d="M 242.014641 172.2 
L 243.214641 172.8 
L 242.014641 173.4 
" clip-path="url(#pa4db398737)" style="fill: none; stroke: #4c4c4c; stroke-linecap: round"/>
   </g>
   <g id="patch_100">
    <path d="M 252.990708 172.8 
Q 253.305916 172.8 252.503091 172.8 
" clip-path="url(#pa4db398737)" style="fill: none; stroke: #4c4c4c; stroke-linecap: round"/>
    <path d="M 251.303091 172.2 
L 252.503091 172.8 
L 251.303091 173.4 
" clip-path="url(#pa4db398737)" style="fill: none; stroke: #4c4c4c; stroke-linecap: round"/>
   </g>
   <g id="patch_101">
    <path d="M 262.279157 172.8 
Q 262.594366 172.8 261.791541 172.8 
" clip-path="url(#pa4db398737)" style="fill: none; stroke: #4c4c4c; stroke-linecap: round"/>
    <path d="M 260.591541 172.2 
L 261.791541 172.8 
L 260.591541 173.4 
" clip-path="url(#pa4db398737)" style="fill: none; stroke: #4c4c4c; stroke-linecap: round"/>
   </g>
   <g id="patch_102">
    <path d="M 266.058259 180.868505 
Q 267.553478 184.700003 268.642244 187.489965 
" clip-path="url(#pa4db398737)" style="fill: none; stroke: #4c4c4c; stroke-linecap: round"/>
    <path d="M 268.76494 186.153946 
L 268.642244 187.489965 
L 267.647046 186.590197 
" clip-path="url(#pa4db398737)" style="fill: none; stroke: #4c4c4c; stroke-linecap: round"/>
   </g>
   <g id="patch_103">
    <path d="M 271.567607 172.8 
Q 281.486514 172.8 290.287386 172.8 
" clip-path="url(#pa4db398737)" style="fill: none; stroke: #4c4c4c; stroke-linecap: round"/>
    <path d="M 289.087386 172.2 
L 290.287386 172.8 
L 289.087386 173.4 
" clip-path="url(#pa4db398737)" style="fill: none; stroke: #4c4c4c; stroke-linecap: round"/>
   </g>
   <g id="patch_104">
    <path d="M 266.058259 164.731495 
Q 267.553478 160.899997 268.642244 158.110035 
" clip-path="url(#pa4db398737)" style="fill: none; stroke: #4c4c4c; stroke-linecap: round"/>
    <path d="M 267.647046 159.009803 
L 268.642244 158.110035 
L 268.76494 159.446054 
" clip-path="url(#pa4db398737)" style="fill: none; stroke: #4c4c4c; stroke-linecap: round"/>
   </g>
   <g id="patch_105">
    <path d="M 280.856057 196.601653 
Q 281.171266 196.601653 280.368441 196.601653 
" clip-path="url(#pa4db398737)" style="fill: none; stroke: #4c4c4c; stroke-linecap: round"/>
    <path d="M 279.168441 196.001653 
L 280.368441 196.601653 
L 279.168441 197.201653 
" clip-path="url(#pa4db398737)" style="fill: none; stroke: #4c4c4c; stroke-linecap: round"/>
   </g>
   <g id="patch_106">
    <path d="M 273.856271 188.103138 
Q 276.841942 172.801575 279.613498 158.597351 
" clip-path="url(#pa4db398737)" style="fill: none; stroke: #4c4c4c; stroke-linecap: round"/>
    <path d="M 278.794791 159.660234 
L 279.613498 158.597351 
L 279.97258 159.890046 
" clip-path="url(#pa4db398737)" style="fill: none; stroke: #4c4c4c; stroke-linecap: round"/>
   </g>
   <g id="patch_107">
    <path d="M 280.731618 150.456169 
Q 341.859297 160.898814 401.884907 171.15319 
" clip-path="url(#pa4db398737)" style="fill: none; stroke: #4c4c4c; stroke-linecap: round"/>
    <path d="M 400.80308 170.359685 
L 401.884907 171.15319 
L 400.601007 171.542549 
" clip-path="url(#pa4db398737)" style="fill: none; stroke: #4c4c4c; stroke-linecap: round"/>
   </g>
   <g id="patch_108">
    <path d="M 290.144507 196.601653 
Q 290.459716 196.601653 289.65689 196.601653 
" clip-path="url(#pa4db398737)" style="fill: none; stroke: #4c4c4c; stroke-linecap: round"/>
    <path d="M 288.45689 196.001653 
L 289.65689 196.601653 
L 288.45689 197.201653 
" clip-path="url(#pa4db398737)" style="fill: none; stroke: #4c4c4c; stroke-linecap: round"/>
   </g>
   <g id="patch_109">
    <path d="M 290.144507 148.998347 
Q 290.459716 148.998347 289.65689 148.998347 
" clip-path="url(#pa4db398737)" style="fill: none; stroke: #4c4c4c; stroke-linecap: round"/>
    <path d="M 288.45689 148.398347 
L 289.65689 148.998347 
L 288.45689 149.598347 
" clip-path="url(#pa4db398737)" style="fill: none; stroke: #4c4c4c; stroke-linecap: round"/>
   </g>
   <g id="patch_110">
    <path d="M 297.017869 154.997427 
Q 327.927174 184.699337 358.03032 213.626579 
" clip-path="url(#pa4db398737)" style="fill: none; stroke: #4c4c4c; stroke-linecap: round"/>
    <path d="M 357.580791 212.362489 
L 358.03032 213.626579 
L 356.749331 213.227749 
" clip-path="url(#pa4db398737)" style="fill: none; stroke: #4c4c4c; stroke-linecap: round"/>
   </g>
   <g id="patch_111">
    <path d="M 293.923609 188.533148 
Q 295.418828 184.70165 296.507594 181.911688 
" clip-path="url(#pa4db398737)" style="fill: none; stroke: #4c4c4c; stroke-linecap: round"/>
    <path d="M 295.512396 182.811456 
L 296.507594 181.911688 
L 296.630289 183.247707 
" clip-path="url(#pa4db398737)" style="fill: none; stroke: #4c4c4c; stroke-linecap: round"/>
   </g>
   <g id="patch_112">
    <path d="M 299.024773 199.244183 
Q 327.931087 208.503236 355.772654 217.421238 
" clip-path="url(#pa4db398737)" style="fill: none; stroke: #4c4c4c; stroke-linecap: round"/>
    <path d="M 354.812877 216.483781 
L 355.772654 217.421238 
L 354.446822 217.626586 
" clip-path="url(#pa4db398737)" style="fill: none; stroke: #4c4c4c; stroke-linecap: round"/>
   </g>
   <g id="patch_113">
    <path d="M 308.721407 172.8 
Q 309.036616 172.8 308.23379 172.8 
" clip-path="url(#pa4db398737)" style="fill: none; stroke: #4c4c4c; stroke-linecap: round"/>
    <path d="M 307.03379 172.2 
L 308.23379 172.8 
L 307.03379 173.4 
" clip-path="url(#pa4db398737)" style="fill: none; stroke: #4c4c4c; stroke-linecap: round"/>
   </g>
   <g id="patch_114">
    <path d="M 308.720273 172.8 
Q 355.791419 172.8 401.744531 172.8 
" clip-path="url(#pa4db398737)" style="fill: none; stroke: #4c4c4c; stroke-linecap: round"/>
    <path d="M 400.544531 172.2 
L 401.744531 172.8 
L 400.544531 173.4 
" clip-path="url(#pa4db398737)" style="fill: none; stroke: #4c4c4c; stroke-linecap: round"/>
   </g>
   <g id="patch_115">
    <path d="M 318.009857 172.8 
Q 318.325066 172.8 317.52224 172.8 
" clip-path="url(#pa4db398737)" style="fill: none; stroke: #4c4c4c; stroke-linecap: round"/>
    <path d="M 316.32224 172.2 
L 317.52224 172.8 
L 316.32224 173.4 
" clip-path="url(#pa4db398737)" style="fill: none; stroke: #4c4c4c; stroke-linecap: round"/>
   </g>
   <g id="patch_116">
    <path d="M 327.298307 172.8 
Q 327.613515 172.8 326.81069 172.8 
" clip-path="url(#pa4db398737)" style="fill: none; stroke: #4c4c4c; stroke-linecap: round"/>
    <path d="M 325.61069 172.2 
L 326.81069 172.8 
L 325.61069 173.4 
" clip-path="url(#pa4db398737)" style="fill: none; stroke: #4c4c4c; stroke-linecap: round"/>
   </g>
   <g id="patch_117">
    <path d="M 334.510688 178.422095 
Q 341.859328 184.699058 348.357844 190.249873 
" clip-path="url(#pa4db398737)" style="fill: none; stroke: #4c4c4c; stroke-linecap: round"/>
    <path d="M 347.835087 189.014266 
L 348.357844 190.249873 
L 347.055704 189.926714 
" clip-path="url(#pa4db398737)" style="fill: none; stroke: #4c4c4c; stroke-linecap: round"/>
   </g>
   <g id="patch_118">
    <path d="M 336.586757 172.8 
Q 336.901965 172.8 336.09914 172.8 
" clip-path="url(#pa4db398737)" style="fill: none; stroke: #4c4c4c; stroke-linecap: round"/>
    <path d="M 334.89914 172.2 
L 336.09914 172.8 
L 334.89914 173.4 
" clip-path="url(#pa4db398737)" style="fill: none; stroke: #4c4c4c; stroke-linecap: round"/>
   </g>
   <g id="patch_119">
    <path d="M 340.365859 164.731495 
Q 341.861077 160.899997 342.949843 158.110035 
" clip-path="url(#pa4db398737)" style="fill: none; stroke: #4c4c4c; stroke-linecap: round"/>
    <path d="M 341.954646 159.009803 
L 342.949843 158.110035 
L 343.072539 159.446054 
" clip-path="url(#pa4db398737)" style="fill: none; stroke: #4c4c4c; stroke-linecap: round"/>
   </g>
   <g id="patch_120">
    <path d="M 340.365859 180.868505 
Q 341.861077 184.700003 342.949843 187.489965 
" clip-path="url(#pa4db398737)" style="fill: none; stroke: #4c4c4c; stroke-linecap: round"/>
    <path d="M 343.072539 186.153946 
L 342.949843 187.489965 
L 341.954646 186.590197 
" clip-path="url(#pa4db398737)" style="fill: none; stroke: #4c4c4c; stroke-linecap: round"/>
   </g>
   <g id="patch_121">
    <path d="M 355.163657 196.601653 
Q 355.478865 196.601653 354.67604 196.601653 
" clip-path="url(#pa4db398737)" style="fill: none; stroke: #4c4c4c; stroke-linecap: round"/>
    <path d="M 353.47604 196.001653 
L 354.67604 196.601653 
L 353.47604 197.201653 
" clip-path="url(#pa4db398737)" style="fill: none; stroke: #4c4c4c; stroke-linecap: round"/>
   </g>
   <g id="patch_122">
    <path d="M 348.163871 188.103138 
Q 351.149542 172.801575 353.921097 158.597351 
" clip-path="url(#pa4db398737)" style="fill: none; stroke: #4c4c4c; stroke-linecap: round"/>
    <path d="M 353.102391 159.660234 
L 353.921097 158.597351 
L 354.280179 159.890046 
" clip-path="url(#pa4db398737)" style="fill: none; stroke: #4c4c4c; stroke-linecap: round"/>
   </g>
   <g id="patch_123">
    <path d="M 351.832423 203.426614 
Q 355.792734 208.500763 359.065152 212.693549 
" clip-path="url(#pa4db398737)" style="fill: none; stroke: #4c4c4c; stroke-linecap: round"/>
    <path d="M 358.799817 211.378407 
L 359.065152 212.693549 
L 357.853838 212.116732 
" clip-path="url(#pa4db398737)" style="fill: none; stroke: #4c4c4c; stroke-linecap: round"/>
   </g>
   <g id="patch_124">
    <path d="M 348.686006 157.37919 
Q 355.793932 184.700283 362.620359 210.93936 
" clip-path="url(#pa4db398737)" style="fill: none; stroke: #4c4c4c; stroke-linecap: round"/>
    <path d="M 362.898892 209.62695 
L 362.620359 210.93936 
L 361.737551 209.929088 
" clip-path="url(#pa4db398737)" style="fill: none; stroke: #4c4c4c; stroke-linecap: round"/>
   </g>
   <g id="patch_125">
    <path d="M 358.942759 204.670158 
Q 360.437977 208.501655 361.526743 211.291618 
" clip-path="url(#pa4db398737)" style="fill: none; stroke: #4c4c4c; stroke-linecap: round"/>
    <path d="M 361.649439 209.955599 
L 361.526743 211.291618 
L 360.531545 210.39185 
" clip-path="url(#pa4db398737)" style="fill: none; stroke: #4c4c4c; stroke-linecap: round"/>
   </g>
   <g id="patch_126">
    <path d="M 358.942759 188.533148 
Q 360.437977 184.70165 361.526743 181.911688 
" clip-path="url(#pa4db398737)" style="fill: none; stroke: #4c4c4c; stroke-linecap: round"/>
    <path d="M 360.531545 182.811456 
L 361.526743 181.911688 
L 361.649439 183.247707 
" clip-path="url(#pa4db398737)" style="fill: none; stroke: #4c4c4c; stroke-linecap: round"/>
   </g>
   <g id="patch_127">
    <path d="M 358.942759 140.929842 
Q 360.437977 137.098345 361.526743 134.308382 
" clip-path="url(#pa4db398737)" style="fill: none; stroke: #4c4c4c; stroke-linecap: round"/>
    <path d="M 360.531545 135.20815 
L 361.526743 134.308382 
L 361.649439 135.644401 
" clip-path="url(#pa4db398737)" style="fill: none; stroke: #4c4c4c; stroke-linecap: round"/>
   </g>
   <g id="patch_128">
    <path d="M 371.664488 214.781211 
Q 392.946574 196.602763 413.378537 179.150461 
" clip-path="url(#pa4db398737)" style="fill: none; stroke: #4c4c4c; stroke-linecap: round"/>
    <path d="M 412.076397 179.47362 
L 413.378537 179.150461 
L 412.85578 180.386068 
" clip-path="url(#pa4db398737)" style="fill: none; stroke: #4c4c4c; stroke-linecap: round"/>
   </g>
   <g id="patch_129">
    <path d="M 368.231208 212.334801 
Q 369.726427 208.503303 370.815193 205.713341 
" clip-path="url(#pa4db398737)" style="fill: none; stroke: #4c4c4c; stroke-linecap: round"/>
    <path d="M 369.819995 206.613108 
L 370.815193 205.713341 
L 370.937889 207.049359 
" clip-path="url(#pa4db398737)" style="fill: none; stroke: #4c4c4c; stroke-linecap: round"/>
   </g>
   <g id="patch_130">
    <path d="M 373.742257 172.8 
Q 388.305037 172.8 401.749783 172.8 
" clip-path="url(#pa4db398737)" style="fill: none; stroke: #4c4c4c; stroke-linecap: round"/>
    <path d="M 400.549783 172.2 
L 401.749783 172.8 
L 400.549783 173.4 
" clip-path="url(#pa4db398737)" style="fill: none; stroke: #4c4c4c; stroke-linecap: round"/>
   </g>
   <g id="patch_131">
    <path d="M 368.231208 133.265199 
Q 369.726427 137.096697 370.815193 139.886659 
" clip-path="url(#pa4db398737)" style="fill: none; stroke: #4c4c4c; stroke-linecap: round"/>
    <path d="M 370.937889 138.550641 
L 370.815193 139.886659 
L 369.819995 138.986892 
" clip-path="url(#pa4db398737)" style="fill: none; stroke: #4c4c4c; stroke-linecap: round"/>
   </g>
   <g id="patch_132">
    <path d="M 376.02922 157.496862 
Q 379.014891 172.798425 381.786447 187.002649 
" clip-path="url(#pa4db398737)" style="fill: none; stroke: #4c4c4c; stroke-linecap: round"/>
    <path d="M 382.145529 185.709954 
L 381.786447 187.002649 
L 380.96774 185.939766 
" clip-path="url(#pa4db398737)" style="fill: none; stroke: #4c4c4c; stroke-linecap: round"/>
   </g>
   <g id="patch_133">
    <path d="M 376.02922 188.103138 
Q 379.014891 172.801575 381.786447 158.597351 
" clip-path="url(#pa4db398737)" style="fill: none; stroke: #4c4c4c; stroke-linecap: round"/>
    <path d="M 380.96774 159.660234 
L 381.786447 158.597351 
L 382.145529 159.890046 
" clip-path="url(#pa4db398737)" style="fill: none; stroke: #4c4c4c; stroke-linecap: round"/>
   </g>
   <g id="patch_134">
    <path d="M 390.241388 190.979558 
Q 397.590027 184.702595 404.088543 179.15178 
" clip-path="url(#pa4db398737)" style="fill: none; stroke: #4c4c4c; stroke-linecap: round"/>
    <path d="M 402.786403 179.474938 
L 404.088543 179.15178 
L 403.565787 180.387387 
" clip-path="url(#pa4db398737)" style="fill: none; stroke: #4c4c4c; stroke-linecap: round"/>
   </g>
   <g id="patch_135">
    <path d="M 386.808108 157.066852 
Q 388.303327 160.89835 389.392093 163.688312 
" clip-path="url(#pa4db398737)" style="fill: none; stroke: #4c4c4c; stroke-linecap: round"/>
    <path d="M 389.514788 162.352293 
L 389.392093 163.688312 
L 388.396895 162.788544 
" clip-path="url(#pa4db398737)" style="fill: none; stroke: #4c4c4c; stroke-linecap: round"/>
   </g>
   <g id="patch_136">
    <path d="M 401.605906 172.8 
Q 401.921115 172.8 401.118289 172.8 
" clip-path="url(#pa4db398737)" style="fill: none; stroke: #4c4c4c; stroke-linecap: round"/>
    <path d="M 399.918289 172.2 
L 401.118289 172.8 
L 399.918289 173.4 
" clip-path="url(#pa4db398737)" style="fill: none; stroke: #4c4c4c; stroke-linecap: round"/>
   </g>
   <g id="patch_137">
    <path d="M 410.894356 172.8 
Q 411.209565 172.8 410.406739 172.8 
" clip-path="url(#pa4db398737)" style="fill: none; stroke: #4c4c4c; stroke-linecap: round"/>
    <path d="M 409.206739 172.2 
L 410.406739 172.8 
L 409.206739 173.4 
" clip-path="url(#pa4db398737)" style="fill: none; stroke: #4c4c4c; stroke-linecap: round"/>
   </g>
   <g id="patch_138">
    <path d="M 420.182806 172.8 
Q 420.498015 172.8 419.695189 172.8 
" clip-path="url(#pa4db398737)" style="fill: none; stroke: #4c4c4c; stroke-linecap: round"/>
    <path d="M 418.495189 172.2 
L 419.695189 172.8 
L 418.495189 173.4 
" clip-path="url(#pa4db398737)" style="fill: none; stroke: #4c4c4c; stroke-linecap: round"/>
   </g>
   <g id="PathCollection_1">
    <path d="M 39.986777 324.270171 
C 42.283503 324.270171 44.486471 323.357672 46.110501 321.733642 
C 47.734532 320.109611 48.647031 317.906644 48.647031 315.609917 
C 48.647031 313.313191 47.734532 311.110224 46.110501 309.486193 
C 44.486471 307.862162 42.283503 306.949663 39.986777 306.949663 
C 37.690051 306.949663 35.487083 307.862162 33.863053 309.486193 
C 32.239022 311.110224 31.326523 313.313191 31.326523 315.609917 
C 31.326523 317.906644 32.239022 320.109611 33.863053 321.733642 
C 35.487083 323.357672 37.690051 324.270171 39.986777 324.270171 
z
" clip-path="url(#pa4db398737)" style="fill: #ffff00; stroke: #000000"/>
    <path d="M 39.986777 276.666866 
C 42.283503 276.666866 44.486471 275.754367 46.110501 274.130336 
C 47.734532 272.506305 48.647031 270.303338 48.647031 268.006612 
C 48.647031 265.709885 47.734532 263.506918 46.110501 261.882887 
C 44.486471 260.258857 42.283503 259.346358 39.986777 259.346358 
C 37.690051 259.346358 35.487083 260.258857 33.863053 261.882887 
C 32.239022 263.506918 31.326523 265.709885 31.326523 268.006612 
C 31.326523 270.303338 32.239022 272.506305 33.863053 274.130336 
C 35.487083 275.754367 37.690051 276.666866 39.986777 276.666866 
z
" clip-path="url(#pa4db398737)" style="fill: #ffff00; stroke: #000000"/>
    <path d="M 39.986777 229.06356 
C 42.283503 229.06356 44.486471 228.151061 46.110501 226.52703 
C 47.734532 224.902999 48.647031 222.700032 48.647031 220.403306 
C 48.647031 218.10658 47.734532 215.903612 46.110501 214.279581 
C 44.486471 212.655551 42.283503 211.743052 39.986777 211.743052 
C 37.690051 211.743052 35.487083 212.655551 33.863053 214.279581 
C 32.239022 215.903612 31.326523 218.10658 31.326523 220.403306 
C 31.326523 222.700032 32.239022 224.902999 33.863053 226.52703 
C 35.487083 228.151061 37.690051 229.06356 39.986777 229.06356 
z
" clip-path="url(#pa4db398737)" style="fill: #ffff00; stroke: #000000"/>
    <path d="M 39.986777 181.460254 
C 42.283503 181.460254 44.486471 180.547755 46.110501 178.923724 
C 47.734532 177.299694 48.647031 175.096726 48.647031 172.8 
C 48.647031 170.503274 47.734532 168.300306 46.110501 166.676276 
C 44.486471 165.052245 42.283503 164.139746 39.986777 164.139746 
C 37.690051 164.139746 35.487083 165.052245 33.863053 166.676276 
C 32.239022 168.300306 31.326523 170.503274 31.326523 172.8 
C 31.326523 175.096726 32.239022 177.299694 33.863053 178.923724 
C 35.487083 180.547755 37.690051 181.460254 39.986777 181.460254 
z
" clip-path="url(#pa4db398737)" style="fill: #ffff00; stroke: #000000"/>
    <path d="M 39.986777 133.856948 
C 42.283503 133.856948 44.486471 132.944449 46.110501 131.320419 
C 47.734532 129.696388 48.647031 127.49342 48.647031 125.196694 
C 48.647031 122.899968 47.734532 120.697001 46.110501 119.07297 
C 44.486471 117.448939 42.283503 116.53644 39.986777 116.53644 
C 37.690051 116.53644 35.487083 117.448939 33.863053 119.07297 
C 32.239022 120.697001 31.326523 122.899968 31.326523 125.196694 
C 31.326523 127.49342 32.239022 129.696388 33.863053 131.320419 
C 35.487083 132.944449 37.690051 133.856948 39.986777 133.856948 
z
" clip-path="url(#pa4db398737)" style="fill: #ffff00; stroke: #000000"/>
    <path d="M 39.986777 86.253642 
C 42.283503 86.253642 44.486471 85.341143 46.110501 83.717113 
C 47.734532 82.093082 48.647031 79.890115 48.647031 77.593388 
C 48.647031 75.296662 47.734532 73.093695 46.110501 71.469664 
C 44.486471 69.845633 42.283503 68.933134 39.986777 68.933134 
C 37.690051 68.933134 35.487083 69.845633 33.863053 71.469664 
C 32.239022 73.093695 31.326523 75.296662 31.326523 77.593388 
C 31.326523 79.890115 32.239022 82.093082 33.863053 83.717113 
C 35.487083 85.341143 37.690051 86.253642 39.986777 86.253642 
z
" clip-path="url(#pa4db398737)" style="fill: #ffff00; stroke: #000000"/>
    <path d="M 39.986777 38.650337 
C 42.283503 38.650337 44.486471 37.737838 46.110501 36.113807 
C 47.734532 34.489776 48.647031 32.286809 48.647031 29.990083 
C 48.647031 27.693356 47.734532 25.490389 46.110501 23.866358 
C 44.486471 22.242328 42.283503 21.329829 39.986777 21.329829 
C 37.690051 21.329829 35.487083 22.242328 33.863053 23.866358 
C 32.239022 25.490389 31.326523 27.693356 31.326523 29.990083 
C 31.326523 32.286809 32.239022 34.489776 33.863053 36.113807 
C 35.487083 37.737838 37.690051 38.650337 39.986777 38.650337 
z
" clip-path="url(#pa4db398737)" style="fill: #ffffff; stroke: #000000"/>
    <path d="M 49.275227 110.055295 
C 51.571953 110.055295 53.77492 109.142796 55.398951 107.518766 
C 57.022982 105.894735 57.935481 103.691768 57.935481 101.395041 
C 57.935481 99.098315 57.022982 96.895348 55.398951 95.271317 
C 53.77492 93.647286 51.571953 92.734787 49.275227 92.734787 
C 46.978501 92.734787 44.775533 93.647286 43.151502 95.271317 
C 41.527472 96.895348 40.614973 99.098315 40.614973 101.395041 
C 40.614973 103.691768 41.527472 105.894735 43.151502 107.518766 
C 44.775533 109.142796 46.978501 110.055295 49.275227 110.055295 
z
" clip-path="url(#pa4db398737)" style="fill: #ffffff; stroke: #000000"/>
    <path d="M 49.275227 205.261907 
C 51.571953 205.261907 53.77492 204.349408 55.398951 202.725377 
C 57.022982 201.101347 57.935481 198.898379 57.935481 196.601653 
C 57.935481 194.304927 57.022982 192.101959 55.398951 190.477929 
C 53.77492 188.853898 51.571953 187.941399 49.275227 187.941399 
C 46.978501 187.941399 44.775533 188.853898 43.151502 190.477929 
C 41.527472 192.101959 40.614973 194.304927 40.614973 196.601653 
C 40.614973 198.898379 41.527472 201.101347 43.151502 202.725377 
C 44.775533 204.349408 46.978501 205.261907 49.275227 205.261907 
z
" clip-path="url(#pa4db398737)" style="fill: #ffffff; stroke: #000000"/>
    <path d="M 49.275227 252.865213 
C 51.571953 252.865213 53.77492 251.952714 55.398951 250.328683 
C 57.022982 248.704652 57.935481 246.501685 57.935481 244.204959 
C 57.935481 241.908232 57.022982 239.705265 55.398951 238.081234 
C 53.77492 236.457204 51.571953 235.544705 49.275227 235.544705 
C 46.978501 235.544705 44.775533 236.457204 43.151502 238.081234 
C 41.527472 239.705265 40.614973 241.908232 40.614973 244.204959 
C 40.614973 246.501685 41.527472 248.704652 43.151502 250.328683 
C 44.775533 251.952714 46.978501 252.865213 49.275227 252.865213 
z
" clip-path="url(#pa4db398737)" style="fill: #ffffff; stroke: #000000"/>
    <path d="M 49.275227 157.658601 
C 51.571953 157.658601 53.77492 156.746102 55.398951 155.122071 
C 57.022982 153.498041 57.935481 151.295073 57.935481 148.998347 
C 57.935481 146.701621 57.022982 144.498653 55.398951 142.874623 
C 53.77492 141.250592 51.571953 140.338093 49.275227 140.338093 
C 46.978501 140.338093 44.775533 141.250592 43.151502 142.874623 
C 41.527472 144.498653 40.614973 146.701621 40.614973 148.998347 
C 40.614973 151.295073 41.527472 153.498041 43.151502 155.122071 
C 44.775533 156.746102 46.978501 157.658601 49.275227 157.658601 
z
" clip-path="url(#pa4db398737)" style="fill: #ffffff; stroke: #000000"/>
    <path d="M 58.563677 157.658601 
C 60.860403 157.658601 63.06337 156.746102 64.687401 155.122071 
C 66.311432 153.498041 67.223931 151.295073 67.223931 148.998347 
C 67.223931 146.701621 66.311432 144.498653 64.687401 142.874623 
C 63.06337 141.250592 60.860403 140.338093 58.563677 140.338093 
C 56.26695 140.338093 54.063983 141.250592 52.439952 142.874623 
C 50.815922 144.498653 49.903423 146.701621 49.903423 148.998347 
C 49.903423 151.295073 50.815922 153.498041 52.439952 155.122071 
C 54.063983 156.746102 56.26695 157.658601 58.563677 157.658601 
z
" clip-path="url(#pa4db398737)" style="fill: #ffffff; stroke: #000000"/>
    <path d="M 58.563677 205.261907 
C 60.860403 205.261907 63.06337 204.349408 64.687401 202.725377 
C 66.311432 201.101347 67.223931 198.898379 67.223931 196.601653 
C 67.223931 194.304927 66.311432 192.101959 64.687401 190.477929 
C 63.06337 188.853898 60.860403 187.941399 58.563677 187.941399 
C 56.26695 187.941399 54.063983 188.853898 52.439952 190.477929 
C 50.815922 192.101959 49.903423 194.304927 49.903423 196.601653 
C 49.903423 198.898379 50.815922 201.101347 52.439952 202.725377 
C 54.063983 204.349408 56.26695 205.261907 58.563677 205.261907 
z
" clip-path="url(#pa4db398737)" style="fill: #ffffff; stroke: #000000"/>
    <path d="M 67.852127 181.460254 
C 70.148853 181.460254 72.35182 180.547755 73.975851 178.923724 
C 75.599882 177.299694 76.512381 175.096726 76.512381 172.8 
C 76.512381 170.503274 75.599882 168.300306 73.975851 166.676276 
C 72.35182 165.052245 70.148853 164.139746 67.852127 164.139746 
C 65.5554 164.139746 63.352433 165.052245 61.728402 166.676276 
C 60.104372 168.300306 59.191873 170.503274 59.191873 172.8 
C 59.191873 175.096726 60.104372 177.299694 61.728402 178.923724 
C 63.352433 180.547755 65.5554 181.460254 67.852127 181.460254 
z
" clip-path="url(#pa4db398737)" style="fill: #ffffff; stroke: #000000"/>
    <path d="M 77.140576 181.460254 
C 79.437303 181.460254 81.64027 180.547755 83.264301 178.923724 
C 84.888332 177.299694 85.800831 175.096726 85.800831 172.8 
C 85.800831 170.503274 84.888332 168.300306 83.264301 166.676276 
C 81.64027 165.052245 79.437303 164.139746 77.140576 164.139746 
C 74.84385 164.139746 72.640883 165.052245 71.016852 166.676276 
C 69.392821 168.300306 68.480322 170.503274 68.480322 172.8 
C 68.480322 175.096726 69.392821 177.299694 71.016852 178.923724 
C 72.640883 180.547755 74.84385 181.460254 77.140576 181.460254 
z
" clip-path="url(#pa4db398737)" style="fill: #ffffff; stroke: #000000"/>
    <path d="M 86.429026 205.261907 
C 88.725753 205.261907 90.92872 204.349408 92.552751 202.725377 
C 94.176781 201.101347 95.08928 198.898379 95.08928 196.601653 
C 95.08928 194.304927 94.176781 192.101959 92.552751 190.477929 
C 90.92872 188.853898 88.725753 187.941399 86.429026 187.941399 
C 84.1323 187.941399 81.929333 188.853898 80.305302 190.477929 
C 78.681271 192.101959 77.768772 194.304927 77.768772 196.601653 
C 77.768772 198.898379 78.681271 201.101347 80.305302 202.725377 
C 81.929333 204.349408 84.1323 205.261907 86.429026 205.261907 
z
" clip-path="url(#pa4db398737)" style="fill: #ffffff; stroke: #000000"/>
    <path d="M 86.429026 157.658601 
C 88.725753 157.658601 90.92872 156.746102 92.552751 155.122071 
C 94.176781 153.498041 95.08928 151.295073 95.08928 148.998347 
C 95.08928 146.701621 94.176781 144.498653 92.552751 142.874623 
C 90.92872 141.250592 88.725753 140.338093 86.429026 140.338093 
C 84.1323 140.338093 81.929333 141.250592 80.305302 142.874623 
C 78.681271 144.498653 77.768772 146.701621 77.768772 148.998347 
C 77.768772 151.295073 78.681271 153.498041 80.305302 155.122071 
C 81.929333 156.746102 84.1323 157.658601 86.429026 157.658601 
z
" clip-path="url(#pa4db398737)" style="fill: #ffffff; stroke: #000000"/>
    <path d="M 95.717476 205.261907 
C 98.014203 205.261907 100.21717 204.349408 101.841201 202.725377 
C 103.465231 201.101347 104.37773 198.898379 104.37773 196.601653 
C 104.37773 194.304927 103.465231 192.101959 101.841201 190.477929 
C 100.21717 188.853898 98.014203 187.941399 95.717476 187.941399 
C 93.42075 187.941399 91.217783 188.853898 89.593752 190.477929 
C 87.969721 192.101959 87.057222 194.304927 87.057222 196.601653 
C 87.057222 198.898379 87.969721 201.101347 89.593752 202.725377 
C 91.217783 204.349408 93.42075 205.261907 95.717476 205.261907 
z
" clip-path="url(#pa4db398737)" style="fill: #ffffff; stroke: #000000"/>
    <path d="M 95.717476 157.658601 
C 98.014203 157.658601 100.21717 156.746102 101.841201 155.122071 
C 103.465231 153.498041 104.37773 151.295073 104.37773 148.998347 
C 104.37773 146.701621 103.465231 144.498653 101.841201 142.874623 
C 100.21717 141.250592 98.014203 140.338093 95.717476 140.338093 
C 93.42075 140.338093 91.217783 141.250592 89.593752 142.874623 
C 87.969721 144.498653 87.057222 146.701621 87.057222 148.998347 
C 87.057222 151.295073 87.969721 153.498041 89.593752 155.122071 
C 91.217783 156.746102 93.42075 157.658601 95.717476 157.658601 
z
" clip-path="url(#pa4db398737)" style="fill: #ffffff; stroke: #000000"/>
    <path d="M 105.005926 181.460254 
C 107.302652 181.460254 109.50562 180.547755 111.129651 178.923724 
C 112.753681 177.299694 113.66618 175.096726 113.66618 172.8 
C 113.66618 170.503274 112.753681 168.300306 111.129651 166.676276 
C 109.50562 165.052245 107.302652 164.139746 105.005926 164.139746 
C 102.7092 164.139746 100.506233 165.052245 98.882202 166.676276 
C 97.258171 168.300306 96.345672 170.503274 96.345672 172.8 
C 96.345672 175.096726 97.258171 177.299694 98.882202 178.923724 
C 100.506233 180.547755 102.7092 181.460254 105.005926 181.460254 
z
" clip-path="url(#pa4db398737)" style="fill: #ffffff; stroke: #000000"/>
    <path d="M 114.294376 181.460254 
C 116.591102 181.460254 118.79407 180.547755 120.4181 178.923724 
C 122.042131 177.299694 122.95463 175.096726 122.95463 172.8 
C 122.95463 170.503274 122.042131 168.300306 120.4181 166.676276 
C 118.79407 165.052245 116.591102 164.139746 114.294376 164.139746 
C 111.99765 164.139746 109.794682 165.052245 108.170652 166.676276 
C 106.546621 168.300306 105.634122 170.503274 105.634122 172.8 
C 105.634122 175.096726 106.546621 177.299694 108.170652 178.923724 
C 109.794682 180.547755 111.99765 181.460254 114.294376 181.460254 
z
" clip-path="url(#pa4db398737)" style="fill: #ffffff; stroke: #000000"/>
    <path d="M 123.582826 181.460254 
C 125.879552 181.460254 128.08252 180.547755 129.70655 178.923724 
C 131.330581 177.299694 132.24308 175.096726 132.24308 172.8 
C 132.24308 170.503274 131.330581 168.300306 129.70655 166.676276 
C 128.08252 165.052245 125.879552 164.139746 123.582826 164.139746 
C 121.2861 164.139746 119.083132 165.052245 117.459102 166.676276 
C 115.835071 168.300306 114.922572 170.503274 114.922572 172.8 
C 114.922572 175.096726 115.835071 177.299694 117.459102 178.923724 
C 119.083132 180.547755 121.2861 181.460254 123.582826 181.460254 
z
" clip-path="url(#pa4db398737)" style="fill: #ffffff; stroke: #000000"/>
    <path d="M 132.871276 229.06356 
C 135.168002 229.06356 137.37097 228.151061 138.995 226.52703 
C 140.619031 224.902999 141.53153 222.700032 141.53153 220.403306 
C 141.53153 218.10658 140.619031 215.903612 138.995 214.279581 
C 137.37097 212.655551 135.168002 211.743052 132.871276 211.743052 
C 130.57455 211.743052 128.371582 212.655551 126.747552 214.279581 
C 125.123521 215.903612 124.211022 218.10658 124.211022 220.403306 
C 124.211022 222.700032 125.123521 224.902999 126.747552 226.52703 
C 128.371582 228.151061 130.57455 229.06356 132.871276 229.06356 
z
" clip-path="url(#pa4db398737)" style="fill: #ffffff; stroke: #000000"/>
    <path d="M 132.871276 181.460254 
C 135.168002 181.460254 137.37097 180.547755 138.995 178.923724 
C 140.619031 177.299694 141.53153 175.096726 141.53153 172.8 
C 141.53153 170.503274 140.619031 168.300306 138.995 166.676276 
C 137.37097 165.052245 135.168002 164.139746 132.871276 164.139746 
C 130.57455 164.139746 128.371582 165.052245 126.747552 166.676276 
C 125.123521 168.300306 124.211022 170.503274 124.211022 172.8 
C 124.211022 175.096726 125.123521 177.299694 126.747552 178.923724 
C 128.371582 180.547755 130.57455 181.460254 132.871276 181.460254 
z
" clip-path="url(#pa4db398737)" style="fill: #ffffff; stroke: #000000"/>
    <path d="M 132.871276 133.856948 
C 135.168002 133.856948 137.37097 132.944449 138.995 131.320419 
C 140.619031 129.696388 141.53153 127.49342 141.53153 125.196694 
C 141.53153 122.899968 140.619031 120.697001 138.995 119.07297 
C 137.37097 117.448939 135.168002 116.53644 132.871276 116.53644 
C 130.57455 116.53644 128.371582 117.448939 126.747552 119.07297 
C 125.123521 120.697001 124.211022 122.899968 124.211022 125.196694 
C 124.211022 127.49342 125.123521 129.696388 126.747552 131.320419 
C 128.371582 132.944449 130.57455 133.856948 132.871276 133.856948 
z
" clip-path="url(#pa4db398737)" style="fill: #ffffff; stroke: #000000"/>
    <path d="M 142.159726 205.261907 
C 144.456452 205.261907 146.65942 204.349408 148.28345 202.725377 
C 149.907481 201.101347 150.81998 198.898379 150.81998 196.601653 
C 150.81998 194.304927 149.907481 192.101959 148.28345 190.477929 
C 146.65942 188.853898 144.456452 187.941399 142.159726 187.941399 
C 139.863 187.941399 137.660032 188.853898 136.036002 190.477929 
C 134.411971 192.101959 133.499472 194.304927 133.499472 196.601653 
C 133.499472 198.898379 134.411971 201.101347 136.036002 202.725377 
C 137.660032 204.349408 139.863 205.261907 142.159726 205.261907 
z
" clip-path="url(#pa4db398737)" style="fill: #ffffff; stroke: #000000"/>
    <path d="M 142.159726 157.658601 
C 144.456452 157.658601 146.65942 156.746102 148.28345 155.122071 
C 149.907481 153.498041 150.81998 151.295073 150.81998 148.998347 
C 150.81998 146.701621 149.907481 144.498653 148.28345 142.874623 
C 146.65942 141.250592 144.456452 140.338093 142.159726 140.338093 
C 139.863 140.338093 137.660032 141.250592 136.036002 142.874623 
C 134.411971 144.498653 133.499472 146.701621 133.499472 148.998347 
C 133.499472 151.295073 134.411971 153.498041 136.036002 155.122071 
C 137.660032 156.746102 139.863 157.658601 142.159726 157.658601 
z
" clip-path="url(#pa4db398737)" style="fill: #ffffff; stroke: #000000"/>
    <path d="M 151.448176 181.460254 
C 153.744902 181.460254 155.947869 180.547755 157.5719 178.923724 
C 159.195931 177.299694 160.10843 175.096726 160.10843 172.8 
C 160.10843 170.503274 159.195931 168.300306 157.5719 166.676276 
C 155.947869 165.052245 153.744902 164.139746 151.448176 164.139746 
C 149.15145 164.139746 146.948482 165.052245 145.324451 166.676276 
C 143.700421 168.300306 142.787922 170.503274 142.787922 172.8 
C 142.787922 175.096726 143.700421 177.299694 145.324451 178.923724 
C 146.948482 180.547755 149.15145 181.460254 151.448176 181.460254 
z
" clip-path="url(#pa4db398737)" style="fill: #ffffff; stroke: #000000"/>
    <path d="M 160.736626 229.06356 
C 163.033352 229.06356 165.236319 228.151061 166.86035 226.52703 
C 168.484381 224.902999 169.39688 222.700032 169.39688 220.403306 
C 169.39688 218.10658 168.484381 215.903612 166.86035 214.279581 
C 165.236319 212.655551 163.033352 211.743052 160.736626 211.743052 
C 158.439899 211.743052 156.236932 212.655551 154.612901 214.279581 
C 152.988871 215.903612 152.076372 218.10658 152.076372 220.403306 
C 152.076372 222.700032 152.988871 224.902999 154.612901 226.52703 
C 156.236932 228.151061 158.439899 229.06356 160.736626 229.06356 
z
" clip-path="url(#pa4db398737)" style="fill: #ffffff; stroke: #000000"/>
    <path d="M 160.736626 181.460254 
C 163.033352 181.460254 165.236319 180.547755 166.86035 178.923724 
C 168.484381 177.299694 169.39688 175.096726 169.39688 172.8 
C 169.39688 170.503274 168.484381 168.300306 166.86035 166.676276 
C 165.236319 165.052245 163.033352 164.139746 160.736626 164.139746 
C 158.439899 164.139746 156.236932 165.052245 154.612901 166.676276 
C 152.988871 168.300306 152.076372 170.503274 152.076372 172.8 
C 152.076372 175.096726 152.988871 177.299694 154.612901 178.923724 
C 156.236932 180.547755 158.439899 181.460254 160.736626 181.460254 
z
" clip-path="url(#pa4db398737)" style="fill: #ffffff; stroke: #000000"/>
    <path d="M 160.736626 133.856948 
C 163.033352 133.856948 165.236319 132.944449 166.86035 131.320419 
C 168.484381 129.696388 169.39688 127.49342 169.39688 125.196694 
C 169.39688 122.899968 168.484381 120.697001 166.86035 119.07297 
C 165.236319 117.448939 163.033352 116.53644 160.736626 116.53644 
C 158.439899 116.53644 156.236932 117.448939 154.612901 119.07297 
C 152.988871 120.697001 152.076372 122.899968 152.076372 125.196694 
C 152.076372 127.49342 152.988871 129.696388 154.612901 131.320419 
C 156.236932 132.944449 158.439899 133.856948 160.736626 133.856948 
z
" clip-path="url(#pa4db398737)" style="fill: #ffffff; stroke: #000000"/>
    <path d="M 170.025076 181.460254 
C 172.321802 181.460254 174.524769 180.547755 176.1488 178.923724 
C 177.772831 177.299694 178.68533 175.096726 178.68533 172.8 
C 178.68533 170.503274 177.772831 168.300306 176.1488 166.676276 
C 174.524769 165.052245 172.321802 164.139746 170.025076 164.139746 
C 167.728349 164.139746 165.525382 165.052245 163.901351 166.676276 
C 162.277321 168.300306 161.364822 170.503274 161.364822 172.8 
C 161.364822 175.096726 162.277321 177.299694 163.901351 178.923724 
C 165.525382 180.547755 167.728349 181.460254 170.025076 181.460254 
z
" clip-path="url(#pa4db398737)" style="fill: #ffffff; stroke: #000000"/>
    <path d="M 170.025076 133.856948 
C 172.321802 133.856948 174.524769 132.944449 176.1488 131.320419 
C 177.772831 129.696388 178.68533 127.49342 178.68533 125.196694 
C 178.68533 122.899968 177.772831 120.697001 176.1488 119.07297 
C 174.524769 117.448939 172.321802 116.53644 170.025076 116.53644 
C 167.728349 116.53644 165.525382 117.448939 163.901351 119.07297 
C 162.277321 120.697001 161.364822 122.899968 161.364822 125.196694 
C 161.364822 127.49342 162.277321 129.696388 163.901351 131.320419 
C 165.525382 132.944449 167.728349 133.856948 170.025076 133.856948 
z
" clip-path="url(#pa4db398737)" style="fill: #ffffff; stroke: #000000"/>
    <path d="M 170.025076 229.06356 
C 172.321802 229.06356 174.524769 228.151061 176.1488 226.52703 
C 177.772831 224.902999 178.68533 222.700032 178.68533 220.403306 
C 178.68533 218.10658 177.772831 215.903612 176.1488 214.279581 
C 174.524769 212.655551 172.321802 211.743052 170.025076 211.743052 
C 167.728349 211.743052 165.525382 212.655551 163.901351 214.279581 
C 162.277321 215.903612 161.364822 218.10658 161.364822 220.403306 
C 161.364822 222.700032 162.277321 224.902999 163.901351 226.52703 
C 165.525382 228.151061 167.728349 229.06356 170.025076 229.06356 
z
" clip-path="url(#pa4db398737)" style="fill: #ffffff; stroke: #000000"/>
    <path d="M 179.313525 205.261907 
C 181.610252 205.261907 183.813219 204.349408 185.43725 202.725377 
C 187.061281 201.101347 187.97378 198.898379 187.97378 196.601653 
C 187.97378 194.304927 187.061281 192.101959 185.43725 190.477929 
C 183.813219 188.853898 181.610252 187.941399 179.313525 187.941399 
C 177.016799 187.941399 174.813832 188.853898 173.189801 190.477929 
C 171.56577 192.101959 170.653271 194.304927 170.653271 196.601653 
C 170.653271 198.898379 171.56577 201.101347 173.189801 202.725377 
C 174.813832 204.349408 177.016799 205.261907 179.313525 205.261907 
z
" clip-path="url(#pa4db398737)" style="fill: #ffffff; stroke: #000000"/>
    <path d="M 179.313525 157.658601 
C 181.610252 157.658601 183.813219 156.746102 185.43725 155.122071 
C 187.061281 153.498041 187.97378 151.295073 187.97378 148.998347 
C 187.97378 146.701621 187.061281 144.498653 185.43725 142.874623 
C 183.813219 141.250592 181.610252 140.338093 179.313525 140.338093 
C 177.016799 140.338093 174.813832 141.250592 173.189801 142.874623 
C 171.56577 144.498653 170.653271 146.701621 170.653271 148.998347 
C 170.653271 151.295073 171.56577 153.498041 173.189801 155.122071 
C 174.813832 156.746102 177.016799 157.658601 179.313525 157.658601 
z
" clip-path="url(#pa4db398737)" style="fill: #ffffff; stroke: #000000"/>
    <path d="M 188.601975 205.261907 
C 190.898702 205.261907 193.101669 204.349408 194.7257 202.725377 
C 196.34973 201.101347 197.262229 198.898379 197.262229 196.601653 
C 197.262229 194.304927 196.34973 192.101959 194.7257 190.477929 
C 193.101669 188.853898 190.898702 187.941399 188.601975 187.941399 
C 186.305249 187.941399 184.102282 188.853898 182.478251 190.477929 
C 180.85422 192.101959 179.941721 194.304927 179.941721 196.601653 
C 179.941721 198.898379 180.85422 201.101347 182.478251 202.725377 
C 184.102282 204.349408 186.305249 205.261907 188.601975 205.261907 
z
" clip-path="url(#pa4db398737)" style="fill: #ffffff; stroke: #000000"/>
    <path d="M 188.601975 157.658601 
C 190.898702 157.658601 193.101669 156.746102 194.7257 155.122071 
C 196.34973 153.498041 197.262229 151.295073 197.262229 148.998347 
C 197.262229 146.701621 196.34973 144.498653 194.7257 142.874623 
C 193.101669 141.250592 190.898702 140.338093 188.601975 140.338093 
C 186.305249 140.338093 184.102282 141.250592 182.478251 142.874623 
C 180.85422 144.498653 179.941721 146.701621 179.941721 148.998347 
C 179.941721 151.295073 180.85422 153.498041 182.478251 155.122071 
C 184.102282 156.746102 186.305249 157.658601 188.601975 157.658601 
z
" clip-path="url(#pa4db398737)" style="fill: #ffffff; stroke: #000000"/>
    <path d="M 197.890425 181.460254 
C 200.187152 181.460254 202.390119 180.547755 204.01415 178.923724 
C 205.63818 177.299694 206.550679 175.096726 206.550679 172.8 
C 206.550679 170.503274 205.63818 168.300306 204.01415 166.676276 
C 202.390119 165.052245 200.187152 164.139746 197.890425 164.139746 
C 195.593699 164.139746 193.390732 165.052245 191.766701 166.676276 
C 190.14267 168.300306 189.230171 170.503274 189.230171 172.8 
C 189.230171 175.096726 190.14267 177.299694 191.766701 178.923724 
C 193.390732 180.547755 195.593699 181.460254 197.890425 181.460254 
z
" clip-path="url(#pa4db398737)" style="fill: #ffffff; stroke: #000000"/>
    <path d="M 207.178875 181.460254 
C 209.475601 181.460254 211.678569 180.547755 213.3026 178.923724 
C 214.92663 177.299694 215.839129 175.096726 215.839129 172.8 
C 215.839129 170.503274 214.92663 168.300306 213.3026 166.676276 
C 211.678569 165.052245 209.475601 164.139746 207.178875 164.139746 
C 204.882149 164.139746 202.679182 165.052245 201.055151 166.676276 
C 199.43112 168.300306 198.518621 170.503274 198.518621 172.8 
C 198.518621 175.096726 199.43112 177.299694 201.055151 178.923724 
C 202.679182 180.547755 204.882149 181.460254 207.178875 181.460254 
z
" clip-path="url(#pa4db398737)" style="fill: #ffffff; stroke: #000000"/>
    <path d="M 216.467325 181.460254 
C 218.764051 181.460254 220.967019 180.547755 222.591049 178.923724 
C 224.21508 177.299694 225.127579 175.096726 225.127579 172.8 
C 225.127579 170.503274 224.21508 168.300306 222.591049 166.676276 
C 220.967019 165.052245 218.764051 164.139746 216.467325 164.139746 
C 214.170599 164.139746 211.967631 165.052245 210.343601 166.676276 
C 208.71957 168.300306 207.807071 170.503274 207.807071 172.8 
C 207.807071 175.096726 208.71957 177.299694 210.343601 178.923724 
C 211.967631 180.547755 214.170599 181.460254 216.467325 181.460254 
z
" clip-path="url(#pa4db398737)" style="fill: #ffffff; stroke: #000000"/>
    <path d="M 225.755775 181.460254 
C 228.052501 181.460254 230.255469 180.547755 231.879499 178.923724 
C 233.50353 177.299694 234.416029 175.096726 234.416029 172.8 
C 234.416029 170.503274 233.50353 168.300306 231.879499 166.676276 
C 230.255469 165.052245 228.052501 164.139746 225.755775 164.139746 
C 223.459049 164.139746 221.256081 165.052245 219.632051 166.676276 
C 218.00802 168.300306 217.095521 170.503274 217.095521 172.8 
C 217.095521 175.096726 218.00802 177.299694 219.632051 178.923724 
C 221.256081 180.547755 223.459049 181.460254 225.755775 181.460254 
z
" clip-path="url(#pa4db398737)" style="fill: #ffffff; stroke: #000000"/>
    <path d="M 235.044225 181.460254 
C 237.340951 181.460254 239.543919 180.547755 241.167949 178.923724 
C 242.79198 177.299694 243.704479 175.096726 243.704479 172.8 
C 243.704479 170.503274 242.79198 168.300306 241.167949 166.676276 
C 239.543919 165.052245 237.340951 164.139746 235.044225 164.139746 
C 232.747499 164.139746 230.544531 165.052245 228.920501 166.676276 
C 227.29647 168.300306 226.383971 170.503274 226.383971 172.8 
C 226.383971 175.096726 227.29647 177.299694 228.920501 178.923724 
C 230.544531 180.547755 232.747499 181.460254 235.044225 181.460254 
z
" clip-path="url(#pa4db398737)" style="fill: #ffffff; stroke: #000000"/>
    <path d="M 244.332675 181.460254 
C 246.629401 181.460254 248.832369 180.547755 250.456399 178.923724 
C 252.08043 177.299694 252.992929 175.096726 252.992929 172.8 
C 252.992929 170.503274 252.08043 168.300306 250.456399 166.676276 
C 248.832369 165.052245 246.629401 164.139746 244.332675 164.139746 
C 242.035949 164.139746 239.832981 165.052245 238.208951 166.676276 
C 236.58492 168.300306 235.672421 170.503274 235.672421 172.8 
C 235.672421 175.096726 236.58492 177.299694 238.208951 178.923724 
C 239.832981 180.547755 242.035949 181.460254 244.332675 181.460254 
z
" clip-path="url(#pa4db398737)" style="fill: #ffffff; stroke: #000000"/>
    <path d="M 253.621125 181.460254 
C 255.917851 181.460254 258.120818 180.547755 259.744849 178.923724 
C 261.36888 177.299694 262.281379 175.096726 262.281379 172.8 
C 262.281379 170.503274 261.36888 168.300306 259.744849 166.676276 
C 258.120818 165.052245 255.917851 164.139746 253.621125 164.139746 
C 251.324399 164.139746 249.121431 165.052245 247.4974 166.676276 
C 245.87337 168.300306 244.960871 170.503274 244.960871 172.8 
C 244.960871 175.096726 245.87337 177.299694 247.4974 178.923724 
C 249.121431 180.547755 251.324399 181.460254 253.621125 181.460254 
z
" clip-path="url(#pa4db398737)" style="fill: #ffffff; stroke: #000000"/>
    <path d="M 262.909575 181.460254 
C 265.206301 181.460254 267.409268 180.547755 269.033299 178.923724 
C 270.65733 177.299694 271.569829 175.096726 271.569829 172.8 
C 271.569829 170.503274 270.65733 168.300306 269.033299 166.676276 
C 267.409268 165.052245 265.206301 164.139746 262.909575 164.139746 
C 260.612848 164.139746 258.409881 165.052245 256.78585 166.676276 
C 255.16182 168.300306 254.249321 170.503274 254.249321 172.8 
C 254.249321 175.096726 255.16182 177.299694 256.78585 178.923724 
C 258.409881 180.547755 260.612848 181.460254 262.909575 181.460254 
z
" clip-path="url(#pa4db398737)" style="fill: #ffffff; stroke: #000000"/>
    <path d="M 272.198025 205.261907 
C 274.494751 205.261907 276.697718 204.349408 278.321749 202.725377 
C 279.94578 201.101347 280.858279 198.898379 280.858279 196.601653 
C 280.858279 194.304927 279.94578 192.101959 278.321749 190.477929 
C 276.697718 188.853898 274.494751 187.941399 272.198025 187.941399 
C 269.901298 187.941399 267.698331 188.853898 266.0743 190.477929 
C 264.45027 192.101959 263.537771 194.304927 263.537771 196.601653 
C 263.537771 198.898379 264.45027 201.101347 266.0743 202.725377 
C 267.698331 204.349408 269.901298 205.261907 272.198025 205.261907 
z
" clip-path="url(#pa4db398737)" style="fill: #ffffff; stroke: #000000"/>
    <path d="M 272.198025 157.658601 
C 274.494751 157.658601 276.697718 156.746102 278.321749 155.122071 
C 279.94578 153.498041 280.858279 151.295073 280.858279 148.998347 
C 280.858279 146.701621 279.94578 144.498653 278.321749 142.874623 
C 276.697718 141.250592 274.494751 140.338093 272.198025 140.338093 
C 269.901298 140.338093 267.698331 141.250592 266.0743 142.874623 
C 264.45027 144.498653 263.537771 146.701621 263.537771 148.998347 
C 263.537771 151.295073 264.45027 153.498041 266.0743 155.122071 
C 267.698331 156.746102 269.901298 157.658601 272.198025 157.658601 
z
" clip-path="url(#pa4db398737)" style="fill: #ffffff; stroke: #000000"/>
    <path d="M 281.486475 205.261907 
C 283.783201 205.261907 285.986168 204.349408 287.610199 202.725377 
C 289.23423 201.101347 290.146729 198.898379 290.146729 196.601653 
C 290.146729 194.304927 289.23423 192.101959 287.610199 190.477929 
C 285.986168 188.853898 283.783201 187.941399 281.486475 187.941399 
C 279.189748 187.941399 276.986781 188.853898 275.36275 190.477929 
C 273.738719 192.101959 272.82622 194.304927 272.82622 196.601653 
C 272.82622 198.898379 273.738719 201.101347 275.36275 202.725377 
C 276.986781 204.349408 279.189748 205.261907 281.486475 205.261907 
z
" clip-path="url(#pa4db398737)" style="fill: #ffffff; stroke: #000000"/>
    <path d="M 281.486475 157.658601 
C 283.783201 157.658601 285.986168 156.746102 287.610199 155.122071 
C 289.23423 153.498041 290.146729 151.295073 290.146729 148.998347 
C 290.146729 146.701621 289.23423 144.498653 287.610199 142.874623 
C 285.986168 141.250592 283.783201 140.338093 281.486475 140.338093 
C 279.189748 140.338093 276.986781 141.250592 275.36275 142.874623 
C 273.738719 144.498653 272.82622 146.701621 272.82622 148.998347 
C 272.82622 151.295073 273.738719 153.498041 275.36275 155.122071 
C 276.986781 156.746102 279.189748 157.658601 281.486475 157.658601 
z
" clip-path="url(#pa4db398737)" style="fill: #ffffff; stroke: #000000"/>
    <path d="M 290.774924 157.658601 
C 293.071651 157.658601 295.274618 156.746102 296.898649 155.122071 
C 298.522679 153.498041 299.435178 151.295073 299.435178 148.998347 
C 299.435178 146.701621 298.522679 144.498653 296.898649 142.874623 
C 295.274618 141.250592 293.071651 140.338093 290.774924 140.338093 
C 288.478198 140.338093 286.275231 141.250592 284.6512 142.874623 
C 283.027169 144.498653 282.11467 146.701621 282.11467 148.998347 
C 282.11467 151.295073 283.027169 153.498041 284.6512 155.122071 
C 286.275231 156.746102 288.478198 157.658601 290.774924 157.658601 
z
" clip-path="url(#pa4db398737)" style="fill: #ffffff; stroke: #000000"/>
    <path d="M 290.774924 205.261907 
C 293.071651 205.261907 295.274618 204.349408 296.898649 202.725377 
C 298.522679 201.101347 299.435178 198.898379 299.435178 196.601653 
C 299.435178 194.304927 298.522679 192.101959 296.898649 190.477929 
C 295.274618 188.853898 293.071651 187.941399 290.774924 187.941399 
C 288.478198 187.941399 286.275231 188.853898 284.6512 190.477929 
C 283.027169 192.101959 282.11467 194.304927 282.11467 196.601653 
C 282.11467 198.898379 283.027169 201.101347 284.6512 202.725377 
C 286.275231 204.349408 288.478198 205.261907 290.774924 205.261907 
z
" clip-path="url(#pa4db398737)" style="fill: #ffffff; stroke: #000000"/>
    <path d="M 300.063374 181.460254 
C 302.360101 181.460254 304.563068 180.547755 306.187099 178.923724 
C 307.811129 177.299694 308.723628 175.096726 308.723628 172.8 
C 308.723628 170.503274 307.811129 168.300306 306.187099 166.676276 
C 304.563068 165.052245 302.360101 164.139746 300.063374 164.139746 
C 297.766648 164.139746 295.563681 165.052245 293.93965 166.676276 
C 292.315619 168.300306 291.40312 170.503274 291.40312 172.8 
C 291.40312 175.096726 292.315619 177.299694 293.93965 178.923724 
C 295.563681 180.547755 297.766648 181.460254 300.063374 181.460254 
z
" clip-path="url(#pa4db398737)" style="fill: #ffffff; stroke: #000000"/>
    <path d="M 309.351824 181.460254 
C 311.64855 181.460254 313.851518 180.547755 315.475549 178.923724 
C 317.099579 177.299694 318.012078 175.096726 318.012078 172.8 
C 318.012078 170.503274 317.099579 168.300306 315.475549 166.676276 
C 313.851518 165.052245 311.64855 164.139746 309.351824 164.139746 
C 307.055098 164.139746 304.852131 165.052245 303.2281 166.676276 
C 301.604069 168.300306 300.69157 170.503274 300.69157 172.8 
C 300.69157 175.096726 301.604069 177.299694 303.2281 178.923724 
C 304.852131 180.547755 307.055098 181.460254 309.351824 181.460254 
z
" clip-path="url(#pa4db398737)" style="fill: #ffffff; stroke: #000000"/>
    <path d="M 318.640274 181.460254 
C 320.937 181.460254 323.139968 180.547755 324.763998 178.923724 
C 326.388029 177.299694 327.300528 175.096726 327.300528 172.8 
C 327.300528 170.503274 326.388029 168.300306 324.763998 166.676276 
C 323.139968 165.052245 320.937 164.139746 318.640274 164.139746 
C 316.343548 164.139746 314.14058 165.052245 312.51655 166.676276 
C 310.892519 168.300306 309.98002 170.503274 309.98002 172.8 
C 309.98002 175.096726 310.892519 177.299694 312.51655 178.923724 
C 314.14058 180.547755 316.343548 181.460254 318.640274 181.460254 
z
" clip-path="url(#pa4db398737)" style="fill: #ffffff; stroke: #000000"/>
    <path d="M 327.928724 181.460254 
C 330.22545 181.460254 332.428418 180.547755 334.052448 178.923724 
C 335.676479 177.299694 336.588978 175.096726 336.588978 172.8 
C 336.588978 170.503274 335.676479 168.300306 334.052448 166.676276 
C 332.428418 165.052245 330.22545 164.139746 327.928724 164.139746 
C 325.631998 164.139746 323.42903 165.052245 321.805 166.676276 
C 320.180969 168.300306 319.26847 170.503274 319.26847 172.8 
C 319.26847 175.096726 320.180969 177.299694 321.805 178.923724 
C 323.42903 180.547755 325.631998 181.460254 327.928724 181.460254 
z
" clip-path="url(#pa4db398737)" style="fill: #ffffff; stroke: #000000"/>
    <path d="M 337.217174 181.460254 
C 339.5139 181.460254 341.716868 180.547755 343.340898 178.923724 
C 344.964929 177.299694 345.877428 175.096726 345.877428 172.8 
C 345.877428 170.503274 344.964929 168.300306 343.340898 166.676276 
C 341.716868 165.052245 339.5139 164.139746 337.217174 164.139746 
C 334.920448 164.139746 332.71748 165.052245 331.09345 166.676276 
C 329.469419 168.300306 328.55692 170.503274 328.55692 172.8 
C 328.55692 175.096726 329.469419 177.299694 331.09345 178.923724 
C 332.71748 180.547755 334.920448 181.460254 337.217174 181.460254 
z
" clip-path="url(#pa4db398737)" style="fill: #ffffff; stroke: #000000"/>
    <path d="M 346.505624 205.261907 
C 348.80235 205.261907 351.005318 204.349408 352.629348 202.725377 
C 354.253379 201.101347 355.165878 198.898379 355.165878 196.601653 
C 355.165878 194.304927 354.253379 192.101959 352.629348 190.477929 
C 351.005318 188.853898 348.80235 187.941399 346.505624 187.941399 
C 344.208898 187.941399 342.00593 188.853898 340.3819 190.477929 
C 338.757869 192.101959 337.84537 194.304927 337.84537 196.601653 
C 337.84537 198.898379 338.757869 201.101347 340.3819 202.725377 
C 342.00593 204.349408 344.208898 205.261907 346.505624 205.261907 
z
" clip-path="url(#pa4db398737)" style="fill: #ffffff; stroke: #000000"/>
    <path d="M 346.505624 157.658601 
C 348.80235 157.658601 351.005318 156.746102 352.629348 155.122071 
C 354.253379 153.498041 355.165878 151.295073 355.165878 148.998347 
C 355.165878 146.701621 354.253379 144.498653 352.629348 142.874623 
C 351.005318 141.250592 348.80235 140.338093 346.505624 140.338093 
C 344.208898 140.338093 342.00593 141.250592 340.3819 142.874623 
C 338.757869 144.498653 337.84537 146.701621 337.84537 148.998347 
C 337.84537 151.295073 338.757869 153.498041 340.3819 155.122071 
C 342.00593 156.746102 344.208898 157.658601 346.505624 157.658601 
z
" clip-path="url(#pa4db398737)" style="fill: #ffffff; stroke: #000000"/>
    <path d="M 355.794074 205.261907 
C 358.0908 205.261907 360.293767 204.349408 361.917798 202.725377 
C 363.541829 201.101347 364.454328 198.898379 364.454328 196.601653 
C 364.454328 194.304927 363.541829 192.101959 361.917798 190.477929 
C 360.293767 188.853898 358.0908 187.941399 355.794074 187.941399 
C 353.497348 187.941399 351.29438 188.853898 349.670349 190.477929 
C 348.046319 192.101959 347.13382 194.304927 347.13382 196.601653 
C 347.13382 198.898379 348.046319 201.101347 349.670349 202.725377 
C 351.29438 204.349408 353.497348 205.261907 355.794074 205.261907 
z
" clip-path="url(#pa4db398737)" style="fill: #ffffff; stroke: #000000"/>
    <path d="M 355.794074 157.658601 
C 358.0908 157.658601 360.293767 156.746102 361.917798 155.122071 
C 363.541829 153.498041 364.454328 151.295073 364.454328 148.998347 
C 364.454328 146.701621 363.541829 144.498653 361.917798 142.874623 
C 360.293767 141.250592 358.0908 140.338093 355.794074 140.338093 
C 353.497348 140.338093 351.29438 141.250592 349.670349 142.874623 
C 348.046319 144.498653 347.13382 146.701621 347.13382 148.998347 
C 347.13382 151.295073 348.046319 153.498041 349.670349 155.122071 
C 351.29438 156.746102 353.497348 157.658601 355.794074 157.658601 
z
" clip-path="url(#pa4db398737)" style="fill: #ffffff; stroke: #000000"/>
    <path d="M 365.082524 229.06356 
C 367.37925 229.06356 369.582217 228.151061 371.206248 226.52703 
C 372.830279 224.902999 373.742778 222.700032 373.742778 220.403306 
C 373.742778 218.10658 372.830279 215.903612 371.206248 214.279581 
C 369.582217 212.655551 367.37925 211.743052 365.082524 211.743052 
C 362.785797 211.743052 360.58283 212.655551 358.958799 214.279581 
C 357.334769 215.903612 356.42227 218.10658 356.42227 220.403306 
C 356.42227 222.700032 357.334769 224.902999 358.958799 226.52703 
C 360.58283 228.151061 362.785797 229.06356 365.082524 229.06356 
z
" clip-path="url(#pa4db398737)" style="fill: #ffffff; stroke: #000000"/>
    <path d="M 365.082524 181.460254 
C 367.37925 181.460254 369.582217 180.547755 371.206248 178.923724 
C 372.830279 177.299694 373.742778 175.096726 373.742778 172.8 
C 373.742778 170.503274 372.830279 168.300306 371.206248 166.676276 
C 369.582217 165.052245 367.37925 164.139746 365.082524 164.139746 
C 362.785797 164.139746 360.58283 165.052245 358.958799 166.676276 
C 357.334769 168.300306 356.42227 170.503274 356.42227 172.8 
C 356.42227 175.096726 357.334769 177.299694 358.958799 178.923724 
C 360.58283 180.547755 362.785797 181.460254 365.082524 181.460254 
z
" clip-path="url(#pa4db398737)" style="fill: #ffffff; stroke: #000000"/>
    <path d="M 365.082524 133.856948 
C 367.37925 133.856948 369.582217 132.944449 371.206248 131.320419 
C 372.830279 129.696388 373.742778 127.49342 373.742778 125.196694 
C 373.742778 122.899968 372.830279 120.697001 371.206248 119.07297 
C 369.582217 117.448939 367.37925 116.53644 365.082524 116.53644 
C 362.785797 116.53644 360.58283 117.448939 358.958799 119.07297 
C 357.334769 120.697001 356.42227 122.899968 356.42227 125.196694 
C 356.42227 127.49342 357.334769 129.696388 358.958799 131.320419 
C 360.58283 132.944449 362.785797 133.856948 365.082524 133.856948 
z
" clip-path="url(#pa4db398737)" style="fill: #ffffff; stroke: #000000"/>
    <path d="M 374.370974 157.658601 
C 376.6677 157.658601 378.870667 156.746102 380.494698 155.122071 
C 382.118729 153.498041 383.031228 151.295073 383.031228 148.998347 
C 383.031228 146.701621 382.118729 144.498653 380.494698 142.874623 
C 378.870667 141.250592 376.6677 140.338093 374.370974 140.338093 
C 372.074247 140.338093 369.87128 141.250592 368.247249 142.874623 
C 366.623219 144.498653 365.71072 146.701621 365.71072 148.998347 
C 365.71072 151.295073 366.623219 153.498041 368.247249 155.122071 
C 369.87128 156.746102 372.074247 157.658601 374.370974 157.658601 
z
" clip-path="url(#pa4db398737)" style="fill: #ffffff; stroke: #000000"/>
    <path d="M 374.370974 205.261907 
C 376.6677 205.261907 378.870667 204.349408 380.494698 202.725377 
C 382.118729 201.101347 383.031228 198.898379 383.031228 196.601653 
C 383.031228 194.304927 382.118729 192.101959 380.494698 190.477929 
C 378.870667 188.853898 376.6677 187.941399 374.370974 187.941399 
C 372.074247 187.941399 369.87128 188.853898 368.247249 190.477929 
C 366.623219 192.101959 365.71072 194.304927 365.71072 196.601653 
C 365.71072 198.898379 366.623219 201.101347 368.247249 202.725377 
C 369.87128 204.349408 372.074247 205.261907 374.370974 205.261907 
z
" clip-path="url(#pa4db398737)" style="fill: #ffffff; stroke: #000000"/>
    <path d="M 383.659424 205.261907 
C 385.95615 205.261907 388.159117 204.349408 389.783148 202.725377 
C 391.407179 201.101347 392.319678 198.898379 392.319678 196.601653 
C 392.319678 194.304927 391.407179 192.101959 389.783148 190.477929 
C 388.159117 188.853898 385.95615 187.941399 383.659424 187.941399 
C 381.362697 187.941399 379.15973 188.853898 377.535699 190.477929 
C 375.911668 192.101959 374.999169 194.304927 374.999169 196.601653 
C 374.999169 198.898379 375.911668 201.101347 377.535699 202.725377 
C 379.15973 204.349408 381.362697 205.261907 383.659424 205.261907 
z
" clip-path="url(#pa4db398737)" style="fill: #ffffff; stroke: #000000"/>
    <path d="M 383.659424 157.658601 
C 385.95615 157.658601 388.159117 156.746102 389.783148 155.122071 
C 391.407179 153.498041 392.319678 151.295073 392.319678 148.998347 
C 392.319678 146.701621 391.407179 144.498653 389.783148 142.874623 
C 388.159117 141.250592 385.95615 140.338093 383.659424 140.338093 
C 381.362697 140.338093 379.15973 141.250592 377.535699 142.874623 
C 375.911668 144.498653 374.999169 146.701621 374.999169 148.998347 
C 374.999169 151.295073 375.911668 153.498041 377.535699 155.122071 
C 379.15973 156.746102 381.362697 157.658601 383.659424 157.658601 
z
" clip-path="url(#pa4db398737)" style="fill: #ffffff; stroke: #000000"/>
    <path d="M 392.947873 181.460254 
C 395.2446 181.460254 397.447567 180.547755 399.071598 178.923724 
C 400.695628 177.299694 401.608127 175.096726 401.608127 172.8 
C 401.608127 170.503274 400.695628 168.300306 399.071598 166.676276 
C 397.447567 165.052245 395.2446 164.139746 392.947873 164.139746 
C 390.651147 164.139746 388.44818 165.052245 386.824149 166.676276 
C 385.200118 168.300306 384.287619 170.503274 384.287619 172.8 
C 384.287619 175.096726 385.200118 177.299694 386.824149 178.923724 
C 388.44818 180.547755 390.651147 181.460254 392.947873 181.460254 
z
" clip-path="url(#pa4db398737)" style="fill: #ffffff; stroke: #000000"/>
    <path d="M 402.236323 181.460254 
C 404.53305 181.460254 406.736017 180.547755 408.360048 178.923724 
C 409.984078 177.299694 410.896577 175.096726 410.896577 172.8 
C 410.896577 170.503274 409.984078 168.300306 408.360048 166.676276 
C 406.736017 165.052245 404.53305 164.139746 402.236323 164.139746 
C 399.939597 164.139746 397.73663 165.052245 396.112599 166.676276 
C 394.488568 168.300306 393.576069 170.503274 393.576069 172.8 
C 393.576069 175.096726 394.488568 177.299694 396.112599 178.923724 
C 397.73663 180.547755 399.939597 181.460254 402.236323 181.460254 
z
" clip-path="url(#pa4db398737)" style="fill: #ffffff; stroke: #000000"/>
    <path d="M 411.524773 181.460254 
C 413.821499 181.460254 416.024467 180.547755 417.648498 178.923724 
C 419.272528 177.299694 420.185027 175.096726 420.185027 172.8 
C 420.185027 170.503274 419.272528 168.300306 417.648498 166.676276 
C 416.024467 165.052245 413.821499 164.139746 411.524773 164.139746 
C 409.228047 164.139746 407.02508 165.052245 405.401049 166.676276 
C 403.777018 168.300306 402.864519 170.503274 402.864519 172.8 
C 402.864519 175.096726 403.777018 177.299694 405.401049 178.923724 
C 407.02508 180.547755 409.228047 181.460254 411.524773 181.460254 
z
" clip-path="url(#pa4db398737)" style="fill: #ffffff; stroke: #000000"/>
    <path d="M 420.813223 181.460254 
C 423.109949 181.460254 425.312917 180.547755 426.936947 178.923724 
C 428.560978 177.299694 429.473477 175.096726 429.473477 172.8 
C 429.473477 170.503274 428.560978 168.300306 426.936947 166.676276 
C 425.312917 165.052245 423.109949 164.139746 420.813223 164.139746 
C 418.516497 164.139746 416.313529 165.052245 414.689499 166.676276 
C 413.065468 168.300306 412.152969 170.503274 412.152969 172.8 
C 412.152969 175.096726 413.065468 177.299694 414.689499 178.923724 
C 416.313529 180.547755 418.516497 181.460254 420.813223 181.460254 
z
" clip-path="url(#pa4db398737)" style="fill: #0000ff; stroke: #000000"/>
   </g>
  </g>
 </g>
 <defs>
  <clipPath id="pa4db398737">
   <rect x="0" y="0" width="460.8" height="345.6"/>
  </clipPath>
 </defs>
</svg>
