<?xml version="1.0" encoding="utf-8" standalone="no"?>
<!DOCTYPE svg PUBLIC "-//W3C//DTD SVG 1.1//EN"
  "http://www.w3.org/Graphics/SVG/1.1/DTD/svg11.dtd">
<svg xmlns:xlink="http://www.w3.org/1999/xlink" width="460.8pt" height="345.6pt" viewBox="0 0 460.8 345.6" xmlns="http://www.w3.org/2000/svg" version="1.1">
 <metadata>
  <rdf:RDF xmlns:dc="http://purl.org/dc/elements/1.1/" xmlns:cc="http://creativecommons.org/ns#" xmlns:rdf="http://www.w3.org/1999/02/22-rdf-syntax-ns#">
   <cc:Work>
    <dc:type rdf:resource="http://purl.org/dc/dcmitype/StillImage"/>
    <dc:date>2025-11-07T10:36:25.082827</dc:date>
    <dc:format>image/svg+xml</dc:format>
    <dc:creator>
     <cc:Agent>
      <dc:title>Matplotlib v3.10.5, https://matplotlib.org/</dc:title>
     </cc:Agent>
    </dc:creator>
   </cc:Work>
  </rdf:RDF>
 </metadata>
 <defs>
  <style type="text/css">*{stroke-linejoin: round; stroke-linecap: butt}</style>
 </defs>
 <g id="figure_1">
  <g id="patch_1">
   <path d="M 0 345.6 
L 460.8 345.6 
L 460.8 0 
L 0 0 
z
" style="fill: #ffffff"/>
  </g>
  <g id="axes_1">
   <g id="patch_2">
    <path d="M 47.134588 310.714258 
Q 163.196774 231.221252 278.336543 152.360026 
" clip-path="url(#p57656de234)" style="fill: none; stroke: #4c4c4c; stroke-linecap: round"/>
    <path d="M 277.007452 152.543102 
L 278.336543 152.360026 
L 277.685549 153.533144 
" clip-path="url(#p57656de234)" style="fill: none; stroke: #4c4c4c; stroke-linecap: round"/>
   </g>
   <g id="patch_3">
    <path d="M 47.482219 311.265968 
Q 51.188732 309.117875 53.92792 307.530391 
" clip-path="url(#p57656de234)" style="fill: none; stroke: #4c4c4c; stroke-linecap: round"/>
    <path d="M 52.588823 307.612979 
L 53.92792 307.530391 
L 53.190532 308.651221 
" clip-path="url(#p57656de234)" style="fill: none; stroke: #4c4c4c; stroke-linecap: round"/>
   </g>
   <g id="patch_4">
    <path d="M 41.126065 307.026417 
Q 51.187164 231.225183 61.101156 156.532263 
" clip-path="url(#p57656de234)" style="fill: none; stroke: #4c4c4c; stroke-linecap: round"/>
    <path d="M 60.348481 157.642885 
L 61.101156 156.532263 
L 61.538049 157.800776 
" clip-path="url(#p57656de234)" style="fill: none; stroke: #4c4c4c; stroke-linecap: round"/>
   </g>
   <g id="patch_5">
    <path d="M 44.906259 308.482258 
Q 84.79054 250.695374 124.039739 193.828637 
" clip-path="url(#p57656de234)" style="fill: none; stroke: #4c4c4c; stroke-linecap: round"/>
    <path d="M 122.864295 194.475422 
L 124.039739 193.828637 
L 123.8519 195.157063 
" clip-path="url(#p57656de234)" style="fill: none; stroke: #4c4c4c; stroke-linecap: round"/>
   </g>
   <g id="patch_6">
    <path d="M 47.866084 312.022019 
Q 196.796342 244.205562 344.70909 176.852435 
" clip-path="url(#p57656de234)" style="fill: none; stroke: #4c4c4c; stroke-linecap: round"/>
    <path d="M 343.368336 176.803681 
L 344.70909 176.852435 
L 343.865634 177.895786 
" clip-path="url(#p57656de234)" style="fill: none; stroke: #4c4c4c; stroke-linecap: round"/>
   </g>
   <g id="patch_7">
    <path d="M 48.220552 286.960314 
Q 219.200285 231.221893 389.11704 175.829996 
" clip-path="url(#p57656de234)" style="fill: none; stroke: #4c4c4c; stroke-linecap: round"/>
    <path d="M 387.790169 175.631471 
L 389.11704 175.829996 
L 388.162098 176.772378 
" clip-path="url(#p57656de234)" style="fill: none; stroke: #4c4c4c; stroke-linecap: round"/>
   </g>
   <g id="patch_8">
    <path d="M 47.636722 285.580444 
Q 174.397362 218.238854 300.170649 151.421796 
" clip-path="url(#p57656de234)" style="fill: none; stroke: #4c4c4c; stroke-linecap: round"/>
    <path d="M 298.829417 151.454913 
L 300.170649 151.421796 
L 299.392403 152.514651 
" clip-path="url(#p57656de234)" style="fill: none; stroke: #4c4c4c; stroke-linecap: round"/>
   </g>
   <g id="patch_9">
    <path d="M 47.482219 285.300528 
Q 51.188732 283.152436 53.92792 281.564952 
" clip-path="url(#p57656de234)" style="fill: none; stroke: #4c4c4c; stroke-linecap: round"/>
    <path d="M 52.588823 281.647539 
L 53.92792 281.564952 
L 53.190532 282.685781 
" clip-path="url(#p57656de234)" style="fill: none; stroke: #4c4c4c; stroke-linecap: round"/>
   </g>
   <g id="patch_10">
    <path d="M 47.241578 284.91443 
Q 129.592906 231.2223 211.007678 178.140794 
" clip-path="url(#p57656de234)" style="fill: none; stroke: #4c4c4c; stroke-linecap: round"/>
    <path d="M 209.674764 178.293576 
L 211.007678 178.140794 
L 210.330155 179.298793 
" clip-path="url(#p57656de234)" style="fill: none; stroke: #4c4c4c; stroke-linecap: round"/>
   </g>
   <g id="patch_11">
    <path d="M 48.100573 286.621562 
Q 196.79657 231.222647 344.444884 176.214063 
" clip-path="url(#p57656de234)" style="fill: none; stroke: #4c4c4c; stroke-linecap: round"/>
    <path d="M 343.110918 176.070763 
L 344.444884 176.214063 
L 343.529864 177.195256 
" clip-path="url(#p57656de234)" style="fill: none; stroke: #4c4c4c; stroke-linecap: round"/>
   </g>
   <g id="patch_12">
    <path d="M 48.379157 261.551141 
Q 219.198664 218.239661 388.934432 175.202964 
" clip-path="url(#p57656de234)" style="fill: none; stroke: #4c4c4c; stroke-linecap: round"/>
    <path d="M 387.623775 174.916296 
L 388.934432 175.202964 
L 387.918704 176.079489 
" clip-path="url(#p57656de234)" style="fill: none; stroke: #4c4c4c; stroke-linecap: round"/>
   </g>
   <g id="patch_13">
    <path d="M 47.482219 259.335089 
Q 51.188732 257.186996 53.92792 255.599512 
" clip-path="url(#p57656de234)" style="fill: none; stroke: #4c4c4c; stroke-linecap: round"/>
    <path d="M 52.588823 255.6821 
L 53.92792 255.599512 
L 53.190532 256.720342 
" clip-path="url(#p57656de234)" style="fill: none; stroke: #4c4c4c; stroke-linecap: round"/>
   </g>
   <g id="patch_14">
    <path d="M 44.303288 256.174196 
Q 51.187835 244.204471 57.514956 233.203909 
" clip-path="url(#p57656de234)" style="fill: none; stroke: #4c4c4c; stroke-linecap: round"/>
    <path d="M 56.396556 233.944977 
L 57.514956 233.203909 
L 57.43677 234.54327 
" clip-path="url(#p57656de234)" style="fill: none; stroke: #4c4c4c; stroke-linecap: round"/>
   </g>
   <g id="patch_15">
    <path d="M 47.883858 260.119369 
Q 140.794733 218.239088 232.686337 176.818252 
" clip-path="url(#p57656de234)" style="fill: none; stroke: #4c4c4c; stroke-linecap: round"/>
    <path d="M 231.345778 176.764381 
L 232.686337 176.818252 
L 231.838905 177.858376 
" clip-path="url(#p57656de234)" style="fill: none; stroke: #4c4c4c; stroke-linecap: round"/>
   </g>
   <g id="patch_16">
    <path d="M 48.112195 260.682371 
Q 163.194764 218.239729 277.228364 176.183949 
" clip-path="url(#p57656de234)" style="fill: none; stroke: #4c4c4c; stroke-linecap: round"/>
    <path d="M 275.894879 176.036236 
L 277.228364 176.183949 
L 276.310103 177.162109 
" clip-path="url(#p57656de234)" style="fill: none; stroke: #4c4c4c; stroke-linecap: round"/>
   </g>
   <g id="patch_17">
    <path d="M 44.303288 230.208756 
Q 51.187835 218.239032 57.514956 207.23847 
" clip-path="url(#p57656de234)" style="fill: none; stroke: #4c4c4c; stroke-linecap: round"/>
    <path d="M 56.396556 207.979537 
L 57.514956 207.23847 
L 57.43677 208.57783 
" clip-path="url(#p57656de234)" style="fill: none; stroke: #4c4c4c; stroke-linecap: round"/>
   </g>
   <g id="patch_18">
    <path d="M 42.058893 229.307399 
Q 51.187226 192.275413 60.047974 156.328968 
" clip-path="url(#p57656de234)" style="fill: none; stroke: #4c4c4c; stroke-linecap: round"/>
    <path d="M 59.17821 157.350492 
L 60.047974 156.328968 
L 60.343335 157.637694 
" clip-path="url(#p57656de234)" style="fill: none; stroke: #4c4c4c; stroke-linecap: round"/>
   </g>
   <g id="patch_19">
    <path d="M 48.303272 235.303705 
Q 151.994237 205.256892 254.611344 175.521253 
" clip-path="url(#p57656de234)" style="fill: none; stroke: #4c4c4c; stroke-linecap: round"/>
    <path d="M 253.291765 175.278948 
L 254.611344 175.521253 
L 253.625753 176.431533 
" clip-path="url(#p57656de234)" style="fill: none; stroke: #4c4c4c; stroke-linecap: round"/>
   </g>
   <g id="patch_20">
    <path d="M 47.100064 232.766631 
Q 95.992459 198.764192 143.96697 165.400101 
" clip-path="url(#p57656de234)" style="fill: none; stroke: #4c4c4c; stroke-linecap: round"/>
    <path d="M 142.639219 165.592658 
L 143.96697 165.400101 
L 143.324365 166.577836 
" clip-path="url(#p57656de234)" style="fill: none; stroke: #4c4c4c; stroke-linecap: round"/>
   </g>
   <g id="patch_21">
    <path d="M 48.597922 210.812431 
Q 219.201246 192.27386 388.69308 173.856068 
" clip-path="url(#p57656de234)" style="fill: none; stroke: #4c4c4c; stroke-linecap: round"/>
    <path d="M 387.435286 173.389214 
L 388.69308 173.856068 
L 387.56492 174.582191 
" clip-path="url(#p57656de234)" style="fill: none; stroke: #4c4c4c; stroke-linecap: round"/>
   </g>
   <g id="patch_22">
    <path d="M 48.407869 209.714657 
Q 174.396891 179.291171 299.299116 149.130123 
" clip-path="url(#p57656de234)" style="fill: none; stroke: #4c4c4c; stroke-linecap: round"/>
    <path d="M 297.991805 148.828563 
L 299.299116 149.130123 
L 298.273482 149.995036 
" clip-path="url(#p57656de234)" style="fill: none; stroke: #4c4c4c; stroke-linecap: round"/>
   </g>
   <g id="patch_23">
    <path d="M 48.514176 210.227539 
Q 185.596644 185.782763 321.578441 161.534261 
" clip-path="url(#p57656de234)" style="fill: none; stroke: #4c4c4c; stroke-linecap: round"/>
    <path d="M 320.291745 161.154242 
L 321.578441 161.534261 
L 320.502408 162.335606 
" clip-path="url(#p57656de234)" style="fill: none; stroke: #4c4c4c; stroke-linecap: round"/>
   </g>
   <g id="patch_24">
    <path d="M 47.482219 207.40421 
Q 62.38912 198.764983 76.328695 190.686366 
" clip-path="url(#p57656de234)" style="fill: none; stroke: #4c4c4c; stroke-linecap: round"/>
    <path d="M 74.989598 190.768953 
L 76.328695 190.686366 
L 75.591307 191.807196 
" clip-path="url(#p57656de234)" style="fill: none; stroke: #4c4c4c; stroke-linecap: round"/>
   </g>
   <g id="patch_25">
    <path d="M 42.81295 203.558681 
Q 51.187806 179.290632 59.197938 156.079453 
" clip-path="url(#p57656de234)" style="fill: none; stroke: #4c4c4c; stroke-linecap: round"/>
    <path d="M 58.239299 157.018075 
L 59.197938 156.079453 
L 59.373652 157.409538 
" clip-path="url(#p57656de234)" style="fill: none; stroke: #4c4c4c; stroke-linecap: round"/>
   </g>
   <g id="patch_26">
    <path d="M 48.641675 185.469226 
Q 219.199644 179.291345 388.640313 173.153934 
" clip-path="url(#p57656de234)" style="fill: none; stroke: #4c4c4c; stroke-linecap: round"/>
    <path d="M 387.419381 172.597765 
L 388.640313 173.153934 
L 387.462818 173.796978 
" clip-path="url(#p57656de234)" style="fill: none; stroke: #4c4c4c; stroke-linecap: round"/>
   </g>
   <g id="patch_27">
    <path d="M 48.555536 184.541223 
Q 174.39369 166.308991 299.125363 148.237072 
" clip-path="url(#p57656de234)" style="fill: none; stroke: #4c4c4c; stroke-linecap: round"/>
    <path d="M 297.851729 147.81534 
L 299.125363 148.237072 
L 298.023796 149.002939 
" clip-path="url(#p57656de234)" style="fill: none; stroke: #4c4c4c; stroke-linecap: round"/>
   </g>
   <g id="patch_28">
    <path d="M 47.482219 181.43877 
Q 51.188732 179.290678 53.92792 177.703194 
" clip-path="url(#p57656de234)" style="fill: none; stroke: #4c4c4c; stroke-linecap: round"/>
    <path d="M 52.588823 177.785781 
L 53.92792 177.703194 
L 53.190532 178.824023 
" clip-path="url(#p57656de234)" style="fill: none; stroke: #4c4c4c; stroke-linecap: round"/>
   </g>
   <g id="patch_29">
    <path d="M 48.638598 186.238549 
Q 163.198469 192.274245 276.641855 198.251117 
" clip-path="url(#p57656de234)" style="fill: none; stroke: #4c4c4c; stroke-linecap: round"/>
    <path d="M 275.475085 197.588813 
L 276.641855 198.251117 
L 275.411949 198.787151 
" clip-path="url(#p57656de234)" style="fill: none; stroke: #4c4c4c; stroke-linecap: round"/>
   </g>
   <g id="patch_30">
    <path d="M 41.617261 151.312822 
Q 51.187307 101.396335 60.546835 52.577884 
" clip-path="url(#p57656de234)" style="fill: none; stroke: #4c4c4c; stroke-linecap: round"/>
    <path d="M 59.731617 53.643445 
L 60.546835 52.577884 
L 60.910153 53.869395 
" clip-path="url(#p57656de234)" style="fill: none; stroke: #4c4c4c; stroke-linecap: round"/>
   </g>
   <g id="patch_31">
    <path d="M 48.302589 162.226976 
Q 84.788756 172.799672 120.201065 183.061193 
" clip-path="url(#p57656de234)" style="fill: none; stroke: #4c4c4c; stroke-linecap: round"/>
    <path d="M 119.215474 182.150913 
L 120.201065 183.061193 
L 118.881486 183.303498 
" clip-path="url(#p57656de234)" style="fill: none; stroke: #4c4c4c; stroke-linecap: round"/>
   </g>
   <g id="patch_32">
    <path d="M 48.540838 161.169317 
Q 163.194995 179.291306 276.744828 197.238749 
" clip-path="url(#p57656de234)" style="fill: none; stroke: #4c4c4c; stroke-linecap: round"/>
    <path d="M 275.653214 196.458762 
L 276.744828 197.238749 
L 275.46587 197.644048 
" clip-path="url(#p57656de234)" style="fill: none; stroke: #4c4c4c; stroke-linecap: round"/>
   </g>
   <g id="patch_33">
    <path d="M 48.597922 134.787569 
Q 219.201246 153.32614 388.69308 171.743932 
" clip-path="url(#p57656de234)" style="fill: none; stroke: #4c4c4c; stroke-linecap: round"/>
    <path d="M 387.56492 171.017809 
L 388.69308 171.743932 
L 387.435286 172.210786 
" clip-path="url(#p57656de234)" style="fill: none; stroke: #4c4c4c; stroke-linecap: round"/>
   </g>
   <g id="patch_34">
    <path d="M 48.637573 134.269635 
Q 174.396361 140.343213 299.038417 146.362857 
" clip-path="url(#p57656de234)" style="fill: none; stroke: #4c4c4c; stroke-linecap: round"/>
    <path d="M 297.868757 145.705669 
L 299.038417 146.362857 
L 297.81087 146.904272 
" clip-path="url(#p57656de234)" style="fill: none; stroke: #4c4c4c; stroke-linecap: round"/>
   </g>
   <g id="patch_35">
    <path d="M 48.522038 135.335812 
Q 151.996047 153.32618 254.368546 171.125035 
" clip-path="url(#p57656de234)" style="fill: none; stroke: #4c4c4c; stroke-linecap: round"/>
    <path d="M 253.289059 170.32835 
L 254.368546 171.125035 
L 253.083506 171.510614 
" clip-path="url(#p57656de234)" style="fill: none; stroke: #4c4c4c; stroke-linecap: round"/>
   </g>
   <g id="patch_36">
    <path d="M 48.360356 136.057691 
Q 163.195948 166.308802 276.950389 196.275106 
" clip-path="url(#p57656de234)" style="fill: none; stroke: #4c4c4c; stroke-linecap: round"/>
    <path d="M 275.942821 195.389213 
L 276.950389 196.275106 
L 275.637134 196.549625 
" clip-path="url(#p57656de234)" style="fill: none; stroke: #4c4c4c; stroke-linecap: round"/>
   </g>
   <g id="patch_37">
    <path d="M 48.510416 109.4301 
Q 219.199129 140.343184 388.787706 171.057024 
" clip-path="url(#p57656de234)" style="fill: none; stroke: #4c4c4c; stroke-linecap: round"/>
    <path d="M 387.71384 170.252778 
L 388.787706 171.057024 
L 387.499989 171.433569 
" clip-path="url(#p57656de234)" style="fill: none; stroke: #4c4c4c; stroke-linecap: round"/>
   </g>
   <g id="patch_38">
    <path d="M 48.555536 109.127898 
Q 174.39369 127.36013 299.125363 145.432049 
" clip-path="url(#p57656de234)" style="fill: none; stroke: #4c4c4c; stroke-linecap: round"/>
    <path d="M 298.023796 144.666182 
L 299.125363 145.432049 
L 297.851729 145.853781 
" clip-path="url(#p57656de234)" style="fill: none; stroke: #4c4c4c; stroke-linecap: round"/>
   </g>
   <g id="patch_39">
    <path d="M 47.482219 112.230351 
Q 51.188732 114.378443 53.92792 115.965927 
" clip-path="url(#p57656de234)" style="fill: none; stroke: #4c4c4c; stroke-linecap: round"/>
    <path d="M 53.190532 114.845098 
L 53.92792 115.965927 
L 52.588823 115.88334 
" clip-path="url(#p57656de234)" style="fill: none; stroke: #4c4c4c; stroke-linecap: round"/>
   </g>
   <g id="patch_40">
    <path d="M 47.482219 103.542452 
Q 51.188732 101.394359 53.92792 99.806875 
" clip-path="url(#p57656de234)" style="fill: none; stroke: #4c4c4c; stroke-linecap: round"/>
    <path d="M 52.588823 99.889463 
L 53.92792 99.806875 
L 53.190532 100.927705 
" clip-path="url(#p57656de234)" style="fill: none; stroke: #4c4c4c; stroke-linecap: round"/>
   </g>
   <g id="patch_41">
    <path d="M 47.883858 85.480631 
Q 140.794733 127.360912 232.686337 168.781748 
" clip-path="url(#p57656de234)" style="fill: none; stroke: #4c4c4c; stroke-linecap: round"/>
    <path d="M 231.838905 167.741624 
L 232.686337 168.781748 
L 231.345778 168.835619 
" clip-path="url(#p57656de234)" style="fill: none; stroke: #4c4c4c; stroke-linecap: round"/>
   </g>
   <g id="patch_42">
    <path d="M 48.407869 83.954464 
Q 174.396891 114.377949 299.299116 144.538998 
" clip-path="url(#p57656de234)" style="fill: none; stroke: #4c4c4c; stroke-linecap: round"/>
    <path d="M 298.273482 143.674085 
L 299.299116 144.538998 
L 297.991805 144.840558 
" clip-path="url(#p57656de234)" style="fill: none; stroke: #4c4c4c; stroke-linecap: round"/>
   </g>
   <g id="patch_43">
    <path d="M 47.811393 85.631187 
Q 163.195781 140.343413 277.569951 194.57662 
" clip-path="url(#p57656de234)" style="fill: none; stroke: #4c4c4c; stroke-linecap: round"/>
    <path d="M 276.74274 193.520343 
L 277.569951 194.57662 
L 276.228603 194.604623 
" clip-path="url(#p57656de234)" style="fill: none; stroke: #4c4c4c; stroke-linecap: round"/>
   </g>
   <g id="patch_44">
    <path d="M 44.303288 89.425804 
Q 62.388077 120.868676 79.915439 151.342386 
" clip-path="url(#p57656de234)" style="fill: none; stroke: #4c4c4c; stroke-linecap: round"/>
    <path d="M 79.837253 150.003026 
L 79.915439 151.342386 
L 78.797039 150.601319 
" clip-path="url(#p57656de234)" style="fill: none; stroke: #4c4c4c; stroke-linecap: round"/>
   </g>
   <g id="patch_45">
    <path d="M 47.48051 60.298481 
Q 163.196262 127.361019 277.944689 193.862948 
" clip-path="url(#p57656de234)" style="fill: none; stroke: #4c4c4c; stroke-linecap: round"/>
    <path d="M 277.207301 192.742119 
L 277.944689 193.862948 
L 276.605592 193.780361 
" clip-path="url(#p57656de234)" style="fill: none; stroke: #4c4c4c; stroke-linecap: round"/>
   </g>
   <g id="patch_46">
    <path d="M 48.194573 58.730317 
Q 174.39814 101.395727 299.54256 143.703074 
" clip-path="url(#p57656de234)" style="fill: none; stroke: #4c4c4c; stroke-linecap: round"/>
    <path d="M 298.597922 142.750362 
L 299.54256 143.703074 
L 298.213608 143.887157 
" clip-path="url(#p57656de234)" style="fill: none; stroke: #4c4c4c; stroke-linecap: round"/>
   </g>
   <g id="patch_47">
    <path d="M 48.220552 58.639686 
Q 219.200285 114.378107 389.11704 169.770004 
" clip-path="url(#p57656de234)" style="fill: none; stroke: #4c4c4c; stroke-linecap: round"/>
    <path d="M 388.162098 168.827622 
L 389.11704 169.770004 
L 387.790169 169.968529 
" clip-path="url(#p57656de234)" style="fill: none; stroke: #4c4c4c; stroke-linecap: round"/>
   </g>
   <g id="patch_48">
    <path d="M 47.482219 60.299472 
Q 51.188732 62.447564 53.92792 64.035048 
" clip-path="url(#p57656de234)" style="fill: none; stroke: #4c4c4c; stroke-linecap: round"/>
    <path d="M 53.190532 62.914219 
L 53.92792 64.035048 
L 52.588823 63.952461 
" clip-path="url(#p57656de234)" style="fill: none; stroke: #4c4c4c; stroke-linecap: round"/>
   </g>
   <g id="patch_49">
    <path d="M 47.482219 51.611573 
Q 51.188732 49.46348 53.92792 47.875996 
" clip-path="url(#p57656de234)" style="fill: none; stroke: #4c4c4c; stroke-linecap: round"/>
    <path d="M 52.588823 47.958584 
L 53.92792 47.875996 
L 53.190532 48.996826 
" clip-path="url(#p57656de234)" style="fill: none; stroke: #4c4c4c; stroke-linecap: round"/>
   </g>
   <g id="patch_50">
    <path d="M 48.100573 58.978438 
Q 196.79657 114.377353 344.444884 169.385937 
" clip-path="url(#p57656de234)" style="fill: none; stroke: #4c4c4c; stroke-linecap: round"/>
    <path d="M 343.529864 168.404744 
L 344.444884 169.385937 
L 343.110918 169.529237 
" clip-path="url(#p57656de234)" style="fill: none; stroke: #4c4c4c; stroke-linecap: round"/>
   </g>
   <g id="patch_51">
    <path d="M 48.034601 33.196638 
Q 219.201358 101.395892 389.329487 169.181319 
" clip-path="url(#p57656de234)" style="fill: none; stroke: #4c4c4c; stroke-linecap: round"/>
    <path d="M 388.436799 168.179766 
L 389.329487 169.181319 
L 387.992632 169.294538 
" clip-path="url(#p57656de234)" style="fill: none; stroke: #4c4c4c; stroke-linecap: round"/>
   </g>
   <g id="patch_52">
    <path d="M 47.932055 33.44357 
Q 174.39809 88.413182 299.838762 142.93711 
" clip-path="url(#p57656de234)" style="fill: none; stroke: #4c4c4c; stroke-linecap: round"/>
    <path d="M 298.977407 141.908486 
L 299.838762 142.93711 
L 298.49905 143.00902 
" clip-path="url(#p57656de234)" style="fill: none; stroke: #4c4c4c; stroke-linecap: round"/>
   </g>
   <g id="patch_53">
    <path d="M 47.134588 34.885742 
Q 163.196774 114.378748 278.336543 193.239974 
" clip-path="url(#p57656de234)" style="fill: none; stroke: #4c4c4c; stroke-linecap: round"/>
    <path d="M 277.685549 192.066856 
L 278.336543 193.239974 
L 277.007452 193.056898 
" clip-path="url(#p57656de234)" style="fill: none; stroke: #4c4c4c; stroke-linecap: round"/>
   </g>
   <g id="patch_54">
    <path d="M 47.053234 34.99549 
Q 140.792936 101.394445 233.620294 167.147157 
" clip-path="url(#p57656de234)" style="fill: none; stroke: #4c4c4c; stroke-linecap: round"/>
    <path d="M 232.987875 165.963921 
L 233.620294 167.147157 
L 232.294254 166.943151 
" clip-path="url(#p57656de234)" style="fill: none; stroke: #4c4c4c; stroke-linecap: round"/>
   </g>
   <g id="patch_55">
    <path d="M 71.025285 147.501961 
Q 230.401098 159.817365 388.662201 172.046632 
" clip-path="url(#p57656de234)" style="fill: none; stroke: #4c4c4c; stroke-linecap: round"/>
    <path d="M 387.511993 171.355964 
L 388.662201 172.046632 
L 387.419541 172.552397 
" clip-path="url(#p57656de234)" style="fill: none; stroke: #4c4c4c; stroke-linecap: round"/>
   </g>
   <g id="patch_56">
    <path d="M 64.460449 155.240761 
Q 73.588782 192.272746 82.44953 228.219191 
" clip-path="url(#p57656de234)" style="fill: none; stroke: #4c4c4c; stroke-linecap: round"/>
    <path d="M 82.744891 226.910466 
L 82.44953 228.219191 
L 81.579766 227.197667 
" clip-path="url(#p57656de234)" style="fill: none; stroke: #4c4c4c; stroke-linecap: round"/>
   </g>
   <g id="patch_57">
    <path d="M 65.214505 268.47228 
Q 73.589362 244.20423 81.599494 220.993052 
" clip-path="url(#p57656de234)" style="fill: none; stroke: #4c4c4c; stroke-linecap: round"/>
    <path d="M 80.640854 221.931673 
L 81.599494 220.993052 
L 81.775207 222.323136 
" clip-path="url(#p57656de234)" style="fill: none; stroke: #4c4c4c; stroke-linecap: round"/>
   </g>
   <g id="patch_58">
    <path d="M 70.047507 272.626449 
Q 185.595696 211.748787 300.154739 151.392267 
" clip-path="url(#p57656de234)" style="fill: none; stroke: #4c4c4c; stroke-linecap: round"/>
    <path d="M 298.813401 151.420783 
L 300.154739 151.392267 
L 299.372749 152.482447 
" clip-path="url(#p57656de234)" style="fill: none; stroke: #4c4c4c; stroke-linecap: round"/>
   </g>
   <g id="patch_59">
    <path d="M 70.607409 273.939856 
Q 219.196244 224.731865 366.723731 175.87536 
" clip-path="url(#p57656de234)" style="fill: none; stroke: #4c4c4c; stroke-linecap: round"/>
    <path d="M 365.395947 175.683034 
L 366.723731 175.87536 
L 365.773201 176.822192 
" clip-path="url(#p57656de234)" style="fill: none; stroke: #4c4c4c; stroke-linecap: round"/>
   </g>
   <g id="patch_60">
    <path d="M 70.649111 274.050396 
Q 185.597263 237.713481 299.479377 201.713556 
" clip-path="url(#p57656de234)" style="fill: none; stroke: #4c4c4c; stroke-linecap: round"/>
    <path d="M 298.154336 201.503157 
L 299.479377 201.713556 
L 298.516033 202.647349 
" clip-path="url(#p57656de234)" style="fill: none; stroke: #4c4c4c; stroke-linecap: round"/>
   </g>
   <g id="patch_61">
    <path d="M 66.704843 269.156916 
Q 73.589391 257.187191 79.916511 246.186629 
" clip-path="url(#p57656de234)" style="fill: none; stroke: #4c4c4c; stroke-linecap: round"/>
    <path d="M 78.798111 246.927696 
L 79.916511 246.186629 
L 79.838325 247.525989 
" clip-path="url(#p57656de234)" style="fill: none; stroke: #4c4c4c; stroke-linecap: round"/>
   </g>
   <g id="patch_62">
    <path d="M 64.018817 294.12274 
Q 73.588862 244.206252 82.948391 195.387801 
" clip-path="url(#p57656de234)" style="fill: none; stroke: #4c4c4c; stroke-linecap: round"/>
    <path d="M 82.133173 196.453362 
L 82.948391 195.387801 
L 83.311709 196.679312 
" clip-path="url(#p57656de234)" style="fill: none; stroke: #4c4c4c; stroke-linecap: round"/>
   </g>
   <g id="patch_63">
    <path d="M 63.73032 294.072026 
Q 73.588818 231.224105 83.274056 169.480712 
" clip-path="url(#p57656de234)" style="fill: none; stroke: #4c4c4c; stroke-linecap: round"/>
    <path d="M 82.495343 170.573235 
L 83.274056 169.480712 
L 83.680846 170.759196 
" clip-path="url(#p57656de234)" style="fill: none; stroke: #4c4c4c; stroke-linecap: round"/>
   </g>
   <g id="patch_64">
    <path d="M 70.777636 123.030002 
Q 163.195921 146.834712 254.531512 170.360546 
" clip-path="url(#p57656de234)" style="fill: none; stroke: #4c4c4c; stroke-linecap: round"/>
    <path d="M 253.519102 169.48019 
L 254.531512 170.360546 
L 253.219781 170.64226 
" clip-path="url(#p57656de234)" style="fill: none; stroke: #4c4c4c; stroke-linecap: round"/>
   </g>
   <g id="patch_65">
    <path d="M 70.370869 247.331778 
Q 185.598846 198.764615 299.796563 150.631693 
" clip-path="url(#p57656de234)" style="fill: none; stroke: #4c4c4c; stroke-linecap: round"/>
    <path d="M 298.457734 150.544874 
L 299.796563 150.631693 
L 298.923811 151.650665 
" clip-path="url(#p57656de234)" style="fill: none; stroke: #4c4c4c; stroke-linecap: round"/>
   </g>
   <g id="patch_66">
    <path d="M 66.704843 102.408524 
Q 73.589391 114.378248 79.916511 125.378811 
" clip-path="url(#p57656de234)" style="fill: none; stroke: #4c4c4c; stroke-linecap: round"/>
    <path d="M 79.838325 124.03945 
L 79.916511 125.378811 
L 78.798111 124.637743 
" clip-path="url(#p57656de234)" style="fill: none; stroke: #4c4c4c; stroke-linecap: round"/>
   </g>
   <g id="patch_67">
    <path d="M 70.466408 46.093877 
Q 230.39952 107.886216 389.289733 169.275616 
" clip-path="url(#p57656de234)" style="fill: none; stroke: #4c4c4c; stroke-linecap: round"/>
    <path d="M 388.386615 168.283458 
L 389.289733 169.275616 
L 387.954135 169.402816 
" clip-path="url(#p57656de234)" style="fill: none; stroke: #4c4c4c; stroke-linecap: round"/>
   </g>
   <g id="patch_68">
    <path d="M 71.047674 198.76544 
Q 185.596666 198.76544 299.027624 198.76544 
" clip-path="url(#p57656de234)" style="fill: none; stroke: #4c4c4c; stroke-linecap: round"/>
    <path d="M 297.827624 198.16544 
L 299.027624 198.76544 
L 297.827624 199.36544 
" clip-path="url(#p57656de234)" style="fill: none; stroke: #4c4c4c; stroke-linecap: round"/>
   </g>
   <g id="patch_69">
    <path d="M 70.596129 71.713037 
Q 196.799695 114.378447 321.944116 156.685794 
" clip-path="url(#p57656de234)" style="fill: none; stroke: #4c4c4c; stroke-linecap: round"/>
    <path d="M 320.999478 155.733082 
L 321.944116 156.685794 
L 320.615164 156.869877 
" clip-path="url(#p57656de234)" style="fill: none; stroke: #4c4c4c; stroke-linecap: round"/>
   </g>
   <g id="patch_70">
    <path d="M 69.884459 73.282588 
Q 174.399289 133.853683 277.946794 193.864169 
" clip-path="url(#p57656de234)" style="fill: none; stroke: #4c4c4c; stroke-linecap: round"/>
    <path d="M 277.209406 192.743339 
L 277.946794 193.864169 
L 276.607698 193.781581 
" clip-path="url(#p57656de234)" style="fill: none; stroke: #4c4c4c; stroke-linecap: round"/>
   </g>
   <g id="patch_71">
    <path d="M 65.214505 164.610522 
Q 73.589362 140.342472 81.599494 117.131294 
" clip-path="url(#p57656de234)" style="fill: none; stroke: #4c4c4c; stroke-linecap: round"/>
    <path d="M 80.640854 118.069915 
L 81.599494 117.131294 
L 81.775207 118.461378 
" clip-path="url(#p57656de234)" style="fill: none; stroke: #4c4c4c; stroke-linecap: round"/>
   </g>
   <g id="patch_72">
    <path d="M 70.777636 222.569998 
Q 163.195921 198.765288 254.531512 175.239454 
" clip-path="url(#p57656de234)" style="fill: none; stroke: #4c4c4c; stroke-linecap: round"/>
    <path d="M 253.219781 174.95774 
L 254.531512 175.239454 
L 253.519102 176.11981 
" clip-path="url(#p57656de234)" style="fill: none; stroke: #4c4c4c; stroke-linecap: round"/>
   </g>
   <g id="patch_73">
    <path d="M 92.285331 190.126669 
Q 95.991843 192.274762 98.731031 193.862246 
" clip-path="url(#p57656de234)" style="fill: none; stroke: #4c4c4c; stroke-linecap: round"/>
    <path d="M 97.993643 192.741416 
L 98.731031 193.862246 
L 97.391935 193.779658 
" clip-path="url(#p57656de234)" style="fill: none; stroke: #4c4c4c; stroke-linecap: round"/>
   </g>
   <g id="patch_74">
    <path d="M 93.448204 185.78272 
Q 140.794104 185.78272 187.02197 185.78272 
" clip-path="url(#p57656de234)" style="fill: none; stroke: #4c4c4c; stroke-linecap: round"/>
    <path d="M 185.82197 185.18272 
L 187.02197 185.78272 
L 185.82197 186.38272 
" clip-path="url(#p57656de234)" style="fill: none; stroke: #4c4c4c; stroke-linecap: round"/>
   </g>
   <g id="patch_75">
    <path d="M 92.285331 164.16123 
Q 107.192231 172.800456 121.131806 180.879074 
" clip-path="url(#p57656de234)" style="fill: none; stroke: #4c4c4c; stroke-linecap: round"/>
    <path d="M 120.394418 179.758244 
L 121.131806 180.879074 
L 119.79271 180.796486 
" clip-path="url(#p57656de234)" style="fill: none; stroke: #4c4c4c; stroke-linecap: round"/>
   </g>
   <g id="patch_76">
    <path d="M 87.616061 229.524121 
Q 95.990917 205.256071 104.00105 182.044893 
" clip-path="url(#p57656de234)" style="fill: none; stroke: #4c4c4c; stroke-linecap: round"/>
    <path d="M 103.04241 182.983514 
L 104.00105 182.044893 
L 104.176763 183.374977 
" clip-path="url(#p57656de234)" style="fill: none; stroke: #4c4c4c; stroke-linecap: round"/>
   </g>
   <g id="patch_77">
    <path d="M 93.197992 209.659783 
Q 163.198836 192.27321 232.114615 175.156141 
" clip-path="url(#p57656de234)" style="fill: none; stroke: #4c4c4c; stroke-linecap: round"/>
    <path d="M 230.805369 174.863097 
L 232.114615 175.156141 
L 231.094632 176.027711 
" clip-path="url(#p57656de234)" style="fill: none; stroke: #4c4c4c; stroke-linecap: round"/>
   </g>
   <g id="patch_78">
    <path d="M 87.616061 203.558681 
Q 95.990917 179.290632 104.00105 156.079453 
" clip-path="url(#p57656de234)" style="fill: none; stroke: #4c4c4c; stroke-linecap: round"/>
    <path d="M 103.04241 157.018075 
L 104.00105 156.079453 
L 104.176763 157.409538 
" clip-path="url(#p57656de234)" style="fill: none; stroke: #4c4c4c; stroke-linecap: round"/>
   </g>
   <g id="patch_79">
    <path d="M 93.197992 135.940217 
Q 163.198836 153.32679 232.114615 170.443859 
" clip-path="url(#p57656de234)" style="fill: none; stroke: #4c4c4c; stroke-linecap: round"/>
    <path d="M 231.094632 169.572289 
L 232.114615 170.443859 
L 230.805369 170.736903 
" clip-path="url(#p57656de234)" style="fill: none; stroke: #4c4c4c; stroke-linecap: round"/>
   </g>
   <g id="patch_80">
    <path d="M 92.648344 111.529867 
Q 140.796111 133.852922 187.929559 155.705703 
" clip-path="url(#p57656de234)" style="fill: none; stroke: #4c4c4c; stroke-linecap: round"/>
    <path d="M 187.093254 154.656611 
L 187.929559 155.705703 
L 186.588502 155.745291 
" clip-path="url(#p57656de234)" style="fill: none; stroke: #4c4c4c; stroke-linecap: round"/>
   </g>
   <g id="patch_81">
    <path d="M 115.507256 149.244256 
Q 196.797634 172.79999 277.014154 196.04455 
" clip-path="url(#p57656de234)" style="fill: none; stroke: #4c4c4c; stroke-linecap: round"/>
    <path d="M 276.028563 195.13427 
L 277.014154 196.04455 
L 275.694575 196.286855 
" clip-path="url(#p57656de234)" style="fill: none; stroke: #4c4c4c; stroke-linecap: round"/>
   </g>
   <g id="patch_82">
    <path d="M 111.507955 154.339403 
Q 118.392502 166.309127 124.719623 177.30969 
" clip-path="url(#p57656de234)" style="fill: none; stroke: #4c4c4c; stroke-linecap: round"/>
    <path d="M 124.641437 175.970329 
L 124.719623 177.30969 
L 123.601223 176.568622 
" clip-path="url(#p57656de234)" style="fill: none; stroke: #4c4c4c; stroke-linecap: round"/>
   </g>
   <g id="patch_83">
    <path d="M 115.733541 197.351001 
Q 185.594259 185.783155 254.351963 174.397951 
" clip-path="url(#p57656de234)" style="fill: none; stroke: #4c4c4c; stroke-linecap: round"/>
    <path d="M 253.070067 174.002043 
L 254.351963 174.397951 
L 253.266099 175.185923 
" clip-path="url(#p57656de234)" style="fill: none; stroke: #4c4c4c; stroke-linecap: round"/>
   </g>
   <g id="patch_84">
    <path d="M 114.686886 168.45605 
Q 118.393399 166.307958 121.132587 164.720474 
" clip-path="url(#p57656de234)" style="fill: none; stroke: #4c4c4c; stroke-linecap: round"/>
    <path d="M 119.79349 164.803061 
L 121.132587 164.720474 
L 120.395199 165.841304 
" clip-path="url(#p57656de234)" style="fill: none; stroke: #4c4c4c; stroke-linecap: round"/>
   </g>
   <g id="patch_85">
    <path d="M 138.056478 183.943356 
Q 219.198453 166.308807 299.247897 148.911698 
" clip-path="url(#p57656de234)" style="fill: none; stroke: #4c4c4c; stroke-linecap: round"/>
    <path d="M 297.947847 148.580231 
L 299.247897 148.911698 
L 298.202693 149.752858 
" clip-path="url(#p57656de234)" style="fill: none; stroke: #4c4c4c; stroke-linecap: round"/>
   </g>
   <g id="patch_86">
    <path d="M 138.253367 185.78272 
Q 140.794614 185.78272 142.217828 185.78272 
" clip-path="url(#p57656de234)" style="fill: none; stroke: #4c4c4c; stroke-linecap: round"/>
    <path d="M 141.017828 185.18272 
L 142.217828 185.78272 
L 141.017828 186.38272 
" clip-path="url(#p57656de234)" style="fill: none; stroke: #4c4c4c; stroke-linecap: round"/>
   </g>
   <g id="patch_87">
    <path d="M 138.253367 159.81728 
Q 140.794614 159.81728 142.217828 159.81728 
" clip-path="url(#p57656de234)" style="fill: none; stroke: #4c4c4c; stroke-linecap: round"/>
    <path d="M 141.017828 159.21728 
L 142.217828 159.81728 
L 141.017828 160.41728 
" clip-path="url(#p57656de234)" style="fill: none; stroke: #4c4c4c; stroke-linecap: round"/>
   </g>
   <g id="patch_88">
    <path d="M 160.497685 161.45993 
Q 185.597393 166.308738 209.599363 170.945482 
" clip-path="url(#p57656de234)" style="fill: none; stroke: #4c4c4c; stroke-linecap: round"/>
    <path d="M 208.534952 170.128764 
L 209.599363 170.945482 
L 208.307342 171.30698 
" clip-path="url(#p57656de234)" style="fill: none; stroke: #4c4c4c; stroke-linecap: round"/>
   </g>
   <g id="patch_89">
    <path d="M 159.489998 181.43877 
Q 163.19651 179.290678 165.935698 177.703194 
" clip-path="url(#p57656de234)" style="fill: none; stroke: #4c4c4c; stroke-linecap: round"/>
    <path d="M 164.596602 177.785781 
L 165.935698 177.703194 
L 165.19831 178.824023 
" clip-path="url(#p57656de234)" style="fill: none; stroke: #4c4c4c; stroke-linecap: round"/>
   </g>
   <g id="patch_90">
    <path d="M 160.402659 183.694343 
Q 230.403503 166.30777 299.319282 149.190702 
" clip-path="url(#p57656de234)" style="fill: none; stroke: #4c4c4c; stroke-linecap: round"/>
    <path d="M 298.010036 148.897657 
L 299.319282 149.190702 
L 298.299299 150.062272 
" clip-path="url(#p57656de234)" style="fill: none; stroke: #4c4c4c; stroke-linecap: round"/>
   </g>
   <g id="patch_91">
    <path d="M 181.891553 168.45605 
Q 185.598066 166.307958 188.337254 164.720474 
" clip-path="url(#p57656de234)" style="fill: none; stroke: #4c4c4c; stroke-linecap: round"/>
    <path d="M 186.998157 164.803061 
L 188.337254 164.720474 
L 187.599866 165.841304 
" clip-path="url(#p57656de234)" style="fill: none; stroke: #4c4c4c; stroke-linecap: round"/>
   </g>
   <g id="patch_92">
    <path d="M 183.054427 172.8 
Q 230.400327 172.8 276.628193 172.8 
" clip-path="url(#p57656de234)" style="fill: none; stroke: #4c4c4c; stroke-linecap: round"/>
    <path d="M 275.428193 172.2 
L 276.628193 172.8 
L 275.428193 173.4 
" clip-path="url(#p57656de234)" style="fill: none; stroke: #4c4c4c; stroke-linecap: round"/>
   </g>
   <g id="patch_93">
    <path d="M 181.891553 177.14395 
Q 185.598066 179.292042 188.337254 180.879526 
" clip-path="url(#p57656de234)" style="fill: none; stroke: #4c4c4c; stroke-linecap: round"/>
    <path d="M 187.599866 179.758696 
L 188.337254 180.879526 
L 186.998157 180.796939 
" clip-path="url(#p57656de234)" style="fill: none; stroke: #4c4c4c; stroke-linecap: round"/>
   </g>
   <g id="patch_94">
    <path d="M 204.293109 181.43877 
Q 207.999622 179.290678 210.738809 177.703194 
" clip-path="url(#p57656de234)" style="fill: none; stroke: #4c4c4c; stroke-linecap: round"/>
    <path d="M 209.399713 177.785781 
L 210.738809 177.703194 
L 210.001422 178.824023 
" clip-path="url(#p57656de234)" style="fill: none; stroke: #4c4c4c; stroke-linecap: round"/>
   </g>
   <g id="patch_95">
    <path d="M 204.741578 163.270173 
Q 241.601515 179.29168 277.43609 194.867504 
" clip-path="url(#p57656de234)" style="fill: none; stroke: #4c4c4c; stroke-linecap: round"/>
    <path d="M 276.574735 193.83888 
L 277.43609 194.867504 
L 276.096378 194.939414 
" clip-path="url(#p57656de234)" style="fill: none; stroke: #4c4c4c; stroke-linecap: round"/>
   </g>
   <g id="patch_96">
    <path d="M 205.401291 158.820042 
Q 252.800647 153.326026 299.089404 147.960738 
" clip-path="url(#p57656de234)" style="fill: none; stroke: #4c4c4c; stroke-linecap: round"/>
    <path d="M 297.828302 147.502894 
L 299.089404 147.960738 
L 297.966468 148.694913 
" clip-path="url(#p57656de234)" style="fill: none; stroke: #4c4c4c; stroke-linecap: round"/>
   </g>
   <g id="patch_97">
    <path d="M 227.859589 172.8 
Q 230.400837 172.8 231.824051 172.8 
" clip-path="url(#p57656de234)" style="fill: none; stroke: #4c4c4c; stroke-linecap: round"/>
    <path d="M 230.624051 172.2 
L 231.824051 172.8 
L 230.624051 173.4 
" clip-path="url(#p57656de234)" style="fill: none; stroke: #4c4c4c; stroke-linecap: round"/>
   </g>
   <g id="patch_98">
    <path d="M 250.257727 172.8 
Q 320.005553 172.8 388.635345 172.8 
" clip-path="url(#p57656de234)" style="fill: none; stroke: #4c4c4c; stroke-linecap: round"/>
    <path d="M 387.435345 172.2 
L 388.635345 172.8 
L 387.435345 173.4 
" clip-path="url(#p57656de234)" style="fill: none; stroke: #4c4c4c; stroke-linecap: round"/>
   </g>
   <g id="patch_99">
    <path d="M 250.261145 172.8 
Q 252.802393 172.8 254.225606 172.8 
" clip-path="url(#p57656de234)" style="fill: none; stroke: #4c4c4c; stroke-linecap: round"/>
    <path d="M 253.025606 172.2 
L 254.225606 172.8 
L 253.025606 173.4 
" clip-path="url(#p57656de234)" style="fill: none; stroke: #4c4c4c; stroke-linecap: round"/>
   </g>
   <g id="patch_100">
    <path d="M 249.09622 177.14395 
Q 264.003121 185.783176 277.942696 193.861793 
" clip-path="url(#p57656de234)" style="fill: none; stroke: #4c4c4c; stroke-linecap: round"/>
    <path d="M 277.205308 192.740964 
L 277.942696 193.861793 
L 276.603599 193.779206 
" clip-path="url(#p57656de234)" style="fill: none; stroke: #4c4c4c; stroke-linecap: round"/>
   </g>
   <g id="patch_101">
    <path d="M 272.662701 172.8 
Q 275.203948 172.8 276.627162 172.8 
" clip-path="url(#p57656de234)" style="fill: none; stroke: #4c4c4c; stroke-linecap: round"/>
    <path d="M 275.427162 172.2 
L 276.627162 172.8 
L 275.427162 173.4 
" clip-path="url(#p57656de234)" style="fill: none; stroke: #4c4c4c; stroke-linecap: round"/>
   </g>
   <g id="patch_102">
    <path d="M 269.660148 179.357922 
Q 275.204264 185.784056 280.018043 191.363663 
" clip-path="url(#p57656de234)" style="fill: none; stroke: #4c4c4c; stroke-linecap: round"/>
    <path d="M 279.688457 190.063135 
L 280.018043 191.363663 
L 278.779869 190.847015 
" clip-path="url(#p57656de234)" style="fill: none; stroke: #4c4c4c; stroke-linecap: round"/>
   </g>
   <g id="patch_103">
    <path d="M 269.660148 166.242078 
Q 275.204264 159.815944 280.018043 154.236337 
" clip-path="url(#p57656de234)" style="fill: none; stroke: #4c4c4c; stroke-linecap: round"/>
    <path d="M 278.779869 154.752985 
L 280.018043 154.236337 
L 279.688457 155.536865 
" clip-path="url(#p57656de234)" style="fill: none; stroke: #4c4c4c; stroke-linecap: round"/>
   </g>
   <g id="patch_104">
    <path d="M 292.061704 192.207518 
Q 297.60582 185.781384 302.419599 180.201776 
" clip-path="url(#p57656de234)" style="fill: none; stroke: #4c4c4c; stroke-linecap: round"/>
    <path d="M 301.181425 180.718424 
L 302.419599 180.201776 
L 302.090013 181.502304 
" clip-path="url(#p57656de234)" style="fill: none; stroke: #4c4c4c; stroke-linecap: round"/>
   </g>
   <g id="patch_105">
    <path d="M 295.064256 198.76544 
Q 297.605504 198.76544 299.028718 198.76544 
" clip-path="url(#p57656de234)" style="fill: none; stroke: #4c4c4c; stroke-linecap: round"/>
    <path d="M 297.828718 198.16544 
L 299.028718 198.76544 
L 297.828718 199.36544 
" clip-path="url(#p57656de234)" style="fill: none; stroke: #4c4c4c; stroke-linecap: round"/>
   </g>
   <g id="patch_106">
    <path d="M 292.061704 166.242078 
Q 297.60582 159.815944 302.419599 154.236337 
" clip-path="url(#p57656de234)" style="fill: none; stroke: #4c4c4c; stroke-linecap: round"/>
    <path d="M 301.181425 154.752985 
L 302.419599 154.236337 
L 302.090013 155.536865 
" clip-path="url(#p57656de234)" style="fill: none; stroke: #4c4c4c; stroke-linecap: round"/>
   </g>
   <g id="patch_107">
    <path d="M 294.84344 148.791002 
Q 342.409664 159.817717 388.886737 170.591948 
" clip-path="url(#p57656de234)" style="fill: none; stroke: #4c4c4c; stroke-linecap: round"/>
    <path d="M 387.853235 169.736452 
L 388.886737 170.591948 
L 387.582239 170.905453 
" clip-path="url(#p57656de234)" style="fill: none; stroke: #4c4c4c; stroke-linecap: round"/>
   </g>
   <g id="patch_108">
    <path d="M 317.244996 148.791002 
Q 364.81122 159.817717 411.288293 170.591948 
" clip-path="url(#p57656de234)" style="fill: none; stroke: #4c4c4c; stroke-linecap: round"/>
    <path d="M 410.25479 169.736452 
L 411.288293 170.591948 
L 409.983795 170.905453 
" clip-path="url(#p57656de234)" style="fill: none; stroke: #4c4c4c; stroke-linecap: round"/>
   </g>
   <g id="patch_109">
    <path d="M 316.300887 194.42149 
Q 320.0074 192.273397 322.746588 190.685914 
" clip-path="url(#p57656de234)" style="fill: none; stroke: #4c4c4c; stroke-linecap: round"/>
    <path d="M 321.407491 190.768501 
L 322.746588 190.685914 
L 322.0092 191.806743 
" clip-path="url(#p57656de234)" style="fill: none; stroke: #4c4c4c; stroke-linecap: round"/>
   </g>
   <g id="patch_110">
    <path d="M 316.300887 168.45605 
Q 320.0074 166.307958 322.746588 164.720474 
" clip-path="url(#p57656de234)" style="fill: none; stroke: #4c4c4c; stroke-linecap: round"/>
    <path d="M 321.407491 164.803061 
L 322.746588 164.720474 
L 322.0092 165.841304 
" clip-path="url(#p57656de234)" style="fill: none; stroke: #4c4c4c; stroke-linecap: round"/>
   </g>
   <g id="patch_111">
    <path d="M 339.71013 161.45993 
Q 364.809838 166.308738 388.811808 170.945482 
" clip-path="url(#p57656de234)" style="fill: none; stroke: #4c4c4c; stroke-linecap: round"/>
    <path d="M 387.747397 170.128764 
L 388.811808 170.945482 
L 387.519787 171.30698 
" clip-path="url(#p57656de234)" style="fill: none; stroke: #4c4c4c; stroke-linecap: round"/>
   </g>
   <g id="patch_112">
    <path d="M 338.702443 181.43877 
Q 342.408956 179.290678 345.148143 177.703194 
" clip-path="url(#p57656de234)" style="fill: none; stroke: #4c4c4c; stroke-linecap: round"/>
    <path d="M 343.809047 177.785781 
L 345.148143 177.703194 
L 344.410755 178.824023 
" clip-path="url(#p57656de234)" style="fill: none; stroke: #4c4c4c; stroke-linecap: round"/>
   </g>
   <g id="patch_113">
    <path d="M 362.268923 172.8 
Q 364.810171 172.8 366.233385 172.8 
" clip-path="url(#p57656de234)" style="fill: none; stroke: #4c4c4c; stroke-linecap: round"/>
    <path d="M 365.033385 172.2 
L 366.233385 172.8 
L 365.033385 173.4 
" clip-path="url(#p57656de234)" style="fill: none; stroke: #4c4c4c; stroke-linecap: round"/>
   </g>
   <g id="patch_114">
    <path d="M 384.670479 172.8 
Q 387.211727 172.8 388.63494 172.8 
" clip-path="url(#p57656de234)" style="fill: none; stroke: #4c4c4c; stroke-linecap: round"/>
    <path d="M 387.43494 172.2 
L 388.63494 172.8 
L 387.43494 173.4 
" clip-path="url(#p57656de234)" style="fill: none; stroke: #4c4c4c; stroke-linecap: round"/>
   </g>
   <g id="patch_115">
    <path d="M 407.072035 172.8 
Q 409.613282 172.8 411.036496 172.8 
" clip-path="url(#p57656de234)" style="fill: none; stroke: #4c4c4c; stroke-linecap: round"/>
    <path d="M 409.836496 172.2 
L 411.036496 172.8 
L 409.836496 173.4 
" clip-path="url(#p57656de234)" style="fill: none; stroke: #4c4c4c; stroke-linecap: round"/>
   </g>
   <g id="PathCollection_1">
    <path d="M 39.986777 324.270171 
C 42.283503 324.270171 44.486471 323.357672 46.110501 321.733642 
C 47.734532 320.109611 48.647031 317.906644 48.647031 315.609917 
C 48.647031 313.313191 47.734532 311.110224 46.110501 309.486193 
C 44.486471 307.862162 42.283503 306.949663 39.986777 306.949663 
C 37.690051 306.949663 35.487083 307.862162 33.863053 309.486193 
C 32.239022 311.110224 31.326523 313.313191 31.326523 315.609917 
C 31.326523 317.906644 32.239022 320.109611 33.863053 321.733642 
C 35.487083 323.357672 37.690051 324.270171 39.986777 324.270171 
z
" clip-path="url(#p57656de234)" style="fill: #ffff00; stroke: #000000"/>
    <path d="M 39.986777 298.304732 
C 42.283503 298.304732 44.486471 297.392233 46.110501 295.768202 
C 47.734532 294.144172 48.647031 291.941204 48.647031 289.644478 
C 48.647031 287.347752 47.734532 285.144784 46.110501 283.520753 
C 44.486471 281.896723 42.283503 280.984224 39.986777 280.984224 
C 37.690051 280.984224 35.487083 281.896723 33.863053 283.520753 
C 32.239022 285.144784 31.326523 287.347752 31.326523 289.644478 
C 31.326523 291.941204 32.239022 294.144172 33.863053 295.768202 
C 35.487083 297.392233 37.690051 298.304732 39.986777 298.304732 
z
" clip-path="url(#p57656de234)" style="fill: #ffff00; stroke: #000000"/>
    <path d="M 39.986777 272.339292 
C 42.283503 272.339292 44.486471 271.426793 46.110501 269.802763 
C 47.734532 268.178732 48.647031 265.975765 48.647031 263.679038 
C 48.647031 261.382312 47.734532 259.179345 46.110501 257.555314 
C 44.486471 255.931283 42.283503 255.018784 39.986777 255.018784 
C 37.690051 255.018784 35.487083 255.931283 33.863053 257.555314 
C 32.239022 259.179345 31.326523 261.382312 31.326523 263.679038 
C 31.326523 265.975765 32.239022 268.178732 33.863053 269.802763 
C 35.487083 271.426793 37.690051 272.339292 39.986777 272.339292 
z
" clip-path="url(#p57656de234)" style="fill: #ffff00; stroke: #000000"/>
    <path d="M 39.986777 246.373853 
C 42.283503 246.373853 44.486471 245.461354 46.110501 243.837323 
C 47.734532 242.213292 48.647031 240.010325 48.647031 237.713599 
C 48.647031 235.416873 47.734532 233.213905 46.110501 231.589874 
C 44.486471 229.965844 42.283503 229.053345 39.986777 229.053345 
C 37.690051 229.053345 35.487083 229.965844 33.863053 231.589874 
C 32.239022 233.213905 31.326523 235.416873 31.326523 237.713599 
C 31.326523 240.010325 32.239022 242.213292 33.863053 243.837323 
C 35.487083 245.461354 37.690051 246.373853 39.986777 246.373853 
z
" clip-path="url(#p57656de234)" style="fill: #ffff00; stroke: #000000"/>
    <path d="M 39.986777 220.408413 
C 42.283503 220.408413 44.486471 219.495914 46.110501 217.871884 
C 47.734532 216.247853 48.647031 214.044885 48.647031 211.748159 
C 48.647031 209.451433 47.734532 207.248466 46.110501 205.624435 
C 44.486471 204.000404 42.283503 203.087905 39.986777 203.087905 
C 37.690051 203.087905 35.487083 204.000404 33.863053 205.624435 
C 32.239022 207.248466 31.326523 209.451433 31.326523 211.748159 
C 31.326523 214.044885 32.239022 216.247853 33.863053 217.871884 
C 35.487083 219.495914 37.690051 220.408413 39.986777 220.408413 
z
" clip-path="url(#p57656de234)" style="fill: #ffff00; stroke: #000000"/>
    <path d="M 39.986777 194.442974 
C 42.283503 194.442974 44.486471 193.530475 46.110501 191.906444 
C 47.734532 190.282413 48.647031 188.079446 48.647031 185.78272 
C 48.647031 183.485994 47.734532 181.283026 46.110501 179.658995 
C 44.486471 178.034965 42.283503 177.122466 39.986777 177.122466 
C 37.690051 177.122466 35.487083 178.034965 33.863053 179.658995 
C 32.239022 181.283026 31.326523 183.485994 31.326523 185.78272 
C 31.326523 188.079446 32.239022 190.282413 33.863053 191.906444 
C 35.487083 193.530475 37.690051 194.442974 39.986777 194.442974 
z
" clip-path="url(#p57656de234)" style="fill: #ffff00; stroke: #000000"/>
    <path d="M 39.986777 168.477534 
C 42.283503 168.477534 44.486471 167.565035 46.110501 165.941005 
C 47.734532 164.316974 48.647031 162.114006 48.647031 159.81728 
C 48.647031 157.520554 47.734532 155.317587 46.110501 153.693556 
C 44.486471 152.069525 42.283503 151.157026 39.986777 151.157026 
C 37.690051 151.157026 35.487083 152.069525 33.863053 153.693556 
C 32.239022 155.317587 31.326523 157.520554 31.326523 159.81728 
C 31.326523 162.114006 32.239022 164.316974 33.863053 165.941005 
C 35.487083 167.565035 37.690051 168.477534 39.986777 168.477534 
z
" clip-path="url(#p57656de234)" style="fill: #ffff00; stroke: #000000"/>
    <path d="M 39.986777 142.512095 
C 42.283503 142.512095 44.486471 141.599596 46.110501 139.975565 
C 47.734532 138.351534 48.647031 136.148567 48.647031 133.851841 
C 48.647031 131.555115 47.734532 129.352147 46.110501 127.728116 
C 44.486471 126.104086 42.283503 125.191587 39.986777 125.191587 
C 37.690051 125.191587 35.487083 126.104086 33.863053 127.728116 
C 32.239022 129.352147 31.326523 131.555115 31.326523 133.851841 
C 31.326523 136.148567 32.239022 138.351534 33.863053 139.975565 
C 35.487083 141.599596 37.690051 142.512095 39.986777 142.512095 
z
" clip-path="url(#p57656de234)" style="fill: #ffff00; stroke: #000000"/>
    <path d="M 39.986777 116.546655 
C 42.283503 116.546655 44.486471 115.634156 46.110501 114.010126 
C 47.734532 112.386095 48.647031 110.183127 48.647031 107.886401 
C 48.647031 105.589675 47.734532 103.386708 46.110501 101.762677 
C 44.486471 100.138646 42.283503 99.226147 39.986777 99.226147 
C 37.690051 99.226147 35.487083 100.138646 33.863053 101.762677 
C 32.239022 103.386708 31.326523 105.589675 31.326523 107.886401 
C 31.326523 110.183127 32.239022 112.386095 33.863053 114.010126 
C 35.487083 115.634156 37.690051 116.546655 39.986777 116.546655 
z
" clip-path="url(#p57656de234)" style="fill: #ffff00; stroke: #000000"/>
    <path d="M 39.986777 90.581216 
C 42.283503 90.581216 44.486471 89.668717 46.110501 88.044686 
C 47.734532 86.420655 48.647031 84.217688 48.647031 81.920962 
C 48.647031 79.624235 47.734532 77.421268 46.110501 75.797237 
C 44.486471 74.173207 42.283503 73.260708 39.986777 73.260708 
C 37.690051 73.260708 35.487083 74.173207 33.863053 75.797237 
C 32.239022 77.421268 31.326523 79.624235 31.326523 81.920962 
C 31.326523 84.217688 32.239022 86.420655 33.863053 88.044686 
C 35.487083 89.668717 37.690051 90.581216 39.986777 90.581216 
z
" clip-path="url(#p57656de234)" style="fill: #ffff00; stroke: #000000"/>
    <path d="M 39.986777 64.615776 
C 42.283503 64.615776 44.486471 63.703277 46.110501 62.079247 
C 47.734532 60.455216 48.647031 58.252248 48.647031 55.955522 
C 48.647031 53.658796 47.734532 51.455828 46.110501 49.831798 
C 44.486471 48.207767 42.283503 47.295268 39.986777 47.295268 
C 37.690051 47.295268 35.487083 48.207767 33.863053 49.831798 
C 32.239022 51.455828 31.326523 53.658796 31.326523 55.955522 
C 31.326523 58.252248 32.239022 60.455216 33.863053 62.079247 
C 35.487083 63.703277 37.690051 64.615776 39.986777 64.615776 
z
" clip-path="url(#p57656de234)" style="fill: #ffff00; stroke: #000000"/>
    <path d="M 39.986777 38.650337 
C 42.283503 38.650337 44.486471 37.737838 46.110501 36.113807 
C 47.734532 34.489776 48.647031 32.286809 48.647031 29.990083 
C 48.647031 27.693356 47.734532 25.490389 46.110501 23.866358 
C 44.486471 22.242328 42.283503 21.329829 39.986777 21.329829 
C 37.690051 21.329829 35.487083 22.242328 33.863053 23.866358 
C 32.239022 25.490389 31.326523 27.693356 31.326523 29.990083 
C 31.326523 32.286809 32.239022 34.489776 33.863053 36.113807 
C 35.487083 37.737838 37.690051 38.650337 39.986777 38.650337 
z
" clip-path="url(#p57656de234)" style="fill: #ffff00; stroke: #000000"/>
    <path d="M 62.388333 155.494815 
C 64.685059 155.494815 66.888026 154.582316 68.512057 152.958285 
C 70.136088 151.334254 71.048587 149.131287 71.048587 146.83456 
C 71.048587 144.537834 70.136088 142.334867 68.512057 140.710836 
C 66.888026 139.086805 64.685059 138.174306 62.388333 138.174306 
C 60.091606 138.174306 57.888639 139.086805 56.264608 140.710836 
C 54.640577 142.334867 53.728078 144.537834 53.728078 146.83456 
C 53.728078 149.131287 54.640577 151.334254 56.264608 152.958285 
C 57.888639 154.582316 60.091606 155.494815 62.388333 155.494815 
z
" clip-path="url(#p57656de234)" style="fill: #ffffff; stroke: #000000"/>
    <path d="M 62.388333 285.322012 
C 64.685059 285.322012 66.888026 284.409513 68.512057 282.785482 
C 70.136088 281.161452 71.048587 278.958484 71.048587 276.661758 
C 71.048587 274.365032 70.136088 272.162064 68.512057 270.538034 
C 66.888026 268.914003 64.685059 268.001504 62.388333 268.001504 
C 60.091606 268.001504 57.888639 268.914003 56.264608 270.538034 
C 54.640577 272.162064 53.728078 274.365032 53.728078 276.661758 
C 53.728078 278.958484 54.640577 281.161452 56.264608 282.785482 
C 57.888639 284.409513 60.091606 285.322012 62.388333 285.322012 
z
" clip-path="url(#p57656de234)" style="fill: #ffffff; stroke: #000000"/>
    <path d="M 62.388333 311.287452 
C 64.685059 311.287452 66.888026 310.374953 68.512057 308.750922 
C 70.136088 307.126891 71.048587 304.923924 71.048587 302.627198 
C 71.048587 300.330471 70.136088 298.127504 68.512057 296.503473 
C 66.888026 294.879443 64.685059 293.966944 62.388333 293.966944 
C 60.091606 293.966944 57.888639 294.879443 56.264608 296.503473 
C 54.640577 298.127504 53.728078 300.330471 53.728078 302.627198 
C 53.728078 304.923924 54.640577 307.126891 56.264608 308.750922 
C 57.888639 310.374953 60.091606 311.287452 62.388333 311.287452 
z
" clip-path="url(#p57656de234)" style="fill: #ffffff; stroke: #000000"/>
    <path d="M 62.388333 129.529375 
C 64.685059 129.529375 66.888026 128.616876 68.512057 126.992845 
C 70.136088 125.368815 71.048587 123.165847 71.048587 120.869121 
C 71.048587 118.572395 70.136088 116.369427 68.512057 114.745397 
C 66.888026 113.121366 64.685059 112.208867 62.388333 112.208867 
C 60.091606 112.208867 57.888639 113.121366 56.264608 114.745397 
C 54.640577 116.369427 53.728078 118.572395 53.728078 120.869121 
C 53.728078 123.165847 54.640577 125.368815 56.264608 126.992845 
C 57.888639 128.616876 60.091606 129.529375 62.388333 129.529375 
z
" clip-path="url(#p57656de234)" style="fill: #ffffff; stroke: #000000"/>
    <path d="M 62.388333 259.356573 
C 64.685059 259.356573 66.888026 258.444074 68.512057 256.820043 
C 70.136088 255.196012 71.048587 252.993045 71.048587 250.696319 
C 71.048587 248.399592 70.136088 246.196625 68.512057 244.572594 
C 66.888026 242.948564 64.685059 242.036065 62.388333 242.036065 
C 60.091606 242.036065 57.888639 242.948564 56.264608 244.572594 
C 54.640577 246.196625 53.728078 248.399592 53.728078 250.696319 
C 53.728078 252.993045 54.640577 255.196012 56.264608 256.820043 
C 57.888639 258.444074 60.091606 259.356573 62.388333 259.356573 
z
" clip-path="url(#p57656de234)" style="fill: #ffffff; stroke: #000000"/>
    <path d="M 62.388333 103.563935 
C 64.685059 103.563935 66.888026 102.651436 68.512057 101.027406 
C 70.136088 99.403375 71.048587 97.200408 71.048587 94.903681 
C 71.048587 92.606955 70.136088 90.403988 68.512057 88.779957 
C 66.888026 87.155926 64.685059 86.243427 62.388333 86.243427 
C 60.091606 86.243427 57.888639 87.155926 56.264608 88.779957 
C 54.640577 90.403988 53.728078 92.606955 53.728078 94.903681 
C 53.728078 97.200408 54.640577 99.403375 56.264608 101.027406 
C 57.888639 102.651436 60.091606 103.563935 62.388333 103.563935 
z
" clip-path="url(#p57656de234)" style="fill: #ffffff; stroke: #000000"/>
    <path d="M 62.388333 51.633056 
C 64.685059 51.633056 66.888026 50.720557 68.512057 49.096527 
C 70.136088 47.472496 71.048587 45.269529 71.048587 42.972802 
C 71.048587 40.676076 70.136088 38.473109 68.512057 36.849078 
C 66.888026 35.225047 64.685059 34.312548 62.388333 34.312548 
C 60.091606 34.312548 57.888639 35.225047 56.264608 36.849078 
C 54.640577 38.473109 53.728078 40.676076 53.728078 42.972802 
C 53.728078 45.269529 54.640577 47.472496 56.264608 49.096527 
C 57.888639 50.720557 60.091606 51.633056 62.388333 51.633056 
z
" clip-path="url(#p57656de234)" style="fill: #ffffff; stroke: #000000"/>
    <path d="M 62.388333 207.425694 
C 64.685059 207.425694 66.888026 206.513195 68.512057 204.889164 
C 70.136088 203.265133 71.048587 201.062166 71.048587 198.76544 
C 71.048587 196.468713 70.136088 194.265746 68.512057 192.641715 
C 66.888026 191.017684 64.685059 190.105185 62.388333 190.105185 
C 60.091606 190.105185 57.888639 191.017684 56.264608 192.641715 
C 54.640577 194.265746 53.728078 196.468713 53.728078 198.76544 
C 53.728078 201.062166 54.640577 203.265133 56.264608 204.889164 
C 57.888639 206.513195 60.091606 207.425694 62.388333 207.425694 
z
" clip-path="url(#p57656de234)" style="fill: #ffffff; stroke: #000000"/>
    <path d="M 62.388333 77.598496 
C 64.685059 77.598496 66.888026 76.685997 68.512057 75.061966 
C 70.136088 73.437936 71.048587 71.234968 71.048587 68.938242 
C 71.048587 66.641516 70.136088 64.438548 68.512057 62.814518 
C 66.888026 61.190487 64.685059 60.277988 62.388333 60.277988 
C 60.091606 60.277988 57.888639 61.190487 56.264608 62.814518 
C 54.640577 64.438548 53.728078 66.641516 53.728078 68.938242 
C 53.728078 71.234968 54.640577 73.437936 56.264608 75.061966 
C 57.888639 76.685997 60.091606 77.598496 62.388333 77.598496 
z
" clip-path="url(#p57656de234)" style="fill: #ffffff; stroke: #000000"/>
    <path d="M 62.388333 181.460254 
C 64.685059 181.460254 66.888026 180.547755 68.512057 178.923724 
C 70.136088 177.299694 71.048587 175.096726 71.048587 172.8 
C 71.048587 170.503274 70.136088 168.300306 68.512057 166.676276 
C 66.888026 165.052245 64.685059 164.139746 62.388333 164.139746 
C 60.091606 164.139746 57.888639 165.052245 56.264608 166.676276 
C 54.640577 168.300306 53.728078 170.503274 53.728078 172.8 
C 53.728078 175.096726 54.640577 177.299694 56.264608 178.923724 
C 57.888639 180.547755 60.091606 181.460254 62.388333 181.460254 
z
" clip-path="url(#p57656de234)" style="fill: #ffffff; stroke: #000000"/>
    <path d="M 62.388333 233.391133 
C 64.685059 233.391133 66.888026 232.478634 68.512057 230.854603 
C 70.136088 229.230573 71.048587 227.027605 71.048587 224.730879 
C 71.048587 222.434153 70.136088 220.231185 68.512057 218.607155 
C 66.888026 216.983124 64.685059 216.070625 62.388333 216.070625 
C 60.091606 216.070625 57.888639 216.983124 56.264608 218.607155 
C 54.640577 220.231185 53.728078 222.434153 53.728078 224.730879 
C 53.728078 227.027605 54.640577 229.230573 56.264608 230.854603 
C 57.888639 232.478634 60.091606 233.391133 62.388333 233.391133 
z
" clip-path="url(#p57656de234)" style="fill: #ffffff; stroke: #000000"/>
    <path d="M 84.789888 194.442974 
C 87.086614 194.442974 89.289582 193.530475 90.913613 191.906444 
C 92.537643 190.282413 93.450142 188.079446 93.450142 185.78272 
C 93.450142 183.485994 92.537643 181.283026 90.913613 179.658995 
C 89.289582 178.034965 87.086614 177.122466 84.789888 177.122466 
C 82.493162 177.122466 80.290195 178.034965 78.666164 179.658995 
C 77.042133 181.283026 76.129634 183.485994 76.129634 185.78272 
C 76.129634 188.079446 77.042133 190.282413 78.666164 191.906444 
C 80.290195 193.530475 82.493162 194.442974 84.789888 194.442974 
z
" clip-path="url(#p57656de234)" style="fill: #ffffff; stroke: #000000"/>
    <path d="M 84.789888 168.477534 
C 87.086614 168.477534 89.289582 167.565035 90.913613 165.941005 
C 92.537643 164.316974 93.450142 162.114006 93.450142 159.81728 
C 93.450142 157.520554 92.537643 155.317587 90.913613 153.693556 
C 89.289582 152.069525 87.086614 151.157026 84.789888 151.157026 
C 82.493162 151.157026 80.290195 152.069525 78.666164 153.693556 
C 77.042133 155.317587 76.129634 157.520554 76.129634 159.81728 
C 76.129634 162.114006 77.042133 164.316974 78.666164 165.941005 
C 80.290195 167.565035 82.493162 168.477534 84.789888 168.477534 
z
" clip-path="url(#p57656de234)" style="fill: #ffffff; stroke: #000000"/>
    <path d="M 84.789888 246.373853 
C 87.086614 246.373853 89.289582 245.461354 90.913613 243.837323 
C 92.537643 242.213292 93.450142 240.010325 93.450142 237.713599 
C 93.450142 235.416873 92.537643 233.213905 90.913613 231.589874 
C 89.289582 229.965844 87.086614 229.053345 84.789888 229.053345 
C 82.493162 229.053345 80.290195 229.965844 78.666164 231.589874 
C 77.042133 233.213905 76.129634 235.416873 76.129634 237.713599 
C 76.129634 240.010325 77.042133 242.213292 78.666164 243.837323 
C 80.290195 245.461354 82.493162 246.373853 84.789888 246.373853 
z
" clip-path="url(#p57656de234)" style="fill: #ffffff; stroke: #000000"/>
    <path d="M 84.789888 220.408413 
C 87.086614 220.408413 89.289582 219.495914 90.913613 217.871884 
C 92.537643 216.247853 93.450142 214.044885 93.450142 211.748159 
C 93.450142 209.451433 92.537643 207.248466 90.913613 205.624435 
C 89.289582 204.000404 87.086614 203.087905 84.789888 203.087905 
C 82.493162 203.087905 80.290195 204.000404 78.666164 205.624435 
C 77.042133 207.248466 76.129634 209.451433 76.129634 211.748159 
C 76.129634 214.044885 77.042133 216.247853 78.666164 217.871884 
C 80.290195 219.495914 82.493162 220.408413 84.789888 220.408413 
z
" clip-path="url(#p57656de234)" style="fill: #ffffff; stroke: #000000"/>
    <path d="M 84.789888 142.512095 
C 87.086614 142.512095 89.289582 141.599596 90.913613 139.975565 
C 92.537643 138.351534 93.450142 136.148567 93.450142 133.851841 
C 93.450142 131.555115 92.537643 129.352147 90.913613 127.728116 
C 89.289582 126.104086 87.086614 125.191587 84.789888 125.191587 
C 82.493162 125.191587 80.290195 126.104086 78.666164 127.728116 
C 77.042133 129.352147 76.129634 131.555115 76.129634 133.851841 
C 76.129634 136.148567 77.042133 138.351534 78.666164 139.975565 
C 80.290195 141.599596 82.493162 142.512095 84.789888 142.512095 
z
" clip-path="url(#p57656de234)" style="fill: #ffffff; stroke: #000000"/>
    <path d="M 84.789888 116.546655 
C 87.086614 116.546655 89.289582 115.634156 90.913613 114.010126 
C 92.537643 112.386095 93.450142 110.183127 93.450142 107.886401 
C 93.450142 105.589675 92.537643 103.386708 90.913613 101.762677 
C 89.289582 100.138646 87.086614 99.226147 84.789888 99.226147 
C 82.493162 99.226147 80.290195 100.138646 78.666164 101.762677 
C 77.042133 103.386708 76.129634 105.589675 76.129634 107.886401 
C 76.129634 110.183127 77.042133 112.386095 78.666164 114.010126 
C 80.290195 115.634156 82.493162 116.546655 84.789888 116.546655 
z
" clip-path="url(#p57656de234)" style="fill: #ffffff; stroke: #000000"/>
    <path d="M 107.191444 155.494815 
C 109.48817 155.494815 111.691138 154.582316 113.315168 152.958285 
C 114.939199 151.334254 115.851698 149.131287 115.851698 146.83456 
C 115.851698 144.537834 114.939199 142.334867 113.315168 140.710836 
C 111.691138 139.086805 109.48817 138.174306 107.191444 138.174306 
C 104.894718 138.174306 102.69175 139.086805 101.067719 140.710836 
C 99.443689 142.334867 98.53119 144.537834 98.53119 146.83456 
C 98.53119 149.131287 99.443689 151.334254 101.067719 152.958285 
C 102.69175 154.582316 104.894718 155.494815 107.191444 155.494815 
z
" clip-path="url(#p57656de234)" style="fill: #ffffff; stroke: #000000"/>
    <path d="M 107.191444 207.425694 
C 109.48817 207.425694 111.691138 206.513195 113.315168 204.889164 
C 114.939199 203.265133 115.851698 201.062166 115.851698 198.76544 
C 115.851698 196.468713 114.939199 194.265746 113.315168 192.641715 
C 111.691138 191.017684 109.48817 190.105185 107.191444 190.105185 
C 104.894718 190.105185 102.69175 191.017684 101.067719 192.641715 
C 99.443689 194.265746 98.53119 196.468713 98.53119 198.76544 
C 98.53119 201.062166 99.443689 203.265133 101.067719 204.889164 
C 102.69175 206.513195 104.894718 207.425694 107.191444 207.425694 
z
" clip-path="url(#p57656de234)" style="fill: #ffffff; stroke: #000000"/>
    <path d="M 107.191444 181.460254 
C 109.48817 181.460254 111.691138 180.547755 113.315168 178.923724 
C 114.939199 177.299694 115.851698 175.096726 115.851698 172.8 
C 115.851698 170.503274 114.939199 168.300306 113.315168 166.676276 
C 111.691138 165.052245 109.48817 164.139746 107.191444 164.139746 
C 104.894718 164.139746 102.69175 165.052245 101.067719 166.676276 
C 99.443689 168.300306 98.53119 170.503274 98.53119 172.8 
C 98.53119 175.096726 99.443689 177.299694 101.067719 178.923724 
C 102.69175 180.547755 104.894718 181.460254 107.191444 181.460254 
z
" clip-path="url(#p57656de234)" style="fill: #ffffff; stroke: #000000"/>
    <path d="M 129.593 194.442974 
C 131.889726 194.442974 134.092693 193.530475 135.716724 191.906444 
C 137.340755 190.282413 138.253254 188.079446 138.253254 185.78272 
C 138.253254 183.485994 137.340755 181.283026 135.716724 179.658995 
C 134.092693 178.034965 131.889726 177.122466 129.593 177.122466 
C 127.296273 177.122466 125.093306 178.034965 123.469275 179.658995 
C 121.845244 181.283026 120.932745 183.485994 120.932745 185.78272 
C 120.932745 188.079446 121.845244 190.282413 123.469275 191.906444 
C 125.093306 193.530475 127.296273 194.442974 129.593 194.442974 
z
" clip-path="url(#p57656de234)" style="fill: #ffffff; stroke: #000000"/>
    <path d="M 129.593 168.477534 
C 131.889726 168.477534 134.092693 167.565035 135.716724 165.941005 
C 137.340755 164.316974 138.253254 162.114006 138.253254 159.81728 
C 138.253254 157.520554 137.340755 155.317587 135.716724 153.693556 
C 134.092693 152.069525 131.889726 151.157026 129.593 151.157026 
C 127.296273 151.157026 125.093306 152.069525 123.469275 153.693556 
C 121.845244 155.317587 120.932745 157.520554 120.932745 159.81728 
C 120.932745 162.114006 121.845244 164.316974 123.469275 165.941005 
C 125.093306 167.565035 127.296273 168.477534 129.593 168.477534 
z
" clip-path="url(#p57656de234)" style="fill: #ffffff; stroke: #000000"/>
    <path d="M 151.994555 168.477534 
C 154.291281 168.477534 156.494249 167.565035 158.11828 165.941005 
C 159.74231 164.316974 160.654809 162.114006 160.654809 159.81728 
C 160.654809 157.520554 159.74231 155.317587 158.11828 153.693556 
C 156.494249 152.069525 154.291281 151.157026 151.994555 151.157026 
C 149.697829 151.157026 147.494862 152.069525 145.870831 153.693556 
C 144.2468 155.317587 143.334301 157.520554 143.334301 159.81728 
C 143.334301 162.114006 144.2468 164.316974 145.870831 165.941005 
C 147.494862 167.565035 149.697829 168.477534 151.994555 168.477534 
z
" clip-path="url(#p57656de234)" style="fill: #ffffff; stroke: #000000"/>
    <path d="M 151.994555 194.442974 
C 154.291281 194.442974 156.494249 193.530475 158.11828 191.906444 
C 159.74231 190.282413 160.654809 188.079446 160.654809 185.78272 
C 160.654809 183.485994 159.74231 181.283026 158.11828 179.658995 
C 156.494249 178.034965 154.291281 177.122466 151.994555 177.122466 
C 149.697829 177.122466 147.494862 178.034965 145.870831 179.658995 
C 144.2468 181.283026 143.334301 183.485994 143.334301 185.78272 
C 143.334301 188.079446 144.2468 190.282413 145.870831 191.906444 
C 147.494862 193.530475 149.697829 194.442974 151.994555 194.442974 
z
" clip-path="url(#p57656de234)" style="fill: #ffffff; stroke: #000000"/>
    <path d="M 174.396111 181.460254 
C 176.692837 181.460254 178.895805 180.547755 180.519835 178.923724 
C 182.143866 177.299694 183.056365 175.096726 183.056365 172.8 
C 183.056365 170.503274 182.143866 168.300306 180.519835 166.676276 
C 178.895805 165.052245 176.692837 164.139746 174.396111 164.139746 
C 172.099385 164.139746 169.896417 165.052245 168.272386 166.676276 
C 166.648356 168.300306 165.735857 170.503274 165.735857 172.8 
C 165.735857 175.096726 166.648356 177.299694 168.272386 178.923724 
C 169.896417 180.547755 172.099385 181.460254 174.396111 181.460254 
z
" clip-path="url(#p57656de234)" style="fill: #ffffff; stroke: #000000"/>
    <path d="M 196.797667 194.442974 
C 199.094393 194.442974 201.29736 193.530475 202.921391 191.906444 
C 204.545422 190.282413 205.457921 188.079446 205.457921 185.78272 
C 205.457921 183.485994 204.545422 181.283026 202.921391 179.658995 
C 201.29736 178.034965 199.094393 177.122466 196.797667 177.122466 
C 194.50094 177.122466 192.297973 178.034965 190.673942 179.658995 
C 189.049911 181.283026 188.137412 183.485994 188.137412 185.78272 
C 188.137412 188.079446 189.049911 190.282413 190.673942 191.906444 
C 192.297973 193.530475 194.50094 194.442974 196.797667 194.442974 
z
" clip-path="url(#p57656de234)" style="fill: #ffffff; stroke: #000000"/>
    <path d="M 196.797667 168.477534 
C 199.094393 168.477534 201.29736 167.565035 202.921391 165.941005 
C 204.545422 164.316974 205.457921 162.114006 205.457921 159.81728 
C 205.457921 157.520554 204.545422 155.317587 202.921391 153.693556 
C 201.29736 152.069525 199.094393 151.157026 196.797667 151.157026 
C 194.50094 151.157026 192.297973 152.069525 190.673942 153.693556 
C 189.049911 155.317587 188.137412 157.520554 188.137412 159.81728 
C 188.137412 162.114006 189.049911 164.316974 190.673942 165.941005 
C 192.297973 167.565035 194.50094 168.477534 196.797667 168.477534 
z
" clip-path="url(#p57656de234)" style="fill: #ffffff; stroke: #000000"/>
    <path d="M 219.199222 181.460254 
C 221.495948 181.460254 223.698916 180.547755 225.322947 178.923724 
C 226.946977 177.299694 227.859476 175.096726 227.859476 172.8 
C 227.859476 170.503274 226.946977 168.300306 225.322947 166.676276 
C 223.698916 165.052245 221.495948 164.139746 219.199222 164.139746 
C 216.902496 164.139746 214.699528 165.052245 213.075498 166.676276 
C 211.451467 168.300306 210.538968 170.503274 210.538968 172.8 
C 210.538968 175.096726 211.451467 177.299694 213.075498 178.923724 
C 214.699528 180.547755 216.902496 181.460254 219.199222 181.460254 
z
" clip-path="url(#p57656de234)" style="fill: #ffffff; stroke: #000000"/>
    <path d="M 241.600778 181.460254 
C 243.897504 181.460254 246.100472 180.547755 247.724502 178.923724 
C 249.348533 177.299694 250.261032 175.096726 250.261032 172.8 
C 250.261032 170.503274 249.348533 168.300306 247.724502 166.676276 
C 246.100472 165.052245 243.897504 164.139746 241.600778 164.139746 
C 239.304052 164.139746 237.101084 165.052245 235.477053 166.676276 
C 233.853023 168.300306 232.940524 170.503274 232.940524 172.8 
C 232.940524 175.096726 233.853023 177.299694 235.477053 178.923724 
C 237.101084 180.547755 239.304052 181.460254 241.600778 181.460254 
z
" clip-path="url(#p57656de234)" style="fill: #ffffff; stroke: #000000"/>
    <path d="M 264.002333 181.460254 
C 266.29906 181.460254 268.502027 180.547755 270.126058 178.923724 
C 271.750089 177.299694 272.662588 175.096726 272.662588 172.8 
C 272.662588 170.503274 271.750089 168.300306 270.126058 166.676276 
C 268.502027 165.052245 266.29906 164.139746 264.002333 164.139746 
C 261.705607 164.139746 259.50264 165.052245 257.878609 166.676276 
C 256.254578 168.300306 255.342079 170.503274 255.342079 172.8 
C 255.342079 175.096726 256.254578 177.299694 257.878609 178.923724 
C 259.50264 180.547755 261.705607 181.460254 264.002333 181.460254 
z
" clip-path="url(#p57656de234)" style="fill: #ffffff; stroke: #000000"/>
    <path d="M 286.403889 207.425694 
C 288.700615 207.425694 290.903583 206.513195 292.527614 204.889164 
C 294.151644 203.265133 295.064143 201.062166 295.064143 198.76544 
C 295.064143 196.468713 294.151644 194.265746 292.527614 192.641715 
C 290.903583 191.017684 288.700615 190.105185 286.403889 190.105185 
C 284.107163 190.105185 281.904195 191.017684 280.280165 192.641715 
C 278.656134 194.265746 277.743635 196.468713 277.743635 198.76544 
C 277.743635 201.062166 278.656134 203.265133 280.280165 204.889164 
C 281.904195 206.513195 284.107163 207.425694 286.403889 207.425694 
z
" clip-path="url(#p57656de234)" style="fill: #ffffff; stroke: #000000"/>
    <path d="M 286.403889 181.460254 
C 288.700615 181.460254 290.903583 180.547755 292.527614 178.923724 
C 294.151644 177.299694 295.064143 175.096726 295.064143 172.8 
C 295.064143 170.503274 294.151644 168.300306 292.527614 166.676276 
C 290.903583 165.052245 288.700615 164.139746 286.403889 164.139746 
C 284.107163 164.139746 281.904195 165.052245 280.280165 166.676276 
C 278.656134 168.300306 277.743635 170.503274 277.743635 172.8 
C 277.743635 175.096726 278.656134 177.299694 280.280165 178.923724 
C 281.904195 180.547755 284.107163 181.460254 286.403889 181.460254 
z
" clip-path="url(#p57656de234)" style="fill: #ffffff; stroke: #000000"/>
    <path d="M 286.403889 155.494815 
C 288.700615 155.494815 290.903583 154.582316 292.527614 152.958285 
C 294.151644 151.334254 295.064143 149.131287 295.064143 146.83456 
C 295.064143 144.537834 294.151644 142.334867 292.527614 140.710836 
C 290.903583 139.086805 288.700615 138.174306 286.403889 138.174306 
C 284.107163 138.174306 281.904195 139.086805 280.280165 140.710836 
C 278.656134 142.334867 277.743635 144.537834 277.743635 146.83456 
C 277.743635 149.131287 278.656134 151.334254 280.280165 152.958285 
C 281.904195 154.582316 284.107163 155.494815 286.403889 155.494815 
z
" clip-path="url(#p57656de234)" style="fill: #ffffff; stroke: #000000"/>
    <path d="M 308.805445 155.494815 
C 311.102171 155.494815 313.305138 154.582316 314.929169 152.958285 
C 316.5532 151.334254 317.465699 149.131287 317.465699 146.83456 
C 317.465699 144.537834 316.5532 142.334867 314.929169 140.710836 
C 313.305138 139.086805 311.102171 138.174306 308.805445 138.174306 
C 306.508719 138.174306 304.305751 139.086805 302.68172 140.710836 
C 301.05769 142.334867 300.145191 144.537834 300.145191 146.83456 
C 300.145191 149.131287 301.05769 151.334254 302.68172 152.958285 
C 304.305751 154.582316 306.508719 155.494815 308.805445 155.494815 
z
" clip-path="url(#p57656de234)" style="fill: #ffffff; stroke: #000000"/>
    <path d="M 308.805445 207.425694 
C 311.102171 207.425694 313.305138 206.513195 314.929169 204.889164 
C 316.5532 203.265133 317.465699 201.062166 317.465699 198.76544 
C 317.465699 196.468713 316.5532 194.265746 314.929169 192.641715 
C 313.305138 191.017684 311.102171 190.105185 308.805445 190.105185 
C 306.508719 190.105185 304.305751 191.017684 302.68172 192.641715 
C 301.05769 194.265746 300.145191 196.468713 300.145191 198.76544 
C 300.145191 201.062166 301.05769 203.265133 302.68172 204.889164 
C 304.305751 206.513195 306.508719 207.425694 308.805445 207.425694 
z
" clip-path="url(#p57656de234)" style="fill: #ffffff; stroke: #000000"/>
    <path d="M 308.805445 181.460254 
C 311.102171 181.460254 313.305138 180.547755 314.929169 178.923724 
C 316.5532 177.299694 317.465699 175.096726 317.465699 172.8 
C 317.465699 170.503274 316.5532 168.300306 314.929169 166.676276 
C 313.305138 165.052245 311.102171 164.139746 308.805445 164.139746 
C 306.508719 164.139746 304.305751 165.052245 302.68172 166.676276 
C 301.05769 168.300306 300.145191 170.503274 300.145191 172.8 
C 300.145191 175.096726 301.05769 177.299694 302.68172 178.923724 
C 304.305751 180.547755 306.508719 181.460254 308.805445 181.460254 
z
" clip-path="url(#p57656de234)" style="fill: #ffffff; stroke: #000000"/>
    <path d="M 331.207 168.477534 
C 333.503727 168.477534 335.706694 167.565035 337.330725 165.941005 
C 338.954756 164.316974 339.867255 162.114006 339.867255 159.81728 
C 339.867255 157.520554 338.954756 155.317587 337.330725 153.693556 
C 335.706694 152.069525 333.503727 151.157026 331.207 151.157026 
C 328.910274 151.157026 326.707307 152.069525 325.083276 153.693556 
C 323.459245 155.317587 322.546746 157.520554 322.546746 159.81728 
C 322.546746 162.114006 323.459245 164.316974 325.083276 165.941005 
C 326.707307 167.565035 328.910274 168.477534 331.207 168.477534 
z
" clip-path="url(#p57656de234)" style="fill: #ffffff; stroke: #000000"/>
    <path d="M 331.207 194.442974 
C 333.503727 194.442974 335.706694 193.530475 337.330725 191.906444 
C 338.954756 190.282413 339.867255 188.079446 339.867255 185.78272 
C 339.867255 183.485994 338.954756 181.283026 337.330725 179.658995 
C 335.706694 178.034965 333.503727 177.122466 331.207 177.122466 
C 328.910274 177.122466 326.707307 178.034965 325.083276 179.658995 
C 323.459245 181.283026 322.546746 183.485994 322.546746 185.78272 
C 322.546746 188.079446 323.459245 190.282413 325.083276 191.906444 
C 326.707307 193.530475 328.910274 194.442974 331.207 194.442974 
z
" clip-path="url(#p57656de234)" style="fill: #ffffff; stroke: #000000"/>
    <path d="M 353.608556 181.460254 
C 355.905282 181.460254 358.10825 180.547755 359.732281 178.923724 
C 361.356311 177.299694 362.26881 175.096726 362.26881 172.8 
C 362.26881 170.503274 361.356311 168.300306 359.732281 166.676276 
C 358.10825 165.052245 355.905282 164.139746 353.608556 164.139746 
C 351.31183 164.139746 349.108862 165.052245 347.484832 166.676276 
C 345.860801 168.300306 344.948302 170.503274 344.948302 172.8 
C 344.948302 175.096726 345.860801 177.299694 347.484832 178.923724 
C 349.108862 180.547755 351.31183 181.460254 353.608556 181.460254 
z
" clip-path="url(#p57656de234)" style="fill: #ffffff; stroke: #000000"/>
    <path d="M 376.010112 181.460254 
C 378.306838 181.460254 380.509805 180.547755 382.133836 178.923724 
C 383.757867 177.299694 384.670366 175.096726 384.670366 172.8 
C 384.670366 170.503274 383.757867 168.300306 382.133836 166.676276 
C 380.509805 165.052245 378.306838 164.139746 376.010112 164.139746 
C 373.713386 164.139746 371.510418 165.052245 369.886387 166.676276 
C 368.262357 168.300306 367.349858 170.503274 367.349858 172.8 
C 367.349858 175.096726 368.262357 177.299694 369.886387 178.923724 
C 371.510418 180.547755 373.713386 181.460254 376.010112 181.460254 
z
" clip-path="url(#p57656de234)" style="fill: #ffffff; stroke: #000000"/>
    <path d="M 398.411667 181.460254 
C 400.708394 181.460254 402.911361 180.547755 404.535392 178.923724 
C 406.159423 177.299694 407.071922 175.096726 407.071922 172.8 
C 407.071922 170.503274 406.159423 168.300306 404.535392 166.676276 
C 402.911361 165.052245 400.708394 164.139746 398.411667 164.139746 
C 396.114941 164.139746 393.911974 165.052245 392.287943 166.676276 
C 390.663912 168.300306 389.751413 170.503274 389.751413 172.8 
C 389.751413 175.096726 390.663912 177.299694 392.287943 178.923724 
C 393.911974 180.547755 396.114941 181.460254 398.411667 181.460254 
z
" clip-path="url(#p57656de234)" style="fill: #ffffff; stroke: #000000"/>
    <path d="M 420.813223 181.460254 
C 423.109949 181.460254 425.312917 180.547755 426.936947 178.923724 
C 428.560978 177.299694 429.473477 175.096726 429.473477 172.8 
C 429.473477 170.503274 428.560978 168.300306 426.936947 166.676276 
C 425.312917 165.052245 423.109949 164.139746 420.813223 164.139746 
C 418.516497 164.139746 416.313529 165.052245 414.689499 166.676276 
C 413.065468 168.300306 412.152969 170.503274 412.152969 172.8 
C 412.152969 175.096726 413.065468 177.299694 414.689499 178.923724 
C 416.313529 180.547755 418.516497 181.460254 420.813223 181.460254 
z
" clip-path="url(#p57656de234)" style="fill: #0000ff; stroke: #000000"/>
   </g>
  </g>
 </g>
 <defs>
  <clipPath id="p57656de234">
   <rect x="0" y="0" width="460.8" height="345.6"/>
  </clipPath>
 </defs>
</svg>
