<?xml version="1.0" encoding="utf-8" standalone="no"?>
<!DOCTYPE svg PUBLIC "-//W3C//DTD SVG 1.1//EN"
  "http://www.w3.org/Graphics/SVG/1.1/DTD/svg11.dtd">
<svg xmlns:xlink="http://www.w3.org/1999/xlink" width="460.8pt" height="345.6pt" viewBox="0 0 460.8 345.6" xmlns="http://www.w3.org/2000/svg" version="1.1">
 <metadata>
  <rdf:RDF xmlns:dc="http://purl.org/dc/elements/1.1/" xmlns:cc="http://creativecommons.org/ns#" xmlns:rdf="http://www.w3.org/1999/02/22-rdf-syntax-ns#">
   <cc:Work>
    <dc:type rdf:resource="http://purl.org/dc/dcmitype/StillImage"/>
    <dc:date>2025-11-07T08:43:45.260471</dc:date>
    <dc:format>image/svg+xml</dc:format>
    <dc:creator>
     <cc:Agent>
      <dc:title>Matplotlib v3.10.5, https://matplotlib.org/</dc:title>
     </cc:Agent>
    </dc:creator>
   </cc:Work>
  </rdf:RDF>
 </metadata>
 <defs>
  <style type="text/css">*{stroke-linejoin: round; stroke-linecap: butt}</style>
 </defs>
 <g id="figure_1">
  <g id="patch_1">
   <path d="M 0 345.6 
L 460.8 345.6 
L 460.8 0 
L 0 0 
z
" style="fill: #ffffff"/>
  </g>
  <g id="axes_1">
   <g id="patch_2">
    <path d="M 45.960434 309.337577 
Q 53.588034 301.328597 60.444576 294.129228 
" clip-path="url(#pd8a492b2c5)" style="fill: none; stroke: #4c4c4c; stroke-linecap: round"/>
    <path d="M 59.182507 294.5844 
L 60.444576 294.129228 
L 60.051473 295.411986 
" clip-path="url(#pd8a492b2c5)" style="fill: none; stroke: #4c4c4c; stroke-linecap: round"/>
   </g>
   <g id="patch_3">
    <path d="M 48.018548 312.366317 
Q 216.800621 244.204327 384.546005 176.460998 
" clip-path="url(#pd8a492b2c5)" style="fill: none; stroke: #4c4c4c; stroke-linecap: round"/>
    <path d="M 383.208637 176.354009 
L 384.546005 176.460998 
L 383.657993 177.466699 
" clip-path="url(#pd8a492b2c5)" style="fill: none; stroke: #4c4c4c; stroke-linecap: round"/>
   </g>
   <g id="patch_4">
    <path d="M 48.081846 312.519073 
Q 189.600054 258.484848 330.073775 204.849427 
" clip-path="url(#pd8a492b2c5)" style="fill: none; stroke: #4c4c4c; stroke-linecap: round"/>
    <path d="M 328.738692 204.716938 
L 330.073775 204.849427 
L 329.166734 205.838 
" clip-path="url(#pd8a492b2c5)" style="fill: none; stroke: #4c4c4c; stroke-linecap: round"/>
   </g>
   <g id="patch_5">
    <path d="M 45.960434 252.213611 
Q 53.588034 244.20463 60.444576 237.005261 
" clip-path="url(#pd8a492b2c5)" style="fill: none; stroke: #4c4c4c; stroke-linecap: round"/>
    <path d="M 59.182507 237.460433 
L 60.444576 237.005261 
L 60.051473 238.28802 
" clip-path="url(#pd8a492b2c5)" style="fill: none; stroke: #4c4c4c; stroke-linecap: round"/>
   </g>
   <g id="patch_6">
    <path d="M 48.045735 255.312736 
Q 148.793271 215.643393 248.500512 176.383667 
" clip-path="url(#pd8a492b2c5)" style="fill: none; stroke: #4c4c4c; stroke-linecap: round"/>
    <path d="M 247.164126 176.265033 
L 248.500512 176.383667 
L 247.603773 177.381595 
" clip-path="url(#pd8a492b2c5)" style="fill: none; stroke: #4c4c4c; stroke-linecap: round"/>
   </g>
   <g id="patch_7">
    <path d="M 45.463183 251.777353 
Q 121.592862 158.518496 197.015522 66.125737 
" clip-path="url(#pd8a492b2c5)" style="fill: none; stroke: #4c4c4c; stroke-linecap: round"/>
    <path d="M 195.791874 66.675905 
L 197.015522 66.125737 
L 196.721467 67.434756 
" clip-path="url(#pd8a492b2c5)" style="fill: none; stroke: #4c4c4c; stroke-linecap: round"/>
   </g>
   <g id="patch_8">
    <path d="M 48.549212 200.077618 
Q 135.191667 187.08125 220.728458 174.250731 
" clip-path="url(#pd8a492b2c5)" style="fill: none; stroke: #4c4c4c; stroke-linecap: round"/>
    <path d="M 219.45273 173.835378 
L 220.728458 174.250731 
L 219.630738 175.022102 
" clip-path="url(#pd8a492b2c5)" style="fill: none; stroke: #4c4c4c; stroke-linecap: round"/>
   </g>
   <g id="patch_9">
    <path d="M 48.617491 200.664887 
Q 216.799094 187.080989 383.866293 173.5871 
" clip-path="url(#pd8a492b2c5)" style="fill: none; stroke: #4c4c4c; stroke-linecap: round"/>
    <path d="M 382.621883 173.085656 
L 383.866293 173.5871 
L 382.718492 174.28176 
" clip-path="url(#pd8a492b2c5)" style="fill: none; stroke: #4c4c4c; stroke-linecap: round"/>
   </g>
   <g id="patch_10">
    <path d="M 45.960434 195.089644 
Q 53.588034 187.080663 60.444576 179.881294 
" clip-path="url(#pd8a492b2c5)" style="fill: none; stroke: #4c4c4c; stroke-linecap: round"/>
    <path d="M 59.182507 180.336466 
L 60.444576 179.881294 
L 60.051473 181.164053 
" clip-path="url(#pd8a492b2c5)" style="fill: none; stroke: #4c4c4c; stroke-linecap: round"/>
   </g>
   <g id="patch_11">
    <path d="M 42.607515 193.106657 
Q 53.587566 158.519497 64.229323 124.997963 
" clip-path="url(#pd8a492b2c5)" style="fill: none; stroke: #4c4c4c; stroke-linecap: round"/>
    <path d="M 63.294353 125.960165 
L 64.229323 124.997963 
L 64.438103 126.32326 
" clip-path="url(#pd8a492b2c5)" style="fill: none; stroke: #4c4c4c; stroke-linecap: round"/>
   </g>
   <g id="patch_12">
    <path d="M 48.162784 204.223586 
Q 80.792462 215.643973 112.366874 226.695017 
" clip-path="url(#pd8a492b2c5)" style="fill: none; stroke: #4c4c4c; stroke-linecap: round"/>
    <path d="M 111.432454 225.732282 
L 112.366874 226.695017 
L 111.036033 226.864912 
" clip-path="url(#pd8a492b2c5)" style="fill: none; stroke: #4c4c4c; stroke-linecap: round"/>
   </g>
   <g id="patch_13">
    <path d="M 48.599436 200.457654 
Q 175.995914 187.081024 302.280471 173.821146 
" clip-path="url(#pd8a492b2c5)" style="fill: none; stroke: #4c4c4c; stroke-linecap: round"/>
    <path d="M 301.024377 173.349737 
L 302.280471 173.821146 
L 301.149688 174.543176 
" clip-path="url(#pd8a492b2c5)" style="fill: none; stroke: #4c4c4c; stroke-linecap: round"/>
   </g>
   <g id="patch_14">
    <path d="M 41.608032 192.850394 
Q 53.588415 129.953382 65.359601 68.154658 
" clip-path="url(#pd8a492b2c5)" style="fill: none; stroke: #4c4c4c; stroke-linecap: round"/>
    <path d="M 64.545663 69.221197 
L 65.359601 68.154658 
L 65.724469 69.445731 
" clip-path="url(#pd8a492b2c5)" style="fill: none; stroke: #4c4c4c; stroke-linecap: round"/>
   </g>
   <g id="patch_15">
    <path d="M 48.516422 142.745329 
Q 121.592285 129.957053 193.566851 117.361504 
" clip-path="url(#pd8a492b2c5)" style="fill: none; stroke: #4c4c4c; stroke-linecap: round"/>
    <path d="M 192.281386 116.977342 
L 193.566851 117.361504 
L 192.488243 118.159378 
" clip-path="url(#pd8a492b2c5)" style="fill: none; stroke: #4c4c4c; stroke-linecap: round"/>
   </g>
   <g id="patch_16">
    <path d="M 44.627236 151.546739 
Q 94.389373 229.922105 143.552234 307.353611 
" clip-path="url(#pd8a492b2c5)" style="fill: none; stroke: #4c4c4c; stroke-linecap: round"/>
    <path d="M 143.415552 306.018951 
L 143.552234 307.353611 
L 142.402497 306.662161 
" clip-path="url(#pd8a492b2c5)" style="fill: none; stroke: #4c4c4c; stroke-linecap: round"/>
   </g>
   <g id="patch_17">
    <path d="M 48.492763 145.861887 
Q 189.598296 172.800216 329.605629 199.528888 
" clip-path="url(#pd8a492b2c5)" style="fill: none; stroke: #4c4c4c; stroke-linecap: round"/>
    <path d="M 328.53943 198.714505 
L 329.605629 199.528888 
L 328.314403 199.893218 
" clip-path="url(#pd8a492b2c5)" style="fill: none; stroke: #4c4c4c; stroke-linecap: round"/>
   </g>
   <g id="patch_18">
    <path d="M 44.627236 94.422772 
Q 94.389373 172.798138 143.552234 250.229645 
" clip-path="url(#pd8a492b2c5)" style="fill: none; stroke: #4c4c4c; stroke-linecap: round"/>
    <path d="M 143.415552 248.894984 
L 143.552234 250.229645 
L 142.402497 249.538194 
" clip-path="url(#pd8a492b2c5)" style="fill: none; stroke: #4c4c4c; stroke-linecap: round"/>
   </g>
   <g id="patch_19">
    <path d="M 48.401656 89.153039 
Q 216.799094 129.957034 384.109942 170.49774 
" clip-path="url(#pd8a492b2c5)" style="fill: none; stroke: #4c4c4c; stroke-linecap: round"/>
    <path d="M 383.084986 169.632022 
L 384.109942 170.49774 
L 382.802395 170.798274 
" clip-path="url(#pd8a492b2c5)" style="fill: none; stroke: #4c4c4c; stroke-linecap: round"/>
   </g>
   <g id="patch_20">
    <path d="M 48.432993 89.014448 
Q 230.399909 129.957004 411.276059 170.654138 
" clip-path="url(#pd8a492b2c5)" style="fill: none; stroke: #4c4c4c; stroke-linecap: round"/>
    <path d="M 410.237035 169.805358 
L 411.276059 170.654138 
L 409.97362 170.976089 
" clip-path="url(#pd8a492b2c5)" style="fill: none; stroke: #4c4c4c; stroke-linecap: round"/>
   </g>
   <g id="patch_21">
    <path d="M 47.968532 90.466387 
Q 107.99128 115.675941 166.98322 140.452555 
" clip-path="url(#pd8a492b2c5)" style="fill: none; stroke: #4c4c4c; stroke-linecap: round"/>
    <path d="M 166.10918 139.434687 
L 166.98322 140.452555 
L 165.644501 140.541066 
" clip-path="url(#pd8a492b2c5)" style="fill: none; stroke: #4c4c4c; stroke-linecap: round"/>
   </g>
   <g id="patch_22">
    <path d="M 44.626406 37.297498 
Q 121.59064 158.516168 197.9556 278.790979 
" clip-path="url(#pd8a492b2c5)" style="fill: none; stroke: #4c4c4c; stroke-linecap: round"/>
    <path d="M 197.818918 277.456319 
L 197.9556 278.790979 
L 196.805862 278.099528 
" clip-path="url(#pd8a492b2c5)" style="fill: none; stroke: #4c4c4c; stroke-linecap: round"/>
   </g>
   <g id="patch_23">
    <path d="M 75.364673 232.785569 
Q 107.994351 244.205957 139.568763 255.257001 
" clip-path="url(#pd8a492b2c5)" style="fill: none; stroke: #4c4c4c; stroke-linecap: round"/>
    <path d="M 138.634343 254.294265 
L 139.568763 255.257001 
L 138.237922 255.426895 
" clip-path="url(#pd8a492b2c5)" style="fill: none; stroke: #4c4c4c; stroke-linecap: round"/>
   </g>
   <g id="patch_24">
    <path d="M 69.809405 278.792607 
Q 80.789455 244.205448 91.431212 210.683914 
" clip-path="url(#pd8a492b2c5)" style="fill: none; stroke: #4c4c4c; stroke-linecap: round"/>
    <path d="M 90.496242 211.646115 
L 91.431212 210.683914 
L 91.639992 212.00921 
" clip-path="url(#pd8a492b2c5)" style="fill: none; stroke: #4c4c4c; stroke-linecap: round"/>
   </g>
   <g id="patch_25">
    <path d="M 72.436784 179.688155 
Q 121.592595 244.205157 170.070829 307.832839 
" clip-path="url(#pd8a492b2c5)" style="fill: none; stroke: #4c4c4c; stroke-linecap: round"/>
    <path d="M 169.820836 306.514695 
L 170.070829 307.832839 
L 168.866318 307.241947 
" clip-path="url(#pd8a492b2c5)" style="fill: none; stroke: #4c4c4c; stroke-linecap: round"/>
   </g>
   <g id="patch_26">
    <path d="M 75.801325 171.895671 
Q 203.197803 158.519041 329.48236 145.259162 
" clip-path="url(#pd8a492b2c5)" style="fill: none; stroke: #4c4c4c; stroke-linecap: round"/>
    <path d="M 328.226266 144.787754 
L 329.48236 145.259162 
L 328.351577 145.981193 
" clip-path="url(#pd8a492b2c5)" style="fill: none; stroke: #4c4c4c; stroke-linecap: round"/>
   </g>
   <g id="patch_27">
    <path d="M 73.162323 121.948373 
Q 80.789923 129.957353 87.646465 137.156723 
" clip-path="url(#pd8a492b2c5)" style="fill: none; stroke: #4c4c4c; stroke-linecap: round"/>
    <path d="M 87.253362 135.873964 
L 87.646465 137.156723 
L 86.384396 136.70155 
" clip-path="url(#pd8a492b2c5)" style="fill: none; stroke: #4c4c4c; stroke-linecap: round"/>
   </g>
   <g id="patch_28">
    <path d="M 70.462306 123.696452 
Q 107.991422 215.642786 145.098036 306.553991 
" clip-path="url(#pd8a492b2c5)" style="fill: none; stroke: #4c4c4c; stroke-linecap: round"/>
    <path d="M 145.200069 305.216235 
L 145.098036 306.553991 
L 144.089051 305.669712 
" clip-path="url(#pd8a492b2c5)" style="fill: none; stroke: #4c4c4c; stroke-linecap: round"/>
   </g>
   <g id="patch_29">
    <path d="M 73.819375 64.121862 
Q 135.193137 115.675822 195.710814 166.51067 
" clip-path="url(#pd8a492b2c5)" style="fill: none; stroke: #4c4c4c; stroke-linecap: round"/>
    <path d="M 195.177883 165.279417 
L 195.710814 166.51067 
L 194.406053 166.198263 
" clip-path="url(#pd8a492b2c5)" style="fill: none; stroke: #4c4c4c; stroke-linecap: round"/>
   </g>
   <g id="patch_30">
    <path d="M 100.364212 207.634323 
Q 107.991812 215.643304 114.848354 222.842673 
" clip-path="url(#pd8a492b2c5)" style="fill: none; stroke: #4c4c4c; stroke-linecap: round"/>
    <path d="M 114.455251 221.559914 
L 114.848354 222.842673 
L 113.586285 222.387501 
" clip-path="url(#pd8a492b2c5)" style="fill: none; stroke: #4c4c4c; stroke-linecap: round"/>
   </g>
   <g id="patch_31">
    <path d="M 102.821829 199.394686 
Q 216.796353 172.800631 329.682089 146.460625 
" clip-path="url(#pd8a492b2c5)" style="fill: none; stroke: #4c4c4c; stroke-linecap: round"/>
    <path d="M 328.377142 146.148996 
L 329.682089 146.460625 
L 328.649818 147.317606 
" clip-path="url(#pd8a492b2c5)" style="fill: none; stroke: #4c4c4c; stroke-linecap: round"/>
   </g>
   <g id="patch_32">
    <path d="M 100.364212 195.089644 
Q 107.991812 187.080663 114.848354 179.881294 
" clip-path="url(#pd8a492b2c5)" style="fill: none; stroke: #4c4c4c; stroke-linecap: round"/>
    <path d="M 113.586285 180.336466 
L 114.848354 179.881294 
L 114.455251 181.164053 
" clip-path="url(#pd8a492b2c5)" style="fill: none; stroke: #4c4c4c; stroke-linecap: round"/>
   </g>
   <g id="patch_33">
    <path d="M 98.114544 152.058394 
Q 121.593076 201.363311 144.590928 249.658799 
" clip-path="url(#pd8a492b2c5)" style="fill: none; stroke: #4c4c4c; stroke-linecap: round"/>
    <path d="M 144.616724 248.317406 
L 144.590928 249.658799 
L 143.533291 248.833327 
" clip-path="url(#pd8a492b2c5)" style="fill: none; stroke: #4c4c4c; stroke-linecap: round"/>
   </g>
   <g id="patch_34">
    <path d="M 101.716503 148.853364 
Q 162.396223 187.081587 222.129983 224.713856 
" clip-path="url(#pd8a492b2c5)" style="fill: none; stroke: #4c4c4c; stroke-linecap: round"/>
    <path d="M 221.434496 223.566556 
L 222.129983 224.713856 
L 220.794851 224.581866 
" clip-path="url(#pd8a492b2c5)" style="fill: none; stroke: #4c4c4c; stroke-linecap: round"/>
   </g>
   <g id="patch_35">
    <path d="M 100.364212 137.965677 
Q 107.991812 129.956696 114.848354 122.757327 
" clip-path="url(#pd8a492b2c5)" style="fill: none; stroke: #4c4c4c; stroke-linecap: round"/>
    <path d="M 113.586285 123.212499 
L 114.848354 122.757327 
L 114.455251 124.040086 
" clip-path="url(#pd8a492b2c5)" style="fill: none; stroke: #4c4c4c; stroke-linecap: round"/>
   </g>
   <g id="patch_36">
    <path d="M 127.566101 223.651627 
Q 135.193701 215.642647 142.050243 208.443277 
" clip-path="url(#pd8a492b2c5)" style="fill: none; stroke: #4c4c4c; stroke-linecap: round"/>
    <path d="M 140.788174 208.89845 
L 142.050243 208.443277 
L 141.65714 209.726036 
" clip-path="url(#pd8a492b2c5)" style="fill: none; stroke: #4c4c4c; stroke-linecap: round"/>
   </g>
   <g id="patch_37">
    <path d="M 125.316848 222.102718 
Q 162.395892 144.236726 198.994256 67.380162 
" clip-path="url(#pd8a492b2c5)" style="fill: none; stroke: #4c4c4c; stroke-linecap: round"/>
    <path d="M 197.936619 68.205635 
L 198.994256 67.380162 
L 199.020052 68.721555 
" clip-path="url(#pd8a492b2c5)" style="fill: none; stroke: #4c4c4c; stroke-linecap: round"/>
   </g>
   <g id="patch_38">
    <path d="M 124.213183 238.179294 
Q 135.193233 272.766453 145.83499 306.287987 
" clip-path="url(#pd8a492b2c5)" style="fill: none; stroke: #4c4c4c; stroke-linecap: round"/>
    <path d="M 146.04377 304.962691 
L 145.83499 306.287987 
L 144.90002 305.325785 
" clip-path="url(#pd8a492b2c5)" style="fill: none; stroke: #4c4c4c; stroke-linecap: round"/>
   </g>
   <g id="patch_39">
    <path d="M 127.566101 236.196307 
Q 135.193701 244.205287 142.050243 251.404656 
" clip-path="url(#pd8a492b2c5)" style="fill: none; stroke: #4c4c4c; stroke-linecap: round"/>
    <path d="M 141.65714 250.121898 
L 142.050243 251.404656 
L 140.788174 250.949484 
" clip-path="url(#pd8a492b2c5)" style="fill: none; stroke: #4c4c4c; stroke-linecap: round"/>
   </g>
   <g id="patch_40">
    <path d="M 127.566101 121.948373 
Q 135.193701 129.957353 142.050243 137.156723 
" clip-path="url(#pd8a492b2c5)" style="fill: none; stroke: #4c4c4c; stroke-linecap: round"/>
    <path d="M 141.65714 135.873964 
L 142.050243 137.156723 
L 140.788174 136.70155 
" clip-path="url(#pd8a492b2c5)" style="fill: none; stroke: #4c4c4c; stroke-linecap: round"/>
   </g>
   <g id="patch_41">
    <path d="M 127.566101 109.403693 
Q 135.193701 101.394713 142.050243 94.195344 
" clip-path="url(#pd8a492b2c5)" style="fill: none; stroke: #4c4c4c; stroke-linecap: round"/>
    <path d="M 140.788174 94.650516 
L 142.050243 94.195344 
L 141.65714 95.478102 
" clip-path="url(#pd8a492b2c5)" style="fill: none; stroke: #4c4c4c; stroke-linecap: round"/>
   </g>
   <g id="patch_42">
    <path d="M 123.213699 164.28841 
Q 135.194082 101.391398 146.965268 39.592674 
" clip-path="url(#pd8a492b2c5)" style="fill: none; stroke: #4c4c4c; stroke-linecap: round"/>
    <path d="M 146.15133 40.659213 
L 146.965268 39.592674 
L 147.330136 40.883748 
" clip-path="url(#pd8a492b2c5)" style="fill: none; stroke: #4c4c4c; stroke-linecap: round"/>
   </g>
   <g id="patch_43">
    <path d="M 126.232903 180.108723 
Q 148.793297 215.641343 170.754415 250.230105 
" clip-path="url(#pd8a492b2c5)" style="fill: none; stroke: #4c4c4c; stroke-linecap: round"/>
    <path d="M 170.617733 248.895445 
L 170.754415 250.230105 
L 169.604678 249.538654 
" clip-path="url(#pd8a492b2c5)" style="fill: none; stroke: #4c4c4c; stroke-linecap: round"/>
   </g>
   <g id="patch_44">
    <path d="M 156.276762 311.245167 
Q 271.204913 244.203746 385.16733 177.725669 
" clip-path="url(#pd8a492b2c5)" style="fill: none; stroke: #4c4c4c; stroke-linecap: round"/>
    <path d="M 383.828473 177.812047 
L 385.16733 177.725669 
L 384.433118 178.848582 
" clip-path="url(#pd8a492b2c5)" style="fill: none; stroke: #4c4c4c; stroke-linecap: round"/>
   </g>
   <g id="patch_45">
    <path d="M 152.518322 307.78954 
Q 162.395118 287.048269 171.791234 267.316426 
" clip-path="url(#pd8a492b2c5)" style="fill: none; stroke: #4c4c4c; stroke-linecap: round"/>
    <path d="M 170.733597 268.141898 
L 171.791234 267.316426 
L 171.81703 268.657819 
" clip-path="url(#pd8a492b2c5)" style="fill: none; stroke: #4c4c4c; stroke-linecap: round"/>
   </g>
   <g id="patch_46">
    <path d="M 157.45763 315.609917 
Q 162.397784 315.609917 166.219905 315.609917 
" clip-path="url(#pd8a492b2c5)" style="fill: none; stroke: #4c4c4c; stroke-linecap: round"/>
    <path d="M 165.019905 315.009917 
L 166.219905 315.609917 
L 165.019905 316.209917 
" clip-path="url(#pd8a492b2c5)" style="fill: none; stroke: #4c4c4c; stroke-linecap: round"/>
   </g>
   <g id="patch_47">
    <path d="M 150.800771 307.182877 
Q 162.395461 258.485179 173.731191 210.875112 
" clip-path="url(#pd8a492b2c5)" style="fill: none; stroke: #4c4c4c; stroke-linecap: round"/>
    <path d="M 172.869563 211.903507 
L 173.731191 210.875112 
L 174.036931 212.181451 
" clip-path="url(#pd8a492b2c5)" style="fill: none; stroke: #4c4c4c; stroke-linecap: round"/>
   </g>
   <g id="patch_48">
    <path d="M 157.172063 256.286796 
Q 203.198824 244.204771 248.144188 232.406613 
" clip-path="url(#pd8a492b2c5)" style="fill: none; stroke: #4c4c4c; stroke-linecap: round"/>
    <path d="M 246.831172 232.130953 
L 248.144188 232.406613 
L 247.13585 233.29163 
" clip-path="url(#pd8a492b2c5)" style="fill: none; stroke: #4c4c4c; stroke-linecap: round"/>
   </g>
   <g id="patch_49">
    <path d="M 156.462297 254.460269 
Q 230.399749 215.643107 303.347295 177.345645 
" clip-path="url(#pd8a492b2c5)" style="fill: none; stroke: #4c4c4c; stroke-linecap: round"/>
    <path d="M 302.005918 177.372207 
L 303.347295 177.345645 
L 302.563718 178.434684 
" clip-path="url(#pd8a492b2c5)" style="fill: none; stroke: #4c4c4c; stroke-linecap: round"/>
   </g>
   <g id="patch_50">
    <path d="M 156.217822 254.031857 
Q 244.000457 201.362276 330.824385 149.267919 
" clip-path="url(#pd8a492b2c5)" style="fill: none; stroke: #4c4c4c; stroke-linecap: round"/>
    <path d="M 329.486696 149.370818 
L 330.824385 149.267919 
L 330.104091 150.39981 
" clip-path="url(#pd8a492b2c5)" style="fill: none; stroke: #4c4c4c; stroke-linecap: round"/>
   </g>
   <g id="patch_51">
    <path d="M 150.800771 135.810976 
Q 162.395461 87.113278 173.731191 39.503211 
" clip-path="url(#pd8a492b2c5)" style="fill: none; stroke: #4c4c4c; stroke-linecap: round"/>
    <path d="M 172.869563 40.531606 
L 173.731191 39.503211 
L 174.036931 40.809551 
" clip-path="url(#pd8a492b2c5)" style="fill: none; stroke: #4c4c4c; stroke-linecap: round"/>
   </g>
   <g id="patch_52">
    <path d="M 151.068075 95.470051 
Q 175.99601 187.080212 200.630391 277.611564 
" clip-path="url(#pd8a492b2c5)" style="fill: none; stroke: #4c4c4c; stroke-linecap: round"/>
    <path d="M 200.894266 276.296129 
L 200.630391 277.611564 
L 199.736368 276.611203 
" clip-path="url(#pd8a492b2c5)" style="fill: none; stroke: #4c4c4c; stroke-linecap: round"/>
   </g>
   <g id="patch_53">
    <path d="M 152.518322 37.81046 
Q 162.395118 58.551731 171.791234 78.283574 
" clip-path="url(#pd8a492b2c5)" style="fill: none; stroke: #4c4c4c; stroke-linecap: round"/>
    <path d="M 171.81703 76.942181 
L 171.791234 78.283574 
L 170.733597 77.458102 
" clip-path="url(#pd8a492b2c5)" style="fill: none; stroke: #4c4c4c; stroke-linecap: round"/>
   </g>
   <g id="patch_54">
    <path d="M 150.800771 38.417123 
Q 162.395461 87.114821 173.731191 134.724888 
" clip-path="url(#pd8a492b2c5)" style="fill: none; stroke: #4c4c4c; stroke-linecap: round"/>
    <path d="M 174.036931 133.418549 
L 173.731191 134.724888 
L 172.869563 133.696493 
" clip-path="url(#pd8a492b2c5)" style="fill: none; stroke: #4c4c4c; stroke-linecap: round"/>
   </g>
   <g id="patch_55">
    <path d="M 150.15202 192.808555 
Q 162.395245 115.676235 174.463199 39.648126 
" clip-path="url(#pd8a492b2c5)" style="fill: none; stroke: #4c4c4c; stroke-linecap: round"/>
    <path d="M 173.682497 40.739228 
L 174.463199 39.648126 
L 174.86766 40.927349 
" clip-path="url(#pd8a492b2c5)" style="fill: none; stroke: #4c4c4c; stroke-linecap: round"/>
   </g>
   <g id="patch_56">
    <path d="M 181.969879 309.337577 
Q 189.597479 301.328597 196.454021 294.129228 
" clip-path="url(#pd8a492b2c5)" style="fill: none; stroke: #4c4c4c; stroke-linecap: round"/>
    <path d="M 195.191953 294.5844 
L 196.454021 294.129228 
L 196.060918 295.411986 
" clip-path="url(#pd8a492b2c5)" style="fill: none; stroke: #4c4c4c; stroke-linecap: round"/>
   </g>
   <g id="patch_57">
    <path d="M 181.970709 309.336706 
Q 257.603274 229.922513 332.46478 151.317931 
" clip-path="url(#pd8a492b2c5)" style="fill: none; stroke: #4c4c4c; stroke-linecap: round"/>
    <path d="M 331.202711 151.773104 
L 332.46478 151.317931 
L 332.071677 152.60069 
" clip-path="url(#pd8a492b2c5)" style="fill: none; stroke: #4c4c4c; stroke-linecap: round"/>
   </g>
   <g id="patch_58">
    <path d="M 178.616961 307.354591 
Q 189.597011 272.767431 200.238768 239.245897 
" clip-path="url(#pd8a492b2c5)" style="fill: none; stroke: #4c4c4c; stroke-linecap: round"/>
    <path d="M 199.303799 240.208099 
L 200.238768 239.245897 
L 200.447548 240.571194 
" clip-path="url(#pd8a492b2c5)" style="fill: none; stroke: #4c4c4c; stroke-linecap: round"/>
   </g>
   <g id="patch_59">
    <path d="M 184.172229 147.099619 
Q 257.60323 172.800469 329.978965 198.131977 
" clip-path="url(#pd8a492b2c5)" style="fill: none; stroke: #4c4c4c; stroke-linecap: round"/>
    <path d="M 329.044545 197.169241 
L 329.978965 198.131977 
L 328.648125 198.301871 
" clip-path="url(#pd8a492b2c5)" style="fill: none; stroke: #4c4c4c; stroke-linecap: round"/>
   </g>
   <g id="patch_60">
    <path d="M 177.617477 38.501672 
Q 189.59786 101.398684 201.369046 163.197408 
" clip-path="url(#pd8a492b2c5)" style="fill: none; stroke: #4c4c4c; stroke-linecap: round"/>
    <path d="M 201.733914 161.906335 
L 201.369046 163.197408 
L 200.555108 162.130869 
" clip-path="url(#pd8a492b2c5)" style="fill: none; stroke: #4c4c4c; stroke-linecap: round"/>
   </g>
   <g id="patch_61">
    <path d="M 184.172229 255.624348 
Q 257.60323 229.923498 329.978965 204.59199 
" clip-path="url(#pd8a492b2c5)" style="fill: none; stroke: #4c4c4c; stroke-linecap: round"/>
    <path d="M 328.648125 204.422096 
L 329.978965 204.59199 
L 329.044545 205.554726 
" clip-path="url(#pd8a492b2c5)" style="fill: none; stroke: #4c4c4c; stroke-linecap: round"/>
   </g>
   <g id="patch_62">
    <path d="M 178.616961 193.106657 
Q 189.597011 158.519497 200.238768 124.997963 
" clip-path="url(#pd8a492b2c5)" style="fill: none; stroke: #4c4c4c; stroke-linecap: round"/>
    <path d="M 199.303799 125.960165 
L 200.238768 124.997963 
L 200.447548 126.32326 
" clip-path="url(#pd8a492b2c5)" style="fill: none; stroke: #4c4c4c; stroke-linecap: round"/>
   </g>
   <g id="patch_63">
    <path d="M 181.969879 80.84171 
Q 189.597479 72.832729 196.454021 65.63336 
" clip-path="url(#pd8a492b2c5)" style="fill: none; stroke: #4c4c4c; stroke-linecap: round"/>
    <path d="M 195.191953 66.088533 
L 196.454021 65.63336 
L 196.060918 66.916119 
" clip-path="url(#pd8a492b2c5)" style="fill: none; stroke: #4c4c4c; stroke-linecap: round"/>
   </g>
   <g id="patch_64">
    <path d="M 205.204549 278.620894 
Q 216.799239 229.923196 228.134969 182.313128 
" clip-path="url(#pd8a492b2c5)" style="fill: none; stroke: #4c4c4c; stroke-linecap: round"/>
    <path d="M 227.273341 183.341523 
L 228.134969 182.313128 
L 228.440709 183.619468 
" clip-path="url(#pd8a492b2c5)" style="fill: none; stroke: #4c4c4c; stroke-linecap: round"/>
   </g>
   <g id="patch_65">
    <path d="M 206.9221 237.744344 
Q 216.798896 258.485616 226.195012 278.217458 
" clip-path="url(#pd8a492b2c5)" style="fill: none; stroke: #4c4c4c; stroke-linecap: round"/>
    <path d="M 226.220808 276.876066 
L 226.195012 278.217458 
L 225.137375 277.391986 
" clip-path="url(#pd8a492b2c5)" style="fill: none; stroke: #4c4c4c; stroke-linecap: round"/>
   </g>
   <g id="patch_66">
    <path d="M 210.524059 225.30862 
Q 271.203779 187.080396 330.937539 149.448127 
" clip-path="url(#pd8a492b2c5)" style="fill: none; stroke: #4c4c4c; stroke-linecap: round"/>
    <path d="M 329.602407 149.580117 
L 330.937539 149.448127 
L 330.242052 150.595427 
" clip-path="url(#pd8a492b2c5)" style="fill: none; stroke: #4c4c4c; stroke-linecap: round"/>
   </g>
   <g id="patch_67">
    <path d="M 205.204549 124.103073 
Q 216.799239 172.800771 228.134969 220.410839 
" clip-path="url(#pd8a492b2c5)" style="fill: none; stroke: #4c4c4c; stroke-linecap: round"/>
    <path d="M 228.440709 219.104499 
L 228.134969 220.410839 
L 227.273341 219.382444 
" clip-path="url(#pd8a492b2c5)" style="fill: none; stroke: #4c4c4c; stroke-linecap: round"/>
   </g>
   <g id="patch_68">
    <path d="M 209.171768 179.07234 
Q 230.399851 201.361827 250.856876 222.841704 
" clip-path="url(#pd8a492b2c5)" style="fill: none; stroke: #4c4c4c; stroke-linecap: round"/>
    <path d="M 250.463773 221.558945 
L 250.856876 222.841704 
L 249.594807 222.386531 
" clip-path="url(#pd8a492b2c5)" style="fill: none; stroke: #4c4c4c; stroke-linecap: round"/>
   </g>
   <g id="patch_69">
    <path d="M 211.861408 172.8 
Q 216.801563 172.8 220.623683 172.8 
" clip-path="url(#pd8a492b2c5)" style="fill: none; stroke: #4c4c4c; stroke-linecap: round"/>
    <path d="M 219.423683 172.2 
L 220.623683 172.8 
L 219.423683 173.4 
" clip-path="url(#pd8a492b2c5)" style="fill: none; stroke: #4c4c4c; stroke-linecap: round"/>
   </g>
   <g id="patch_70">
    <path d="M 206.9221 66.372443 
Q 216.798896 87.113715 226.195012 106.845558 
" clip-path="url(#pd8a492b2c5)" style="fill: none; stroke: #4c4c4c; stroke-linecap: round"/>
    <path d="M 226.220808 105.504165 
L 226.195012 106.845558 
L 225.137375 106.020085 
" clip-path="url(#pd8a492b2c5)" style="fill: none; stroke: #4c4c4c; stroke-linecap: round"/>
   </g>
   <g id="patch_71">
    <path d="M 211.861408 58.552066 
Q 216.801563 58.552066 220.623683 58.552066 
" clip-path="url(#pd8a492b2c5)" style="fill: none; stroke: #4c4c4c; stroke-linecap: round"/>
    <path d="M 219.423683 57.952066 
L 220.623683 58.552066 
L 219.423683 59.152066 
" clip-path="url(#pd8a492b2c5)" style="fill: none; stroke: #4c4c4c; stroke-linecap: round"/>
   </g>
   <g id="patch_72">
    <path d="M 234.123989 180.620377 
Q 244.000785 201.361649 253.396901 221.093491 
" clip-path="url(#pd8a492b2c5)" style="fill: none; stroke: #4c4c4c; stroke-linecap: round"/>
    <path d="M 253.422697 219.752099 
L 253.396901 221.093491 
L 252.339264 220.268019 
" clip-path="url(#pd8a492b2c5)" style="fill: none; stroke: #4c4c4c; stroke-linecap: round"/>
   </g>
   <g id="patch_73">
    <path d="M 232.406438 221.496927 
Q 244.001128 172.799229 255.336858 125.189161 
" clip-path="url(#pd8a492b2c5)" style="fill: none; stroke: #4c4c4c; stroke-linecap: round"/>
    <path d="M 254.47523 126.217556 
L 255.336858 125.189161 
L 255.642598 126.495501 
" clip-path="url(#pd8a492b2c5)" style="fill: none; stroke: #4c4c4c; stroke-linecap: round"/>
   </g>
   <g id="patch_74">
    <path d="M 234.123989 123.49641 
Q 244.000785 144.237682 253.396901 163.969524 
" clip-path="url(#pd8a492b2c5)" style="fill: none; stroke: #4c4c4c; stroke-linecap: round"/>
    <path d="M 253.422697 162.628132 
L 253.396901 163.969524 
L 252.339264 163.144052 
" clip-path="url(#pd8a492b2c5)" style="fill: none; stroke: #4c4c4c; stroke-linecap: round"/>
   </g>
   <g id="patch_75">
    <path d="M 234.123989 279.227557 
Q 257.602521 229.92264 280.600373 181.627151 
" clip-path="url(#pd8a492b2c5)" style="fill: none; stroke: #4c4c4c; stroke-linecap: round"/>
    <path d="M 279.542736 182.452624 
L 280.600373 181.627151 
L 280.626169 182.968544 
" clip-path="url(#pd8a492b2c5)" style="fill: none; stroke: #4c4c4c; stroke-linecap: round"/>
   </g>
   <g id="patch_76">
    <path d="M 234.123989 66.372443 
Q 244.000785 87.113715 253.396901 106.845558 
" clip-path="url(#pd8a492b2c5)" style="fill: none; stroke: #4c4c4c; stroke-linecap: round"/>
    <path d="M 253.422697 105.504165 
L 253.396901 106.845558 
L 252.339264 106.020085 
" clip-path="url(#pd8a492b2c5)" style="fill: none; stroke: #4c4c4c; stroke-linecap: round"/>
   </g>
   <g id="patch_77">
    <path d="M 263.575546 223.651627 
Q 284.803629 201.36214 305.260654 179.882263 
" clip-path="url(#pd8a492b2c5)" style="fill: none; stroke: #4c4c4c; stroke-linecap: round"/>
    <path d="M 303.998585 180.337436 
L 305.260654 179.882263 
L 304.867551 181.165022 
" clip-path="url(#pd8a492b2c5)" style="fill: none; stroke: #4c4c4c; stroke-linecap: round"/>
   </g>
   <g id="patch_78">
    <path d="M 265.777896 227.062364 
Q 339.208897 201.361514 411.584632 176.030007 
" clip-path="url(#pd8a492b2c5)" style="fill: none; stroke: #4c4c4c; stroke-linecap: round"/>
    <path d="M 410.253792 175.860112 
L 411.584632 176.030007 
L 410.650212 176.992742 
" clip-path="url(#pd8a492b2c5)" style="fill: none; stroke: #4c4c4c; stroke-linecap: round"/>
   </g>
   <g id="patch_79">
    <path d="M 266.265186 172.8 
Q 271.205341 172.8 275.027461 172.8 
" clip-path="url(#pd8a492b2c5)" style="fill: none; stroke: #4c4c4c; stroke-linecap: round"/>
    <path d="M 273.827461 172.2 
L 275.027461 172.8 
L 273.827461 173.4 
" clip-path="url(#pd8a492b2c5)" style="fill: none; stroke: #4c4c4c; stroke-linecap: round"/>
   </g>
   <g id="patch_80">
    <path d="M 293.467075 172.8 
Q 298.40723 172.8 302.22935 172.8 
" clip-path="url(#pd8a492b2c5)" style="fill: none; stroke: #4c4c4c; stroke-linecap: round"/>
    <path d="M 301.02935 172.2 
L 302.22935 172.8 
L 301.02935 173.4 
" clip-path="url(#pd8a492b2c5)" style="fill: none; stroke: #4c4c4c; stroke-linecap: round"/>
   </g>
   <g id="patch_81">
    <path d="M 317.979324 179.07234 
Q 325.606924 187.08132 332.463467 194.280689 
" clip-path="url(#pd8a492b2c5)" style="fill: none; stroke: #4c4c4c; stroke-linecap: round"/>
    <path d="M 332.070363 192.997931 
L 332.463467 194.280689 
L 331.201398 193.825517 
" clip-path="url(#pd8a492b2c5)" style="fill: none; stroke: #4c4c4c; stroke-linecap: round"/>
   </g>
   <g id="patch_82">
    <path d="M 317.979324 166.52766 
Q 325.606924 158.51868 332.463467 151.319311 
" clip-path="url(#pd8a492b2c5)" style="fill: none; stroke: #4c4c4c; stroke-linecap: round"/>
    <path d="M 331.201398 151.774483 
L 332.463467 151.319311 
L 332.070363 152.602069 
" clip-path="url(#pd8a492b2c5)" style="fill: none; stroke: #4c4c4c; stroke-linecap: round"/>
   </g>
   <g id="patch_83">
    <path d="M 345.181213 195.089644 
Q 352.808813 187.080663 359.665356 179.881294 
" clip-path="url(#pd8a492b2c5)" style="fill: none; stroke: #4c4c4c; stroke-linecap: round"/>
    <path d="M 358.403287 180.336466 
L 359.665356 179.881294 
L 359.272252 181.164053 
" clip-path="url(#pd8a492b2c5)" style="fill: none; stroke: #4c4c4c; stroke-linecap: round"/>
   </g>
   <g id="patch_84">
    <path d="M 346.87469 148.263262 
Q 366.40772 158.518103 384.950846 168.253244 
" clip-path="url(#pd8a492b2c5)" style="fill: none; stroke: #4c4c4c; stroke-linecap: round"/>
    <path d="M 384.167269 167.164204 
L 384.950846 168.253244 
L 383.609468 168.226682 
" clip-path="url(#pd8a492b2c5)" style="fill: none; stroke: #4c4c4c; stroke-linecap: round"/>
   </g>
   <g id="patch_85">
    <path d="M 375.072742 172.8 
Q 380.012897 172.8 383.835017 172.8 
" clip-path="url(#pd8a492b2c5)" style="fill: none; stroke: #4c4c4c; stroke-linecap: round"/>
    <path d="M 382.635017 172.2 
L 383.835017 172.8 
L 382.635017 173.4 
" clip-path="url(#pd8a492b2c5)" style="fill: none; stroke: #4c4c4c; stroke-linecap: round"/>
   </g>
   <g id="patch_86">
    <path d="M 402.274631 172.8 
Q 407.214786 172.8 411.036906 172.8 
" clip-path="url(#pd8a492b2c5)" style="fill: none; stroke: #4c4c4c; stroke-linecap: round"/>
    <path d="M 409.836906 172.2 
L 411.036906 172.8 
L 409.836906 173.4 
" clip-path="url(#pd8a492b2c5)" style="fill: none; stroke: #4c4c4c; stroke-linecap: round"/>
   </g>
   <g id="PathCollection_1">
    <path d="M 39.986777 324.270171 
C 42.283503 324.270171 44.486471 323.357672 46.110501 321.733642 
C 47.734532 320.109611 48.647031 317.906644 48.647031 315.609917 
C 48.647031 313.313191 47.734532 311.110224 46.110501 309.486193 
C 44.486471 307.862162 42.283503 306.949663 39.986777 306.949663 
C 37.690051 306.949663 35.487083 307.862162 33.863053 309.486193 
C 32.239022 311.110224 31.326523 313.313191 31.326523 315.609917 
C 31.326523 317.906644 32.239022 320.109611 33.863053 321.733642 
C 35.487083 323.357672 37.690051 324.270171 39.986777 324.270171 
z
" clip-path="url(#pd8a492b2c5)" style="fill: #ffff00; stroke: #000000"/>
    <path d="M 39.986777 267.146204 
C 42.283503 267.146204 44.486471 266.233705 46.110501 264.609675 
C 47.734532 262.985644 48.647031 260.782677 48.647031 258.48595 
C 48.647031 256.189224 47.734532 253.986257 46.110501 252.362226 
C 44.486471 250.738195 42.283503 249.825696 39.986777 249.825696 
C 37.690051 249.825696 35.487083 250.738195 33.863053 252.362226 
C 32.239022 253.986257 31.326523 256.189224 31.326523 258.48595 
C 31.326523 260.782677 32.239022 262.985644 33.863053 264.609675 
C 35.487083 266.233705 37.690051 267.146204 39.986777 267.146204 
z
" clip-path="url(#pd8a492b2c5)" style="fill: #ffff00; stroke: #000000"/>
    <path d="M 39.986777 210.022238 
C 42.283503 210.022238 44.486471 209.109739 46.110501 207.485708 
C 47.734532 205.861677 48.647031 203.65871 48.647031 201.361983 
C 48.647031 199.065257 47.734532 196.86229 46.110501 195.238259 
C 44.486471 193.614228 42.283503 192.701729 39.986777 192.701729 
C 37.690051 192.701729 35.487083 193.614228 33.863053 195.238259 
C 32.239022 196.86229 31.326523 199.065257 31.326523 201.361983 
C 31.326523 203.65871 32.239022 205.861677 33.863053 207.485708 
C 35.487083 209.109739 37.690051 210.022238 39.986777 210.022238 
z
" clip-path="url(#pd8a492b2c5)" style="fill: #ffff00; stroke: #000000"/>
    <path d="M 39.986777 152.898271 
C 42.283503 152.898271 44.486471 151.985772 46.110501 150.361741 
C 47.734532 148.73771 48.647031 146.534743 48.647031 144.238017 
C 48.647031 141.94129 47.734532 139.738323 46.110501 138.114292 
C 44.486471 136.490261 42.283503 135.577762 39.986777 135.577762 
C 37.690051 135.577762 35.487083 136.490261 33.863053 138.114292 
C 32.239022 139.738323 31.326523 141.94129 31.326523 144.238017 
C 31.326523 146.534743 32.239022 148.73771 33.863053 150.361741 
C 35.487083 151.985772 37.690051 152.898271 39.986777 152.898271 
z
" clip-path="url(#pd8a492b2c5)" style="fill: #ffff00; stroke: #000000"/>
    <path d="M 39.986777 95.774304 
C 42.283503 95.774304 44.486471 94.861805 46.110501 93.237774 
C 47.734532 91.613743 48.647031 89.410776 48.647031 87.11405 
C 48.647031 84.817323 47.734532 82.614356 46.110501 80.990325 
C 44.486471 79.366295 42.283503 78.453796 39.986777 78.453796 
C 37.690051 78.453796 35.487083 79.366295 33.863053 80.990325 
C 32.239022 82.614356 31.326523 84.817323 31.326523 87.11405 
C 31.326523 89.410776 32.239022 91.613743 33.863053 93.237774 
C 35.487083 94.861805 37.690051 95.774304 39.986777 95.774304 
z
" clip-path="url(#pd8a492b2c5)" style="fill: #ffffff; stroke: #000000"/>
    <path d="M 39.986777 38.650337 
C 42.283503 38.650337 44.486471 37.737838 46.110501 36.113807 
C 47.734532 34.489776 48.647031 32.286809 48.647031 29.990083 
C 48.647031 27.693356 47.734532 25.490389 46.110501 23.866358 
C 44.486471 22.242328 42.283503 21.329829 39.986777 21.329829 
C 37.690051 21.329829 35.487083 22.242328 33.863053 23.866358 
C 32.239022 25.490389 31.326523 27.693356 31.326523 29.990083 
C 31.326523 32.286809 32.239022 34.489776 33.863053 36.113807 
C 35.487083 37.737838 37.690051 38.650337 39.986777 38.650337 
z
" clip-path="url(#pd8a492b2c5)" style="fill: #ffffff; stroke: #000000"/>
    <path d="M 67.188666 238.584221 
C 69.485392 238.584221 71.68836 237.671722 73.31239 236.047691 
C 74.936421 234.423661 75.84892 232.220693 75.84892 229.923967 
C 75.84892 227.627241 74.936421 225.424273 73.31239 223.800243 
C 71.68836 222.176212 69.485392 221.263713 67.188666 221.263713 
C 64.89194 221.263713 62.688972 222.176212 61.064942 223.800243 
C 59.440911 225.424273 58.528412 227.627241 58.528412 229.923967 
C 58.528412 232.220693 59.440911 234.423661 61.064942 236.047691 
C 62.688972 237.671722 64.89194 238.584221 67.188666 238.584221 
z
" clip-path="url(#pd8a492b2c5)" style="fill: #ffffff; stroke: #000000"/>
    <path d="M 67.188666 295.708188 
C 69.485392 295.708188 71.68836 294.795689 73.31239 293.171658 
C 74.936421 291.547628 75.84892 289.34466 75.84892 287.047934 
C 75.84892 284.751208 74.936421 282.54824 73.31239 280.92421 
C 71.68836 279.300179 69.485392 278.38768 67.188666 278.38768 
C 64.89194 278.38768 62.688972 279.300179 61.064942 280.92421 
C 59.440911 282.54824 58.528412 284.751208 58.528412 287.047934 
C 58.528412 289.34466 59.440911 291.547628 61.064942 293.171658 
C 62.688972 294.795689 64.89194 295.708188 67.188666 295.708188 
z
" clip-path="url(#pd8a492b2c5)" style="fill: #ffffff; stroke: #000000"/>
    <path d="M 67.188666 181.460254 
C 69.485392 181.460254 71.68836 180.547755 73.31239 178.923724 
C 74.936421 177.299694 75.84892 175.096726 75.84892 172.8 
C 75.84892 170.503274 74.936421 168.300306 73.31239 166.676276 
C 71.68836 165.052245 69.485392 164.139746 67.188666 164.139746 
C 64.89194 164.139746 62.688972 165.052245 61.064942 166.676276 
C 59.440911 168.300306 58.528412 170.503274 58.528412 172.8 
C 58.528412 175.096726 59.440911 177.299694 61.064942 178.923724 
C 62.688972 180.547755 64.89194 181.460254 67.188666 181.460254 
z
" clip-path="url(#pd8a492b2c5)" style="fill: #ffffff; stroke: #000000"/>
    <path d="M 67.188666 124.336287 
C 69.485392 124.336287 71.68836 123.423788 73.31239 121.799757 
C 74.936421 120.175727 75.84892 117.972759 75.84892 115.676033 
C 75.84892 113.379307 74.936421 111.176339 73.31239 109.552309 
C 71.68836 107.928278 69.485392 107.015779 67.188666 107.015779 
C 64.89194 107.015779 62.688972 107.928278 61.064942 109.552309 
C 59.440911 111.176339 58.528412 113.379307 58.528412 115.676033 
C 58.528412 117.972759 59.440911 120.175727 61.064942 121.799757 
C 62.688972 123.423788 64.89194 124.336287 67.188666 124.336287 
z
" clip-path="url(#pd8a492b2c5)" style="fill: #ffffff; stroke: #000000"/>
    <path d="M 67.188666 67.21232 
C 69.485392 67.21232 71.68836 66.299821 73.31239 64.67579 
C 74.936421 63.05176 75.84892 60.848792 75.84892 58.552066 
C 75.84892 56.25534 74.936421 54.052372 73.31239 52.428342 
C 71.68836 50.804311 69.485392 49.891812 67.188666 49.891812 
C 64.89194 49.891812 62.688972 50.804311 61.064942 52.428342 
C 59.440911 54.052372 58.528412 56.25534 58.528412 58.552066 
C 58.528412 60.848792 59.440911 63.05176 61.064942 64.67579 
C 62.688972 66.299821 64.89194 67.21232 67.188666 67.21232 
z
" clip-path="url(#pd8a492b2c5)" style="fill: #ffffff; stroke: #000000"/>
    <path d="M 94.390555 210.022238 
C 96.687281 210.022238 98.890249 209.109739 100.514279 207.485708 
C 102.13831 205.861677 103.050809 203.65871 103.050809 201.361983 
C 103.050809 199.065257 102.13831 196.86229 100.514279 195.238259 
C 98.890249 193.614228 96.687281 192.701729 94.390555 192.701729 
C 92.093829 192.701729 89.890861 193.614228 88.266831 195.238259 
C 86.6428 196.86229 85.730301 199.065257 85.730301 201.361983 
C 85.730301 203.65871 86.6428 205.861677 88.266831 207.485708 
C 89.890861 209.109739 92.093829 210.022238 94.390555 210.022238 
z
" clip-path="url(#pd8a492b2c5)" style="fill: #ffffff; stroke: #000000"/>
    <path d="M 94.390555 152.898271 
C 96.687281 152.898271 98.890249 151.985772 100.514279 150.361741 
C 102.13831 148.73771 103.050809 146.534743 103.050809 144.238017 
C 103.050809 141.94129 102.13831 139.738323 100.514279 138.114292 
C 98.890249 136.490261 96.687281 135.577762 94.390555 135.577762 
C 92.093829 135.577762 89.890861 136.490261 88.266831 138.114292 
C 86.6428 139.738323 85.730301 141.94129 85.730301 144.238017 
C 85.730301 146.534743 86.6428 148.73771 88.266831 150.361741 
C 89.890861 151.985772 92.093829 152.898271 94.390555 152.898271 
z
" clip-path="url(#pd8a492b2c5)" style="fill: #ffffff; stroke: #000000"/>
    <path d="M 121.592444 238.584221 
C 123.88917 238.584221 126.092138 237.671722 127.716168 236.047691 
C 129.340199 234.423661 130.252698 232.220693 130.252698 229.923967 
C 130.252698 227.627241 129.340199 225.424273 127.716168 223.800243 
C 126.092138 222.176212 123.88917 221.263713 121.592444 221.263713 
C 119.295718 221.263713 117.09275 222.176212 115.46872 223.800243 
C 113.844689 225.424273 112.93219 227.627241 112.93219 229.923967 
C 112.93219 232.220693 113.844689 234.423661 115.46872 236.047691 
C 117.09275 237.671722 119.295718 238.584221 121.592444 238.584221 
z
" clip-path="url(#pd8a492b2c5)" style="fill: #ffffff; stroke: #000000"/>
    <path d="M 121.592444 124.336287 
C 123.88917 124.336287 126.092138 123.423788 127.716168 121.799757 
C 129.340199 120.175727 130.252698 117.972759 130.252698 115.676033 
C 130.252698 113.379307 129.340199 111.176339 127.716168 109.552309 
C 126.092138 107.928278 123.88917 107.015779 121.592444 107.015779 
C 119.295718 107.015779 117.09275 107.928278 115.46872 109.552309 
C 113.844689 111.176339 112.93219 113.379307 112.93219 115.676033 
C 112.93219 117.972759 113.844689 120.175727 115.46872 121.799757 
C 117.09275 123.423788 119.295718 124.336287 121.592444 124.336287 
z
" clip-path="url(#pd8a492b2c5)" style="fill: #ffffff; stroke: #000000"/>
    <path d="M 121.592444 181.460254 
C 123.88917 181.460254 126.092138 180.547755 127.716168 178.923724 
C 129.340199 177.299694 130.252698 175.096726 130.252698 172.8 
C 130.252698 170.503274 129.340199 168.300306 127.716168 166.676276 
C 126.092138 165.052245 123.88917 164.139746 121.592444 164.139746 
C 119.295718 164.139746 117.09275 165.052245 115.46872 166.676276 
C 113.844689 168.300306 112.93219 170.503274 112.93219 172.8 
C 112.93219 175.096726 113.844689 177.299694 115.46872 178.923724 
C 117.09275 180.547755 119.295718 181.460254 121.592444 181.460254 
z
" clip-path="url(#pd8a492b2c5)" style="fill: #ffffff; stroke: #000000"/>
    <path d="M 148.794333 324.270171 
C 151.091059 324.270171 153.294027 323.357672 154.918057 321.733642 
C 156.542088 320.109611 157.454587 317.906644 157.454587 315.609917 
C 157.454587 313.313191 156.542088 311.110224 154.918057 309.486193 
C 153.294027 307.862162 151.091059 306.949663 148.794333 306.949663 
C 146.497607 306.949663 144.294639 307.862162 142.670609 309.486193 
C 141.046578 311.110224 140.134079 313.313191 140.134079 315.609917 
C 140.134079 317.906644 141.046578 320.109611 142.670609 321.733642 
C 144.294639 323.357672 146.497607 324.270171 148.794333 324.270171 
z
" clip-path="url(#pd8a492b2c5)" style="fill: #ffffff; stroke: #000000"/>
    <path d="M 148.794333 267.146204 
C 151.091059 267.146204 153.294027 266.233705 154.918057 264.609675 
C 156.542088 262.985644 157.454587 260.782677 157.454587 258.48595 
C 157.454587 256.189224 156.542088 253.986257 154.918057 252.362226 
C 153.294027 250.738195 151.091059 249.825696 148.794333 249.825696 
C 146.497607 249.825696 144.294639 250.738195 142.670609 252.362226 
C 141.046578 253.986257 140.134079 256.189224 140.134079 258.48595 
C 140.134079 260.782677 141.046578 262.985644 142.670609 264.609675 
C 144.294639 266.233705 146.497607 267.146204 148.794333 267.146204 
z
" clip-path="url(#pd8a492b2c5)" style="fill: #ffffff; stroke: #000000"/>
    <path d="M 148.794333 152.898271 
C 151.091059 152.898271 153.294027 151.985772 154.918057 150.361741 
C 156.542088 148.73771 157.454587 146.534743 157.454587 144.238017 
C 157.454587 141.94129 156.542088 139.738323 154.918057 138.114292 
C 153.294027 136.490261 151.091059 135.577762 148.794333 135.577762 
C 146.497607 135.577762 144.294639 136.490261 142.670609 138.114292 
C 141.046578 139.738323 140.134079 141.94129 140.134079 144.238017 
C 140.134079 146.534743 141.046578 148.73771 142.670609 150.361741 
C 144.294639 151.985772 146.497607 152.898271 148.794333 152.898271 
z
" clip-path="url(#pd8a492b2c5)" style="fill: #ffffff; stroke: #000000"/>
    <path d="M 148.794333 95.774304 
C 151.091059 95.774304 153.294027 94.861805 154.918057 93.237774 
C 156.542088 91.613743 157.454587 89.410776 157.454587 87.11405 
C 157.454587 84.817323 156.542088 82.614356 154.918057 80.990325 
C 153.294027 79.366295 151.091059 78.453796 148.794333 78.453796 
C 146.497607 78.453796 144.294639 79.366295 142.670609 80.990325 
C 141.046578 82.614356 140.134079 84.817323 140.134079 87.11405 
C 140.134079 89.410776 141.046578 91.613743 142.670609 93.237774 
C 144.294639 94.861805 146.497607 95.774304 148.794333 95.774304 
z
" clip-path="url(#pd8a492b2c5)" style="fill: #ffffff; stroke: #000000"/>
    <path d="M 148.794333 38.650337 
C 151.091059 38.650337 153.294027 37.737838 154.918057 36.113807 
C 156.542088 34.489776 157.454587 32.286809 157.454587 29.990083 
C 157.454587 27.693356 156.542088 25.490389 154.918057 23.866358 
C 153.294027 22.242328 151.091059 21.329829 148.794333 21.329829 
C 146.497607 21.329829 144.294639 22.242328 142.670609 23.866358 
C 141.046578 25.490389 140.134079 27.693356 140.134079 29.990083 
C 140.134079 32.286809 141.046578 34.489776 142.670609 36.113807 
C 144.294639 37.737838 146.497607 38.650337 148.794333 38.650337 
z
" clip-path="url(#pd8a492b2c5)" style="fill: #ffffff; stroke: #000000"/>
    <path d="M 148.794333 210.022238 
C 151.091059 210.022238 153.294027 209.109739 154.918057 207.485708 
C 156.542088 205.861677 157.454587 203.65871 157.454587 201.361983 
C 157.454587 199.065257 156.542088 196.86229 154.918057 195.238259 
C 153.294027 193.614228 151.091059 192.701729 148.794333 192.701729 
C 146.497607 192.701729 144.294639 193.614228 142.670609 195.238259 
C 141.046578 196.86229 140.134079 199.065257 140.134079 201.361983 
C 140.134079 203.65871 141.046578 205.861677 142.670609 207.485708 
C 144.294639 209.109739 146.497607 210.022238 148.794333 210.022238 
z
" clip-path="url(#pd8a492b2c5)" style="fill: #ffffff; stroke: #000000"/>
    <path d="M 175.996222 324.270171 
C 178.292948 324.270171 180.495916 323.357672 182.119946 321.733642 
C 183.743977 320.109611 184.656476 317.906644 184.656476 315.609917 
C 184.656476 313.313191 183.743977 311.110224 182.119946 309.486193 
C 180.495916 307.862162 178.292948 306.949663 175.996222 306.949663 
C 173.699496 306.949663 171.496528 307.862162 169.872498 309.486193 
C 168.248467 311.110224 167.335968 313.313191 167.335968 315.609917 
C 167.335968 317.906644 168.248467 320.109611 169.872498 321.733642 
C 171.496528 323.357672 173.699496 324.270171 175.996222 324.270171 
z
" clip-path="url(#pd8a492b2c5)" style="fill: #ffffff; stroke: #000000"/>
    <path d="M 175.996222 152.898271 
C 178.292948 152.898271 180.495916 151.985772 182.119946 150.361741 
C 183.743977 148.73771 184.656476 146.534743 184.656476 144.238017 
C 184.656476 141.94129 183.743977 139.738323 182.119946 138.114292 
C 180.495916 136.490261 178.292948 135.577762 175.996222 135.577762 
C 173.699496 135.577762 171.496528 136.490261 169.872498 138.114292 
C 168.248467 139.738323 167.335968 141.94129 167.335968 144.238017 
C 167.335968 146.534743 168.248467 148.73771 169.872498 150.361741 
C 171.496528 151.985772 173.699496 152.898271 175.996222 152.898271 
z
" clip-path="url(#pd8a492b2c5)" style="fill: #ffffff; stroke: #000000"/>
    <path d="M 175.996222 38.650337 
C 178.292948 38.650337 180.495916 37.737838 182.119946 36.113807 
C 183.743977 34.489776 184.656476 32.286809 184.656476 29.990083 
C 184.656476 27.693356 183.743977 25.490389 182.119946 23.866358 
C 180.495916 22.242328 178.292948 21.329829 175.996222 21.329829 
C 173.699496 21.329829 171.496528 22.242328 169.872498 23.866358 
C 168.248467 25.490389 167.335968 27.693356 167.335968 29.990083 
C 167.335968 32.286809 168.248467 34.489776 169.872498 36.113807 
C 171.496528 37.737838 173.699496 38.650337 175.996222 38.650337 
z
" clip-path="url(#pd8a492b2c5)" style="fill: #ffffff; stroke: #000000"/>
    <path d="M 175.996222 267.146204 
C 178.292948 267.146204 180.495916 266.233705 182.119946 264.609675 
C 183.743977 262.985644 184.656476 260.782677 184.656476 258.48595 
C 184.656476 256.189224 183.743977 253.986257 182.119946 252.362226 
C 180.495916 250.738195 178.292948 249.825696 175.996222 249.825696 
C 173.699496 249.825696 171.496528 250.738195 169.872498 252.362226 
C 168.248467 253.986257 167.335968 256.189224 167.335968 258.48595 
C 167.335968 260.782677 168.248467 262.985644 169.872498 264.609675 
C 171.496528 266.233705 173.699496 267.146204 175.996222 267.146204 
z
" clip-path="url(#pd8a492b2c5)" style="fill: #ffffff; stroke: #000000"/>
    <path d="M 175.996222 210.022238 
C 178.292948 210.022238 180.495916 209.109739 182.119946 207.485708 
C 183.743977 205.861677 184.656476 203.65871 184.656476 201.361983 
C 184.656476 199.065257 183.743977 196.86229 182.119946 195.238259 
C 180.495916 193.614228 178.292948 192.701729 175.996222 192.701729 
C 173.699496 192.701729 171.496528 193.614228 169.872498 195.238259 
C 168.248467 196.86229 167.335968 199.065257 167.335968 201.361983 
C 167.335968 203.65871 168.248467 205.861677 169.872498 207.485708 
C 171.496528 209.109739 173.699496 210.022238 175.996222 210.022238 
z
" clip-path="url(#pd8a492b2c5)" style="fill: #ffffff; stroke: #000000"/>
    <path d="M 175.996222 95.774304 
C 178.292948 95.774304 180.495916 94.861805 182.119946 93.237774 
C 183.743977 91.613743 184.656476 89.410776 184.656476 87.11405 
C 184.656476 84.817323 183.743977 82.614356 182.119946 80.990325 
C 180.495916 79.366295 178.292948 78.453796 175.996222 78.453796 
C 173.699496 78.453796 171.496528 79.366295 169.872498 80.990325 
C 168.248467 82.614356 167.335968 84.817323 167.335968 87.11405 
C 167.335968 89.410776 168.248467 91.613743 169.872498 93.237774 
C 171.496528 94.861805 173.699496 95.774304 175.996222 95.774304 
z
" clip-path="url(#pd8a492b2c5)" style="fill: #ffffff; stroke: #000000"/>
    <path d="M 203.198111 295.708188 
C 205.494837 295.708188 207.697805 294.795689 209.321835 293.171658 
C 210.945866 291.547628 211.858365 289.34466 211.858365 287.047934 
C 211.858365 284.751208 210.945866 282.54824 209.321835 280.92421 
C 207.697805 279.300179 205.494837 278.38768 203.198111 278.38768 
C 200.901385 278.38768 198.698417 279.300179 197.074387 280.92421 
C 195.450356 282.54824 194.537857 284.751208 194.537857 287.047934 
C 194.537857 289.34466 195.450356 291.547628 197.074387 293.171658 
C 198.698417 294.795689 200.901385 295.708188 203.198111 295.708188 
z
" clip-path="url(#pd8a492b2c5)" style="fill: #ffffff; stroke: #000000"/>
    <path d="M 203.198111 238.584221 
C 205.494837 238.584221 207.697805 237.671722 209.321835 236.047691 
C 210.945866 234.423661 211.858365 232.220693 211.858365 229.923967 
C 211.858365 227.627241 210.945866 225.424273 209.321835 223.800243 
C 207.697805 222.176212 205.494837 221.263713 203.198111 221.263713 
C 200.901385 221.263713 198.698417 222.176212 197.074387 223.800243 
C 195.450356 225.424273 194.537857 227.627241 194.537857 229.923967 
C 194.537857 232.220693 195.450356 234.423661 197.074387 236.047691 
C 198.698417 237.671722 200.901385 238.584221 203.198111 238.584221 
z
" clip-path="url(#pd8a492b2c5)" style="fill: #ffffff; stroke: #000000"/>
    <path d="M 203.198111 124.336287 
C 205.494837 124.336287 207.697805 123.423788 209.321835 121.799757 
C 210.945866 120.175727 211.858365 117.972759 211.858365 115.676033 
C 211.858365 113.379307 210.945866 111.176339 209.321835 109.552309 
C 207.697805 107.928278 205.494837 107.015779 203.198111 107.015779 
C 200.901385 107.015779 198.698417 107.928278 197.074387 109.552309 
C 195.450356 111.176339 194.537857 113.379307 194.537857 115.676033 
C 194.537857 117.972759 195.450356 120.175727 197.074387 121.799757 
C 198.698417 123.423788 200.901385 124.336287 203.198111 124.336287 
z
" clip-path="url(#pd8a492b2c5)" style="fill: #ffffff; stroke: #000000"/>
    <path d="M 203.198111 181.460254 
C 205.494837 181.460254 207.697805 180.547755 209.321835 178.923724 
C 210.945866 177.299694 211.858365 175.096726 211.858365 172.8 
C 211.858365 170.503274 210.945866 168.300306 209.321835 166.676276 
C 207.697805 165.052245 205.494837 164.139746 203.198111 164.139746 
C 200.901385 164.139746 198.698417 165.052245 197.074387 166.676276 
C 195.450356 168.300306 194.537857 170.503274 194.537857 172.8 
C 194.537857 175.096726 195.450356 177.299694 197.074387 178.923724 
C 198.698417 180.547755 200.901385 181.460254 203.198111 181.460254 
z
" clip-path="url(#pd8a492b2c5)" style="fill: #ffffff; stroke: #000000"/>
    <path d="M 203.198111 67.21232 
C 205.494837 67.21232 207.697805 66.299821 209.321835 64.67579 
C 210.945866 63.05176 211.858365 60.848792 211.858365 58.552066 
C 211.858365 56.25534 210.945866 54.052372 209.321835 52.428342 
C 207.697805 50.804311 205.494837 49.891812 203.198111 49.891812 
C 200.901385 49.891812 198.698417 50.804311 197.074387 52.428342 
C 195.450356 54.052372 194.537857 56.25534 194.537857 58.552066 
C 194.537857 60.848792 195.450356 63.05176 197.074387 64.67579 
C 198.698417 66.299821 200.901385 67.21232 203.198111 67.21232 
z
" clip-path="url(#pd8a492b2c5)" style="fill: #ffffff; stroke: #000000"/>
    <path d="M 230.4 181.460254 
C 232.696726 181.460254 234.899694 180.547755 236.523724 178.923724 
C 238.147755 177.299694 239.060254 175.096726 239.060254 172.8 
C 239.060254 170.503274 238.147755 168.300306 236.523724 166.676276 
C 234.899694 165.052245 232.696726 164.139746 230.4 164.139746 
C 228.103274 164.139746 225.900306 165.052245 224.276276 166.676276 
C 222.652245 168.300306 221.739746 170.503274 221.739746 172.8 
C 221.739746 175.096726 222.652245 177.299694 224.276276 178.923724 
C 225.900306 180.547755 228.103274 181.460254 230.4 181.460254 
z
" clip-path="url(#pd8a492b2c5)" style="fill: #ffffff; stroke: #000000"/>
    <path d="M 230.4 238.584221 
C 232.696726 238.584221 234.899694 237.671722 236.523724 236.047691 
C 238.147755 234.423661 239.060254 232.220693 239.060254 229.923967 
C 239.060254 227.627241 238.147755 225.424273 236.523724 223.800243 
C 234.899694 222.176212 232.696726 221.263713 230.4 221.263713 
C 228.103274 221.263713 225.900306 222.176212 224.276276 223.800243 
C 222.652245 225.424273 221.739746 227.627241 221.739746 229.923967 
C 221.739746 232.220693 222.652245 234.423661 224.276276 236.047691 
C 225.900306 237.671722 228.103274 238.584221 230.4 238.584221 
z
" clip-path="url(#pd8a492b2c5)" style="fill: #ffffff; stroke: #000000"/>
    <path d="M 230.4 124.336287 
C 232.696726 124.336287 234.899694 123.423788 236.523724 121.799757 
C 238.147755 120.175727 239.060254 117.972759 239.060254 115.676033 
C 239.060254 113.379307 238.147755 111.176339 236.523724 109.552309 
C 234.899694 107.928278 232.696726 107.015779 230.4 107.015779 
C 228.103274 107.015779 225.900306 107.928278 224.276276 109.552309 
C 222.652245 111.176339 221.739746 113.379307 221.739746 115.676033 
C 221.739746 117.972759 222.652245 120.175727 224.276276 121.799757 
C 225.900306 123.423788 228.103274 124.336287 230.4 124.336287 
z
" clip-path="url(#pd8a492b2c5)" style="fill: #ffffff; stroke: #000000"/>
    <path d="M 230.4 295.708188 
C 232.696726 295.708188 234.899694 294.795689 236.523724 293.171658 
C 238.147755 291.547628 239.060254 289.34466 239.060254 287.047934 
C 239.060254 284.751208 238.147755 282.54824 236.523724 280.92421 
C 234.899694 279.300179 232.696726 278.38768 230.4 278.38768 
C 228.103274 278.38768 225.900306 279.300179 224.276276 280.92421 
C 222.652245 282.54824 221.739746 284.751208 221.739746 287.047934 
C 221.739746 289.34466 222.652245 291.547628 224.276276 293.171658 
C 225.900306 294.795689 228.103274 295.708188 230.4 295.708188 
z
" clip-path="url(#pd8a492b2c5)" style="fill: #ffffff; stroke: #000000"/>
    <path d="M 230.4 67.21232 
C 232.696726 67.21232 234.899694 66.299821 236.523724 64.67579 
C 238.147755 63.05176 239.060254 60.848792 239.060254 58.552066 
C 239.060254 56.25534 238.147755 54.052372 236.523724 52.428342 
C 234.899694 50.804311 232.696726 49.891812 230.4 49.891812 
C 228.103274 49.891812 225.900306 50.804311 224.276276 52.428342 
C 222.652245 54.052372 221.739746 56.25534 221.739746 58.552066 
C 221.739746 60.848792 222.652245 63.05176 224.276276 64.67579 
C 225.900306 66.299821 228.103274 67.21232 230.4 67.21232 
z
" clip-path="url(#pd8a492b2c5)" style="fill: #ffffff; stroke: #000000"/>
    <path d="M 257.601889 238.584221 
C 259.898615 238.584221 262.101583 237.671722 263.725613 236.047691 
C 265.349644 234.423661 266.262143 232.220693 266.262143 229.923967 
C 266.262143 227.627241 265.349644 225.424273 263.725613 223.800243 
C 262.101583 222.176212 259.898615 221.263713 257.601889 221.263713 
C 255.305163 221.263713 253.102195 222.176212 251.478165 223.800243 
C 249.854134 225.424273 248.941635 227.627241 248.941635 229.923967 
C 248.941635 232.220693 249.854134 234.423661 251.478165 236.047691 
C 253.102195 237.671722 255.305163 238.584221 257.601889 238.584221 
z
" clip-path="url(#pd8a492b2c5)" style="fill: #ffffff; stroke: #000000"/>
    <path d="M 257.601889 124.336287 
C 259.898615 124.336287 262.101583 123.423788 263.725613 121.799757 
C 265.349644 120.175727 266.262143 117.972759 266.262143 115.676033 
C 266.262143 113.379307 265.349644 111.176339 263.725613 109.552309 
C 262.101583 107.928278 259.898615 107.015779 257.601889 107.015779 
C 255.305163 107.015779 253.102195 107.928278 251.478165 109.552309 
C 249.854134 111.176339 248.941635 113.379307 248.941635 115.676033 
C 248.941635 117.972759 249.854134 120.175727 251.478165 121.799757 
C 253.102195 123.423788 255.305163 124.336287 257.601889 124.336287 
z
" clip-path="url(#pd8a492b2c5)" style="fill: #ffffff; stroke: #000000"/>
    <path d="M 257.601889 181.460254 
C 259.898615 181.460254 262.101583 180.547755 263.725613 178.923724 
C 265.349644 177.299694 266.262143 175.096726 266.262143 172.8 
C 266.262143 170.503274 265.349644 168.300306 263.725613 166.676276 
C 262.101583 165.052245 259.898615 164.139746 257.601889 164.139746 
C 255.305163 164.139746 253.102195 165.052245 251.478165 166.676276 
C 249.854134 168.300306 248.941635 170.503274 248.941635 172.8 
C 248.941635 175.096726 249.854134 177.299694 251.478165 178.923724 
C 253.102195 180.547755 255.305163 181.460254 257.601889 181.460254 
z
" clip-path="url(#pd8a492b2c5)" style="fill: #ffffff; stroke: #000000"/>
    <path d="M 284.803778 181.460254 
C 287.100504 181.460254 289.303472 180.547755 290.927502 178.923724 
C 292.551533 177.299694 293.464032 175.096726 293.464032 172.8 
C 293.464032 170.503274 292.551533 168.300306 290.927502 166.676276 
C 289.303472 165.052245 287.100504 164.139746 284.803778 164.139746 
C 282.507052 164.139746 280.304084 165.052245 278.680054 166.676276 
C 277.056023 168.300306 276.143524 170.503274 276.143524 172.8 
C 276.143524 175.096726 277.056023 177.299694 278.680054 178.923724 
C 280.304084 180.547755 282.507052 181.460254 284.803778 181.460254 
z
" clip-path="url(#pd8a492b2c5)" style="fill: #ffffff; stroke: #000000"/>
    <path d="M 312.005667 181.460254 
C 314.302393 181.460254 316.505361 180.547755 318.129391 178.923724 
C 319.753422 177.299694 320.665921 175.096726 320.665921 172.8 
C 320.665921 170.503274 319.753422 168.300306 318.129391 166.676276 
C 316.505361 165.052245 314.302393 164.139746 312.005667 164.139746 
C 309.708941 164.139746 307.505973 165.052245 305.881943 166.676276 
C 304.257912 168.300306 303.345413 170.503274 303.345413 172.8 
C 303.345413 175.096726 304.257912 177.299694 305.881943 178.923724 
C 307.505973 180.547755 309.708941 181.460254 312.005667 181.460254 
z
" clip-path="url(#pd8a492b2c5)" style="fill: #ffffff; stroke: #000000"/>
    <path d="M 339.207556 210.022238 
C 341.504282 210.022238 343.70725 209.109739 345.33128 207.485708 
C 346.955311 205.861677 347.86781 203.65871 347.86781 201.361983 
C 347.86781 199.065257 346.955311 196.86229 345.33128 195.238259 
C 343.70725 193.614228 341.504282 192.701729 339.207556 192.701729 
C 336.91083 192.701729 334.707862 193.614228 333.083832 195.238259 
C 331.459801 196.86229 330.547302 199.065257 330.547302 201.361983 
C 330.547302 203.65871 331.459801 205.861677 333.083832 207.485708 
C 334.707862 209.109739 336.91083 210.022238 339.207556 210.022238 
z
" clip-path="url(#pd8a492b2c5)" style="fill: #ffffff; stroke: #000000"/>
    <path d="M 339.207556 152.898271 
C 341.504282 152.898271 343.70725 151.985772 345.33128 150.361741 
C 346.955311 148.73771 347.86781 146.534743 347.86781 144.238017 
C 347.86781 141.94129 346.955311 139.738323 345.33128 138.114292 
C 343.70725 136.490261 341.504282 135.577762 339.207556 135.577762 
C 336.91083 135.577762 334.707862 136.490261 333.083832 138.114292 
C 331.459801 139.738323 330.547302 141.94129 330.547302 144.238017 
C 330.547302 146.534743 331.459801 148.73771 333.083832 150.361741 
C 334.707862 151.985772 336.91083 152.898271 339.207556 152.898271 
z
" clip-path="url(#pd8a492b2c5)" style="fill: #ffffff; stroke: #000000"/>
    <path d="M 366.409445 181.460254 
C 368.706171 181.460254 370.909139 180.547755 372.533169 178.923724 
C 374.1572 177.299694 375.069699 175.096726 375.069699 172.8 
C 375.069699 170.503274 374.1572 168.300306 372.533169 166.676276 
C 370.909139 165.052245 368.706171 164.139746 366.409445 164.139746 
C 364.112719 164.139746 361.909751 165.052245 360.285721 166.676276 
C 358.66169 168.300306 357.749191 170.503274 357.749191 172.8 
C 357.749191 175.096726 358.66169 177.299694 360.285721 178.923724 
C 361.909751 180.547755 364.112719 181.460254 366.409445 181.460254 
z
" clip-path="url(#pd8a492b2c5)" style="fill: #ffffff; stroke: #000000"/>
    <path d="M 393.611334 181.460254 
C 395.90806 181.460254 398.111028 180.547755 399.735058 178.923724 
C 401.359089 177.299694 402.271588 175.096726 402.271588 172.8 
C 402.271588 170.503274 401.359089 168.300306 399.735058 166.676276 
C 398.111028 165.052245 395.90806 164.139746 393.611334 164.139746 
C 391.314608 164.139746 389.11164 165.052245 387.48761 166.676276 
C 385.863579 168.300306 384.95108 170.503274 384.95108 172.8 
C 384.95108 175.096726 385.863579 177.299694 387.48761 178.923724 
C 389.11164 180.547755 391.314608 181.460254 393.611334 181.460254 
z
" clip-path="url(#pd8a492b2c5)" style="fill: #ffffff; stroke: #000000"/>
    <path d="M 420.813223 181.460254 
C 423.109949 181.460254 425.312917 180.547755 426.936947 178.923724 
C 428.560978 177.299694 429.473477 175.096726 429.473477 172.8 
C 429.473477 170.503274 428.560978 168.300306 426.936947 166.676276 
C 425.312917 165.052245 423.109949 164.139746 420.813223 164.139746 
C 418.516497 164.139746 416.313529 165.052245 414.689499 166.676276 
C 413.065468 168.300306 412.152969 170.503274 412.152969 172.8 
C 412.152969 175.096726 413.065468 177.299694 414.689499 178.923724 
C 416.313529 180.547755 418.516497 181.460254 420.813223 181.460254 
z
" clip-path="url(#pd8a492b2c5)" style="fill: #0000ff; stroke: #000000"/>
   </g>
  </g>
 </g>
 <defs>
  <clipPath id="pd8a492b2c5">
   <rect x="0" y="0" width="460.8" height="345.6"/>
  </clipPath>
 </defs>
</svg>
