<?xml version="1.0" encoding="utf-8" standalone="no"?>
<!DOCTYPE svg PUBLIC "-//W3C//DTD SVG 1.1//EN"
  "http://www.w3.org/Graphics/SVG/1.1/DTD/svg11.dtd">
<svg xmlns:xlink="http://www.w3.org/1999/xlink" width="460.8pt" height="345.6pt" viewBox="0 0 460.8 345.6" xmlns="http://www.w3.org/2000/svg" version="1.1">
 <metadata>
  <rdf:RDF xmlns:dc="http://purl.org/dc/elements/1.1/" xmlns:cc="http://creativecommons.org/ns#" xmlns:rdf="http://www.w3.org/1999/02/22-rdf-syntax-ns#">
   <cc:Work>
    <dc:type rdf:resource="http://purl.org/dc/dcmitype/StillImage"/>
    <dc:date>2025-11-06T02:28:19.772503</dc:date>
    <dc:format>image/svg+xml</dc:format>
    <dc:creator>
     <cc:Agent>
      <dc:title>Matplotlib v3.10.5, https://matplotlib.org/</dc:title>
     </cc:Agent>
    </dc:creator>
   </cc:Work>
  </rdf:RDF>
 </metadata>
 <defs>
  <style type="text/css">*{stroke-linejoin: round; stroke-linecap: butt}</style>
 </defs>
 <g id="figure_1">
  <g id="patch_1">
   <path d="M 0 345.6 
L 460.8 345.6 
L 460.8 0 
L 0 0 
z
" style="fill: #ffffff"/>
  </g>
  <g id="axes_1">
   <g id="patch_2">
    <path d="M 48.036188 288.606794 
Q 189.598806 232.30348 330.122543 176.413358 
" clip-path="url(#p83a072ef42)" style="fill: none; stroke: #4c4c4c; stroke-linecap: round"/>
    <path d="M 328.785757 176.299319 
L 330.122543 176.413358 
L 329.229241 177.414363 
" clip-path="url(#p83a072ef42)" style="fill: none; stroke: #4c4c4c; stroke-linecap: round"/>
   </g>
   <g id="patch_3">
    <path d="M 48.218403 289.107262 
Q 148.796663 256.105021 248.312614 223.451349 
" clip-path="url(#p83a072ef42)" style="fill: none; stroke: #4c4c4c; stroke-linecap: round"/>
    <path d="M 246.985363 223.255379 
L 248.312614 223.451349 
L 247.359487 224.395568 
" clip-path="url(#p83a072ef42)" style="fill: none; stroke: #4c4c4c; stroke-linecap: round"/>
   </g>
   <g id="patch_4">
    <path d="M 48.122938 288.841956 
Q 203.197519 232.304348 357.221699 176.149699 
" clip-path="url(#p83a072ef42)" style="fill: none; stroke: #4c4c4c; stroke-linecap: round"/>
    <path d="M 355.888773 175.997029 
L 357.221699 176.149699 
L 356.299807 177.124438 
" clip-path="url(#p83a072ef42)" style="fill: none; stroke: #4c4c4c; stroke-linecap: round"/>
   </g>
   <g id="patch_5">
    <path d="M 48.41058 242.194733 
Q 189.595937 208.502773 329.693797 175.070329 
" clip-path="url(#p83a072ef42)" style="fill: none; stroke: #4c4c4c; stroke-linecap: round"/>
    <path d="M 328.387301 174.765259 
L 329.693797 175.070329 
L 328.665843 175.932484 
" clip-path="url(#p83a072ef42)" style="fill: none; stroke: #4c4c4c; stroke-linecap: round"/>
   </g>
   <g id="patch_6">
    <path d="M 46.505003 249.908407 
Q 53.588501 256.106467 59.830593 261.568298 
" clip-path="url(#p83a072ef42)" style="fill: none; stroke: #4c4c4c; stroke-linecap: round"/>
    <path d="M 59.322604 260.326546 
L 59.830593 261.568298 
L 58.532398 261.229638 
" clip-path="url(#p83a072ef42)" style="fill: none; stroke: #4c4c4c; stroke-linecap: round"/>
   </g>
   <g id="patch_7">
    <path d="M 46.505003 238.501511 
Q 53.588501 232.30345 59.830593 226.84162 
" clip-path="url(#p83a072ef42)" style="fill: none; stroke: #4c4c4c; stroke-linecap: round"/>
    <path d="M 58.532398 227.180279 
L 59.830593 226.84162 
L 59.322604 228.083371 
" clip-path="url(#p83a072ef42)" style="fill: none; stroke: #4c4c4c; stroke-linecap: round"/>
   </g>
   <g id="patch_8">
    <path d="M 43.069901 252.29816 
Q 53.587267 279.906244 63.706617 306.469539 
" clip-path="url(#p83a072ef42)" style="fill: none; stroke: #4c4c4c; stroke-linecap: round"/>
    <path d="M 63.840115 305.134557 
L 63.706617 306.469539 
L 62.71873 305.561751 
" clip-path="url(#p83a072ef42)" style="fill: none; stroke: #4c4c4c; stroke-linecap: round"/>
   </g>
   <g id="patch_9">
    <path d="M 47.46547 239.842388 
Q 80.788449 220.403983 113.145695 201.528923 
" clip-path="url(#p83a072ef42)" style="fill: none; stroke: #4c4c4c; stroke-linecap: round"/>
    <path d="M 111.806837 201.615301 
L 113.145695 201.528923 
L 112.411483 202.651836 
" clip-path="url(#p83a072ef42)" style="fill: none; stroke: #4c4c4c; stroke-linecap: round"/>
   </g>
   <g id="patch_10">
    <path d="M 48.620604 195.914871 
Q 189.597576 184.700794 329.460035 173.575371 
" clip-path="url(#p83a072ef42)" style="fill: none; stroke: #4c4c4c; stroke-linecap: round"/>
    <path d="M 328.216236 173.072414 
L 329.460035 173.575371 
L 328.31139 174.268636 
" clip-path="url(#p83a072ef42)" style="fill: none; stroke: #4c4c4c; stroke-linecap: round"/>
   </g>
   <g id="patch_11">
    <path d="M 48.596945 197.54339 
Q 148.795642 208.502623 247.882934 219.340295 
" clip-path="url(#p83a072ef42)" style="fill: none; stroke: #4c4c4c; stroke-linecap: round"/>
    <path d="M 246.755284 218.61338 
L 247.882934 219.340295 
L 246.624812 219.806266 
" clip-path="url(#p83a072ef42)" style="fill: none; stroke: #4c4c4c; stroke-linecap: round"/>
   </g>
   <g id="patch_12">
    <path d="M 48.648414 196.601653 
Q 80.790713 196.601653 111.814978 196.601653 
" clip-path="url(#p83a072ef42)" style="fill: none; stroke: #4c4c4c; stroke-linecap: round"/>
    <path d="M 110.614978 196.001653 
L 111.814978 196.601653 
L 110.614978 197.201653 
" clip-path="url(#p83a072ef42)" style="fill: none; stroke: #4c4c4c; stroke-linecap: round"/>
   </g>
   <g id="patch_13">
    <path d="M 48.604831 197.439519 
Q 162.395591 208.50251 275.073564 219.457313 
" clip-path="url(#p83a072ef42)" style="fill: none; stroke: #4c4c4c; stroke-linecap: round"/>
    <path d="M 273.937255 218.744009 
L 275.073564 219.457313 
L 273.821136 219.938378 
" clip-path="url(#p83a072ef42)" style="fill: none; stroke: #4c4c4c; stroke-linecap: round"/>
   </g>
   <g id="patch_14">
    <path d="M 47.46547 192.239082 
Q 80.788449 172.800677 113.145695 153.925618 
" clip-path="url(#p83a072ef42)" style="fill: none; stroke: #4c4c4c; stroke-linecap: round"/>
    <path d="M 111.806837 154.011995 
L 113.145695 153.925618 
L 112.411483 155.04853 
" clip-path="url(#p83a072ef42)" style="fill: none; stroke: #4c4c4c; stroke-linecap: round"/>
   </g>
   <g id="patch_15">
    <path d="M 48.62849 195.971528 
Q 203.200975 184.700618 356.658387 173.511015 
" clip-path="url(#p83a072ef42)" style="fill: none; stroke: #4c4c4c; stroke-linecap: round"/>
    <path d="M 355.41793 172.999872 
L 356.658387 173.511015 
L 355.505199 174.196694 
" clip-path="url(#p83a072ef42)" style="fill: none; stroke: #4c4c4c; stroke-linecap: round"/>
   </g>
   <g id="patch_16">
    <path d="M 46.505003 190.898205 
Q 53.588501 184.700144 59.830593 179.238314 
" clip-path="url(#p83a072ef42)" style="fill: none; stroke: #4c4c4c; stroke-linecap: round"/>
    <path d="M 58.532398 179.576973 
L 59.830593 179.238314 
L 59.322604 180.480065 
" clip-path="url(#p83a072ef42)" style="fill: none; stroke: #4c4c4c; stroke-linecap: round"/>
   </g>
   <g id="patch_17">
    <path d="M 46.505003 143.294899 
Q 53.588501 137.096838 59.830593 131.635008 
" clip-path="url(#p83a072ef42)" style="fill: none; stroke: #4c4c4c; stroke-linecap: round"/>
    <path d="M 58.532398 131.973668 
L 59.830593 131.635008 
L 59.322604 132.87676 
" clip-path="url(#p83a072ef42)" style="fill: none; stroke: #4c4c4c; stroke-linecap: round"/>
   </g>
   <g id="patch_18">
    <path d="M 48.218403 151.699349 
Q 148.796663 184.701591 248.312614 217.355262 
" clip-path="url(#p83a072ef42)" style="fill: none; stroke: #4c4c4c; stroke-linecap: round"/>
    <path d="M 247.359487 216.411044 
L 248.312614 217.355262 
L 246.985363 217.551232 
" clip-path="url(#p83a072ef42)" style="fill: none; stroke: #4c4c4c; stroke-linecap: round"/>
   </g>
   <g id="patch_19">
    <path d="M 48.218403 104.096044 
Q 148.796663 137.098285 248.312614 169.751957 
" clip-path="url(#p83a072ef42)" style="fill: none; stroke: #4c4c4c; stroke-linecap: round"/>
    <path d="M 247.359487 168.807738 
L 248.312614 169.751957 
L 246.985363 169.947927 
" clip-path="url(#p83a072ef42)" style="fill: none; stroke: #4c4c4c; stroke-linecap: round"/>
   </g>
   <g id="patch_20">
    <path d="M 46.505003 95.691593 
Q 53.588501 89.493533 59.830593 84.031702 
" clip-path="url(#p83a072ef42)" style="fill: none; stroke: #4c4c4c; stroke-linecap: round"/>
    <path d="M 58.532398 84.370362 
L 59.830593 84.031702 
L 59.322604 85.273454 
" clip-path="url(#p83a072ef42)" style="fill: none; stroke: #4c4c4c; stroke-linecap: round"/>
   </g>
   <g id="patch_21">
    <path d="M 45.622569 107.970132 
Q 80.789471 148.998184 115.228766 189.177362 
" clip-path="url(#p83a072ef42)" style="fill: none; stroke: #4c4c4c; stroke-linecap: round"/>
    <path d="M 114.903371 187.87578 
L 115.228766 189.177362 
L 113.992263 188.656729 
" clip-path="url(#p83a072ef42)" style="fill: none; stroke: #4c4c4c; stroke-linecap: round"/>
   </g>
   <g id="patch_22">
    <path d="M 47.775526 105.181239 
Q 162.396205 160.899625 276.011361 216.129214 
" clip-path="url(#p83a072ef42)" style="fill: none; stroke: #4c4c4c; stroke-linecap: round"/>
    <path d="M 275.194435 215.064962 
L 276.011361 216.129214 
L 274.669804 216.144204 
" clip-path="url(#p83a072ef42)" style="fill: none; stroke: #4c4c4c; stroke-linecap: round"/>
   </g>
   <g id="patch_23">
    <path d="M 46.505418 59.495547 
Q 107.991618 113.295971 168.636411 166.360165 
" clip-path="url(#p83a072ef42)" style="fill: none; stroke: #4c4c4c; stroke-linecap: round"/>
    <path d="M 168.128422 165.118414 
L 168.636411 166.360165 
L 167.338216 166.021506 
" clip-path="url(#p83a072ef42)" style="fill: none; stroke: #4c4c4c; stroke-linecap: round"/>
   </g>
   <g id="patch_24">
    <path d="M 46.505003 48.088288 
Q 53.588501 41.890227 59.830593 36.428397 
" clip-path="url(#p83a072ef42)" style="fill: none; stroke: #4c4c4c; stroke-linecap: round"/>
    <path d="M 58.532398 36.767056 
L 59.830593 36.428397 
L 59.322604 37.670148 
" clip-path="url(#p83a072ef42)" style="fill: none; stroke: #4c4c4c; stroke-linecap: round"/>
   </g>
   <g id="patch_25">
    <path d="M 45.622569 60.366826 
Q 80.789471 101.394879 115.228766 141.574057 
" clip-path="url(#p83a072ef42)" style="fill: none; stroke: #4c4c4c; stroke-linecap: round"/>
    <path d="M 114.903371 140.272474 
L 115.228766 141.574057 
L 113.992263 141.053423 
" clip-path="url(#p83a072ef42)" style="fill: none; stroke: #4c4c4c; stroke-linecap: round"/>
   </g>
   <g id="patch_26">
    <path d="M 73.310502 36.111919 
Q 162.395265 125.196681 250.689458 213.490874 
" clip-path="url(#p83a072ef42)" style="fill: none; stroke: #4c4c4c; stroke-linecap: round"/>
    <path d="M 250.265194 212.218082 
L 250.689458 213.490874 
L 249.416665 213.06661 
" clip-path="url(#p83a072ef42)" style="fill: none; stroke: #4c4c4c; stroke-linecap: round"/>
   </g>
   <g id="patch_27">
    <path d="M 70.997744 37.76695 
Q 107.991366 113.295595 144.493201 187.820175 
" clip-path="url(#p83a072ef42)" style="fill: none; stroke: #4c4c4c; stroke-linecap: round"/>
    <path d="M 144.504198 186.478579 
L 144.493201 187.820175 
L 143.426522 187.00642 
" clip-path="url(#p83a072ef42)" style="fill: none; stroke: #4c4c4c; stroke-linecap: round"/>
   </g>
   <g id="patch_28">
    <path d="M 75.588395 127.296626 
Q 162.394467 148.998145 248.115888 170.4285 
" clip-path="url(#p83a072ef42)" style="fill: none; stroke: #4c4c4c; stroke-linecap: round"/>
    <path d="M 247.097238 169.555371 
L 248.115888 170.4285 
L 246.806195 170.719542 
" clip-path="url(#p83a072ef42)" style="fill: none; stroke: #4c4c4c; stroke-linecap: round"/>
   </g>
   <g id="patch_29">
    <path d="M 69.567005 133.520881 
Q 80.78904 172.798005 91.703928 211.000113 
" clip-path="url(#p83a072ef42)" style="fill: none; stroke: #4c4c4c; stroke-linecap: round"/>
    <path d="M 91.951177 209.681451 
L 91.703928 211.000113 
L 90.797349 210.011116 
" clip-path="url(#p83a072ef42)" style="fill: none; stroke: #4c4c4c; stroke-linecap: round"/>
   </g>
   <g id="patch_30">
    <path d="M 73.706062 309.907196 
Q 148.795348 244.20407 223.043228 179.237175 
" clip-path="url(#p83a072ef42)" style="fill: none; stroke: #4c4c4c; stroke-linecap: round"/>
    <path d="M 221.745034 179.575835 
L 223.043228 179.237175 
L 222.535239 180.478927 
" clip-path="url(#p83a072ef42)" style="fill: none; stroke: #4c4c4c; stroke-linecap: round"/>
   </g>
   <g id="patch_31">
    <path d="M 74.85497 311.585108 
Q 203.197231 244.205421 330.549587 177.345434 
" clip-path="url(#p83a072ef42)" style="fill: none; stroke: #4c4c4c; stroke-linecap: round"/>
    <path d="M 329.208209 177.371996 
L 330.549587 177.345434 
L 329.76601 178.434473 
" clip-path="url(#p83a072ef42)" style="fill: none; stroke: #4c4c4c; stroke-linecap: round"/>
   </g>
   <g id="patch_32">
    <path d="M 73.310502 309.488081 
Q 162.395265 220.403319 250.689458 132.109126 
" clip-path="url(#p83a072ef42)" style="fill: none; stroke: #4c4c4c; stroke-linecap: round"/>
    <path d="M 249.416665 132.53339 
L 250.689458 132.109126 
L 250.265194 133.381918 
" clip-path="url(#p83a072ef42)" style="fill: none; stroke: #4c4c4c; stroke-linecap: round"/>
   </g>
   <g id="patch_33">
    <path d="M 74.118224 82.790557 
Q 162.39538 148.998424 249.778109 214.535471 
" clip-path="url(#p83a072ef42)" style="fill: none; stroke: #4c4c4c; stroke-linecap: round"/>
    <path d="M 249.178109 213.335471 
L 249.778109 214.535471 
L 248.458109 214.295471 
" clip-path="url(#p83a072ef42)" style="fill: none; stroke: #4c4c4c; stroke-linecap: round"/>
   </g>
   <g id="patch_34">
    <path d="M 69.567005 85.917575 
Q 80.78904 125.194699 91.703928 163.396807 
" clip-path="url(#p83a072ef42)" style="fill: none; stroke: #4c4c4c; stroke-linecap: round"/>
    <path d="M 91.951177 162.078145 
L 91.703928 163.396807 
L 90.797349 162.407811 
" clip-path="url(#p83a072ef42)" style="fill: none; stroke: #4c4c4c; stroke-linecap: round"/>
   </g>
   <g id="patch_35">
    <path d="M 74.284251 82.560298 
Q 135.194555 125.197511 195.18893 167.193573 
" clip-path="url(#p83a072ef42)" style="fill: none; stroke: #4c4c4c; stroke-linecap: round"/>
    <path d="M 194.549929 166.013879 
L 195.18893 167.193573 
L 193.861774 166.996957 
" clip-path="url(#p83a072ef42)" style="fill: none; stroke: #4c4c4c; stroke-linecap: round"/>
   </g>
   <g id="patch_36">
    <path d="M 70.789795 260.129142 
Q 94.39036 208.502905 117.526092 157.893492 
" clip-path="url(#p83a072ef42)" style="fill: none; stroke: #4c4c4c; stroke-linecap: round"/>
    <path d="M 116.481496 158.735405 
L 117.526092 157.893492 
L 117.572865 159.234317 
" clip-path="url(#p83a072ef42)" style="fill: none; stroke: #4c4c4c; stroke-linecap: round"/>
   </g>
   <g id="patch_37">
    <path d="M 75.646089 266.15655 
Q 175.99461 244.205311 275.250923 222.492993 
" clip-path="url(#p83a072ef42)" style="fill: none; stroke: #4c4c4c; stroke-linecap: round"/>
    <path d="M 273.950424 222.163289 
L 275.250923 222.492993 
L 274.206861 223.335569 
" clip-path="url(#p83a072ef42)" style="fill: none; stroke: #4c4c4c; stroke-linecap: round"/>
   </g>
   <g id="patch_38">
    <path d="M 75.504136 175.225345 
Q 107.991322 184.700775 139.405195 193.863154 
" clip-path="url(#p83a072ef42)" style="fill: none; stroke: #4c4c4c; stroke-linecap: round"/>
    <path d="M 138.421195 192.951154 
L 139.405195 193.863154 
L 138.085195 194.103154 
" clip-path="url(#p83a072ef42)" style="fill: none; stroke: #4c4c4c; stroke-linecap: round"/>
   </g>
   <g id="patch_39">
    <path d="M 69.567005 212.079119 
Q 80.78904 172.801995 91.703928 134.599887 
" clip-path="url(#p83a072ef42)" style="fill: none; stroke: #4c4c4c; stroke-linecap: round"/>
    <path d="M 90.797349 135.588884 
L 91.703928 134.599887 
L 91.951177 135.918549 
" clip-path="url(#p83a072ef42)" style="fill: none; stroke: #4c4c4c; stroke-linecap: round"/>
   </g>
   <g id="patch_40">
    <path d="M 102.960046 126.446412 
Q 257.601612 148.998307 411.136845 171.388862 
" clip-path="url(#p83a072ef42)" style="fill: none; stroke: #4c4c4c; stroke-linecap: round"/>
    <path d="M 410.03599 170.621973 
L 411.136845 171.388862 
L 409.862821 171.809413 
" clip-path="url(#p83a072ef42)" style="fill: none; stroke: #4c4c4c; stroke-linecap: round"/>
   </g>
   <g id="patch_41">
    <path d="M 103.051776 125.196694 
Q 189.597245 125.196694 275.02468 125.196694 
" clip-path="url(#p83a072ef42)" style="fill: none; stroke: #4c4c4c; stroke-linecap: round"/>
    <path d="M 273.82468 124.596694 
L 275.02468 125.196694 
L 273.82468 125.796694 
" clip-path="url(#p83a072ef42)" style="fill: none; stroke: #4c4c4c; stroke-linecap: round"/>
   </g>
   <g id="patch_42">
    <path d="M 100.908781 214.699858 
Q 107.992279 208.501797 114.234371 203.039967 
" clip-path="url(#p83a072ef42)" style="fill: none; stroke: #4c4c4c; stroke-linecap: round"/>
    <path d="M 112.936176 203.378626 
L 114.234371 203.039967 
L 113.726382 204.281718 
" clip-path="url(#p83a072ef42)" style="fill: none; stroke: #4c4c4c; stroke-linecap: round"/>
   </g>
   <g id="patch_43">
    <path d="M 97.473679 212.310105 
Q 107.991045 184.70202 118.110395 158.138725 
" clip-path="url(#p83a072ef42)" style="fill: none; stroke: #4c4c4c; stroke-linecap: round"/>
    <path d="M 117.122508 159.046513 
L 118.110395 158.138725 
L 118.243893 159.473708 
" clip-path="url(#p83a072ef42)" style="fill: none; stroke: #4c4c4c; stroke-linecap: round"/>
   </g>
   <g id="patch_44">
    <path d="M 102.323332 216.932716 
Q 121.592176 208.502596 139.836726 200.520606 
" clip-path="url(#p83a072ef42)" style="fill: none; stroke: #4c4c4c; stroke-linecap: round"/>
    <path d="M 138.496846 200.451894 
L 139.836726 200.520606 
L 138.977828 201.551283 
" clip-path="url(#p83a072ef42)" style="fill: none; stroke: #4c4c4c; stroke-linecap: round"/>
   </g>
   <g id="patch_45">
    <path d="M 103.051776 220.403306 
Q 189.597245 220.403306 275.02468 220.403306 
" clip-path="url(#p83a072ef42)" style="fill: none; stroke: #4c4c4c; stroke-linecap: round"/>
    <path d="M 273.82468 219.803306 
L 275.02468 220.403306 
L 273.82468 221.003306 
" clip-path="url(#p83a072ef42)" style="fill: none; stroke: #4c4c4c; stroke-linecap: round"/>
   </g>
   <g id="patch_46">
    <path d="M 100.908781 167.096552 
Q 107.992279 160.898491 114.234371 155.436661 
" clip-path="url(#p83a072ef42)" style="fill: none; stroke: #4c4c4c; stroke-linecap: round"/>
    <path d="M 112.936176 155.775321 
L 114.234371 155.436661 
L 113.726382 156.678413 
" clip-path="url(#p83a072ef42)" style="fill: none; stroke: #4c4c4c; stroke-linecap: round"/>
   </g>
   <g id="patch_47">
    <path d="M 130.161936 197.85137 
Q 203.200097 208.502769 275.131927 218.992828 
" clip-path="url(#p83a072ef42)" style="fill: none; stroke: #4c4c4c; stroke-linecap: round"/>
    <path d="M 274.031072 218.225939 
L 275.131927 218.992828 
L 273.857903 219.413379 
" clip-path="url(#p83a072ef42)" style="fill: none; stroke: #4c4c4c; stroke-linecap: round"/>
   </g>
   <g id="patch_48">
    <path d="M 130.255741 196.601653 
Q 135.195895 196.601653 139.018016 196.601653 
" clip-path="url(#p83a072ef42)" style="fill: none; stroke: #4c4c4c; stroke-linecap: round"/>
    <path d="M 137.818016 196.001653 
L 139.018016 196.601653 
L 137.818016 197.201653 
" clip-path="url(#p83a072ef42)" style="fill: none; stroke: #4c4c4c; stroke-linecap: round"/>
   </g>
   <g id="patch_49">
    <path d="M 129.258748 153.023157 
Q 189.597806 184.701162 248.946959 215.859468 
" clip-path="url(#p83a072ef42)" style="fill: none; stroke: #4c4c4c; stroke-linecap: round"/>
    <path d="M 248.163382 214.770428 
L 248.946959 215.859468 
L 247.605582 215.832906 
" clip-path="url(#p83a072ef42)" style="fill: none; stroke: #4c4c4c; stroke-linecap: round"/>
   </g>
   <g id="patch_50">
    <path d="M 130.255741 148.998347 
Q 135.195895 148.998347 139.018016 148.998347 
" clip-path="url(#p83a072ef42)" style="fill: none; stroke: #4c4c4c; stroke-linecap: round"/>
    <path d="M 137.818016 148.398347 
L 139.018016 148.998347 
L 137.818016 149.598347 
" clip-path="url(#p83a072ef42)" style="fill: none; stroke: #4c4c4c; stroke-linecap: round"/>
   </g>
   <g id="patch_51">
    <path d="M 157.385823 150.072283 
Q 244.000563 160.899126 329.505902 171.587293 
" clip-path="url(#p83a072ef42)" style="fill: none; stroke: #4c4c4c; stroke-linecap: round"/>
    <path d="M 328.38959 170.843085 
L 329.505902 171.587293 
L 328.240748 172.033818 
" clip-path="url(#p83a072ef42)" style="fill: none; stroke: #4c4c4c; stroke-linecap: round"/>
   </g>
   <g id="patch_52">
    <path d="M 155.312559 190.898205 
Q 162.396057 184.700144 168.638149 179.238314 
" clip-path="url(#p83a072ef42)" style="fill: none; stroke: #4c4c4c; stroke-linecap: round"/>
    <path d="M 167.339954 179.576973 
L 168.638149 179.238314 
L 168.13016 180.480065 
" clip-path="url(#p83a072ef42)" style="fill: none; stroke: #4c4c4c; stroke-linecap: round"/>
   </g>
   <g id="patch_53">
    <path d="M 184.659519 172.8 
Q 189.599673 172.8 193.421794 172.8 
" clip-path="url(#p83a072ef42)" style="fill: none; stroke: #4c4c4c; stroke-linecap: round"/>
    <path d="M 192.221794 172.2 
L 193.421794 172.8 
L 192.221794 173.4 
" clip-path="url(#p83a072ef42)" style="fill: none; stroke: #4c4c4c; stroke-linecap: round"/>
   </g>
   <g id="patch_54">
    <path d="M 211.861408 172.8 
Q 216.801563 172.8 220.623683 172.8 
" clip-path="url(#p83a072ef42)" style="fill: none; stroke: #4c4c4c; stroke-linecap: round"/>
    <path d="M 219.423683 172.2 
L 220.623683 172.8 
L 219.423683 173.4 
" clip-path="url(#p83a072ef42)" style="fill: none; stroke: #4c4c4c; stroke-linecap: round"/>
   </g>
   <g id="patch_55">
    <path d="M 234.695122 165.283536 
Q 244.000297 148.99948 252.750772 133.686149 
" clip-path="url(#p83a072ef42)" style="fill: none; stroke: #4c4c4c; stroke-linecap: round"/>
    <path d="M 251.634459 134.430357 
L 252.750772 133.686149 
L 252.676351 135.025724 
" clip-path="url(#p83a072ef42)" style="fill: none; stroke: #4c4c4c; stroke-linecap: round"/>
   </g>
   <g id="patch_56">
    <path d="M 239.063297 172.8 
Q 284.806376 172.8 329.43142 172.8 
" clip-path="url(#p83a072ef42)" style="fill: none; stroke: #4c4c4c; stroke-linecap: round"/>
    <path d="M 328.23142 172.2 
L 329.43142 172.8 
L 328.23142 173.4 
" clip-path="url(#p83a072ef42)" style="fill: none; stroke: #4c4c4c; stroke-linecap: round"/>
   </g>
   <g id="patch_57">
    <path d="M 234.695122 180.316464 
Q 244.000297 196.60052 252.750772 211.913851 
" clip-path="url(#p83a072ef42)" style="fill: none; stroke: #4c4c4c; stroke-linecap: round"/>
    <path d="M 252.676351 210.574276 
L 252.750772 211.913851 
L 251.634459 211.169643 
" clip-path="url(#p83a072ef42)" style="fill: none; stroke: #4c4c4c; stroke-linecap: round"/>
   </g>
   <g id="patch_58">
    <path d="M 239.063297 172.8 
Q 244.003452 172.8 247.825572 172.8 
" clip-path="url(#p83a072ef42)" style="fill: none; stroke: #4c4c4c; stroke-linecap: round"/>
    <path d="M 246.625572 172.2 
L 247.825572 172.8 
L 246.625572 173.4 
" clip-path="url(#p83a072ef42)" style="fill: none; stroke: #4c4c4c; stroke-linecap: round"/>
   </g>
   <g id="patch_59">
    <path d="M 265.917359 217.97796 
Q 339.207854 196.601566 411.425035 175.538221 
" clip-path="url(#p83a072ef42)" style="fill: none; stroke: #4c4c4c; stroke-linecap: round"/>
    <path d="M 410.105035 175.298221 
L 411.425035 175.538221 
L 410.441035 176.450221 
" clip-path="url(#p83a072ef42)" style="fill: none; stroke: #4c4c4c; stroke-linecap: round"/>
   </g>
   <g id="patch_60">
    <path d="M 266.265186 220.403306 
Q 271.205341 220.403306 275.027461 220.403306 
" clip-path="url(#p83a072ef42)" style="fill: none; stroke: #4c4c4c; stroke-linecap: round"/>
    <path d="M 273.827461 219.803306 
L 275.027461 220.403306 
L 273.827461 221.003306 
" clip-path="url(#p83a072ef42)" style="fill: none; stroke: #4c4c4c; stroke-linecap: round"/>
   </g>
   <g id="patch_61">
    <path d="M 266.265186 172.8 
Q 271.205341 172.8 275.027461 172.8 
" clip-path="url(#p83a072ef42)" style="fill: none; stroke: #4c4c4c; stroke-linecap: round"/>
    <path d="M 273.827461 172.2 
L 275.027461 172.8 
L 273.827461 173.4 
" clip-path="url(#p83a072ef42)" style="fill: none; stroke: #4c4c4c; stroke-linecap: round"/>
   </g>
   <g id="patch_62">
    <path d="M 266.265186 125.196694 
Q 271.205341 125.196694 275.027461 125.196694 
" clip-path="url(#p83a072ef42)" style="fill: none; stroke: #4c4c4c; stroke-linecap: round"/>
    <path d="M 273.827461 124.596694 
L 275.027461 125.196694 
L 273.827461 125.796694 
" clip-path="url(#p83a072ef42)" style="fill: none; stroke: #4c4c4c; stroke-linecap: round"/>
   </g>
   <g id="patch_63">
    <path d="M 289.098901 212.886841 
Q 298.404075 196.602785 307.15455 181.289455 
" clip-path="url(#p83a072ef42)" style="fill: none; stroke: #4c4c4c; stroke-linecap: round"/>
    <path d="M 306.038237 182.033663 
L 307.15455 181.289455 
L 307.080129 182.62903 
" clip-path="url(#p83a072ef42)" style="fill: none; stroke: #4c4c4c; stroke-linecap: round"/>
   </g>
   <g id="patch_64">
    <path d="M 293.467075 172.8 
Q 312.005873 172.8 329.426637 172.8 
" clip-path="url(#p83a072ef42)" style="fill: none; stroke: #4c4c4c; stroke-linecap: round"/>
    <path d="M 328.226637 172.2 
L 329.426637 172.8 
L 328.226637 173.4 
" clip-path="url(#p83a072ef42)" style="fill: none; stroke: #4c4c4c; stroke-linecap: round"/>
   </g>
   <g id="patch_65">
    <path d="M 320.668964 172.8 
Q 325.609119 172.8 329.431239 172.8 
" clip-path="url(#p83a072ef42)" style="fill: none; stroke: #4c4c4c; stroke-linecap: round"/>
    <path d="M 328.231239 172.2 
L 329.431239 172.8 
L 328.231239 173.4 
" clip-path="url(#p83a072ef42)" style="fill: none; stroke: #4c4c4c; stroke-linecap: round"/>
   </g>
   <g id="patch_66">
    <path d="M 347.870853 172.8 
Q 352.811008 172.8 356.633128 172.8 
" clip-path="url(#p83a072ef42)" style="fill: none; stroke: #4c4c4c; stroke-linecap: round"/>
    <path d="M 355.433128 172.2 
L 356.633128 172.8 
L 355.433128 173.4 
" clip-path="url(#p83a072ef42)" style="fill: none; stroke: #4c4c4c; stroke-linecap: round"/>
   </g>
   <g id="patch_67">
    <path d="M 375.072742 172.8 
Q 380.012897 172.8 383.835017 172.8 
" clip-path="url(#p83a072ef42)" style="fill: none; stroke: #4c4c4c; stroke-linecap: round"/>
    <path d="M 382.635017 172.2 
L 383.835017 172.8 
L 382.635017 173.4 
" clip-path="url(#p83a072ef42)" style="fill: none; stroke: #4c4c4c; stroke-linecap: round"/>
   </g>
   <g id="patch_68">
    <path d="M 402.274631 172.8 
Q 407.214786 172.8 411.036906 172.8 
" clip-path="url(#p83a072ef42)" style="fill: none; stroke: #4c4c4c; stroke-linecap: round"/>
    <path d="M 409.836906 172.2 
L 411.036906 172.8 
L 409.836906 173.4 
" clip-path="url(#p83a072ef42)" style="fill: none; stroke: #4c4c4c; stroke-linecap: round"/>
   </g>
   <g id="PathCollection_1">
    <path d="M 39.986777 300.468519 
C 42.283503 300.468519 44.486471 299.55602 46.110501 297.931989 
C 47.734532 296.307958 48.647031 294.104991 48.647031 291.808264 
C 48.647031 289.511538 47.734532 287.308571 46.110501 285.68454 
C 44.486471 284.060509 42.283503 283.14801 39.986777 283.14801 
C 37.690051 283.14801 35.487083 284.060509 33.863053 285.68454 
C 32.239022 287.308571 31.326523 289.511538 31.326523 291.808264 
C 31.326523 294.104991 32.239022 296.307958 33.863053 297.931989 
C 35.487083 299.55602 37.690051 300.468519 39.986777 300.468519 
z
" clip-path="url(#p83a072ef42)" style="fill: #ffff00; stroke: #000000"/>
    <path d="M 39.986777 252.865213 
C 42.283503 252.865213 44.486471 251.952714 46.110501 250.328683 
C 47.734532 248.704652 48.647031 246.501685 48.647031 244.204959 
C 48.647031 241.908232 47.734532 239.705265 46.110501 238.081234 
C 44.486471 236.457204 42.283503 235.544705 39.986777 235.544705 
C 37.690051 235.544705 35.487083 236.457204 33.863053 238.081234 
C 32.239022 239.705265 31.326523 241.908232 31.326523 244.204959 
C 31.326523 246.501685 32.239022 248.704652 33.863053 250.328683 
C 35.487083 251.952714 37.690051 252.865213 39.986777 252.865213 
z
" clip-path="url(#p83a072ef42)" style="fill: #ffff00; stroke: #000000"/>
    <path d="M 39.986777 205.261907 
C 42.283503 205.261907 44.486471 204.349408 46.110501 202.725377 
C 47.734532 201.101347 48.647031 198.898379 48.647031 196.601653 
C 48.647031 194.304927 47.734532 192.101959 46.110501 190.477929 
C 44.486471 188.853898 42.283503 187.941399 39.986777 187.941399 
C 37.690051 187.941399 35.487083 188.853898 33.863053 190.477929 
C 32.239022 192.101959 31.326523 194.304927 31.326523 196.601653 
C 31.326523 198.898379 32.239022 201.101347 33.863053 202.725377 
C 35.487083 204.349408 37.690051 205.261907 39.986777 205.261907 
z
" clip-path="url(#p83a072ef42)" style="fill: #ffff00; stroke: #000000"/>
    <path d="M 39.986777 157.658601 
C 42.283503 157.658601 44.486471 156.746102 46.110501 155.122071 
C 47.734532 153.498041 48.647031 151.295073 48.647031 148.998347 
C 48.647031 146.701621 47.734532 144.498653 46.110501 142.874623 
C 44.486471 141.250592 42.283503 140.338093 39.986777 140.338093 
C 37.690051 140.338093 35.487083 141.250592 33.863053 142.874623 
C 32.239022 144.498653 31.326523 146.701621 31.326523 148.998347 
C 31.326523 151.295073 32.239022 153.498041 33.863053 155.122071 
C 35.487083 156.746102 37.690051 157.658601 39.986777 157.658601 
z
" clip-path="url(#p83a072ef42)" style="fill: #ffff00; stroke: #000000"/>
    <path d="M 39.986777 110.055295 
C 42.283503 110.055295 44.486471 109.142796 46.110501 107.518766 
C 47.734532 105.894735 48.647031 103.691768 48.647031 101.395041 
C 48.647031 99.098315 47.734532 96.895348 46.110501 95.271317 
C 44.486471 93.647286 42.283503 92.734787 39.986777 92.734787 
C 37.690051 92.734787 35.487083 93.647286 33.863053 95.271317 
C 32.239022 96.895348 31.326523 99.098315 31.326523 101.395041 
C 31.326523 103.691768 32.239022 105.894735 33.863053 107.518766 
C 35.487083 109.142796 37.690051 110.055295 39.986777 110.055295 
z
" clip-path="url(#p83a072ef42)" style="fill: #ffff00; stroke: #000000"/>
    <path d="M 39.986777 62.45199 
C 42.283503 62.45199 44.486471 61.539491 46.110501 59.91546 
C 47.734532 58.291429 48.647031 56.088462 48.647031 53.791736 
C 48.647031 51.495009 47.734532 49.292042 46.110501 47.668011 
C 44.486471 46.04398 42.283503 45.131481 39.986777 45.131481 
C 37.690051 45.131481 35.487083 46.04398 33.863053 47.668011 
C 32.239022 49.292042 31.326523 51.495009 31.326523 53.791736 
C 31.326523 56.088462 32.239022 58.291429 33.863053 59.91546 
C 35.487083 61.539491 37.690051 62.45199 39.986777 62.45199 
z
" clip-path="url(#p83a072ef42)" style="fill: #ffff00; stroke: #000000"/>
    <path d="M 67.188666 38.650337 
C 69.485392 38.650337 71.68836 37.737838 73.31239 36.113807 
C 74.936421 34.489776 75.84892 32.286809 75.84892 29.990083 
C 75.84892 27.693356 74.936421 25.490389 73.31239 23.866358 
C 71.68836 22.242328 69.485392 21.329829 67.188666 21.329829 
C 64.89194 21.329829 62.688972 22.242328 61.064942 23.866358 
C 59.440911 25.490389 58.528412 27.693356 58.528412 29.990083 
C 58.528412 32.286809 59.440911 34.489776 61.064942 36.113807 
C 62.688972 37.737838 64.89194 38.650337 67.188666 38.650337 
z
" clip-path="url(#p83a072ef42)" style="fill: #ffffff; stroke: #000000"/>
    <path d="M 67.188666 133.856948 
C 69.485392 133.856948 71.68836 132.944449 73.31239 131.320419 
C 74.936421 129.696388 75.84892 127.49342 75.84892 125.196694 
C 75.84892 122.899968 74.936421 120.697001 73.31239 119.07297 
C 71.68836 117.448939 69.485392 116.53644 67.188666 116.53644 
C 64.89194 116.53644 62.688972 117.448939 61.064942 119.07297 
C 59.440911 120.697001 58.528412 122.899968 58.528412 125.196694 
C 58.528412 127.49342 59.440911 129.696388 61.064942 131.320419 
C 62.688972 132.944449 64.89194 133.856948 67.188666 133.856948 
z
" clip-path="url(#p83a072ef42)" style="fill: #ffffff; stroke: #000000"/>
    <path d="M 67.188666 324.270171 
C 69.485392 324.270171 71.68836 323.357672 73.31239 321.733642 
C 74.936421 320.109611 75.84892 317.906644 75.84892 315.609917 
C 75.84892 313.313191 74.936421 311.110224 73.31239 309.486193 
C 71.68836 307.862162 69.485392 306.949663 67.188666 306.949663 
C 64.89194 306.949663 62.688972 307.862162 61.064942 309.486193 
C 59.440911 311.110224 58.528412 313.313191 58.528412 315.609917 
C 58.528412 317.906644 59.440911 320.109611 61.064942 321.733642 
C 62.688972 323.357672 64.89194 324.270171 67.188666 324.270171 
z
" clip-path="url(#p83a072ef42)" style="fill: #ffffff; stroke: #000000"/>
    <path d="M 67.188666 86.253642 
C 69.485392 86.253642 71.68836 85.341143 73.31239 83.717113 
C 74.936421 82.093082 75.84892 79.890115 75.84892 77.593388 
C 75.84892 75.296662 74.936421 73.093695 73.31239 71.469664 
C 71.68836 69.845633 69.485392 68.933134 67.188666 68.933134 
C 64.89194 68.933134 62.688972 69.845633 61.064942 71.469664 
C 59.440911 73.093695 58.528412 75.296662 58.528412 77.593388 
C 58.528412 79.890115 59.440911 82.093082 61.064942 83.717113 
C 62.688972 85.341143 64.89194 86.253642 67.188666 86.253642 
z
" clip-path="url(#p83a072ef42)" style="fill: #ffffff; stroke: #000000"/>
    <path d="M 67.188666 276.666866 
C 69.485392 276.666866 71.68836 275.754367 73.31239 274.130336 
C 74.936421 272.506305 75.84892 270.303338 75.84892 268.006612 
C 75.84892 265.709885 74.936421 263.506918 73.31239 261.882887 
C 71.68836 260.258857 69.485392 259.346358 67.188666 259.346358 
C 64.89194 259.346358 62.688972 260.258857 61.064942 261.882887 
C 59.440911 263.506918 58.528412 265.709885 58.528412 268.006612 
C 58.528412 270.303338 59.440911 272.506305 61.064942 274.130336 
C 62.688972 275.754367 64.89194 276.666866 67.188666 276.666866 
z
" clip-path="url(#p83a072ef42)" style="fill: #ffffff; stroke: #000000"/>
    <path d="M 67.188666 181.460254 
C 69.485392 181.460254 71.68836 180.547755 73.31239 178.923724 
C 74.936421 177.299694 75.84892 175.096726 75.84892 172.8 
C 75.84892 170.503274 74.936421 168.300306 73.31239 166.676276 
C 71.68836 165.052245 69.485392 164.139746 67.188666 164.139746 
C 64.89194 164.139746 62.688972 165.052245 61.064942 166.676276 
C 59.440911 168.300306 58.528412 170.503274 58.528412 172.8 
C 58.528412 175.096726 59.440911 177.299694 61.064942 178.923724 
C 62.688972 180.547755 64.89194 181.460254 67.188666 181.460254 
z
" clip-path="url(#p83a072ef42)" style="fill: #ffffff; stroke: #000000"/>
    <path d="M 67.188666 229.06356 
C 69.485392 229.06356 71.68836 228.151061 73.31239 226.52703 
C 74.936421 224.902999 75.84892 222.700032 75.84892 220.403306 
C 75.84892 218.10658 74.936421 215.903612 73.31239 214.279581 
C 71.68836 212.655551 69.485392 211.743052 67.188666 211.743052 
C 64.89194 211.743052 62.688972 212.655551 61.064942 214.279581 
C 59.440911 215.903612 58.528412 218.10658 58.528412 220.403306 
C 58.528412 222.700032 59.440911 224.902999 61.064942 226.52703 
C 62.688972 228.151061 64.89194 229.06356 67.188666 229.06356 
z
" clip-path="url(#p83a072ef42)" style="fill: #ffffff; stroke: #000000"/>
    <path d="M 94.390555 133.856948 
C 96.687281 133.856948 98.890249 132.944449 100.514279 131.320419 
C 102.13831 129.696388 103.050809 127.49342 103.050809 125.196694 
C 103.050809 122.899968 102.13831 120.697001 100.514279 119.07297 
C 98.890249 117.448939 96.687281 116.53644 94.390555 116.53644 
C 92.093829 116.53644 89.890861 117.448939 88.266831 119.07297 
C 86.6428 120.697001 85.730301 122.899968 85.730301 125.196694 
C 85.730301 127.49342 86.6428 129.696388 88.266831 131.320419 
C 89.890861 132.944449 92.093829 133.856948 94.390555 133.856948 
z
" clip-path="url(#p83a072ef42)" style="fill: #ffffff; stroke: #000000"/>
    <path d="M 94.390555 229.06356 
C 96.687281 229.06356 98.890249 228.151061 100.514279 226.52703 
C 102.13831 224.902999 103.050809 222.700032 103.050809 220.403306 
C 103.050809 218.10658 102.13831 215.903612 100.514279 214.279581 
C 98.890249 212.655551 96.687281 211.743052 94.390555 211.743052 
C 92.093829 211.743052 89.890861 212.655551 88.266831 214.279581 
C 86.6428 215.903612 85.730301 218.10658 85.730301 220.403306 
C 85.730301 222.700032 86.6428 224.902999 88.266831 226.52703 
C 89.890861 228.151061 92.093829 229.06356 94.390555 229.06356 
z
" clip-path="url(#p83a072ef42)" style="fill: #ffffff; stroke: #000000"/>
    <path d="M 94.390555 181.460254 
C 96.687281 181.460254 98.890249 180.547755 100.514279 178.923724 
C 102.13831 177.299694 103.050809 175.096726 103.050809 172.8 
C 103.050809 170.503274 102.13831 168.300306 100.514279 166.676276 
C 98.890249 165.052245 96.687281 164.139746 94.390555 164.139746 
C 92.093829 164.139746 89.890861 165.052245 88.266831 166.676276 
C 86.6428 168.300306 85.730301 170.503274 85.730301 172.8 
C 85.730301 175.096726 86.6428 177.299694 88.266831 178.923724 
C 89.890861 180.547755 92.093829 181.460254 94.390555 181.460254 
z
" clip-path="url(#p83a072ef42)" style="fill: #ffffff; stroke: #000000"/>
    <path d="M 121.592444 205.261907 
C 123.88917 205.261907 126.092138 204.349408 127.716168 202.725377 
C 129.340199 201.101347 130.252698 198.898379 130.252698 196.601653 
C 130.252698 194.304927 129.340199 192.101959 127.716168 190.477929 
C 126.092138 188.853898 123.88917 187.941399 121.592444 187.941399 
C 119.295718 187.941399 117.09275 188.853898 115.46872 190.477929 
C 113.844689 192.101959 112.93219 194.304927 112.93219 196.601653 
C 112.93219 198.898379 113.844689 201.101347 115.46872 202.725377 
C 117.09275 204.349408 119.295718 205.261907 121.592444 205.261907 
z
" clip-path="url(#p83a072ef42)" style="fill: #ffffff; stroke: #000000"/>
    <path d="M 121.592444 157.658601 
C 123.88917 157.658601 126.092138 156.746102 127.716168 155.122071 
C 129.340199 153.498041 130.252698 151.295073 130.252698 148.998347 
C 130.252698 146.701621 129.340199 144.498653 127.716168 142.874623 
C 126.092138 141.250592 123.88917 140.338093 121.592444 140.338093 
C 119.295718 140.338093 117.09275 141.250592 115.46872 142.874623 
C 113.844689 144.498653 112.93219 146.701621 112.93219 148.998347 
C 112.93219 151.295073 113.844689 153.498041 115.46872 155.122071 
C 117.09275 156.746102 119.295718 157.658601 121.592444 157.658601 
z
" clip-path="url(#p83a072ef42)" style="fill: #ffffff; stroke: #000000"/>
    <path d="M 148.794333 157.658601 
C 151.091059 157.658601 153.294027 156.746102 154.918057 155.122071 
C 156.542088 153.498041 157.454587 151.295073 157.454587 148.998347 
C 157.454587 146.701621 156.542088 144.498653 154.918057 142.874623 
C 153.294027 141.250592 151.091059 140.338093 148.794333 140.338093 
C 146.497607 140.338093 144.294639 141.250592 142.670609 142.874623 
C 141.046578 144.498653 140.134079 146.701621 140.134079 148.998347 
C 140.134079 151.295073 141.046578 153.498041 142.670609 155.122071 
C 144.294639 156.746102 146.497607 157.658601 148.794333 157.658601 
z
" clip-path="url(#p83a072ef42)" style="fill: #ffffff; stroke: #000000"/>
    <path d="M 148.794333 205.261907 
C 151.091059 205.261907 153.294027 204.349408 154.918057 202.725377 
C 156.542088 201.101347 157.454587 198.898379 157.454587 196.601653 
C 157.454587 194.304927 156.542088 192.101959 154.918057 190.477929 
C 153.294027 188.853898 151.091059 187.941399 148.794333 187.941399 
C 146.497607 187.941399 144.294639 188.853898 142.670609 190.477929 
C 141.046578 192.101959 140.134079 194.304927 140.134079 196.601653 
C 140.134079 198.898379 141.046578 201.101347 142.670609 202.725377 
C 144.294639 204.349408 146.497607 205.261907 148.794333 205.261907 
z
" clip-path="url(#p83a072ef42)" style="fill: #ffffff; stroke: #000000"/>
    <path d="M 175.996222 181.460254 
C 178.292948 181.460254 180.495916 180.547755 182.119946 178.923724 
C 183.743977 177.299694 184.656476 175.096726 184.656476 172.8 
C 184.656476 170.503274 183.743977 168.300306 182.119946 166.676276 
C 180.495916 165.052245 178.292948 164.139746 175.996222 164.139746 
C 173.699496 164.139746 171.496528 165.052245 169.872498 166.676276 
C 168.248467 168.300306 167.335968 170.503274 167.335968 172.8 
C 167.335968 175.096726 168.248467 177.299694 169.872498 178.923724 
C 171.496528 180.547755 173.699496 181.460254 175.996222 181.460254 
z
" clip-path="url(#p83a072ef42)" style="fill: #ffffff; stroke: #000000"/>
    <path d="M 203.198111 181.460254 
C 205.494837 181.460254 207.697805 180.547755 209.321835 178.923724 
C 210.945866 177.299694 211.858365 175.096726 211.858365 172.8 
C 211.858365 170.503274 210.945866 168.300306 209.321835 166.676276 
C 207.697805 165.052245 205.494837 164.139746 203.198111 164.139746 
C 200.901385 164.139746 198.698417 165.052245 197.074387 166.676276 
C 195.450356 168.300306 194.537857 170.503274 194.537857 172.8 
C 194.537857 175.096726 195.450356 177.299694 197.074387 178.923724 
C 198.698417 180.547755 200.901385 181.460254 203.198111 181.460254 
z
" clip-path="url(#p83a072ef42)" style="fill: #ffffff; stroke: #000000"/>
    <path d="M 230.4 181.460254 
C 232.696726 181.460254 234.899694 180.547755 236.523724 178.923724 
C 238.147755 177.299694 239.060254 175.096726 239.060254 172.8 
C 239.060254 170.503274 238.147755 168.300306 236.523724 166.676276 
C 234.899694 165.052245 232.696726 164.139746 230.4 164.139746 
C 228.103274 164.139746 225.900306 165.052245 224.276276 166.676276 
C 222.652245 168.300306 221.739746 170.503274 221.739746 172.8 
C 221.739746 175.096726 222.652245 177.299694 224.276276 178.923724 
C 225.900306 180.547755 228.103274 181.460254 230.4 181.460254 
z
" clip-path="url(#p83a072ef42)" style="fill: #ffffff; stroke: #000000"/>
    <path d="M 257.601889 229.06356 
C 259.898615 229.06356 262.101583 228.151061 263.725613 226.52703 
C 265.349644 224.902999 266.262143 222.700032 266.262143 220.403306 
C 266.262143 218.10658 265.349644 215.903612 263.725613 214.279581 
C 262.101583 212.655551 259.898615 211.743052 257.601889 211.743052 
C 255.305163 211.743052 253.102195 212.655551 251.478165 214.279581 
C 249.854134 215.903612 248.941635 218.10658 248.941635 220.403306 
C 248.941635 222.700032 249.854134 224.902999 251.478165 226.52703 
C 253.102195 228.151061 255.305163 229.06356 257.601889 229.06356 
z
" clip-path="url(#p83a072ef42)" style="fill: #ffffff; stroke: #000000"/>
    <path d="M 257.601889 181.460254 
C 259.898615 181.460254 262.101583 180.547755 263.725613 178.923724 
C 265.349644 177.299694 266.262143 175.096726 266.262143 172.8 
C 266.262143 170.503274 265.349644 168.300306 263.725613 166.676276 
C 262.101583 165.052245 259.898615 164.139746 257.601889 164.139746 
C 255.305163 164.139746 253.102195 165.052245 251.478165 166.676276 
C 249.854134 168.300306 248.941635 170.503274 248.941635 172.8 
C 248.941635 175.096726 249.854134 177.299694 251.478165 178.923724 
C 253.102195 180.547755 255.305163 181.460254 257.601889 181.460254 
z
" clip-path="url(#p83a072ef42)" style="fill: #ffffff; stroke: #000000"/>
    <path d="M 257.601889 133.856948 
C 259.898615 133.856948 262.101583 132.944449 263.725613 131.320419 
C 265.349644 129.696388 266.262143 127.49342 266.262143 125.196694 
C 266.262143 122.899968 265.349644 120.697001 263.725613 119.07297 
C 262.101583 117.448939 259.898615 116.53644 257.601889 116.53644 
C 255.305163 116.53644 253.102195 117.448939 251.478165 119.07297 
C 249.854134 120.697001 248.941635 122.899968 248.941635 125.196694 
C 248.941635 127.49342 249.854134 129.696388 251.478165 131.320419 
C 253.102195 132.944449 255.305163 133.856948 257.601889 133.856948 
z
" clip-path="url(#p83a072ef42)" style="fill: #ffffff; stroke: #000000"/>
    <path d="M 284.803778 133.856948 
C 287.100504 133.856948 289.303472 132.944449 290.927502 131.320419 
C 292.551533 129.696388 293.464032 127.49342 293.464032 125.196694 
C 293.464032 122.899968 292.551533 120.697001 290.927502 119.07297 
C 289.303472 117.448939 287.100504 116.53644 284.803778 116.53644 
C 282.507052 116.53644 280.304084 117.448939 278.680054 119.07297 
C 277.056023 120.697001 276.143524 122.899968 276.143524 125.196694 
C 276.143524 127.49342 277.056023 129.696388 278.680054 131.320419 
C 280.304084 132.944449 282.507052 133.856948 284.803778 133.856948 
z
" clip-path="url(#p83a072ef42)" style="fill: #ffffff; stroke: #000000"/>
    <path d="M 284.803778 229.06356 
C 287.100504 229.06356 289.303472 228.151061 290.927502 226.52703 
C 292.551533 224.902999 293.464032 222.700032 293.464032 220.403306 
C 293.464032 218.10658 292.551533 215.903612 290.927502 214.279581 
C 289.303472 212.655551 287.100504 211.743052 284.803778 211.743052 
C 282.507052 211.743052 280.304084 212.655551 278.680054 214.279581 
C 277.056023 215.903612 276.143524 218.10658 276.143524 220.403306 
C 276.143524 222.700032 277.056023 224.902999 278.680054 226.52703 
C 280.304084 228.151061 282.507052 229.06356 284.803778 229.06356 
z
" clip-path="url(#p83a072ef42)" style="fill: #ffffff; stroke: #000000"/>
    <path d="M 284.803778 181.460254 
C 287.100504 181.460254 289.303472 180.547755 290.927502 178.923724 
C 292.551533 177.299694 293.464032 175.096726 293.464032 172.8 
C 293.464032 170.503274 292.551533 168.300306 290.927502 166.676276 
C 289.303472 165.052245 287.100504 164.139746 284.803778 164.139746 
C 282.507052 164.139746 280.304084 165.052245 278.680054 166.676276 
C 277.056023 168.300306 276.143524 170.503274 276.143524 172.8 
C 276.143524 175.096726 277.056023 177.299694 278.680054 178.923724 
C 280.304084 180.547755 282.507052 181.460254 284.803778 181.460254 
z
" clip-path="url(#p83a072ef42)" style="fill: #ffffff; stroke: #000000"/>
    <path d="M 312.005667 181.460254 
C 314.302393 181.460254 316.505361 180.547755 318.129391 178.923724 
C 319.753422 177.299694 320.665921 175.096726 320.665921 172.8 
C 320.665921 170.503274 319.753422 168.300306 318.129391 166.676276 
C 316.505361 165.052245 314.302393 164.139746 312.005667 164.139746 
C 309.708941 164.139746 307.505973 165.052245 305.881943 166.676276 
C 304.257912 168.300306 303.345413 170.503274 303.345413 172.8 
C 303.345413 175.096726 304.257912 177.299694 305.881943 178.923724 
C 307.505973 180.547755 309.708941 181.460254 312.005667 181.460254 
z
" clip-path="url(#p83a072ef42)" style="fill: #ffffff; stroke: #000000"/>
    <path d="M 339.207556 181.460254 
C 341.504282 181.460254 343.70725 180.547755 345.33128 178.923724 
C 346.955311 177.299694 347.86781 175.096726 347.86781 172.8 
C 347.86781 170.503274 346.955311 168.300306 345.33128 166.676276 
C 343.70725 165.052245 341.504282 164.139746 339.207556 164.139746 
C 336.91083 164.139746 334.707862 165.052245 333.083832 166.676276 
C 331.459801 168.300306 330.547302 170.503274 330.547302 172.8 
C 330.547302 175.096726 331.459801 177.299694 333.083832 178.923724 
C 334.707862 180.547755 336.91083 181.460254 339.207556 181.460254 
z
" clip-path="url(#p83a072ef42)" style="fill: #ffffff; stroke: #000000"/>
    <path d="M 366.409445 181.460254 
C 368.706171 181.460254 370.909139 180.547755 372.533169 178.923724 
C 374.1572 177.299694 375.069699 175.096726 375.069699 172.8 
C 375.069699 170.503274 374.1572 168.300306 372.533169 166.676276 
C 370.909139 165.052245 368.706171 164.139746 366.409445 164.139746 
C 364.112719 164.139746 361.909751 165.052245 360.285721 166.676276 
C 358.66169 168.300306 357.749191 170.503274 357.749191 172.8 
C 357.749191 175.096726 358.66169 177.299694 360.285721 178.923724 
C 361.909751 180.547755 364.112719 181.460254 366.409445 181.460254 
z
" clip-path="url(#p83a072ef42)" style="fill: #ffffff; stroke: #000000"/>
    <path d="M 393.611334 181.460254 
C 395.90806 181.460254 398.111028 180.547755 399.735058 178.923724 
C 401.359089 177.299694 402.271588 175.096726 402.271588 172.8 
C 402.271588 170.503274 401.359089 168.300306 399.735058 166.676276 
C 398.111028 165.052245 395.90806 164.139746 393.611334 164.139746 
C 391.314608 164.139746 389.11164 165.052245 387.48761 166.676276 
C 385.863579 168.300306 384.95108 170.503274 384.95108 172.8 
C 384.95108 175.096726 385.863579 177.299694 387.48761 178.923724 
C 389.11164 180.547755 391.314608 181.460254 393.611334 181.460254 
z
" clip-path="url(#p83a072ef42)" style="fill: #ffffff; stroke: #000000"/>
    <path d="M 420.813223 181.460254 
C 423.109949 181.460254 425.312917 180.547755 426.936947 178.923724 
C 428.560978 177.299694 429.473477 175.096726 429.473477 172.8 
C 429.473477 170.503274 428.560978 168.300306 426.936947 166.676276 
C 425.312917 165.052245 423.109949 164.139746 420.813223 164.139746 
C 418.516497 164.139746 416.313529 165.052245 414.689499 166.676276 
C 413.065468 168.300306 412.152969 170.503274 412.152969 172.8 
C 412.152969 175.096726 413.065468 177.299694 414.689499 178.923724 
C 416.313529 180.547755 418.516497 181.460254 420.813223 181.460254 
z
" clip-path="url(#p83a072ef42)" style="fill: #0000ff; stroke: #000000"/>
   </g>
  </g>
 </g>
 <defs>
  <clipPath id="p83a072ef42">
   <rect x="0" y="0" width="460.8" height="345.6"/>
  </clipPath>
 </defs>
</svg>
