<?xml version="1.0" encoding="utf-8" standalone="no"?>
<!DOCTYPE svg PUBLIC "-//W3C//DTD SVG 1.1//EN"
  "http://www.w3.org/Graphics/SVG/1.1/DTD/svg11.dtd">
<svg xmlns:xlink="http://www.w3.org/1999/xlink" width="460.8pt" height="345.6pt" viewBox="0 0 460.8 345.6" xmlns="http://www.w3.org/2000/svg" version="1.1">
 <metadata>
  <rdf:RDF xmlns:dc="http://purl.org/dc/elements/1.1/" xmlns:cc="http://creativecommons.org/ns#" xmlns:rdf="http://www.w3.org/1999/02/22-rdf-syntax-ns#">
   <cc:Work>
    <dc:type rdf:resource="http://purl.org/dc/dcmitype/StillImage"/>
    <dc:date>2025-11-07T09:58:21.288905</dc:date>
    <dc:format>image/svg+xml</dc:format>
    <dc:creator>
     <cc:Agent>
      <dc:title>Matplotlib v3.10.5, https://matplotlib.org/</dc:title>
     </cc:Agent>
    </dc:creator>
   </cc:Work>
  </rdf:RDF>
 </metadata>
 <defs>
  <style type="text/css">*{stroke-linejoin: round; stroke-linecap: butt}</style>
 </defs>
 <g id="figure_1">
  <g id="patch_1">
   <path d="M 0 345.6 
L 460.8 345.6 
L 460.8 0 
L 0 0 
z
" style="fill: #ffffff"/>
  </g>
  <g id="axes_1">
   <g id="patch_2">
    <path d="M 44.79098 308.403612 
Q 87.590594 244.204191 129.770035 180.93503 
" clip-path="url(#p3ccc00731a)" style="fill: none; stroke: #4c4c4c; stroke-linecap: round"/>
    <path d="M 128.605165 181.60067 
L 129.770035 180.93503 
L 129.603625 182.266311 
" clip-path="url(#p3ccc00731a)" style="fill: none; stroke: #4c4c4c; stroke-linecap: round"/>
   </g>
   <g id="patch_3">
    <path d="M 47.826911 311.934854 
Q 192.316329 244.20544 335.793413 176.950557 
" clip-path="url(#p3ccc00731a)" style="fill: none; stroke: #4c4c4c; stroke-linecap: round"/>
    <path d="M 334.452201 176.916602 
L 335.793413 176.950557 
L 334.961522 178.003153 
" clip-path="url(#p3ccc00731a)" style="fill: none; stroke: #4c4c4c; stroke-linecap: round"/>
   </g>
   <g id="patch_4">
    <path d="M 47.33298 311.01854 
Q 154.234695 244.204968 260.188319 177.983953 
" clip-path="url(#p3ccc00731a)" style="fill: none; stroke: #4c4c4c; stroke-linecap: round"/>
    <path d="M 258.852722 178.111153 
L 260.188319 177.983953 
L 259.488721 179.128751 
" clip-path="url(#p3ccc00731a)" style="fill: none; stroke: #4c4c4c; stroke-linecap: round"/>
   </g>
   <g id="patch_5">
    <path d="M 41.865457 250.031889 
Q 49.507672 215.64192 56.907352 182.343362 
" clip-path="url(#p3ccc00731a)" style="fill: none; stroke: #4c4c4c; stroke-linecap: round"/>
    <path d="M 56.061323 183.384628 
L 56.907352 182.343362 
L 57.232748 183.644945 
" clip-path="url(#p3ccc00731a)" style="fill: none; stroke: #4c4c4c; stroke-linecap: round"/>
   </g>
   <g id="patch_6">
    <path d="M 44.791271 251.27921 
Q 49.507046 244.205546 53.602648 238.062143 
" clip-path="url(#p3ccc00731a)" style="fill: none; stroke: #4c4c4c; stroke-linecap: round"/>
    <path d="M 52.437778 238.727783 
L 53.602648 238.062143 
L 53.436238 239.393424 
" clip-path="url(#p3ccc00731a)" style="fill: none; stroke: #4c4c4c; stroke-linecap: round"/>
   </g>
   <g id="patch_7">
    <path d="M 48.647417 201.361983 
Q 78.071517 201.361983 106.377583 201.361983 
" clip-path="url(#p3ccc00731a)" style="fill: none; stroke: #4c4c4c; stroke-linecap: round"/>
    <path d="M 105.177583 200.761983 
L 106.377583 201.361983 
L 105.177583 201.961983 
" clip-path="url(#p3ccc00731a)" style="fill: none; stroke: #4c4c4c; stroke-linecap: round"/>
   </g>
   <g id="patch_8">
    <path d="M 48.645384 201.361983 
Q 201.838447 201.361983 353.913477 201.361983 
" clip-path="url(#p3ccc00731a)" style="fill: none; stroke: #4c4c4c; stroke-linecap: round"/>
    <path d="M 352.713477 200.761983 
L 353.913477 201.361983 
L 352.713477 201.961983 
" clip-path="url(#p3ccc00731a)" style="fill: none; stroke: #4c4c4c; stroke-linecap: round"/>
   </g>
   <g id="patch_9">
    <path d="M 41.865457 192.907922 
Q 49.507672 158.517954 56.907352 125.219395 
" clip-path="url(#p3ccc00731a)" style="fill: none; stroke: #4c4c4c; stroke-linecap: round"/>
    <path d="M 56.061323 126.260661 
L 56.907352 125.219395 
L 57.232748 126.520978 
" clip-path="url(#p3ccc00731a)" style="fill: none; stroke: #4c4c4c; stroke-linecap: round"/>
   </g>
   <g id="patch_10">
    <path d="M 48.514492 145.742907 
Q 201.838531 172.800091 354.061549 199.662976 
" clip-path="url(#p3ccc00731a)" style="fill: none; stroke: #4c4c4c; stroke-linecap: round"/>
    <path d="M 352.98408 198.863564 
L 354.061549 199.662976 
L 352.775538 200.045304 
" clip-path="url(#p3ccc00731a)" style="fill: none; stroke: #4c4c4c; stroke-linecap: round"/>
   </g>
   <g id="patch_11">
    <path d="M 46.422404 150.030081 
Q 87.58816 187.079262 127.922888 223.380517 
" clip-path="url(#p3ccc00731a)" style="fill: none; stroke: #4c4c4c; stroke-linecap: round"/>
    <path d="M 127.432314 222.131782 
L 127.922888 223.380517 
L 126.629556 223.023735 
" clip-path="url(#p3ccc00731a)" style="fill: none; stroke: #4c4c4c; stroke-linecap: round"/>
   </g>
   <g id="patch_12">
    <path d="M 48.280456 89.602153 
Q 182.79439 129.956333 316.237441 169.989249 
" clip-path="url(#p3ccc00731a)" style="fill: none; stroke: #4c4c4c; stroke-linecap: round"/>
    <path d="M 315.260459 169.069736 
L 316.237441 169.989249 
L 314.915641 170.219127 
" clip-path="url(#p3ccc00731a)" style="fill: none; stroke: #4c4c4c; stroke-linecap: round"/>
   </g>
   <g id="patch_13">
    <path d="M 48.153922 89.996572 
Q 201.837531 144.237845 354.466844 198.107015 
" clip-path="url(#p3ccc00731a)" style="fill: none; stroke: #4c4c4c; stroke-linecap: round"/>
    <path d="M 353.534948 197.141836 
L 354.466844 198.107015 
L 353.135564 198.273425 
" clip-path="url(#p3ccc00731a)" style="fill: none; stroke: #4c4c4c; stroke-linecap: round"/>
   </g>
   <g id="patch_14">
    <path d="M 48.385925 89.213837 
Q 97.109379 101.3947 144.748182 113.304401 
" clip-path="url(#p3ccc00731a)" style="fill: none; stroke: #4c4c4c; stroke-linecap: round"/>
    <path d="M 143.729532 112.431273 
L 144.748182 113.304401 
L 143.438489 113.595444 
" clip-path="url(#p3ccc00731a)" style="fill: none; stroke: #4c4c4c; stroke-linecap: round"/>
   </g>
   <g id="patch_15">
    <path d="M 44.283975 94.634146 
Q 97.111029 187.08149 149.383382 278.558109 
" clip-path="url(#p3ccc00731a)" style="fill: none; stroke: #4c4c4c; stroke-linecap: round"/>
    <path d="M 149.308961 277.218534 
L 149.383382 278.558109 
L 148.26707 277.813901 
" clip-path="url(#p3ccc00731a)" style="fill: none; stroke: #4c4c4c; stroke-linecap: round"/>
   </g>
   <g id="patch_16">
    <path d="M 42.724606 38.203571 
Q 68.54798 115.673693 94.017801 192.083154 
" clip-path="url(#p3ccc00731a)" style="fill: none; stroke: #4c4c4c; stroke-linecap: round"/>
    <path d="M 94.207537 190.754998 
L 94.017801 192.083154 
L 93.069117 191.134471 
" clip-path="url(#p3ccc00731a)" style="fill: none; stroke: #4c4c4c; stroke-linecap: round"/>
   </g>
   <g id="patch_17">
    <path d="M 47.640234 34.041913 
Q 201.836866 115.675424 355.045392 196.78582 
" clip-path="url(#p3ccc00731a)" style="fill: none; stroke: #4c4c4c; stroke-linecap: round"/>
    <path d="M 354.265579 195.694082 
L 355.045392 196.78582 
L 353.704114 196.754628 
" clip-path="url(#p3ccc00731a)" style="fill: none; stroke: #4c4c4c; stroke-linecap: round"/>
   </g>
   <g id="patch_18">
    <path d="M 47.142672 34.869102 
Q 144.712815 101.394199 241.359208 167.289467 
" clip-path="url(#p3ccc00731a)" style="fill: none; stroke: #4c4c4c; stroke-linecap: round"/>
    <path d="M 240.705737 166.117727 
L 241.359208 167.289467 
L 240.029733 167.109199 
" clip-path="url(#p3ccc00731a)" style="fill: none; stroke: #4c4c4c; stroke-linecap: round"/>
   </g>
   <g id="patch_19">
    <path d="M 44.283975 37.510179 
Q 97.111029 129.957523 149.383382 221.434142 
" clip-path="url(#p3ccc00731a)" style="fill: none; stroke: #4c4c4c; stroke-linecap: round"/>
    <path d="M 149.308961 220.094567 
L 149.383382 221.434142 
L 148.26707 220.689934 
" clip-path="url(#p3ccc00731a)" style="fill: none; stroke: #4c4c4c; stroke-linecap: round"/>
   </g>
   <g id="patch_20">
    <path d="M 67.539979 228.327989 
Q 135.194195 215.642824 201.749525 203.1637 
" clip-path="url(#p3ccc00731a)" style="fill: none; stroke: #4c4c4c; stroke-linecap: round"/>
    <path d="M 200.459506 202.795122 
L 201.749525 203.1637 
L 200.680652 203.974569 
" clip-path="url(#p3ccc00731a)" style="fill: none; stroke: #4c4c4c; stroke-linecap: round"/>
   </g>
   <g id="patch_21">
    <path d="M 65.957076 224.727234 
Q 78.071335 215.64154 89.291167 207.226666 
" clip-path="url(#p3ccc00731a)" style="fill: none; stroke: #4c4c4c; stroke-linecap: round"/>
    <path d="M 87.971167 207.466666 
L 89.291167 207.226666 
L 88.691167 208.426666 
" clip-path="url(#p3ccc00731a)" style="fill: none; stroke: #4c4c4c; stroke-linecap: round"/>
   </g>
   <g id="patch_22">
    <path d="M 67.539979 171.204022 
Q 135.194195 158.518857 201.749525 146.039733 
" clip-path="url(#p3ccc00731a)" style="fill: none; stroke: #4c4c4c; stroke-linecap: round"/>
    <path d="M 200.459506 145.671156 
L 201.749525 146.039733 
L 200.680652 146.850602 
" clip-path="url(#p3ccc00731a)" style="fill: none; stroke: #4c4c4c; stroke-linecap: round"/>
   </g>
   <g id="patch_23">
    <path d="M 66.451588 177.254093 
Q 106.628815 201.36043 145.847336 224.891542 
" clip-path="url(#p3ccc00731a)" style="fill: none; stroke: #4c4c4c; stroke-linecap: round"/>
    <path d="M 145.127042 223.759652 
L 145.847336 224.891542 
L 144.509647 224.788643 
" clip-path="url(#p3ccc00731a)" style="fill: none; stroke: #4c4c4c; stroke-linecap: round"/>
   </g>
   <g id="patch_24">
    <path d="M 63.832593 180.006741 
Q 68.548369 187.080404 72.643971 193.223807 
" clip-path="url(#p3ccc00731a)" style="fill: none; stroke: #4c4c4c; stroke-linecap: round"/>
    <path d="M 72.477561 191.892527 
L 72.643971 193.223807 
L 71.4791 192.558167 
" clip-path="url(#p3ccc00731a)" style="fill: none; stroke: #4c4c4c; stroke-linecap: round"/>
   </g>
   <g id="patch_25">
    <path d="M 63.832593 122.882774 
Q 68.548369 129.956437 72.643971 136.09984 
" clip-path="url(#p3ccc00731a)" style="fill: none; stroke: #4c4c4c; stroke-linecap: round"/>
    <path d="M 72.477561 134.76856 
L 72.643971 136.09984 
L 71.4791 135.4342 
" clip-path="url(#p3ccc00731a)" style="fill: none; stroke: #4c4c4c; stroke-linecap: round"/>
   </g>
   <g id="patch_26">
    <path d="M 67.323231 118.164573 
Q 154.234766 144.238033 240.075419 169.990229 
" clip-path="url(#p3ccc00731a)" style="fill: none; stroke: #4c4c4c; stroke-linecap: round"/>
    <path d="M 239.098436 169.070716 
L 240.075419 169.990229 
L 238.753619 170.220107 
" clip-path="url(#p3ccc00731a)" style="fill: none; stroke: #4c4c4c; stroke-linecap: round"/>
   </g>
   <g id="patch_27">
    <path d="M 67.363326 118.020316 
Q 211.35966 158.519285 354.279717 198.715551 
" clip-path="url(#p3ccc00731a)" style="fill: none; stroke: #4c4c4c; stroke-linecap: round"/>
    <path d="M 353.286983 197.813065 
L 354.279717 198.715551 
L 352.962089 198.968247 
" clip-path="url(#p3ccc00731a)" style="fill: none; stroke: #4c4c4c; stroke-linecap: round"/>
   </g>
   <g id="patch_28">
    <path d="M 86.729481 201.361983 
Q 144.71393 201.361983 201.580345 201.361983 
" clip-path="url(#p3ccc00731a)" style="fill: none; stroke: #4c4c4c; stroke-linecap: round"/>
    <path d="M 200.380345 200.761983 
L 201.580345 201.361983 
L 200.380345 201.961983 
" clip-path="url(#p3ccc00731a)" style="fill: none; stroke: #4c4c4c; stroke-linecap: round"/>
   </g>
   <g id="patch_29">
    <path d="M 86.730062 201.361983 
Q 87.590473 201.361983 87.332849 201.361983 
" clip-path="url(#p3ccc00731a)" style="fill: none; stroke: #4c4c4c; stroke-linecap: round"/>
    <path d="M 86.132849 200.761983 
L 87.332849 201.361983 
L 86.132849 201.961983 
" clip-path="url(#p3ccc00731a)" style="fill: none; stroke: #4c4c4c; stroke-linecap: round"/>
   </g>
   <g id="patch_30">
    <path d="M 86.730062 144.238017 
Q 87.590473 144.238017 87.332849 144.238017 
" clip-path="url(#p3ccc00731a)" style="fill: none; stroke: #4c4c4c; stroke-linecap: round"/>
    <path d="M 86.132849 143.638017 
L 87.332849 144.238017 
L 86.132849 144.838017 
" clip-path="url(#p3ccc00731a)" style="fill: none; stroke: #4c4c4c; stroke-linecap: round"/>
   </g>
   <g id="patch_31">
    <path d="M 105.673179 200.077618 
Q 192.315634 187.08125 277.852424 174.250731 
" clip-path="url(#p3ccc00731a)" style="fill: none; stroke: #4c4c4c; stroke-linecap: round"/>
    <path d="M 276.576697 173.835378 
L 277.852424 174.250731 
L 276.754705 175.022102 
" clip-path="url(#p3ccc00731a)" style="fill: none; stroke: #4c4c4c; stroke-linecap: round"/>
   </g>
   <g id="patch_32">
    <path d="M 101.913494 208.566109 
Q 125.671842 244.203631 148.810016 278.910892 
" clip-path="url(#p3ccc00731a)" style="fill: none; stroke: #4c4c4c; stroke-linecap: round"/>
    <path d="M 148.643606 277.579612 
L 148.810016 278.910892 
L 147.645146 278.245252 
" clip-path="url(#p3ccc00731a)" style="fill: none; stroke: #4c4c4c; stroke-linecap: round"/>
   </g>
   <g id="patch_33">
    <path d="M 105.771384 201.361983 
Q 106.631795 201.361983 106.374171 201.361983 
" clip-path="url(#p3ccc00731a)" style="fill: none; stroke: #4c4c4c; stroke-linecap: round"/>
    <path d="M 105.174171 200.761983 
L 106.374171 201.361983 
L 105.174171 201.961983 
" clip-path="url(#p3ccc00731a)" style="fill: none; stroke: #4c4c4c; stroke-linecap: round"/>
   </g>
   <g id="patch_34">
    <path d="M 105.771384 144.238017 
Q 106.631795 144.238017 106.374171 144.238017 
" clip-path="url(#p3ccc00731a)" style="fill: none; stroke: #4c4c4c; stroke-linecap: round"/>
    <path d="M 105.174171 143.638017 
L 106.374171 144.238017 
L 105.174171 144.838017 
" clip-path="url(#p3ccc00731a)" style="fill: none; stroke: #4c4c4c; stroke-linecap: round"/>
   </g>
   <g id="patch_35">
    <path d="M 120.95656 208.568724 
Q 125.672336 215.642388 129.767938 221.785791 
" clip-path="url(#p3ccc00731a)" style="fill: none; stroke: #4c4c4c; stroke-linecap: round"/>
    <path d="M 129.601527 220.45451 
L 129.767938 221.785791 
L 128.603067 221.12015 
" clip-path="url(#p3ccc00731a)" style="fill: none; stroke: #4c4c4c; stroke-linecap: round"/>
   </g>
   <g id="patch_36">
    <path d="M 120.95656 194.155243 
Q 125.672336 187.081579 129.767938 180.938176 
" clip-path="url(#p3ccc00731a)" style="fill: none; stroke: #4c4c4c; stroke-linecap: round"/>
    <path d="M 128.603067 181.603817 
L 129.767938 180.938176 
L 129.601527 182.269457 
" clip-path="url(#p3ccc00731a)" style="fill: none; stroke: #4c4c4c; stroke-linecap: round"/>
   </g>
   <g id="patch_37">
    <path d="M 118.030746 192.907922 
Q 125.672962 158.517954 133.072641 125.219395 
" clip-path="url(#p3ccc00731a)" style="fill: none; stroke: #4c4c4c; stroke-linecap: round"/>
    <path d="M 132.226613 126.260661 
L 133.072641 125.219395 
L 133.398037 126.520978 
" clip-path="url(#p3ccc00731a)" style="fill: none; stroke: #4c4c4c; stroke-linecap: round"/>
   </g>
   <g id="patch_38">
    <path d="M 119.670015 209.27737 
Q 135.193433 244.205058 150.262773 278.111075 
" clip-path="url(#p3ccc00731a)" style="fill: none; stroke: #4c4c4c; stroke-linecap: round"/>
    <path d="M 150.323694 276.770818 
L 150.262773 278.111075 
L 149.22712 277.258184 
" clip-path="url(#p3ccc00731a)" style="fill: none; stroke: #4c4c4c; stroke-linecap: round"/>
   </g>
   <g id="patch_39">
    <path d="M 124.733387 145.408197 
Q 220.880417 158.519155 315.919665 171.479053 
" clip-path="url(#p3ccc00731a)" style="fill: none; stroke: #4c4c4c; stroke-linecap: round"/>
    <path d="M 314.811737 170.722419 
L 315.919665 171.479053 
L 314.649601 171.911415 
" clip-path="url(#p3ccc00731a)" style="fill: none; stroke: #4c4c4c; stroke-linecap: round"/>
   </g>
   <g id="patch_40">
    <path d="M 143.48852 227.435427 
Q 230.400055 201.361967 316.240708 175.609771 
" clip-path="url(#p3ccc00731a)" style="fill: none; stroke: #4c4c4c; stroke-linecap: round"/>
    <path d="M 314.918908 175.379893 
L 316.240708 175.609771 
L 315.263725 176.529284 
" clip-path="url(#p3ccc00731a)" style="fill: none; stroke: #4c4c4c; stroke-linecap: round"/>
   </g>
   <g id="patch_41">
    <path d="M 136.617652 181.345584 
Q 144.714091 229.924214 152.626725 277.400021 
" clip-path="url(#p3ccc00731a)" style="fill: none; stroke: #4c4c4c; stroke-linecap: round"/>
    <path d="M 153.021283 276.117709 
L 152.626725 277.400021 
L 151.83761 276.314988 
" clip-path="url(#p3ccc00731a)" style="fill: none; stroke: #4c4c4c; stroke-linecap: round"/>
   </g>
   <g id="patch_42">
    <path d="M 143.854029 172.8 
Q 144.714439 172.8 144.456816 172.8 
" clip-path="url(#p3ccc00731a)" style="fill: none; stroke: #4c4c4c; stroke-linecap: round"/>
    <path d="M 143.256816 172.2 
L 144.456816 172.8 
L 143.256816 173.4 
" clip-path="url(#p3ccc00731a)" style="fill: none; stroke: #4c4c4c; stroke-linecap: round"/>
   </g>
   <g id="patch_43">
    <path d="M 137.93267 181.017846 
Q 144.714076 201.362064 151.141929 220.645622 
" clip-path="url(#p3ccc00731a)" style="fill: none; stroke: #4c4c4c; stroke-linecap: round"/>
    <path d="M 151.331666 219.317465 
L 151.141929 220.645622 
L 150.193246 219.696938 
" clip-path="url(#p3ccc00731a)" style="fill: none; stroke: #4c4c4c; stroke-linecap: round"/>
   </g>
   <g id="patch_44">
    <path d="M 137.93267 107.458187 
Q 144.714076 87.113969 151.141929 67.830411 
" clip-path="url(#p3ccc00731a)" style="fill: none; stroke: #4c4c4c; stroke-linecap: round"/>
    <path d="M 150.193246 68.779095 
L 151.141929 67.830411 
L 151.331666 69.158568 
" clip-path="url(#p3ccc00731a)" style="fill: none; stroke: #4c4c4c; stroke-linecap: round"/>
   </g>
   <g id="patch_45">
    <path d="M 143.854029 115.676033 
Q 144.714439 115.676033 144.456816 115.676033 
" clip-path="url(#p3ccc00731a)" style="fill: none; stroke: #4c4c4c; stroke-linecap: round"/>
    <path d="M 143.256816 115.076033 
L 144.456816 115.676033 
L 143.256816 116.276033 
" clip-path="url(#p3ccc00731a)" style="fill: none; stroke: #4c4c4c; stroke-linecap: round"/>
   </g>
   <g id="patch_46">
    <path d="M 156.973993 278.830088 
Q 163.755399 258.48587 170.183251 239.202312 
" clip-path="url(#p3ccc00731a)" style="fill: none; stroke: #4c4c4c; stroke-linecap: round"/>
    <path d="M 169.234568 240.150995 
L 170.183251 239.202312 
L 170.372988 240.530469 
" clip-path="url(#p3ccc00731a)" style="fill: none; stroke: #4c4c4c; stroke-linecap: round"/>
   </g>
   <g id="patch_47">
    <path d="M 156.973993 221.706121 
Q 163.755399 201.361903 170.183251 182.078345 
" clip-path="url(#p3ccc00731a)" style="fill: none; stroke: #4c4c4c; stroke-linecap: round"/>
    <path d="M 169.234568 183.027028 
L 170.183251 182.078345 
L 170.372988 183.406502 
" clip-path="url(#p3ccc00731a)" style="fill: none; stroke: #4c4c4c; stroke-linecap: round"/>
   </g>
   <g id="patch_48">
    <path d="M 155.658975 221.378383 
Q 163.755413 172.799753 171.668048 125.323945 
" clip-path="url(#p3ccc00731a)" style="fill: none; stroke: #4c4c4c; stroke-linecap: round"/>
    <path d="M 170.878933 126.408979 
L 171.668048 125.323945 
L 172.062605 126.606258 
" clip-path="url(#p3ccc00731a)" style="fill: none; stroke: #4c4c4c; stroke-linecap: round"/>
   </g>
   <g id="patch_49">
    <path d="M 159.037461 122.880159 
Q 182.795809 158.51768 205.933983 193.224942 
" clip-path="url(#p3ccc00731a)" style="fill: none; stroke: #4c4c4c; stroke-linecap: round"/>
    <path d="M 205.767573 191.893661 
L 205.933983 193.224942 
L 204.769113 192.559301 
" clip-path="url(#p3ccc00731a)" style="fill: none; stroke: #4c4c4c; stroke-linecap: round"/>
   </g>
   <g id="patch_50">
    <path d="M 159.037461 65.756192 
Q 182.795809 101.393714 205.933983 136.100975 
" clip-path="url(#p3ccc00731a)" style="fill: none; stroke: #4c4c4c; stroke-linecap: round"/>
    <path d="M 205.767573 134.769694 
L 205.933983 136.100975 
L 204.769113 135.435334 
" clip-path="url(#p3ccc00731a)" style="fill: none; stroke: #4c4c4c; stroke-linecap: round"/>
   </g>
   <g id="patch_51">
    <path d="M 162.895932 172.8 
Q 201.838453 172.8 239.662939 172.8 
" clip-path="url(#p3ccc00731a)" style="fill: none; stroke: #4c4c4c; stroke-linecap: round"/>
    <path d="M 238.462939 172.2 
L 239.662939 172.8 
L 238.462939 173.4 
" clip-path="url(#p3ccc00731a)" style="fill: none; stroke: #4c4c4c; stroke-linecap: round"/>
   </g>
   <g id="patch_52">
    <path d="M 181.936674 172.8 
Q 182.797084 172.8 182.539461 172.8 
" clip-path="url(#p3ccc00731a)" style="fill: none; stroke: #4c4c4c; stroke-linecap: round"/>
    <path d="M 181.339461 172.2 
L 182.539461 172.8 
L 181.339461 173.4 
" clip-path="url(#p3ccc00731a)" style="fill: none; stroke: #4c4c4c; stroke-linecap: round"/>
   </g>
   <g id="patch_53">
    <path d="M 181.38812 226.881934 
Q 249.441661 201.361857 316.448354 176.234347 
" clip-path="url(#p3ccc00731a)" style="fill: none; stroke: #4c4c4c; stroke-linecap: round"/>
    <path d="M 315.114085 176.093897 
L 316.448354 176.234347 
L 315.535433 177.217492 
" clip-path="url(#p3ccc00731a)" style="fill: none; stroke: #4c4c4c; stroke-linecap: round"/>
   </g>
   <g id="patch_54">
    <path d="M 181.838468 116.960398 
Q 268.480923 129.956767 354.017714 142.787285 
" clip-path="url(#p3ccc00731a)" style="fill: none; stroke: #4c4c4c; stroke-linecap: round"/>
    <path d="M 352.919994 142.015915 
L 354.017714 142.787285 
L 352.741986 143.202638 
" clip-path="url(#p3ccc00731a)" style="fill: none; stroke: #4c4c4c; stroke-linecap: round"/>
   </g>
   <g id="patch_55">
    <path d="M 197.121849 180.006741 
Q 201.837625 187.080404 205.933227 193.223807 
" clip-path="url(#p3ccc00731a)" style="fill: none; stroke: #4c4c4c; stroke-linecap: round"/>
    <path d="M 205.766817 191.892527 
L 205.933227 193.223807 
L 204.768356 192.558167 
" clip-path="url(#p3ccc00731a)" style="fill: none; stroke: #4c4c4c; stroke-linecap: round"/>
   </g>
   <g id="patch_56">
    <path d="M 197.121849 165.593259 
Q 201.837625 158.519596 205.933227 152.376193 
" clip-path="url(#p3ccc00731a)" style="fill: none; stroke: #4c4c4c; stroke-linecap: round"/>
    <path d="M 204.768356 153.041833 
L 205.933227 152.376193 
L 205.766817 153.707473 
" clip-path="url(#p3ccc00731a)" style="fill: none; stroke: #4c4c4c; stroke-linecap: round"/>
   </g>
   <g id="patch_57">
    <path d="M 219.757825 199.262197 
Q 268.48128 187.081333 316.120083 175.171632 
" clip-path="url(#p3ccc00731a)" style="fill: none; stroke: #4c4c4c; stroke-linecap: round"/>
    <path d="M 314.81039 174.880589 
L 316.120083 175.171632 
L 315.101433 176.04476 
" clip-path="url(#p3ccc00731a)" style="fill: none; stroke: #4c4c4c; stroke-linecap: round"/>
   </g>
   <g id="patch_58">
    <path d="M 220.019318 201.361983 
Q 287.524634 201.361983 353.911917 201.361983 
" clip-path="url(#p3ccc00731a)" style="fill: none; stroke: #4c4c4c; stroke-linecap: round"/>
    <path d="M 352.711917 200.761983 
L 353.911917 201.361983 
L 352.711917 201.961983 
" clip-path="url(#p3ccc00731a)" style="fill: none; stroke: #4c4c4c; stroke-linecap: round"/>
   </g>
   <g id="patch_59">
    <path d="M 216.163171 151.444757 
Q 220.878947 158.518421 224.974549 164.661824 
" clip-path="url(#p3ccc00731a)" style="fill: none; stroke: #4c4c4c; stroke-linecap: round"/>
    <path d="M 224.808139 163.330543 
L 224.974549 164.661824 
L 223.809679 163.996183 
" clip-path="url(#p3ccc00731a)" style="fill: none; stroke: #4c4c4c; stroke-linecap: round"/>
   </g>
   <g id="patch_60">
    <path d="M 239.06064 172.8 
Q 239.921051 172.8 239.663428 172.8 
" clip-path="url(#p3ccc00731a)" style="fill: none; stroke: #4c4c4c; stroke-linecap: round"/>
    <path d="M 238.463428 172.2 
L 239.663428 172.8 
L 238.463428 173.4 
" clip-path="url(#p3ccc00731a)" style="fill: none; stroke: #4c4c4c; stroke-linecap: round"/>
   </g>
   <g id="patch_61">
    <path d="M 258.101963 172.8 
Q 258.962373 172.8 258.70475 172.8 
" clip-path="url(#p3ccc00731a)" style="fill: none; stroke: #4c4c4c; stroke-linecap: round"/>
    <path d="M 257.50475 172.2 
L 258.70475 172.8 
L 257.50475 173.4 
" clip-path="url(#p3ccc00731a)" style="fill: none; stroke: #4c4c4c; stroke-linecap: round"/>
   </g>
   <g id="patch_62">
    <path d="M 277.143285 172.8 
Q 278.003696 172.8 277.746072 172.8 
" clip-path="url(#p3ccc00731a)" style="fill: none; stroke: #4c4c4c; stroke-linecap: round"/>
    <path d="M 276.546072 172.2 
L 277.746072 172.8 
L 276.546072 173.4 
" clip-path="url(#p3ccc00731a)" style="fill: none; stroke: #4c4c4c; stroke-linecap: round"/>
   </g>
   <g id="patch_63">
    <path d="M 296.184607 172.8 
Q 297.045018 172.8 296.787394 172.8 
" clip-path="url(#p3ccc00731a)" style="fill: none; stroke: #4c4c4c; stroke-linecap: round"/>
    <path d="M 295.587394 172.2 
L 296.787394 172.8 
L 295.587394 173.4 
" clip-path="url(#p3ccc00731a)" style="fill: none; stroke: #4c4c4c; stroke-linecap: round"/>
   </g>
   <g id="patch_64">
    <path d="M 315.22593 172.8 
Q 316.08634 172.8 315.828717 172.8 
" clip-path="url(#p3ccc00731a)" style="fill: none; stroke: #4c4c4c; stroke-linecap: round"/>
    <path d="M 314.628717 172.2 
L 315.828717 172.8 
L 314.628717 173.4 
" clip-path="url(#p3ccc00731a)" style="fill: none; stroke: #4c4c4c; stroke-linecap: round"/>
   </g>
   <g id="patch_65">
    <path d="M 334.267833 172.8 
Q 373.210353 172.8 411.03484 172.8 
" clip-path="url(#p3ccc00731a)" style="fill: none; stroke: #4c4c4c; stroke-linecap: round"/>
    <path d="M 409.83484 172.2 
L 411.03484 172.8 
L 409.83484 173.4 
" clip-path="url(#p3ccc00731a)" style="fill: none; stroke: #4c4c4c; stroke-linecap: round"/>
   </g>
   <g id="patch_66">
    <path d="M 334.267252 172.8 
Q 335.127663 172.8 334.870039 172.8 
" clip-path="url(#p3ccc00731a)" style="fill: none; stroke: #4c4c4c; stroke-linecap: round"/>
    <path d="M 333.670039 172.2 
L 334.870039 172.8 
L 333.670039 173.4 
" clip-path="url(#p3ccc00731a)" style="fill: none; stroke: #4c4c4c; stroke-linecap: round"/>
   </g>
   <g id="patch_67">
    <path d="M 349.452428 180.006741 
Q 354.168203 187.080404 358.263805 193.223807 
" clip-path="url(#p3ccc00731a)" style="fill: none; stroke: #4c4c4c; stroke-linecap: round"/>
    <path d="M 358.097395 191.892527 
L 358.263805 193.223807 
L 357.098935 192.558167 
" clip-path="url(#p3ccc00731a)" style="fill: none; stroke: #4c4c4c; stroke-linecap: round"/>
   </g>
   <g id="patch_68">
    <path d="M 349.452428 165.593259 
Q 354.168203 158.519596 358.263805 152.376193 
" clip-path="url(#p3ccc00731a)" style="fill: none; stroke: #4c4c4c; stroke-linecap: round"/>
    <path d="M 357.098935 153.041833 
L 358.263805 152.376193 
L 358.097395 153.707473 
" clip-path="url(#p3ccc00731a)" style="fill: none; stroke: #4c4c4c; stroke-linecap: round"/>
   </g>
   <g id="patch_69">
    <path d="M 368.49375 194.155243 
Q 373.209526 187.081579 377.305128 180.938176 
" clip-path="url(#p3ccc00731a)" style="fill: none; stroke: #4c4c4c; stroke-linecap: round"/>
    <path d="M 376.140257 181.603817 
L 377.305128 180.938176 
L 377.138718 182.269457 
" clip-path="url(#p3ccc00731a)" style="fill: none; stroke: #4c4c4c; stroke-linecap: round"/>
   </g>
   <g id="patch_70">
    <path d="M 370.618233 149.434749 
Q 382.732492 158.520444 393.952324 166.935317 
" clip-path="url(#p3ccc00731a)" style="fill: none; stroke: #4c4c4c; stroke-linecap: round"/>
    <path d="M 393.352324 165.735317 
L 393.952324 166.935317 
L 392.632324 166.695317 
" clip-path="url(#p3ccc00731a)" style="fill: none; stroke: #4c4c4c; stroke-linecap: round"/>
   </g>
   <g id="patch_71">
    <path d="M 391.391219 172.8 
Q 392.25163 172.8 391.994006 172.8 
" clip-path="url(#p3ccc00731a)" style="fill: none; stroke: #4c4c4c; stroke-linecap: round"/>
    <path d="M 390.794006 172.2 
L 391.994006 172.8 
L 390.794006 173.4 
" clip-path="url(#p3ccc00731a)" style="fill: none; stroke: #4c4c4c; stroke-linecap: round"/>
   </g>
   <g id="patch_72">
    <path d="M 410.432541 172.8 
Q 411.292952 172.8 411.035328 172.8 
" clip-path="url(#p3ccc00731a)" style="fill: none; stroke: #4c4c4c; stroke-linecap: round"/>
    <path d="M 409.835328 172.2 
L 411.035328 172.8 
L 409.835328 173.4 
" clip-path="url(#p3ccc00731a)" style="fill: none; stroke: #4c4c4c; stroke-linecap: round"/>
   </g>
   <g id="PathCollection_1">
    <path d="M 39.986777 324.270171 
C 42.283503 324.270171 44.486471 323.357672 46.110501 321.733642 
C 47.734532 320.109611 48.647031 317.906644 48.647031 315.609917 
C 48.647031 313.313191 47.734532 311.110224 46.110501 309.486193 
C 44.486471 307.862162 42.283503 306.949663 39.986777 306.949663 
C 37.690051 306.949663 35.487083 307.862162 33.863053 309.486193 
C 32.239022 311.110224 31.326523 313.313191 31.326523 315.609917 
C 31.326523 317.906644 32.239022 320.109611 33.863053 321.733642 
C 35.487083 323.357672 37.690051 324.270171 39.986777 324.270171 
z
" clip-path="url(#p3ccc00731a)" style="fill: #ffff00; stroke: #000000"/>
    <path d="M 39.986777 267.146204 
C 42.283503 267.146204 44.486471 266.233705 46.110501 264.609675 
C 47.734532 262.985644 48.647031 260.782677 48.647031 258.48595 
C 48.647031 256.189224 47.734532 253.986257 46.110501 252.362226 
C 44.486471 250.738195 42.283503 249.825696 39.986777 249.825696 
C 37.690051 249.825696 35.487083 250.738195 33.863053 252.362226 
C 32.239022 253.986257 31.326523 256.189224 31.326523 258.48595 
C 31.326523 260.782677 32.239022 262.985644 33.863053 264.609675 
C 35.487083 266.233705 37.690051 267.146204 39.986777 267.146204 
z
" clip-path="url(#p3ccc00731a)" style="fill: #ffff00; stroke: #000000"/>
    <path d="M 39.986777 210.022238 
C 42.283503 210.022238 44.486471 209.109739 46.110501 207.485708 
C 47.734532 205.861677 48.647031 203.65871 48.647031 201.361983 
C 48.647031 199.065257 47.734532 196.86229 46.110501 195.238259 
C 44.486471 193.614228 42.283503 192.701729 39.986777 192.701729 
C 37.690051 192.701729 35.487083 193.614228 33.863053 195.238259 
C 32.239022 196.86229 31.326523 199.065257 31.326523 201.361983 
C 31.326523 203.65871 32.239022 205.861677 33.863053 207.485708 
C 35.487083 209.109739 37.690051 210.022238 39.986777 210.022238 
z
" clip-path="url(#p3ccc00731a)" style="fill: #ffff00; stroke: #000000"/>
    <path d="M 39.986777 152.898271 
C 42.283503 152.898271 44.486471 151.985772 46.110501 150.361741 
C 47.734532 148.73771 48.647031 146.534743 48.647031 144.238017 
C 48.647031 141.94129 47.734532 139.738323 46.110501 138.114292 
C 44.486471 136.490261 42.283503 135.577762 39.986777 135.577762 
C 37.690051 135.577762 35.487083 136.490261 33.863053 138.114292 
C 32.239022 139.738323 31.326523 141.94129 31.326523 144.238017 
C 31.326523 146.534743 32.239022 148.73771 33.863053 150.361741 
C 35.487083 151.985772 37.690051 152.898271 39.986777 152.898271 
z
" clip-path="url(#p3ccc00731a)" style="fill: #ffff00; stroke: #000000"/>
    <path d="M 39.986777 95.774304 
C 42.283503 95.774304 44.486471 94.861805 46.110501 93.237774 
C 47.734532 91.613743 48.647031 89.410776 48.647031 87.11405 
C 48.647031 84.817323 47.734532 82.614356 46.110501 80.990325 
C 44.486471 79.366295 42.283503 78.453796 39.986777 78.453796 
C 37.690051 78.453796 35.487083 79.366295 33.863053 80.990325 
C 32.239022 82.614356 31.326523 84.817323 31.326523 87.11405 
C 31.326523 89.410776 32.239022 91.613743 33.863053 93.237774 
C 35.487083 94.861805 37.690051 95.774304 39.986777 95.774304 
z
" clip-path="url(#p3ccc00731a)" style="fill: #ffff00; stroke: #000000"/>
    <path d="M 39.986777 38.650337 
C 42.283503 38.650337 44.486471 37.737838 46.110501 36.113807 
C 47.734532 34.489776 48.647031 32.286809 48.647031 29.990083 
C 48.647031 27.693356 47.734532 25.490389 46.110501 23.866358 
C 44.486471 22.242328 42.283503 21.329829 39.986777 21.329829 
C 37.690051 21.329829 35.487083 22.242328 33.863053 23.866358 
C 32.239022 25.490389 31.326523 27.693356 31.326523 29.990083 
C 31.326523 32.286809 32.239022 34.489776 33.863053 36.113807 
C 35.487083 37.737838 37.690051 38.650337 39.986777 38.650337 
z
" clip-path="url(#p3ccc00731a)" style="fill: #ffff00; stroke: #000000"/>
    <path d="M 59.028099 238.584221 
C 61.324825 238.584221 63.527793 237.671722 65.151824 236.047691 
C 66.775854 234.423661 67.688353 232.220693 67.688353 229.923967 
C 67.688353 227.627241 66.775854 225.424273 65.151824 223.800243 
C 63.527793 222.176212 61.324825 221.263713 59.028099 221.263713 
C 56.731373 221.263713 54.528405 222.176212 52.904375 223.800243 
C 51.280344 225.424273 50.367845 227.627241 50.367845 229.923967 
C 50.367845 232.220693 51.280344 234.423661 52.904375 236.047691 
C 54.528405 237.671722 56.731373 238.584221 59.028099 238.584221 
z
" clip-path="url(#p3ccc00731a)" style="fill: #ffffff; stroke: #000000"/>
    <path d="M 59.028099 181.460254 
C 61.324825 181.460254 63.527793 180.547755 65.151824 178.923724 
C 66.775854 177.299694 67.688353 175.096726 67.688353 172.8 
C 67.688353 170.503274 66.775854 168.300306 65.151824 166.676276 
C 63.527793 165.052245 61.324825 164.139746 59.028099 164.139746 
C 56.731373 164.139746 54.528405 165.052245 52.904375 166.676276 
C 51.280344 168.300306 50.367845 170.503274 50.367845 172.8 
C 50.367845 175.096726 51.280344 177.299694 52.904375 178.923724 
C 54.528405 180.547755 56.731373 181.460254 59.028099 181.460254 
z
" clip-path="url(#p3ccc00731a)" style="fill: #ffffff; stroke: #000000"/>
    <path d="M 59.028099 124.336287 
C 61.324825 124.336287 63.527793 123.423788 65.151824 121.799757 
C 66.775854 120.175727 67.688353 117.972759 67.688353 115.676033 
C 67.688353 113.379307 66.775854 111.176339 65.151824 109.552309 
C 63.527793 107.928278 61.324825 107.015779 59.028099 107.015779 
C 56.731373 107.015779 54.528405 107.928278 52.904375 109.552309 
C 51.280344 111.176339 50.367845 113.379307 50.367845 115.676033 
C 50.367845 117.972759 51.280344 120.175727 52.904375 121.799757 
C 54.528405 123.423788 56.731373 124.336287 59.028099 124.336287 
z
" clip-path="url(#p3ccc00731a)" style="fill: #ffffff; stroke: #000000"/>
    <path d="M 78.069421 210.022238 
C 80.366148 210.022238 82.569115 209.109739 84.193146 207.485708 
C 85.817177 205.861677 86.729676 203.65871 86.729676 201.361983 
C 86.729676 199.065257 85.817177 196.86229 84.193146 195.238259 
C 82.569115 193.614228 80.366148 192.701729 78.069421 192.701729 
C 75.772695 192.701729 73.569728 193.614228 71.945697 195.238259 
C 70.321666 196.86229 69.409167 199.065257 69.409167 201.361983 
C 69.409167 203.65871 70.321666 205.861677 71.945697 207.485708 
C 73.569728 209.109739 75.772695 210.022238 78.069421 210.022238 
z
" clip-path="url(#p3ccc00731a)" style="fill: #ffffff; stroke: #000000"/>
    <path d="M 78.069421 152.898271 
C 80.366148 152.898271 82.569115 151.985772 84.193146 150.361741 
C 85.817177 148.73771 86.729676 146.534743 86.729676 144.238017 
C 86.729676 141.94129 85.817177 139.738323 84.193146 138.114292 
C 82.569115 136.490261 80.366148 135.577762 78.069421 135.577762 
C 75.772695 135.577762 73.569728 136.490261 71.945697 138.114292 
C 70.321666 139.738323 69.409167 141.94129 69.409167 144.238017 
C 69.409167 146.534743 70.321666 148.73771 71.945697 150.361741 
C 73.569728 151.985772 75.772695 152.898271 78.069421 152.898271 
z
" clip-path="url(#p3ccc00731a)" style="fill: #ffffff; stroke: #000000"/>
    <path d="M 97.110744 210.022238 
C 99.40747 210.022238 101.610437 209.109739 103.234468 207.485708 
C 104.858499 205.861677 105.770998 203.65871 105.770998 201.361983 
C 105.770998 199.065257 104.858499 196.86229 103.234468 195.238259 
C 101.610437 193.614228 99.40747 192.701729 97.110744 192.701729 
C 94.814018 192.701729 92.61105 193.614228 90.987019 195.238259 
C 89.362989 196.86229 88.45049 199.065257 88.45049 201.361983 
C 88.45049 203.65871 89.362989 205.861677 90.987019 207.485708 
C 92.61105 209.109739 94.814018 210.022238 97.110744 210.022238 
z
" clip-path="url(#p3ccc00731a)" style="fill: #ffffff; stroke: #000000"/>
    <path d="M 97.110744 152.898271 
C 99.40747 152.898271 101.610437 151.985772 103.234468 150.361741 
C 104.858499 148.73771 105.770998 146.534743 105.770998 144.238017 
C 105.770998 141.94129 104.858499 139.738323 103.234468 138.114292 
C 101.610437 136.490261 99.40747 135.577762 97.110744 135.577762 
C 94.814018 135.577762 92.61105 136.490261 90.987019 138.114292 
C 89.362989 139.738323 88.45049 141.94129 88.45049 144.238017 
C 88.45049 146.534743 89.362989 148.73771 90.987019 150.361741 
C 92.61105 151.985772 94.814018 152.898271 97.110744 152.898271 
z
" clip-path="url(#p3ccc00731a)" style="fill: #ffffff; stroke: #000000"/>
    <path d="M 116.152066 210.022238 
C 118.448792 210.022238 120.65176 209.109739 122.27579 207.485708 
C 123.899821 205.861677 124.81232 203.65871 124.81232 201.361983 
C 124.81232 199.065257 123.899821 196.86229 122.27579 195.238259 
C 120.65176 193.614228 118.448792 192.701729 116.152066 192.701729 
C 113.85534 192.701729 111.652372 193.614228 110.028342 195.238259 
C 108.404311 196.86229 107.491812 199.065257 107.491812 201.361983 
C 107.491812 203.65871 108.404311 205.861677 110.028342 207.485708 
C 111.652372 209.109739 113.85534 210.022238 116.152066 210.022238 
z
" clip-path="url(#p3ccc00731a)" style="fill: #ffffff; stroke: #000000"/>
    <path d="M 116.152066 152.898271 
C 118.448792 152.898271 120.65176 151.985772 122.27579 150.361741 
C 123.899821 148.73771 124.81232 146.534743 124.81232 144.238017 
C 124.81232 141.94129 123.899821 139.738323 122.27579 138.114292 
C 120.65176 136.490261 118.448792 135.577762 116.152066 135.577762 
C 113.85534 135.577762 111.652372 136.490261 110.028342 138.114292 
C 108.404311 139.738323 107.491812 141.94129 107.491812 144.238017 
C 107.491812 146.534743 108.404311 148.73771 110.028342 150.361741 
C 111.652372 151.985772 113.85534 152.898271 116.152066 152.898271 
z
" clip-path="url(#p3ccc00731a)" style="fill: #ffffff; stroke: #000000"/>
    <path d="M 135.193388 238.584221 
C 137.490115 238.584221 139.693082 237.671722 141.317113 236.047691 
C 142.941143 234.423661 143.853642 232.220693 143.853642 229.923967 
C 143.853642 227.627241 142.941143 225.424273 141.317113 223.800243 
C 139.693082 222.176212 137.490115 221.263713 135.193388 221.263713 
C 132.896662 221.263713 130.693695 222.176212 129.069664 223.800243 
C 127.445633 225.424273 126.533134 227.627241 126.533134 229.923967 
C 126.533134 232.220693 127.445633 234.423661 129.069664 236.047691 
C 130.693695 237.671722 132.896662 238.584221 135.193388 238.584221 
z
" clip-path="url(#p3ccc00731a)" style="fill: #ffffff; stroke: #000000"/>
    <path d="M 135.193388 181.460254 
C 137.490115 181.460254 139.693082 180.547755 141.317113 178.923724 
C 142.941143 177.299694 143.853642 175.096726 143.853642 172.8 
C 143.853642 170.503274 142.941143 168.300306 141.317113 166.676276 
C 139.693082 165.052245 137.490115 164.139746 135.193388 164.139746 
C 132.896662 164.139746 130.693695 165.052245 129.069664 166.676276 
C 127.445633 168.300306 126.533134 170.503274 126.533134 172.8 
C 126.533134 175.096726 127.445633 177.299694 129.069664 178.923724 
C 130.693695 180.547755 132.896662 181.460254 135.193388 181.460254 
z
" clip-path="url(#p3ccc00731a)" style="fill: #ffffff; stroke: #000000"/>
    <path d="M 135.193388 124.336287 
C 137.490115 124.336287 139.693082 123.423788 141.317113 121.799757 
C 142.941143 120.175727 143.853642 117.972759 143.853642 115.676033 
C 143.853642 113.379307 142.941143 111.176339 141.317113 109.552309 
C 139.693082 107.928278 137.490115 107.015779 135.193388 107.015779 
C 132.896662 107.015779 130.693695 107.928278 129.069664 109.552309 
C 127.445633 111.176339 126.533134 113.379307 126.533134 115.676033 
C 126.533134 117.972759 127.445633 120.175727 129.069664 121.799757 
C 130.693695 123.423788 132.896662 124.336287 135.193388 124.336287 
z
" clip-path="url(#p3ccc00731a)" style="fill: #ffffff; stroke: #000000"/>
    <path d="M 154.234711 295.708188 
C 156.531437 295.708188 158.734404 294.795689 160.358435 293.171658 
C 161.982466 291.547628 162.894965 289.34466 162.894965 287.047934 
C 162.894965 284.751208 161.982466 282.54824 160.358435 280.92421 
C 158.734404 279.300179 156.531437 278.38768 154.234711 278.38768 
C 151.937985 278.38768 149.735017 279.300179 148.110986 280.92421 
C 146.486956 282.54824 145.574457 284.751208 145.574457 287.047934 
C 145.574457 289.34466 146.486956 291.547628 148.110986 293.171658 
C 149.735017 294.795689 151.937985 295.708188 154.234711 295.708188 
z
" clip-path="url(#p3ccc00731a)" style="fill: #ffffff; stroke: #000000"/>
    <path d="M 154.234711 238.584221 
C 156.531437 238.584221 158.734404 237.671722 160.358435 236.047691 
C 161.982466 234.423661 162.894965 232.220693 162.894965 229.923967 
C 162.894965 227.627241 161.982466 225.424273 160.358435 223.800243 
C 158.734404 222.176212 156.531437 221.263713 154.234711 221.263713 
C 151.937985 221.263713 149.735017 222.176212 148.110986 223.800243 
C 146.486956 225.424273 145.574457 227.627241 145.574457 229.923967 
C 145.574457 232.220693 146.486956 234.423661 148.110986 236.047691 
C 149.735017 237.671722 151.937985 238.584221 154.234711 238.584221 
z
" clip-path="url(#p3ccc00731a)" style="fill: #ffffff; stroke: #000000"/>
    <path d="M 154.234711 124.336287 
C 156.531437 124.336287 158.734404 123.423788 160.358435 121.799757 
C 161.982466 120.175727 162.894965 117.972759 162.894965 115.676033 
C 162.894965 113.379307 161.982466 111.176339 160.358435 109.552309 
C 158.734404 107.928278 156.531437 107.015779 154.234711 107.015779 
C 151.937985 107.015779 149.735017 107.928278 148.110986 109.552309 
C 146.486956 111.176339 145.574457 113.379307 145.574457 115.676033 
C 145.574457 117.972759 146.486956 120.175727 148.110986 121.799757 
C 149.735017 123.423788 151.937985 124.336287 154.234711 124.336287 
z
" clip-path="url(#p3ccc00731a)" style="fill: #ffffff; stroke: #000000"/>
    <path d="M 154.234711 67.21232 
C 156.531437 67.21232 158.734404 66.299821 160.358435 64.67579 
C 161.982466 63.05176 162.894965 60.848792 162.894965 58.552066 
C 162.894965 56.25534 161.982466 54.052372 160.358435 52.428342 
C 158.734404 50.804311 156.531437 49.891812 154.234711 49.891812 
C 151.937985 49.891812 149.735017 50.804311 148.110986 52.428342 
C 146.486956 54.052372 145.574457 56.25534 145.574457 58.552066 
C 145.574457 60.848792 146.486956 63.05176 148.110986 64.67579 
C 149.735017 66.299821 151.937985 67.21232 154.234711 67.21232 
z
" clip-path="url(#p3ccc00731a)" style="fill: #ffffff; stroke: #000000"/>
    <path d="M 154.234711 181.460254 
C 156.531437 181.460254 158.734404 180.547755 160.358435 178.923724 
C 161.982466 177.299694 162.894965 175.096726 162.894965 172.8 
C 162.894965 170.503274 161.982466 168.300306 160.358435 166.676276 
C 158.734404 165.052245 156.531437 164.139746 154.234711 164.139746 
C 151.937985 164.139746 149.735017 165.052245 148.110986 166.676276 
C 146.486956 168.300306 145.574457 170.503274 145.574457 172.8 
C 145.574457 175.096726 146.486956 177.299694 148.110986 178.923724 
C 149.735017 180.547755 151.937985 181.460254 154.234711 181.460254 
z
" clip-path="url(#p3ccc00731a)" style="fill: #ffffff; stroke: #000000"/>
    <path d="M 173.276033 181.460254 
C 175.572759 181.460254 177.775727 180.547755 179.399757 178.923724 
C 181.023788 177.299694 181.936287 175.096726 181.936287 172.8 
C 181.936287 170.503274 181.023788 168.300306 179.399757 166.676276 
C 177.775727 165.052245 175.572759 164.139746 173.276033 164.139746 
C 170.979307 164.139746 168.776339 165.052245 167.152309 166.676276 
C 165.528278 168.300306 164.615779 170.503274 164.615779 172.8 
C 164.615779 175.096726 165.528278 177.299694 167.152309 178.923724 
C 168.776339 180.547755 170.979307 181.460254 173.276033 181.460254 
z
" clip-path="url(#p3ccc00731a)" style="fill: #ffffff; stroke: #000000"/>
    <path d="M 173.276033 238.584221 
C 175.572759 238.584221 177.775727 237.671722 179.399757 236.047691 
C 181.023788 234.423661 181.936287 232.220693 181.936287 229.923967 
C 181.936287 227.627241 181.023788 225.424273 179.399757 223.800243 
C 177.775727 222.176212 175.572759 221.263713 173.276033 221.263713 
C 170.979307 221.263713 168.776339 222.176212 167.152309 223.800243 
C 165.528278 225.424273 164.615779 227.627241 164.615779 229.923967 
C 164.615779 232.220693 165.528278 234.423661 167.152309 236.047691 
C 168.776339 237.671722 170.979307 238.584221 173.276033 238.584221 
z
" clip-path="url(#p3ccc00731a)" style="fill: #ffffff; stroke: #000000"/>
    <path d="M 173.276033 124.336287 
C 175.572759 124.336287 177.775727 123.423788 179.399757 121.799757 
C 181.023788 120.175727 181.936287 117.972759 181.936287 115.676033 
C 181.936287 113.379307 181.023788 111.176339 179.399757 109.552309 
C 177.775727 107.928278 175.572759 107.015779 173.276033 107.015779 
C 170.979307 107.015779 168.776339 107.928278 167.152309 109.552309 
C 165.528278 111.176339 164.615779 113.379307 164.615779 115.676033 
C 164.615779 117.972759 165.528278 120.175727 167.152309 121.799757 
C 168.776339 123.423788 170.979307 124.336287 173.276033 124.336287 
z
" clip-path="url(#p3ccc00731a)" style="fill: #ffffff; stroke: #000000"/>
    <path d="M 192.317355 181.460254 
C 194.614082 181.460254 196.817049 180.547755 198.44108 178.923724 
C 200.06511 177.299694 200.977609 175.096726 200.977609 172.8 
C 200.977609 170.503274 200.06511 168.300306 198.44108 166.676276 
C 196.817049 165.052245 194.614082 164.139746 192.317355 164.139746 
C 190.020629 164.139746 187.817662 165.052245 186.193631 166.676276 
C 184.5696 168.300306 183.657101 170.503274 183.657101 172.8 
C 183.657101 175.096726 184.5696 177.299694 186.193631 178.923724 
C 187.817662 180.547755 190.020629 181.460254 192.317355 181.460254 
z
" clip-path="url(#p3ccc00731a)" style="fill: #ffffff; stroke: #000000"/>
    <path d="M 211.358678 210.022238 
C 213.655404 210.022238 215.858371 209.109739 217.482402 207.485708 
C 219.106433 205.861677 220.018932 203.65871 220.018932 201.361983 
C 220.018932 199.065257 219.106433 196.86229 217.482402 195.238259 
C 215.858371 193.614228 213.655404 192.701729 211.358678 192.701729 
C 209.061951 192.701729 206.858984 193.614228 205.234953 195.238259 
C 203.610923 196.86229 202.698424 199.065257 202.698424 201.361983 
C 202.698424 203.65871 203.610923 205.861677 205.234953 207.485708 
C 206.858984 209.109739 209.061951 210.022238 211.358678 210.022238 
z
" clip-path="url(#p3ccc00731a)" style="fill: #ffffff; stroke: #000000"/>
    <path d="M 211.358678 152.898271 
C 213.655404 152.898271 215.858371 151.985772 217.482402 150.361741 
C 219.106433 148.73771 220.018932 146.534743 220.018932 144.238017 
C 220.018932 141.94129 219.106433 139.738323 217.482402 138.114292 
C 215.858371 136.490261 213.655404 135.577762 211.358678 135.577762 
C 209.061951 135.577762 206.858984 136.490261 205.234953 138.114292 
C 203.610923 139.738323 202.698424 141.94129 202.698424 144.238017 
C 202.698424 146.534743 203.610923 148.73771 205.234953 150.361741 
C 206.858984 151.985772 209.061951 152.898271 211.358678 152.898271 
z
" clip-path="url(#p3ccc00731a)" style="fill: #ffffff; stroke: #000000"/>
    <path d="M 230.4 181.460254 
C 232.696726 181.460254 234.899694 180.547755 236.523724 178.923724 
C 238.147755 177.299694 239.060254 175.096726 239.060254 172.8 
C 239.060254 170.503274 238.147755 168.300306 236.523724 166.676276 
C 234.899694 165.052245 232.696726 164.139746 230.4 164.139746 
C 228.103274 164.139746 225.900306 165.052245 224.276276 166.676276 
C 222.652245 168.300306 221.739746 170.503274 221.739746 172.8 
C 221.739746 175.096726 222.652245 177.299694 224.276276 178.923724 
C 225.900306 180.547755 228.103274 181.460254 230.4 181.460254 
z
" clip-path="url(#p3ccc00731a)" style="fill: #ffffff; stroke: #000000"/>
    <path d="M 249.441322 181.460254 
C 251.738049 181.460254 253.941016 180.547755 255.565047 178.923724 
C 257.189077 177.299694 258.101576 175.096726 258.101576 172.8 
C 258.101576 170.503274 257.189077 168.300306 255.565047 166.676276 
C 253.941016 165.052245 251.738049 164.139746 249.441322 164.139746 
C 247.144596 164.139746 244.941629 165.052245 243.317598 166.676276 
C 241.693567 168.300306 240.781068 170.503274 240.781068 172.8 
C 240.781068 175.096726 241.693567 177.299694 243.317598 178.923724 
C 244.941629 180.547755 247.144596 181.460254 249.441322 181.460254 
z
" clip-path="url(#p3ccc00731a)" style="fill: #ffffff; stroke: #000000"/>
    <path d="M 268.482645 181.460254 
C 270.779371 181.460254 272.982338 180.547755 274.606369 178.923724 
C 276.2304 177.299694 277.142899 175.096726 277.142899 172.8 
C 277.142899 170.503274 276.2304 168.300306 274.606369 166.676276 
C 272.982338 165.052245 270.779371 164.139746 268.482645 164.139746 
C 266.185918 164.139746 263.982951 165.052245 262.35892 166.676276 
C 260.73489 168.300306 259.822391 170.503274 259.822391 172.8 
C 259.822391 175.096726 260.73489 177.299694 262.35892 178.923724 
C 263.982951 180.547755 266.185918 181.460254 268.482645 181.460254 
z
" clip-path="url(#p3ccc00731a)" style="fill: #ffffff; stroke: #000000"/>
    <path d="M 287.523967 181.460254 
C 289.820693 181.460254 292.023661 180.547755 293.647691 178.923724 
C 295.271722 177.299694 296.184221 175.096726 296.184221 172.8 
C 296.184221 170.503274 295.271722 168.300306 293.647691 166.676276 
C 292.023661 165.052245 289.820693 164.139746 287.523967 164.139746 
C 285.227241 164.139746 283.024273 165.052245 281.400243 166.676276 
C 279.776212 168.300306 278.863713 170.503274 278.863713 172.8 
C 278.863713 175.096726 279.776212 177.299694 281.400243 178.923724 
C 283.024273 180.547755 285.227241 181.460254 287.523967 181.460254 
z
" clip-path="url(#p3ccc00731a)" style="fill: #ffffff; stroke: #000000"/>
    <path d="M 306.565289 181.460254 
C 308.862015 181.460254 311.064983 180.547755 312.689014 178.923724 
C 314.313044 177.299694 315.225543 175.096726 315.225543 172.8 
C 315.225543 170.503274 314.313044 168.300306 312.689014 166.676276 
C 311.064983 165.052245 308.862015 164.139746 306.565289 164.139746 
C 304.268563 164.139746 302.065596 165.052245 300.441565 166.676276 
C 298.817534 168.300306 297.905035 170.503274 297.905035 172.8 
C 297.905035 175.096726 298.817534 177.299694 300.441565 178.923724 
C 302.065596 180.547755 304.268563 181.460254 306.565289 181.460254 
z
" clip-path="url(#p3ccc00731a)" style="fill: #ffffff; stroke: #000000"/>
    <path d="M 325.606612 181.460254 
C 327.903338 181.460254 330.106305 180.547755 331.730336 178.923724 
C 333.354367 177.299694 334.266866 175.096726 334.266866 172.8 
C 334.266866 170.503274 333.354367 168.300306 331.730336 166.676276 
C 330.106305 165.052245 327.903338 164.139746 325.606612 164.139746 
C 323.309885 164.139746 321.106918 165.052245 319.482887 166.676276 
C 317.858857 168.300306 316.946358 170.503274 316.946358 172.8 
C 316.946358 175.096726 317.858857 177.299694 319.482887 178.923724 
C 321.106918 180.547755 323.309885 181.460254 325.606612 181.460254 
z
" clip-path="url(#p3ccc00731a)" style="fill: #ffffff; stroke: #000000"/>
    <path d="M 344.647934 181.460254 
C 346.94466 181.460254 349.147628 180.547755 350.771658 178.923724 
C 352.395689 177.299694 353.308188 175.096726 353.308188 172.8 
C 353.308188 170.503274 352.395689 168.300306 350.771658 166.676276 
C 349.147628 165.052245 346.94466 164.139746 344.647934 164.139746 
C 342.351208 164.139746 340.14824 165.052245 338.52421 166.676276 
C 336.900179 168.300306 335.98768 170.503274 335.98768 172.8 
C 335.98768 175.096726 336.900179 177.299694 338.52421 178.923724 
C 340.14824 180.547755 342.351208 181.460254 344.647934 181.460254 
z
" clip-path="url(#p3ccc00731a)" style="fill: #ffffff; stroke: #000000"/>
    <path d="M 363.689256 210.022238 
C 365.985982 210.022238 368.18895 209.109739 369.812981 207.485708 
C 371.437011 205.861677 372.34951 203.65871 372.34951 201.361983 
C 372.34951 199.065257 371.437011 196.86229 369.812981 195.238259 
C 368.18895 193.614228 365.985982 192.701729 363.689256 192.701729 
C 361.39253 192.701729 359.189563 193.614228 357.565532 195.238259 
C 355.941501 196.86229 355.029002 199.065257 355.029002 201.361983 
C 355.029002 203.65871 355.941501 205.861677 357.565532 207.485708 
C 359.189563 209.109739 361.39253 210.022238 363.689256 210.022238 
z
" clip-path="url(#p3ccc00731a)" style="fill: #ffffff; stroke: #000000"/>
    <path d="M 363.689256 152.898271 
C 365.985982 152.898271 368.18895 151.985772 369.812981 150.361741 
C 371.437011 148.73771 372.34951 146.534743 372.34951 144.238017 
C 372.34951 141.94129 371.437011 139.738323 369.812981 138.114292 
C 368.18895 136.490261 365.985982 135.577762 363.689256 135.577762 
C 361.39253 135.577762 359.189563 136.490261 357.565532 138.114292 
C 355.941501 139.738323 355.029002 141.94129 355.029002 144.238017 
C 355.029002 146.534743 355.941501 148.73771 357.565532 150.361741 
C 359.189563 151.985772 361.39253 152.898271 363.689256 152.898271 
z
" clip-path="url(#p3ccc00731a)" style="fill: #ffffff; stroke: #000000"/>
    <path d="M 382.730579 181.460254 
C 385.027305 181.460254 387.230272 180.547755 388.854303 178.923724 
C 390.478334 177.299694 391.390833 175.096726 391.390833 172.8 
C 391.390833 170.503274 390.478334 168.300306 388.854303 166.676276 
C 387.230272 165.052245 385.027305 164.139746 382.730579 164.139746 
C 380.433852 164.139746 378.230885 165.052245 376.606854 166.676276 
C 374.982823 168.300306 374.070324 170.503274 374.070324 172.8 
C 374.070324 175.096726 374.982823 177.299694 376.606854 178.923724 
C 378.230885 180.547755 380.433852 181.460254 382.730579 181.460254 
z
" clip-path="url(#p3ccc00731a)" style="fill: #ffffff; stroke: #000000"/>
    <path d="M 401.771901 181.460254 
C 404.068627 181.460254 406.271595 180.547755 407.895625 178.923724 
C 409.519656 177.299694 410.432155 175.096726 410.432155 172.8 
C 410.432155 170.503274 409.519656 168.300306 407.895625 166.676276 
C 406.271595 165.052245 404.068627 164.139746 401.771901 164.139746 
C 399.475175 164.139746 397.272207 165.052245 395.648176 166.676276 
C 394.024146 168.300306 393.111647 170.503274 393.111647 172.8 
C 393.111647 175.096726 394.024146 177.299694 395.648176 178.923724 
C 397.272207 180.547755 399.475175 181.460254 401.771901 181.460254 
z
" clip-path="url(#p3ccc00731a)" style="fill: #ffffff; stroke: #000000"/>
    <path d="M 420.813223 181.460254 
C 423.109949 181.460254 425.312917 180.547755 426.936947 178.923724 
C 428.560978 177.299694 429.473477 175.096726 429.473477 172.8 
C 429.473477 170.503274 428.560978 168.300306 426.936947 166.676276 
C 425.312917 165.052245 423.109949 164.139746 420.813223 164.139746 
C 418.516497 164.139746 416.313529 165.052245 414.689499 166.676276 
C 413.065468 168.300306 412.152969 170.503274 412.152969 172.8 
C 412.152969 175.096726 413.065468 177.299694 414.689499 178.923724 
C 416.313529 180.547755 418.516497 181.460254 420.813223 181.460254 
z
" clip-path="url(#p3ccc00731a)" style="fill: #0000ff; stroke: #000000"/>
   </g>
  </g>
 </g>
 <defs>
  <clipPath id="p3ccc00731a">
   <rect x="0" y="0" width="460.8" height="345.6"/>
  </clipPath>
 </defs>
</svg>
