<?xml version="1.0" encoding="utf-8" standalone="no"?>
<!DOCTYPE svg PUBLIC "-//W3C//DTD SVG 1.1//EN"
  "http://www.w3.org/Graphics/SVG/1.1/DTD/svg11.dtd">
<svg xmlns:xlink="http://www.w3.org/1999/xlink" width="460.8pt" height="345.6pt" viewBox="0 0 460.8 345.6" xmlns="http://www.w3.org/2000/svg" version="1.1">
 <metadata>
  <rdf:RDF xmlns:dc="http://purl.org/dc/elements/1.1/" xmlns:cc="http://creativecommons.org/ns#" xmlns:rdf="http://www.w3.org/1999/02/22-rdf-syntax-ns#">
   <cc:Work>
    <dc:type rdf:resource="http://purl.org/dc/dcmitype/StillImage"/>
    <dc:date>2025-11-06T05:02:07.839698</dc:date>
    <dc:format>image/svg+xml</dc:format>
    <dc:creator>
     <cc:Agent>
      <dc:title>Matplotlib v3.10.5, https://matplotlib.org/</dc:title>
     </cc:Agent>
    </dc:creator>
   </cc:Work>
  </rdf:RDF>
 </metadata>
 <defs>
  <style type="text/css">*{stroke-linejoin: round; stroke-linecap: butt}</style>
 </defs>
 <g id="figure_1">
  <g id="patch_1">
   <path d="M 0 345.6 
L 460.8 345.6 
L 460.8 0 
L 0 0 
z
" style="fill: #ffffff"/>
  </g>
  <g id="axes_1">
   <g id="patch_2">
    <path d="M 45.410884 308.855861 
Q 94.391664 247.86537 142.672373 187.746603 
" clip-path="url(#p3714f1846c)" style="fill: none; stroke: #4c4c4c; stroke-linecap: round"/>
    <path d="M 141.453163 188.306536 
L 142.672373 187.746603 
L 142.388794 189.057931 
" clip-path="url(#p3714f1846c)" style="fill: none; stroke: #4c4c4c; stroke-linecap: round"/>
   </g>
   <g id="patch_3">
    <path d="M 47.918724 312.13969 
Q 203.197287 244.205319 357.451555 176.719077 
" clip-path="url(#p3714f1846c)" style="fill: none; stroke: #4c4c4c; stroke-linecap: round"/>
    <path d="M 356.111675 176.650365 
L 357.451555 176.719077 
L 356.592657 177.749754 
" clip-path="url(#p3714f1846c)" style="fill: none; stroke: #4c4c4c; stroke-linecap: round"/>
   </g>
   <g id="patch_4">
    <path d="M 44.909482 308.486195 
Q 94.390951 236.8808 143.236819 166.195193 
" clip-path="url(#p3714f1846c)" style="fill: none; stroke: #4c4c4c; stroke-linecap: round"/>
    <path d="M 142.06101 166.841314 
L 143.236819 166.195193 
L 143.04823 167.523513 
" clip-path="url(#p3714f1846c)" style="fill: none; stroke: #4c4c4c; stroke-linecap: round"/>
   </g>
   <g id="patch_5">
    <path d="M 44.411401 300.841052 
Q 67.188613 262.514011 89.394645 225.148092 
" clip-path="url(#p3714f1846c)" style="fill: none; stroke: #4c4c4c; stroke-linecap: round"/>
    <path d="M 88.265799 225.873147 
L 89.394645 225.148092 
L 89.297382 226.486202 
" clip-path="url(#p3714f1846c)" style="fill: none; stroke: #4c4c4c; stroke-linecap: round"/>
   </g>
   <g id="patch_6">
    <path d="M 48.048225 297.797594 
Q 203.19807 236.881389 357.307222 176.37379 
" clip-path="url(#p3714f1846c)" style="fill: none; stroke: #4c4c4c; stroke-linecap: round"/>
    <path d="M 355.970953 176.253856 
L 357.307222 176.37379 
L 356.409514 177.370845 
" clip-path="url(#p3714f1846c)" style="fill: none; stroke: #4c4c4c; stroke-linecap: round"/>
   </g>
   <g id="patch_7">
    <path d="M 45.590193 287.038983 
Q 94.390747 229.557561 142.467713 172.928443 
" clip-path="url(#p3714f1846c)" style="fill: none; stroke: #4c4c4c; stroke-linecap: round"/>
    <path d="M 141.233683 173.454913 
L 142.467713 172.928443 
L 142.14847 174.231549 
" clip-path="url(#p3714f1846c)" style="fill: none; stroke: #4c4c4c; stroke-linecap: round"/>
   </g>
   <g id="patch_8">
    <path d="M 43.212684 285.60541 
Q 67.187474 225.898963 90.745655 167.230032 
" clip-path="url(#p3714f1846c)" style="fill: none; stroke: #4c4c4c; stroke-linecap: round"/>
    <path d="M 89.741715 168.120034 
L 90.745655 167.230032 
L 90.855293 168.567185 
" clip-path="url(#p3714f1846c)" style="fill: none; stroke: #4c4c4c; stroke-linecap: round"/>
   </g>
   <g id="patch_9">
    <path d="M 43.372071 278.340605 
Q 67.189675 222.231825 90.570416 167.152195 
" clip-path="url(#p3714f1846c)" style="fill: none; stroke: #4c4c4c; stroke-linecap: round"/>
    <path d="M 89.549224 168.022349 
L 90.570416 167.152195 
L 90.653824 168.491241 
" clip-path="url(#p3714f1846c)" style="fill: none; stroke: #4c4c4c; stroke-linecap: round"/>
   </g>
   <g id="patch_10">
    <path d="M 44.687006 279.03926 
Q 67.189966 244.202946 89.086279 210.30577 
" clip-path="url(#p3714f1846c)" style="fill: none; stroke: #4c4c4c; stroke-linecap: round"/>
    <path d="M 87.931162 210.988196 
L 89.086279 210.30577 
L 88.93915 211.639319 
" clip-path="url(#p3714f1846c)" style="fill: none; stroke: #4c4c4c; stroke-linecap: round"/>
   </g>
   <g id="patch_11">
    <path d="M 42.937079 278.173875 
Q 67.188581 211.249058 91.059179 145.37539 
" clip-path="url(#p3714f1846c)" style="fill: none; stroke: #4c4c4c; stroke-linecap: round"/>
    <path d="M 90.086244 146.299186 
L 91.059179 145.37539 
L 91.214455 146.708015 
" clip-path="url(#p3714f1846c)" style="fill: none; stroke: #4c4c4c; stroke-linecap: round"/>
   </g>
   <g id="patch_12">
    <path d="M 48.222554 276.312723 
Q 203.197621 225.896154 357.109501 175.825463 
" clip-path="url(#p3714f1846c)" style="fill: none; stroke: #4c4c4c; stroke-linecap: round"/>
    <path d="M 355.78275 175.62613 
L 357.109501 175.825463 
L 356.153984 176.767263 
" clip-path="url(#p3714f1846c)" style="fill: none; stroke: #4c4c4c; stroke-linecap: round"/>
   </g>
   <g id="patch_13">
    <path d="M 48.277343 269.157319 
Q 203.199026 222.233925 357.050681 175.634626 
" clip-path="url(#p3714f1846c)" style="fill: none; stroke: #4c4c4c; stroke-linecap: round"/>
    <path d="M 355.728277 175.408244 
L 357.050681 175.634626 
L 356.076133 176.556719 
" clip-path="url(#p3714f1846c)" style="fill: none; stroke: #4c4c4c; stroke-linecap: round"/>
   </g>
   <g id="patch_14">
    <path d="M 43.936563 263.958726 
Q 67.18885 218.572049 89.931359 174.180422 
" clip-path="url(#p3714f1846c)" style="fill: none; stroke: #4c4c4c; stroke-linecap: round"/>
    <path d="M 88.850206 174.974846 
L 89.931359 174.180422 
L 89.918206 175.521999 
" clip-path="url(#p3714f1846c)" style="fill: none; stroke: #4c4c4c; stroke-linecap: round"/>
   </g>
   <g id="patch_15">
    <path d="M 45.686489 257.823033 
Q 67.189227 233.218938 87.956236 209.456688 
" clip-path="url(#p3714f1846c)" style="fill: none; stroke: #4c4c4c; stroke-linecap: round"/>
    <path d="M 86.714787 209.965416 
L 87.956236 209.456688 
L 87.618349 210.755084 
" clip-path="url(#p3714f1846c)" style="fill: none; stroke: #4c4c4c; stroke-linecap: round"/>
   </g>
   <g id="patch_16">
    <path d="M 47.540182 260.108133 
Q 121.591468 218.572957 194.667636 177.584722 
" clip-path="url(#p3714f1846c)" style="fill: none; stroke: #4c4c4c; stroke-linecap: round"/>
    <path d="M 193.32751 177.648457 
L 194.667636 177.584722 
L 193.914549 178.695064 
" clip-path="url(#p3714f1846c)" style="fill: none; stroke: #4c4c4c; stroke-linecap: round"/>
   </g>
   <g id="patch_17">
    <path d="M 45.321229 257.522875 
Q 67.188886 229.557507 88.367845 202.472875 
" clip-path="url(#p3714f1846c)" style="fill: none; stroke: #4c4c4c; stroke-linecap: round"/>
    <path d="M 87.156006 203.048588 
L 88.367845 202.472875 
L 88.101312 203.787774 
" clip-path="url(#p3714f1846c)" style="fill: none; stroke: #4c4c4c; stroke-linecap: round"/>
   </g>
   <g id="patch_18">
    <path d="M 48.371978 254.857744 
Q 203.199048 214.910375 356.943538 175.242326 
" clip-path="url(#p3714f1846c)" style="fill: none; stroke: #4c4c4c; stroke-linecap: round"/>
    <path d="M 355.631692 174.961149 
L 356.943538 175.242326 
L 355.931489 176.123096 
" clip-path="url(#p3714f1846c)" style="fill: none; stroke: #4c4c4c; stroke-linecap: round"/>
   </g>
   <g id="patch_19">
    <path d="M 43.541418 249.125828 
Q 67.188408 196.602225 90.376413 145.098099 
" clip-path="url(#p3714f1846c)" style="fill: none; stroke: #4c4c4c; stroke-linecap: round"/>
    <path d="M 89.33667 145.945999 
L 90.376413 145.098099 
L 90.430887 146.438633 
" clip-path="url(#p3714f1846c)" style="fill: none; stroke: #4c4c4c; stroke-linecap: round"/>
   </g>
   <g id="patch_20">
    <path d="M 44.411401 242.252368 
Q 67.188613 203.925327 89.394645 166.559408 
" clip-path="url(#p3714f1846c)" style="fill: none; stroke: #4c4c4c; stroke-linecap: round"/>
    <path d="M 88.265799 167.284463 
L 89.394645 166.559408 
L 89.297382 167.897518 
" clip-path="url(#p3714f1846c)" style="fill: none; stroke: #4c4c4c; stroke-linecap: round"/>
   </g>
   <g id="patch_21">
    <path d="M 48.416806 247.711728 
Q 203.199005 211.248613 356.892959 175.041864 
" clip-path="url(#p3714f1846c)" style="fill: none; stroke: #4c4c4c; stroke-linecap: round"/>
    <path d="M 355.587352 174.733011 
L 356.892959 175.041864 
L 355.862512 175.901038 
" clip-path="url(#p3714f1846c)" style="fill: none; stroke: #4c4c4c; stroke-linecap: round"/>
   </g>
   <g id="patch_22">
    <path d="M 47.394909 237.886444 
Q 67.18821 225.896271 86.025249 214.485373 
" clip-path="url(#p3714f1846c)" style="fill: none; stroke: #4c4c4c; stroke-linecap: round"/>
    <path d="M 84.688007 214.593931 
L 86.025249 214.485373 
L 85.30975 215.620301 
" clip-path="url(#p3714f1846c)" style="fill: none; stroke: #4c4c4c; stroke-linecap: round"/>
   </g>
   <g id="patch_23">
    <path d="M 44.411401 234.928782 
Q 67.188613 196.601742 89.394645 159.235822 
" clip-path="url(#p3714f1846c)" style="fill: none; stroke: #4c4c4c; stroke-linecap: round"/>
    <path d="M 88.265799 159.960878 
L 89.394645 159.235822 
L 89.297382 160.573933 
" clip-path="url(#p3714f1846c)" style="fill: none; stroke: #4c4c4c; stroke-linecap: round"/>
   </g>
   <g id="patch_24">
    <path d="M 48.491518 233.428579 
Q 203.198543 203.925156 356.807326 174.631173 
" clip-path="url(#p3714f1846c)" style="fill: none; stroke: #4c4c4c; stroke-linecap: round"/>
    <path d="M 355.516172 174.26659 
L 356.807326 174.631173 
L 355.740967 175.445347 
" clip-path="url(#p3714f1846c)" style="fill: none; stroke: #4c4c4c; stroke-linecap: round"/>
   </g>
   <g id="patch_25">
    <path d="M 48.526384 226.289938 
Q 203.19704 200.263626 356.765162 174.422836 
" clip-path="url(#p3714f1846c)" style="fill: none; stroke: #4c4c4c; stroke-linecap: round"/>
    <path d="M 355.482236 174.030278 
L 356.765162 174.422836 
L 355.68136 175.213642 
" clip-path="url(#p3714f1846c)" style="fill: none; stroke: #4c4c4c; stroke-linecap: round"/>
   </g>
   <g id="patch_26">
    <path d="M 48.556268 219.153588 
Q 203.197834 196.601693 356.733067 174.211138 
" clip-path="url(#p3714f1846c)" style="fill: none; stroke: #4c4c4c; stroke-linecap: round"/>
    <path d="M 355.459043 173.790587 
L 356.733067 174.211138 
L 355.632212 174.978027 
" clip-path="url(#p3714f1846c)" style="fill: none; stroke: #4c4c4c; stroke-linecap: round"/>
   </g>
   <g id="patch_27">
    <path d="M 44.411401 212.958026 
Q 67.188613 174.630985 89.394645 137.265066 
" clip-path="url(#p3714f1846c)" style="fill: none; stroke: #4c4c4c; stroke-linecap: round"/>
    <path d="M 88.265799 137.990121 
L 89.394645 137.265066 
L 89.297382 138.603176 
" clip-path="url(#p3714f1846c)" style="fill: none; stroke: #4c4c4c; stroke-linecap: round"/>
   </g>
   <g id="patch_28">
    <path d="M 48.105505 210.07423 
Q 94.389241 192.940346 139.624482 176.194608 
" clip-path="url(#p3714f1846c)" style="fill: none; stroke: #4c4c4c; stroke-linecap: round"/>
    <path d="M 138.290818 176.048527 
L 139.624482 176.194608 
L 138.707419 177.173891 
" clip-path="url(#p3714f1846c)" style="fill: none; stroke: #4c4c4c; stroke-linecap: round"/>
   </g>
   <g id="patch_29">
    <path d="M 45.686489 206.557934 
Q 67.189227 181.95384 87.956236 158.19159 
" clip-path="url(#p3714f1846c)" style="fill: none; stroke: #4c4c4c; stroke-linecap: round"/>
    <path d="M 86.714787 158.700318 
L 87.956236 158.19159 
L 87.618349 159.489986 
" clip-path="url(#p3714f1846c)" style="fill: none; stroke: #4c4c4c; stroke-linecap: round"/>
   </g>
   <g id="patch_30">
    <path d="M 48.601096 204.88642 
Q 203.196605 189.278219 356.679735 173.782327 
" clip-path="url(#p3714f1846c)" style="fill: none; stroke: #4c4c4c; stroke-linecap: round"/>
    <path d="M 355.425534 173.305902 
L 356.679735 173.782327 
L 355.546075 174.499833 
" clip-path="url(#p3714f1846c)" style="fill: none; stroke: #4c4c4c; stroke-linecap: round"/>
   </g>
   <g id="patch_31">
    <path d="M 48.630151 191.690729 
Q 67.190988 192.940016 84.636316 194.114221 
" clip-path="url(#p3714f1846c)" style="fill: none; stroke: #4c4c4c; stroke-linecap: round"/>
    <path d="M 83.479319 193.434989 
L 84.636316 194.114221 
L 83.398732 194.63228 
" clip-path="url(#p3714f1846c)" style="fill: none; stroke: #4c4c4c; stroke-linecap: round"/>
   </g>
   <g id="patch_32">
    <path d="M 48.638452 183.494216 
Q 203.196394 178.292747 356.636935 173.128883 
" clip-path="url(#p3714f1846c)" style="fill: none; stroke: #4c4c4c; stroke-linecap: round"/>
    <path d="M 355.417433 172.569584 
L 356.636935 173.128883 
L 355.457795 173.768905 
" clip-path="url(#p3714f1846c)" style="fill: none; stroke: #4c4c4c; stroke-linecap: round"/>
   </g>
   <g id="patch_33">
    <path d="M 48.62849 175.880139 
Q 121.594804 170.968945 193.445608 166.132833 
" clip-path="url(#p3714f1846c)" style="fill: none; stroke: #4c4c4c; stroke-linecap: round"/>
    <path d="M 192.208024 165.614774 
L 193.445608 166.132833 
L 192.288611 166.812065 
" clip-path="url(#p3714f1846c)" style="fill: none; stroke: #4c4c4c; stroke-linecap: round"/>
   </g>
   <g id="patch_34">
    <path d="M 47.819938 165.447583 
Q 67.186936 156.322748 85.542537 147.674436 
" clip-path="url(#p3714f1846c)" style="fill: none; stroke: #4c4c4c; stroke-linecap: round"/>
    <path d="M 84.201262 147.643122 
L 85.542537 147.674436 
L 84.712721 148.728668 
" clip-path="url(#p3714f1846c)" style="fill: none; stroke: #4c4c4c; stroke-linecap: round"/>
   </g>
   <g id="patch_35">
    <path d="M 48.649244 169.254817 
Q 175.997521 170.969121 302.227867 172.668376 
" clip-path="url(#p3714f1846c)" style="fill: none; stroke: #4c4c4c; stroke-linecap: round"/>
    <path d="M 301.036052 172.052278 
L 302.227867 172.668376 
L 301.019899 173.252169 
" clip-path="url(#p3714f1846c)" style="fill: none; stroke: #4c4c4c; stroke-linecap: round"/>
   </g>
   <g id="patch_36">
    <path d="M 48.638452 162.105784 
Q 203.196394 167.307253 356.636935 172.471117 
" clip-path="url(#p3714f1846c)" style="fill: none; stroke: #4c4c4c; stroke-linecap: round"/>
    <path d="M 355.457795 171.831095 
L 356.636935 172.471117 
L 355.417433 173.030416 
" clip-path="url(#p3714f1846c)" style="fill: none; stroke: #4c4c4c; stroke-linecap: round"/>
   </g>
   <g id="patch_37">
    <path d="M 48.477406 160.100168 
Q 67.189872 156.321689 84.806424 152.764501 
" clip-path="url(#p3714f1846c)" style="fill: none; stroke: #4c4c4c; stroke-linecap: round"/>
    <path d="M 83.511407 152.413885 
L 84.806424 152.764501 
L 83.748921 153.590145 
" clip-path="url(#p3714f1846c)" style="fill: none; stroke: #4c4c4c; stroke-linecap: round"/>
   </g>
   <g id="patch_38">
    <path d="M 48.62849 154.975748 
Q 203.196126 163.645407 356.647483 172.252454 
" clip-path="url(#p3714f1846c)" style="fill: none; stroke: #4c4c4c; stroke-linecap: round"/>
    <path d="M 355.482967 171.586194 
L 356.647483 172.252454 
L 355.415765 172.78431 
" clip-path="url(#p3714f1846c)" style="fill: none; stroke: #4c4c4c; stroke-linecap: round"/>
   </g>
   <g id="patch_39">
    <path d="M 48.618529 147.845265 
Q 203.195859 159.983549 356.658587 172.034308 
" clip-path="url(#p3714f1846c)" style="fill: none; stroke: #4c4c4c; stroke-linecap: round"/>
    <path d="M 355.509241 171.342207 
L 356.658587 172.034308 
L 355.415299 172.538525 
" clip-path="url(#p3714f1846c)" style="fill: none; stroke: #4c4c4c; stroke-linecap: round"/>
   </g>
   <g id="patch_40">
    <path d="M 48.601096 140.71358 
Q 203.196605 156.321781 356.679735 171.817673 
" clip-path="url(#p3714f1846c)" style="fill: none; stroke: #4c4c4c; stroke-linecap: round"/>
    <path d="M 355.546075 171.100167 
L 356.679735 171.817673 
L 355.425534 172.294098 
" clip-path="url(#p3714f1846c)" style="fill: none; stroke: #4c4c4c; stroke-linecap: round"/>
   </g>
   <g id="patch_41">
    <path d="M 48.630151 131.938514 
Q 67.190988 130.689227 84.636316 129.515022 
" clip-path="url(#p3714f1846c)" style="fill: none; stroke: #4c4c4c; stroke-linecap: round"/>
    <path d="M 83.398732 128.996964 
L 84.636316 129.515022 
L 83.479319 130.194255 
" clip-path="url(#p3714f1846c)" style="fill: none; stroke: #4c4c4c; stroke-linecap: round"/>
   </g>
   <g id="patch_42">
    <path d="M 46.079973 138.672065 
Q 67.187841 159.982892 87.50893 180.499377 
" clip-path="url(#p3714f1846c)" style="fill: none; stroke: #4c4c4c; stroke-linecap: round"/>
    <path d="M 87.090761 179.224569 
L 87.50893 180.499377 
L 86.238183 180.069028 
" clip-path="url(#p3714f1846c)" style="fill: none; stroke: #4c4c4c; stroke-linecap: round"/>
   </g>
   <g id="patch_43">
    <path d="M 48.630151 133.102045 
Q 67.190988 134.351332 84.636316 135.525537 
" clip-path="url(#p3714f1846c)" style="fill: none; stroke: #4c4c4c; stroke-linecap: round"/>
    <path d="M 83.479319 134.846305 
L 84.636316 135.525537 
L 83.398732 136.043596 
" clip-path="url(#p3714f1846c)" style="fill: none; stroke: #4c4c4c; stroke-linecap: round"/>
   </g>
   <g id="patch_44">
    <path d="M 48.476575 134.234566 
Q 121.594872 148.998837 193.617253 163.541818 
" clip-path="url(#p3714f1846c)" style="fill: none; stroke: #4c4c4c; stroke-linecap: round"/>
    <path d="M 192.55975 162.716174 
L 193.617253 163.541818 
L 192.322236 163.892434 
" clip-path="url(#p3714f1846c)" style="fill: none; stroke: #4c4c4c; stroke-linecap: round"/>
   </g>
   <g id="patch_45">
    <path d="M 47.819938 136.210904 
Q 67.186936 145.335739 85.542537 153.984051 
" clip-path="url(#p3714f1846c)" style="fill: none; stroke: #4c4c4c; stroke-linecap: round"/>
    <path d="M 84.712721 152.929819 
L 85.542537 153.984051 
L 84.201262 154.015365 
" clip-path="url(#p3714f1846c)" style="fill: none; stroke: #4c4c4c; stroke-linecap: round"/>
   </g>
   <g id="patch_46">
    <path d="M 48.556268 126.446412 
Q 203.197834 148.998307 356.733067 171.388862 
" clip-path="url(#p3714f1846c)" style="fill: none; stroke: #4c4c4c; stroke-linecap: round"/>
    <path d="M 355.632212 170.621973 
L 356.733067 171.388862 
L 355.459043 171.809413 
" clip-path="url(#p3714f1846c)" style="fill: none; stroke: #4c4c4c; stroke-linecap: round"/>
   </g>
   <g id="patch_47">
    <path d="M 48.526384 119.310062 
Q 203.19704 145.336374 356.765162 171.177164 
" clip-path="url(#p3714f1846c)" style="fill: none; stroke: #4c4c4c; stroke-linecap: round"/>
    <path d="M 355.68136 170.386358 
L 356.765162 171.177164 
L 355.482236 171.569722 
" clip-path="url(#p3714f1846c)" style="fill: none; stroke: #4c4c4c; stroke-linecap: round"/>
   </g>
   <g id="patch_48">
    <path d="M 48.491518 112.171421 
Q 203.198543 141.674844 356.807326 170.968827 
" clip-path="url(#p3714f1846c)" style="fill: none; stroke: #4c4c4c; stroke-linecap: round"/>
    <path d="M 355.740967 170.154653 
L 356.807326 170.968827 
L 355.516172 171.33341 
" clip-path="url(#p3714f1846c)" style="fill: none; stroke: #4c4c4c; stroke-linecap: round"/>
   </g>
   <g id="patch_49">
    <path d="M 46.949956 108.381368 
Q 67.191259 123.367718 86.534004 137.688789 
" clip-path="url(#p3714f1846c)" style="fill: none; stroke: #4c4c4c; stroke-linecap: round"/>
    <path d="M 85.926597 136.492521 
L 86.534004 137.688789 
L 85.212546 137.456954 
" clip-path="url(#p3714f1846c)" style="fill: none; stroke: #4c4c4c; stroke-linecap: round"/>
   </g>
   <g id="patch_50">
    <path d="M 48.456652 105.031216 
Q 203.20005 138.013382 356.849975 170.762485 
" clip-path="url(#p3714f1846c)" style="fill: none; stroke: #4c4c4c; stroke-linecap: round"/>
    <path d="M 355.801413 169.925516 
L 356.849975 170.762485 
L 355.551263 171.099153 
" clip-path="url(#p3714f1846c)" style="fill: none; stroke: #4c4c4c; stroke-linecap: round"/>
   </g>
   <g id="patch_51">
    <path d="M 48.416806 97.888272 
Q 203.199005 134.351387 356.892959 170.558136 
" clip-path="url(#p3714f1846c)" style="fill: none; stroke: #4c4c4c; stroke-linecap: round"/>
    <path d="M 355.862512 169.698962 
L 356.892959 170.558136 
L 355.587352 170.866989 
" clip-path="url(#p3714f1846c)" style="fill: none; stroke: #4c4c4c; stroke-linecap: round"/>
   </g>
   <g id="patch_52">
    <path d="M 46.505003 94.282215 
Q 67.190427 112.381961 87.034445 129.745477 
" clip-path="url(#p3714f1846c)" style="fill: none; stroke: #4c4c4c; stroke-linecap: round"/>
    <path d="M 86.526456 128.503725 
L 87.034445 129.745477 
L 85.736251 129.406817 
" clip-path="url(#p3714f1846c)" style="fill: none; stroke: #4c4c4c; stroke-linecap: round"/>
   </g>
   <g id="patch_53">
    <path d="M 44.989175 95.649464 
Q 67.189493 127.02876 88.744085 157.495346 
" clip-path="url(#p3714f1846c)" style="fill: none; stroke: #4c4c4c; stroke-linecap: round"/>
    <path d="M 88.54083 156.169191 
L 88.744085 157.495346 
L 87.561208 156.862257 
" clip-path="url(#p3714f1846c)" style="fill: none; stroke: #4c4c4c; stroke-linecap: round"/>
   </g>
   <g id="patch_54">
    <path d="M 44.16236 88.8435 
Q 67.189492 130.690884 89.677623 171.558739 
" clip-path="url(#p3714f1846c)" style="fill: none; stroke: #4c4c4c; stroke-linecap: round"/>
    <path d="M 89.624778 170.218139 
L 89.677623 171.558739 
L 88.573436 170.796655 
" clip-path="url(#p3714f1846c)" style="fill: none; stroke: #4c4c4c; stroke-linecap: round"/>
   </g>
   <g id="patch_55">
    <path d="M 44.16236 81.519915 
Q 67.189492 123.367299 89.677623 164.235153 
" clip-path="url(#p3714f1846c)" style="fill: none; stroke: #4c4c4c; stroke-linecap: round"/>
    <path d="M 89.624778 162.894553 
L 89.677623 164.235153 
L 88.573436 163.47307 
" clip-path="url(#p3714f1846c)" style="fill: none; stroke: #4c4c4c; stroke-linecap: round"/>
   </g>
   <g id="patch_56">
    <path d="M 48.222554 69.287277 
Q 203.197621 119.703846 357.109501 169.774537 
" clip-path="url(#p3714f1846c)" style="fill: none; stroke: #4c4c4c; stroke-linecap: round"/>
    <path d="M 356.153984 168.832737 
L 357.109501 169.774537 
L 355.78275 169.97387 
" clip-path="url(#p3714f1846c)" style="fill: none; stroke: #4c4c4c; stroke-linecap: round"/>
   </g>
   <g id="patch_57">
    <path d="M 48.167765 62.129416 
Q 203.198654 116.042401 357.17354 169.588155 
" clip-path="url(#p3714f1846c)" style="fill: none; stroke: #4c4c4c; stroke-linecap: round"/>
    <path d="M 356.237196 168.62729 
L 357.17354 169.588155 
L 355.843042 169.760711 
" clip-path="url(#p3714f1846c)" style="fill: none; stroke: #4c4c4c; stroke-linecap: round"/>
   </g>
   <g id="patch_58">
    <path d="M 48.107995 54.967252 
Q 203.197142 112.380061 357.237793 169.404725 
" clip-path="url(#p3714f1846c)" style="fill: none; stroke: #4c4c4c; stroke-linecap: round"/>
    <path d="M 356.32073 168.425442 
L 357.237793 169.404725 
L 355.904129 169.550806 
" clip-path="url(#p3714f1846c)" style="fill: none; stroke: #4c4c4c; stroke-linecap: round"/>
   </g>
   <g id="patch_59">
    <path d="M 46.798041 49.985842 
Q 121.591382 108.717793 195.505397 166.759247 
" clip-path="url(#p3714f1846c)" style="fill: none; stroke: #4c4c4c; stroke-linecap: round"/>
    <path d="M 194.932164 165.546232 
L 195.505397 166.759247 
L 194.191046 166.490024 
" clip-path="url(#p3714f1846c)" style="fill: none; stroke: #4c4c4c; stroke-linecap: round"/>
   </g>
   <g id="patch_60">
    <path d="M 48.048225 47.802406 
Q 203.19807 108.718611 357.307222 169.22621 
" clip-path="url(#p3714f1846c)" style="fill: none; stroke: #4c4c4c; stroke-linecap: round"/>
    <path d="M 356.409514 168.229155 
L 357.307222 169.22621 
L 355.970953 169.346144 
" clip-path="url(#p3714f1846c)" style="fill: none; stroke: #4c4c4c; stroke-linecap: round"/>
   </g>
   <g id="patch_61">
    <path d="M 44.411401 44.758948 
Q 67.188613 83.085989 89.394645 120.451908 
" clip-path="url(#p3714f1846c)" style="fill: none; stroke: #4c4c4c; stroke-linecap: round"/>
    <path d="M 89.297382 119.113798 
L 89.394645 120.451908 
L 88.265799 119.726853 
" clip-path="url(#p3714f1846c)" style="fill: none; stroke: #4c4c4c; stroke-linecap: round"/>
   </g>
   <g id="patch_62">
    <path d="M 47.983475 40.63281 
Q 203.196457 105.056148 357.376822 169.050882 
" clip-path="url(#p3714f1846c)" style="fill: none; stroke: #4c4c4c; stroke-linecap: round"/>
    <path d="M 356.498512 168.036697 
L 357.376822 169.050882 
L 356.038488 169.145019 
" clip-path="url(#p3714f1846c)" style="fill: none; stroke: #4c4c4c; stroke-linecap: round"/>
   </g>
   <g id="patch_63">
    <path d="M 45.590193 36.590261 
Q 94.390747 94.071682 142.467713 150.7008 
" clip-path="url(#p3714f1846c)" style="fill: none; stroke: #4c4c4c; stroke-linecap: round"/>
    <path d="M 142.14847 149.397695 
L 142.467713 150.7008 
L 141.233683 150.174331 
" clip-path="url(#p3714f1846c)" style="fill: none; stroke: #4c4c4c; stroke-linecap: round"/>
   </g>
   <g id="patch_64">
    <path d="M 47.918724 33.46031 
Q 203.197287 101.394681 357.451555 168.880923 
" clip-path="url(#p3714f1846c)" style="fill: none; stroke: #4c4c4c; stroke-linecap: round"/>
    <path d="M 356.592657 167.850246 
L 357.451555 168.880923 
L 356.111675 168.949635 
" clip-path="url(#p3714f1846c)" style="fill: none; stroke: #4c4c4c; stroke-linecap: round"/>
   </g>
   <g id="patch_65">
    <path d="M 103.053852 187.447171 
Q 121.59265 187.447171 139.013414 187.447171 
" clip-path="url(#p3714f1846c)" style="fill: none; stroke: #4c4c4c; stroke-linecap: round"/>
    <path d="M 137.813414 186.847171 
L 139.013414 187.447171 
L 137.813414 188.047171 
" clip-path="url(#p3714f1846c)" style="fill: none; stroke: #4c4c4c; stroke-linecap: round"/>
   </g>
   <g id="patch_66">
    <path d="M 102.755003 185.195204 
Q 121.594767 180.12296 139.354939 175.341375 
" clip-path="url(#p3714f1846c)" style="fill: none; stroke: #4c4c4c; stroke-linecap: round"/>
    <path d="M 138.040216 175.073974 
L 139.354939 175.341375 
L 138.352184 176.232713 
" clip-path="url(#p3714f1846c)" style="fill: none; stroke: #4c4c4c; stroke-linecap: round"/>
   </g>
   <g id="patch_67">
    <path d="M 102.974159 186.291686 
Q 121.5928 183.78533 139.103401 181.428134 
" clip-path="url(#p3714f1846c)" style="fill: none; stroke: #4c4c4c; stroke-linecap: round"/>
    <path d="M 137.834081 180.993592 
L 139.103401 181.428134 
L 137.994175 182.182865 
" clip-path="url(#p3714f1846c)" style="fill: none; stroke: #4c4c4c; stroke-linecap: round"/>
   </g>
   <g id="patch_68">
    <path d="M 102.755003 160.404796 
Q 121.594767 165.47704 139.354939 170.258625 
" clip-path="url(#p3714f1846c)" style="fill: none; stroke: #4c4c4c; stroke-linecap: round"/>
    <path d="M 138.352184 169.367287 
L 139.354939 170.258625 
L 138.040216 170.526026 
" clip-path="url(#p3714f1846c)" style="fill: none; stroke: #4c4c4c; stroke-linecap: round"/>
   </g>
   <g id="patch_69">
    <path d="M 103.036419 158.618376 
Q 230.400763 165.476456 356.64869 172.274421 
" clip-path="url(#p3714f1846c)" style="fill: none; stroke: #4c4c4c; stroke-linecap: round"/>
    <path d="M 355.482687 171.610767 
L 356.64869 172.274421 
L 355.418165 172.809031 
" clip-path="url(#p3714f1846c)" style="fill: none; stroke: #4c4c4c; stroke-linecap: round"/>
   </g>
   <g id="patch_70">
    <path d="M 102.017842 132.965488 
Q 121.593221 143.506077 140.184204 153.516605 
" clip-path="url(#p3714f1846c)" style="fill: none; stroke: #4c4c4c; stroke-linecap: round"/>
    <path d="M 139.412098 152.419403 
L 140.184204 153.516605 
L 138.843178 153.475968 
" clip-path="url(#p3714f1846c)" style="fill: none; stroke: #4c4c4c; stroke-linecap: round"/>
   </g>
   <g id="patch_71">
    <path d="M 103.003214 201.166825 
Q 230.399692 187.447204 356.684564 173.847295 
" clip-path="url(#p3714f1846c)" style="fill: none; stroke: #4c4c4c; stroke-linecap: round"/>
    <path d="M 355.427219 173.379232 
L 356.684564 173.847295 
L 355.555707 174.572333 
" clip-path="url(#p3714f1846c)" style="fill: none; stroke: #4c4c4c; stroke-linecap: round"/>
   </g>
   <g id="patch_72">
    <path d="M 102.422949 139.425924 
Q 121.593882 147.168031 139.728127 154.491477 
" clip-path="url(#p3714f1846c)" style="fill: none; stroke: #4c4c4c; stroke-linecap: round"/>
    <path d="M 138.840115 153.485776 
L 139.728127 154.491477 
L 138.390759 154.598466 
" clip-path="url(#p3714f1846c)" style="fill: none; stroke: #4c4c4c; stroke-linecap: round"/>
   </g>
   <g id="patch_73">
    <path d="M 102.970008 137.336999 
Q 230.398626 154.490851 356.719203 171.495544 
" clip-path="url(#p3714f1846c)" style="fill: none; stroke: #4c4c4c; stroke-linecap: round"/>
    <path d="M 355.609978 170.740814 
L 356.719203 171.495544 
L 355.449883 171.930086 
" clip-path="url(#p3714f1846c)" style="fill: none; stroke: #4c4c4c; stroke-linecap: round"/>
   </g>
   <g id="patch_74">
    <path d="M 102.595617 213.980194 
Q 148.793616 198.432791 193.931978 183.241996 
" clip-path="url(#p3714f1846c)" style="fill: none; stroke: #4c4c4c; stroke-linecap: round"/>
    <path d="M 192.60328 183.056087 
L 193.931978 183.241996 
L 192.986033 184.193409 
" clip-path="url(#p3714f1846c)" style="fill: none; stroke: #4c4c4c; stroke-linecap: round"/>
   </g>
   <g id="patch_75">
    <path d="M 102.422949 213.497662 
Q 148.795577 194.770254 194.131517 176.461509 
" clip-path="url(#p3714f1846c)" style="fill: none; stroke: #4c4c4c; stroke-linecap: round"/>
    <path d="M 192.794149 176.354519 
L 194.131517 176.461509 
L 193.243505 177.46721 
" clip-path="url(#p3714f1846c)" style="fill: none; stroke: #4c4c4c; stroke-linecap: round"/>
   </g>
   <g id="patch_76">
    <path d="M 103.04472 165.709411 
Q 230.397012 169.138127 356.631675 172.536752 
" clip-path="url(#p3714f1846c)" style="fill: none; stroke: #4c4c4c; stroke-linecap: round"/>
    <path d="M 355.448258 171.904674 
L 356.631675 172.536752 
L 355.415962 173.104239 
" clip-path="url(#p3714f1846c)" style="fill: none; stroke: #4c4c4c; stroke-linecap: round"/>
   </g>
   <g id="patch_77">
    <path d="M 103.053852 165.476414 
Q 121.59265 165.476414 139.013414 165.476414 
" clip-path="url(#p3714f1846c)" style="fill: none; stroke: #4c4c4c; stroke-linecap: round"/>
    <path d="M 137.813414 164.876414 
L 139.013414 165.476414 
L 137.813414 166.076414 
" clip-path="url(#p3714f1846c)" style="fill: none; stroke: #4c4c4c; stroke-linecap: round"/>
   </g>
   <g id="patch_78">
    <path d="M 103.003214 144.433175 
Q 230.399692 158.152796 356.684564 171.752705 
" clip-path="url(#p3714f1846c)" style="fill: none; stroke: #4c4c4c; stroke-linecap: round"/>
    <path d="M 355.555707 171.027667 
L 356.684564 171.752705 
L 355.427219 172.220768 
" clip-path="url(#p3714f1846c)" style="fill: none; stroke: #4c4c4c; stroke-linecap: round"/>
   </g>
   <g id="patch_79">
    <path d="M 102.970008 208.263001 
Q 230.398626 191.109149 356.719203 174.104456 
" clip-path="url(#p3714f1846c)" style="fill: none; stroke: #4c4c4c; stroke-linecap: round"/>
    <path d="M 355.449883 173.669914 
L 356.719203 174.104456 
L 355.609978 174.859186 
" clip-path="url(#p3714f1846c)" style="fill: none; stroke: #4c4c4c; stroke-linecap: round"/>
   </g>
   <g id="patch_80">
    <path d="M 102.595617 206.656609 
Q 148.793616 191.109205 193.931978 175.91841 
" clip-path="url(#p3714f1846c)" style="fill: none; stroke: #4c4c4c; stroke-linecap: round"/>
    <path d="M 192.60328 175.732502 
L 193.931978 175.91841 
L 192.986033 176.869823 
" clip-path="url(#p3714f1846c)" style="fill: none; stroke: #4c4c4c; stroke-linecap: round"/>
   </g>
   <g id="patch_81">
    <path d="M 103.019816 194.073778 
Q 230.400227 183.78536 356.666233 173.586952 
" clip-path="url(#p3714f1846c)" style="fill: none; stroke: #4c4c4c; stroke-linecap: round"/>
    <path d="M 355.421824 173.085508 
L 356.666233 173.586952 
L 355.518432 174.281613 
" clip-path="url(#p3714f1846c)" style="fill: none; stroke: #4c4c4c; stroke-linecap: round"/>
   </g>
   <g id="patch_82">
    <path d="M 103.04472 179.890589 
Q 230.397012 176.461873 356.631675 173.063248 
" clip-path="url(#p3714f1846c)" style="fill: none; stroke: #4c4c4c; stroke-linecap: round"/>
    <path d="M 355.415962 172.495761 
L 356.631675 173.063248 
L 355.448258 173.695326 
" clip-path="url(#p3714f1846c)" style="fill: none; stroke: #4c4c4c; stroke-linecap: round"/>
   </g>
   <g id="patch_83">
    <path d="M 103.053022 172.8 
Q 230.4013 172.8 356.631543 172.8 
" clip-path="url(#p3714f1846c)" style="fill: none; stroke: #4c4c4c; stroke-linecap: round"/>
    <path d="M 355.431543 172.2 
L 356.631543 172.8 
L 355.431543 173.4 
" clip-path="url(#p3714f1846c)" style="fill: none; stroke: #4c4c4c; stroke-linecap: round"/>
   </g>
   <g id="patch_84">
    <path d="M 157.158781 160.404796 
Q 175.998545 165.47704 193.758717 170.258625 
" clip-path="url(#p3714f1846c)" style="fill: none; stroke: #4c4c4c; stroke-linecap: round"/>
    <path d="M 192.755962 169.367287 
L 193.758717 170.258625 
L 192.443994 170.526026 
" clip-path="url(#p3714f1846c)" style="fill: none; stroke: #4c4c4c; stroke-linecap: round"/>
   </g>
   <g id="patch_85">
    <path d="M 156.826727 161.39668 
Q 175.99766 169.138788 194.131905 176.462233 
" clip-path="url(#p3714f1846c)" style="fill: none; stroke: #4c4c4c; stroke-linecap: round"/>
    <path d="M 193.243893 175.456533 
L 194.131905 176.462233 
L 192.794537 176.569223 
" clip-path="url(#p3714f1846c)" style="fill: none; stroke: #4c4c4c; stroke-linecap: round"/>
   </g>
   <g id="patch_86">
    <path d="M 157.437707 186.865405 
Q 257.604542 180.123407 356.655867 173.456491 
" clip-path="url(#p3714f1846c)" style="fill: none; stroke: #4c4c4c; stroke-linecap: round"/>
    <path d="M 355.418282 172.938432 
L 356.655867 173.456491 
L 355.498869 174.135723 
" clip-path="url(#p3714f1846c)" style="fill: none; stroke: #4c4c4c; stroke-linecap: round"/>
   </g>
   <g id="patch_87">
    <path d="M 157.45763 172.8 
Q 257.602162 172.8 356.62866 172.8 
" clip-path="url(#p3714f1846c)" style="fill: none; stroke: #4c4c4c; stroke-linecap: round"/>
    <path d="M 355.42866 172.2 
L 356.62866 172.8 
L 355.42866 173.4 
" clip-path="url(#p3714f1846c)" style="fill: none; stroke: #4c4c4c; stroke-linecap: round"/>
   </g>
   <g id="patch_88">
    <path d="M 157.45763 172.8 
Q 175.996428 172.8 193.417192 172.8 
" clip-path="url(#p3714f1846c)" style="fill: none; stroke: #4c4c4c; stroke-linecap: round"/>
    <path d="M 192.217192 172.2 
L 193.417192 172.8 
L 192.217192 173.4 
" clip-path="url(#p3714f1846c)" style="fill: none; stroke: #4c4c4c; stroke-linecap: round"/>
   </g>
   <g id="patch_89">
    <path d="M 157.450989 179.832256 
Q 257.601892 176.461793 356.635394 173.128934 
" clip-path="url(#p3714f1846c)" style="fill: none; stroke: #4c4c4c; stroke-linecap: round"/>
    <path d="M 355.415892 172.569636 
L 356.635394 173.128934 
L 355.456254 173.768957 
" clip-path="url(#p3714f1846c)" style="fill: none; stroke: #4c4c4c; stroke-linecap: round"/>
   </g>
   <g id="patch_90">
    <path d="M 157.158781 177.871619 
Q 175.998545 172.799375 193.758717 168.01779 
" clip-path="url(#p3714f1846c)" style="fill: none; stroke: #4c4c4c; stroke-linecap: round"/>
    <path d="M 192.443994 167.750388 
L 193.758717 168.01779 
L 192.755962 168.909127 
" clip-path="url(#p3714f1846c)" style="fill: none; stroke: #4c4c4c; stroke-linecap: round"/>
   </g>
   <g id="patch_91">
    <path d="M 157.450989 165.767744 
Q 257.601892 169.138207 356.635394 172.471066 
" clip-path="url(#p3714f1846c)" style="fill: none; stroke: #4c4c4c; stroke-linecap: round"/>
    <path d="M 355.456254 171.831043 
L 356.635394 172.471066 
L 355.415892 173.030364 
" clip-path="url(#p3714f1846c)" style="fill: none; stroke: #4c4c4c; stroke-linecap: round"/>
   </g>
   <g id="patch_92">
    <path d="M 211.859748 172.8 
Q 284.802507 172.8 356.627233 172.8 
" clip-path="url(#p3714f1846c)" style="fill: none; stroke: #4c4c4c; stroke-linecap: round"/>
    <path d="M 355.427233 172.2 
L 356.627233 172.8 
L 355.427233 173.4 
" clip-path="url(#p3714f1846c)" style="fill: none; stroke: #4c4c4c; stroke-linecap: round"/>
   </g>
   <g id="patch_93">
    <path d="M 211.781715 166.6319 
Q 230.400356 169.138255 247.910957 171.495451 
" clip-path="url(#p3714f1846c)" style="fill: none; stroke: #4c4c4c; stroke-linecap: round"/>
    <path d="M 246.801731 170.740721 
L 247.910957 171.495451 
L 246.641637 171.929993 
" clip-path="url(#p3714f1846c)" style="fill: none; stroke: #4c4c4c; stroke-linecap: round"/>
   </g>
   <g id="patch_94">
    <path d="M 211.849786 179.735369 
Q 284.801964 176.461874 356.637232 173.238497 
" clip-path="url(#p3714f1846c)" style="fill: none; stroke: #4c4c4c; stroke-linecap: round"/>
    <path d="M 355.411542 172.692892 
L 356.637232 173.238497 
L 355.465334 173.891686 
" clip-path="url(#p3714f1846c)" style="fill: none; stroke: #4c4c4c; stroke-linecap: round"/>
   </g>
   <g id="patch_95">
    <path d="M 266.265186 172.8 
Q 284.803984 172.8 302.224748 172.8 
" clip-path="url(#p3714f1846c)" style="fill: none; stroke: #4c4c4c; stroke-linecap: round"/>
    <path d="M 301.024748 172.2 
L 302.224748 172.8 
L 301.024748 173.4 
" clip-path="url(#p3714f1846c)" style="fill: none; stroke: #4c4c4c; stroke-linecap: round"/>
   </g>
   <g id="patch_96">
    <path d="M 320.668964 172.8 
Q 339.207762 172.8 356.628526 172.8 
" clip-path="url(#p3714f1846c)" style="fill: none; stroke: #4c4c4c; stroke-linecap: round"/>
    <path d="M 355.428526 172.2 
L 356.628526 172.8 
L 355.428526 173.4 
" clip-path="url(#p3714f1846c)" style="fill: none; stroke: #4c4c4c; stroke-linecap: round"/>
   </g>
   <g id="patch_97">
    <path d="M 375.072742 172.8 
Q 393.61154 172.8 411.032304 172.8 
" clip-path="url(#p3714f1846c)" style="fill: none; stroke: #4c4c4c; stroke-linecap: round"/>
    <path d="M 409.832304 172.2 
L 411.032304 172.8 
L 409.832304 173.4 
" clip-path="url(#p3714f1846c)" style="fill: none; stroke: #4c4c4c; stroke-linecap: round"/>
   </g>
   <g id="PathCollection_1">
    <path d="M 39.986777 324.270171 
C 42.283503 324.270171 44.486471 323.357672 46.110501 321.733642 
C 47.734532 320.109611 48.647031 317.906644 48.647031 315.609917 
C 48.647031 313.313191 47.734532 311.110224 46.110501 309.486193 
C 44.486471 307.862162 42.283503 306.949663 39.986777 306.949663 
C 37.690051 306.949663 35.487083 307.862162 33.863053 309.486193 
C 32.239022 311.110224 31.326523 313.313191 31.326523 315.609917 
C 31.326523 317.906644 32.239022 320.109611 33.863053 321.733642 
C 35.487083 323.357672 37.690051 324.270171 39.986777 324.270171 
z
" clip-path="url(#p3714f1846c)" style="fill: #ffff00; stroke: #000000"/>
    <path d="M 39.986777 316.946586 
C 42.283503 316.946586 44.486471 316.034087 46.110501 314.410056 
C 47.734532 312.786026 48.647031 310.583058 48.647031 308.286332 
C 48.647031 305.989606 47.734532 303.786638 46.110501 302.162607 
C 44.486471 300.538577 42.283503 299.626078 39.986777 299.626078 
C 37.690051 299.626078 35.487083 300.538577 33.863053 302.162607 
C 32.239022 303.786638 31.326523 305.989606 31.326523 308.286332 
C 31.326523 310.583058 32.239022 312.786026 33.863053 314.410056 
C 35.487083 316.034087 37.690051 316.946586 39.986777 316.946586 
z
" clip-path="url(#p3714f1846c)" style="fill: #ffff00; stroke: #000000"/>
    <path d="M 39.986777 309.623 
C 42.283503 309.623 44.486471 308.710501 46.110501 307.086471 
C 47.734532 305.46244 48.647031 303.259473 48.647031 300.962746 
C 48.647031 298.66602 47.734532 296.463053 46.110501 294.839022 
C 44.486471 293.214991 42.283503 292.302492 39.986777 292.302492 
C 37.690051 292.302492 35.487083 293.214991 33.863053 294.839022 
C 32.239022 296.463053 31.326523 298.66602 31.326523 300.962746 
C 31.326523 303.259473 32.239022 305.46244 33.863053 307.086471 
C 35.487083 308.710501 37.690051 309.623 39.986777 309.623 
z
" clip-path="url(#p3714f1846c)" style="fill: #ffff00; stroke: #000000"/>
    <path d="M 39.986777 302.299415 
C 42.283503 302.299415 44.486471 301.386916 46.110501 299.762885 
C 47.734532 298.138855 48.647031 295.935887 48.647031 293.639161 
C 48.647031 291.342435 47.734532 289.139467 46.110501 287.515436 
C 44.486471 285.891406 42.283503 284.978907 39.986777 284.978907 
C 37.690051 284.978907 35.487083 285.891406 33.863053 287.515436 
C 32.239022 289.139467 31.326523 291.342435 31.326523 293.639161 
C 31.326523 295.935887 32.239022 298.138855 33.863053 299.762885 
C 35.487083 301.386916 37.690051 302.299415 39.986777 302.299415 
z
" clip-path="url(#p3714f1846c)" style="fill: #ffff00; stroke: #000000"/>
    <path d="M 39.986777 294.975829 
C 42.283503 294.975829 44.486471 294.06333 46.110501 292.4393 
C 47.734532 290.815269 48.647031 288.612302 48.647031 286.315575 
C 48.647031 284.018849 47.734532 281.815882 46.110501 280.191851 
C 44.486471 278.56782 42.283503 277.655321 39.986777 277.655321 
C 37.690051 277.655321 35.487083 278.56782 33.863053 280.191851 
C 32.239022 281.815882 31.326523 284.018849 31.326523 286.315575 
C 31.326523 288.612302 32.239022 290.815269 33.863053 292.4393 
C 35.487083 294.06333 37.690051 294.975829 39.986777 294.975829 
z
" clip-path="url(#p3714f1846c)" style="fill: #ffff00; stroke: #000000"/>
    <path d="M 39.986777 287.652244 
C 42.283503 287.652244 44.486471 286.739745 46.110501 285.115714 
C 47.734532 283.491684 48.647031 281.288716 48.647031 278.99199 
C 48.647031 276.695264 47.734532 274.492296 46.110501 272.868265 
C 44.486471 271.244235 42.283503 270.331736 39.986777 270.331736 
C 37.690051 270.331736 35.487083 271.244235 33.863053 272.868265 
C 32.239022 274.492296 31.326523 276.695264 31.326523 278.99199 
C 31.326523 281.288716 32.239022 283.491684 33.863053 285.115714 
C 35.487083 286.739745 37.690051 287.652244 39.986777 287.652244 
z
" clip-path="url(#p3714f1846c)" style="fill: #ffff00; stroke: #000000"/>
    <path d="M 39.986777 280.328658 
C 42.283503 280.328658 44.486471 279.416159 46.110501 277.792129 
C 47.734532 276.168098 48.647031 273.965131 48.647031 271.668404 
C 48.647031 269.371678 47.734532 267.168711 46.110501 265.54468 
C 44.486471 263.920649 42.283503 263.00815 39.986777 263.00815 
C 37.690051 263.00815 35.487083 263.920649 33.863053 265.54468 
C 32.239022 267.168711 31.326523 269.371678 31.326523 271.668404 
C 31.326523 273.965131 32.239022 276.168098 33.863053 277.792129 
C 35.487083 279.416159 37.690051 280.328658 39.986777 280.328658 
z
" clip-path="url(#p3714f1846c)" style="fill: #ffff00; stroke: #000000"/>
    <path d="M 39.986777 273.005073 
C 42.283503 273.005073 44.486471 272.092574 46.110501 270.468543 
C 47.734532 268.844512 48.647031 266.641545 48.647031 264.344819 
C 48.647031 262.048093 47.734532 259.845125 46.110501 258.221094 
C 44.486471 256.597064 42.283503 255.684565 39.986777 255.684565 
C 37.690051 255.684565 35.487083 256.597064 33.863053 258.221094 
C 32.239022 259.845125 31.326523 262.048093 31.326523 264.344819 
C 31.326523 266.641545 32.239022 268.844512 33.863053 270.468543 
C 35.487083 272.092574 37.690051 273.005073 39.986777 273.005073 
z
" clip-path="url(#p3714f1846c)" style="fill: #ffff00; stroke: #000000"/>
    <path d="M 39.986777 265.681487 
C 42.283503 265.681487 44.486471 264.768988 46.110501 263.144958 
C 47.734532 261.520927 48.647031 259.31796 48.647031 257.021233 
C 48.647031 254.724507 47.734532 252.52154 46.110501 250.897509 
C 44.486471 249.273478 42.283503 248.360979 39.986777 248.360979 
C 37.690051 248.360979 35.487083 249.273478 33.863053 250.897509 
C 32.239022 252.52154 31.326523 254.724507 31.326523 257.021233 
C 31.326523 259.31796 32.239022 261.520927 33.863053 263.144958 
C 35.487083 264.768988 37.690051 265.681487 39.986777 265.681487 
z
" clip-path="url(#p3714f1846c)" style="fill: #ffff00; stroke: #000000"/>
    <path d="M 39.986777 258.357902 
C 42.283503 258.357902 44.486471 257.445403 46.110501 255.821372 
C 47.734532 254.197341 48.647031 251.994374 48.647031 249.697648 
C 48.647031 247.400922 47.734532 245.197954 46.110501 243.573923 
C 44.486471 241.949893 42.283503 241.037394 39.986777 241.037394 
C 37.690051 241.037394 35.487083 241.949893 33.863053 243.573923 
C 32.239022 245.197954 31.326523 247.400922 31.326523 249.697648 
C 31.326523 251.994374 32.239022 254.197341 33.863053 255.821372 
C 35.487083 257.445403 37.690051 258.357902 39.986777 258.357902 
z
" clip-path="url(#p3714f1846c)" style="fill: #ffff00; stroke: #000000"/>
    <path d="M 39.986777 251.034316 
C 42.283503 251.034316 44.486471 250.121817 46.110501 248.497787 
C 47.734532 246.873756 48.647031 244.670789 48.647031 242.374062 
C 48.647031 240.077336 47.734532 237.874369 46.110501 236.250338 
C 44.486471 234.626307 42.283503 233.713808 39.986777 233.713808 
C 37.690051 233.713808 35.487083 234.626307 33.863053 236.250338 
C 32.239022 237.874369 31.326523 240.077336 31.326523 242.374062 
C 31.326523 244.670789 32.239022 246.873756 33.863053 248.497787 
C 35.487083 250.121817 37.690051 251.034316 39.986777 251.034316 
z
" clip-path="url(#p3714f1846c)" style="fill: #ffff00; stroke: #000000"/>
    <path d="M 39.986777 243.710731 
C 42.283503 243.710731 44.486471 242.798232 46.110501 241.174201 
C 47.734532 239.55017 48.647031 237.347203 48.647031 235.050477 
C 48.647031 232.753751 47.734532 230.550783 46.110501 228.926752 
C 44.486471 227.302722 42.283503 226.390223 39.986777 226.390223 
C 37.690051 226.390223 35.487083 227.302722 33.863053 228.926752 
C 32.239022 230.550783 31.326523 232.753751 31.326523 235.050477 
C 31.326523 237.347203 32.239022 239.55017 33.863053 241.174201 
C 35.487083 242.798232 37.690051 243.710731 39.986777 243.710731 
z
" clip-path="url(#p3714f1846c)" style="fill: #ffff00; stroke: #000000"/>
    <path d="M 39.986777 236.387145 
C 42.283503 236.387145 44.486471 235.474646 46.110501 233.850616 
C 47.734532 232.226585 48.647031 230.023618 48.647031 227.726891 
C 48.647031 225.430165 47.734532 223.227198 46.110501 221.603167 
C 44.486471 219.979136 42.283503 219.066637 39.986777 219.066637 
C 37.690051 219.066637 35.487083 219.979136 33.863053 221.603167 
C 32.239022 223.227198 31.326523 225.430165 31.326523 227.726891 
C 31.326523 230.023618 32.239022 232.226585 33.863053 233.850616 
C 35.487083 235.474646 37.690051 236.387145 39.986777 236.387145 
z
" clip-path="url(#p3714f1846c)" style="fill: #ffff00; stroke: #000000"/>
    <path d="M 39.986777 229.06356 
C 42.283503 229.06356 44.486471 228.151061 46.110501 226.52703 
C 47.734532 224.902999 48.647031 222.700032 48.647031 220.403306 
C 48.647031 218.10658 47.734532 215.903612 46.110501 214.279581 
C 44.486471 212.655551 42.283503 211.743052 39.986777 211.743052 
C 37.690051 211.743052 35.487083 212.655551 33.863053 214.279581 
C 32.239022 215.903612 31.326523 218.10658 31.326523 220.403306 
C 31.326523 222.700032 32.239022 224.902999 33.863053 226.52703 
C 35.487083 228.151061 37.690051 229.06356 39.986777 229.06356 
z
" clip-path="url(#p3714f1846c)" style="fill: #ffff00; stroke: #000000"/>
    <path d="M 39.986777 221.739974 
C 42.283503 221.739974 44.486471 220.827475 46.110501 219.203445 
C 47.734532 217.579414 48.647031 215.376446 48.647031 213.07972 
C 48.647031 210.782994 47.734532 208.580027 46.110501 206.955996 
C 44.486471 205.331965 42.283503 204.419466 39.986777 204.419466 
C 37.690051 204.419466 35.487083 205.331965 33.863053 206.955996 
C 32.239022 208.580027 31.326523 210.782994 31.326523 213.07972 
C 31.326523 215.376446 32.239022 217.579414 33.863053 219.203445 
C 35.487083 220.827475 37.690051 221.739974 39.986777 221.739974 
z
" clip-path="url(#p3714f1846c)" style="fill: #ffff00; stroke: #000000"/>
    <path d="M 39.986777 214.416389 
C 42.283503 214.416389 44.486471 213.50389 46.110501 211.879859 
C 47.734532 210.255828 48.647031 208.052861 48.647031 205.756135 
C 48.647031 203.459409 47.734532 201.256441 46.110501 199.63241 
C 44.486471 198.00838 42.283503 197.095881 39.986777 197.095881 
C 37.690051 197.095881 35.487083 198.00838 33.863053 199.63241 
C 32.239022 201.256441 31.326523 203.459409 31.326523 205.756135 
C 31.326523 208.052861 32.239022 210.255828 33.863053 211.879859 
C 35.487083 213.50389 37.690051 214.416389 39.986777 214.416389 
z
" clip-path="url(#p3714f1846c)" style="fill: #ffff00; stroke: #000000"/>
    <path d="M 39.986777 207.092803 
C 42.283503 207.092803 44.486471 206.180304 46.110501 204.556274 
C 47.734532 202.932243 48.647031 200.729275 48.647031 198.432549 
C 48.647031 196.135823 47.734532 193.932856 46.110501 192.308825 
C 44.486471 190.684794 42.283503 189.772295 39.986777 189.772295 
C 37.690051 189.772295 35.487083 190.684794 33.863053 192.308825 
C 32.239022 193.932856 31.326523 196.135823 31.326523 198.432549 
C 31.326523 200.729275 32.239022 202.932243 33.863053 204.556274 
C 35.487083 206.180304 37.690051 207.092803 39.986777 207.092803 
z
" clip-path="url(#p3714f1846c)" style="fill: #ffff00; stroke: #000000"/>
    <path d="M 39.986777 199.769218 
C 42.283503 199.769218 44.486471 198.856719 46.110501 197.232688 
C 47.734532 195.608657 48.647031 193.40569 48.647031 191.108964 
C 48.647031 188.812238 47.734532 186.60927 46.110501 184.985239 
C 44.486471 183.361209 42.283503 182.44871 39.986777 182.44871 
C 37.690051 182.44871 35.487083 183.361209 33.863053 184.985239 
C 32.239022 186.60927 31.326523 188.812238 31.326523 191.108964 
C 31.326523 193.40569 32.239022 195.608657 33.863053 197.232688 
C 35.487083 198.856719 37.690051 199.769218 39.986777 199.769218 
z
" clip-path="url(#p3714f1846c)" style="fill: #ffff00; stroke: #000000"/>
    <path d="M 39.986777 192.445632 
C 42.283503 192.445632 44.486471 191.533133 46.110501 189.909103 
C 47.734532 188.285072 48.647031 186.082104 48.647031 183.785378 
C 48.647031 181.488652 47.734532 179.285685 46.110501 177.661654 
C 44.486471 176.037623 42.283503 175.125124 39.986777 175.125124 
C 37.690051 175.125124 35.487083 176.037623 33.863053 177.661654 
C 32.239022 179.285685 31.326523 181.488652 31.326523 183.785378 
C 31.326523 186.082104 32.239022 188.285072 33.863053 189.909103 
C 35.487083 191.533133 37.690051 192.445632 39.986777 192.445632 
z
" clip-path="url(#p3714f1846c)" style="fill: #ffff00; stroke: #000000"/>
    <path d="M 39.986777 185.122047 
C 42.283503 185.122047 44.486471 184.209548 46.110501 182.585517 
C 47.734532 180.961486 48.647031 178.758519 48.647031 176.461793 
C 48.647031 174.165067 47.734532 171.962099 46.110501 170.338068 
C 44.486471 168.714038 42.283503 167.801539 39.986777 167.801539 
C 37.690051 167.801539 35.487083 168.714038 33.863053 170.338068 
C 32.239022 171.962099 31.326523 174.165067 31.326523 176.461793 
C 31.326523 178.758519 32.239022 180.961486 33.863053 182.585517 
C 35.487083 184.209548 37.690051 185.122047 39.986777 185.122047 
z
" clip-path="url(#p3714f1846c)" style="fill: #ffff00; stroke: #000000"/>
    <path d="M 39.986777 177.798461 
C 42.283503 177.798461 44.486471 176.885962 46.110501 175.261932 
C 47.734532 173.637901 48.647031 171.434933 48.647031 169.138207 
C 48.647031 166.841481 47.734532 164.638514 46.110501 163.014483 
C 44.486471 161.390452 42.283503 160.477953 39.986777 160.477953 
C 37.690051 160.477953 35.487083 161.390452 33.863053 163.014483 
C 32.239022 164.638514 31.326523 166.841481 31.326523 169.138207 
C 31.326523 171.434933 32.239022 173.637901 33.863053 175.261932 
C 35.487083 176.885962 37.690051 177.798461 39.986777 177.798461 
z
" clip-path="url(#p3714f1846c)" style="fill: #ffff00; stroke: #000000"/>
    <path d="M 39.986777 170.474876 
C 42.283503 170.474876 44.486471 169.562377 46.110501 167.938346 
C 47.734532 166.314315 48.647031 164.111348 48.647031 161.814622 
C 48.647031 159.517896 47.734532 157.314928 46.110501 155.690897 
C 44.486471 154.066867 42.283503 153.154368 39.986777 153.154368 
C 37.690051 153.154368 35.487083 154.066867 33.863053 155.690897 
C 32.239022 157.314928 31.326523 159.517896 31.326523 161.814622 
C 31.326523 164.111348 32.239022 166.314315 33.863053 167.938346 
C 35.487083 169.562377 37.690051 170.474876 39.986777 170.474876 
z
" clip-path="url(#p3714f1846c)" style="fill: #ffff00; stroke: #000000"/>
    <path d="M 39.986777 163.15129 
C 42.283503 163.15129 44.486471 162.238791 46.110501 160.614761 
C 47.734532 158.99073 48.647031 156.787762 48.647031 154.491036 
C 48.647031 152.19431 47.734532 149.991343 46.110501 148.367312 
C 44.486471 146.743281 42.283503 145.830782 39.986777 145.830782 
C 37.690051 145.830782 35.487083 146.743281 33.863053 148.367312 
C 32.239022 149.991343 31.326523 152.19431 31.326523 154.491036 
C 31.326523 156.787762 32.239022 158.99073 33.863053 160.614761 
C 35.487083 162.238791 37.690051 163.15129 39.986777 163.15129 
z
" clip-path="url(#p3714f1846c)" style="fill: #ffff00; stroke: #000000"/>
    <path d="M 39.986777 155.827705 
C 42.283503 155.827705 44.486471 154.915206 46.110501 153.291175 
C 47.734532 151.667144 48.647031 149.464177 48.647031 147.167451 
C 48.647031 144.870725 47.734532 142.667757 46.110501 141.043726 
C 44.486471 139.419696 42.283503 138.507197 39.986777 138.507197 
C 37.690051 138.507197 35.487083 139.419696 33.863053 141.043726 
C 32.239022 142.667757 31.326523 144.870725 31.326523 147.167451 
C 31.326523 149.464177 32.239022 151.667144 33.863053 153.291175 
C 35.487083 154.915206 37.690051 155.827705 39.986777 155.827705 
z
" clip-path="url(#p3714f1846c)" style="fill: #ffff00; stroke: #000000"/>
    <path d="M 39.986777 148.504119 
C 42.283503 148.504119 44.486471 147.59162 46.110501 145.96759 
C 47.734532 144.343559 48.647031 142.140591 48.647031 139.843865 
C 48.647031 137.547139 47.734532 135.344172 46.110501 133.720141 
C 44.486471 132.09611 42.283503 131.183611 39.986777 131.183611 
C 37.690051 131.183611 35.487083 132.09611 33.863053 133.720141 
C 32.239022 135.344172 31.326523 137.547139 31.326523 139.843865 
C 31.326523 142.140591 32.239022 144.343559 33.863053 145.96759 
C 35.487083 147.59162 37.690051 148.504119 39.986777 148.504119 
z
" clip-path="url(#p3714f1846c)" style="fill: #ffff00; stroke: #000000"/>
    <path d="M 39.986777 141.180534 
C 42.283503 141.180534 44.486471 140.268035 46.110501 138.644004 
C 47.734532 137.019973 48.647031 134.817006 48.647031 132.52028 
C 48.647031 130.223554 47.734532 128.020586 46.110501 126.396555 
C 44.486471 124.772525 42.283503 123.860026 39.986777 123.860026 
C 37.690051 123.860026 35.487083 124.772525 33.863053 126.396555 
C 32.239022 128.020586 31.326523 130.223554 31.326523 132.52028 
C 31.326523 134.817006 32.239022 137.019973 33.863053 138.644004 
C 35.487083 140.268035 37.690051 141.180534 39.986777 141.180534 
z
" clip-path="url(#p3714f1846c)" style="fill: #ffff00; stroke: #000000"/>
    <path d="M 39.986777 133.856948 
C 42.283503 133.856948 44.486471 132.944449 46.110501 131.320419 
C 47.734532 129.696388 48.647031 127.49342 48.647031 125.196694 
C 48.647031 122.899968 47.734532 120.697001 46.110501 119.07297 
C 44.486471 117.448939 42.283503 116.53644 39.986777 116.53644 
C 37.690051 116.53644 35.487083 117.448939 33.863053 119.07297 
C 32.239022 120.697001 31.326523 122.899968 31.326523 125.196694 
C 31.326523 127.49342 32.239022 129.696388 33.863053 131.320419 
C 35.487083 132.944449 37.690051 133.856948 39.986777 133.856948 
z
" clip-path="url(#p3714f1846c)" style="fill: #ffff00; stroke: #000000"/>
    <path d="M 39.986777 126.533363 
C 42.283503 126.533363 44.486471 125.620864 46.110501 123.996833 
C 47.734532 122.372802 48.647031 120.169835 48.647031 117.873109 
C 48.647031 115.576382 47.734532 113.373415 46.110501 111.749384 
C 44.486471 110.125354 42.283503 109.212855 39.986777 109.212855 
C 37.690051 109.212855 35.487083 110.125354 33.863053 111.749384 
C 32.239022 113.373415 31.326523 115.576382 31.326523 117.873109 
C 31.326523 120.169835 32.239022 122.372802 33.863053 123.996833 
C 35.487083 125.620864 37.690051 126.533363 39.986777 126.533363 
z
" clip-path="url(#p3714f1846c)" style="fill: #ffff00; stroke: #000000"/>
    <path d="M 39.986777 119.209777 
C 42.283503 119.209777 44.486471 118.297278 46.110501 116.673248 
C 47.734532 115.049217 48.647031 112.846249 48.647031 110.549523 
C 48.647031 108.252797 47.734532 106.04983 46.110501 104.425799 
C 44.486471 102.801768 42.283503 101.889269 39.986777 101.889269 
C 37.690051 101.889269 35.487083 102.801768 33.863053 104.425799 
C 32.239022 106.04983 31.326523 108.252797 31.326523 110.549523 
C 31.326523 112.846249 32.239022 115.049217 33.863053 116.673248 
C 35.487083 118.297278 37.690051 119.209777 39.986777 119.209777 
z
" clip-path="url(#p3714f1846c)" style="fill: #ffff00; stroke: #000000"/>
    <path d="M 39.986777 111.886192 
C 42.283503 111.886192 44.486471 110.973693 46.110501 109.349662 
C 47.734532 107.725631 48.647031 105.522664 48.647031 103.225938 
C 48.647031 100.929211 47.734532 98.726244 46.110501 97.102213 
C 44.486471 95.478183 42.283503 94.565684 39.986777 94.565684 
C 37.690051 94.565684 35.487083 95.478183 33.863053 97.102213 
C 32.239022 98.726244 31.326523 100.929211 31.326523 103.225938 
C 31.326523 105.522664 32.239022 107.725631 33.863053 109.349662 
C 35.487083 110.973693 37.690051 111.886192 39.986777 111.886192 
z
" clip-path="url(#p3714f1846c)" style="fill: #ffff00; stroke: #000000"/>
    <path d="M 39.986777 104.562606 
C 42.283503 104.562606 44.486471 103.650107 46.110501 102.026077 
C 47.734532 100.402046 48.647031 98.199078 48.647031 95.902352 
C 48.647031 93.605626 47.734532 91.402659 46.110501 89.778628 
C 44.486471 88.154597 42.283503 87.242098 39.986777 87.242098 
C 37.690051 87.242098 35.487083 88.154597 33.863053 89.778628 
C 32.239022 91.402659 31.326523 93.605626 31.326523 95.902352 
C 31.326523 98.199078 32.239022 100.402046 33.863053 102.026077 
C 35.487083 103.650107 37.690051 104.562606 39.986777 104.562606 
z
" clip-path="url(#p3714f1846c)" style="fill: #ffff00; stroke: #000000"/>
    <path d="M 39.986777 97.239021 
C 42.283503 97.239021 44.486471 96.326522 46.110501 94.702491 
C 47.734532 93.07846 48.647031 90.875493 48.647031 88.578767 
C 48.647031 86.28204 47.734532 84.079073 46.110501 82.455042 
C 44.486471 80.831012 42.283503 79.918513 39.986777 79.918513 
C 37.690051 79.918513 35.487083 80.831012 33.863053 82.455042 
C 32.239022 84.079073 31.326523 86.28204 31.326523 88.578767 
C 31.326523 90.875493 32.239022 93.07846 33.863053 94.702491 
C 35.487083 96.326522 37.690051 97.239021 39.986777 97.239021 
z
" clip-path="url(#p3714f1846c)" style="fill: #ffff00; stroke: #000000"/>
    <path d="M 39.986777 89.915435 
C 42.283503 89.915435 44.486471 89.002936 46.110501 87.378906 
C 47.734532 85.754875 48.647031 83.551907 48.647031 81.255181 
C 48.647031 78.958455 47.734532 76.755488 46.110501 75.131457 
C 44.486471 73.507426 42.283503 72.594927 39.986777 72.594927 
C 37.690051 72.594927 35.487083 73.507426 33.863053 75.131457 
C 32.239022 76.755488 31.326523 78.958455 31.326523 81.255181 
C 31.326523 83.551907 32.239022 85.754875 33.863053 87.378906 
C 35.487083 89.002936 37.690051 89.915435 39.986777 89.915435 
z
" clip-path="url(#p3714f1846c)" style="fill: #ffff00; stroke: #000000"/>
    <path d="M 39.986777 82.59185 
C 42.283503 82.59185 44.486471 81.679351 46.110501 80.05532 
C 47.734532 78.431289 48.647031 76.228322 48.647031 73.931596 
C 48.647031 71.634869 47.734532 69.431902 46.110501 67.807871 
C 44.486471 66.183841 42.283503 65.271342 39.986777 65.271342 
C 37.690051 65.271342 35.487083 66.183841 33.863053 67.807871 
C 32.239022 69.431902 31.326523 71.634869 31.326523 73.931596 
C 31.326523 76.228322 32.239022 78.431289 33.863053 80.05532 
C 35.487083 81.679351 37.690051 82.59185 39.986777 82.59185 
z
" clip-path="url(#p3714f1846c)" style="fill: #ffff00; stroke: #000000"/>
    <path d="M 39.986777 75.268264 
C 42.283503 75.268264 44.486471 74.355765 46.110501 72.731735 
C 47.734532 71.107704 48.647031 68.904736 48.647031 66.60801 
C 48.647031 64.311284 47.734532 62.108316 46.110501 60.484286 
C 44.486471 58.860255 42.283503 57.947756 39.986777 57.947756 
C 37.690051 57.947756 35.487083 58.860255 33.863053 60.484286 
C 32.239022 62.108316 31.326523 64.311284 31.326523 66.60801 
C 31.326523 68.904736 32.239022 71.107704 33.863053 72.731735 
C 35.487083 74.355765 37.690051 75.268264 39.986777 75.268264 
z
" clip-path="url(#p3714f1846c)" style="fill: #ffff00; stroke: #000000"/>
    <path d="M 39.986777 67.944679 
C 42.283503 67.944679 44.486471 67.03218 46.110501 65.408149 
C 47.734532 63.784118 48.647031 61.581151 48.647031 59.284425 
C 48.647031 56.987698 47.734532 54.784731 46.110501 53.1607 
C 44.486471 51.53667 42.283503 50.624171 39.986777 50.624171 
C 37.690051 50.624171 35.487083 51.53667 33.863053 53.1607 
C 32.239022 54.784731 31.326523 56.987698 31.326523 59.284425 
C 31.326523 61.581151 32.239022 63.784118 33.863053 65.408149 
C 35.487083 67.03218 37.690051 67.944679 39.986777 67.944679 
z
" clip-path="url(#p3714f1846c)" style="fill: #ffff00; stroke: #000000"/>
    <path d="M 39.986777 60.621093 
C 42.283503 60.621093 44.486471 59.708594 46.110501 58.084564 
C 47.734532 56.460533 48.647031 54.257565 48.647031 51.960839 
C 48.647031 49.664113 47.734532 47.461145 46.110501 45.837115 
C 44.486471 44.213084 42.283503 43.300585 39.986777 43.300585 
C 37.690051 43.300585 35.487083 44.213084 33.863053 45.837115 
C 32.239022 47.461145 31.326523 49.664113 31.326523 51.960839 
C 31.326523 54.257565 32.239022 56.460533 33.863053 58.084564 
C 35.487083 59.708594 37.690051 60.621093 39.986777 60.621093 
z
" clip-path="url(#p3714f1846c)" style="fill: #ffff00; stroke: #000000"/>
    <path d="M 39.986777 53.297508 
C 42.283503 53.297508 44.486471 52.385009 46.110501 50.760978 
C 47.734532 49.136947 48.647031 46.93398 48.647031 44.637254 
C 48.647031 42.340527 47.734532 40.13756 46.110501 38.513529 
C 44.486471 36.889499 42.283503 35.977 39.986777 35.977 
C 37.690051 35.977 35.487083 36.889499 33.863053 38.513529 
C 32.239022 40.13756 31.326523 42.340527 31.326523 44.637254 
C 31.326523 46.93398 32.239022 49.136947 33.863053 50.760978 
C 35.487083 52.385009 37.690051 53.297508 39.986777 53.297508 
z
" clip-path="url(#p3714f1846c)" style="fill: #ffff00; stroke: #000000"/>
    <path d="M 39.986777 45.973922 
C 42.283503 45.973922 44.486471 45.061423 46.110501 43.437393 
C 47.734532 41.813362 48.647031 39.610394 48.647031 37.313668 
C 48.647031 35.016942 47.734532 32.813974 46.110501 31.189944 
C 44.486471 29.565913 42.283503 28.653414 39.986777 28.653414 
C 37.690051 28.653414 35.487083 29.565913 33.863053 31.189944 
C 32.239022 32.813974 31.326523 35.016942 31.326523 37.313668 
C 31.326523 39.610394 32.239022 41.813362 33.863053 43.437393 
C 35.487083 45.061423 37.690051 45.973922 39.986777 45.973922 
z
" clip-path="url(#p3714f1846c)" style="fill: #ffff00; stroke: #000000"/>
    <path d="M 39.986777 38.650337 
C 42.283503 38.650337 44.486471 37.737838 46.110501 36.113807 
C 47.734532 34.489776 48.647031 32.286809 48.647031 29.990083 
C 48.647031 27.693356 47.734532 25.490389 46.110501 23.866358 
C 44.486471 22.242328 42.283503 21.329829 39.986777 21.329829 
C 37.690051 21.329829 35.487083 22.242328 33.863053 23.866358 
C 32.239022 25.490389 31.326523 27.693356 31.326523 29.990083 
C 31.326523 32.286809 32.239022 34.489776 33.863053 36.113807 
C 35.487083 37.737838 37.690051 38.650337 39.986777 38.650337 
z
" clip-path="url(#p3714f1846c)" style="fill: #ffff00; stroke: #000000"/>
    <path d="M 94.390555 196.107425 
C 96.687281 196.107425 98.890249 195.194926 100.514279 193.570895 
C 102.13831 191.946865 103.050809 189.743897 103.050809 187.447171 
C 103.050809 185.150445 102.13831 182.947477 100.514279 181.323447 
C 98.890249 179.699416 96.687281 178.786917 94.390555 178.786917 
C 92.093829 178.786917 89.890861 179.699416 88.266831 181.323447 
C 86.6428 182.947477 85.730301 185.150445 85.730301 187.447171 
C 85.730301 189.743897 86.6428 191.946865 88.266831 193.570895 
C 89.890861 195.194926 92.093829 196.107425 94.390555 196.107425 
z
" clip-path="url(#p3714f1846c)" style="fill: #ffffff; stroke: #000000"/>
    <path d="M 94.390555 159.489498 
C 96.687281 159.489498 98.890249 158.576999 100.514279 156.952968 
C 102.13831 155.328937 103.050809 153.12597 103.050809 150.829243 
C 103.050809 148.532517 102.13831 146.32955 100.514279 144.705519 
C 98.890249 143.081488 96.687281 142.168989 94.390555 142.168989 
C 92.093829 142.168989 89.890861 143.081488 88.266831 144.705519 
C 86.6428 146.32955 85.730301 148.532517 85.730301 150.829243 
C 85.730301 153.12597 86.6428 155.328937 88.266831 156.952968 
C 89.890861 158.576999 92.093829 159.489498 94.390555 159.489498 
z
" clip-path="url(#p3714f1846c)" style="fill: #ffffff; stroke: #000000"/>
    <path d="M 94.390555 166.813083 
C 96.687281 166.813083 98.890249 165.900584 100.514279 164.276553 
C 102.13831 162.652523 103.050809 160.449555 103.050809 158.152829 
C 103.050809 155.856103 102.13831 153.653135 100.514279 152.029105 
C 98.890249 150.405074 96.687281 149.492575 94.390555 149.492575 
C 92.093829 149.492575 89.890861 150.405074 88.266831 152.029105 
C 86.6428 153.653135 85.730301 155.856103 85.730301 158.152829 
C 85.730301 160.449555 86.6428 162.652523 88.266831 164.276553 
C 89.890861 165.900584 92.093829 166.813083 94.390555 166.813083 
z
" clip-path="url(#p3714f1846c)" style="fill: #ffffff; stroke: #000000"/>
    <path d="M 94.390555 137.518741 
C 96.687281 137.518741 98.890249 136.606242 100.514279 134.982211 
C 102.13831 133.358181 103.050809 131.155213 103.050809 128.858487 
C 103.050809 126.561761 102.13831 124.358793 100.514279 122.734763 
C 98.890249 121.110732 96.687281 120.198233 94.390555 120.198233 
C 92.093829 120.198233 89.890861 121.110732 88.266831 122.734763 
C 86.6428 124.358793 85.730301 126.561761 85.730301 128.858487 
C 85.730301 131.155213 86.6428 133.358181 88.266831 134.982211 
C 89.890861 136.606242 92.093829 137.518741 94.390555 137.518741 
z
" clip-path="url(#p3714f1846c)" style="fill: #ffffff; stroke: #000000"/>
    <path d="M 94.390555 210.754596 
C 96.687281 210.754596 98.890249 209.842097 100.514279 208.218066 
C 102.13831 206.594036 103.050809 204.391068 103.050809 202.094342 
C 103.050809 199.797616 102.13831 197.594648 100.514279 195.970618 
C 98.890249 194.346587 96.687281 193.434088 94.390555 193.434088 
C 92.093829 193.434088 89.890861 194.346587 88.266831 195.970618 
C 86.6428 197.594648 85.730301 199.797616 85.730301 202.094342 
C 85.730301 204.391068 86.6428 206.594036 88.266831 208.218066 
C 89.890861 209.842097 92.093829 210.754596 94.390555 210.754596 
z
" clip-path="url(#p3714f1846c)" style="fill: #ffffff; stroke: #000000"/>
    <path d="M 94.390555 144.842327 
C 96.687281 144.842327 98.890249 143.929828 100.514279 142.305797 
C 102.13831 140.681766 103.050809 138.478799 103.050809 136.182072 
C 103.050809 133.885346 102.13831 131.682379 100.514279 130.058348 
C 98.890249 128.434317 96.687281 127.521818 94.390555 127.521818 
C 92.093829 127.521818 89.890861 128.434317 88.266831 130.058348 
C 86.6428 131.682379 85.730301 133.885346 85.730301 136.182072 
C 85.730301 138.478799 86.6428 140.681766 88.266831 142.305797 
C 89.890861 143.929828 92.093829 144.842327 94.390555 144.842327 
z
" clip-path="url(#p3714f1846c)" style="fill: #ffffff; stroke: #000000"/>
    <path d="M 94.390555 225.401767 
C 96.687281 225.401767 98.890249 224.489268 100.514279 222.865237 
C 102.13831 221.241207 103.050809 219.038239 103.050809 216.741513 
C 103.050809 214.444787 102.13831 212.241819 100.514279 210.617789 
C 98.890249 208.993758 96.687281 208.081259 94.390555 208.081259 
C 92.093829 208.081259 89.890861 208.993758 88.266831 210.617789 
C 86.6428 212.241819 85.730301 214.444787 85.730301 216.741513 
C 85.730301 219.038239 86.6428 221.241207 88.266831 222.865237 
C 89.890861 224.489268 92.093829 225.401767 94.390555 225.401767 
z
" clip-path="url(#p3714f1846c)" style="fill: #ffffff; stroke: #000000"/>
    <path d="M 94.390555 174.136669 
C 96.687281 174.136669 98.890249 173.22417 100.514279 171.600139 
C 102.13831 169.976108 103.050809 167.773141 103.050809 165.476414 
C 103.050809 163.179688 102.13831 160.976721 100.514279 159.35269 
C 98.890249 157.728659 96.687281 156.81616 94.390555 156.81616 
C 92.093829 156.81616 89.890861 157.728659 88.266831 159.35269 
C 86.6428 160.976721 85.730301 163.179688 85.730301 165.476414 
C 85.730301 167.773141 86.6428 169.976108 88.266831 171.600139 
C 89.890861 173.22417 92.093829 174.136669 94.390555 174.136669 
z
" clip-path="url(#p3714f1846c)" style="fill: #ffffff; stroke: #000000"/>
    <path d="M 94.390555 152.165912 
C 96.687281 152.165912 98.890249 151.253413 100.514279 149.629382 
C 102.13831 148.005352 103.050809 145.802384 103.050809 143.505658 
C 103.050809 141.208932 102.13831 139.005964 100.514279 137.381934 
C 98.890249 135.757903 96.687281 134.845404 94.390555 134.845404 
C 92.093829 134.845404 89.890861 135.757903 88.266831 137.381934 
C 86.6428 139.005964 85.730301 141.208932 85.730301 143.505658 
C 85.730301 145.802384 86.6428 148.005352 88.266831 149.629382 
C 89.890861 151.253413 92.093829 152.165912 94.390555 152.165912 
z
" clip-path="url(#p3714f1846c)" style="fill: #ffffff; stroke: #000000"/>
    <path d="M 94.390555 218.078182 
C 96.687281 218.078182 98.890249 217.165683 100.514279 215.541652 
C 102.13831 213.917621 103.050809 211.714654 103.050809 209.417928 
C 103.050809 207.121201 102.13831 204.918234 100.514279 203.294203 
C 98.890249 201.670172 96.687281 200.757673 94.390555 200.757673 
C 92.093829 200.757673 89.890861 201.670172 88.266831 203.294203 
C 86.6428 204.918234 85.730301 207.121201 85.730301 209.417928 
C 85.730301 211.714654 86.6428 213.917621 88.266831 215.541652 
C 89.890861 217.165683 92.093829 218.078182 94.390555 218.078182 
z
" clip-path="url(#p3714f1846c)" style="fill: #ffffff; stroke: #000000"/>
    <path d="M 94.390555 203.431011 
C 96.687281 203.431011 98.890249 202.518512 100.514279 200.894481 
C 102.13831 199.27045 103.050809 197.067483 103.050809 194.770757 
C 103.050809 192.47403 102.13831 190.271063 100.514279 188.647032 
C 98.890249 187.023001 96.687281 186.110502 94.390555 186.110502 
C 92.093829 186.110502 89.890861 187.023001 88.266831 188.647032 
C 86.6428 190.271063 85.730301 192.47403 85.730301 194.770757 
C 85.730301 197.067483 86.6428 199.27045 88.266831 200.894481 
C 89.890861 202.518512 92.093829 203.431011 94.390555 203.431011 
z
" clip-path="url(#p3714f1846c)" style="fill: #ffffff; stroke: #000000"/>
    <path d="M 94.390555 188.78384 
C 96.687281 188.78384 98.890249 187.871341 100.514279 186.24731 
C 102.13831 184.623279 103.050809 182.420312 103.050809 180.123586 
C 103.050809 177.826859 102.13831 175.623892 100.514279 173.999861 
C 98.890249 172.37583 96.687281 171.463331 94.390555 171.463331 
C 92.093829 171.463331 89.890861 172.37583 88.266831 173.999861 
C 86.6428 175.623892 85.730301 177.826859 85.730301 180.123586 
C 85.730301 182.420312 86.6428 184.623279 88.266831 186.24731 
C 89.890861 187.871341 92.093829 188.78384 94.390555 188.78384 
z
" clip-path="url(#p3714f1846c)" style="fill: #ffffff; stroke: #000000"/>
    <path d="M 94.390555 181.460254 
C 96.687281 181.460254 98.890249 180.547755 100.514279 178.923724 
C 102.13831 177.299694 103.050809 175.096726 103.050809 172.8 
C 103.050809 170.503274 102.13831 168.300306 100.514279 166.676276 
C 98.890249 165.052245 96.687281 164.139746 94.390555 164.139746 
C 92.093829 164.139746 89.890861 165.052245 88.266831 166.676276 
C 86.6428 168.300306 85.730301 170.503274 85.730301 172.8 
C 85.730301 175.096726 86.6428 177.299694 88.266831 178.923724 
C 89.890861 180.547755 92.093829 181.460254 94.390555 181.460254 
z
" clip-path="url(#p3714f1846c)" style="fill: #ffffff; stroke: #000000"/>
    <path d="M 148.794333 166.813083 
C 151.091059 166.813083 153.294027 165.900584 154.918057 164.276553 
C 156.542088 162.652523 157.454587 160.449555 157.454587 158.152829 
C 157.454587 155.856103 156.542088 153.653135 154.918057 152.029105 
C 153.294027 150.405074 151.091059 149.492575 148.794333 149.492575 
C 146.497607 149.492575 144.294639 150.405074 142.670609 152.029105 
C 141.046578 153.653135 140.134079 155.856103 140.134079 158.152829 
C 140.134079 160.449555 141.046578 162.652523 142.670609 164.276553 
C 144.294639 165.900584 146.497607 166.813083 148.794333 166.813083 
z
" clip-path="url(#p3714f1846c)" style="fill: #ffffff; stroke: #000000"/>
    <path d="M 148.794333 196.107425 
C 151.091059 196.107425 153.294027 195.194926 154.918057 193.570895 
C 156.542088 191.946865 157.454587 189.743897 157.454587 187.447171 
C 157.454587 185.150445 156.542088 182.947477 154.918057 181.323447 
C 153.294027 179.699416 151.091059 178.786917 148.794333 178.786917 
C 146.497607 178.786917 144.294639 179.699416 142.670609 181.323447 
C 141.046578 182.947477 140.134079 185.150445 140.134079 187.447171 
C 140.134079 189.743897 141.046578 191.946865 142.670609 193.570895 
C 144.294639 195.194926 146.497607 196.107425 148.794333 196.107425 
z
" clip-path="url(#p3714f1846c)" style="fill: #ffffff; stroke: #000000"/>
    <path d="M 148.794333 181.460254 
C 151.091059 181.460254 153.294027 180.547755 154.918057 178.923724 
C 156.542088 177.299694 157.454587 175.096726 157.454587 172.8 
C 157.454587 170.503274 156.542088 168.300306 154.918057 166.676276 
C 153.294027 165.052245 151.091059 164.139746 148.794333 164.139746 
C 146.497607 164.139746 144.294639 165.052245 142.670609 166.676276 
C 141.046578 168.300306 140.134079 170.503274 140.134079 172.8 
C 140.134079 175.096726 141.046578 177.299694 142.670609 178.923724 
C 144.294639 180.547755 146.497607 181.460254 148.794333 181.460254 
z
" clip-path="url(#p3714f1846c)" style="fill: #ffffff; stroke: #000000"/>
    <path d="M 148.794333 188.78384 
C 151.091059 188.78384 153.294027 187.871341 154.918057 186.24731 
C 156.542088 184.623279 157.454587 182.420312 157.454587 180.123586 
C 157.454587 177.826859 156.542088 175.623892 154.918057 173.999861 
C 153.294027 172.37583 151.091059 171.463331 148.794333 171.463331 
C 146.497607 171.463331 144.294639 172.37583 142.670609 173.999861 
C 141.046578 175.623892 140.134079 177.826859 140.134079 180.123586 
C 140.134079 182.420312 141.046578 184.623279 142.670609 186.24731 
C 144.294639 187.871341 146.497607 188.78384 148.794333 188.78384 
z
" clip-path="url(#p3714f1846c)" style="fill: #ffffff; stroke: #000000"/>
    <path d="M 148.794333 174.136669 
C 151.091059 174.136669 153.294027 173.22417 154.918057 171.600139 
C 156.542088 169.976108 157.454587 167.773141 157.454587 165.476414 
C 157.454587 163.179688 156.542088 160.976721 154.918057 159.35269 
C 153.294027 157.728659 151.091059 156.81616 148.794333 156.81616 
C 146.497607 156.81616 144.294639 157.728659 142.670609 159.35269 
C 141.046578 160.976721 140.134079 163.179688 140.134079 165.476414 
C 140.134079 167.773141 141.046578 169.976108 142.670609 171.600139 
C 144.294639 173.22417 146.497607 174.136669 148.794333 174.136669 
z
" clip-path="url(#p3714f1846c)" style="fill: #ffffff; stroke: #000000"/>
    <path d="M 203.198111 181.460254 
C 205.494837 181.460254 207.697805 180.547755 209.321835 178.923724 
C 210.945866 177.299694 211.858365 175.096726 211.858365 172.8 
C 211.858365 170.503274 210.945866 168.300306 209.321835 166.676276 
C 207.697805 165.052245 205.494837 164.139746 203.198111 164.139746 
C 200.901385 164.139746 198.698417 165.052245 197.074387 166.676276 
C 195.450356 168.300306 194.537857 170.503274 194.537857 172.8 
C 194.537857 175.096726 195.450356 177.299694 197.074387 178.923724 
C 198.698417 180.547755 200.901385 181.460254 203.198111 181.460254 
z
" clip-path="url(#p3714f1846c)" style="fill: #ffffff; stroke: #000000"/>
    <path d="M 203.198111 174.136669 
C 205.494837 174.136669 207.697805 173.22417 209.321835 171.600139 
C 210.945866 169.976108 211.858365 167.773141 211.858365 165.476414 
C 211.858365 163.179688 210.945866 160.976721 209.321835 159.35269 
C 207.697805 157.728659 205.494837 156.81616 203.198111 156.81616 
C 200.901385 156.81616 198.698417 157.728659 197.074387 159.35269 
C 195.450356 160.976721 194.537857 163.179688 194.537857 165.476414 
C 194.537857 167.773141 195.450356 169.976108 197.074387 171.600139 
C 198.698417 173.22417 200.901385 174.136669 203.198111 174.136669 
z
" clip-path="url(#p3714f1846c)" style="fill: #ffffff; stroke: #000000"/>
    <path d="M 203.198111 188.78384 
C 205.494837 188.78384 207.697805 187.871341 209.321835 186.24731 
C 210.945866 184.623279 211.858365 182.420312 211.858365 180.123586 
C 211.858365 177.826859 210.945866 175.623892 209.321835 173.999861 
C 207.697805 172.37583 205.494837 171.463331 203.198111 171.463331 
C 200.901385 171.463331 198.698417 172.37583 197.074387 173.999861 
C 195.450356 175.623892 194.537857 177.826859 194.537857 180.123586 
C 194.537857 182.420312 195.450356 184.623279 197.074387 186.24731 
C 198.698417 187.871341 200.901385 188.78384 203.198111 188.78384 
z
" clip-path="url(#p3714f1846c)" style="fill: #ffffff; stroke: #000000"/>
    <path d="M 257.601889 181.460254 
C 259.898615 181.460254 262.101583 180.547755 263.725613 178.923724 
C 265.349644 177.299694 266.262143 175.096726 266.262143 172.8 
C 266.262143 170.503274 265.349644 168.300306 263.725613 166.676276 
C 262.101583 165.052245 259.898615 164.139746 257.601889 164.139746 
C 255.305163 164.139746 253.102195 165.052245 251.478165 166.676276 
C 249.854134 168.300306 248.941635 170.503274 248.941635 172.8 
C 248.941635 175.096726 249.854134 177.299694 251.478165 178.923724 
C 253.102195 180.547755 255.305163 181.460254 257.601889 181.460254 
z
" clip-path="url(#p3714f1846c)" style="fill: #ffffff; stroke: #000000"/>
    <path d="M 312.005667 181.460254 
C 314.302393 181.460254 316.505361 180.547755 318.129391 178.923724 
C 319.753422 177.299694 320.665921 175.096726 320.665921 172.8 
C 320.665921 170.503274 319.753422 168.300306 318.129391 166.676276 
C 316.505361 165.052245 314.302393 164.139746 312.005667 164.139746 
C 309.708941 164.139746 307.505973 165.052245 305.881943 166.676276 
C 304.257912 168.300306 303.345413 170.503274 303.345413 172.8 
C 303.345413 175.096726 304.257912 177.299694 305.881943 178.923724 
C 307.505973 180.547755 309.708941 181.460254 312.005667 181.460254 
z
" clip-path="url(#p3714f1846c)" style="fill: #ffffff; stroke: #000000"/>
    <path d="M 366.409445 181.460254 
C 368.706171 181.460254 370.909139 180.547755 372.533169 178.923724 
C 374.1572 177.299694 375.069699 175.096726 375.069699 172.8 
C 375.069699 170.503274 374.1572 168.300306 372.533169 166.676276 
C 370.909139 165.052245 368.706171 164.139746 366.409445 164.139746 
C 364.112719 164.139746 361.909751 165.052245 360.285721 166.676276 
C 358.66169 168.300306 357.749191 170.503274 357.749191 172.8 
C 357.749191 175.096726 358.66169 177.299694 360.285721 178.923724 
C 361.909751 180.547755 364.112719 181.460254 366.409445 181.460254 
z
" clip-path="url(#p3714f1846c)" style="fill: #ffffff; stroke: #000000"/>
    <path d="M 420.813223 181.460254 
C 423.109949 181.460254 425.312917 180.547755 426.936947 178.923724 
C 428.560978 177.299694 429.473477 175.096726 429.473477 172.8 
C 429.473477 170.503274 428.560978 168.300306 426.936947 166.676276 
C 425.312917 165.052245 423.109949 164.139746 420.813223 164.139746 
C 418.516497 164.139746 416.313529 165.052245 414.689499 166.676276 
C 413.065468 168.300306 412.152969 170.503274 412.152969 172.8 
C 412.152969 175.096726 413.065468 177.299694 414.689499 178.923724 
C 416.313529 180.547755 418.516497 181.460254 420.813223 181.460254 
z
" clip-path="url(#p3714f1846c)" style="fill: #0000ff; stroke: #000000"/>
   </g>
  </g>
 </g>
 <defs>
  <clipPath id="p3714f1846c">
   <rect x="0" y="0" width="460.8" height="345.6"/>
  </clipPath>
 </defs>
</svg>
