<?xml version="1.0" encoding="utf-8" standalone="no"?>
<!DOCTYPE svg PUBLIC "-//W3C//DTD SVG 1.1//EN"
  "http://www.w3.org/Graphics/SVG/1.1/DTD/svg11.dtd">
<svg xmlns:xlink="http://www.w3.org/1999/xlink" width="460.8pt" height="345.6pt" viewBox="0 0 460.8 345.6" xmlns="http://www.w3.org/2000/svg" version="1.1">
 <metadata>
  <rdf:RDF xmlns:dc="http://purl.org/dc/elements/1.1/" xmlns:cc="http://creativecommons.org/ns#" xmlns:rdf="http://www.w3.org/1999/02/22-rdf-syntax-ns#">
   <cc:Work>
    <dc:type rdf:resource="http://purl.org/dc/dcmitype/StillImage"/>
    <dc:date>2025-11-06T01:51:38.822803</dc:date>
    <dc:format>image/svg+xml</dc:format>
    <dc:creator>
     <cc:Agent>
      <dc:title>Matplotlib v3.10.5, https://matplotlib.org/</dc:title>
     </cc:Agent>
    </dc:creator>
   </cc:Work>
  </rdf:RDF>
 </metadata>
 <defs>
  <style type="text/css">*{stroke-linejoin: round; stroke-linecap: butt}</style>
 </defs>
 <g id="figure_1">
  <g id="patch_1">
   <path d="M 0 345.6 
L 460.8 345.6 
L 460.8 0 
L 0 0 
z
" style="fill: #ffffff"/>
  </g>
  <g id="axes_1">
   <g id="patch_2">
    <path d="M 43.599314 307.735716 
Q 64.557028 262.054449 85.048531 217.389375 
" clip-path="url(#pdec15b77d9)" style="fill: none; stroke: #4c4c4c; stroke-linecap: round"/>
    <path d="M 84.002795 218.229873 
L 85.048531 217.389375 
L 85.093488 218.730262 
" clip-path="url(#pdec15b77d9)" style="fill: none; stroke: #4c4c4c; stroke-linecap: round"/>
   </g>
   <g id="patch_3">
    <path d="M 47.215974 310.83495 
Q 175.119101 226.353482 302.089326 142.488205 
" clip-path="url(#pdec15b77d9)" style="fill: none; stroke: #4c4c4c; stroke-linecap: round"/>
    <path d="M 300.757346 142.648925 
L 302.089326 142.488205 
L 301.418714 143.65022 
" clip-path="url(#pdec15b77d9)" style="fill: none; stroke: #4c4c4c; stroke-linecap: round"/>
   </g>
   <g id="patch_4">
    <path d="M 47.894356 312.074317 
Q 199.688638 244.204758 350.462262 176.791551 
" clip-path="url(#pdec15b77d9)" style="fill: none; stroke: #4c4c4c; stroke-linecap: round"/>
    <path d="M 349.121873 176.733617 
L 350.462262 176.791551 
L 349.611681 177.829102 
" clip-path="url(#pdec15b77d9)" style="fill: none; stroke: #4c4c4c; stroke-linecap: round"/>
   </g>
   <g id="patch_5">
    <path d="M 48.095958 312.568974 
Q 230.401029 244.204573 411.659252 176.232739 
" clip-path="url(#pdec15b77d9)" style="fill: none; stroke: #4c4c4c; stroke-linecap: round"/>
    <path d="M 410.324982 176.09229 
L 411.659252 176.232739 
L 410.746331 177.215885 
" clip-path="url(#pdec15b77d9)" style="fill: none; stroke: #4c4c4c; stroke-linecap: round"/>
   </g>
   <g id="patch_6">
    <path d="M 46.86413 310.350099 
Q 156.689277 226.355538 265.626346 143.040181 
" clip-path="url(#pdec15b77d9)" style="fill: none; stroke: #4c4c4c; stroke-linecap: round"/>
    <path d="M 264.308662 143.292587 
L 265.626346 143.040181 
L 265.03766 144.245772 
" clip-path="url(#pdec15b77d9)" style="fill: none; stroke: #4c4c4c; stroke-linecap: round"/>
   </g>
   <g id="patch_7">
    <path d="M 48.059312 312.48181 
Q 132.121582 279.90768 215.141352 247.73752 
" clip-path="url(#pdec15b77d9)" style="fill: none; stroke: #4c4c4c; stroke-linecap: round"/>
    <path d="M 213.805629 247.61164 
L 215.141352 247.73752 
L 214.239215 248.73057 
" clip-path="url(#pdec15b77d9)" style="fill: none; stroke: #4c4c4c; stroke-linecap: round"/>
   </g>
   <g id="patch_8">
    <path d="M 42.284914 307.261216 
Q 64.55636 226.353229 86.531082 146.523183 
" clip-path="url(#pdec15b77d9)" style="fill: none; stroke: #4c4c4c; stroke-linecap: round"/>
    <path d="M 85.634122 147.520911 
L 86.531082 146.523183 
L 86.791089 147.839388 
" clip-path="url(#pdec15b77d9)" style="fill: none; stroke: #4c4c4c; stroke-linecap: round"/>
   </g>
   <g id="patch_9">
    <path d="M 46.995908 239.112387 
Q 64.557262 226.352965 81.214117 214.250719 
" clip-path="url(#pdec15b77d9)" style="fill: none; stroke: #4c4c4c; stroke-linecap: round"/>
    <path d="M 79.890628 214.470669 
L 81.214117 214.250719 
L 80.595983 215.44148 
" clip-path="url(#pdec15b77d9)" style="fill: none; stroke: #4c4c4c; stroke-linecap: round"/>
   </g>
   <g id="patch_10">
    <path d="M 48.496914 242.609308 
Q 230.398507 208.502759 411.201216 174.602251 
" clip-path="url(#pdec15b77d9)" style="fill: none; stroke: #4c4c4c; stroke-linecap: round"/>
    <path d="M 409.911196 174.233674 
L 411.201216 174.602251 
L 410.132343 175.413121 
" clip-path="url(#pdec15b77d9)" style="fill: none; stroke: #4c4c4c; stroke-linecap: round"/>
   </g>
   <g id="patch_11">
    <path d="M 48.579298 243.119219 
Q 181.262169 226.353584 312.835826 209.728109 
" clip-path="url(#pdec15b77d9)" style="fill: none; stroke: #4c4c4c; stroke-linecap: round"/>
    <path d="M 311.570075 209.283276 
L 312.835826 209.728109 
L 311.72051 210.47381 
" clip-path="url(#pdec15b77d9)" style="fill: none; stroke: #4c4c4c; stroke-linecap: round"/>
   </g>
   <g id="patch_12">
    <path d="M 42.804525 180.989082 
Q 46.128714 190.650006 49.089135 199.253729 
" clip-path="url(#pdec15b77d9)" style="fill: none; stroke: #4c4c4c; stroke-linecap: round"/>
    <path d="M 49.266052 197.923804 
L 49.089135 199.253729 
L 48.131345 198.314241 
" clip-path="url(#pdec15b77d9)" style="fill: none; stroke: #4c4c4c; stroke-linecap: round"/>
   </g>
   <g id="patch_13">
    <path d="M 48.649123 172.8 
Q 218.117162 172.8 386.467168 172.8 
" clip-path="url(#pdec15b77d9)" style="fill: none; stroke: #4c4c4c; stroke-linecap: round"/>
    <path d="M 385.267168 172.2 
L 386.467168 172.8 
L 385.267168 173.4 
" clip-path="url(#pdec15b77d9)" style="fill: none; stroke: #4c4c4c; stroke-linecap: round"/>
   </g>
   <g id="patch_14">
    <path d="M 48.229704 175.461778 
Q 95.269299 190.651648 141.244956 205.497954 
" clip-path="url(#pdec15b77d9)" style="fill: none; stroke: #4c4c4c; stroke-linecap: round"/>
    <path d="M 140.287394 204.558234 
L 141.244956 205.497954 
L 139.918643 205.700172 
" clip-path="url(#pdec15b77d9)" style="fill: none; stroke: #4c4c4c; stroke-linecap: round"/>
   </g>
   <g id="patch_15">
    <path d="M 48.545182 102.704139 
Q 156.690736 119.24614 263.731111 135.619092 
" clip-path="url(#pdec15b77d9)" style="fill: none; stroke: #4c4c4c; stroke-linecap: round"/>
    <path d="M 262.635629 134.844548 
L 263.731111 135.619092 
L 262.454186 136.030752 
" clip-path="url(#pdec15b77d9)" style="fill: none; stroke: #4c4c4c; stroke-linecap: round"/>
   </g>
   <g id="patch_16">
    <path d="M 42.804525 109.584123 
Q 46.128714 119.245047 49.089135 127.84877 
" clip-path="url(#pdec15b77d9)" style="fill: none; stroke: #4c4c4c; stroke-linecap: round"/>
    <path d="M 49.266052 126.518845 
L 49.089135 127.84877 
L 48.131345 126.909282 
" clip-path="url(#pdec15b77d9)" style="fill: none; stroke: #4c4c4c; stroke-linecap: round"/>
   </g>
   <g id="patch_17">
    <path d="M 48.442647 103.285416 
Q 199.690993 137.098147 349.848238 170.666954 
" clip-path="url(#pdec15b77d9)" style="fill: none; stroke: #4c4c4c; stroke-linecap: round"/>
    <path d="M 348.808049 169.819602 
L 349.848238 170.666954 
L 348.546242 170.990694 
" clip-path="url(#pdec15b77d9)" style="fill: none; stroke: #4c4c4c; stroke-linecap: round"/>
   </g>
   <g id="patch_18">
    <path d="M 45.500057 36.66632 
Q 113.694285 119.245268 181.176601 200.962135 
" clip-path="url(#pdec15b77d9)" style="fill: none; stroke: #4c4c4c; stroke-linecap: round"/>
    <path d="M 180.875138 199.654802 
L 181.176601 200.962135 
L 179.949857 200.418906 
" clip-path="url(#pdec15b77d9)" style="fill: none; stroke: #4c4c4c; stroke-linecap: round"/>
   </g>
   <g id="patch_19">
    <path d="M 55.08925 200.313397 
Q 58.413438 190.652474 61.373859 182.04875 
" clip-path="url(#pdec15b77d9)" style="fill: none; stroke: #4c4c4c; stroke-linecap: round"/>
    <path d="M 60.416069 182.988239 
L 61.373859 182.04875 
L 61.550776 183.378675 
" clip-path="url(#pdec15b77d9)" style="fill: none; stroke: #4c4c4c; stroke-linecap: round"/>
   </g>
   <g id="patch_20">
    <path d="M 60.727371 210.392854 
Q 132.124517 226.354235 202.430562 242.071693 
" clip-path="url(#pdec15b77d9)" style="fill: none; stroke: #4c4c4c; stroke-linecap: round"/>
    <path d="M 201.390373 241.22434 
L 202.430562 242.071693 
L 201.128566 242.395432 
" clip-path="url(#pdec15b77d9)" style="fill: none; stroke: #4c4c4c; stroke-linecap: round"/>
   </g>
   <g id="patch_21">
    <path d="M 60.208134 205.042603 
Q 175.116325 154.949814 288.999634 105.303809 
" clip-path="url(#pdec15b77d9)" style="fill: none; stroke: #4c4c4c; stroke-linecap: round"/>
    <path d="M 287.659845 105.233339 
L 288.999634 105.303809 
L 288.139385 106.333358 
" clip-path="url(#pdec15b77d9)" style="fill: none; stroke: #4c4c4c; stroke-linecap: round"/>
   </g>
   <g id="patch_22">
    <path d="M 60.344036 205.374372 
Q 144.406306 172.800242 227.426076 140.630082 
" clip-path="url(#pdec15b77d9)" style="fill: none; stroke: #4c4c4c; stroke-linecap: round"/>
    <path d="M 226.090353 140.504202 
L 227.426076 140.630082 
L 226.523939 141.623132 
" clip-path="url(#pdec15b77d9)" style="fill: none; stroke: #4c4c4c; stroke-linecap: round"/>
   </g>
   <g id="patch_23">
    <path d="M 60.864022 207.41674 
Q 193.546893 190.651105 325.12055 174.025629 
" clip-path="url(#pdec15b77d9)" style="fill: none; stroke: #4c4c4c; stroke-linecap: round"/>
    <path d="M 323.854799 173.580797 
L 325.12055 174.025629 
L 324.005234 174.77133 
" clip-path="url(#pdec15b77d9)" style="fill: none; stroke: #4c4c4c; stroke-linecap: round"/>
   </g>
   <g id="patch_24">
    <path d="M 60.267744 140.417389 
Q 95.266106 154.947959 129.231892 169.049826 
" clip-path="url(#pdec15b77d9)" style="fill: none; stroke: #4c4c4c; stroke-linecap: round"/>
    <path d="M 128.353681 168.035554 
L 129.231892 169.049826 
L 127.893548 169.143831 
" clip-path="url(#pdec15b77d9)" style="fill: none; stroke: #4c4c4c; stroke-linecap: round"/>
   </g>
   <g id="patch_25">
    <path d="M 73.214916 172.8 
Q 75.027933 172.8 75.722915 172.8 
" clip-path="url(#pdec15b77d9)" style="fill: none; stroke: #4c4c4c; stroke-linecap: round"/>
    <path d="M 74.522915 172.2 
L 75.722915 172.8 
L 74.522915 173.4 
" clip-path="url(#pdec15b77d9)" style="fill: none; stroke: #4c4c4c; stroke-linecap: round"/>
   </g>
   <g id="patch_26">
    <path d="M 79.658698 180.989082 
Q 82.982887 190.650006 85.943307 199.253729 
" clip-path="url(#pdec15b77d9)" style="fill: none; stroke: #4c4c4c; stroke-linecap: round"/>
    <path d="M 86.120224 197.923804 
L 85.943307 199.253729 
L 84.985517 198.314241 
" clip-path="url(#pdec15b77d9)" style="fill: none; stroke: #4c4c4c; stroke-linecap: round"/>
   </g>
   <g id="patch_27">
    <path d="M 85.033827 175.601241 
Q 181.259542 208.501945 276.42735 241.040939 
" clip-path="url(#pdec15b77d9)" style="fill: none; stroke: #4c4c4c; stroke-linecap: round"/>
    <path d="M 275.486001 240.084978 
L 276.42735 241.040939 
L 275.097772 241.220442 
" clip-path="url(#pdec15b77d9)" style="fill: none; stroke: #4c4c4c; stroke-linecap: round"/>
   </g>
   <g id="patch_28">
    <path d="M 79.658698 164.610918 
Q 82.982887 154.949994 85.943307 146.346271 
" clip-path="url(#pdec15b77d9)" style="fill: none; stroke: #4c4c4c; stroke-linecap: round"/>
    <path d="M 84.985517 147.285759 
L 85.943307 146.346271 
L 86.120224 147.676196 
" clip-path="url(#pdec15b77d9)" style="fill: none; stroke: #4c4c4c; stroke-linecap: round"/>
   </g>
   <g id="patch_29">
    <path d="M 97.784364 208.502479 
Q 99.597381 208.502479 100.292363 208.502479 
" clip-path="url(#pdec15b77d9)" style="fill: none; stroke: #4c4c4c; stroke-linecap: round"/>
    <path d="M 99.092363 207.902479 
L 100.292363 208.502479 
L 99.092363 209.102479 
" clip-path="url(#pdec15b77d9)" style="fill: none; stroke: #4c4c4c; stroke-linecap: round"/>
   </g>
   <g id="patch_30">
    <path d="M 97.406277 205.969268 
Q 205.829723 172.800254 313.184043 139.958307 
" clip-path="url(#pdec15b77d9)" style="fill: none; stroke: #4c4c4c; stroke-linecap: round"/>
    <path d="M 311.861016 139.7356 
L 313.184043 139.958307 
L 312.212062 140.883105 
" clip-path="url(#pdec15b77d9)" style="fill: none; stroke: #4c4c4c; stroke-linecap: round"/>
   </g>
   <g id="patch_31">
    <path d="M 90.594531 199.96474 
Q 95.26805 172.799916 99.752003 146.736938 
" clip-path="url(#pdec15b77d9)" style="fill: none; stroke: #4c4c4c; stroke-linecap: round"/>
    <path d="M 98.957228 147.817832 
L 99.752003 146.736938 
L 100.139853 148.021295 
" clip-path="url(#pdec15b77d9)" style="fill: none; stroke: #4c4c4c; stroke-linecap: round"/>
   </g>
   <g id="patch_32">
    <path d="M 97.788488 137.097521 
Q 175.121343 137.097521 251.336165 137.097521 
" clip-path="url(#pdec15b77d9)" style="fill: none; stroke: #4c4c4c; stroke-linecap: round"/>
    <path d="M 250.136165 136.497521 
L 251.336165 137.097521 
L 250.136165 137.697521 
" clip-path="url(#pdec15b77d9)" style="fill: none; stroke: #4c4c4c; stroke-linecap: round"/>
   </g>
   <g id="patch_33">
    <path d="M 104.228146 200.313397 
Q 107.552335 190.652474 110.512756 182.04875 
" clip-path="url(#pdec15b77d9)" style="fill: none; stroke: #4c4c4c; stroke-linecap: round"/>
    <path d="M 109.554966 182.988239 
L 110.512756 182.04875 
L 110.689672 183.378675 
" clip-path="url(#pdec15b77d9)" style="fill: none; stroke: #4c4c4c; stroke-linecap: round"/>
   </g>
   <g id="patch_34">
    <path d="M 116.51287 164.610918 
Q 119.837059 154.949994 122.79748 146.346271 
" clip-path="url(#pdec15b77d9)" style="fill: none; stroke: #4c4c4c; stroke-linecap: round"/>
    <path d="M 121.83969 147.285759 
L 122.79748 146.346271 
L 122.974396 147.676196 
" clip-path="url(#pdec15b77d9)" style="fill: none; stroke: #4c4c4c; stroke-linecap: round"/>
   </g>
   <g id="patch_35">
    <path d="M 116.51287 180.989082 
Q 119.837059 190.650006 122.79748 199.253729 
" clip-path="url(#pdec15b77d9)" style="fill: none; stroke: #4c4c4c; stroke-linecap: round"/>
    <path d="M 122.974396 197.923804 
L 122.79748 199.253729 
L 121.83969 198.314241 
" clip-path="url(#pdec15b77d9)" style="fill: none; stroke: #4c4c4c; stroke-linecap: round"/>
   </g>
   <g id="patch_36">
    <path d="M 133.776266 204.726088 
Q 199.689832 172.799204 264.597189 141.359704 
" clip-path="url(#pdec15b77d9)" style="fill: none; stroke: #4c4c4c; stroke-linecap: round"/>
    <path d="M 263.255654 141.342829 
L 264.597189 141.359704 
L 263.778768 142.422807 
" clip-path="url(#pdec15b77d9)" style="fill: none; stroke: #4c4c4c; stroke-linecap: round"/>
   </g>
   <g id="patch_37">
    <path d="M 128.797594 200.313397 
Q 132.121783 190.652474 135.082204 182.04875 
" clip-path="url(#pdec15b77d9)" style="fill: none; stroke: #4c4c4c; stroke-linecap: round"/>
    <path d="M 134.124414 182.988239 
L 135.082204 182.04875 
L 135.25912 183.378675 
" clip-path="url(#pdec15b77d9)" style="fill: none; stroke: #4c4c4c; stroke-linecap: round"/>
   </g>
   <g id="patch_38">
    <path d="M 134.577053 138.138589 
Q 273.395219 154.948601 411.103459 171.624208 
" clip-path="url(#pdec15b77d9)" style="fill: none; stroke: #4c4c4c; stroke-linecap: round"/>
    <path d="M 409.984291 170.884301 
L 411.103459 171.624208 
L 409.840032 172.075598 
" clip-path="url(#pdec15b77d9)" style="fill: none; stroke: #4c4c4c; stroke-linecap: round"/>
   </g>
   <g id="patch_39">
    <path d="M 133.776266 140.873912 
Q 162.836006 154.949724 190.889537 168.538152 
" clip-path="url(#pdec15b77d9)" style="fill: none; stroke: #4c4c4c; stroke-linecap: round"/>
    <path d="M 190.071116 167.475049 
L 190.889537 168.538152 
L 189.548002 168.555027 
" clip-path="url(#pdec15b77d9)" style="fill: none; stroke: #4c4c4c; stroke-linecap: round"/>
   </g>
   <g id="patch_40">
    <path d="M 141.082318 180.989082 
Q 144.406507 190.650006 147.366928 199.253729 
" clip-path="url(#pdec15b77d9)" style="fill: none; stroke: #4c4c4c; stroke-linecap: round"/>
    <path d="M 147.543844 197.923804 
L 147.366928 199.253729 
L 146.409138 198.314241 
" clip-path="url(#pdec15b77d9)" style="fill: none; stroke: #4c4c4c; stroke-linecap: round"/>
   </g>
   <g id="patch_41">
    <path d="M 146.640211 170.587117 
Q 205.830942 154.948657 263.94073 139.595787 
" clip-path="url(#pdec15b77d9)" style="fill: none; stroke: #4c4c4c; stroke-linecap: round"/>
    <path d="M 262.627276 139.32222 
L 263.94073 139.595787 
L 262.933804 140.48241 
" clip-path="url(#pdec15b77d9)" style="fill: none; stroke: #4c4c4c; stroke-linecap: round"/>
   </g>
   <g id="patch_42">
    <path d="M 141.082318 164.610918 
Q 144.406507 154.949994 147.366928 146.346271 
" clip-path="url(#pdec15b77d9)" style="fill: none; stroke: #4c4c4c; stroke-linecap: round"/>
    <path d="M 146.409138 147.285759 
L 147.366928 146.346271 
L 147.543844 147.676196 
" clip-path="url(#pdec15b77d9)" style="fill: none; stroke: #4c4c4c; stroke-linecap: round"/>
   </g>
   <g id="patch_43">
    <path d="M 152.018152 199.96474 
Q 156.69167 172.799916 161.175623 146.736938 
" clip-path="url(#pdec15b77d9)" style="fill: none; stroke: #4c4c4c; stroke-linecap: round"/>
    <path d="M 160.380848 147.817832 
L 161.175623 146.736938 
L 161.563474 148.021295 
" clip-path="url(#pdec15b77d9)" style="fill: none; stroke: #4c4c4c; stroke-linecap: round"/>
   </g>
   <g id="patch_44">
    <path d="M 159.207985 208.502479 
Q 161.021001 208.502479 161.715984 208.502479 
" clip-path="url(#pdec15b77d9)" style="fill: none; stroke: #4c4c4c; stroke-linecap: round"/>
    <path d="M 160.515984 207.902479 
L 161.715984 208.502479 
L 160.515984 209.102479 
" clip-path="url(#pdec15b77d9)" style="fill: none; stroke: #4c4c4c; stroke-linecap: round"/>
   </g>
   <g id="patch_45">
    <path d="M 159.207985 137.097521 
Q 199.686729 137.097521 239.04744 137.097521 
" clip-path="url(#pdec15b77d9)" style="fill: none; stroke: #4c4c4c; stroke-linecap: round"/>
    <path d="M 237.84744 136.497521 
L 239.04744 137.097521 
L 237.84744 137.697521 
" clip-path="url(#pdec15b77d9)" style="fill: none; stroke: #4c4c4c; stroke-linecap: round"/>
   </g>
   <g id="patch_46">
    <path d="M 169.619896 203.1239 
Q 230.399022 154.949536 290.301962 107.469649 
" clip-path="url(#pdec15b77d9)" style="fill: none; stroke: #4c4c4c; stroke-linecap: round"/>
    <path d="M 288.988845 107.744829 
L 290.301962 107.469649 
L 289.734236 108.68525 
" clip-path="url(#pdec15b77d9)" style="fill: none; stroke: #4c4c4c; stroke-linecap: round"/>
   </g>
   <g id="patch_47">
    <path d="M 164.302876 199.96474 
Q 168.976394 172.799916 173.460347 146.736938 
" clip-path="url(#pdec15b77d9)" style="fill: none; stroke: #4c4c4c; stroke-linecap: round"/>
    <path d="M 172.665572 147.817832 
L 173.460347 146.736938 
L 173.848198 148.021295 
" clip-path="url(#pdec15b77d9)" style="fill: none; stroke: #4c4c4c; stroke-linecap: round"/>
   </g>
   <g id="patch_48">
    <path d="M 171.492709 208.502479 
Q 173.305725 208.502479 174.000708 208.502479 
" clip-path="url(#pdec15b77d9)" style="fill: none; stroke: #4c4c4c; stroke-linecap: round"/>
    <path d="M 172.800708 207.902479 
L 174.000708 208.502479 
L 172.800708 209.102479 
" clip-path="url(#pdec15b77d9)" style="fill: none; stroke: #4c4c4c; stroke-linecap: round"/>
   </g>
   <g id="patch_49">
    <path d="M 171.492709 137.097521 
Q 211.971454 137.097521 251.332164 137.097521 
" clip-path="url(#pdec15b77d9)" style="fill: none; stroke: #4c4c4c; stroke-linecap: round"/>
    <path d="M 250.132164 136.497521 
L 251.332164 137.097521 
L 250.132164 137.697521 
" clip-path="url(#pdec15b77d9)" style="fill: none; stroke: #4c4c4c; stroke-linecap: round"/>
   </g>
   <g id="patch_50">
    <path d="M 183.777433 208.502479 
Q 185.590449 208.502479 186.285432 208.502479 
" clip-path="url(#pdec15b77d9)" style="fill: none; stroke: #4c4c4c; stroke-linecap: round"/>
    <path d="M 185.085432 207.902479 
L 186.285432 208.502479 
L 185.085432 209.102479 
" clip-path="url(#pdec15b77d9)" style="fill: none; stroke: #4c4c4c; stroke-linecap: round"/>
   </g>
   <g id="patch_51">
    <path d="M 183.777433 137.097521 
Q 185.590449 137.097521 186.285432 137.097521 
" clip-path="url(#pdec15b77d9)" style="fill: none; stroke: #4c4c4c; stroke-linecap: round"/>
    <path d="M 185.085432 136.497521 
L 186.285432 137.097521 
L 185.085432 137.697521 
" clip-path="url(#pdec15b77d9)" style="fill: none; stroke: #4c4c4c; stroke-linecap: round"/>
   </g>
   <g id="patch_52">
    <path d="M 193.621932 202.47834 
Q 242.684461 154.949015 290.943973 108.197613 
" clip-path="url(#pdec15b77d9)" style="fill: none; stroke: #4c4c4c; stroke-linecap: round"/>
    <path d="M 289.664608 108.601623 
L 290.943973 108.197613 
L 290.499562 109.463511 
" clip-path="url(#pdec15b77d9)" style="fill: none; stroke: #4c4c4c; stroke-linecap: round"/>
   </g>
   <g id="patch_53">
    <path d="M 192.311657 215.634695 
Q 199.688228 226.353775 206.430981 236.151838 
" clip-path="url(#pdec15b77d9)" style="fill: none; stroke: #4c4c4c; stroke-linecap: round"/>
    <path d="M 206.244965 234.823155 
L 206.430981 236.151838 
L 205.256425 235.50344 
" clip-path="url(#pdec15b77d9)" style="fill: none; stroke: #4c4c4c; stroke-linecap: round"/>
   </g>
   <g id="patch_54">
    <path d="M 190.221214 145.286603 
Q 193.545403 154.947526 196.505824 163.55125 
" clip-path="url(#pdec15b77d9)" style="fill: none; stroke: #4c4c4c; stroke-linecap: round"/>
    <path d="M 196.682741 162.221325 
L 196.505824 163.55125 
L 195.548034 162.611761 
" clip-path="url(#pdec15b77d9)" style="fill: none; stroke: #4c4c4c; stroke-linecap: round"/>
   </g>
   <g id="patch_55">
    <path d="M 208.346881 172.8 
Q 210.159897 172.8 210.85488 172.8 
" clip-path="url(#pdec15b77d9)" style="fill: none; stroke: #4c4c4c; stroke-linecap: round"/>
    <path d="M 209.65488 172.2 
L 210.85488 172.8 
L 209.65488 173.4 
" clip-path="url(#pdec15b77d9)" style="fill: none; stroke: #4c4c4c; stroke-linecap: round"/>
   </g>
   <g id="patch_56">
    <path d="M 206.697321 167.707428 
Q 248.829139 137.096029 290.056457 107.141806 
" clip-path="url(#pdec15b77d9)" style="fill: none; stroke: #4c4c4c; stroke-linecap: round"/>
    <path d="M 288.732968 107.361755 
L 290.056457 107.141806 
L 289.438323 108.332567 
" clip-path="url(#pdec15b77d9)" style="fill: none; stroke: #4c4c4c; stroke-linecap: round"/>
   </g>
   <g id="patch_57">
    <path d="M 201.157048 164.262261 
Q 205.830566 137.097437 210.31452 111.034459 
" clip-path="url(#pdec15b77d9)" style="fill: none; stroke: #4c4c4c; stroke-linecap: round"/>
    <path d="M 209.519744 112.115353 
L 210.31452 111.034459 
L 210.70237 112.318815 
" clip-path="url(#pdec15b77d9)" style="fill: none; stroke: #4c4c4c; stroke-linecap: round"/>
   </g>
   <g id="patch_58">
    <path d="M 201.157048 181.337739 
Q 205.830566 208.502563 210.31452 234.565541 
" clip-path="url(#pdec15b77d9)" style="fill: none; stroke: #4c4c4c; stroke-linecap: round"/>
    <path d="M 210.70237 233.281185 
L 210.31452 234.565541 
L 209.519744 233.484647 
" clip-path="url(#pdec15b77d9)" style="fill: none; stroke: #4c4c4c; stroke-linecap: round"/>
   </g>
   <g id="patch_59">
    <path d="M 220.631605 244.204959 
Q 222.444621 244.204959 223.139604 244.204959 
" clip-path="url(#pdec15b77d9)" style="fill: none; stroke: #4c4c4c; stroke-linecap: round"/>
    <path d="M 221.939604 243.604959 
L 223.139604 244.204959 
L 221.939604 244.804959 
" clip-path="url(#pdec15b77d9)" style="fill: none; stroke: #4c4c4c; stroke-linecap: round"/>
   </g>
   <g id="patch_60">
    <path d="M 220.631605 172.8 
Q 222.444621 172.8 223.139604 172.8 
" clip-path="url(#pdec15b77d9)" style="fill: none; stroke: #4c4c4c; stroke-linecap: round"/>
    <path d="M 221.939604 172.2 
L 223.139604 172.8 
L 221.939604 173.4 
" clip-path="url(#pdec15b77d9)" style="fill: none; stroke: #4c4c4c; stroke-linecap: round"/>
   </g>
   <g id="patch_61">
    <path d="M 220.631605 101.395041 
Q 222.444621 101.395041 223.139604 101.395041 
" clip-path="url(#pdec15b77d9)" style="fill: none; stroke: #4c4c4c; stroke-linecap: round"/>
    <path d="M 221.939604 100.795041 
L 223.139604 101.395041 
L 221.939604 101.995041 
" clip-path="url(#pdec15b77d9)" style="fill: none; stroke: #4c4c4c; stroke-linecap: round"/>
   </g>
   <g id="patch_62">
    <path d="M 232.394468 104.350999 
Q 273.395017 119.24573 313.344724 133.758709 
" clip-path="url(#pdec15b77d9)" style="fill: none; stroke: #4c4c4c; stroke-linecap: round"/>
    <path d="M 312.421713 132.785031 
L 313.344724 133.758709 
L 312.011975 133.912912 
" clip-path="url(#pdec15b77d9)" style="fill: none; stroke: #4c4c4c; stroke-linecap: round"/>
   </g>
   <g id="patch_63">
    <path d="M 224.852042 110.032474 
Q 230.399932 190.650244 235.871063 270.152619 
" clip-path="url(#pdec15b77d9)" style="fill: none; stroke: #4c4c4c; stroke-linecap: round"/>
    <path d="M 236.387261 268.914257 
L 235.871063 270.152619 
L 235.190093 268.996643 
" clip-path="url(#pdec15b77d9)" style="fill: none; stroke: #4c4c4c; stroke-linecap: round"/>
   </g>
   <g id="patch_64">
    <path d="M 231.266769 106.487613 
Q 248.828123 119.247035 265.484978 131.349281 
" clip-path="url(#pdec15b77d9)" style="fill: none; stroke: #4c4c4c; stroke-linecap: round"/>
    <path d="M 264.866844 130.15852 
L 265.484978 131.349281 
L 264.161489 131.129331 
" clip-path="url(#pdec15b77d9)" style="fill: none; stroke: #4c4c4c; stroke-linecap: round"/>
   </g>
   <g id="patch_65">
    <path d="M 225.24475 110.001422 
Q 230.400009 154.948842 235.427871 198.78551 
" clip-path="url(#pdec15b77d9)" style="fill: none; stroke: #4c4c4c; stroke-linecap: round"/>
    <path d="M 235.887225 197.524957 
L 235.427871 198.78551 
L 234.695041 197.661695 
" clip-path="url(#pdec15b77d9)" style="fill: none; stroke: #4c4c4c; stroke-linecap: round"/>
   </g>
   <g id="patch_66">
    <path d="M 230.477229 107.420271 
Q 261.11059 137.096339 290.940934 165.994484 
" clip-path="url(#pdec15b77d9)" style="fill: none; stroke: #4c4c4c; stroke-linecap: round"/>
    <path d="M 290.496523 164.728586 
L 290.940934 165.994484 
L 289.661569 165.590474 
" clip-path="url(#pdec15b77d9)" style="fill: none; stroke: #4c4c4c; stroke-linecap: round"/>
   </g>
   <g id="patch_67">
    <path d="M 230.115076 237.821266 
Q 273.399041 190.648508 315.927122 144.299544 
" clip-path="url(#pdec15b77d9)" style="fill: none; stroke: #4c4c4c; stroke-linecap: round"/>
    <path d="M 314.673727 144.778084 
L 315.927122 144.299544 
L 315.557917 145.589384 
" clip-path="url(#pdec15b77d9)" style="fill: none; stroke: #4c4c4c; stroke-linecap: round"/>
   </g>
   <g id="patch_68">
    <path d="M 231.915721 240.158358 
Q 291.822766 208.502931 350.741296 177.369844 
" clip-path="url(#pdec15b77d9)" style="fill: none; stroke: #4c4c4c; stroke-linecap: round"/>
    <path d="M 349.399994 177.399986 
L 350.741296 177.369844 
L 349.960628 178.460971 
" clip-path="url(#pdec15b77d9)" style="fill: none; stroke: #4c4c4c; stroke-linecap: round"/>
   </g>
   <g id="patch_69">
    <path d="M 225.24475 235.598578 
Q 230.400009 190.651158 235.427871 146.81449 
" clip-path="url(#pdec15b77d9)" style="fill: none; stroke: #4c4c4c; stroke-linecap: round"/>
    <path d="M 234.695041 147.938305 
L 235.427871 146.81449 
L 235.887225 148.075043 
" clip-path="url(#pdec15b77d9)" style="fill: none; stroke: #4c4c4c; stroke-linecap: round"/>
   </g>
   <g id="patch_70">
    <path d="M 225.24475 164.193619 
Q 230.400009 119.246199 235.427871 75.409531 
" clip-path="url(#pdec15b77d9)" style="fill: none; stroke: #4c4c4c; stroke-linecap: round"/>
    <path d="M 234.695041 76.533346 
L 235.427871 75.409531 
L 235.887225 76.670084 
" clip-path="url(#pdec15b77d9)" style="fill: none; stroke: #4c4c4c; stroke-linecap: round"/>
   </g>
   <g id="patch_71">
    <path d="M 238.01122 271.369699 
Q 242.684739 244.204875 247.168692 218.141897 
" clip-path="url(#pdec15b77d9)" style="fill: none; stroke: #4c4c4c; stroke-linecap: round"/>
    <path d="M 246.373917 219.222791 
L 247.168692 218.141897 
L 247.556542 219.426253 
" clip-path="url(#pdec15b77d9)" style="fill: none; stroke: #4c4c4c; stroke-linecap: round"/>
   </g>
   <g id="patch_72">
    <path d="M 245.201053 137.097521 
Q 247.01407 137.097521 247.709052 137.097521 
" clip-path="url(#pdec15b77d9)" style="fill: none; stroke: #4c4c4c; stroke-linecap: round"/>
    <path d="M 246.509052 136.497521 
L 247.709052 137.097521 
L 246.509052 137.697521 
" clip-path="url(#pdec15b77d9)" style="fill: none; stroke: #4c4c4c; stroke-linecap: round"/>
   </g>
   <g id="patch_73">
    <path d="M 250.295944 145.63526 
Q 254.969463 172.800084 259.453416 198.863062 
" clip-path="url(#pdec15b77d9)" style="fill: none; stroke: #4c4c4c; stroke-linecap: round"/>
    <path d="M 259.841266 197.578705 
L 259.453416 198.863062 
L 258.658641 197.782168 
" clip-path="url(#pdec15b77d9)" style="fill: none; stroke: #4c4c4c; stroke-linecap: round"/>
   </g>
   <g id="patch_74">
    <path d="M 250.295944 199.96474 
Q 254.969463 172.799916 259.453416 146.736938 
" clip-path="url(#pdec15b77d9)" style="fill: none; stroke: #4c4c4c; stroke-linecap: round"/>
    <path d="M 258.658641 147.817832 
L 259.453416 146.736938 
L 259.841266 148.021295 
" clip-path="url(#pdec15b77d9)" style="fill: none; stroke: #4c4c4c; stroke-linecap: round"/>
   </g>
   <g id="patch_75">
    <path d="M 262.580668 145.63526 
Q 267.254187 172.800084 271.73814 198.863062 
" clip-path="url(#pdec15b77d9)" style="fill: none; stroke: #4c4c4c; stroke-linecap: round"/>
    <path d="M 272.12599 197.578705 
L 271.73814 198.863062 
L 270.943365 197.782168 
" clip-path="url(#pdec15b77d9)" style="fill: none; stroke: #4c4c4c; stroke-linecap: round"/>
   </g>
   <g id="patch_76">
    <path d="M 262.580668 199.96474 
Q 267.254187 172.799916 271.73814 146.736938 
" clip-path="url(#pdec15b77d9)" style="fill: none; stroke: #4c4c4c; stroke-linecap: round"/>
    <path d="M 270.943365 147.817832 
L 271.73814 146.736938 
L 272.12599 148.021295 
" clip-path="url(#pdec15b77d9)" style="fill: none; stroke: #4c4c4c; stroke-linecap: round"/>
   </g>
   <g id="patch_77">
    <path d="M 276.214283 145.286603 
Q 279.538472 154.947526 282.498893 163.55125 
" clip-path="url(#pdec15b77d9)" style="fill: none; stroke: #4c4c4c; stroke-linecap: round"/>
    <path d="M 282.675809 162.221325 
L 282.498893 163.55125 
L 281.541103 162.611761 
" clip-path="url(#pdec15b77d9)" style="fill: none; stroke: #4c4c4c; stroke-linecap: round"/>
   </g>
   <g id="patch_78">
    <path d="M 274.383646 145.703901 
Q 279.538906 190.651321 284.566767 234.48799 
" clip-path="url(#pdec15b77d9)" style="fill: none; stroke: #4c4c4c; stroke-linecap: round"/>
    <path d="M 285.026121 233.227437 
L 284.566767 234.48799 
L 283.833937 233.364175 
" clip-path="url(#pdec15b77d9)" style="fill: none; stroke: #4c4c4c; stroke-linecap: round"/>
   </g>
   <g id="patch_79">
    <path d="M 274.383646 199.896099 
Q 279.538906 154.948679 284.566767 111.11201 
" clip-path="url(#pdec15b77d9)" style="fill: none; stroke: #4c4c4c; stroke-linecap: round"/>
    <path d="M 283.833937 112.235825 
L 284.566767 111.11201 
L 285.026121 112.372563 
" clip-path="url(#pdec15b77d9)" style="fill: none; stroke: #4c4c4c; stroke-linecap: round"/>
   </g>
   <g id="patch_80">
    <path d="M 291.90085 238.179729 
Q 304.10775 226.354294 315.511634 215.306782 
" clip-path="url(#pdec15b77d9)" style="fill: none; stroke: #4c4c4c; stroke-linecap: round"/>
    <path d="M 314.232269 215.710792 
L 315.511634 215.306782 
L 315.067223 216.572681 
" clip-path="url(#pdec15b77d9)" style="fill: none; stroke: #4c4c4c; stroke-linecap: round"/>
   </g>
   <g id="patch_81">
    <path d="M 290.589449 108.527257 
Q 310.24949 137.095754 329.275713 164.743233 
" clip-path="url(#pdec15b77d9)" style="fill: none; stroke: #4c4c4c; stroke-linecap: round"/>
    <path d="M 329.089697 163.41455 
L 329.275713 164.743233 
L 328.101157 164.094835 
" clip-path="url(#pdec15b77d9)" style="fill: none; stroke: #4c4c4c; stroke-linecap: round"/>
   </g>
   <g id="patch_82">
    <path d="M 286.423185 110.019944 
Q 291.82348 172.798367 297.127953 234.46287 
" clip-path="url(#pdec15b77d9)" style="fill: none; stroke: #4c4c4c; stroke-linecap: round"/>
    <path d="M 297.6229 233.215862 
L 297.127953 234.46287 
L 296.427315 233.318708 
" clip-path="url(#pdec15b77d9)" style="fill: none; stroke: #4c4c4c; stroke-linecap: round"/>
   </g>
   <g id="patch_83">
    <path d="M 287.150117 109.93278 
Q 291.823635 137.097605 296.307588 163.160583 
" clip-path="url(#pdec15b77d9)" style="fill: none; stroke: #4c4c4c; stroke-linecap: round"/>
    <path d="M 296.695438 161.876226 
L 296.307588 163.160583 
L 295.512813 162.079688 
" clip-path="url(#pdec15b77d9)" style="fill: none; stroke: #4c4c4c; stroke-linecap: round"/>
   </g>
   <g id="patch_84">
    <path d="M 287.150117 164.262261 
Q 291.823635 137.097437 296.307588 111.034459 
" clip-path="url(#pdec15b77d9)" style="fill: none; stroke: #4c4c4c; stroke-linecap: round"/>
    <path d="M 295.512813 112.115353 
L 296.307588 111.034459 
L 296.695438 112.318815 
" clip-path="url(#pdec15b77d9)" style="fill: none; stroke: #4c4c4c; stroke-linecap: round"/>
   </g>
   <g id="patch_85">
    <path d="M 300.783731 236.015877 
Q 304.10792 226.354953 307.068341 217.75123 
" clip-path="url(#pdec15b77d9)" style="fill: none; stroke: #4c4c4c; stroke-linecap: round"/>
    <path d="M 306.110551 218.690718 
L 307.068341 217.75123 
L 307.245257 219.081155 
" clip-path="url(#pdec15b77d9)" style="fill: none; stroke: #4c4c4c; stroke-linecap: round"/>
   </g>
   <g id="patch_86">
    <path d="M 300.783731 164.610918 
Q 304.10792 154.949994 307.068341 146.346271 
" clip-path="url(#pdec15b77d9)" style="fill: none; stroke: #4c4c4c; stroke-linecap: round"/>
    <path d="M 306.110551 147.285759 
L 307.068341 146.346271 
L 307.245257 147.676196 
" clip-path="url(#pdec15b77d9)" style="fill: none; stroke: #4c4c4c; stroke-linecap: round"/>
   </g>
   <g id="patch_87">
    <path d="M 311.719565 145.63526 
Q 316.393083 172.800084 320.877036 198.863062 
" clip-path="url(#pdec15b77d9)" style="fill: none; stroke: #4c4c4c; stroke-linecap: round"/>
    <path d="M 321.264886 197.578705 
L 320.877036 198.863062 
L 320.082261 197.782168 
" clip-path="url(#pdec15b77d9)" style="fill: none; stroke: #4c4c4c; stroke-linecap: round"/>
   </g>
   <g id="patch_88">
    <path d="M 311.719565 199.96474 
Q 316.393083 172.799916 320.877036 146.736938 
" clip-path="url(#pdec15b77d9)" style="fill: none; stroke: #4c4c4c; stroke-linecap: round"/>
    <path d="M 320.082261 147.817832 
L 320.877036 146.736938 
L 321.264886 148.021295 
" clip-path="url(#pdec15b77d9)" style="fill: none; stroke: #4c4c4c; stroke-linecap: round"/>
   </g>
   <g id="patch_89">
    <path d="M 325.353179 145.286603 
Q 328.677368 154.947526 331.637789 163.55125 
" clip-path="url(#pdec15b77d9)" style="fill: none; stroke: #4c4c4c; stroke-linecap: round"/>
    <path d="M 331.814706 162.221325 
L 331.637789 163.55125 
L 330.679999 162.611761 
" clip-path="url(#pdec15b77d9)" style="fill: none; stroke: #4c4c4c; stroke-linecap: round"/>
   </g>
   <g id="patch_90">
    <path d="M 330.331852 204.726088 
Q 359.391591 190.650276 387.445122 177.061848 
" clip-path="url(#pdec15b77d9)" style="fill: none; stroke: #4c4c4c; stroke-linecap: round"/>
    <path d="M 386.103587 177.044973 
L 387.445122 177.061848 
L 386.626701 178.124951 
" clip-path="url(#pdec15b77d9)" style="fill: none; stroke: #4c4c4c; stroke-linecap: round"/>
   </g>
   <g id="patch_91">
    <path d="M 343.478846 172.8 
Q 345.291862 172.8 345.986845 172.8 
" clip-path="url(#pdec15b77d9)" style="fill: none; stroke: #4c4c4c; stroke-linecap: round"/>
    <path d="M 344.786845 172.2 
L 345.986845 172.8 
L 344.786845 173.4 
" clip-path="url(#pdec15b77d9)" style="fill: none; stroke: #4c4c4c; stroke-linecap: round"/>
   </g>
   <g id="patch_92">
    <path d="M 355.76357 172.8 
Q 357.576586 172.8 358.271569 172.8 
" clip-path="url(#pdec15b77d9)" style="fill: none; stroke: #4c4c4c; stroke-linecap: round"/>
    <path d="M 357.071569 172.2 
L 358.271569 172.8 
L 357.071569 173.4 
" clip-path="url(#pdec15b77d9)" style="fill: none; stroke: #4c4c4c; stroke-linecap: round"/>
   </g>
   <g id="patch_93">
    <path d="M 362.207351 180.989082 
Q 365.53154 190.650006 368.491961 199.253729 
" clip-path="url(#pdec15b77d9)" style="fill: none; stroke: #4c4c4c; stroke-linecap: round"/>
    <path d="M 368.668878 197.923804 
L 368.491961 199.253729 
L 367.534171 198.314241 
" clip-path="url(#pdec15b77d9)" style="fill: none; stroke: #4c4c4c; stroke-linecap: round"/>
   </g>
   <g id="patch_94">
    <path d="M 362.207351 164.610918 
Q 365.53154 154.949994 368.491961 146.346271 
" clip-path="url(#pdec15b77d9)" style="fill: none; stroke: #4c4c4c; stroke-linecap: round"/>
    <path d="M 367.534171 147.285759 
L 368.491961 146.346271 
L 368.668878 147.676196 
" clip-path="url(#pdec15b77d9)" style="fill: none; stroke: #4c4c4c; stroke-linecap: round"/>
   </g>
   <g id="patch_95">
    <path d="M 376.582518 201.370264 
Q 383.959089 190.651184 390.701842 180.853121 
" clip-path="url(#pdec15b77d9)" style="fill: none; stroke: #4c4c4c; stroke-linecap: round"/>
    <path d="M 389.527287 181.501518 
L 390.701842 180.853121 
L 390.515827 182.181804 
" clip-path="url(#pdec15b77d9)" style="fill: none; stroke: #4c4c4c; stroke-linecap: round"/>
   </g>
   <g id="patch_96">
    <path d="M 374.492075 145.286603 
Q 377.816264 154.947526 380.776685 163.55125 
" clip-path="url(#pdec15b77d9)" style="fill: none; stroke: #4c4c4c; stroke-linecap: round"/>
    <path d="M 380.953602 162.221325 
L 380.776685 163.55125 
L 379.818895 162.611761 
" clip-path="url(#pdec15b77d9)" style="fill: none; stroke: #4c4c4c; stroke-linecap: round"/>
   </g>
   <g id="patch_97">
    <path d="M 392.617742 172.8 
Q 394.430758 172.8 395.125741 172.8 
" clip-path="url(#pdec15b77d9)" style="fill: none; stroke: #4c4c4c; stroke-linecap: round"/>
    <path d="M 393.925741 172.2 
L 395.125741 172.8 
L 393.925741 173.4 
" clip-path="url(#pdec15b77d9)" style="fill: none; stroke: #4c4c4c; stroke-linecap: round"/>
   </g>
   <g id="patch_98">
    <path d="M 404.902466 172.8 
Q 406.715483 172.8 407.410465 172.8 
" clip-path="url(#pdec15b77d9)" style="fill: none; stroke: #4c4c4c; stroke-linecap: round"/>
    <path d="M 406.210465 172.2 
L 407.410465 172.8 
L 406.210465 173.4 
" clip-path="url(#pdec15b77d9)" style="fill: none; stroke: #4c4c4c; stroke-linecap: round"/>
   </g>
   <g id="patch_99">
    <path d="M 417.18719 172.8 
Q 419.000207 172.8 419.695189 172.8 
" clip-path="url(#pdec15b77d9)" style="fill: none; stroke: #4c4c4c; stroke-linecap: round"/>
    <path d="M 418.495189 172.2 
L 419.695189 172.8 
L 418.495189 173.4 
" clip-path="url(#pdec15b77d9)" style="fill: none; stroke: #4c4c4c; stroke-linecap: round"/>
   </g>
   <g id="PathCollection_1">
    <path d="M 39.986777 324.270171 
C 42.283503 324.270171 44.486471 323.357672 46.110501 321.733642 
C 47.734532 320.109611 48.647031 317.906644 48.647031 315.609917 
C 48.647031 313.313191 47.734532 311.110224 46.110501 309.486193 
C 44.486471 307.862162 42.283503 306.949663 39.986777 306.949663 
C 37.690051 306.949663 35.487083 307.862162 33.863053 309.486193 
C 32.239022 311.110224 31.326523 313.313191 31.326523 315.609917 
C 31.326523 317.906644 32.239022 320.109611 33.863053 321.733642 
C 35.487083 323.357672 37.690051 324.270171 39.986777 324.270171 
z
" clip-path="url(#pdec15b77d9)" style="fill: #ffff00; stroke: #000000"/>
    <path d="M 39.986777 252.865213 
C 42.283503 252.865213 44.486471 251.952714 46.110501 250.328683 
C 47.734532 248.704652 48.647031 246.501685 48.647031 244.204959 
C 48.647031 241.908232 47.734532 239.705265 46.110501 238.081234 
C 44.486471 236.457204 42.283503 235.544705 39.986777 235.544705 
C 37.690051 235.544705 35.487083 236.457204 33.863053 238.081234 
C 32.239022 239.705265 31.326523 241.908232 31.326523 244.204959 
C 31.326523 246.501685 32.239022 248.704652 33.863053 250.328683 
C 35.487083 251.952714 37.690051 252.865213 39.986777 252.865213 
z
" clip-path="url(#pdec15b77d9)" style="fill: #ffff00; stroke: #000000"/>
    <path d="M 39.986777 181.460254 
C 42.283503 181.460254 44.486471 180.547755 46.110501 178.923724 
C 47.734532 177.299694 48.647031 175.096726 48.647031 172.8 
C 48.647031 170.503274 47.734532 168.300306 46.110501 166.676276 
C 44.486471 165.052245 42.283503 164.139746 39.986777 164.139746 
C 37.690051 164.139746 35.487083 165.052245 33.863053 166.676276 
C 32.239022 168.300306 31.326523 170.503274 31.326523 172.8 
C 31.326523 175.096726 32.239022 177.299694 33.863053 178.923724 
C 35.487083 180.547755 37.690051 181.460254 39.986777 181.460254 
z
" clip-path="url(#pdec15b77d9)" style="fill: #ffff00; stroke: #000000"/>
    <path d="M 39.986777 110.055295 
C 42.283503 110.055295 44.486471 109.142796 46.110501 107.518766 
C 47.734532 105.894735 48.647031 103.691768 48.647031 101.395041 
C 48.647031 99.098315 47.734532 96.895348 46.110501 95.271317 
C 44.486471 93.647286 42.283503 92.734787 39.986777 92.734787 
C 37.690051 92.734787 35.487083 93.647286 33.863053 95.271317 
C 32.239022 96.895348 31.326523 99.098315 31.326523 101.395041 
C 31.326523 103.691768 32.239022 105.894735 33.863053 107.518766 
C 35.487083 109.142796 37.690051 110.055295 39.986777 110.055295 
z
" clip-path="url(#pdec15b77d9)" style="fill: #ffff00; stroke: #000000"/>
    <path d="M 39.986777 38.650337 
C 42.283503 38.650337 44.486471 37.737838 46.110501 36.113807 
C 47.734532 34.489776 48.647031 32.286809 48.647031 29.990083 
C 48.647031 27.693356 47.734532 25.490389 46.110501 23.866358 
C 44.486471 22.242328 42.283503 21.329829 39.986777 21.329829 
C 37.690051 21.329829 35.487083 22.242328 33.863053 23.866358 
C 32.239022 25.490389 31.326523 27.693356 31.326523 29.990083 
C 31.326523 32.286809 32.239022 34.489776 33.863053 36.113807 
C 35.487083 37.737838 37.690051 38.650337 39.986777 38.650337 
z
" clip-path="url(#pdec15b77d9)" style="fill: #ffffff; stroke: #000000"/>
    <path d="M 52.271501 217.162733 
C 54.568227 217.162733 56.771195 216.250234 58.395225 214.626204 
C 60.019256 213.002173 60.931755 210.799206 60.931755 208.502479 
C 60.931755 206.205753 60.019256 204.002786 58.395225 202.378755 
C 56.771195 200.754724 54.568227 199.842225 52.271501 199.842225 
C 49.974775 199.842225 47.771807 200.754724 46.147777 202.378755 
C 44.523746 204.002786 43.611247 206.205753 43.611247 208.502479 
C 43.611247 210.799206 44.523746 213.002173 46.147777 214.626204 
C 47.771807 216.250234 49.974775 217.162733 52.271501 217.162733 
z
" clip-path="url(#pdec15b77d9)" style="fill: #ffffff; stroke: #000000"/>
    <path d="M 52.271501 145.757775 
C 54.568227 145.757775 56.771195 144.845276 58.395225 143.221245 
C 60.019256 141.597214 60.931755 139.394247 60.931755 137.097521 
C 60.931755 134.800794 60.019256 132.597827 58.395225 130.973796 
C 56.771195 129.349766 54.568227 128.437267 52.271501 128.437267 
C 49.974775 128.437267 47.771807 129.349766 46.147777 130.973796 
C 44.523746 132.597827 43.611247 134.800794 43.611247 137.097521 
C 43.611247 139.394247 44.523746 141.597214 46.147777 143.221245 
C 47.771807 144.845276 49.974775 145.757775 52.271501 145.757775 
z
" clip-path="url(#pdec15b77d9)" style="fill: #ffffff; stroke: #000000"/>
    <path d="M 64.556225 181.460254 
C 66.852951 181.460254 69.055919 180.547755 70.679949 178.923724 
C 72.30398 177.299694 73.216479 175.096726 73.216479 172.8 
C 73.216479 170.503274 72.30398 168.300306 70.679949 166.676276 
C 69.055919 165.052245 66.852951 164.139746 64.556225 164.139746 
C 62.259499 164.139746 60.056531 165.052245 58.432501 166.676276 
C 56.80847 168.300306 55.895971 170.503274 55.895971 172.8 
C 55.895971 175.096726 56.80847 177.299694 58.432501 178.923724 
C 60.056531 180.547755 62.259499 181.460254 64.556225 181.460254 
z
" clip-path="url(#pdec15b77d9)" style="fill: #ffffff; stroke: #000000"/>
    <path d="M 76.840949 181.460254 
C 79.137675 181.460254 81.340643 180.547755 82.964673 178.923724 
C 84.588704 177.299694 85.501203 175.096726 85.501203 172.8 
C 85.501203 170.503274 84.588704 168.300306 82.964673 166.676276 
C 81.340643 165.052245 79.137675 164.139746 76.840949 164.139746 
C 74.544223 164.139746 72.341255 165.052245 70.717225 166.676276 
C 69.093194 168.300306 68.180695 170.503274 68.180695 172.8 
C 68.180695 175.096726 69.093194 177.299694 70.717225 178.923724 
C 72.341255 180.547755 74.544223 181.460254 76.840949 181.460254 
z
" clip-path="url(#pdec15b77d9)" style="fill: #ffffff; stroke: #000000"/>
    <path d="M 89.125673 217.162733 
C 91.422399 217.162733 93.625367 216.250234 95.249398 214.626204 
C 96.873428 213.002173 97.785927 210.799206 97.785927 208.502479 
C 97.785927 206.205753 96.873428 204.002786 95.249398 202.378755 
C 93.625367 200.754724 91.422399 199.842225 89.125673 199.842225 
C 86.828947 199.842225 84.625979 200.754724 83.001949 202.378755 
C 81.377918 204.002786 80.465419 206.205753 80.465419 208.502479 
C 80.465419 210.799206 81.377918 213.002173 83.001949 214.626204 
C 84.625979 216.250234 86.828947 217.162733 89.125673 217.162733 
z
" clip-path="url(#pdec15b77d9)" style="fill: #ffffff; stroke: #000000"/>
    <path d="M 89.125673 145.757775 
C 91.422399 145.757775 93.625367 144.845276 95.249398 143.221245 
C 96.873428 141.597214 97.785927 139.394247 97.785927 137.097521 
C 97.785927 134.800794 96.873428 132.597827 95.249398 130.973796 
C 93.625367 129.349766 91.422399 128.437267 89.125673 128.437267 
C 86.828947 128.437267 84.625979 129.349766 83.001949 130.973796 
C 81.377918 132.597827 80.465419 134.800794 80.465419 137.097521 
C 80.465419 139.394247 81.377918 141.597214 83.001949 143.221245 
C 84.625979 144.845276 86.828947 145.757775 89.125673 145.757775 
z
" clip-path="url(#pdec15b77d9)" style="fill: #ffffff; stroke: #000000"/>
    <path d="M 101.410397 217.162733 
C 103.707123 217.162733 105.910091 216.250234 107.534122 214.626204 
C 109.158152 213.002173 110.070651 210.799206 110.070651 208.502479 
C 110.070651 206.205753 109.158152 204.002786 107.534122 202.378755 
C 105.910091 200.754724 103.707123 199.842225 101.410397 199.842225 
C 99.113671 199.842225 96.910704 200.754724 95.286673 202.378755 
C 93.662642 204.002786 92.750143 206.205753 92.750143 208.502479 
C 92.750143 210.799206 93.662642 213.002173 95.286673 214.626204 
C 96.910704 216.250234 99.113671 217.162733 101.410397 217.162733 
z
" clip-path="url(#pdec15b77d9)" style="fill: #ffffff; stroke: #000000"/>
    <path d="M 101.410397 145.757775 
C 103.707123 145.757775 105.910091 144.845276 107.534122 143.221245 
C 109.158152 141.597214 110.070651 139.394247 110.070651 137.097521 
C 110.070651 134.800794 109.158152 132.597827 107.534122 130.973796 
C 105.910091 129.349766 103.707123 128.437267 101.410397 128.437267 
C 99.113671 128.437267 96.910704 129.349766 95.286673 130.973796 
C 93.662642 132.597827 92.750143 134.800794 92.750143 137.097521 
C 92.750143 139.394247 93.662642 141.597214 95.286673 143.221245 
C 96.910704 144.845276 99.113671 145.757775 101.410397 145.757775 
z
" clip-path="url(#pdec15b77d9)" style="fill: #ffffff; stroke: #000000"/>
    <path d="M 113.695121 181.460254 
C 115.991848 181.460254 118.194815 180.547755 119.818846 178.923724 
C 121.442876 177.299694 122.355375 175.096726 122.355375 172.8 
C 122.355375 170.503274 121.442876 168.300306 119.818846 166.676276 
C 118.194815 165.052245 115.991848 164.139746 113.695121 164.139746 
C 111.398395 164.139746 109.195428 165.052245 107.571397 166.676276 
C 105.947366 168.300306 105.034867 170.503274 105.034867 172.8 
C 105.034867 175.096726 105.947366 177.299694 107.571397 178.923724 
C 109.195428 180.547755 111.398395 181.460254 113.695121 181.460254 
z
" clip-path="url(#pdec15b77d9)" style="fill: #ffffff; stroke: #000000"/>
    <path d="M 125.979845 217.162733 
C 128.276572 217.162733 130.479539 216.250234 132.10357 214.626204 
C 133.7276 213.002173 134.640099 210.799206 134.640099 208.502479 
C 134.640099 206.205753 133.7276 204.002786 132.10357 202.378755 
C 130.479539 200.754724 128.276572 199.842225 125.979845 199.842225 
C 123.683119 199.842225 121.480152 200.754724 119.856121 202.378755 
C 118.23209 204.002786 117.319591 206.205753 117.319591 208.502479 
C 117.319591 210.799206 118.23209 213.002173 119.856121 214.626204 
C 121.480152 216.250234 123.683119 217.162733 125.979845 217.162733 
z
" clip-path="url(#pdec15b77d9)" style="fill: #ffffff; stroke: #000000"/>
    <path d="M 125.979845 145.757775 
C 128.276572 145.757775 130.479539 144.845276 132.10357 143.221245 
C 133.7276 141.597214 134.640099 139.394247 134.640099 137.097521 
C 134.640099 134.800794 133.7276 132.597827 132.10357 130.973796 
C 130.479539 129.349766 128.276572 128.437267 125.979845 128.437267 
C 123.683119 128.437267 121.480152 129.349766 119.856121 130.973796 
C 118.23209 132.597827 117.319591 134.800794 117.319591 137.097521 
C 117.319591 139.394247 118.23209 141.597214 119.856121 143.221245 
C 121.480152 144.845276 123.683119 145.757775 125.979845 145.757775 
z
" clip-path="url(#pdec15b77d9)" style="fill: #ffffff; stroke: #000000"/>
    <path d="M 138.264569 181.460254 
C 140.561296 181.460254 142.764263 180.547755 144.388294 178.923724 
C 146.012324 177.299694 146.924823 175.096726 146.924823 172.8 
C 146.924823 170.503274 146.012324 168.300306 144.388294 166.676276 
C 142.764263 165.052245 140.561296 164.139746 138.264569 164.139746 
C 135.967843 164.139746 133.764876 165.052245 132.140845 166.676276 
C 130.516814 168.300306 129.604315 170.503274 129.604315 172.8 
C 129.604315 175.096726 130.516814 177.299694 132.140845 178.923724 
C 133.764876 180.547755 135.967843 181.460254 138.264569 181.460254 
z
" clip-path="url(#pdec15b77d9)" style="fill: #ffffff; stroke: #000000"/>
    <path d="M 150.549294 217.162733 
C 152.84602 217.162733 155.048987 216.250234 156.673018 214.626204 
C 158.297049 213.002173 159.209548 210.799206 159.209548 208.502479 
C 159.209548 206.205753 158.297049 204.002786 156.673018 202.378755 
C 155.048987 200.754724 152.84602 199.842225 150.549294 199.842225 
C 148.252567 199.842225 146.0496 200.754724 144.425569 202.378755 
C 142.801538 204.002786 141.889039 206.205753 141.889039 208.502479 
C 141.889039 210.799206 142.801538 213.002173 144.425569 214.626204 
C 146.0496 216.250234 148.252567 217.162733 150.549294 217.162733 
z
" clip-path="url(#pdec15b77d9)" style="fill: #ffffff; stroke: #000000"/>
    <path d="M 150.549294 145.757775 
C 152.84602 145.757775 155.048987 144.845276 156.673018 143.221245 
C 158.297049 141.597214 159.209548 139.394247 159.209548 137.097521 
C 159.209548 134.800794 158.297049 132.597827 156.673018 130.973796 
C 155.048987 129.349766 152.84602 128.437267 150.549294 128.437267 
C 148.252567 128.437267 146.0496 129.349766 144.425569 130.973796 
C 142.801538 132.597827 141.889039 134.800794 141.889039 137.097521 
C 141.889039 139.394247 142.801538 141.597214 144.425569 143.221245 
C 146.0496 144.845276 148.252567 145.757775 150.549294 145.757775 
z
" clip-path="url(#pdec15b77d9)" style="fill: #ffffff; stroke: #000000"/>
    <path d="M 162.834018 217.162733 
C 165.130744 217.162733 167.333711 216.250234 168.957742 214.626204 
C 170.581773 213.002173 171.494272 210.799206 171.494272 208.502479 
C 171.494272 206.205753 170.581773 204.002786 168.957742 202.378755 
C 167.333711 200.754724 165.130744 199.842225 162.834018 199.842225 
C 160.537291 199.842225 158.334324 200.754724 156.710293 202.378755 
C 155.086263 204.002786 154.173764 206.205753 154.173764 208.502479 
C 154.173764 210.799206 155.086263 213.002173 156.710293 214.626204 
C 158.334324 216.250234 160.537291 217.162733 162.834018 217.162733 
z
" clip-path="url(#pdec15b77d9)" style="fill: #ffffff; stroke: #000000"/>
    <path d="M 162.834018 145.757775 
C 165.130744 145.757775 167.333711 144.845276 168.957742 143.221245 
C 170.581773 141.597214 171.494272 139.394247 171.494272 137.097521 
C 171.494272 134.800794 170.581773 132.597827 168.957742 130.973796 
C 167.333711 129.349766 165.130744 128.437267 162.834018 128.437267 
C 160.537291 128.437267 158.334324 129.349766 156.710293 130.973796 
C 155.086263 132.597827 154.173764 134.800794 154.173764 137.097521 
C 154.173764 139.394247 155.086263 141.597214 156.710293 143.221245 
C 158.334324 144.845276 160.537291 145.757775 162.834018 145.757775 
z
" clip-path="url(#pdec15b77d9)" style="fill: #ffffff; stroke: #000000"/>
    <path d="M 175.118742 217.162733 
C 177.415468 217.162733 179.618435 216.250234 181.242466 214.626204 
C 182.866497 213.002173 183.778996 210.799206 183.778996 208.502479 
C 183.778996 206.205753 182.866497 204.002786 181.242466 202.378755 
C 179.618435 200.754724 177.415468 199.842225 175.118742 199.842225 
C 172.822015 199.842225 170.619048 200.754724 168.995017 202.378755 
C 167.370987 204.002786 166.458488 206.205753 166.458488 208.502479 
C 166.458488 210.799206 167.370987 213.002173 168.995017 214.626204 
C 170.619048 216.250234 172.822015 217.162733 175.118742 217.162733 
z
" clip-path="url(#pdec15b77d9)" style="fill: #ffffff; stroke: #000000"/>
    <path d="M 175.118742 145.757775 
C 177.415468 145.757775 179.618435 144.845276 181.242466 143.221245 
C 182.866497 141.597214 183.778996 139.394247 183.778996 137.097521 
C 183.778996 134.800794 182.866497 132.597827 181.242466 130.973796 
C 179.618435 129.349766 177.415468 128.437267 175.118742 128.437267 
C 172.822015 128.437267 170.619048 129.349766 168.995017 130.973796 
C 167.370987 132.597827 166.458488 134.800794 166.458488 137.097521 
C 166.458488 139.394247 167.370987 141.597214 168.995017 143.221245 
C 170.619048 144.845276 172.822015 145.757775 175.118742 145.757775 
z
" clip-path="url(#pdec15b77d9)" style="fill: #ffffff; stroke: #000000"/>
    <path d="M 187.403466 217.162733 
C 189.700192 217.162733 191.903159 216.250234 193.52719 214.626204 
C 195.151221 213.002173 196.06372 210.799206 196.06372 208.502479 
C 196.06372 206.205753 195.151221 204.002786 193.52719 202.378755 
C 191.903159 200.754724 189.700192 199.842225 187.403466 199.842225 
C 185.10674 199.842225 182.903772 200.754724 181.279741 202.378755 
C 179.655711 204.002786 178.743212 206.205753 178.743212 208.502479 
C 178.743212 210.799206 179.655711 213.002173 181.279741 214.626204 
C 182.903772 216.250234 185.10674 217.162733 187.403466 217.162733 
z
" clip-path="url(#pdec15b77d9)" style="fill: #ffffff; stroke: #000000"/>
    <path d="M 187.403466 145.757775 
C 189.700192 145.757775 191.903159 144.845276 193.52719 143.221245 
C 195.151221 141.597214 196.06372 139.394247 196.06372 137.097521 
C 196.06372 134.800794 195.151221 132.597827 193.52719 130.973796 
C 191.903159 129.349766 189.700192 128.437267 187.403466 128.437267 
C 185.10674 128.437267 182.903772 129.349766 181.279741 130.973796 
C 179.655711 132.597827 178.743212 134.800794 178.743212 137.097521 
C 178.743212 139.394247 179.655711 141.597214 181.279741 143.221245 
C 182.903772 144.845276 185.10674 145.757775 187.403466 145.757775 
z
" clip-path="url(#pdec15b77d9)" style="fill: #ffffff; stroke: #000000"/>
    <path d="M 199.68819 181.460254 
C 201.984916 181.460254 204.187883 180.547755 205.811914 178.923724 
C 207.435945 177.299694 208.348444 175.096726 208.348444 172.8 
C 208.348444 170.503274 207.435945 168.300306 205.811914 166.676276 
C 204.187883 165.052245 201.984916 164.139746 199.68819 164.139746 
C 197.391464 164.139746 195.188496 165.052245 193.564465 166.676276 
C 191.940435 168.300306 191.027936 170.503274 191.027936 172.8 
C 191.027936 175.096726 191.940435 177.299694 193.564465 178.923724 
C 195.188496 180.547755 197.391464 181.460254 199.68819 181.460254 
z
" clip-path="url(#pdec15b77d9)" style="fill: #ffffff; stroke: #000000"/>
    <path d="M 211.972914 252.865213 
C 214.26964 252.865213 216.472608 251.952714 218.096638 250.328683 
C 219.720669 248.704652 220.633168 246.501685 220.633168 244.204959 
C 220.633168 241.908232 219.720669 239.705265 218.096638 238.081234 
C 216.472608 236.457204 214.26964 235.544705 211.972914 235.544705 
C 209.676188 235.544705 207.47322 236.457204 205.84919 238.081234 
C 204.225159 239.705265 203.31266 241.908232 203.31266 244.204959 
C 203.31266 246.501685 204.225159 248.704652 205.84919 250.328683 
C 207.47322 251.952714 209.676188 252.865213 211.972914 252.865213 
z
" clip-path="url(#pdec15b77d9)" style="fill: #ffffff; stroke: #000000"/>
    <path d="M 211.972914 181.460254 
C 214.26964 181.460254 216.472608 180.547755 218.096638 178.923724 
C 219.720669 177.299694 220.633168 175.096726 220.633168 172.8 
C 220.633168 170.503274 219.720669 168.300306 218.096638 166.676276 
C 216.472608 165.052245 214.26964 164.139746 211.972914 164.139746 
C 209.676188 164.139746 207.47322 165.052245 205.84919 166.676276 
C 204.225159 168.300306 203.31266 170.503274 203.31266 172.8 
C 203.31266 175.096726 204.225159 177.299694 205.84919 178.923724 
C 207.47322 180.547755 209.676188 181.460254 211.972914 181.460254 
z
" clip-path="url(#pdec15b77d9)" style="fill: #ffffff; stroke: #000000"/>
    <path d="M 211.972914 110.055295 
C 214.26964 110.055295 216.472608 109.142796 218.096638 107.518766 
C 219.720669 105.894735 220.633168 103.691768 220.633168 101.395041 
C 220.633168 99.098315 219.720669 96.895348 218.096638 95.271317 
C 216.472608 93.647286 214.26964 92.734787 211.972914 92.734787 
C 209.676188 92.734787 207.47322 93.647286 205.84919 95.271317 
C 204.225159 96.895348 203.31266 99.098315 203.31266 101.395041 
C 203.31266 103.691768 204.225159 105.894735 205.84919 107.518766 
C 207.47322 109.142796 209.676188 110.055295 211.972914 110.055295 
z
" clip-path="url(#pdec15b77d9)" style="fill: #ffffff; stroke: #000000"/>
    <path d="M 224.257638 110.055295 
C 226.554364 110.055295 228.757332 109.142796 230.381362 107.518766 
C 232.005393 105.894735 232.917892 103.691768 232.917892 101.395041 
C 232.917892 99.098315 232.005393 96.895348 230.381362 95.271317 
C 228.757332 93.647286 226.554364 92.734787 224.257638 92.734787 
C 221.960912 92.734787 219.757944 93.647286 218.133914 95.271317 
C 216.509883 96.895348 215.597384 99.098315 215.597384 101.395041 
C 215.597384 103.691768 216.509883 105.894735 218.133914 107.518766 
C 219.757944 109.142796 221.960912 110.055295 224.257638 110.055295 
z
" clip-path="url(#pdec15b77d9)" style="fill: #ffffff; stroke: #000000"/>
    <path d="M 224.257638 252.865213 
C 226.554364 252.865213 228.757332 251.952714 230.381362 250.328683 
C 232.005393 248.704652 232.917892 246.501685 232.917892 244.204959 
C 232.917892 241.908232 232.005393 239.705265 230.381362 238.081234 
C 228.757332 236.457204 226.554364 235.544705 224.257638 235.544705 
C 221.960912 235.544705 219.757944 236.457204 218.133914 238.081234 
C 216.509883 239.705265 215.597384 241.908232 215.597384 244.204959 
C 215.597384 246.501685 216.509883 248.704652 218.133914 250.328683 
C 219.757944 251.952714 221.960912 252.865213 224.257638 252.865213 
z
" clip-path="url(#pdec15b77d9)" style="fill: #ffffff; stroke: #000000"/>
    <path d="M 224.257638 181.460254 
C 226.554364 181.460254 228.757332 180.547755 230.381362 178.923724 
C 232.005393 177.299694 232.917892 175.096726 232.917892 172.8 
C 232.917892 170.503274 232.005393 168.300306 230.381362 166.676276 
C 228.757332 165.052245 226.554364 164.139746 224.257638 164.139746 
C 221.960912 164.139746 219.757944 165.052245 218.133914 166.676276 
C 216.509883 168.300306 215.597384 170.503274 215.597384 172.8 
C 215.597384 175.096726 216.509883 177.299694 218.133914 178.923724 
C 219.757944 180.547755 221.960912 181.460254 224.257638 181.460254 
z
" clip-path="url(#pdec15b77d9)" style="fill: #ffffff; stroke: #000000"/>
    <path d="M 236.542362 288.567692 
C 238.839088 288.567692 241.042056 287.655193 242.666086 286.031162 
C 244.290117 284.407132 245.202616 282.204164 245.202616 279.907438 
C 245.202616 277.610712 244.290117 275.407744 242.666086 273.783714 
C 241.042056 272.159683 238.839088 271.247184 236.542362 271.247184 
C 234.245636 271.247184 232.042668 272.159683 230.418638 273.783714 
C 228.794607 275.407744 227.882108 277.610712 227.882108 279.907438 
C 227.882108 282.204164 228.794607 284.407132 230.418638 286.031162 
C 232.042668 287.655193 234.245636 288.567692 236.542362 288.567692 
z
" clip-path="url(#pdec15b77d9)" style="fill: #ffffff; stroke: #000000"/>
    <path d="M 236.542362 74.352816 
C 238.839088 74.352816 241.042056 73.440317 242.666086 71.816286 
C 244.290117 70.192256 245.202616 67.989288 245.202616 65.692562 
C 245.202616 63.395836 244.290117 61.192868 242.666086 59.568838 
C 241.042056 57.944807 238.839088 57.032308 236.542362 57.032308 
C 234.245636 57.032308 232.042668 57.944807 230.418638 59.568838 
C 228.794607 61.192868 227.882108 63.395836 227.882108 65.692562 
C 227.882108 67.989288 228.794607 70.192256 230.418638 71.816286 
C 232.042668 73.440317 234.245636 74.352816 236.542362 74.352816 
z
" clip-path="url(#pdec15b77d9)" style="fill: #ffffff; stroke: #000000"/>
    <path d="M 236.542362 145.757775 
C 238.839088 145.757775 241.042056 144.845276 242.666086 143.221245 
C 244.290117 141.597214 245.202616 139.394247 245.202616 137.097521 
C 245.202616 134.800794 244.290117 132.597827 242.666086 130.973796 
C 241.042056 129.349766 238.839088 128.437267 236.542362 128.437267 
C 234.245636 128.437267 232.042668 129.349766 230.418638 130.973796 
C 228.794607 132.597827 227.882108 134.800794 227.882108 137.097521 
C 227.882108 139.394247 228.794607 141.597214 230.418638 143.221245 
C 232.042668 144.845276 234.245636 145.757775 236.542362 145.757775 
z
" clip-path="url(#pdec15b77d9)" style="fill: #ffffff; stroke: #000000"/>
    <path d="M 236.542362 217.162733 
C 238.839088 217.162733 241.042056 216.250234 242.666086 214.626204 
C 244.290117 213.002173 245.202616 210.799206 245.202616 208.502479 
C 245.202616 206.205753 244.290117 204.002786 242.666086 202.378755 
C 241.042056 200.754724 238.839088 199.842225 236.542362 199.842225 
C 234.245636 199.842225 232.042668 200.754724 230.418638 202.378755 
C 228.794607 204.002786 227.882108 206.205753 227.882108 208.502479 
C 227.882108 210.799206 228.794607 213.002173 230.418638 214.626204 
C 232.042668 216.250234 234.245636 217.162733 236.542362 217.162733 
z
" clip-path="url(#pdec15b77d9)" style="fill: #ffffff; stroke: #000000"/>
    <path d="M 248.827086 145.757775 
C 251.123812 145.757775 253.32678 144.845276 254.95081 143.221245 
C 256.574841 141.597214 257.48734 139.394247 257.48734 137.097521 
C 257.48734 134.800794 256.574841 132.597827 254.95081 130.973796 
C 253.32678 129.349766 251.123812 128.437267 248.827086 128.437267 
C 246.53036 128.437267 244.327392 129.349766 242.703362 130.973796 
C 241.079331 132.597827 240.166832 134.800794 240.166832 137.097521 
C 240.166832 139.394247 241.079331 141.597214 242.703362 143.221245 
C 244.327392 144.845276 246.53036 145.757775 248.827086 145.757775 
z
" clip-path="url(#pdec15b77d9)" style="fill: #ffffff; stroke: #000000"/>
    <path d="M 248.827086 217.162733 
C 251.123812 217.162733 253.32678 216.250234 254.95081 214.626204 
C 256.574841 213.002173 257.48734 210.799206 257.48734 208.502479 
C 257.48734 206.205753 256.574841 204.002786 254.95081 202.378755 
C 253.32678 200.754724 251.123812 199.842225 248.827086 199.842225 
C 246.53036 199.842225 244.327392 200.754724 242.703362 202.378755 
C 241.079331 204.002786 240.166832 206.205753 240.166832 208.502479 
C 240.166832 210.799206 241.079331 213.002173 242.703362 214.626204 
C 244.327392 216.250234 246.53036 217.162733 248.827086 217.162733 
z
" clip-path="url(#pdec15b77d9)" style="fill: #ffffff; stroke: #000000"/>
    <path d="M 261.11181 145.757775 
C 263.408536 145.757775 265.611504 144.845276 267.235535 143.221245 
C 268.859565 141.597214 269.772064 139.394247 269.772064 137.097521 
C 269.772064 134.800794 268.859565 132.597827 267.235535 130.973796 
C 265.611504 129.349766 263.408536 128.437267 261.11181 128.437267 
C 258.815084 128.437267 256.612117 129.349766 254.988086 130.973796 
C 253.364055 132.597827 252.451556 134.800794 252.451556 137.097521 
C 252.451556 139.394247 253.364055 141.597214 254.988086 143.221245 
C 256.612117 144.845276 258.815084 145.757775 261.11181 145.757775 
z
" clip-path="url(#pdec15b77d9)" style="fill: #ffffff; stroke: #000000"/>
    <path d="M 261.11181 217.162733 
C 263.408536 217.162733 265.611504 216.250234 267.235535 214.626204 
C 268.859565 213.002173 269.772064 210.799206 269.772064 208.502479 
C 269.772064 206.205753 268.859565 204.002786 267.235535 202.378755 
C 265.611504 200.754724 263.408536 199.842225 261.11181 199.842225 
C 258.815084 199.842225 256.612117 200.754724 254.988086 202.378755 
C 253.364055 204.002786 252.451556 206.205753 252.451556 208.502479 
C 252.451556 210.799206 253.364055 213.002173 254.988086 214.626204 
C 256.612117 216.250234 258.815084 217.162733 261.11181 217.162733 
z
" clip-path="url(#pdec15b77d9)" style="fill: #ffffff; stroke: #000000"/>
    <path d="M 273.396534 145.757775 
C 275.69326 145.757775 277.896228 144.845276 279.520259 143.221245 
C 281.144289 141.597214 282.056788 139.394247 282.056788 137.097521 
C 282.056788 134.800794 281.144289 132.597827 279.520259 130.973796 
C 277.896228 129.349766 275.69326 128.437267 273.396534 128.437267 
C 271.099808 128.437267 268.896841 129.349766 267.27281 130.973796 
C 265.648779 132.597827 264.73628 134.800794 264.73628 137.097521 
C 264.73628 139.394247 265.648779 141.597214 267.27281 143.221245 
C 268.896841 144.845276 271.099808 145.757775 273.396534 145.757775 
z
" clip-path="url(#pdec15b77d9)" style="fill: #ffffff; stroke: #000000"/>
    <path d="M 273.396534 217.162733 
C 275.69326 217.162733 277.896228 216.250234 279.520259 214.626204 
C 281.144289 213.002173 282.056788 210.799206 282.056788 208.502479 
C 282.056788 206.205753 281.144289 204.002786 279.520259 202.378755 
C 277.896228 200.754724 275.69326 199.842225 273.396534 199.842225 
C 271.099808 199.842225 268.896841 200.754724 267.27281 202.378755 
C 265.648779 204.002786 264.73628 206.205753 264.73628 208.502479 
C 264.73628 210.799206 265.648779 213.002173 267.27281 214.626204 
C 268.896841 216.250234 271.099808 217.162733 273.396534 217.162733 
z
" clip-path="url(#pdec15b77d9)" style="fill: #ffffff; stroke: #000000"/>
    <path d="M 285.681258 252.865213 
C 287.977985 252.865213 290.180952 251.952714 291.804983 250.328683 
C 293.429013 248.704652 294.341512 246.501685 294.341512 244.204959 
C 294.341512 241.908232 293.429013 239.705265 291.804983 238.081234 
C 290.180952 236.457204 287.977985 235.544705 285.681258 235.544705 
C 283.384532 235.544705 281.181565 236.457204 279.557534 238.081234 
C 277.933503 239.705265 277.021004 241.908232 277.021004 244.204959 
C 277.021004 246.501685 277.933503 248.704652 279.557534 250.328683 
C 281.181565 251.952714 283.384532 252.865213 285.681258 252.865213 
z
" clip-path="url(#pdec15b77d9)" style="fill: #ffffff; stroke: #000000"/>
    <path d="M 285.681258 110.055295 
C 287.977985 110.055295 290.180952 109.142796 291.804983 107.518766 
C 293.429013 105.894735 294.341512 103.691768 294.341512 101.395041 
C 294.341512 99.098315 293.429013 96.895348 291.804983 95.271317 
C 290.180952 93.647286 287.977985 92.734787 285.681258 92.734787 
C 283.384532 92.734787 281.181565 93.647286 279.557534 95.271317 
C 277.933503 96.895348 277.021004 99.098315 277.021004 101.395041 
C 277.021004 103.691768 277.933503 105.894735 279.557534 107.518766 
C 281.181565 109.142796 283.384532 110.055295 285.681258 110.055295 
z
" clip-path="url(#pdec15b77d9)" style="fill: #ffffff; stroke: #000000"/>
    <path d="M 285.681258 181.460254 
C 287.977985 181.460254 290.180952 180.547755 291.804983 178.923724 
C 293.429013 177.299694 294.341512 175.096726 294.341512 172.8 
C 294.341512 170.503274 293.429013 168.300306 291.804983 166.676276 
C 290.180952 165.052245 287.977985 164.139746 285.681258 164.139746 
C 283.384532 164.139746 281.181565 165.052245 279.557534 166.676276 
C 277.933503 168.300306 277.021004 170.503274 277.021004 172.8 
C 277.021004 175.096726 277.933503 177.299694 279.557534 178.923724 
C 281.181565 180.547755 283.384532 181.460254 285.681258 181.460254 
z
" clip-path="url(#pdec15b77d9)" style="fill: #ffffff; stroke: #000000"/>
    <path d="M 297.965982 110.055295 
C 300.262709 110.055295 302.465676 109.142796 304.089707 107.518766 
C 305.713737 105.894735 306.626236 103.691768 306.626236 101.395041 
C 306.626236 99.098315 305.713737 96.895348 304.089707 95.271317 
C 302.465676 93.647286 300.262709 92.734787 297.965982 92.734787 
C 295.669256 92.734787 293.466289 93.647286 291.842258 95.271317 
C 290.218227 96.895348 289.305728 99.098315 289.305728 101.395041 
C 289.305728 103.691768 290.218227 105.894735 291.842258 107.518766 
C 293.466289 109.142796 295.669256 110.055295 297.965982 110.055295 
z
" clip-path="url(#pdec15b77d9)" style="fill: #ffffff; stroke: #000000"/>
    <path d="M 297.965982 252.865213 
C 300.262709 252.865213 302.465676 251.952714 304.089707 250.328683 
C 305.713737 248.704652 306.626236 246.501685 306.626236 244.204959 
C 306.626236 241.908232 305.713737 239.705265 304.089707 238.081234 
C 302.465676 236.457204 300.262709 235.544705 297.965982 235.544705 
C 295.669256 235.544705 293.466289 236.457204 291.842258 238.081234 
C 290.218227 239.705265 289.305728 241.908232 289.305728 244.204959 
C 289.305728 246.501685 290.218227 248.704652 291.842258 250.328683 
C 293.466289 251.952714 295.669256 252.865213 297.965982 252.865213 
z
" clip-path="url(#pdec15b77d9)" style="fill: #ffffff; stroke: #000000"/>
    <path d="M 297.965982 181.460254 
C 300.262709 181.460254 302.465676 180.547755 304.089707 178.923724 
C 305.713737 177.299694 306.626236 175.096726 306.626236 172.8 
C 306.626236 170.503274 305.713737 168.300306 304.089707 166.676276 
C 302.465676 165.052245 300.262709 164.139746 297.965982 164.139746 
C 295.669256 164.139746 293.466289 165.052245 291.842258 166.676276 
C 290.218227 168.300306 289.305728 170.503274 289.305728 172.8 
C 289.305728 175.096726 290.218227 177.299694 291.842258 178.923724 
C 293.466289 180.547755 295.669256 181.460254 297.965982 181.460254 
z
" clip-path="url(#pdec15b77d9)" style="fill: #ffffff; stroke: #000000"/>
    <path d="M 310.250706 145.757775 
C 312.547433 145.757775 314.7504 144.845276 316.374431 143.221245 
C 317.998462 141.597214 318.910961 139.394247 318.910961 137.097521 
C 318.910961 134.800794 317.998462 132.597827 316.374431 130.973796 
C 314.7504 129.349766 312.547433 128.437267 310.250706 128.437267 
C 307.95398 128.437267 305.751013 129.349766 304.126982 130.973796 
C 302.502951 132.597827 301.590452 134.800794 301.590452 137.097521 
C 301.590452 139.394247 302.502951 141.597214 304.126982 143.221245 
C 305.751013 144.845276 307.95398 145.757775 310.250706 145.757775 
z
" clip-path="url(#pdec15b77d9)" style="fill: #ffffff; stroke: #000000"/>
    <path d="M 310.250706 217.162733 
C 312.547433 217.162733 314.7504 216.250234 316.374431 214.626204 
C 317.998462 213.002173 318.910961 210.799206 318.910961 208.502479 
C 318.910961 206.205753 317.998462 204.002786 316.374431 202.378755 
C 314.7504 200.754724 312.547433 199.842225 310.250706 199.842225 
C 307.95398 199.842225 305.751013 200.754724 304.126982 202.378755 
C 302.502951 204.002786 301.590452 206.205753 301.590452 208.502479 
C 301.590452 210.799206 302.502951 213.002173 304.126982 214.626204 
C 305.751013 216.250234 307.95398 217.162733 310.250706 217.162733 
z
" clip-path="url(#pdec15b77d9)" style="fill: #ffffff; stroke: #000000"/>
    <path d="M 322.535431 145.757775 
C 324.832157 145.757775 327.035124 144.845276 328.659155 143.221245 
C 330.283186 141.597214 331.195685 139.394247 331.195685 137.097521 
C 331.195685 134.800794 330.283186 132.597827 328.659155 130.973796 
C 327.035124 129.349766 324.832157 128.437267 322.535431 128.437267 
C 320.238704 128.437267 318.035737 129.349766 316.411706 130.973796 
C 314.787676 132.597827 313.875177 134.800794 313.875177 137.097521 
C 313.875177 139.394247 314.787676 141.597214 316.411706 143.221245 
C 318.035737 144.845276 320.238704 145.757775 322.535431 145.757775 
z
" clip-path="url(#pdec15b77d9)" style="fill: #ffffff; stroke: #000000"/>
    <path d="M 322.535431 217.162733 
C 324.832157 217.162733 327.035124 216.250234 328.659155 214.626204 
C 330.283186 213.002173 331.195685 210.799206 331.195685 208.502479 
C 331.195685 206.205753 330.283186 204.002786 328.659155 202.378755 
C 327.035124 200.754724 324.832157 199.842225 322.535431 199.842225 
C 320.238704 199.842225 318.035737 200.754724 316.411706 202.378755 
C 314.787676 204.002786 313.875177 206.205753 313.875177 208.502479 
C 313.875177 210.799206 314.787676 213.002173 316.411706 214.626204 
C 318.035737 216.250234 320.238704 217.162733 322.535431 217.162733 
z
" clip-path="url(#pdec15b77d9)" style="fill: #ffffff; stroke: #000000"/>
    <path d="M 334.820155 181.460254 
C 337.116881 181.460254 339.319848 180.547755 340.943879 178.923724 
C 342.56791 177.299694 343.480409 175.096726 343.480409 172.8 
C 343.480409 170.503274 342.56791 168.300306 340.943879 166.676276 
C 339.319848 165.052245 337.116881 164.139746 334.820155 164.139746 
C 332.523428 164.139746 330.320461 165.052245 328.69643 166.676276 
C 327.0724 168.300306 326.159901 170.503274 326.159901 172.8 
C 326.159901 175.096726 327.0724 177.299694 328.69643 178.923724 
C 330.320461 180.547755 332.523428 181.460254 334.820155 181.460254 
z
" clip-path="url(#pdec15b77d9)" style="fill: #ffffff; stroke: #000000"/>
    <path d="M 347.104879 181.460254 
C 349.401605 181.460254 351.604572 180.547755 353.228603 178.923724 
C 354.852634 177.299694 355.765133 175.096726 355.765133 172.8 
C 355.765133 170.503274 354.852634 168.300306 353.228603 166.676276 
C 351.604572 165.052245 349.401605 164.139746 347.104879 164.139746 
C 344.808152 164.139746 342.605185 165.052245 340.981154 166.676276 
C 339.357124 168.300306 338.444625 170.503274 338.444625 172.8 
C 338.444625 175.096726 339.357124 177.299694 340.981154 178.923724 
C 342.605185 180.547755 344.808152 181.460254 347.104879 181.460254 
z
" clip-path="url(#pdec15b77d9)" style="fill: #ffffff; stroke: #000000"/>
    <path d="M 359.389603 181.460254 
C 361.686329 181.460254 363.889296 180.547755 365.513327 178.923724 
C 367.137358 177.299694 368.049857 175.096726 368.049857 172.8 
C 368.049857 170.503274 367.137358 168.300306 365.513327 166.676276 
C 363.889296 165.052245 361.686329 164.139746 359.389603 164.139746 
C 357.092877 164.139746 354.889909 165.052245 353.265878 166.676276 
C 351.641848 168.300306 350.729349 170.503274 350.729349 172.8 
C 350.729349 175.096726 351.641848 177.299694 353.265878 178.923724 
C 354.889909 180.547755 357.092877 181.460254 359.389603 181.460254 
z
" clip-path="url(#pdec15b77d9)" style="fill: #ffffff; stroke: #000000"/>
    <path d="M 371.674327 217.162733 
C 373.971053 217.162733 376.174021 216.250234 377.798051 214.626204 
C 379.422082 213.002173 380.334581 210.799206 380.334581 208.502479 
C 380.334581 206.205753 379.422082 204.002786 377.798051 202.378755 
C 376.174021 200.754724 373.971053 199.842225 371.674327 199.842225 
C 369.377601 199.842225 367.174633 200.754724 365.550602 202.378755 
C 363.926572 204.002786 363.014073 206.205753 363.014073 208.502479 
C 363.014073 210.799206 363.926572 213.002173 365.550602 214.626204 
C 367.174633 216.250234 369.377601 217.162733 371.674327 217.162733 
z
" clip-path="url(#pdec15b77d9)" style="fill: #ffffff; stroke: #000000"/>
    <path d="M 371.674327 145.757775 
C 373.971053 145.757775 376.174021 144.845276 377.798051 143.221245 
C 379.422082 141.597214 380.334581 139.394247 380.334581 137.097521 
C 380.334581 134.800794 379.422082 132.597827 377.798051 130.973796 
C 376.174021 129.349766 373.971053 128.437267 371.674327 128.437267 
C 369.377601 128.437267 367.174633 129.349766 365.550602 130.973796 
C 363.926572 132.597827 363.014073 134.800794 363.014073 137.097521 
C 363.014073 139.394247 363.926572 141.597214 365.550602 143.221245 
C 367.174633 144.845276 369.377601 145.757775 371.674327 145.757775 
z
" clip-path="url(#pdec15b77d9)" style="fill: #ffffff; stroke: #000000"/>
    <path d="M 383.959051 181.460254 
C 386.255777 181.460254 388.458745 180.547755 390.082775 178.923724 
C 391.706806 177.299694 392.619305 175.096726 392.619305 172.8 
C 392.619305 170.503274 391.706806 168.300306 390.082775 166.676276 
C 388.458745 165.052245 386.255777 164.139746 383.959051 164.139746 
C 381.662325 164.139746 379.459357 165.052245 377.835327 166.676276 
C 376.211296 168.300306 375.298797 170.503274 375.298797 172.8 
C 375.298797 175.096726 376.211296 177.299694 377.835327 178.923724 
C 379.459357 180.547755 381.662325 181.460254 383.959051 181.460254 
z
" clip-path="url(#pdec15b77d9)" style="fill: #ffffff; stroke: #000000"/>
    <path d="M 396.243775 181.460254 
C 398.540501 181.460254 400.743469 180.547755 402.367499 178.923724 
C 403.99153 177.299694 404.904029 175.096726 404.904029 172.8 
C 404.904029 170.503274 403.99153 168.300306 402.367499 166.676276 
C 400.743469 165.052245 398.540501 164.139746 396.243775 164.139746 
C 393.947049 164.139746 391.744081 165.052245 390.120051 166.676276 
C 388.49602 168.300306 387.583521 170.503274 387.583521 172.8 
C 387.583521 175.096726 388.49602 177.299694 390.120051 178.923724 
C 391.744081 180.547755 393.947049 181.460254 396.243775 181.460254 
z
" clip-path="url(#pdec15b77d9)" style="fill: #ffffff; stroke: #000000"/>
    <path d="M 408.528499 181.460254 
C 410.825225 181.460254 413.028193 180.547755 414.652223 178.923724 
C 416.276254 177.299694 417.188753 175.096726 417.188753 172.8 
C 417.188753 170.503274 416.276254 168.300306 414.652223 166.676276 
C 413.028193 165.052245 410.825225 164.139746 408.528499 164.139746 
C 406.231773 164.139746 404.028805 165.052245 402.404775 166.676276 
C 400.780744 168.300306 399.868245 170.503274 399.868245 172.8 
C 399.868245 175.096726 400.780744 177.299694 402.404775 178.923724 
C 404.028805 180.547755 406.231773 181.460254 408.528499 181.460254 
z
" clip-path="url(#pdec15b77d9)" style="fill: #ffffff; stroke: #000000"/>
    <path d="M 420.813223 181.460254 
C 423.109949 181.460254 425.312917 180.547755 426.936947 178.923724 
C 428.560978 177.299694 429.473477 175.096726 429.473477 172.8 
C 429.473477 170.503274 428.560978 168.300306 426.936947 166.676276 
C 425.312917 165.052245 423.109949 164.139746 420.813223 164.139746 
C 418.516497 164.139746 416.313529 165.052245 414.689499 166.676276 
C 413.065468 168.300306 412.152969 170.503274 412.152969 172.8 
C 412.152969 175.096726 413.065468 177.299694 414.689499 178.923724 
C 416.313529 180.547755 418.516497 181.460254 420.813223 181.460254 
z
" clip-path="url(#pdec15b77d9)" style="fill: #0000ff; stroke: #000000"/>
   </g>
  </g>
 </g>
 <defs>
  <clipPath id="pdec15b77d9">
   <rect x="0" y="0" width="460.8" height="345.6"/>
  </clipPath>
 </defs>
</svg>
