<?xml version="1.0" encoding="utf-8" standalone="no"?>
<!DOCTYPE svg PUBLIC "-//W3C//DTD SVG 1.1//EN"
  "http://www.w3.org/Graphics/SVG/1.1/DTD/svg11.dtd">
<svg xmlns:xlink="http://www.w3.org/1999/xlink" width="460.8pt" height="345.6pt" viewBox="0 0 460.8 345.6" xmlns="http://www.w3.org/2000/svg" version="1.1">
 <metadata>
  <rdf:RDF xmlns:dc="http://purl.org/dc/elements/1.1/" xmlns:cc="http://creativecommons.org/ns#" xmlns:rdf="http://www.w3.org/1999/02/22-rdf-syntax-ns#">
   <cc:Work>
    <dc:type rdf:resource="http://purl.org/dc/dcmitype/StillImage"/>
    <dc:date>2025-11-06T13:16:23.059731</dc:date>
    <dc:format>image/svg+xml</dc:format>
    <dc:creator>
     <cc:Agent>
      <dc:title>Matplotlib v3.10.5, https://matplotlib.org/</dc:title>
     </cc:Agent>
    </dc:creator>
   </cc:Work>
  </rdf:RDF>
 </metadata>
 <defs>
  <style type="text/css">*{stroke-linejoin: round; stroke-linecap: butt}</style>
 </defs>
 <g id="figure_1">
  <g id="patch_1">
   <path d="M 0 345.6 
L 460.8 345.6 
L 460.8 0 
L 0 0 
z
" style="fill: #ffffff"/>
  </g>
  <g id="axes_1">
   <g id="patch_2">
    <path d="M 44.96095 279.959737 
Q 50.007665 272.768168 54.412153 266.491773 
" clip-path="url(#p4c77a76687)" style="fill: none; stroke: #4c4c4c; stroke-linecap: round"/>
    <path d="M 53.231708 267.129386 
L 54.412153 266.491773 
L 54.213976 267.818696 
" clip-path="url(#p4c77a76687)" style="fill: none; stroke: #4c4c4c; stroke-linecap: round"/>
   </g>
   <g id="patch_3">
    <path d="M 45.905383 280.722424 
Q 80.074688 244.203979 113.480118 208.501926 
" clip-path="url(#p4c77a76687)" style="fill: none; stroke: #4c4c4c; stroke-linecap: round"/>
    <path d="M 112.22212 208.96823 
L 113.480118 208.501926 
L 113.098363 209.788107 
" clip-path="url(#p4c77a76687)" style="fill: none; stroke: #4c4c4c; stroke-linecap: round"/>
   </g>
   <g id="patch_4">
    <path d="M 47.379223 282.533261 
Q 110.138056 244.205545 171.942723 206.460553 
" clip-path="url(#p4c77a76687)" style="fill: none; stroke: #4c4c4c; stroke-linecap: round"/>
    <path d="M 170.605882 206.573937 
L 171.942723 206.460553 
L 171.231326 207.598056 
" clip-path="url(#p4c77a76687)" style="fill: none; stroke: #4c4c4c; stroke-linecap: round"/>
   </g>
   <g id="patch_5">
    <path d="M 44.96095 294.136131 
Q 50.007665 301.3277 54.412153 307.604095 
" clip-path="url(#p4c77a76687)" style="fill: none; stroke: #4c4c4c; stroke-linecap: round"/>
    <path d="M 54.213976 306.277171 
L 54.412153 307.604095 
L 53.231708 306.966482 
" clip-path="url(#p4c77a76687)" style="fill: none; stroke: #4c4c4c; stroke-linecap: round"/>
   </g>
   <g id="patch_6">
    <path d="M 48.241691 284.433878 
Q 220.378555 229.923871 391.44955 175.751389 
" clip-path="url(#p4c77a76687)" style="fill: none; stroke: #4c4c4c; stroke-linecap: round"/>
    <path d="M 390.124404 175.541654 
L 391.44955 175.751389 
L 390.486674 176.685664 
" clip-path="url(#p4c77a76687)" style="fill: none; stroke: #4c4c4c; stroke-linecap: round"/>
   </g>
   <g id="patch_7">
    <path d="M 48.083878 283.971036 
Q 190.314903 229.923246 331.500809 176.272602 
" clip-path="url(#p4c77a76687)" style="fill: none; stroke: #4c4c4c; stroke-linecap: round"/>
    <path d="M 330.165938 176.137993 
L 331.500809 176.272602 
L 330.5922 177.259733 
" clip-path="url(#p4c77a76687)" style="fill: none; stroke: #4c4c4c; stroke-linecap: round"/>
   </g>
   <g id="patch_8">
    <path d="M 43.655627 222.081799 
Q 60.029233 187.083217 75.929066 153.097325 
" clip-path="url(#p4c77a76687)" style="fill: none; stroke: #4c4c4c; stroke-linecap: round"/>
    <path d="M 74.877093 153.930004 
L 75.929066 153.097325 
L 75.964025 154.43851 
" clip-path="url(#p4c77a76687)" style="fill: none; stroke: #4c4c4c; stroke-linecap: round"/>
   </g>
   <g id="patch_9">
    <path d="M 48.468929 228.197243 
Q 110.137947 215.643193 170.711401 203.312168 
" clip-path="url(#p4c77a76687)" style="fill: none; stroke: #4c4c4c; stroke-linecap: round"/>
    <path d="M 169.415831 202.963603 
L 170.711401 203.312168 
L 169.655207 204.139486 
" clip-path="url(#p4c77a76687)" style="fill: none; stroke: #4c4c4c; stroke-linecap: round"/>
   </g>
   <g id="patch_10">
    <path d="M 47.806787 226.209462 
Q 130.180854 187.08178 211.545025 148.433799 
" clip-path="url(#p4c77a76687)" style="fill: none; stroke: #4c4c4c; stroke-linecap: round"/>
    <path d="M 210.203658 148.406701 
L 211.545025 148.433799 
L 210.718527 149.490634 
" clip-path="url(#p4c77a76687)" style="fill: none; stroke: #4c4c4c; stroke-linecap: round"/>
   </g>
   <g id="patch_11">
    <path d="M 48.538967 174.154097 
Q 130.180719 187.080708 210.718194 199.832474 
" clip-path="url(#p4c77a76687)" style="fill: none; stroke: #4c4c4c; stroke-linecap: round"/>
    <path d="M 209.62679 199.052194 
L 210.718194 199.832474 
L 209.439127 200.23743 
" clip-path="url(#p4c77a76687)" style="fill: none; stroke: #4c4c4c; stroke-linecap: round"/>
   </g>
   <g id="patch_12">
    <path d="M 44.96095 179.888197 
Q 50.007665 187.079766 54.412153 193.356161 
" clip-path="url(#p4c77a76687)" style="fill: none; stroke: #4c4c4c; stroke-linecap: round"/>
    <path d="M 54.213976 192.029237 
L 54.412153 193.356161 
L 53.231708 192.718548 
" clip-path="url(#p4c77a76687)" style="fill: none; stroke: #4c4c4c; stroke-linecap: round"/>
   </g>
   <g id="patch_13">
    <path d="M 48.575667 171.687348 
Q 150.225179 158.519116 250.765922 145.49452 
" clip-path="url(#p4c77a76687)" style="fill: none; stroke: #4c4c4c; stroke-linecap: round"/>
    <path d="M 249.498783 145.053658 
L 250.765922 145.49452 
L 249.652949 146.243714 
" clip-path="url(#p4c77a76687)" style="fill: none; stroke: #4c4c4c; stroke-linecap: round"/>
   </g>
   <g id="patch_14">
    <path d="M 48.649069 172.8 
Q 220.380155 172.8 390.993207 172.8 
" clip-path="url(#p4c77a76687)" style="fill: none; stroke: #4c4c4c; stroke-linecap: round"/>
    <path d="M 389.793207 172.2 
L 390.993207 172.8 
L 389.793207 173.4 
" clip-path="url(#p4c77a76687)" style="fill: none; stroke: #4c4c4c; stroke-linecap: round"/>
   </g>
   <g id="patch_15">
    <path d="M 48.516029 171.280727 
Q 120.160586 158.51904 190.704435 145.953417 
" clip-path="url(#p4c77a76687)" style="fill: none; stroke: #4c4c4c; stroke-linecap: round"/>
    <path d="M 189.417812 145.573153 
L 190.704435 145.953417 
L 189.62825 146.754557 
" clip-path="url(#p4c77a76687)" style="fill: none; stroke: #4c4c4c; stroke-linecap: round"/>
   </g>
   <g id="patch_16">
    <path d="M 44.96095 165.711803 
Q 50.007665 158.520234 54.412153 152.243839 
" clip-path="url(#p4c77a76687)" style="fill: none; stroke: #4c4c4c; stroke-linecap: round"/>
    <path d="M 53.231708 152.881452 
L 54.412153 152.243839 
L 54.213976 153.570763 
" clip-path="url(#p4c77a76687)" style="fill: none; stroke: #4c4c4c; stroke-linecap: round"/>
   </g>
   <g id="patch_17">
    <path d="M 48.468929 117.402757 
Q 180.290733 144.23791 311.016973 170.850037 
" clip-path="url(#p4c77a76687)" style="fill: none; stroke: #4c4c4c; stroke-linecap: round"/>
    <path d="M 309.960778 170.02272 
L 311.016973 170.850037 
L 309.721402 171.198602 
" clip-path="url(#p4c77a76687)" style="fill: none; stroke: #4c4c4c; stroke-linecap: round"/>
   </g>
   <g id="patch_18">
    <path d="M 47.379223 120.190706 
Q 110.138056 158.518422 171.942723 196.263414 
" clip-path="url(#p4c77a76687)" style="fill: none; stroke: #4c4c4c; stroke-linecap: round"/>
    <path d="M 171.231326 195.125911 
L 171.942723 196.263414 
L 170.605882 196.15003 
" clip-path="url(#p4c77a76687)" style="fill: none; stroke: #4c4c4c; stroke-linecap: round"/>
   </g>
   <g id="patch_19">
    <path d="M 44.96095 108.587836 
Q 50.007665 101.396267 54.412153 95.119872 
" clip-path="url(#p4c77a76687)" style="fill: none; stroke: #4c4c4c; stroke-linecap: round"/>
    <path d="M 53.231708 95.757485 
L 54.412153 95.119872 
L 54.213976 96.446796 
" clip-path="url(#p4c77a76687)" style="fill: none; stroke: #4c4c4c; stroke-linecap: round"/>
   </g>
   <g id="patch_20">
    <path d="M 48.575667 116.788685 
Q 150.225179 129.956917 250.765922 142.981513 
" clip-path="url(#p4c77a76687)" style="fill: none; stroke: #4c4c4c; stroke-linecap: round"/>
    <path d="M 249.652949 142.232319 
L 250.765922 142.981513 
L 249.498783 143.422375 
" clip-path="url(#p4c77a76687)" style="fill: none; stroke: #4c4c4c; stroke-linecap: round"/>
   </g>
   <g id="patch_21">
    <path d="M 48.468929 117.402757 
Q 110.137947 129.956807 170.711401 142.287832 
" clip-path="url(#p4c77a76687)" style="fill: none; stroke: #4c4c4c; stroke-linecap: round"/>
    <path d="M 169.655207 141.460514 
L 170.711401 142.287832 
L 169.415831 142.636397 
" clip-path="url(#p4c77a76687)" style="fill: none; stroke: #4c4c4c; stroke-linecap: round"/>
   </g>
   <g id="patch_22">
    <path d="M 41.959442 107.242891 
Q 50.008264 72.834177 57.802431 39.51411 
" clip-path="url(#p4c77a76687)" style="fill: none; stroke: #4c4c4c; stroke-linecap: round"/>
    <path d="M 56.944879 40.545906 
L 57.802431 39.51411 
L 58.113337 40.81923 
" clip-path="url(#p4c77a76687)" style="fill: none; stroke: #4c4c4c; stroke-linecap: round"/>
   </g>
   <g id="patch_23">
    <path d="M 47.947779 119.079361 
Q 140.203769 158.518797 231.431726 197.518749 
" clip-path="url(#p4c77a76687)" style="fill: none; stroke: #4c4c4c; stroke-linecap: round"/>
    <path d="M 230.564176 196.495344 
L 231.431726 197.518749 
L 230.092472 197.598745 
" clip-path="url(#p4c77a76687)" style="fill: none; stroke: #4c4c4c; stroke-linecap: round"/>
   </g>
   <g id="patch_24">
    <path d="M 48.057575 118.812639 
Q 150.224641 158.518476 251.349604 197.819314 
" clip-path="url(#p4c77a76687)" style="fill: none; stroke: #4c4c4c; stroke-linecap: round"/>
    <path d="M 250.448448 196.825373 
L 251.349604 197.819314 
L 250.013758 197.943874 
" clip-path="url(#p4c77a76687)" style="fill: none; stroke: #4c4c4c; stroke-linecap: round"/>
   </g>
   <g id="patch_25">
    <path d="M 46.264438 64.515845 
Q 70.050205 87.112323 93.025398 108.938756 
" clip-path="url(#p4c77a76687)" style="fill: none; stroke: #4c4c4c; stroke-linecap: round"/>
    <path d="M 92.568648 107.677257 
L 93.025398 108.938756 
L 91.742149 108.547257 
" clip-path="url(#p4c77a76687)" style="fill: none; stroke: #4c4c4c; stroke-linecap: round"/>
   </g>
   <g id="patch_26">
    <path d="M 47.256888 63.261115 
Q 150.225502 129.956695 252.255735 196.04446 
" clip-path="url(#p4c77a76687)" style="fill: none; stroke: #4c4c4c; stroke-linecap: round"/>
    <path d="M 251.574746 194.888495 
L 252.255735 196.04446 
L 250.92237 195.895672 
" clip-path="url(#p4c77a76687)" style="fill: none; stroke: #4c4c4c; stroke-linecap: round"/>
   </g>
   <g id="patch_27">
    <path d="M 66.307936 309.646139 
Q 120.160255 258.486436 173.202 208.096778 
" clip-path="url(#p4c77a76687)" style="fill: none; stroke: #4c4c4c; stroke-linecap: round"/>
    <path d="M 171.918751 208.488278 
L 173.202 208.096778 
L 172.74525 209.358277 
" clip-path="url(#p4c77a76687)" style="fill: none; stroke: #4c4c4c; stroke-linecap: round"/>
   </g>
   <g id="patch_28">
    <path d="M 68.018955 312.26172 
Q 230.399716 244.205078 391.749346 176.5806 
" clip-path="url(#p4c77a76687)" style="fill: none; stroke: #4c4c4c; stroke-linecap: round"/>
    <path d="M 390.410695 176.491086 
L 391.749346 176.5806 
L 390.874544 177.597812 
" clip-path="url(#p4c77a76687)" style="fill: none; stroke: #4c4c4c; stroke-linecap: round"/>
   </g>
   <g id="patch_29">
    <path d="M 67.556984 311.319693 
Q 160.247791 258.485933 251.967275 206.205827 
" clip-path="url(#p4c77a76687)" style="fill: none; stroke: #4c4c4c; stroke-linecap: round"/>
    <path d="M 250.62762 206.278804 
L 251.967275 206.205827 
L 251.221864 207.321337 
" clip-path="url(#p4c77a76687)" style="fill: none; stroke: #4c4c4c; stroke-linecap: round"/>
   </g>
   <g id="patch_30">
    <path d="M 68.686755 258.48595 
Q 70.050361 258.48595 70.295934 258.48595 
" clip-path="url(#p4c77a76687)" style="fill: none; stroke: #4c4c4c; stroke-linecap: round"/>
    <path d="M 69.095934 257.88595 
L 70.295934 258.48595 
L 69.095934 259.08595 
" clip-path="url(#p4c77a76687)" style="fill: none; stroke: #4c4c4c; stroke-linecap: round"/>
   </g>
   <g id="patch_31">
    <path d="M 68.686755 201.361983 
Q 70.050361 201.361983 70.295934 201.361983 
" clip-path="url(#p4c77a76687)" style="fill: none; stroke: #4c4c4c; stroke-linecap: round"/>
    <path d="M 69.095934 200.761983 
L 70.295934 201.361983 
L 69.095934 201.961983 
" clip-path="url(#p4c77a76687)" style="fill: none; stroke: #4c4c4c; stroke-linecap: round"/>
   </g>
   <g id="patch_32">
    <path d="M 68.68859 201.361983 
Q 160.247487 201.361983 250.688351 201.361983 
" clip-path="url(#p4c77a76687)" style="fill: none; stroke: #4c4c4c; stroke-linecap: round"/>
    <path d="M 249.488351 200.761983 
L 250.688351 201.361983 
L 249.488351 201.961983 
" clip-path="url(#p4c77a76687)" style="fill: none; stroke: #4c4c4c; stroke-linecap: round"/>
   </g>
   <g id="patch_33">
    <path d="M 65.004448 94.202247 
Q 100.117813 144.238793 134.588952 193.360165 
" clip-path="url(#p4c77a76687)" style="fill: none; stroke: #4c4c4c; stroke-linecap: round"/>
    <path d="M 134.390775 192.033242 
L 134.588952 193.360165 
L 133.408507 192.722553 
" clip-path="url(#p4c77a76687)" style="fill: none; stroke: #4c4c4c; stroke-linecap: round"/>
   </g>
   <g id="patch_34">
    <path d="M 62.896602 95.283084 
Q 70.051484 115.674498 76.836199 135.010936 
" clip-path="url(#p4c77a76687)" style="fill: none; stroke: #4c4c4c; stroke-linecap: round"/>
    <path d="M 77.005054 133.679964 
L 76.836199 135.010936 
L 75.872734 134.077269 
" clip-path="url(#p4c77a76687)" style="fill: none; stroke: #4c4c4c; stroke-linecap: round"/>
   </g>
   <g id="patch_35">
    <path d="M 62.896602 136.068982 
Q 70.051484 115.677568 76.836199 96.34113 
" clip-path="url(#p4c77a76687)" style="fill: none; stroke: #4c4c4c; stroke-linecap: round"/>
    <path d="M 75.872734 97.274797 
L 76.836199 96.34113 
L 77.005054 97.672102 
" clip-path="url(#p4c77a76687)" style="fill: none; stroke: #4c4c4c; stroke-linecap: round"/>
   </g>
   <g id="patch_36">
    <path d="M 87.392816 253.850555 
Q 170.270098 201.36161 252.202843 149.470872 
" clip-path="url(#p4c77a76687)" style="fill: none; stroke: #4c4c4c; stroke-linecap: round"/>
    <path d="M 250.868029 149.606043 
L 252.202843 149.470872 
L 251.510091 150.619826 
" clip-path="url(#p4c77a76687)" style="fill: none; stroke: #4c4c4c; stroke-linecap: round"/>
   </g>
   <g id="patch_37">
    <path d="M 86.351433 252.522172 
Q 110.1372 229.925693 133.112392 208.09926 
" clip-path="url(#p4c77a76687)" style="fill: none; stroke: #4c4c4c; stroke-linecap: round"/>
    <path d="M 131.829143 208.49076 
L 133.112392 208.09926 
L 132.655643 209.360759 
" clip-path="url(#p4c77a76687)" style="fill: none; stroke: #4c4c4c; stroke-linecap: round"/>
   </g>
   <g id="patch_38">
    <path d="M 82.046436 250.052809 
Q 90.095258 215.644095 97.889426 182.324027 
" clip-path="url(#p4c77a76687)" style="fill: none; stroke: #4c4c4c; stroke-linecap: round"/>
    <path d="M 97.031873 183.355823 
L 97.889426 182.324027 
L 98.200331 183.629147 
" clip-path="url(#p4c77a76687)" style="fill: none; stroke: #4c4c4c; stroke-linecap: round"/>
   </g>
   <g id="patch_39">
    <path d="M 88.328685 255.871894 
Q 170.269271 229.924042 251.143987 204.313715 
" clip-path="url(#p4c77a76687)" style="fill: none; stroke: #4c4c4c; stroke-linecap: round"/>
    <path d="M 249.818841 204.10398 
L 251.143987 204.313715 
L 250.181112 205.247991 
" clip-path="url(#p4c77a76687)" style="fill: none; stroke: #4c4c4c; stroke-linecap: round"/>
   </g>
   <g id="patch_40">
    <path d="M 85.047945 251.397753 
Q 90.09466 244.206184 94.499147 237.92979 
" clip-path="url(#p4c77a76687)" style="fill: none; stroke: #4c4c4c; stroke-linecap: round"/>
    <path d="M 93.318702 238.567402 
L 94.499147 237.92979 
L 94.30097 239.256713 
" clip-path="url(#p4c77a76687)" style="fill: none; stroke: #4c4c4c; stroke-linecap: round"/>
   </g>
   <g id="patch_41">
    <path d="M 88.093494 255.220777 
Q 150.225103 229.924337 211.321213 205.049492 
" clip-path="url(#p4c77a76687)" style="fill: none; stroke: #4c4c4c; stroke-linecap: round"/>
    <path d="M 209.983548 204.946289 
L 211.321213 205.049492 
L 210.436052 206.057703 
" clip-path="url(#p4c77a76687)" style="fill: none; stroke: #4c4c4c; stroke-linecap: round"/>
   </g>
   <g id="patch_42">
    <path d="M 88.700892 145.006369 
Q 240.423506 158.519165 391.032494 171.932778 
" clip-path="url(#p4c77a76687)" style="fill: none; stroke: #4c4c4c; stroke-linecap: round"/>
    <path d="M 389.890452 171.22869 
L 391.032494 171.932778 
L 389.783998 172.423959 
" clip-path="url(#p4c77a76687)" style="fill: none; stroke: #4c4c4c; stroke-linecap: round"/>
   </g>
   <g id="patch_43">
    <path d="M 88.730252 144.238017 
Q 100.115756 144.238017 110.383226 144.238017 
" clip-path="url(#p4c77a76687)" style="fill: none; stroke: #4c4c4c; stroke-linecap: round"/>
    <path d="M 109.183226 143.638017 
L 110.383226 144.238017 
L 109.183226 144.838017 
" clip-path="url(#p4c77a76687)" style="fill: none; stroke: #4c4c4c; stroke-linecap: round"/>
   </g>
   <g id="patch_44">
    <path d="M 88.735757 144.238017 
Q 150.228245 144.238017 210.602699 144.238017 
" clip-path="url(#p4c77a76687)" style="fill: none; stroke: #4c4c4c; stroke-linecap: round"/>
    <path d="M 209.402699 143.638017 
L 210.602699 144.238017 
L 209.402699 144.838017 
" clip-path="url(#p4c77a76687)" style="fill: none; stroke: #4c4c4c; stroke-linecap: round"/>
   </g>
   <g id="patch_45">
    <path d="M 85.047945 94.202247 
Q 90.09466 101.393816 94.499147 107.67021 
" clip-path="url(#p4c77a76687)" style="fill: none; stroke: #4c4c4c; stroke-linecap: round"/>
    <path d="M 94.30097 106.343287 
L 94.499147 107.67021 
L 93.318702 107.032598 
" clip-path="url(#p4c77a76687)" style="fill: none; stroke: #4c4c4c; stroke-linecap: round"/>
   </g>
   <g id="patch_46">
    <path d="M 88.732087 201.361983 
Q 130.182115 201.361983 170.514108 201.361983 
" clip-path="url(#p4c77a76687)" style="fill: none; stroke: #4c4c4c; stroke-linecap: round"/>
    <path d="M 169.314108 200.761983 
L 170.514108 201.361983 
L 169.314108 201.961983 
" clip-path="url(#p4c77a76687)" style="fill: none; stroke: #4c4c4c; stroke-linecap: round"/>
   </g>
   <g id="patch_47">
    <path d="M 105.092054 122.765102 
Q 130.182951 158.519631 154.631621 193.358986 
" clip-path="url(#p4c77a76687)" style="fill: none; stroke: #4c4c4c; stroke-linecap: round"/>
    <path d="M 154.433445 192.032063 
L 154.631621 193.358986 
L 153.451177 192.721374 
" clip-path="url(#p4c77a76687)" style="fill: none; stroke: #4c4c4c; stroke-linecap: round"/>
   </g>
   <g id="patch_48">
    <path d="M 108.445278 118.049516 
Q 200.334819 144.238035 291.149142 170.120117 
" clip-path="url(#p4c77a76687)" style="fill: none; stroke: #4c4c4c; stroke-linecap: round"/>
    <path d="M 290.159547 169.214191 
L 291.149142 170.120117 
L 289.830644 170.368237 
" clip-path="url(#p4c77a76687)" style="fill: none; stroke: #4c4c4c; stroke-linecap: round"/>
   </g>
   <g id="patch_49">
    <path d="M 105.091442 222.83577 
Q 110.138157 215.644201 114.542644 209.367806 
" clip-path="url(#p4c77a76687)" style="fill: none; stroke: #4c4c4c; stroke-linecap: round"/>
    <path d="M 113.3622 210.005419 
L 114.542644 209.367806 
L 114.344468 210.69473 
" clip-path="url(#p4c77a76687)" style="fill: none; stroke: #4c4c4c; stroke-linecap: round"/>
   </g>
   <g id="patch_50">
    <path d="M 107.171151 167.774109 
Q 120.161406 158.518552 132.241111 149.911762 
" clip-path="url(#p4c77a76687)" style="fill: none; stroke: #4c4c4c; stroke-linecap: round"/>
    <path d="M 130.915641 150.119439 
L 132.241111 149.911762 
L 131.611971 151.096744 
" clip-path="url(#p4c77a76687)" style="fill: none; stroke: #4c4c4c; stroke-linecap: round"/>
   </g>
   <g id="patch_51">
    <path d="M 105.091442 165.711803 
Q 110.138157 158.520234 114.542644 152.243839 
" clip-path="url(#p4c77a76687)" style="fill: none; stroke: #4c4c4c; stroke-linecap: round"/>
    <path d="M 113.3622 152.881452 
L 114.542644 152.243839 
L 114.344468 153.570763 
" clip-path="url(#p4c77a76687)" style="fill: none; stroke: #4c4c4c; stroke-linecap: round"/>
   </g>
   <g id="patch_52">
    <path d="M 128.817247 201.361983 
Q 130.180853 201.361983 130.426425 201.361983 
" clip-path="url(#p4c77a76687)" style="fill: none; stroke: #4c4c4c; stroke-linecap: round"/>
    <path d="M 129.226425 200.761983 
L 130.426425 201.361983 
L 129.226425 201.961983 
" clip-path="url(#p4c77a76687)" style="fill: none; stroke: #4c4c4c; stroke-linecap: round"/>
   </g>
   <g id="patch_53">
    <path d="M 128.779934 200.484675 
Q 260.468961 187.080614 391.045702 173.789767 
" clip-path="url(#p4c77a76687)" style="fill: none; stroke: #4c4c4c; stroke-linecap: round"/>
    <path d="M 389.791112 173.314366 
L 391.045702 173.789767 
L 389.912627 174.508198 
" clip-path="url(#p4c77a76687)" style="fill: none; stroke: #4c4c4c; stroke-linecap: round"/>
   </g>
   <g id="patch_54">
    <path d="M 128.81847 144.238017 
Q 180.289556 144.238017 230.642608 144.238017 
" clip-path="url(#p4c77a76687)" style="fill: none; stroke: #4c4c4c; stroke-linecap: round"/>
    <path d="M 229.442608 143.638017 
L 230.642608 144.238017 
L 229.442608 144.838017 
" clip-path="url(#p4c77a76687)" style="fill: none; stroke: #4c4c4c; stroke-linecap: round"/>
   </g>
   <g id="patch_55">
    <path d="M 128.817247 144.238017 
Q 130.180853 144.238017 130.426425 144.238017 
" clip-path="url(#p4c77a76687)" style="fill: none; stroke: #4c4c4c; stroke-linecap: round"/>
    <path d="M 129.226425 143.638017 
L 130.426425 144.238017 
L 129.226425 144.838017 
" clip-path="url(#p4c77a76687)" style="fill: none; stroke: #4c4c4c; stroke-linecap: round"/>
   </g>
   <g id="patch_56">
    <path d="M 127.981693 147.952957 
Q 180.291643 172.800183 231.591697 197.167709 
" clip-path="url(#p4c77a76687)" style="fill: none; stroke: #4c4c4c; stroke-linecap: round"/>
    <path d="M 230.765198 196.110874 
L 231.591697 197.167709 
L 230.25033 197.194807 
" clip-path="url(#p4c77a76687)" style="fill: none; stroke: #4c4c4c; stroke-linecap: round"/>
   </g>
   <g id="patch_57">
    <path d="M 148.861967 201.361983 
Q 200.333053 201.361983 250.686105 201.361983 
" clip-path="url(#p4c77a76687)" style="fill: none; stroke: #4c4c4c; stroke-linecap: round"/>
    <path d="M 249.486105 200.761983 
L 250.686105 201.361983 
L 249.486105 201.961983 
" clip-path="url(#p4c77a76687)" style="fill: none; stroke: #4c4c4c; stroke-linecap: round"/>
   </g>
   <g id="patch_58">
    <path d="M 148.860744 201.361983 
Q 150.22435 201.361983 150.469922 201.361983 
" clip-path="url(#p4c77a76687)" style="fill: none; stroke: #4c4c4c; stroke-linecap: round"/>
    <path d="M 149.269922 200.761983 
L 150.469922 201.361983 
L 149.269922 201.961983 
" clip-path="url(#p4c77a76687)" style="fill: none; stroke: #4c4c4c; stroke-linecap: round"/>
   </g>
   <g id="patch_59">
    <path d="M 148.860744 144.238017 
Q 150.22435 144.238017 150.469922 144.238017 
" clip-path="url(#p4c77a76687)" style="fill: none; stroke: #4c4c4c; stroke-linecap: round"/>
    <path d="M 149.269922 143.638017 
L 150.469922 144.238017 
L 149.269922 144.838017 
" clip-path="url(#p4c77a76687)" style="fill: none; stroke: #4c4c4c; stroke-linecap: round"/>
   </g>
   <g id="patch_60">
    <path d="M 163.114088 193.192949 
Q 170.26897 172.801535 177.053685 153.465097 
" clip-path="url(#p4c77a76687)" style="fill: none; stroke: #4c4c4c; stroke-linecap: round"/>
    <path d="M 176.09022 154.398764 
L 177.053685 153.465097 
L 177.22254 154.796069 
" clip-path="url(#p4c77a76687)" style="fill: none; stroke: #4c4c4c; stroke-linecap: round"/>
   </g>
   <g id="patch_61">
    <path d="M 165.221933 194.273786 
Q 180.291257 172.8 194.718353 152.241388 
" clip-path="url(#p4c77a76687)" style="fill: none; stroke: #4c4c4c; stroke-linecap: round"/>
    <path d="M 193.537908 152.879 
L 194.718353 152.241388 
L 194.520176 153.568311 
" clip-path="url(#p4c77a76687)" style="fill: none; stroke: #4c4c4c; stroke-linecap: round"/>
   </g>
   <g id="patch_62">
    <path d="M 168.904241 201.361983 
Q 170.267847 201.361983 170.51342 201.361983 
" clip-path="url(#p4c77a76687)" style="fill: none; stroke: #4c4c4c; stroke-linecap: round"/>
    <path d="M 169.31342 200.761983 
L 170.51342 201.361983 
L 169.31342 201.961983 
" clip-path="url(#p4c77a76687)" style="fill: none; stroke: #4c4c4c; stroke-linecap: round"/>
   </g>
   <g id="patch_63">
    <path d="M 168.906076 144.238017 
Q 210.356104 144.238017 250.688097 144.238017 
" clip-path="url(#p4c77a76687)" style="fill: none; stroke: #4c4c4c; stroke-linecap: round"/>
    <path d="M 249.488097 143.638017 
L 250.688097 144.238017 
L 249.488097 144.838017 
" clip-path="url(#p4c77a76687)" style="fill: none; stroke: #4c4c4c; stroke-linecap: round"/>
   </g>
   <g id="patch_64">
    <path d="M 188.947738 201.361983 
Q 190.311344 201.361983 190.556917 201.361983 
" clip-path="url(#p4c77a76687)" style="fill: none; stroke: #4c4c4c; stroke-linecap: round"/>
    <path d="M 189.356917 200.761983 
L 190.556917 201.361983 
L 189.356917 201.961983 
" clip-path="url(#p4c77a76687)" style="fill: none; stroke: #4c4c4c; stroke-linecap: round"/>
   </g>
   <g id="patch_65">
    <path d="M 188.947738 201.361983 
Q 200.333242 201.361983 210.600712 201.361983 
" clip-path="url(#p4c77a76687)" style="fill: none; stroke: #4c4c4c; stroke-linecap: round"/>
    <path d="M 209.400712 200.761983 
L 210.600712 201.361983 
L 209.400712 201.961983 
" clip-path="url(#p4c77a76687)" style="fill: none; stroke: #4c4c4c; stroke-linecap: round"/>
   </g>
   <g id="patch_66">
    <path d="M 188.947738 144.238017 
Q 190.311344 144.238017 190.556917 144.238017 
" clip-path="url(#p4c77a76687)" style="fill: none; stroke: #4c4c4c; stroke-linecap: round"/>
    <path d="M 189.356917 143.638017 
L 190.556917 144.238017 
L 189.356917 144.838017 
" clip-path="url(#p4c77a76687)" style="fill: none; stroke: #4c4c4c; stroke-linecap: round"/>
   </g>
   <g id="patch_67">
    <path d="M 188.947738 144.238017 
Q 220.378513 144.238017 250.691254 144.238017 
" clip-path="url(#p4c77a76687)" style="fill: none; stroke: #4c4c4c; stroke-linecap: round"/>
    <path d="M 249.491254 143.638017 
L 250.691254 144.238017 
L 249.491254 144.838017 
" clip-path="url(#p4c77a76687)" style="fill: none; stroke: #4c4c4c; stroke-linecap: round"/>
   </g>
   <g id="patch_68">
    <path d="M 203.201082 152.407051 
Q 210.355964 172.798465 217.140679 192.134903 
" clip-path="url(#p4c77a76687)" style="fill: none; stroke: #4c4c4c; stroke-linecap: round"/>
    <path d="M 217.309534 190.803931 
L 217.140679 192.134903 
L 216.177214 191.201236 
" clip-path="url(#p4c77a76687)" style="fill: none; stroke: #4c4c4c; stroke-linecap: round"/>
   </g>
   <g id="patch_69">
    <path d="M 205.308928 151.326214 
Q 220.378251 172.8 234.805348 193.358612 
" clip-path="url(#p4c77a76687)" style="fill: none; stroke: #4c4c4c; stroke-linecap: round"/>
    <path d="M 234.607171 192.031689 
L 234.805348 193.358612 
L 233.624903 192.721 
" clip-path="url(#p4c77a76687)" style="fill: none; stroke: #4c4c4c; stroke-linecap: round"/>
   </g>
   <g id="patch_70">
    <path d="M 208.923645 200.249332 
Q 310.573156 187.0811 411.113899 174.056503 
" clip-path="url(#p4c77a76687)" style="fill: none; stroke: #4c4c4c; stroke-linecap: round"/>
    <path d="M 409.84676 173.615642 
L 411.113899 174.056503 
L 410.000927 174.805698 
" clip-path="url(#p4c77a76687)" style="fill: none; stroke: #4c4c4c; stroke-linecap: round"/>
   </g>
   <g id="patch_71">
    <path d="M 203.201082 193.192949 
Q 210.355964 172.801535 217.140679 153.465097 
" clip-path="url(#p4c77a76687)" style="fill: none; stroke: #4c4c4c; stroke-linecap: round"/>
    <path d="M 216.177214 154.398764 
L 217.140679 153.465097 
L 217.309534 154.796069 
" clip-path="url(#p4c77a76687)" style="fill: none; stroke: #4c4c4c; stroke-linecap: round"/>
   </g>
   <g id="patch_72">
    <path d="M 228.930441 200.007887 
Q 310.572194 187.081276 391.109668 174.329509 
" clip-path="url(#p4c77a76687)" style="fill: none; stroke: #4c4c4c; stroke-linecap: round"/>
    <path d="M 389.830602 173.924554 
L 391.109668 174.329509 
L 390.018264 175.109789 
" clip-path="url(#p4c77a76687)" style="fill: none; stroke: #4c4c4c; stroke-linecap: round"/>
   </g>
   <g id="patch_73">
    <path d="M 229.034732 201.361983 
Q 230.398339 201.361983 230.643911 201.361983 
" clip-path="url(#p4c77a76687)" style="fill: none; stroke: #4c4c4c; stroke-linecap: round"/>
    <path d="M 229.443911 200.761983 
L 230.643911 201.361983 
L 229.443911 201.961983 
" clip-path="url(#p4c77a76687)" style="fill: none; stroke: #4c4c4c; stroke-linecap: round"/>
   </g>
   <g id="patch_74">
    <path d="M 229.034732 144.238017 
Q 230.398339 144.238017 230.643911 144.238017 
" clip-path="url(#p4c77a76687)" style="fill: none; stroke: #4c4c4c; stroke-linecap: round"/>
    <path d="M 229.443911 143.638017 
L 230.643911 144.238017 
L 229.443911 144.838017 
" clip-path="url(#p4c77a76687)" style="fill: none; stroke: #4c4c4c; stroke-linecap: round"/>
   </g>
   <g id="patch_75">
    <path d="M 243.288076 152.407051 
Q 250.442959 172.798465 257.227674 192.134903 
" clip-path="url(#p4c77a76687)" style="fill: none; stroke: #4c4c4c; stroke-linecap: round"/>
    <path d="M 257.396528 190.803931 
L 257.227674 192.134903 
L 256.264209 191.201236 
" clip-path="url(#p4c77a76687)" style="fill: none; stroke: #4c4c4c; stroke-linecap: round"/>
   </g>
   <g id="patch_76">
    <path d="M 249.07823 144.238017 
Q 250.441836 144.238017 250.687408 144.238017 
" clip-path="url(#p4c77a76687)" style="fill: none; stroke: #4c4c4c; stroke-linecap: round"/>
    <path d="M 249.487408 143.638017 
L 250.687408 144.238017 
L 249.487408 144.838017 
" clip-path="url(#p4c77a76687)" style="fill: none; stroke: #4c4c4c; stroke-linecap: round"/>
   </g>
   <g id="patch_77">
    <path d="M 243.288076 193.192949 
Q 250.442959 172.801535 257.227674 153.465097 
" clip-path="url(#p4c77a76687)" style="fill: none; stroke: #4c4c4c; stroke-linecap: round"/>
    <path d="M 256.264209 154.398764 
L 257.227674 153.465097 
L 257.396528 154.796069 
" clip-path="url(#p4c77a76687)" style="fill: none; stroke: #4c4c4c; stroke-linecap: round"/>
   </g>
   <g id="patch_78">
    <path d="M 265.439419 151.326214 
Q 270.486134 158.517783 274.890622 164.794177 
" clip-path="url(#p4c77a76687)" style="fill: none; stroke: #4c4c4c; stroke-linecap: round"/>
    <path d="M 274.692445 163.467254 
L 274.890622 164.794177 
L 273.710177 164.156565 
" clip-path="url(#p4c77a76687)" style="fill: none; stroke: #4c4c4c; stroke-linecap: round"/>
   </g>
   <g id="patch_79">
    <path d="M 289.166447 172.8 
Q 340.637533 172.8 390.990585 172.8 
" clip-path="url(#p4c77a76687)" style="fill: none; stroke: #4c4c4c; stroke-linecap: round"/>
    <path d="M 389.790585 172.2 
L 390.990585 172.8 
L 389.790585 173.4 
" clip-path="url(#p4c77a76687)" style="fill: none; stroke: #4c4c4c; stroke-linecap: round"/>
   </g>
   <g id="patch_80">
    <path d="M 289.165224 172.8 
Q 290.52883 172.8 290.774403 172.8 
" clip-path="url(#p4c77a76687)" style="fill: none; stroke: #4c4c4c; stroke-linecap: round"/>
    <path d="M 289.574403 172.2 
L 290.774403 172.8 
L 289.574403 173.4 
" clip-path="url(#p4c77a76687)" style="fill: none; stroke: #4c4c4c; stroke-linecap: round"/>
   </g>
   <g id="patch_81">
    <path d="M 309.208721 172.8 
Q 310.572327 172.8 310.8179 172.8 
" clip-path="url(#p4c77a76687)" style="fill: none; stroke: #4c4c4c; stroke-linecap: round"/>
    <path d="M 309.6179 172.2 
L 310.8179 172.8 
L 309.6179 173.4 
" clip-path="url(#p4c77a76687)" style="fill: none; stroke: #4c4c4c; stroke-linecap: round"/>
   </g>
   <g id="patch_82">
    <path d="M 329.252218 172.8 
Q 330.615825 172.8 330.861397 172.8 
" clip-path="url(#p4c77a76687)" style="fill: none; stroke: #4c4c4c; stroke-linecap: round"/>
    <path d="M 329.661397 172.2 
L 330.861397 172.8 
L 329.661397 173.4 
" clip-path="url(#p4c77a76687)" style="fill: none; stroke: #4c4c4c; stroke-linecap: round"/>
   </g>
   <g id="patch_83">
    <path d="M 349.295716 172.8 
Q 350.659322 172.8 350.904894 172.8 
" clip-path="url(#p4c77a76687)" style="fill: none; stroke: #4c4c4c; stroke-linecap: round"/>
    <path d="M 349.704894 172.2 
L 350.904894 172.8 
L 349.704894 173.4 
" clip-path="url(#p4c77a76687)" style="fill: none; stroke: #4c4c4c; stroke-linecap: round"/>
   </g>
   <g id="patch_84">
    <path d="M 369.339213 172.8 
Q 370.702819 172.8 370.948391 172.8 
" clip-path="url(#p4c77a76687)" style="fill: none; stroke: #4c4c4c; stroke-linecap: round"/>
    <path d="M 369.748391 172.2 
L 370.948391 172.8 
L 369.748391 173.4 
" clip-path="url(#p4c77a76687)" style="fill: none; stroke: #4c4c4c; stroke-linecap: round"/>
   </g>
   <g id="patch_85">
    <path d="M 389.38271 172.8 
Q 390.746316 172.8 390.991888 172.8 
" clip-path="url(#p4c77a76687)" style="fill: none; stroke: #4c4c4c; stroke-linecap: round"/>
    <path d="M 389.791888 172.2 
L 390.991888 172.8 
L 389.791888 173.4 
" clip-path="url(#p4c77a76687)" style="fill: none; stroke: #4c4c4c; stroke-linecap: round"/>
   </g>
   <g id="patch_86">
    <path d="M 409.426207 172.8 
Q 410.789813 172.8 411.035386 172.8 
" clip-path="url(#p4c77a76687)" style="fill: none; stroke: #4c4c4c; stroke-linecap: round"/>
    <path d="M 409.835386 172.2 
L 411.035386 172.8 
L 409.835386 173.4 
" clip-path="url(#p4c77a76687)" style="fill: none; stroke: #4c4c4c; stroke-linecap: round"/>
   </g>
   <g id="PathCollection_1">
    <path d="M 39.986777 295.708188 
C 42.283503 295.708188 44.486471 294.795689 46.110501 293.171658 
C 47.734532 291.547628 48.647031 289.34466 48.647031 287.047934 
C 48.647031 284.751208 47.734532 282.54824 46.110501 280.92421 
C 44.486471 279.300179 42.283503 278.38768 39.986777 278.38768 
C 37.690051 278.38768 35.487083 279.300179 33.863053 280.92421 
C 32.239022 282.54824 31.326523 284.751208 31.326523 287.047934 
C 31.326523 289.34466 32.239022 291.547628 33.863053 293.171658 
C 35.487083 294.795689 37.690051 295.708188 39.986777 295.708188 
z
" clip-path="url(#p4c77a76687)" style="fill: #ffff00; stroke: #000000"/>
    <path d="M 39.986777 238.584221 
C 42.283503 238.584221 44.486471 237.671722 46.110501 236.047691 
C 47.734532 234.423661 48.647031 232.220693 48.647031 229.923967 
C 48.647031 227.627241 47.734532 225.424273 46.110501 223.800243 
C 44.486471 222.176212 42.283503 221.263713 39.986777 221.263713 
C 37.690051 221.263713 35.487083 222.176212 33.863053 223.800243 
C 32.239022 225.424273 31.326523 227.627241 31.326523 229.923967 
C 31.326523 232.220693 32.239022 234.423661 33.863053 236.047691 
C 35.487083 237.671722 37.690051 238.584221 39.986777 238.584221 
z
" clip-path="url(#p4c77a76687)" style="fill: #ffff00; stroke: #000000"/>
    <path d="M 39.986777 181.460254 
C 42.283503 181.460254 44.486471 180.547755 46.110501 178.923724 
C 47.734532 177.299694 48.647031 175.096726 48.647031 172.8 
C 48.647031 170.503274 47.734532 168.300306 46.110501 166.676276 
C 44.486471 165.052245 42.283503 164.139746 39.986777 164.139746 
C 37.690051 164.139746 35.487083 165.052245 33.863053 166.676276 
C 32.239022 168.300306 31.326523 170.503274 31.326523 172.8 
C 31.326523 175.096726 32.239022 177.299694 33.863053 178.923724 
C 35.487083 180.547755 37.690051 181.460254 39.986777 181.460254 
z
" clip-path="url(#p4c77a76687)" style="fill: #ffff00; stroke: #000000"/>
    <path d="M 39.986777 124.336287 
C 42.283503 124.336287 44.486471 123.423788 46.110501 121.799757 
C 47.734532 120.175727 48.647031 117.972759 48.647031 115.676033 
C 48.647031 113.379307 47.734532 111.176339 46.110501 109.552309 
C 44.486471 107.928278 42.283503 107.015779 39.986777 107.015779 
C 37.690051 107.015779 35.487083 107.928278 33.863053 109.552309 
C 32.239022 111.176339 31.326523 113.379307 31.326523 115.676033 
C 31.326523 117.972759 32.239022 120.175727 33.863053 121.799757 
C 35.487083 123.423788 37.690051 124.336287 39.986777 124.336287 
z
" clip-path="url(#p4c77a76687)" style="fill: #ffff00; stroke: #000000"/>
    <path d="M 39.986777 67.21232 
C 42.283503 67.21232 44.486471 66.299821 46.110501 64.67579 
C 47.734532 63.05176 48.647031 60.848792 48.647031 58.552066 
C 48.647031 56.25534 47.734532 54.052372 46.110501 52.428342 
C 44.486471 50.804311 42.283503 49.891812 39.986777 49.891812 
C 37.690051 49.891812 35.487083 50.804311 33.863053 52.428342 
C 32.239022 54.052372 31.326523 56.25534 31.326523 58.552066 
C 31.326523 60.848792 32.239022 63.05176 33.863053 64.67579 
C 35.487083 66.299821 37.690051 67.21232 39.986777 67.21232 
z
" clip-path="url(#p4c77a76687)" style="fill: #ffffff; stroke: #000000"/>
    <path d="M 60.030274 324.270171 
C 62.327 324.270171 64.529968 323.357672 66.153998 321.733642 
C 67.778029 320.109611 68.690528 317.906644 68.690528 315.609917 
C 68.690528 313.313191 67.778029 311.110224 66.153998 309.486193 
C 64.529968 307.862162 62.327 306.949663 60.030274 306.949663 
C 57.733548 306.949663 55.53058 307.862162 53.90655 309.486193 
C 52.282519 311.110224 51.37002 313.313191 51.37002 315.609917 
C 51.37002 317.906644 52.282519 320.109611 53.90655 321.733642 
C 55.53058 323.357672 57.733548 324.270171 60.030274 324.270171 
z
" clip-path="url(#p4c77a76687)" style="fill: #ffffff; stroke: #000000"/>
    <path d="M 60.030274 267.146204 
C 62.327 267.146204 64.529968 266.233705 66.153998 264.609675 
C 67.778029 262.985644 68.690528 260.782677 68.690528 258.48595 
C 68.690528 256.189224 67.778029 253.986257 66.153998 252.362226 
C 64.529968 250.738195 62.327 249.825696 60.030274 249.825696 
C 57.733548 249.825696 55.53058 250.738195 53.90655 252.362226 
C 52.282519 253.986257 51.37002 256.189224 51.37002 258.48595 
C 51.37002 260.782677 52.282519 262.985644 53.90655 264.609675 
C 55.53058 266.233705 57.733548 267.146204 60.030274 267.146204 
z
" clip-path="url(#p4c77a76687)" style="fill: #ffffff; stroke: #000000"/>
    <path d="M 60.030274 210.022238 
C 62.327 210.022238 64.529968 209.109739 66.153998 207.485708 
C 67.778029 205.861677 68.690528 203.65871 68.690528 201.361983 
C 68.690528 199.065257 67.778029 196.86229 66.153998 195.238259 
C 64.529968 193.614228 62.327 192.701729 60.030274 192.701729 
C 57.733548 192.701729 55.53058 193.614228 53.90655 195.238259 
C 52.282519 196.86229 51.37002 199.065257 51.37002 201.361983 
C 51.37002 203.65871 52.282519 205.861677 53.90655 207.485708 
C 55.53058 209.109739 57.733548 210.022238 60.030274 210.022238 
z
" clip-path="url(#p4c77a76687)" style="fill: #ffffff; stroke: #000000"/>
    <path d="M 60.030274 95.774304 
C 62.327 95.774304 64.529968 94.861805 66.153998 93.237774 
C 67.778029 91.613743 68.690528 89.410776 68.690528 87.11405 
C 68.690528 84.817323 67.778029 82.614356 66.153998 80.990325 
C 64.529968 79.366295 62.327 78.453796 60.030274 78.453796 
C 57.733548 78.453796 55.53058 79.366295 53.90655 80.990325 
C 52.282519 82.614356 51.37002 84.817323 51.37002 87.11405 
C 51.37002 89.410776 52.282519 91.613743 53.90655 93.237774 
C 55.53058 94.861805 57.733548 95.774304 60.030274 95.774304 
z
" clip-path="url(#p4c77a76687)" style="fill: #ffffff; stroke: #000000"/>
    <path d="M 60.030274 38.650337 
C 62.327 38.650337 64.529968 37.737838 66.153998 36.113807 
C 67.778029 34.489776 68.690528 32.286809 68.690528 29.990083 
C 68.690528 27.693356 67.778029 25.490389 66.153998 23.866358 
C 64.529968 22.242328 62.327 21.329829 60.030274 21.329829 
C 57.733548 21.329829 55.53058 22.242328 53.90655 23.866358 
C 52.282519 25.490389 51.37002 27.693356 51.37002 29.990083 
C 51.37002 32.286809 52.282519 34.489776 53.90655 36.113807 
C 55.53058 37.737838 57.733548 38.650337 60.030274 38.650337 
z
" clip-path="url(#p4c77a76687)" style="fill: #ffffff; stroke: #000000"/>
    <path d="M 60.030274 152.898271 
C 62.327 152.898271 64.529968 151.985772 66.153998 150.361741 
C 67.778029 148.73771 68.690528 146.534743 68.690528 144.238017 
C 68.690528 141.94129 67.778029 139.738323 66.153998 138.114292 
C 64.529968 136.490261 62.327 135.577762 60.030274 135.577762 
C 57.733548 135.577762 55.53058 136.490261 53.90655 138.114292 
C 52.282519 139.738323 51.37002 141.94129 51.37002 144.238017 
C 51.37002 146.534743 52.282519 148.73771 53.90655 150.361741 
C 55.53058 151.985772 57.733548 152.898271 60.030274 152.898271 
z
" clip-path="url(#p4c77a76687)" style="fill: #ffffff; stroke: #000000"/>
    <path d="M 80.073771 267.146204 
C 82.370497 267.146204 84.573465 266.233705 86.197496 264.609675 
C 87.821526 262.985644 88.734025 260.782677 88.734025 258.48595 
C 88.734025 256.189224 87.821526 253.986257 86.197496 252.362226 
C 84.573465 250.738195 82.370497 249.825696 80.073771 249.825696 
C 77.777045 249.825696 75.574078 250.738195 73.950047 252.362226 
C 72.326016 253.986257 71.413517 256.189224 71.413517 258.48595 
C 71.413517 260.782677 72.326016 262.985644 73.950047 264.609675 
C 75.574078 266.233705 77.777045 267.146204 80.073771 267.146204 
z
" clip-path="url(#p4c77a76687)" style="fill: #ffffff; stroke: #000000"/>
    <path d="M 80.073771 152.898271 
C 82.370497 152.898271 84.573465 151.985772 86.197496 150.361741 
C 87.821526 148.73771 88.734025 146.534743 88.734025 144.238017 
C 88.734025 141.94129 87.821526 139.738323 86.197496 138.114292 
C 84.573465 136.490261 82.370497 135.577762 80.073771 135.577762 
C 77.777045 135.577762 75.574078 136.490261 73.950047 138.114292 
C 72.326016 139.738323 71.413517 141.94129 71.413517 144.238017 
C 71.413517 146.534743 72.326016 148.73771 73.950047 150.361741 
C 75.574078 151.985772 77.777045 152.898271 80.073771 152.898271 
z
" clip-path="url(#p4c77a76687)" style="fill: #ffffff; stroke: #000000"/>
    <path d="M 80.073771 95.774304 
C 82.370497 95.774304 84.573465 94.861805 86.197496 93.237774 
C 87.821526 91.613743 88.734025 89.410776 88.734025 87.11405 
C 88.734025 84.817323 87.821526 82.614356 86.197496 80.990325 
C 84.573465 79.366295 82.370497 78.453796 80.073771 78.453796 
C 77.777045 78.453796 75.574078 79.366295 73.950047 80.990325 
C 72.326016 82.614356 71.413517 84.817323 71.413517 87.11405 
C 71.413517 89.410776 72.326016 91.613743 73.950047 93.237774 
C 75.574078 94.861805 77.777045 95.774304 80.073771 95.774304 
z
" clip-path="url(#p4c77a76687)" style="fill: #ffffff; stroke: #000000"/>
    <path d="M 80.073771 210.022238 
C 82.370497 210.022238 84.573465 209.109739 86.197496 207.485708 
C 87.821526 205.861677 88.734025 203.65871 88.734025 201.361983 
C 88.734025 199.065257 87.821526 196.86229 86.197496 195.238259 
C 84.573465 193.614228 82.370497 192.701729 80.073771 192.701729 
C 77.777045 192.701729 75.574078 193.614228 73.950047 195.238259 
C 72.326016 196.86229 71.413517 199.065257 71.413517 201.361983 
C 71.413517 203.65871 72.326016 205.861677 73.950047 207.485708 
C 75.574078 209.109739 77.777045 210.022238 80.073771 210.022238 
z
" clip-path="url(#p4c77a76687)" style="fill: #ffffff; stroke: #000000"/>
    <path d="M 100.117268 124.336287 
C 102.413995 124.336287 104.616962 123.423788 106.240993 121.799757 
C 107.865023 120.175727 108.777522 117.972759 108.777522 115.676033 
C 108.777522 113.379307 107.865023 111.176339 106.240993 109.552309 
C 104.616962 107.928278 102.413995 107.015779 100.117268 107.015779 
C 97.820542 107.015779 95.617575 107.928278 93.993544 109.552309 
C 92.369513 111.176339 91.457014 113.379307 91.457014 115.676033 
C 91.457014 117.972759 92.369513 120.175727 93.993544 121.799757 
C 95.617575 123.423788 97.820542 124.336287 100.117268 124.336287 
z
" clip-path="url(#p4c77a76687)" style="fill: #ffffff; stroke: #000000"/>
    <path d="M 100.117268 238.584221 
C 102.413995 238.584221 104.616962 237.671722 106.240993 236.047691 
C 107.865023 234.423661 108.777522 232.220693 108.777522 229.923967 
C 108.777522 227.627241 107.865023 225.424273 106.240993 223.800243 
C 104.616962 222.176212 102.413995 221.263713 100.117268 221.263713 
C 97.820542 221.263713 95.617575 222.176212 93.993544 223.800243 
C 92.369513 225.424273 91.457014 227.627241 91.457014 229.923967 
C 91.457014 232.220693 92.369513 234.423661 93.993544 236.047691 
C 95.617575 237.671722 97.820542 238.584221 100.117268 238.584221 
z
" clip-path="url(#p4c77a76687)" style="fill: #ffffff; stroke: #000000"/>
    <path d="M 100.117268 181.460254 
C 102.413995 181.460254 104.616962 180.547755 106.240993 178.923724 
C 107.865023 177.299694 108.777522 175.096726 108.777522 172.8 
C 108.777522 170.503274 107.865023 168.300306 106.240993 166.676276 
C 104.616962 165.052245 102.413995 164.139746 100.117268 164.139746 
C 97.820542 164.139746 95.617575 165.052245 93.993544 166.676276 
C 92.369513 168.300306 91.457014 170.503274 91.457014 172.8 
C 91.457014 175.096726 92.369513 177.299694 93.993544 178.923724 
C 95.617575 180.547755 97.820542 181.460254 100.117268 181.460254 
z
" clip-path="url(#p4c77a76687)" style="fill: #ffffff; stroke: #000000"/>
    <path d="M 120.160766 210.022238 
C 122.457492 210.022238 124.660459 209.109739 126.28449 207.485708 
C 127.908521 205.861677 128.82102 203.65871 128.82102 201.361983 
C 128.82102 199.065257 127.908521 196.86229 126.28449 195.238259 
C 124.660459 193.614228 122.457492 192.701729 120.160766 192.701729 
C 117.864039 192.701729 115.661072 193.614228 114.037041 195.238259 
C 112.413011 196.86229 111.500512 199.065257 111.500512 201.361983 
C 111.500512 203.65871 112.413011 205.861677 114.037041 207.485708 
C 115.661072 209.109739 117.864039 210.022238 120.160766 210.022238 
z
" clip-path="url(#p4c77a76687)" style="fill: #ffffff; stroke: #000000"/>
    <path d="M 120.160766 152.898271 
C 122.457492 152.898271 124.660459 151.985772 126.28449 150.361741 
C 127.908521 148.73771 128.82102 146.534743 128.82102 144.238017 
C 128.82102 141.94129 127.908521 139.738323 126.28449 138.114292 
C 124.660459 136.490261 122.457492 135.577762 120.160766 135.577762 
C 117.864039 135.577762 115.661072 136.490261 114.037041 138.114292 
C 112.413011 139.738323 111.500512 141.94129 111.500512 144.238017 
C 111.500512 146.534743 112.413011 148.73771 114.037041 150.361741 
C 115.661072 151.985772 117.864039 152.898271 120.160766 152.898271 
z
" clip-path="url(#p4c77a76687)" style="fill: #ffffff; stroke: #000000"/>
    <path d="M 140.204263 210.022238 
C 142.500989 210.022238 144.703956 209.109739 146.327987 207.485708 
C 147.952018 205.861677 148.864517 203.65871 148.864517 201.361983 
C 148.864517 199.065257 147.952018 196.86229 146.327987 195.238259 
C 144.703956 193.614228 142.500989 192.701729 140.204263 192.701729 
C 137.907537 192.701729 135.704569 193.614228 134.080538 195.238259 
C 132.456508 196.86229 131.544009 199.065257 131.544009 201.361983 
C 131.544009 203.65871 132.456508 205.861677 134.080538 207.485708 
C 135.704569 209.109739 137.907537 210.022238 140.204263 210.022238 
z
" clip-path="url(#p4c77a76687)" style="fill: #ffffff; stroke: #000000"/>
    <path d="M 140.204263 152.898271 
C 142.500989 152.898271 144.703956 151.985772 146.327987 150.361741 
C 147.952018 148.73771 148.864517 146.534743 148.864517 144.238017 
C 148.864517 141.94129 147.952018 139.738323 146.327987 138.114292 
C 144.703956 136.490261 142.500989 135.577762 140.204263 135.577762 
C 137.907537 135.577762 135.704569 136.490261 134.080538 138.114292 
C 132.456508 139.738323 131.544009 141.94129 131.544009 144.238017 
C 131.544009 146.534743 132.456508 148.73771 134.080538 150.361741 
C 135.704569 151.985772 137.907537 152.898271 140.204263 152.898271 
z
" clip-path="url(#p4c77a76687)" style="fill: #ffffff; stroke: #000000"/>
    <path d="M 160.24776 210.022238 
C 162.544486 210.022238 164.747454 209.109739 166.371484 207.485708 
C 167.995515 205.861677 168.908014 203.65871 168.908014 201.361983 
C 168.908014 199.065257 167.995515 196.86229 166.371484 195.238259 
C 164.747454 193.614228 162.544486 192.701729 160.24776 192.701729 
C 157.951034 192.701729 155.748066 193.614228 154.124036 195.238259 
C 152.500005 196.86229 151.587506 199.065257 151.587506 201.361983 
C 151.587506 203.65871 152.500005 205.861677 154.124036 207.485708 
C 155.748066 209.109739 157.951034 210.022238 160.24776 210.022238 
z
" clip-path="url(#p4c77a76687)" style="fill: #ffffff; stroke: #000000"/>
    <path d="M 160.24776 152.898271 
C 162.544486 152.898271 164.747454 151.985772 166.371484 150.361741 
C 167.995515 148.73771 168.908014 146.534743 168.908014 144.238017 
C 168.908014 141.94129 167.995515 139.738323 166.371484 138.114292 
C 164.747454 136.490261 162.544486 135.577762 160.24776 135.577762 
C 157.951034 135.577762 155.748066 136.490261 154.124036 138.114292 
C 152.500005 139.738323 151.587506 141.94129 151.587506 144.238017 
C 151.587506 146.534743 152.500005 148.73771 154.124036 150.361741 
C 155.748066 151.985772 157.951034 152.898271 160.24776 152.898271 
z
" clip-path="url(#p4c77a76687)" style="fill: #ffffff; stroke: #000000"/>
    <path d="M 180.291257 210.022238 
C 182.587983 210.022238 184.790951 209.109739 186.414981 207.485708 
C 188.039012 205.861677 188.951511 203.65871 188.951511 201.361983 
C 188.951511 199.065257 188.039012 196.86229 186.414981 195.238259 
C 184.790951 193.614228 182.587983 192.701729 180.291257 192.701729 
C 177.994531 192.701729 175.791563 193.614228 174.167533 195.238259 
C 172.543502 196.86229 171.631003 199.065257 171.631003 201.361983 
C 171.631003 203.65871 172.543502 205.861677 174.167533 207.485708 
C 175.791563 209.109739 177.994531 210.022238 180.291257 210.022238 
z
" clip-path="url(#p4c77a76687)" style="fill: #ffffff; stroke: #000000"/>
    <path d="M 180.291257 152.898271 
C 182.587983 152.898271 184.790951 151.985772 186.414981 150.361741 
C 188.039012 148.73771 188.951511 146.534743 188.951511 144.238017 
C 188.951511 141.94129 188.039012 139.738323 186.414981 138.114292 
C 184.790951 136.490261 182.587983 135.577762 180.291257 135.577762 
C 177.994531 135.577762 175.791563 136.490261 174.167533 138.114292 
C 172.543502 139.738323 171.631003 141.94129 171.631003 144.238017 
C 171.631003 146.534743 172.543502 148.73771 174.167533 150.361741 
C 175.791563 151.985772 177.994531 152.898271 180.291257 152.898271 
z
" clip-path="url(#p4c77a76687)" style="fill: #ffffff; stroke: #000000"/>
    <path d="M 200.334754 152.898271 
C 202.63148 152.898271 204.834448 151.985772 206.458479 150.361741 
C 208.082509 148.73771 208.995008 146.534743 208.995008 144.238017 
C 208.995008 141.94129 208.082509 139.738323 206.458479 138.114292 
C 204.834448 136.490261 202.63148 135.577762 200.334754 135.577762 
C 198.038028 135.577762 195.835061 136.490261 194.21103 138.114292 
C 192.586999 139.738323 191.6745 141.94129 191.6745 144.238017 
C 191.6745 146.534743 192.586999 148.73771 194.21103 150.361741 
C 195.835061 151.985772 198.038028 152.898271 200.334754 152.898271 
z
" clip-path="url(#p4c77a76687)" style="fill: #ffffff; stroke: #000000"/>
    <path d="M 200.334754 210.022238 
C 202.63148 210.022238 204.834448 209.109739 206.458479 207.485708 
C 208.082509 205.861677 208.995008 203.65871 208.995008 201.361983 
C 208.995008 199.065257 208.082509 196.86229 206.458479 195.238259 
C 204.834448 193.614228 202.63148 192.701729 200.334754 192.701729 
C 198.038028 192.701729 195.835061 193.614228 194.21103 195.238259 
C 192.586999 196.86229 191.6745 199.065257 191.6745 201.361983 
C 191.6745 203.65871 192.586999 205.861677 194.21103 207.485708 
C 195.835061 209.109739 198.038028 210.022238 200.334754 210.022238 
z
" clip-path="url(#p4c77a76687)" style="fill: #ffffff; stroke: #000000"/>
    <path d="M 220.378251 210.022238 
C 222.674978 210.022238 224.877945 209.109739 226.501976 207.485708 
C 228.126006 205.861677 229.038505 203.65871 229.038505 201.361983 
C 229.038505 199.065257 228.126006 196.86229 226.501976 195.238259 
C 224.877945 193.614228 222.674978 192.701729 220.378251 192.701729 
C 218.081525 192.701729 215.878558 193.614228 214.254527 195.238259 
C 212.630496 196.86229 211.717997 199.065257 211.717997 201.361983 
C 211.717997 203.65871 212.630496 205.861677 214.254527 207.485708 
C 215.878558 209.109739 218.081525 210.022238 220.378251 210.022238 
z
" clip-path="url(#p4c77a76687)" style="fill: #ffffff; stroke: #000000"/>
    <path d="M 220.378251 152.898271 
C 222.674978 152.898271 224.877945 151.985772 226.501976 150.361741 
C 228.126006 148.73771 229.038505 146.534743 229.038505 144.238017 
C 229.038505 141.94129 228.126006 139.738323 226.501976 138.114292 
C 224.877945 136.490261 222.674978 135.577762 220.378251 135.577762 
C 218.081525 135.577762 215.878558 136.490261 214.254527 138.114292 
C 212.630496 139.738323 211.717997 141.94129 211.717997 144.238017 
C 211.717997 146.534743 212.630496 148.73771 214.254527 150.361741 
C 215.878558 151.985772 218.081525 152.898271 220.378251 152.898271 
z
" clip-path="url(#p4c77a76687)" style="fill: #ffffff; stroke: #000000"/>
    <path d="M 240.421749 152.898271 
C 242.718475 152.898271 244.921442 151.985772 246.545473 150.361741 
C 248.169504 148.73771 249.082003 146.534743 249.082003 144.238017 
C 249.082003 141.94129 248.169504 139.738323 246.545473 138.114292 
C 244.921442 136.490261 242.718475 135.577762 240.421749 135.577762 
C 238.125022 135.577762 235.922055 136.490261 234.298024 138.114292 
C 232.673994 139.738323 231.761495 141.94129 231.761495 144.238017 
C 231.761495 146.534743 232.673994 148.73771 234.298024 150.361741 
C 235.922055 151.985772 238.125022 152.898271 240.421749 152.898271 
z
" clip-path="url(#p4c77a76687)" style="fill: #ffffff; stroke: #000000"/>
    <path d="M 240.421749 210.022238 
C 242.718475 210.022238 244.921442 209.109739 246.545473 207.485708 
C 248.169504 205.861677 249.082003 203.65871 249.082003 201.361983 
C 249.082003 199.065257 248.169504 196.86229 246.545473 195.238259 
C 244.921442 193.614228 242.718475 192.701729 240.421749 192.701729 
C 238.125022 192.701729 235.922055 193.614228 234.298024 195.238259 
C 232.673994 196.86229 231.761495 199.065257 231.761495 201.361983 
C 231.761495 203.65871 232.673994 205.861677 234.298024 207.485708 
C 235.922055 209.109739 238.125022 210.022238 240.421749 210.022238 
z
" clip-path="url(#p4c77a76687)" style="fill: #ffffff; stroke: #000000"/>
    <path d="M 260.465246 152.898271 
C 262.761972 152.898271 264.964939 151.985772 266.58897 150.361741 
C 268.213001 148.73771 269.1255 146.534743 269.1255 144.238017 
C 269.1255 141.94129 268.213001 139.738323 266.58897 138.114292 
C 264.964939 136.490261 262.761972 135.577762 260.465246 135.577762 
C 258.16852 135.577762 255.965552 136.490261 254.341521 138.114292 
C 252.717491 139.738323 251.804992 141.94129 251.804992 144.238017 
C 251.804992 146.534743 252.717491 148.73771 254.341521 150.361741 
C 255.965552 151.985772 258.16852 152.898271 260.465246 152.898271 
z
" clip-path="url(#p4c77a76687)" style="fill: #ffffff; stroke: #000000"/>
    <path d="M 260.465246 210.022238 
C 262.761972 210.022238 264.964939 209.109739 266.58897 207.485708 
C 268.213001 205.861677 269.1255 203.65871 269.1255 201.361983 
C 269.1255 199.065257 268.213001 196.86229 266.58897 195.238259 
C 264.964939 193.614228 262.761972 192.701729 260.465246 192.701729 
C 258.16852 192.701729 255.965552 193.614228 254.341521 195.238259 
C 252.717491 196.86229 251.804992 199.065257 251.804992 201.361983 
C 251.804992 203.65871 252.717491 205.861677 254.341521 207.485708 
C 255.965552 209.109739 258.16852 210.022238 260.465246 210.022238 
z
" clip-path="url(#p4c77a76687)" style="fill: #ffffff; stroke: #000000"/>
    <path d="M 280.508743 181.460254 
C 282.805469 181.460254 285.008437 180.547755 286.632467 178.923724 
C 288.256498 177.299694 289.168997 175.096726 289.168997 172.8 
C 289.168997 170.503274 288.256498 168.300306 286.632467 166.676276 
C 285.008437 165.052245 282.805469 164.139746 280.508743 164.139746 
C 278.212017 164.139746 276.009049 165.052245 274.385019 166.676276 
C 272.760988 168.300306 271.848489 170.503274 271.848489 172.8 
C 271.848489 175.096726 272.760988 177.299694 274.385019 178.923724 
C 276.009049 180.547755 278.212017 181.460254 280.508743 181.460254 
z
" clip-path="url(#p4c77a76687)" style="fill: #ffffff; stroke: #000000"/>
    <path d="M 300.55224 181.460254 
C 302.848966 181.460254 305.051934 180.547755 306.675964 178.923724 
C 308.299995 177.299694 309.212494 175.096726 309.212494 172.8 
C 309.212494 170.503274 308.299995 168.300306 306.675964 166.676276 
C 305.051934 165.052245 302.848966 164.139746 300.55224 164.139746 
C 298.255514 164.139746 296.052546 165.052245 294.428516 166.676276 
C 292.804485 168.300306 291.891986 170.503274 291.891986 172.8 
C 291.891986 175.096726 292.804485 177.299694 294.428516 178.923724 
C 296.052546 180.547755 298.255514 181.460254 300.55224 181.460254 
z
" clip-path="url(#p4c77a76687)" style="fill: #ffffff; stroke: #000000"/>
    <path d="M 320.595737 181.460254 
C 322.892463 181.460254 325.095431 180.547755 326.719462 178.923724 
C 328.343492 177.299694 329.255991 175.096726 329.255991 172.8 
C 329.255991 170.503274 328.343492 168.300306 326.719462 166.676276 
C 325.095431 165.052245 322.892463 164.139746 320.595737 164.139746 
C 318.299011 164.139746 316.096044 165.052245 314.472013 166.676276 
C 312.847982 168.300306 311.935483 170.503274 311.935483 172.8 
C 311.935483 175.096726 312.847982 177.299694 314.472013 178.923724 
C 316.096044 180.547755 318.299011 181.460254 320.595737 181.460254 
z
" clip-path="url(#p4c77a76687)" style="fill: #ffffff; stroke: #000000"/>
    <path d="M 340.639234 181.460254 
C 342.935961 181.460254 345.138928 180.547755 346.762959 178.923724 
C 348.386989 177.299694 349.299488 175.096726 349.299488 172.8 
C 349.299488 170.503274 348.386989 168.300306 346.762959 166.676276 
C 345.138928 165.052245 342.935961 164.139746 340.639234 164.139746 
C 338.342508 164.139746 336.139541 165.052245 334.51551 166.676276 
C 332.891479 168.300306 331.97898 170.503274 331.97898 172.8 
C 331.97898 175.096726 332.891479 177.299694 334.51551 178.923724 
C 336.139541 180.547755 338.342508 181.460254 340.639234 181.460254 
z
" clip-path="url(#p4c77a76687)" style="fill: #ffffff; stroke: #000000"/>
    <path d="M 360.682732 181.460254 
C 362.979458 181.460254 365.182425 180.547755 366.806456 178.923724 
C 368.430487 177.299694 369.342986 175.096726 369.342986 172.8 
C 369.342986 170.503274 368.430487 168.300306 366.806456 166.676276 
C 365.182425 165.052245 362.979458 164.139746 360.682732 164.139746 
C 358.386005 164.139746 356.183038 165.052245 354.559007 166.676276 
C 352.934977 168.300306 352.022478 170.503274 352.022478 172.8 
C 352.022478 175.096726 352.934977 177.299694 354.559007 178.923724 
C 356.183038 180.547755 358.386005 181.460254 360.682732 181.460254 
z
" clip-path="url(#p4c77a76687)" style="fill: #ffffff; stroke: #000000"/>
    <path d="M 380.726229 181.460254 
C 383.022955 181.460254 385.225922 180.547755 386.849953 178.923724 
C 388.473984 177.299694 389.386483 175.096726 389.386483 172.8 
C 389.386483 170.503274 388.473984 168.300306 386.849953 166.676276 
C 385.225922 165.052245 383.022955 164.139746 380.726229 164.139746 
C 378.429503 164.139746 376.226535 165.052245 374.602504 166.676276 
C 372.978474 168.300306 372.065975 170.503274 372.065975 172.8 
C 372.065975 175.096726 372.978474 177.299694 374.602504 178.923724 
C 376.226535 180.547755 378.429503 181.460254 380.726229 181.460254 
z
" clip-path="url(#p4c77a76687)" style="fill: #ffffff; stroke: #000000"/>
    <path d="M 400.769726 181.460254 
C 403.066452 181.460254 405.26942 180.547755 406.89345 178.923724 
C 408.517481 177.299694 409.42998 175.096726 409.42998 172.8 
C 409.42998 170.503274 408.517481 168.300306 406.89345 166.676276 
C 405.26942 165.052245 403.066452 164.139746 400.769726 164.139746 
C 398.473 164.139746 396.270032 165.052245 394.646002 166.676276 
C 393.021971 168.300306 392.109472 170.503274 392.109472 172.8 
C 392.109472 175.096726 393.021971 177.299694 394.646002 178.923724 
C 396.270032 180.547755 398.473 181.460254 400.769726 181.460254 
z
" clip-path="url(#p4c77a76687)" style="fill: #ffffff; stroke: #000000"/>
    <path d="M 420.813223 181.460254 
C 423.109949 181.460254 425.312917 180.547755 426.936947 178.923724 
C 428.560978 177.299694 429.473477 175.096726 429.473477 172.8 
C 429.473477 170.503274 428.560978 168.300306 426.936947 166.676276 
C 425.312917 165.052245 423.109949 164.139746 420.813223 164.139746 
C 418.516497 164.139746 416.313529 165.052245 414.689499 166.676276 
C 413.065468 168.300306 412.152969 170.503274 412.152969 172.8 
C 412.152969 175.096726 413.065468 177.299694 414.689499 178.923724 
C 416.313529 180.547755 418.516497 181.460254 420.813223 181.460254 
z
" clip-path="url(#p4c77a76687)" style="fill: #0000ff; stroke: #000000"/>
   </g>
  </g>
 </g>
 <defs>
  <clipPath id="p4c77a76687">
   <rect x="0" y="0" width="460.8" height="345.6"/>
  </clipPath>
 </defs>
</svg>
