<?xml version="1.0" encoding="utf-8" standalone="no"?>
<!DOCTYPE svg PUBLIC "-//W3C//DTD SVG 1.1//EN"
  "http://www.w3.org/Graphics/SVG/1.1/DTD/svg11.dtd">
<svg xmlns:xlink="http://www.w3.org/1999/xlink" width="460.8pt" height="345.6pt" viewBox="0 0 460.8 345.6" xmlns="http://www.w3.org/2000/svg" version="1.1">
 <metadata>
  <rdf:RDF xmlns:dc="http://purl.org/dc/elements/1.1/" xmlns:cc="http://creativecommons.org/ns#" xmlns:rdf="http://www.w3.org/1999/02/22-rdf-syntax-ns#">
   <cc:Work>
    <dc:type rdf:resource="http://purl.org/dc/dcmitype/StillImage"/>
    <dc:date>2025-11-05T23:19:05.235613</dc:date>
    <dc:format>image/svg+xml</dc:format>
    <dc:creator>
     <cc:Agent>
      <dc:title>Matplotlib v3.10.5, https://matplotlib.org/</dc:title>
     </cc:Agent>
    </dc:creator>
   </cc:Work>
  </rdf:RDF>
 </metadata>
 <defs>
  <style type="text/css">*{stroke-linejoin: round; stroke-linecap: butt}</style>
 </defs>
 <g id="figure_1">
  <g id="patch_1">
   <path d="M 0 345.6 
L 460.8 345.6 
L 460.8 0 
L 0 0 
z
" style="fill: #ffffff"/>
  </g>
  <g id="axes_1">
   <g id="patch_2">
    <path d="M 47.731321 311.737645 
Q 182.795689 244.205461 316.860058 177.173277 
" clip-path="url(#p6cbe8666f5)" style="fill: none; stroke: #4c4c4c; stroke-linecap: round"/>
    <path d="M 315.518417 177.173277 
L 316.860058 177.173277 
L 316.055073 178.24659 
" clip-path="url(#p6cbe8666f5)" style="fill: none; stroke: #4c4c4c; stroke-linecap: round"/>
   </g>
   <g id="patch_3">
    <path d="M 46.689708 310.125701 
Q 135.193633 237.713399 222.832246 166.009079 
" clip-path="url(#p6cbe8666f5)" style="fill: none; stroke: #4c4c4c; stroke-linecap: round"/>
    <path d="M 221.523555 166.30459 
L 222.832246 166.009079 
L 222.28344 167.233338 
" clip-path="url(#p6cbe8666f5)" style="fill: none; stroke: #4c4c4c; stroke-linecap: round"/>
   </g>
   <g id="patch_4">
    <path d="M 47.142962 284.76526 
Q 87.590321 257.187516 127.113929 230.239602 
" clip-path="url(#p6cbe8666f5)" style="fill: none; stroke: #4c4c4c; stroke-linecap: round"/>
    <path d="M 125.784454 230.419869 
L 127.113929 230.239602 
L 126.460458 231.411342 
" clip-path="url(#p6cbe8666f5)" style="fill: none; stroke: #4c4c4c; stroke-linecap: round"/>
   </g>
   <g id="patch_5">
    <path d="M 44.79098 282.438173 
Q 87.590594 218.238752 129.770035 154.969591 
" clip-path="url(#p6cbe8666f5)" style="fill: none; stroke: #4c4c4c; stroke-linecap: round"/>
    <path d="M 128.605165 155.635231 
L 129.770035 154.969591 
L 129.603625 156.300871 
" clip-path="url(#p6cbe8666f5)" style="fill: none; stroke: #4c4c4c; stroke-linecap: round"/>
   </g>
   <g id="patch_6">
    <path d="M 48.236874 261.054008 
Q 182.797341 218.239313 316.292404 175.763611 
" clip-path="url(#p6cbe8666f5)" style="fill: none; stroke: #4c4c4c; stroke-linecap: round"/>
    <path d="M 314.966971 175.5557 
L 316.292404 175.763611 
L 315.330815 176.699211 
" clip-path="url(#p6cbe8666f5)" style="fill: none; stroke: #4c4c4c; stroke-linecap: round"/>
   </g>
   <g id="patch_7">
    <path d="M 47.590405 259.531605 
Q 135.194573 211.747513 221.817223 164.498795 
" clip-path="url(#p6cbe8666f5)" style="fill: none; stroke: #4c4c4c; stroke-linecap: round"/>
    <path d="M 220.476437 164.54668 
L 221.817223 164.498795 
L 221.05106 165.600155 
" clip-path="url(#p6cbe8666f5)" style="fill: none; stroke: #4c4c4c; stroke-linecap: round"/>
   </g>
   <g id="patch_8">
    <path d="M 48.428635 235.794995 
Q 182.794567 205.257283 316.070268 174.967351 
" clip-path="url(#p6cbe8666f5)" style="fill: none; stroke: #4c4c4c; stroke-linecap: round"/>
    <path d="M 314.767135 174.648217 
L 316.070268 174.967351 
L 315.033081 175.818376 
" clip-path="url(#p6cbe8666f5)" style="fill: none; stroke: #4c4c4c; stroke-linecap: round"/>
   </g>
   <g id="patch_9">
    <path d="M 48.002983 234.434242 
Q 135.195136 198.764725 221.352496 163.518532 
" clip-path="url(#p6cbe8666f5)" style="fill: none; stroke: #4c4c4c; stroke-linecap: round"/>
    <path d="M 220.01466 163.417563 
L 221.352496 163.518532 
L 220.46902 164.528219 
" clip-path="url(#p6cbe8666f5)" style="fill: none; stroke: #4c4c4c; stroke-linecap: round"/>
   </g>
   <g id="patch_10">
    <path d="M 48.568098 210.577979 
Q 182.798787 192.273794 315.921694 174.120671 
" clip-path="url(#p6cbe8666f5)" style="fill: none; stroke: #4c4c4c; stroke-linecap: round"/>
    <path d="M 314.65163 173.688308 
L 315.921694 174.120671 
L 314.813766 174.877304 
" clip-path="url(#p6cbe8666f5)" style="fill: none; stroke: #4c4c4c; stroke-linecap: round"/>
   </g>
   <g id="patch_11">
    <path d="M 48.340018 209.470003 
Q 135.193264 185.782754 220.967871 162.389679 
" clip-path="url(#p6cbe8666f5)" style="fill: none; stroke: #4c4c4c; stroke-linecap: round"/>
    <path d="M 219.652284 162.126562 
L 220.967871 162.389679 
L 219.968024 163.284278 
" clip-path="url(#p6cbe8666f5)" style="fill: none; stroke: #4c4c4c; stroke-linecap: round"/>
   </g>
   <g id="patch_12">
    <path d="M 48.637829 185.38949 
Q 182.796696 179.29136 315.838683 173.243997 
" clip-path="url(#p6cbe8666f5)" style="fill: none; stroke: #4c4c4c; stroke-linecap: round"/>
    <path d="M 314.612676 172.699105 
L 315.838683 173.243997 
L 314.667165 173.897867 
" clip-path="url(#p6cbe8666f5)" style="fill: none; stroke: #4c4c4c; stroke-linecap: round"/>
   </g>
   <g id="patch_13">
    <path d="M 47.142962 180.903502 
Q 87.590321 153.325758 127.113929 126.377843 
" clip-path="url(#p6cbe8666f5)" style="fill: none; stroke: #4c4c4c; stroke-linecap: round"/>
    <path d="M 125.784454 126.558111 
L 127.113929 126.377843 
L 126.460458 127.549584 
" clip-path="url(#p6cbe8666f5)" style="fill: none; stroke: #4c4c4c; stroke-linecap: round"/>
   </g>
   <g id="patch_14">
    <path d="M 48.637829 160.21051 
Q 182.796696 166.30864 315.838683 172.356003 
" clip-path="url(#p6cbe8666f5)" style="fill: none; stroke: #4c4c4c; stroke-linecap: round"/>
    <path d="M 314.667165 171.702133 
L 315.838683 172.356003 
L 314.612676 172.900895 
" clip-path="url(#p6cbe8666f5)" style="fill: none; stroke: #4c4c4c; stroke-linecap: round"/>
   </g>
   <g id="patch_15">
    <path d="M 48.647998 159.81728 
Q 135.193467 159.81728 220.620902 159.81728 
" clip-path="url(#p6cbe8666f5)" style="fill: none; stroke: #4c4c4c; stroke-linecap: round"/>
    <path d="M 219.420902 159.21728 
L 220.620902 159.81728 
L 219.420902 160.41728 
" clip-path="url(#p6cbe8666f5)" style="fill: none; stroke: #4c4c4c; stroke-linecap: round"/>
   </g>
   <g id="patch_16">
    <path d="M 48.002983 156.537923 
Q 87.58963 140.343386 126.141485 124.572173 
" clip-path="url(#p6cbe8666f5)" style="fill: none; stroke: #4c4c4c; stroke-linecap: round"/>
    <path d="M 124.803648 124.471204 
L 126.141485 124.572173 
L 125.258008 125.58186 
" clip-path="url(#p6cbe8666f5)" style="fill: none; stroke: #4c4c4c; stroke-linecap: round"/>
   </g>
   <g id="patch_17">
    <path d="M 48.568098 135.022021 
Q 182.798787 153.326206 315.921694 171.479329 
" clip-path="url(#p6cbe8666f5)" style="fill: none; stroke: #4c4c4c; stroke-linecap: round"/>
    <path d="M 314.813766 170.722696 
L 315.921694 171.479329 
L 314.65163 171.911692 
" clip-path="url(#p6cbe8666f5)" style="fill: none; stroke: #4c4c4c; stroke-linecap: round"/>
   </g>
   <g id="patch_18">
    <path d="M 48.566645 135.021823 
Q 135.19247 146.834435 220.710514 158.495987 
" clip-path="url(#p6cbe8666f5)" style="fill: none; stroke: #4c4c4c; stroke-linecap: round"/>
    <path d="M 219.602586 157.739353 
L 220.710514 158.495987 
L 219.44045 158.928349 
" clip-path="url(#p6cbe8666f5)" style="fill: none; stroke: #4c4c4c; stroke-linecap: round"/>
   </g>
   <g id="patch_19">
    <path d="M 48.428635 109.805005 
Q 182.794567 140.342717 316.070268 170.632649 
" clip-path="url(#p6cbe8666f5)" style="fill: none; stroke: #4c4c4c; stroke-linecap: round"/>
    <path d="M 315.033081 169.781624 
L 316.070268 170.632649 
L 314.767135 170.951783 
" clip-path="url(#p6cbe8666f5)" style="fill: none; stroke: #4c4c4c; stroke-linecap: round"/>
   </g>
   <g id="patch_20">
    <path d="M 46.253887 113.868643 
Q 87.590073 153.325911 128.117523 192.011204 
" clip-path="url(#p6cbe8666f5)" style="fill: none; stroke: #4c4c4c; stroke-linecap: round"/>
    <path d="M 127.663781 190.74862 
L 128.117523 192.011204 
L 126.83521 191.616646 
" clip-path="url(#p6cbe8666f5)" style="fill: none; stroke: #4c4c4c; stroke-linecap: round"/>
   </g>
   <g id="patch_21">
    <path d="M 48.236874 84.545992 
Q 182.797341 127.360687 316.292404 169.836389 
" clip-path="url(#p6cbe8666f5)" style="fill: none; stroke: #4c4c4c; stroke-linecap: round"/>
    <path d="M 315.330815 168.900789 
L 316.292404 169.836389 
L 314.966971 170.0443 
" clip-path="url(#p6cbe8666f5)" style="fill: none; stroke: #4c4c4c; stroke-linecap: round"/>
   </g>
   <g id="patch_22">
    <path d="M 48.002983 85.200319 
Q 135.195136 120.869836 221.352496 156.116029 
" clip-path="url(#p6cbe8666f5)" style="fill: none; stroke: #4c4c4c; stroke-linecap: round"/>
    <path d="M 220.46902 155.106341 
L 221.352496 156.116029 
L 220.01466 156.216997 
" clip-path="url(#p6cbe8666f5)" style="fill: none; stroke: #4c4c4c; stroke-linecap: round"/>
   </g>
   <g id="patch_23">
    <path d="M 47.590405 86.068395 
Q 135.194573 133.852487 221.817223 181.101205 
" clip-path="url(#p6cbe8666f5)" style="fill: none; stroke: #4c4c4c; stroke-linecap: round"/>
    <path d="M 221.05106 179.999845 
L 221.817223 181.101205 
L 220.476437 181.05332 
" clip-path="url(#p6cbe8666f5)" style="fill: none; stroke: #4c4c4c; stroke-linecap: round"/>
   </g>
   <g id="patch_24">
    <path d="M 47.142962 60.83474 
Q 135.19364 120.869293 222.320568 180.274016 
" clip-path="url(#p6cbe8666f5)" style="fill: none; stroke: #4c4c4c; stroke-linecap: round"/>
    <path d="M 221.667097 179.102276 
L 222.320568 180.274016 
L 220.991093 180.093748 
" clip-path="url(#p6cbe8666f5)" style="fill: none; stroke: #4c4c4c; stroke-linecap: round"/>
   </g>
   <g id="patch_25">
    <path d="M 45.457787 62.669943 
Q 87.591182 114.37911 129.018346 165.221538 
" clip-path="url(#p6cbe8666f5)" style="fill: none; stroke: #4c4c4c; stroke-linecap: round"/>
    <path d="M 128.725479 163.912253 
L 129.018346 165.221538 
L 127.795197 164.67026 
" clip-path="url(#p6cbe8666f5)" style="fill: none; stroke: #4c4c4c; stroke-linecap: round"/>
   </g>
   <g id="patch_26">
    <path d="M 46.253887 61.937764 
Q 87.590073 101.395032 128.117523 140.080325 
" clip-path="url(#p6cbe8666f5)" style="fill: none; stroke: #4c4c4c; stroke-linecap: round"/>
    <path d="M 127.663781 138.817741 
L 128.117523 140.080325 
L 126.83521 139.685767 
" clip-path="url(#p6cbe8666f5)" style="fill: none; stroke: #4c4c4c; stroke-linecap: round"/>
   </g>
   <g id="patch_27">
    <path d="M 47.731321 33.862355 
Q 182.795689 101.394539 316.860058 168.426723 
" clip-path="url(#p6cbe8666f5)" style="fill: none; stroke: #4c4c4c; stroke-linecap: round"/>
    <path d="M 316.055073 167.35341 
L 316.860058 168.426723 
L 315.518417 168.426723 
" clip-path="url(#p6cbe8666f5)" style="fill: none; stroke: #4c4c4c; stroke-linecap: round"/>
   </g>
   <g id="patch_28">
    <path d="M 47.142962 34.8693 
Q 135.19364 94.903853 222.320568 154.308577 
" clip-path="url(#p6cbe8666f5)" style="fill: none; stroke: #4c4c4c; stroke-linecap: round"/>
    <path d="M 221.667097 153.136836 
L 222.320568 154.308577 
L 220.991093 154.128309 
" clip-path="url(#p6cbe8666f5)" style="fill: none; stroke: #4c4c4c; stroke-linecap: round"/>
   </g>
   <g id="patch_29">
    <path d="M 143.54663 222.452722 
Q 230.399875 198.765474 316.174482 175.372399 
" clip-path="url(#p6cbe8666f5)" style="fill: none; stroke: #4c4c4c; stroke-linecap: round"/>
    <path d="M 314.858895 175.109282 
L 316.174482 175.372399 
L 315.174636 176.266998 
" clip-path="url(#p6cbe8666f5)" style="fill: none; stroke: #4c4c4c; stroke-linecap: round"/>
   </g>
   <g id="patch_30">
    <path d="M 143.773257 148.004543 
Q 182.797325 153.326006 220.713612 158.496409 
" clip-path="url(#p6cbe8666f5)" style="fill: none; stroke: #4c4c4c; stroke-linecap: round"/>
    <path d="M 219.605683 157.739775 
L 220.713612 158.496409 
L 219.443547 158.928771 
" clip-path="url(#p6cbe8666f5)" style="fill: none; stroke: #4c4c4c; stroke-linecap: round"/>
   </g>
   <g id="patch_31">
    <path d="M 143.773257 148.004543 
Q 230.399082 159.817155 315.917126 171.478706 
" clip-path="url(#p6cbe8666f5)" style="fill: none; stroke: #4c4c4c; stroke-linecap: round"/>
    <path d="M 314.809197 170.722073 
L 315.917126 171.478706 
L 314.647061 171.911069 
" clip-path="url(#p6cbe8666f5)" style="fill: none; stroke: #4c4c4c; stroke-linecap: round"/>
   </g>
   <g id="patch_32">
    <path d="M 143.209595 150.113918 
Q 182.796242 166.308455 221.348096 182.079668 
" clip-path="url(#p6cbe8666f5)" style="fill: none; stroke: #4c4c4c; stroke-linecap: round"/>
    <path d="M 220.464619 181.069981 
L 221.348096 182.079668 
L 220.01026 182.180637 
" clip-path="url(#p6cbe8666f5)" style="fill: none; stroke: #4c4c4c; stroke-linecap: round"/>
   </g>
   <g id="patch_33">
    <path d="M 143.209595 124.148478 
Q 182.796242 140.343016 221.348096 156.114229 
" clip-path="url(#p6cbe8666f5)" style="fill: none; stroke: #4c4c4c; stroke-linecap: round"/>
    <path d="M 220.464619 155.104541 
L 221.348096 156.114229 
L 220.01026 156.215197 
" clip-path="url(#p6cbe8666f5)" style="fill: none; stroke: #4c4c4c; stroke-linecap: round"/>
   </g>
   <g id="patch_34">
    <path d="M 143.209595 195.486082 
Q 182.796242 179.291545 221.348096 163.520332 
" clip-path="url(#p6cbe8666f5)" style="fill: none; stroke: #4c4c4c; stroke-linecap: round"/>
    <path d="M 220.01026 163.419363 
L 221.348096 163.520332 
L 220.464619 164.530019 
" clip-path="url(#p6cbe8666f5)" style="fill: none; stroke: #4c4c4c; stroke-linecap: round"/>
   </g>
   <g id="patch_35">
    <path d="M 143.773257 171.630018 
Q 182.797325 166.308554 220.713612 161.138151 
" clip-path="url(#p6cbe8666f5)" style="fill: none; stroke: #4c4c4c; stroke-linecap: round"/>
    <path d="M 219.443547 160.705789 
L 220.713612 161.138151 
L 219.605683 161.894785 
" clip-path="url(#p6cbe8666f5)" style="fill: none; stroke: #4c4c4c; stroke-linecap: round"/>
   </g>
   <g id="patch_36">
    <path d="M 239.037978 160.406233 
Q 325.605609 166.308572 411.057796 172.134857 
" clip-path="url(#p6cbe8666f5)" style="fill: none; stroke: #4c4c4c; stroke-linecap: round"/>
    <path d="M 409.90139 171.454618 
L 411.057796 172.134857 
L 409.819762 172.651839 
" clip-path="url(#p6cbe8666f5)" style="fill: none; stroke: #4c4c4c; stroke-linecap: round"/>
   </g>
   <g id="patch_37">
    <path d="M 238.979868 184.612738 
Q 278.003937 179.291274 315.920223 174.120871 
" clip-path="url(#p6cbe8666f5)" style="fill: none; stroke: #4c4c4c; stroke-linecap: round"/>
    <path d="M 314.650159 173.688509 
L 315.920223 174.120871 
L 314.812295 174.877505 
" clip-path="url(#p6cbe8666f5)" style="fill: none; stroke: #4c4c4c; stroke-linecap: round"/>
   </g>
   <g id="patch_38">
    <path d="M 334.267833 172.8 
Q 373.210353 172.8 411.03484 172.8 
" clip-path="url(#p6cbe8666f5)" style="fill: none; stroke: #4c4c4c; stroke-linecap: round"/>
    <path d="M 409.83484 172.2 
L 411.03484 172.8 
L 409.83484 173.4 
" clip-path="url(#p6cbe8666f5)" style="fill: none; stroke: #4c4c4c; stroke-linecap: round"/>
   </g>
   <g id="PathCollection_1">
    <path d="M 39.986777 324.270171 
C 42.283503 324.270171 44.486471 323.357672 46.110501 321.733642 
C 47.734532 320.109611 48.647031 317.906644 48.647031 315.609917 
C 48.647031 313.313191 47.734532 311.110224 46.110501 309.486193 
C 44.486471 307.862162 42.283503 306.949663 39.986777 306.949663 
C 37.690051 306.949663 35.487083 307.862162 33.863053 309.486193 
C 32.239022 311.110224 31.326523 313.313191 31.326523 315.609917 
C 31.326523 317.906644 32.239022 320.109611 33.863053 321.733642 
C 35.487083 323.357672 37.690051 324.270171 39.986777 324.270171 
z
" clip-path="url(#p6cbe8666f5)" style="fill: #ffff00; stroke: #000000"/>
    <path d="M 39.986777 298.304732 
C 42.283503 298.304732 44.486471 297.392233 46.110501 295.768202 
C 47.734532 294.144172 48.647031 291.941204 48.647031 289.644478 
C 48.647031 287.347752 47.734532 285.144784 46.110501 283.520753 
C 44.486471 281.896723 42.283503 280.984224 39.986777 280.984224 
C 37.690051 280.984224 35.487083 281.896723 33.863053 283.520753 
C 32.239022 285.144784 31.326523 287.347752 31.326523 289.644478 
C 31.326523 291.941204 32.239022 294.144172 33.863053 295.768202 
C 35.487083 297.392233 37.690051 298.304732 39.986777 298.304732 
z
" clip-path="url(#p6cbe8666f5)" style="fill: #ffff00; stroke: #000000"/>
    <path d="M 39.986777 272.339292 
C 42.283503 272.339292 44.486471 271.426793 46.110501 269.802763 
C 47.734532 268.178732 48.647031 265.975765 48.647031 263.679038 
C 48.647031 261.382312 47.734532 259.179345 46.110501 257.555314 
C 44.486471 255.931283 42.283503 255.018784 39.986777 255.018784 
C 37.690051 255.018784 35.487083 255.931283 33.863053 257.555314 
C 32.239022 259.179345 31.326523 261.382312 31.326523 263.679038 
C 31.326523 265.975765 32.239022 268.178732 33.863053 269.802763 
C 35.487083 271.426793 37.690051 272.339292 39.986777 272.339292 
z
" clip-path="url(#p6cbe8666f5)" style="fill: #ffff00; stroke: #000000"/>
    <path d="M 39.986777 246.373853 
C 42.283503 246.373853 44.486471 245.461354 46.110501 243.837323 
C 47.734532 242.213292 48.647031 240.010325 48.647031 237.713599 
C 48.647031 235.416873 47.734532 233.213905 46.110501 231.589874 
C 44.486471 229.965844 42.283503 229.053345 39.986777 229.053345 
C 37.690051 229.053345 35.487083 229.965844 33.863053 231.589874 
C 32.239022 233.213905 31.326523 235.416873 31.326523 237.713599 
C 31.326523 240.010325 32.239022 242.213292 33.863053 243.837323 
C 35.487083 245.461354 37.690051 246.373853 39.986777 246.373853 
z
" clip-path="url(#p6cbe8666f5)" style="fill: #ffff00; stroke: #000000"/>
    <path d="M 39.986777 220.408413 
C 42.283503 220.408413 44.486471 219.495914 46.110501 217.871884 
C 47.734532 216.247853 48.647031 214.044885 48.647031 211.748159 
C 48.647031 209.451433 47.734532 207.248466 46.110501 205.624435 
C 44.486471 204.000404 42.283503 203.087905 39.986777 203.087905 
C 37.690051 203.087905 35.487083 204.000404 33.863053 205.624435 
C 32.239022 207.248466 31.326523 209.451433 31.326523 211.748159 
C 31.326523 214.044885 32.239022 216.247853 33.863053 217.871884 
C 35.487083 219.495914 37.690051 220.408413 39.986777 220.408413 
z
" clip-path="url(#p6cbe8666f5)" style="fill: #ffff00; stroke: #000000"/>
    <path d="M 39.986777 194.442974 
C 42.283503 194.442974 44.486471 193.530475 46.110501 191.906444 
C 47.734532 190.282413 48.647031 188.079446 48.647031 185.78272 
C 48.647031 183.485994 47.734532 181.283026 46.110501 179.658995 
C 44.486471 178.034965 42.283503 177.122466 39.986777 177.122466 
C 37.690051 177.122466 35.487083 178.034965 33.863053 179.658995 
C 32.239022 181.283026 31.326523 183.485994 31.326523 185.78272 
C 31.326523 188.079446 32.239022 190.282413 33.863053 191.906444 
C 35.487083 193.530475 37.690051 194.442974 39.986777 194.442974 
z
" clip-path="url(#p6cbe8666f5)" style="fill: #ffff00; stroke: #000000"/>
    <path d="M 39.986777 168.477534 
C 42.283503 168.477534 44.486471 167.565035 46.110501 165.941005 
C 47.734532 164.316974 48.647031 162.114006 48.647031 159.81728 
C 48.647031 157.520554 47.734532 155.317587 46.110501 153.693556 
C 44.486471 152.069525 42.283503 151.157026 39.986777 151.157026 
C 37.690051 151.157026 35.487083 152.069525 33.863053 153.693556 
C 32.239022 155.317587 31.326523 157.520554 31.326523 159.81728 
C 31.326523 162.114006 32.239022 164.316974 33.863053 165.941005 
C 35.487083 167.565035 37.690051 168.477534 39.986777 168.477534 
z
" clip-path="url(#p6cbe8666f5)" style="fill: #ffff00; stroke: #000000"/>
    <path d="M 39.986777 142.512095 
C 42.283503 142.512095 44.486471 141.599596 46.110501 139.975565 
C 47.734532 138.351534 48.647031 136.148567 48.647031 133.851841 
C 48.647031 131.555115 47.734532 129.352147 46.110501 127.728116 
C 44.486471 126.104086 42.283503 125.191587 39.986777 125.191587 
C 37.690051 125.191587 35.487083 126.104086 33.863053 127.728116 
C 32.239022 129.352147 31.326523 131.555115 31.326523 133.851841 
C 31.326523 136.148567 32.239022 138.351534 33.863053 139.975565 
C 35.487083 141.599596 37.690051 142.512095 39.986777 142.512095 
z
" clip-path="url(#p6cbe8666f5)" style="fill: #ffff00; stroke: #000000"/>
    <path d="M 39.986777 116.546655 
C 42.283503 116.546655 44.486471 115.634156 46.110501 114.010126 
C 47.734532 112.386095 48.647031 110.183127 48.647031 107.886401 
C 48.647031 105.589675 47.734532 103.386708 46.110501 101.762677 
C 44.486471 100.138646 42.283503 99.226147 39.986777 99.226147 
C 37.690051 99.226147 35.487083 100.138646 33.863053 101.762677 
C 32.239022 103.386708 31.326523 105.589675 31.326523 107.886401 
C 31.326523 110.183127 32.239022 112.386095 33.863053 114.010126 
C 35.487083 115.634156 37.690051 116.546655 39.986777 116.546655 
z
" clip-path="url(#p6cbe8666f5)" style="fill: #ffff00; stroke: #000000"/>
    <path d="M 39.986777 90.581216 
C 42.283503 90.581216 44.486471 89.668717 46.110501 88.044686 
C 47.734532 86.420655 48.647031 84.217688 48.647031 81.920962 
C 48.647031 79.624235 47.734532 77.421268 46.110501 75.797237 
C 44.486471 74.173207 42.283503 73.260708 39.986777 73.260708 
C 37.690051 73.260708 35.487083 74.173207 33.863053 75.797237 
C 32.239022 77.421268 31.326523 79.624235 31.326523 81.920962 
C 31.326523 84.217688 32.239022 86.420655 33.863053 88.044686 
C 35.487083 89.668717 37.690051 90.581216 39.986777 90.581216 
z
" clip-path="url(#p6cbe8666f5)" style="fill: #ffff00; stroke: #000000"/>
    <path d="M 39.986777 64.615776 
C 42.283503 64.615776 44.486471 63.703277 46.110501 62.079247 
C 47.734532 60.455216 48.647031 58.252248 48.647031 55.955522 
C 48.647031 53.658796 47.734532 51.455828 46.110501 49.831798 
C 44.486471 48.207767 42.283503 47.295268 39.986777 47.295268 
C 37.690051 47.295268 35.487083 48.207767 33.863053 49.831798 
C 32.239022 51.455828 31.326523 53.658796 31.326523 55.955522 
C 31.326523 58.252248 32.239022 60.455216 33.863053 62.079247 
C 35.487083 63.703277 37.690051 64.615776 39.986777 64.615776 
z
" clip-path="url(#p6cbe8666f5)" style="fill: #ffff00; stroke: #000000"/>
    <path d="M 39.986777 38.650337 
C 42.283503 38.650337 44.486471 37.737838 46.110501 36.113807 
C 47.734532 34.489776 48.647031 32.286809 48.647031 29.990083 
C 48.647031 27.693356 47.734532 25.490389 46.110501 23.866358 
C 44.486471 22.242328 42.283503 21.329829 39.986777 21.329829 
C 37.690051 21.329829 35.487083 22.242328 33.863053 23.866358 
C 32.239022 25.490389 31.326523 27.693356 31.326523 29.990083 
C 31.326523 32.286809 32.239022 34.489776 33.863053 36.113807 
C 35.487083 37.737838 37.690051 38.650337 39.986777 38.650337 
z
" clip-path="url(#p6cbe8666f5)" style="fill: #ffff00; stroke: #000000"/>
    <path d="M 135.193388 233.391133 
C 137.490115 233.391133 139.693082 232.478634 141.317113 230.854603 
C 142.941143 229.230573 143.853642 227.027605 143.853642 224.730879 
C 143.853642 222.434153 142.941143 220.231185 141.317113 218.607155 
C 139.693082 216.983124 137.490115 216.070625 135.193388 216.070625 
C 132.896662 216.070625 130.693695 216.983124 129.069664 218.607155 
C 127.445633 220.231185 126.533134 222.434153 126.533134 224.730879 
C 126.533134 227.027605 127.445633 229.230573 129.069664 230.854603 
C 130.693695 232.478634 132.896662 233.391133 135.193388 233.391133 
z
" clip-path="url(#p6cbe8666f5)" style="fill: #ffffff; stroke: #000000"/>
    <path d="M 135.193388 155.494815 
C 137.490115 155.494815 139.693082 154.582316 141.317113 152.958285 
C 142.941143 151.334254 143.853642 149.131287 143.853642 146.83456 
C 143.853642 144.537834 142.941143 142.334867 141.317113 140.710836 
C 139.693082 139.086805 137.490115 138.174306 135.193388 138.174306 
C 132.896662 138.174306 130.693695 139.086805 129.069664 140.710836 
C 127.445633 142.334867 126.533134 144.537834 126.533134 146.83456 
C 126.533134 149.131287 127.445633 151.334254 129.069664 152.958285 
C 130.693695 154.582316 132.896662 155.494815 135.193388 155.494815 
z
" clip-path="url(#p6cbe8666f5)" style="fill: #ffffff; stroke: #000000"/>
    <path d="M 135.193388 129.529375 
C 137.490115 129.529375 139.693082 128.616876 141.317113 126.992845 
C 142.941143 125.368815 143.853642 123.165847 143.853642 120.869121 
C 143.853642 118.572395 142.941143 116.369427 141.317113 114.745397 
C 139.693082 113.121366 137.490115 112.208867 135.193388 112.208867 
C 132.896662 112.208867 130.693695 113.121366 129.069664 114.745397 
C 127.445633 116.369427 126.533134 118.572395 126.533134 120.869121 
C 126.533134 123.165847 127.445633 125.368815 129.069664 126.992845 
C 130.693695 128.616876 132.896662 129.529375 135.193388 129.529375 
z
" clip-path="url(#p6cbe8666f5)" style="fill: #ffffff; stroke: #000000"/>
    <path d="M 135.193388 207.425694 
C 137.490115 207.425694 139.693082 206.513195 141.317113 204.889164 
C 142.941143 203.265133 143.853642 201.062166 143.853642 198.76544 
C 143.853642 196.468713 142.941143 194.265746 141.317113 192.641715 
C 139.693082 191.017684 137.490115 190.105185 135.193388 190.105185 
C 132.896662 190.105185 130.693695 191.017684 129.069664 192.641715 
C 127.445633 194.265746 126.533134 196.468713 126.533134 198.76544 
C 126.533134 201.062166 127.445633 203.265133 129.069664 204.889164 
C 130.693695 206.513195 132.896662 207.425694 135.193388 207.425694 
z
" clip-path="url(#p6cbe8666f5)" style="fill: #ffffff; stroke: #000000"/>
    <path d="M 135.193388 181.460254 
C 137.490115 181.460254 139.693082 180.547755 141.317113 178.923724 
C 142.941143 177.299694 143.853642 175.096726 143.853642 172.8 
C 143.853642 170.503274 142.941143 168.300306 141.317113 166.676276 
C 139.693082 165.052245 137.490115 164.139746 135.193388 164.139746 
C 132.896662 164.139746 130.693695 165.052245 129.069664 166.676276 
C 127.445633 168.300306 126.533134 170.503274 126.533134 172.8 
C 126.533134 175.096726 127.445633 177.299694 129.069664 178.923724 
C 130.693695 180.547755 132.896662 181.460254 135.193388 181.460254 
z
" clip-path="url(#p6cbe8666f5)" style="fill: #ffffff; stroke: #000000"/>
    <path d="M 230.4 168.477534 
C 232.696726 168.477534 234.899694 167.565035 236.523724 165.941005 
C 238.147755 164.316974 239.060254 162.114006 239.060254 159.81728 
C 239.060254 157.520554 238.147755 155.317587 236.523724 153.693556 
C 234.899694 152.069525 232.696726 151.157026 230.4 151.157026 
C 228.103274 151.157026 225.900306 152.069525 224.276276 153.693556 
C 222.652245 155.317587 221.739746 157.520554 221.739746 159.81728 
C 221.739746 162.114006 222.652245 164.316974 224.276276 165.941005 
C 225.900306 167.565035 228.103274 168.477534 230.4 168.477534 
z
" clip-path="url(#p6cbe8666f5)" style="fill: #ffffff; stroke: #000000"/>
    <path d="M 230.4 194.442974 
C 232.696726 194.442974 234.899694 193.530475 236.523724 191.906444 
C 238.147755 190.282413 239.060254 188.079446 239.060254 185.78272 
C 239.060254 183.485994 238.147755 181.283026 236.523724 179.658995 
C 234.899694 178.034965 232.696726 177.122466 230.4 177.122466 
C 228.103274 177.122466 225.900306 178.034965 224.276276 179.658995 
C 222.652245 181.283026 221.739746 183.485994 221.739746 185.78272 
C 221.739746 188.079446 222.652245 190.282413 224.276276 191.906444 
C 225.900306 193.530475 228.103274 194.442974 230.4 194.442974 
z
" clip-path="url(#p6cbe8666f5)" style="fill: #ffffff; stroke: #000000"/>
    <path d="M 325.606612 181.460254 
C 327.903338 181.460254 330.106305 180.547755 331.730336 178.923724 
C 333.354367 177.299694 334.266866 175.096726 334.266866 172.8 
C 334.266866 170.503274 333.354367 168.300306 331.730336 166.676276 
C 330.106305 165.052245 327.903338 164.139746 325.606612 164.139746 
C 323.309885 164.139746 321.106918 165.052245 319.482887 166.676276 
C 317.858857 168.300306 316.946358 170.503274 316.946358 172.8 
C 316.946358 175.096726 317.858857 177.299694 319.482887 178.923724 
C 321.106918 180.547755 323.309885 181.460254 325.606612 181.460254 
z
" clip-path="url(#p6cbe8666f5)" style="fill: #ffffff; stroke: #000000"/>
    <path d="M 420.813223 181.460254 
C 423.109949 181.460254 425.312917 180.547755 426.936947 178.923724 
C 428.560978 177.299694 429.473477 175.096726 429.473477 172.8 
C 429.473477 170.503274 428.560978 168.300306 426.936947 166.676276 
C 425.312917 165.052245 423.109949 164.139746 420.813223 164.139746 
C 418.516497 164.139746 416.313529 165.052245 414.689499 166.676276 
C 413.065468 168.300306 412.152969 170.503274 412.152969 172.8 
C 412.152969 175.096726 413.065468 177.299694 414.689499 178.923724 
C 416.313529 180.547755 418.516497 181.460254 420.813223 181.460254 
z
" clip-path="url(#p6cbe8666f5)" style="fill: #0000ff; stroke: #000000"/>
   </g>
  </g>
 </g>
 <defs>
  <clipPath id="p6cbe8666f5">
   <rect x="0" y="0" width="460.8" height="345.6"/>
  </clipPath>
 </defs>
</svg>
