<?xml version="1.0" encoding="utf-8" standalone="no"?>
<!DOCTYPE svg PUBLIC "-//W3C//DTD SVG 1.1//EN"
  "http://www.w3.org/Graphics/SVG/1.1/DTD/svg11.dtd">
<svg xmlns:xlink="http://www.w3.org/1999/xlink" width="460.8pt" height="345.6pt" viewBox="0 0 460.8 345.6" xmlns="http://www.w3.org/2000/svg" version="1.1">
 <metadata>
  <rdf:RDF xmlns:dc="http://purl.org/dc/elements/1.1/" xmlns:cc="http://creativecommons.org/ns#" xmlns:rdf="http://www.w3.org/1999/02/22-rdf-syntax-ns#">
   <cc:Work>
    <dc:type rdf:resource="http://purl.org/dc/dcmitype/StillImage"/>
    <dc:date>2025-11-07T20:58:51.062477</dc:date>
    <dc:format>image/svg+xml</dc:format>
    <dc:creator>
     <cc:Agent>
      <dc:title>Matplotlib v3.10.5, https://matplotlib.org/</dc:title>
     </cc:Agent>
    </dc:creator>
   </cc:Work>
  </rdf:RDF>
 </metadata>
 <defs>
  <style type="text/css">*{stroke-linejoin: round; stroke-linecap: butt}</style>
 </defs>
 <g id="figure_1">
  <g id="patch_1">
   <path d="M 0 345.6 
L 460.8 345.6 
L 460.8 0 
L 0 0 
z
" style="fill: #ffffff"/>
  </g>
  <g id="axes_1">
   <g id="patch_2">
    <path d="M 41.864682 307.159343 
Q 71.7219 172.801865 101.336581 39.535798 
" clip-path="url(#pcbe01df450)" style="fill: none; stroke: #4c4c4c; stroke-linecap: round"/>
    <path d="M 100.490552 40.577064 
L 101.336581 39.535798 
L 101.661977 40.837381 
" clip-path="url(#pcbe01df450)" style="fill: none; stroke: #4c4c4c; stroke-linecap: round"/>
   </g>
   <g id="patch_3">
    <path d="M 47.537138 311.362839 
Q 166.928434 244.205235 285.345279 177.59576 
" clip-path="url(#pcbe01df450)" style="fill: none; stroke: #4c4c4c; stroke-linecap: round"/>
    <path d="M 284.005232 177.661128 
L 285.345279 177.59576 
L 284.593545 178.707019 
" clip-path="url(#pcbe01df450)" style="fill: none; stroke: #4c4c4c; stroke-linecap: round"/>
   </g>
   <g id="patch_4">
    <path d="M 42.724703 212.189527 
Q 71.722057 125.197466 100.365857 39.266065 
" clip-path="url(#pcbe01df450)" style="fill: none; stroke: #4c4c4c; stroke-linecap: round"/>
    <path d="M 99.417174 40.214748 
L 100.365857 39.266065 
L 100.555594 40.594222 
" clip-path="url(#pcbe01df450)" style="fill: none; stroke: #4c4c4c; stroke-linecap: round"/>
   </g>
   <g id="patch_5">
    <path d="M 44.792433 227.61179 
Q 71.723419 268.008269 98.034232 307.474488 
" clip-path="url(#pcbe01df450)" style="fill: none; stroke: #4c4c4c; stroke-linecap: round"/>
    <path d="M 97.867822 306.143207 
L 98.034232 307.474488 
L 96.869361 306.808848 
" clip-path="url(#pcbe01df450)" style="fill: none; stroke: #4c4c4c; stroke-linecap: round"/>
   </g>
   <g id="patch_6">
    <path d="M 48.553086 219.118359 
Q 198.666995 196.601273 347.67524 174.250036 
" clip-path="url(#pcbe01df450)" style="fill: none; stroke: #4c4c4c; stroke-linecap: round"/>
    <path d="M 346.399512 173.834683 
L 347.67524 174.250036 
L 346.57752 175.021407 
" clip-path="url(#pcbe01df450)" style="fill: none; stroke: #4c4c4c; stroke-linecap: round"/>
   </g>
   <g id="patch_7">
    <path d="M 44.792433 117.98821 
Q 71.723419 77.591731 98.034232 38.125512 
" clip-path="url(#pcbe01df450)" style="fill: none; stroke: #4c4c4c; stroke-linecap: round"/>
    <path d="M 96.869361 38.791152 
L 98.034232 38.125512 
L 97.867822 39.456793 
" clip-path="url(#pcbe01df450)" style="fill: none; stroke: #4c4c4c; stroke-linecap: round"/>
   </g>
   <g id="patch_8">
    <path d="M 48.645093 125.196694 
Q 71.720716 125.196694 93.678304 125.196694 
" clip-path="url(#pcbe01df450)" style="fill: none; stroke: #4c4c4c; stroke-linecap: round"/>
    <path d="M 92.478304 124.596694 
L 93.678304 125.196694 
L 92.478304 125.796694 
" clip-path="url(#pcbe01df450)" style="fill: none; stroke: #4c4c4c; stroke-linecap: round"/>
   </g>
   <g id="patch_9">
    <path d="M 44.792433 132.405178 
Q 71.723419 172.801658 98.034232 212.267876 
" clip-path="url(#pcbe01df450)" style="fill: none; stroke: #4c4c4c; stroke-linecap: round"/>
    <path d="M 97.867822 210.936596 
L 98.034232 212.267876 
L 96.869361 211.602236 
" clip-path="url(#pcbe01df450)" style="fill: none; stroke: #4c4c4c; stroke-linecap: round"/>
   </g>
   <g id="patch_10">
    <path d="M 48.645093 29.990083 
Q 71.720716 29.990083 93.678304 29.990083 
" clip-path="url(#pcbe01df450)" style="fill: none; stroke: #4c4c4c; stroke-linecap: round"/>
    <path d="M 92.478304 29.390083 
L 93.678304 29.990083 
L 92.478304 30.590083 
" clip-path="url(#pcbe01df450)" style="fill: none; stroke: #4c4c4c; stroke-linecap: round"/>
   </g>
   <g id="patch_11">
    <path d="M 47.537138 34.237161 
Q 166.928434 101.394765 285.345279 168.00424 
" clip-path="url(#pcbe01df450)" style="fill: none; stroke: #4c4c4c; stroke-linecap: round"/>
    <path d="M 284.593545 166.892981 
L 285.345279 168.00424 
L 284.005232 167.938872 
" clip-path="url(#pcbe01df450)" style="fill: none; stroke: #4c4c4c; stroke-linecap: round"/>
   </g>
   <g id="patch_12">
    <path d="M 44.792433 37.198567 
Q 71.723419 77.595046 98.034232 117.061265 
" clip-path="url(#pcbe01df450)" style="fill: none; stroke: #4c4c4c; stroke-linecap: round"/>
    <path d="M 97.867822 115.729984 
L 98.034232 117.061265 
L 96.869361 116.395625 
" clip-path="url(#pcbe01df450)" style="fill: none; stroke: #4c4c4c; stroke-linecap: round"/>
   </g>
   <g id="patch_13">
    <path d="M 106.195777 38.203861 
Q 135.193131 125.195922 163.836931 211.127323 
" clip-path="url(#pcbe01df450)" style="fill: none; stroke: #4c4c4c; stroke-linecap: round"/>
    <path d="M 164.026668 209.799167 
L 163.836931 211.127323 
L 162.888248 210.17864 
" clip-path="url(#pcbe01df450)" style="fill: none; stroke: #4c4c4c; stroke-linecap: round"/>
   </g>
   <g id="patch_14">
    <path d="M 111.566064 128.237274 
Q 166.930392 148.998897 221.247871 169.367952 
" clip-path="url(#pcbe01df450)" style="fill: none; stroke: #4c4c4c; stroke-linecap: round"/>
    <path d="M 220.33495 168.384806 
L 221.247871 169.367952 
L 219.913602 169.508401 
" clip-path="url(#pcbe01df450)" style="fill: none; stroke: #4c4c4c; stroke-linecap: round"/>
   </g>
   <g id="patch_15">
    <path d="M 106.195777 307.396139 
Q 135.193131 220.404078 163.836931 134.472677 
" clip-path="url(#pcbe01df450)" style="fill: none; stroke: #4c4c4c; stroke-linecap: round"/>
    <path d="M 162.888248 135.42136 
L 163.836931 134.472677 
L 164.026668 135.800833 
" clip-path="url(#pcbe01df450)" style="fill: none; stroke: #4c4c4c; stroke-linecap: round"/>
   </g>
   <g id="patch_16">
    <path d="M 110.38741 310.412749 
Q 198.664566 244.204882 286.047294 178.667835 
" clip-path="url(#pcbe01df450)" style="fill: none; stroke: #4c4c4c; stroke-linecap: round"/>
    <path d="M 284.727294 178.907835 
L 286.047294 178.667835 
L 285.447294 179.867835 
" clip-path="url(#pcbe01df450)" style="fill: none; stroke: #4c4c4c; stroke-linecap: round"/>
   </g>
   <g id="patch_17">
    <path d="M 111.85758 218.303374 
Q 198.663653 196.601855 284.385073 175.1715 
" clip-path="url(#pcbe01df450)" style="fill: none; stroke: #4c4c4c; stroke-linecap: round"/>
    <path d="M 283.075381 174.880458 
L 284.385073 175.1715 
L 283.366423 176.044629 
" clip-path="url(#pcbe01df450)" style="fill: none; stroke: #4c4c4c; stroke-linecap: round"/>
   </g>
   <g id="patch_18">
    <path d="M 175.440031 218.807474 
Q 293.87146 196.601581 411.204004 174.601729 
" clip-path="url(#pcbe01df450)" style="fill: none; stroke: #4c4c4c; stroke-linecap: round"/>
    <path d="M 409.913985 174.233151 
L 411.204004 174.601729 
L 410.135131 175.412598 
" clip-path="url(#pcbe01df450)" style="fill: none; stroke: #4c4c4c; stroke-linecap: round"/>
   </g>
   <g id="patch_19">
    <path d="M 173.859452 215.205411 
Q 198.666687 196.599985 222.579494 178.66538 
" clip-path="url(#pcbe01df450)" style="fill: none; stroke: #4c4c4c; stroke-linecap: round"/>
    <path d="M 221.259494 178.90538 
L 222.579494 178.66538 
L 221.979494 179.86538 
" clip-path="url(#pcbe01df450)" style="fill: none; stroke: #4c4c4c; stroke-linecap: round"/>
   </g>
   <g id="patch_20">
    <path d="M 175.037138 128.237274 
Q 230.401466 148.998897 284.718946 169.367952 
" clip-path="url(#pcbe01df450)" style="fill: none; stroke: #4c4c4c; stroke-linecap: round"/>
    <path d="M 283.806025 168.384806 
L 284.718946 169.367952 
L 283.384676 169.508401 
" clip-path="url(#pcbe01df450)" style="fill: none; stroke: #4c4c4c; stroke-linecap: round"/>
   </g>
   <g id="patch_21">
    <path d="M 239.058316 172.8 
Q 262.133939 172.8 284.091527 172.8 
" clip-path="url(#pcbe01df450)" style="fill: none; stroke: #4c4c4c; stroke-linecap: round"/>
    <path d="M 282.891527 172.2 
L 284.091527 172.8 
L 282.891527 173.4 
" clip-path="url(#pcbe01df450)" style="fill: none; stroke: #4c4c4c; stroke-linecap: round"/>
   </g>
   <g id="patch_22">
    <path d="M 302.52939 172.8 
Q 325.605013 172.8 347.562602 172.8 
" clip-path="url(#pcbe01df450)" style="fill: none; stroke: #4c4c4c; stroke-linecap: round"/>
    <path d="M 346.362602 172.2 
L 347.562602 172.8 
L 346.362602 173.4 
" clip-path="url(#pcbe01df450)" style="fill: none; stroke: #4c4c4c; stroke-linecap: round"/>
   </g>
   <g id="patch_23">
    <path d="M 366.000465 172.8 
Q 389.076087 172.8 411.033676 172.8 
" clip-path="url(#pcbe01df450)" style="fill: none; stroke: #4c4c4c; stroke-linecap: round"/>
    <path d="M 409.833676 172.2 
L 411.033676 172.8 
L 409.833676 173.4 
" clip-path="url(#pcbe01df450)" style="fill: none; stroke: #4c4c4c; stroke-linecap: round"/>
   </g>
   <g id="PathCollection_1">
    <path d="M 39.986777 324.270171 
C 42.283503 324.270171 44.486471 323.357672 46.110501 321.733642 
C 47.734532 320.109611 48.647031 317.906644 48.647031 315.609917 
C 48.647031 313.313191 47.734532 311.110224 46.110501 309.486193 
C 44.486471 307.862162 42.283503 306.949663 39.986777 306.949663 
C 37.690051 306.949663 35.487083 307.862162 33.863053 309.486193 
C 32.239022 311.110224 31.326523 313.313191 31.326523 315.609917 
C 31.326523 317.906644 32.239022 320.109611 33.863053 321.733642 
C 35.487083 323.357672 37.690051 324.270171 39.986777 324.270171 
z
" clip-path="url(#pcbe01df450)" style="fill: #ffff00; stroke: #000000"/>
    <path d="M 39.986777 229.06356 
C 42.283503 229.06356 44.486471 228.151061 46.110501 226.52703 
C 47.734532 224.902999 48.647031 222.700032 48.647031 220.403306 
C 48.647031 218.10658 47.734532 215.903612 46.110501 214.279581 
C 44.486471 212.655551 42.283503 211.743052 39.986777 211.743052 
C 37.690051 211.743052 35.487083 212.655551 33.863053 214.279581 
C 32.239022 215.903612 31.326523 218.10658 31.326523 220.403306 
C 31.326523 222.700032 32.239022 224.902999 33.863053 226.52703 
C 35.487083 228.151061 37.690051 229.06356 39.986777 229.06356 
z
" clip-path="url(#pcbe01df450)" style="fill: #ffff00; stroke: #000000"/>
    <path d="M 39.986777 133.856948 
C 42.283503 133.856948 44.486471 132.944449 46.110501 131.320419 
C 47.734532 129.696388 48.647031 127.49342 48.647031 125.196694 
C 48.647031 122.899968 47.734532 120.697001 46.110501 119.07297 
C 44.486471 117.448939 42.283503 116.53644 39.986777 116.53644 
C 37.690051 116.53644 35.487083 117.448939 33.863053 119.07297 
C 32.239022 120.697001 31.326523 122.899968 31.326523 125.196694 
C 31.326523 127.49342 32.239022 129.696388 33.863053 131.320419 
C 35.487083 132.944449 37.690051 133.856948 39.986777 133.856948 
z
" clip-path="url(#pcbe01df450)" style="fill: #ffff00; stroke: #000000"/>
    <path d="M 39.986777 38.650337 
C 42.283503 38.650337 44.486471 37.737838 46.110501 36.113807 
C 47.734532 34.489776 48.647031 32.286809 48.647031 29.990083 
C 48.647031 27.693356 47.734532 25.490389 46.110501 23.866358 
C 44.486471 22.242328 42.283503 21.329829 39.986777 21.329829 
C 37.690051 21.329829 35.487083 22.242328 33.863053 23.866358 
C 32.239022 25.490389 31.326523 27.693356 31.326523 29.990083 
C 31.326523 32.286809 32.239022 34.489776 33.863053 36.113807 
C 35.487083 37.737838 37.690051 38.650337 39.986777 38.650337 
z
" clip-path="url(#pcbe01df450)" style="fill: #ffff00; stroke: #000000"/>
    <path d="M 103.457851 38.650337 
C 105.754577 38.650337 107.957545 37.737838 109.581576 36.113807 
C 111.205606 34.489776 112.118105 32.286809 112.118105 29.990083 
C 112.118105 27.693356 111.205606 25.490389 109.581576 23.866358 
C 107.957545 22.242328 105.754577 21.329829 103.457851 21.329829 
C 101.161125 21.329829 98.958158 22.242328 97.334127 23.866358 
C 95.710096 25.490389 94.797597 27.693356 94.797597 29.990083 
C 94.797597 32.286809 95.710096 34.489776 97.334127 36.113807 
C 98.958158 37.737838 101.161125 38.650337 103.457851 38.650337 
z
" clip-path="url(#pcbe01df450)" style="fill: #ffffff; stroke: #000000"/>
    <path d="M 103.457851 133.856948 
C 105.754577 133.856948 107.957545 132.944449 109.581576 131.320419 
C 111.205606 129.696388 112.118105 127.49342 112.118105 125.196694 
C 112.118105 122.899968 111.205606 120.697001 109.581576 119.07297 
C 107.957545 117.448939 105.754577 116.53644 103.457851 116.53644 
C 101.161125 116.53644 98.958158 117.448939 97.334127 119.07297 
C 95.710096 120.697001 94.797597 122.899968 94.797597 125.196694 
C 94.797597 127.49342 95.710096 129.696388 97.334127 131.320419 
C 98.958158 132.944449 101.161125 133.856948 103.457851 133.856948 
z
" clip-path="url(#pcbe01df450)" style="fill: #ffffff; stroke: #000000"/>
    <path d="M 103.457851 324.270171 
C 105.754577 324.270171 107.957545 323.357672 109.581576 321.733642 
C 111.205606 320.109611 112.118105 317.906644 112.118105 315.609917 
C 112.118105 313.313191 111.205606 311.110224 109.581576 309.486193 
C 107.957545 307.862162 105.754577 306.949663 103.457851 306.949663 
C 101.161125 306.949663 98.958158 307.862162 97.334127 309.486193 
C 95.710096 311.110224 94.797597 313.313191 94.797597 315.609917 
C 94.797597 317.906644 95.710096 320.109611 97.334127 321.733642 
C 98.958158 323.357672 101.161125 324.270171 103.457851 324.270171 
z
" clip-path="url(#pcbe01df450)" style="fill: #ffffff; stroke: #000000"/>
    <path d="M 103.457851 229.06356 
C 105.754577 229.06356 107.957545 228.151061 109.581576 226.52703 
C 111.205606 224.902999 112.118105 222.700032 112.118105 220.403306 
C 112.118105 218.10658 111.205606 215.903612 109.581576 214.279581 
C 107.957545 212.655551 105.754577 211.743052 103.457851 211.743052 
C 101.161125 211.743052 98.958158 212.655551 97.334127 214.279581 
C 95.710096 215.903612 94.797597 218.10658 94.797597 220.403306 
C 94.797597 222.700032 95.710096 224.902999 97.334127 226.52703 
C 98.958158 228.151061 101.161125 229.06356 103.457851 229.06356 
z
" clip-path="url(#pcbe01df450)" style="fill: #ffffff; stroke: #000000"/>
    <path d="M 166.928926 229.06356 
C 169.225652 229.06356 171.428619 228.151061 173.05265 226.52703 
C 174.676681 224.902999 175.58918 222.700032 175.58918 220.403306 
C 175.58918 218.10658 174.676681 215.903612 173.05265 214.279581 
C 171.428619 212.655551 169.225652 211.743052 166.928926 211.743052 
C 164.632199 211.743052 162.429232 212.655551 160.805201 214.279581 
C 159.181171 215.903612 158.268672 218.10658 158.268672 220.403306 
C 158.268672 222.700032 159.181171 224.902999 160.805201 226.52703 
C 162.429232 228.151061 164.632199 229.06356 166.928926 229.06356 
z
" clip-path="url(#pcbe01df450)" style="fill: #ffffff; stroke: #000000"/>
    <path d="M 166.928926 133.856948 
C 169.225652 133.856948 171.428619 132.944449 173.05265 131.320419 
C 174.676681 129.696388 175.58918 127.49342 175.58918 125.196694 
C 175.58918 122.899968 174.676681 120.697001 173.05265 119.07297 
C 171.428619 117.448939 169.225652 116.53644 166.928926 116.53644 
C 164.632199 116.53644 162.429232 117.448939 160.805201 119.07297 
C 159.181171 120.697001 158.268672 122.899968 158.268672 125.196694 
C 158.268672 127.49342 159.181171 129.696388 160.805201 131.320419 
C 162.429232 132.944449 164.632199 133.856948 166.928926 133.856948 
z
" clip-path="url(#pcbe01df450)" style="fill: #ffffff; stroke: #000000"/>
    <path d="M 230.4 181.460254 
C 232.696726 181.460254 234.899694 180.547755 236.523724 178.923724 
C 238.147755 177.299694 239.060254 175.096726 239.060254 172.8 
C 239.060254 170.503274 238.147755 168.300306 236.523724 166.676276 
C 234.899694 165.052245 232.696726 164.139746 230.4 164.139746 
C 228.103274 164.139746 225.900306 165.052245 224.276276 166.676276 
C 222.652245 168.300306 221.739746 170.503274 221.739746 172.8 
C 221.739746 175.096726 222.652245 177.299694 224.276276 178.923724 
C 225.900306 180.547755 228.103274 181.460254 230.4 181.460254 
z
" clip-path="url(#pcbe01df450)" style="fill: #ffffff; stroke: #000000"/>
    <path d="M 293.871074 181.460254 
C 296.167801 181.460254 298.370768 180.547755 299.994799 178.923724 
C 301.618829 177.299694 302.531328 175.096726 302.531328 172.8 
C 302.531328 170.503274 301.618829 168.300306 299.994799 166.676276 
C 298.370768 165.052245 296.167801 164.139746 293.871074 164.139746 
C 291.574348 164.139746 289.371381 165.052245 287.74735 166.676276 
C 286.123319 168.300306 285.21082 170.503274 285.21082 172.8 
C 285.21082 175.096726 286.123319 177.299694 287.74735 178.923724 
C 289.371381 180.547755 291.574348 181.460254 293.871074 181.460254 
z
" clip-path="url(#pcbe01df450)" style="fill: #ffffff; stroke: #000000"/>
    <path d="M 357.342149 181.460254 
C 359.638875 181.460254 361.841842 180.547755 363.465873 178.923724 
C 365.089904 177.299694 366.002403 175.096726 366.002403 172.8 
C 366.002403 170.503274 365.089904 168.300306 363.465873 166.676276 
C 361.841842 165.052245 359.638875 164.139746 357.342149 164.139746 
C 355.045423 164.139746 352.842455 165.052245 351.218424 166.676276 
C 349.594394 168.300306 348.681895 170.503274 348.681895 172.8 
C 348.681895 175.096726 349.594394 177.299694 351.218424 178.923724 
C 352.842455 180.547755 355.045423 181.460254 357.342149 181.460254 
z
" clip-path="url(#pcbe01df450)" style="fill: #ffffff; stroke: #000000"/>
    <path d="M 420.813223 181.460254 
C 423.109949 181.460254 425.312917 180.547755 426.936947 178.923724 
C 428.560978 177.299694 429.473477 175.096726 429.473477 172.8 
C 429.473477 170.503274 428.560978 168.300306 426.936947 166.676276 
C 425.312917 165.052245 423.109949 164.139746 420.813223 164.139746 
C 418.516497 164.139746 416.313529 165.052245 414.689499 166.676276 
C 413.065468 168.300306 412.152969 170.503274 412.152969 172.8 
C 412.152969 175.096726 413.065468 177.299694 414.689499 178.923724 
C 416.313529 180.547755 418.516497 181.460254 420.813223 181.460254 
z
" clip-path="url(#pcbe01df450)" style="fill: #0000ff; stroke: #000000"/>
   </g>
  </g>
 </g>
 <defs>
  <clipPath id="pcbe01df450">
   <rect x="0" y="0" width="460.8" height="345.6"/>
  </clipPath>
 </defs>
</svg>
